<?xml version="1.0" encoding="UTF-8" standalone="no"?>
<!DOCTYPE svg PUBLIC "-//W3C//DTD SVG 1.1//EN"
 "http://www.w3.org/Graphics/SVG/1.1/DTD/svg11.dtd">
<!-- Generated by graphviz version 2.38.0 (20140413.2041)
 -->
<!-- Title: mc::os::SignalError Pages: 1 -->
<!--zoomable 554 -->
<svg id="main" version="1.1" xmlns="http://www.w3.org/2000/svg" xmlns:xlink="http://www.w3.org/1999/xlink" xml:space="preserve" onload="init(evt)">
<style type="text/css"><![CDATA[
.edge:hover path { stroke: red; }
.edge:hover polygon { stroke: red; fill: red; }
]]></style>
<script type="text/javascript"><![CDATA[
var edges = document.getElementsByTagName('g');
if (edges && edges.length) {
  for (var i=0;i<edges.length;i++) {
    if (edges[i].id.substr(0,4)=='edge') {
      edges[i].setAttribute('class','edge');
    }
  }
}
]]></script>
        <defs>
                <circle id="rim" cx="0" cy="0" r="7"/>
                <circle id="rim2" cx="0" cy="0" r="3.5"/>
                <g id="zoomPlus">
                        <use xlink:href="#rim" fill="#404040">
                                <set attributeName="fill" to="#808080" begin="zoomplus.mouseover" end="zoomplus.mouseout"/>
                        </use>
                        <path d="M-4,0h8M0,-4v8" fill="none" stroke="white" stroke-width="1.5" pointer-events="none"/>
                </g>
                <g id="zoomMin">
                        <use xlink:href="#rim" fill="#404040">
                                <set attributeName="fill" to="#808080" begin="zoomminus.mouseover" end="zoomminus.mouseout"/>
                        </use>
                        <path d="M-4,0h8" fill="none" stroke="white" stroke-width="1.5" pointer-events="none"/>
                </g>
                <g id="dirArrow">
                        <path fill="none" stroke="white" stroke-width="1.5" d="M0,-3.0v7 M-2.5,-0.5L0,-3.0L2.5,-0.5"/>
                </g>
               <g id="resetDef">
                       <use xlink:href="#rim2" fill="#404040">
                               <set attributeName="fill" to="#808080" begin="reset.mouseover" end="reset.mouseout"/>
                       </use>
               </g>
        </defs>

<script type="text/javascript">
var viewWidth = 630;
var viewHeight = 554;
var sectionId = 'dynsection-0';
</script>
<script xlink:href="../../svgpan.js"/>
<svg id="graph" class="graph">
<g id="viewport">
<title>mc::os::SignalError</title>
<polygon fill="white" stroke="none" points="-4,4 -4,-550 626,-550 626,4 -4,4"/>
<!-- Node1 -->
<g id="node1" class="node"><title>Node1</title>
<polygon fill="#bfbfbf" stroke="black" points="336,-274.5 336,-293.5 437,-293.5 437,-274.5 336,-274.5"/>
<text text-anchor="middle" x="386.5" y="-281.5" font-family="Helvetica,sans-Serif" font-size="10.00">mc::os::SignalError</text>
</g>
<!-- Node5 -->
<g id="node5" class="node"><title>Node5</title>
<g id="a_node5"><a xlink:href="../../d7/df7/a00058.html" target="_top" xlink:title="mc::os::SignalAbortError">
<polygon fill="white" stroke="black" points="485.5,-526.5 485.5,-545.5 609.5,-545.5 609.5,-526.5 485.5,-526.5"/>
<text text-anchor="middle" x="547.5" y="-533.5" font-family="Helvetica,sans-Serif" font-size="10.00">mc::os::SignalAbortError</text>
</a>
</g>
</g>
<!-- Node1&#45;&gt;Node5 -->
<g id="edge4" class="edge"><title>Node1&#45;&gt;Node5</title>
<path fill="none" stroke="midnightblue" d="M388.782,-303.898C392.784,-348.88 408.957,-458.987 473,-517 477.2,-520.805 482.063,-523.867 487.248,-526.33"/>
<polygon fill="midnightblue" stroke="midnightblue" points="392.255,-303.408 387.991,-293.709 385.276,-303.95 392.255,-303.408"/>
</g>
<!-- Node6 -->
<g id="node6" class="node"><title>Node6</title>
<g id="a_node6"><a xlink:href="../../d3/d8b/a00059.html" target="_top" xlink:title="mc::os::SignalAlarmError">
<polygon fill="white" stroke="black" points="484.5,-488.5 484.5,-507.5 610.5,-507.5 610.5,-488.5 484.5,-488.5"/>
<text text-anchor="middle" x="547.5" y="-495.5" font-family="Helvetica,sans-Serif" font-size="10.00">mc::os::SignalAlarmError</text>
</a>
</g>
</g>
<!-- Node1&#45;&gt;Node6 -->
<g id="edge5" class="edge"><title>Node1&#45;&gt;Node6</title>
<path fill="none" stroke="midnightblue" d="M390.381,-303.863C397.194,-343.416 418.06,-432.227 473,-479 477.516,-482.845 482.715,-485.925 488.219,-488.39"/>
<polygon fill="midnightblue" stroke="midnightblue" points="393.82,-303.205 388.785,-293.883 386.908,-304.31 393.82,-303.205"/>
</g>
<!-- Node7 -->
<g id="node7" class="node"><title>Node7</title>
<g id="a_node7"><a xlink:href="../../d4/de8/a00061.html" target="_top" xlink:title="mc::os::SignalFloatingPoint\lError">
<polygon fill="white" stroke="black" points="479,-439 479,-469 616,-469 616,-439 479,-439"/>
<text text-anchor="start" x="487" y="-457" font-family="Helvetica,sans-Serif" font-size="10.00">mc::os::SignalFloatingPoint</text>
<text text-anchor="middle" x="547.5" y="-446" font-family="Helvetica,sans-Serif" font-size="10.00">Error</text>
</a>
</g>
</g>
<!-- Node1&#45;&gt;Node7 -->
<g id="edge6" class="edge"><title>Node1&#45;&gt;Node7</title>
<path fill="none" stroke="midnightblue" d="M393.874,-303.316C405.039,-334.241 431.023,-394.85 473,-429 477.705,-432.828 483.027,-436.082 488.604,-438.847"/>
<polygon fill="midnightblue" stroke="midnightblue" points="397.125,-302.008 390.54,-293.707 390.511,-304.302 397.125,-302.008"/>
</g>
<!-- Node8 -->
<g id="node8" class="node"><title>Node8</title>
<g id="a_node8"><a xlink:href="../../df/d03/a00062.html" target="_top" xlink:title="mc::os::SignalHangupError">
<polygon fill="white" stroke="black" points="480.5,-400.5 480.5,-419.5 614.5,-419.5 614.5,-400.5 480.5,-400.5"/>
<text text-anchor="middle" x="547.5" y="-407.5" font-family="Helvetica,sans-Serif" font-size="10.00">mc::os::SignalHangupError</text>
</a>
</g>
</g>
<!-- Node1&#45;&gt;Node8 -->
<g id="edge7" class="edge"><title>Node1&#45;&gt;Node8</title>
<path fill="none" stroke="midnightblue" d="M397.296,-302.603C410.975,-326.729 438.094,-368.389 473,-391 478.973,-394.869 485.697,-397.952 492.589,-400.407"/>
<polygon fill="midnightblue" stroke="midnightblue" points="400.302,-300.807 392.422,-293.725 394.166,-304.176 400.302,-300.807"/>
</g>
<!-- Node9 -->
<g id="node9" class="node"><title>Node9</title>
<g id="a_node9"><a xlink:href="../../d1/d6f/a00063.html" target="_top" xlink:title="mc::os::SignalIllegalInstruction\lError">
<polygon fill="white" stroke="black" points="473,-351 473,-381 622,-381 622,-351 473,-351"/>
<text text-anchor="start" x="481" y="-369" font-family="Helvetica,sans-Serif" font-size="10.00">mc::os::SignalIllegalInstruction</text>
<text text-anchor="middle" x="547.5" y="-358" font-family="Helvetica,sans-Serif" font-size="10.00">Error</text>
</a>
</g>
</g>
<!-- Node1&#45;&gt;Node9 -->
<g id="edge8" class="edge"><title>Node1&#45;&gt;Node9</title>
<path fill="none" stroke="midnightblue" d="M407.609,-299.599C424.383,-312.06 449.29,-329.314 473,-341 480.375,-344.635 488.408,-347.957 496.368,-350.909"/>
<polygon fill="midnightblue" stroke="midnightblue" points="409.717,-296.805 399.627,-293.574 405.5,-302.392 409.717,-296.805"/>
</g>
<!-- Node10 -->
<g id="node10" class="node"><title>Node10</title>
<g id="a_node10"><a xlink:href="../../df/d5f/a00064.html" target="_top" xlink:title="mc::os::SignalInterruptError">
<polygon fill="white" stroke="black" points="479.5,-312.5 479.5,-331.5 615.5,-331.5 615.5,-312.5 479.5,-312.5"/>
<text text-anchor="middle" x="547.5" y="-319.5" font-family="Helvetica,sans-Serif" font-size="10.00">mc::os::SignalInterruptError</text>
</a>
</g>
</g>
<!-- Node1&#45;&gt;Node10 -->
<g id="edge9" class="edge"><title>Node1&#45;&gt;Node10</title>
<path fill="none" stroke="midnightblue" d="M437.577,-295.968C459.858,-301.293 485.729,-307.476 506.666,-312.48"/>
<polygon fill="midnightblue" stroke="midnightblue" points="438.162,-292.509 427.622,-293.589 436.535,-299.318 438.162,-292.509"/>
</g>
<!-- Node11 -->
<g id="node11" class="node"><title>Node11</title>
<g id="a_node11"><a xlink:href="../../de/de1/a00065.html" target="_top" xlink:title="mc::os::SignalKillError">
<polygon fill="white" stroke="black" points="490.5,-274.5 490.5,-293.5 604.5,-293.5 604.5,-274.5 490.5,-274.5"/>
<text text-anchor="middle" x="547.5" y="-281.5" font-family="Helvetica,sans-Serif" font-size="10.00">mc::os::SignalKillError</text>
</a>
</g>
</g>
<!-- Node1&#45;&gt;Node11 -->
<g id="edge10" class="edge"><title>Node1&#45;&gt;Node11</title>
<path fill="none" stroke="midnightblue" d="M447.454,-284C461.55,-284 476.519,-284 490.436,-284"/>
<polygon fill="midnightblue" stroke="midnightblue" points="447.372,-280.5 437.372,-284 447.372,-287.5 447.372,-280.5"/>
</g>
<!-- Node12 -->
<g id="node12" class="node"><title>Node12</title>
<g id="a_node12"><a xlink:href="../../dc/ddf/a00067.html" target="_top" xlink:title="mc::os::SignalSegmentFault\lError">
<polygon fill="white" stroke="black" points="477.5,-225 477.5,-255 617.5,-255 617.5,-225 477.5,-225"/>
<text text-anchor="start" x="485.5" y="-243" font-family="Helvetica,sans-Serif" font-size="10.00">mc::os::SignalSegmentFault</text>
<text text-anchor="middle" x="547.5" y="-232" font-family="Helvetica,sans-Serif" font-size="10.00">Error</text>
</a>
</g>
</g>
<!-- Node1&#45;&gt;Node12 -->
<g id="edge11" class="edge"><title>Node1&#45;&gt;Node12</title>
<path fill="none" stroke="midnightblue" d="M431.732,-271.76C450.426,-266.587 472.383,-260.51 492.059,-255.065"/>
<polygon fill="midnightblue" stroke="midnightblue" points="430.705,-268.412 422.001,-274.453 432.572,-275.159 430.705,-268.412"/>
</g>
<!-- Node13 -->
<g id="node13" class="node"><title>Node13</title>
<g id="a_node13"><a xlink:href="../../da/d24/a00068.html" target="_top" xlink:title="mc::os::SignalStopError">
<polygon fill="white" stroke="black" points="487,-186.5 487,-205.5 608,-205.5 608,-186.5 487,-186.5"/>
<text text-anchor="middle" x="547.5" y="-193.5" font-family="Helvetica,sans-Serif" font-size="10.00">mc::os::SignalStopError</text>
</a>
</g>
</g>
<!-- Node1&#45;&gt;Node13 -->
<g id="edge12" class="edge"><title>Node1&#45;&gt;Node13</title>
<path fill="none" stroke="midnightblue" d="M404.064,-266.967C420.254,-251.268 446.299,-228.429 473,-215 480.654,-211.151 489.159,-208.031 497.59,-205.519"/>
<polygon fill="midnightblue" stroke="midnightblue" points="401.171,-264.907 396.545,-274.438 406.105,-269.873 401.171,-264.907"/>
</g>
<!-- Node14 -->
<g id="node14" class="node"><title>Node14</title>
<g id="a_node14"><a xlink:href="../../d4/d31/a00069.html" target="_top" xlink:title="mc::os::SignalTerminalInput\lError">
<polygon fill="white" stroke="black" points="479,-137 479,-167 616,-167 616,-137 479,-137"/>
<text text-anchor="start" x="487" y="-155" font-family="Helvetica,sans-Serif" font-size="10.00">mc::os::SignalTerminalInput</text>
<text text-anchor="middle" x="547.5" y="-144" font-family="Helvetica,sans-Serif" font-size="10.00">Error</text>
</a>
</g>
</g>
<!-- Node1&#45;&gt;Node14 -->
<g id="edge13" class="edge"><title>Node1&#45;&gt;Node14</title>
<path fill="none" stroke="midnightblue" d="M397.558,-265.785C411.527,-242.089 438.965,-200.902 473,-177 478.405,-173.204 484.433,-169.946 490.649,-167.158"/>
<polygon fill="midnightblue" stroke="midnightblue" points="394.504,-264.076 392.569,-274.493 400.577,-267.556 394.504,-264.076"/>
</g>
<!-- Node15 -->
<g id="node15" class="node"><title>Node15</title>
<g id="a_node15"><a xlink:href="../../d2/db1/a00070.html" target="_top" xlink:title="mc::os::SignalTerminalOutput\lError">
<polygon fill="white" stroke="black" points="474.5,-88 474.5,-118 620.5,-118 620.5,-88 474.5,-88"/>
<text text-anchor="start" x="482.5" y="-106" font-family="Helvetica,sans-Serif" font-size="10.00">mc::os::SignalTerminalOutput</text>
<text text-anchor="middle" x="547.5" y="-95" font-family="Helvetica,sans-Serif" font-size="10.00">Error</text>
</a>
</g>
</g>
<!-- Node1&#45;&gt;Node15 -->
<g id="edge14" class="edge"><title>Node1&#45;&gt;Node15</title>
<path fill="none" stroke="midnightblue" d="M392.935,-264.432C403.119,-231.333 428.197,-164.27 473,-127 477.128,-123.566 481.76,-120.62 486.639,-118.092"/>
<polygon fill="midnightblue" stroke="midnightblue" points="389.507,-263.681 390.045,-274.262 396.223,-265.655 389.507,-263.681"/>
</g>
<!-- Node16 -->
<g id="node16" class="node"><title>Node16</title>
<g id="a_node16"><a xlink:href="../../d0/d89/a00071.html" target="_top" xlink:title="mc::os::SignalTerminalStop\lError">
<polygon fill="white" stroke="black" points="479,-39 479,-69 616,-69 616,-39 479,-39"/>
<text text-anchor="start" x="487" y="-57" font-family="Helvetica,sans-Serif" font-size="10.00">mc::os::SignalTerminalStop</text>
<text text-anchor="middle" x="547.5" y="-46" font-family="Helvetica,sans-Serif" font-size="10.00">Error</text>
</a>
</g>
</g>
<!-- Node1&#45;&gt;Node16 -->
<g id="edge15" class="edge"><title>Node1&#45;&gt;Node16</title>
<path fill="none" stroke="midnightblue" d="M390.155,-264.177C396.657,-223.411 417.139,-129.676 473,-78 476.744,-74.5361 480.997,-71.5717 485.524,-69.0349"/>
<polygon fill="midnightblue" stroke="midnightblue" points="386.675,-263.787 388.674,-274.191 393.599,-264.811 386.675,-263.787"/>
</g>
<!-- Node17 -->
<g id="node17" class="node"><title>Node17</title>
<g id="a_node17"><a xlink:href="../../d6/d2c/a00072.html" target="_top" xlink:title="mc::os::SignalTerminateError">
<polygon fill="white" stroke="black" points="476,-0.5 476,-19.5 619,-19.5 619,-0.5 476,-0.5"/>
<text text-anchor="middle" x="547.5" y="-7.5" font-family="Helvetica,sans-Serif" font-size="10.00">mc::os::SignalTerminateError</text>
</a>
</g>
</g>
<!-- Node1&#45;&gt;Node17 -->
<g id="edge16" class="edge"><title>Node1&#45;&gt;Node17</title>
<path fill="none" stroke="midnightblue" d="M388.051,-264.217C390.493,-216.393 403.571,-93.6961 473,-29 477.146,-25.1364 481.973,-22.0347 487.136,-19.5479"/>
<polygon fill="midnightblue" stroke="midnightblue" points="384.544,-264.312 387.638,-274.445 391.539,-264.594 384.544,-264.312"/>
</g>
<!-- Node2 -->
<g id="node2" class="node"><title>Node2</title>
<g id="a_node2"><a xlink:href="../../de/d11/a00021.html" target="_top" xlink:title="Superclass that all exceptions in MACE extend. ">
<polygon fill="white" stroke="black" points="243,-274.5 243,-293.5 300,-293.5 300,-274.5 243,-274.5"/>
<text text-anchor="middle" x="271.5" y="-281.5" font-family="Helvetica,sans-Serif" font-size="10.00">mc::Error</text>
</a>
</g>
</g>
<!-- Node2&#45;&gt;Node1 -->
<g id="edge1" class="edge"><title>Node2&#45;&gt;Node1</title>
<path fill="none" stroke="midnightblue" d="M310.399,-284C318.503,-284 327.181,-284 335.656,-284"/>
<polygon fill="midnightblue" stroke="midnightblue" points="310.143,-280.5 300.143,-284 310.143,-287.5 310.143,-280.5"/>
</g>
<!-- Node3 -->
<g id="node3" class="node"><title>Node3</title>
<g id="a_node3"><a xlink:title="STL class. ">
<polygon fill="white" stroke="#bfbfbf" points="114,-274.5 114,-293.5 207,-293.5 207,-274.5 114,-274.5"/>
<text text-anchor="middle" x="160.5" y="-281.5" font-family="Helvetica,sans-Serif" font-size="10.00">std::runtime_error</text>
</a>
</g>
</g>
<!-- Node3&#45;&gt;Node2 -->
<g id="edge2" class="edge"><title>Node3&#45;&gt;Node2</title>
<path fill="none" stroke="midnightblue" d="M217.133,-284C226.054,-284 234.935,-284 242.819,-284"/>
<polygon fill="midnightblue" stroke="midnightblue" points="217.094,-280.5 207.094,-284 217.094,-287.5 217.094,-280.5"/>
</g>
<!-- Node4 -->
<g id="node4" class="node"><title>Node4</title>
<g id="a_node4"><a xlink:title="STL class. ">
<polygon fill="white" stroke="#bfbfbf" points="0,-274.5 0,-293.5 78,-293.5 78,-274.5 0,-274.5"/>
<text text-anchor="middle" x="39" y="-281.5" font-family="Helvetica,sans-Serif" font-size="10.00">std::exception</text>
</a>
</g>
</g>
<!-- Node4&#45;&gt;Node3 -->
<g id="edge3" class="edge"><title>Node4&#45;&gt;Node3</title>
<path fill="none" stroke="midnightblue" d="M88.2251,-284C96.6625,-284 105.418,-284 113.785,-284"/>
<polygon fill="midnightblue" stroke="midnightblue" points="88.1391,-280.5 78.1391,-284 88.1391,-287.5 88.1391,-280.5"/>
</g>
</g>
</svg>
        <g id="navigator" transform="translate(0 0)" fill="#404254">
                <rect fill="#f2f5e9" fill-opacity="0.5" stroke="#606060" stroke-width=".5" x="0" y="0" width="60" height="60"/>
                <use id="zoomplus" xlink:href="#zoomPlus" x="17" y="9" onmousedown="handleZoom(evt,'in')"/>
                <use id="zoomminus" xlink:href="#zoomMin" x="42" y="9" onmousedown="handleZoom(evt,'out')"/>
                <use id="reset" xlink:href="#resetDef" x="30" y="36" onmousedown="handleReset()"/>
                <g id="arrowUp" xlink:href="#dirArrow" transform="translate(30 24)" onmousedown="handlePan(0,-1)">
                  <use xlink:href="#rim" fill="#404040">
                        <set attributeName="fill" to="#808080" begin="arrowUp.mouseover" end="arrowUp.mouseout"/>
                  </use>
                  <path fill="none" stroke="white" stroke-width="1.5" d="M0,-3.0v7 M-2.5,-0.5L0,-3.0L2.5,-0.5"/>
                </g>
                <g id="arrowRight" xlink:href="#dirArrow" transform="rotate(90) translate(36 -43)" onmousedown="handlePan(1,0)">
                  <use xlink:href="#rim" fill="#404040">
                        <set attributeName="fill" to="#808080" begin="arrowRight.mouseover" end="arrowRight.mouseout"/>
                  </use>
                  <path fill="none" stroke="white" stroke-width="1.5" d="M0,-3.0v7 M-2.5,-0.5L0,-3.0L2.5,-0.5"/>
                </g>
                <g id="arrowDown" xlink:href="#dirArrow" transform="rotate(180) translate(-30 -48)" onmousedown="handlePan(0,1)">
                  <use xlink:href="#rim" fill="#404040">
                        <set attributeName="fill" to="#808080" begin="arrowDown.mouseover" end="arrowDown.mouseout"/>
                  </use>
                  <path fill="none" stroke="white" stroke-width="1.5" d="M0,-3.0v7 M-2.5,-0.5L0,-3.0L2.5,-0.5"/>
                </g>
                <g id="arrowLeft" xlink:href="#dirArrow" transform="rotate(270) translate(-36 17)" onmousedown="handlePan(-1,0)">
                  <use xlink:href="#rim" fill="#404040">
                        <set attributeName="fill" to="#808080" begin="arrowLeft.mouseover" end="arrowLeft.mouseout"/>
                  </use>
                  <path fill="none" stroke="white" stroke-width="1.5" d="M0,-3.0v7 M-2.5,-0.5L0,-3.0L2.5,-0.5"/>
                </g>
        </g>
        <svg viewBox="0 0 15 15" width="100%" height="30px" preserveAspectRatio="xMaxYMin meet">
         <g id="arrow_out" transform="scale(0.3 0.3)">
          <a xlink:href="a00335_org.svg" target="_base">
           <rect id="button" ry="5" rx="5" y="6" x="6" height="38" width="38"
                fill="#f2f5e9" fill-opacity="0.5" stroke="#606060" stroke-width="1.0"/>
           <path id="arrow"
             d="M 11.500037,31.436501 C 11.940474,20.09759 22.043105,11.32322 32.158766,21.979434 L 37.068811,17.246167 C 37.068811,17.246167 37.088388,32 37.088388,32 L 22.160133,31.978069 C 22.160133,31.978069 26.997745,27.140456 26.997745,27.140456 C 18.528582,18.264221 13.291696,25.230495 11.500037,31.436501 z"
             style="fill:#404040;"/>
          </a>
         </g>
        </svg>
</svg>
