<?xml version="1.0" encoding="UTF-8" standalone="no"?>
<!DOCTYPE svg PUBLIC "-//W3C//DTD SVG 1.1//EN"
 "http://www.w3.org/Graphics/SVG/1.1/DTD/svg11.dtd">
<!-- Generated by graphviz version 2.38.0 (20140413.2041)
 -->
<!-- Title: mc::Vector&lt; T, 1 &gt; Pages: 1 -->
<svg width="178pt" height="174pt"
 viewBox="0.00 0.00 177.50 174.00" xmlns="http://www.w3.org/2000/svg" xmlns:xlink="http://www.w3.org/1999/xlink">
<g id="graph0" class="graph" transform="scale(1 1) rotate(0) translate(4 170)">
<title>mc::Vector&lt; T, 1 &gt;</title>
<polygon fill="white" stroke="none" points="-4,4 -4,-170 173.5,-170 173.5,4 -4,4"/>
<!-- Node1 -->
<g id="node1" class="node"><title>Node1</title>
<polygon fill="#bfbfbf" stroke="black" points="13,-0.5 13,-19.5 112,-19.5 112,-0.5 13,-0.5"/>
<text text-anchor="middle" x="62.5" y="-7.5" font-family="Helvetica,sans-Serif" font-size="10.00">mc::Vector&lt; T, 1 &gt;</text>
</g>
<!-- Node2 -->
<g id="node2" class="node"><title>Node2</title>
<g id="a_node2"><a xlink:href="../../d1/d1e/a00087.html" target="_top" xlink:title="mc::VectorBase\&lt; Vector\l\&lt; T, 1 \&gt;, T, 1 \&gt;">
<polygon fill="white" stroke="black" points="0,-57.5 0,-87.5 125,-87.5 125,-57.5 0,-57.5"/>
<text text-anchor="start" x="8" y="-75.5" font-family="Helvetica,sans-Serif" font-size="10.00">mc::VectorBase&lt; Vector</text>
<text text-anchor="middle" x="62.5" y="-64.5" font-family="Helvetica,sans-Serif" font-size="10.00">&lt; T, 1 &gt;, T, 1 &gt;</text>
</a>
</g>
</g>
<!-- Node2&#45;&gt;Node1 -->
<g id="edge1" class="edge"><title>Node2&#45;&gt;Node1</title>
<path fill="none" stroke="midnightblue" d="M62.5,-47.3524C62.5,-37.5132 62.5,-26.7753 62.5,-19.5399"/>
<polygon fill="midnightblue" stroke="midnightblue" points="59.0001,-47.468 62.5,-57.468 66.0001,-47.4681 59.0001,-47.468"/>
</g>
<!-- Node3 -->
<g id="node3" class="node"><title>Node3</title>
<g id="a_node3"><a xlink:href="../../d1/d1e/a00087.html" target="_top" xlink:title="1&#45;dimensional vector class that supports mathmatical operations. ">
<polygon fill="white" stroke="black" points="2,-135.5 2,-165.5 123,-165.5 123,-135.5 2,-135.5"/>
<text text-anchor="start" x="10" y="-153.5" font-family="Helvetica,sans-Serif" font-size="10.00">mc::VectorBase&lt; Child,</text>
<text text-anchor="middle" x="62.5" y="-142.5" font-family="Helvetica,sans-Serif" font-size="10.00"> T, N &gt;</text>
</a>
</g>
</g>
<!-- Node3&#45;&gt;Node2 -->
<g id="edge2" class="edge"><title>Node3&#45;&gt;Node2</title>
<path fill="none" stroke="orange" stroke-dasharray="5,2" d="M62.5,-125.09C62.5,-112.757 62.5,-98.2237 62.5,-87.7309"/>
<polygon fill="orange" stroke="orange" points="59.0001,-125.205 62.5,-135.205 66.0001,-125.205 59.0001,-125.205"/>
<text text-anchor="middle" x="116" y="-109" font-family="Helvetica,sans-Serif" font-size="10.00"> &lt; Vector&lt; T, 1 &gt;, T, 1 &gt;</text>
</g>
</g>
</svg>
