<?xml version="1.0" encoding="UTF-8" standalone="no"?>
<!DOCTYPE svg PUBLIC "-//W3C//DTD SVG 1.1//EN"
 "http://www.w3.org/Graphics/SVG/1.1/DTD/svg11.dtd">
<!-- Generated by graphviz version 2.38.0 (20140413.2041)
 -->
<!-- Title: mc::gfx::PainterImpl Pages: 1 -->
<svg width="1786pt" height="253pt"
 viewBox="0.00 0.00 1786.00 253.00" xmlns="http://www.w3.org/2000/svg" xmlns:xlink="http://www.w3.org/1999/xlink">
<g id="graph0" class="graph" transform="scale(1 1) rotate(0) translate(4 249)">
<title>mc::gfx::PainterImpl</title>
<polygon fill="white" stroke="none" points="-4,4 -4,-249 1782,-249 1782,4 -4,4"/>
<!-- Node1 -->
<g id="node1" class="node"><title>Node1</title>
<polygon fill="#bfbfbf" stroke="black" points="1674,-78.5 1674,-97.5 1778,-97.5 1778,-78.5 1674,-78.5"/>
<text text-anchor="middle" x="1726" y="-85.5" font-family="Helvetica,sans-Serif" font-size="10.00">mc::gfx::PainterImpl</text>
</g>
<!-- Node2 -->
<g id="node2" class="node"><title>Node2</title>
<g id="a_node2"><a xlink:href="../../d4/d8c/a00035.html" target="_top" xlink:title="mc::Initializable">
<polygon fill="white" stroke="black" points="1072,-225.5 1072,-244.5 1156,-244.5 1156,-225.5 1072,-225.5"/>
<text text-anchor="middle" x="1114" y="-232.5" font-family="Helvetica,sans-Serif" font-size="10.00">mc::Initializable</text>
</a>
</g>
</g>
<!-- Node2&#45;&gt;Node1 -->
<g id="edge1" class="edge"><title>Node2&#45;&gt;Node1</title>
<path fill="none" stroke="midnightblue" d="M1166.3,-238.935C1255.32,-243.847 1442.69,-245.643 1587,-189 1642,-167.413 1694.88,-118.356 1715.7,-97.5811"/>
<polygon fill="midnightblue" stroke="midnightblue" points="1166.39,-235.434 1156.2,-238.341 1165.97,-242.422 1166.39,-235.434"/>
</g>
<!-- Node16 -->
<g id="node16" class="node"><title>Node16</title>
<g id="a_node16"><a xlink:href="../../d7/de0/a00022.html" target="_top" xlink:title="Abstract superclass for all graphical objects. ">
<polygon fill="white" stroke="black" points="1291.5,-143.5 1291.5,-162.5 1371.5,-162.5 1371.5,-143.5 1291.5,-143.5"/>
<text text-anchor="middle" x="1331.5" y="-150.5" font-family="Helvetica,sans-Serif" font-size="10.00">mc::gfx::Entity</text>
</a>
</g>
</g>
<!-- Node2&#45;&gt;Node16 -->
<g id="edge22" class="edge"><title>Node2&#45;&gt;Node16</title>
<path fill="none" stroke="midnightblue" d="M1149.75,-221.775C1193.37,-205.181 1267.09,-177.127 1305.52,-162.506"/>
<polygon fill="midnightblue" stroke="midnightblue" points="1148.24,-218.605 1140.14,-225.433 1150.73,-225.148 1148.24,-218.605"/>
</g>
<!-- Node3 -->
<g id="node3" class="node"><title>Node3</title>
<polygon fill="white" stroke="#bfbfbf" points="1477,-3 1477,-33 1578,-33 1578,-3 1477,-3"/>
<text text-anchor="start" x="1485" y="-21" font-family="Helvetica,sans-Serif" font-size="10.00">std::stack&lt; mc::gfx</text>
<text text-anchor="middle" x="1527.5" y="-10" font-family="Helvetica,sans-Serif" font-size="10.00">::Painter::State &gt;</text>
</g>
<!-- Node3&#45;&gt;Node1 -->
<g id="edge2" class="edge"><title>Node3&#45;&gt;Node1</title>
<path fill="none" stroke="#9a32cd" stroke-dasharray="5,2" d="M1588.25,-26.21C1610.07,-30.3532 1634.62,-36.3868 1656,-45 1677.21,-53.545 1699.21,-68.4946 1712.5,-78.3212"/>
<polygon fill="#9a32cd" stroke="#9a32cd" points="1588.58,-22.7125 1578.12,-24.381 1587.34,-29.6013 1588.58,-22.7125"/>
<text text-anchor="middle" x="1630.5" y="-48" font-family="Helvetica,sans-Serif" font-size="10.00"> stateStack</text>
</g>
<!-- Node4 -->
<g id="node4" class="node"><title>Node4</title>
<g id="a_node4"><a xlink:href="../../d4/d31/a00069.html" target="_top" xlink:title="mc::gfx::Painter::State">
<polygon fill="white" stroke="black" points="1274,-60.5 1274,-79.5 1389,-79.5 1389,-60.5 1274,-60.5"/>
<text text-anchor="middle" x="1331.5" y="-67.5" font-family="Helvetica,sans-Serif" font-size="10.00">mc::gfx::Painter::State</text>
</a>
</g>
</g>
<!-- Node4&#45;&gt;Node1 -->
<g id="edge19" class="edge"><title>Node4&#45;&gt;Node1</title>
<path fill="none" stroke="#9a32cd" stroke-dasharray="5,2" d="M1399.42,-71.8225C1450.76,-73.3525 1523.38,-75.8014 1587,-79 1615.77,-80.4468 1647.9,-82.5147 1673.9,-84.3036"/>
<polygon fill="#9a32cd" stroke="#9a32cd" points="1399.22,-68.3152 1389.13,-71.5194 1399.02,-75.3122 1399.22,-68.3152"/>
<text text-anchor="middle" x="1527.5" y="-82" font-family="Helvetica,sans-Serif" font-size="10.00"> state</text>
</g>
<!-- Node4&#45;&gt;Node3 -->
<g id="edge3" class="edge"><title>Node4&#45;&gt;Node3</title>
<path fill="none" stroke="#9a32cd" stroke-dasharray="5,2" d="M1368.61,-57.0602C1380.73,-52.9381 1394.38,-48.5345 1407,-45 1429.73,-38.6348 1455.22,-32.7133 1476.8,-28.0474"/>
<polygon fill="#9a32cd" stroke="#9a32cd" points="1367.16,-53.8598 1358.85,-60.4314 1369.44,-60.4767 1367.16,-53.8598"/>
<text text-anchor="middle" x="1428.5" y="-48" font-family="Helvetica,sans-Serif" font-size="10.00"> elements</text>
</g>
<!-- Node5 -->
<g id="node5" class="node"><title>Node5</title>
<g id="a_node5"><a xlink:href="../../db/db6/a00074.html" target="_top" xlink:title="Matrix&#45;based class that allows for the easy creation and management of transformation matrices...">
<polygon fill="white" stroke="black" points="1061,-125.5 1061,-144.5 1167,-144.5 1167,-125.5 1061,-125.5"/>
<text text-anchor="middle" x="1114" y="-132.5" font-family="Helvetica,sans-Serif" font-size="10.00">mc::TransformMatrix</text>
</a>
</g>
</g>
<!-- Node5&#45;&gt;Node4 -->
<g id="edge4" class="edge"><title>Node5&#45;&gt;Node4</title>
<path fill="none" stroke="#9a32cd" stroke-dasharray="5,2" d="M1167.86,-123.113C1194.51,-116.714 1227.2,-108.243 1256,-99 1273.71,-93.3158 1293.29,-85.6367 1307.93,-79.6084"/>
<polygon fill="#9a32cd" stroke="#9a32cd" points="1166.88,-119.747 1157.96,-125.461 1168.5,-126.558 1166.88,-119.747"/>
<text text-anchor="middle" x="1220.5" y="-122" font-family="Helvetica,sans-Serif" font-size="10.00"> transformation</text>
</g>
<!-- Node5&#45;&gt;Node16 -->
<g id="edge27" class="edge"><title>Node5&#45;&gt;Node16</title>
<path fill="none" stroke="#9a32cd" stroke-dasharray="5,2" d="M1177.29,-140.203C1214.07,-143.275 1259.5,-147.07 1291.31,-149.726"/>
<polygon fill="#9a32cd" stroke="#9a32cd" points="1177.42,-136.702 1167.17,-139.357 1176.84,-143.678 1177.42,-136.702"/>
<text text-anchor="middle" x="1220.5" y="-150" font-family="Helvetica,sans-Serif" font-size="10.00"> transformation</text>
</g>
<!-- Node6 -->
<g id="node6" class="node"><title>Node6</title>
<g id="a_node6"><a xlink:href="../../db/df8/a00076.html" target="_top" xlink:title="mc::Vector\&lt; float, 3 \&gt;">
<polygon fill="white" stroke="black" points="831,-125.5 831,-144.5 943,-144.5 943,-125.5 831,-125.5"/>
<text text-anchor="middle" x="887" y="-132.5" font-family="Helvetica,sans-Serif" font-size="10.00">mc::Vector&lt; float, 3 &gt;</text>
</a>
</g>
</g>
<!-- Node6&#45;&gt;Node5 -->
<g id="edge5" class="edge"><title>Node6&#45;&gt;Node5</title>
<path fill="none" stroke="#9a32cd" stroke-dasharray="5,2" d="M953.404,-135C987.584,-135 1028.84,-135 1060.85,-135"/>
<polygon fill="#9a32cd" stroke="#9a32cd" points="953.041,-131.5 943.041,-135 953.041,-138.5 953.041,-131.5"/>
<text text-anchor="middle" x="1002" y="-160" font-family="Helvetica,sans-Serif" font-size="10.00"> rotation</text>
<text text-anchor="middle" x="1002" y="-149" font-family="Helvetica,sans-Serif" font-size="10.00">scaler</text>
<text text-anchor="middle" x="1002" y="-138" font-family="Helvetica,sans-Serif" font-size="10.00">translation</text>
</g>
<!-- Node7 -->
<g id="node7" class="node"><title>Node7</title>
<g id="a_node7"><a xlink:href="../../df/d5d/a00084.html" target="_top" xlink:title="mc::VectorBase\&lt; Vector\l\&lt; float, N \&gt;, float, N \&gt;">
<polygon fill="white" stroke="black" points="619,-69 619,-99 744,-99 744,-69 619,-69"/>
<text text-anchor="start" x="627" y="-87" font-family="Helvetica,sans-Serif" font-size="10.00">mc::VectorBase&lt; Vector</text>
<text text-anchor="middle" x="681.5" y="-76" font-family="Helvetica,sans-Serif" font-size="10.00">&lt; float, N &gt;, float, N &gt;</text>
</a>
</g>
</g>
<!-- Node7&#45;&gt;Node6 -->
<g id="edge6" class="edge"><title>Node7&#45;&gt;Node6</title>
<path fill="none" stroke="midnightblue" d="M754.063,-94.0676C773.362,-97.4716 794.121,-101.768 813,-107 830.659,-111.894 849.994,-119.413 864.327,-125.427"/>
<polygon fill="midnightblue" stroke="midnightblue" points="754.568,-90.6033 744.121,-92.3686 753.389,-97.5032 754.568,-90.6033"/>
</g>
<!-- Node13 -->
<g id="node13" class="node"><title>Node13</title>
<g id="a_node13"><a xlink:href="../../db/df8/a00076.html" target="_top" xlink:title="mc::Vector\&lt; float, 4 \&gt;">
<polygon fill="white" stroke="black" points="831,-78.5 831,-97.5 943,-97.5 943,-78.5 831,-78.5"/>
<text text-anchor="middle" x="887" y="-85.5" font-family="Helvetica,sans-Serif" font-size="10.00">mc::Vector&lt; float, 4 &gt;</text>
</a>
</g>
</g>
<!-- Node7&#45;&gt;Node13 -->
<g id="edge15" class="edge"><title>Node7&#45;&gt;Node13</title>
<path fill="none" stroke="midnightblue" d="M754.371,-81.4472C773.435,-81.167 794.001,-81.2205 813,-82 818.718,-82.2346 824.681,-82.5721 830.626,-82.9691"/>
<polygon fill="midnightblue" stroke="midnightblue" points="754.191,-77.9498 744.255,-81.6284 754.316,-84.9487 754.191,-77.9498"/>
</g>
<!-- Node8 -->
<g id="node8" class="node"><title>Node8</title>
<g id="a_node8"><a xlink:href="../../df/d5d/a00084.html" target="_top" xlink:title="1&#45;dimensional vector class that supports mathmatical operations. ">
<polygon fill="white" stroke="black" points="108,-76 108,-106 229,-106 229,-76 108,-76"/>
<text text-anchor="start" x="116" y="-94" font-family="Helvetica,sans-Serif" font-size="10.00">mc::VectorBase&lt; Child,</text>
<text text-anchor="middle" x="168.5" y="-83" font-family="Helvetica,sans-Serif" font-size="10.00"> T, N &gt;</text>
</a>
</g>
</g>
<!-- Node8&#45;&gt;Node7 -->
<g id="edge7" class="edge"><title>Node8&#45;&gt;Node7</title>
<path fill="none" stroke="orange" stroke-dasharray="5,2" d="M239.156,-90.0458C339.514,-88.671 523.203,-86.1547 618.879,-84.8441"/>
<polygon fill="orange" stroke="orange" points="239.069,-86.5466 229.118,-90.1833 239.165,-93.5459 239.069,-86.5466"/>
<text text-anchor="start" x="397" y="-103" font-family="Helvetica,sans-Serif" font-size="10.00"> &lt; Vector&lt; float, N</text>
<text text-anchor="middle" x="437.5" y="-92" font-family="Helvetica,sans-Serif" font-size="10.00"> &gt;, float, N &gt;</text>
</g>
<!-- Node11 -->
<g id="node11" class="node"><title>Node11</title>
<g id="a_node11"><a xlink:href="../../df/d5d/a00084.html" target="_top" xlink:title="mc::VectorBase\&lt; Vector\l\&lt; T, N \&gt;, T, N \&gt;">
<polygon fill="white" stroke="black" points="375,-127 375,-157 500,-157 500,-127 375,-127"/>
<text text-anchor="start" x="383" y="-145" font-family="Helvetica,sans-Serif" font-size="10.00">mc::VectorBase&lt; Vector</text>
<text text-anchor="middle" x="437.5" y="-134" font-family="Helvetica,sans-Serif" font-size="10.00">&lt; T, N &gt;, T, N &gt;</text>
</a>
</g>
</g>
<!-- Node8&#45;&gt;Node11 -->
<g id="edge12" class="edge"><title>Node8&#45;&gt;Node11</title>
<path fill="none" stroke="orange" stroke-dasharray="5,2" d="M239.28,-98.5182C274.76,-102.979 318.424,-109.451 357,-118 368.12,-120.464 379.947,-123.693 390.987,-126.98"/>
<polygon fill="orange" stroke="orange" points="239.378,-95.0038 229.025,-97.2558 238.522,-101.951 239.378,-95.0038"/>
<text text-anchor="middle" x="302" y="-121" font-family="Helvetica,sans-Serif" font-size="10.00"> &lt; Vector&lt; T, N &gt;, T, N &gt;</text>
</g>
<!-- Node9 -->
<g id="node9" class="node"><title>Node9</title>
<polygon fill="white" stroke="#bfbfbf" points="0,-113.5 0,-132.5 29,-132.5 29,-113.5 0,-113.5"/>
<text text-anchor="middle" x="14.5" y="-120.5" font-family="Helvetica,sans-Serif" font-size="10.00">T</text>
</g>
<!-- Node9&#45;&gt;Node8 -->
<g id="edge8" class="edge"><title>Node9&#45;&gt;Node8</title>
<path fill="none" stroke="#9a32cd" stroke-dasharray="5,2" d="M39.0732,-118.037C57.4406,-114.17 83.7763,-108.626 107.824,-103.563"/>
<polygon fill="#9a32cd" stroke="#9a32cd" points="38.3215,-114.619 29.2571,-120.104 39.7636,-121.469 38.3215,-114.619"/>
<text text-anchor="middle" x="68.5" y="-120" font-family="Helvetica,sans-Serif" font-size="10.00"> content</text>
</g>
<!-- Node9&#45;&gt;Node11 -->
<g id="edge11" class="edge"><title>Node9&#45;&gt;Node11</title>
<path fill="none" stroke="#9a32cd" stroke-dasharray="5,2" d="M39.112,-127.906C41.7641,-128.336 44.4341,-128.715 47,-129 162.324,-141.83 297.938,-143.304 374.899,-142.879"/>
<polygon fill="#9a32cd" stroke="#9a32cd" points="39.6973,-124.455 29.2299,-126.094 38.4343,-131.341 39.6973,-124.455"/>
<text text-anchor="middle" x="168.5" y="-144" font-family="Helvetica,sans-Serif" font-size="10.00"> content</text>
</g>
<!-- Node14 -->
<g id="node14" class="node"><title>Node14</title>
<g id="a_node14"><a xlink:title="STL class. ">
<polygon fill="white" stroke="#bfbfbf" points="518,-0.5 518,-19.5 601,-19.5 601,-0.5 518,-0.5"/>
<text text-anchor="middle" x="559.5" y="-7.5" font-family="Helvetica,sans-Serif" font-size="10.00">std::stack&lt; T &gt;</text>
</a>
</g>
</g>
<!-- Node9&#45;&gt;Node14 -->
<g id="edge18" class="edge"><title>Node9&#45;&gt;Node14</title>
<path fill="none" stroke="#9a32cd" stroke-dasharray="5,2" d="M32.8225,-105.737C50.2125,-89.5849 78.5792,-66.301 108,-55 250.713,-0.181668 436.617,-2.68553 517.702,-7.05227"/>
<polygon fill="#9a32cd" stroke="#9a32cd" points="30.0232,-103.571 25.2108,-113.01 34.859,-108.632 30.0232,-103.571"/>
<text text-anchor="middle" x="168.5" y="-58" font-family="Helvetica,sans-Serif" font-size="10.00"> elements</text>
</g>
<!-- Node18 -->
<g id="node18" class="node"><title>Node18</title>
<g id="a_node18"><a xlink:title="STL class. ">
<polygon fill="white" stroke="#bfbfbf" points="259.5,-179.5 259.5,-198.5 344.5,-198.5 344.5,-179.5 259.5,-179.5"/>
<text text-anchor="middle" x="302" y="-186.5" font-family="Helvetica,sans-Serif" font-size="10.00">std::vector&lt; T &gt;</text>
</a>
</g>
</g>
<!-- Node9&#45;&gt;Node18 -->
<g id="edge26" class="edge"><title>Node9&#45;&gt;Node18</title>
<path fill="none" stroke="#9a32cd" stroke-dasharray="5,2" d="M27.6796,-140.593C32.8978,-146.788 39.5199,-153.159 47,-157 115.201,-192.025 206.818,-194.378 259.328,-192.186"/>
<polygon fill="#9a32cd" stroke="#9a32cd" points="30.3455,-138.318 21.4853,-132.508 24.7889,-142.575 30.3455,-138.318"/>
<text text-anchor="middle" x="68.5" y="-177" font-family="Helvetica,sans-Serif" font-size="10.00"> elements</text>
</g>
<!-- Node10 -->
<g id="node10" class="node"><title>Node10</title>
<g id="a_node10"><a xlink:href="../../db/df8/a00076.html" target="_top" xlink:title="mc::Vector\&lt; T, N \&gt;">
<polygon fill="white" stroke="black" points="631,-132.5 631,-151.5 732,-151.5 732,-132.5 631,-132.5"/>
<text text-anchor="middle" x="681.5" y="-139.5" font-family="Helvetica,sans-Serif" font-size="10.00">mc::Vector&lt; T, N &gt;</text>
</a>
</g>
</g>
<!-- Node10&#45;&gt;Node6 -->
<g id="edge9" class="edge"><title>Node10&#45;&gt;Node6</title>
<path fill="none" stroke="orange" stroke-dasharray="5,2" d="M742.36,-140.296C764.55,-139.63 789.925,-138.828 813,-138 818.831,-137.791 824.924,-137.56 830.995,-137.322"/>
<polygon fill="orange" stroke="orange" points="741.97,-136.806 732.079,-140.602 742.179,-143.803 741.97,-136.806"/>
<text text-anchor="middle" x="787.5" y="-143" font-family="Helvetica,sans-Serif" font-size="10.00"> &lt; float, 3 &gt;</text>
</g>
<!-- Node10&#45;&gt;Node13 -->
<g id="edge16" class="edge"><title>Node10&#45;&gt;Node13</title>
<path fill="none" stroke="orange" stroke-dasharray="5,2" d="M728.401,-129.82C765.234,-120.046 816.213,-106.518 850.104,-97.5252"/>
<polygon fill="orange" stroke="orange" points="727.181,-126.522 718.413,-132.47 728.976,-133.288 727.181,-126.522"/>
<text text-anchor="middle" x="787.5" y="-123" font-family="Helvetica,sans-Serif" font-size="10.00"> &lt; float, 4 &gt;</text>
</g>
<!-- Node11&#45;&gt;Node10 -->
<g id="edge10" class="edge"><title>Node11&#45;&gt;Node10</title>
<path fill="none" stroke="midnightblue" d="M510.375,-142C549.136,-142 595.996,-142 630.714,-142"/>
<polygon fill="midnightblue" stroke="midnightblue" points="510.193,-138.5 500.193,-142 510.193,-145.5 510.193,-138.5"/>
</g>
<!-- Node12 -->
<g id="node12" class="node"><title>Node12</title>
<g id="a_node12"><a xlink:href="../../dd/d1b/a00015.html" target="_top" xlink:title="Represents a color in the RGBA space. ">
<polygon fill="white" stroke="black" points="1084.5,-32.5 1084.5,-51.5 1143.5,-51.5 1143.5,-32.5 1084.5,-32.5"/>
<text text-anchor="middle" x="1114" y="-39.5" font-family="Helvetica,sans-Serif" font-size="10.00">mc::Color</text>
</a>
</g>
</g>
<!-- Node12&#45;&gt;Node4 -->
<g id="edge13" class="edge"><title>Node12&#45;&gt;Node4</title>
<path fill="none" stroke="#9a32cd" stroke-dasharray="5,2" d="M1153.84,-43.0183C1182.27,-44.1845 1221.7,-46.6782 1256,-52 1269.28,-54.0606 1283.68,-57.2971 1296.24,-60.4608"/>
<polygon fill="#9a32cd" stroke="#9a32cd" points="1153.64,-39.5085 1143.51,-42.6332 1153.38,-46.5036 1153.64,-39.5085"/>
<text text-anchor="middle" x="1220.5" y="-66" font-family="Helvetica,sans-Serif" font-size="10.00"> secondaryColor</text>
<text text-anchor="middle" x="1220.5" y="-55" font-family="Helvetica,sans-Serif" font-size="10.00">primaryColor</text>
</g>
<!-- Node13&#45;&gt;Node4 -->
<g id="edge14" class="edge"><title>Node13&#45;&gt;Node4</title>
<path fill="none" stroke="#9a32cd" stroke-dasharray="5,2" d="M953.232,-85.8261C1026.8,-83.3027 1150.01,-78.861 1256,-74 1261.82,-73.733 1267.9,-73.4362 1273.96,-73.1284"/>
<polygon fill="#9a32cd" stroke="#9a32cd" points="953.062,-82.3298 943.187,-86.1693 953.301,-89.3257 953.062,-82.3298"/>
<text text-anchor="middle" x="1114" y="-85" font-family="Helvetica,sans-Serif" font-size="10.00"> data</text>
</g>
<!-- Node14&#45;&gt;Node3 -->
<g id="edge17" class="edge"><title>Node14&#45;&gt;Node3</title>
<path fill="none" stroke="orange" stroke-dasharray="5,2" d="M611.583,-7.87031C657.382,-6.14529 726.418,-4 786.5,-4 786.5,-4 786.5,-4 1332.5,-4 1381.63,-4 1437.58,-8.52245 1476.73,-12.4266"/>
<polygon fill="orange" stroke="orange" points="611.177,-4.38323 601.319,-8.26455 611.446,-11.3781 611.177,-4.38323"/>
<text text-anchor="start" x="961" y="-18" font-family="Helvetica,sans-Serif" font-size="10.00"> &lt; mc::gfx::Painter</text>
<text text-anchor="middle" x="1002" y="-7" font-family="Helvetica,sans-Serif" font-size="10.00">::State &gt;</text>
</g>
<!-- Node15 -->
<g id="node15" class="node"><title>Node15</title>
<g id="a_node15"><a xlink:href="../../d5/d16/a00029.html" target="_top" xlink:title="mc::gfx::GraphicsEntity">
<polygon fill="white" stroke="black" points="1468,-99.5 1468,-118.5 1587,-118.5 1587,-99.5 1468,-99.5"/>
<text text-anchor="middle" x="1527.5" y="-106.5" font-family="Helvetica,sans-Serif" font-size="10.00">mc::gfx::GraphicsEntity</text>
</a>
</g>
</g>
<!-- Node15&#45;&gt;Node1 -->
<g id="edge20" class="edge"><title>Node15&#45;&gt;Node1</title>
<path fill="none" stroke="#9a32cd" stroke-dasharray="5,2" d="M1597.41,-101.635C1622.59,-98.9447 1650.59,-95.952 1673.93,-93.4573"/>
<polygon fill="#9a32cd" stroke="#9a32cd" points="1596.76,-98.1848 1587.19,-102.728 1597.51,-105.145 1596.76,-98.1848"/>
<text text-anchor="middle" x="1630.5" y="-104" font-family="Helvetica,sans-Serif" font-size="10.00"> entity</text>
</g>
<!-- Node16&#45;&gt;Node15 -->
<g id="edge21" class="edge"><title>Node16&#45;&gt;Node15</title>
<path fill="none" stroke="midnightblue" d="M1364.4,-139.798C1377.42,-134.843 1392.75,-129.556 1407,-126 1426.62,-121.105 1448.43,-117.485 1467.99,-114.874"/>
<polygon fill="midnightblue" stroke="midnightblue" points="1362.99,-136.592 1354.95,-143.489 1365.53,-143.113 1362.99,-136.592"/>
</g>
<!-- Node17 -->
<g id="node17" class="node"><title>Node17</title>
<polygon fill="white" stroke="#bfbfbf" points="1476,-150 1476,-180 1579,-180 1579,-150 1476,-150"/>
<text text-anchor="start" x="1484" y="-168" font-family="Helvetica,sans-Serif" font-size="10.00">std::vector&lt; mc::gfx</text>
<text text-anchor="middle" x="1527.5" y="-157" font-family="Helvetica,sans-Serif" font-size="10.00">::Entity * &gt;</text>
</g>
<!-- Node16&#45;&gt;Node17 -->
<g id="edge24" class="edge"><title>Node16&#45;&gt;Node17</title>
<path fill="none" stroke="#9a32cd" stroke-dasharray="5,2" d="M1381.99,-156.061C1410.75,-157.84 1446.91,-160.077 1475.87,-161.868"/>
<polygon fill="#9a32cd" stroke="#9a32cd" points="1381.96,-152.553 1371.76,-155.428 1381.52,-159.539 1381.96,-152.553"/>
<text text-anchor="middle" x="1428.5" y="-164" font-family="Helvetica,sans-Serif" font-size="10.00"> elements</text>
</g>
<!-- Node17&#45;&gt;Node16 -->
<g id="edge23" class="edge"><title>Node17&#45;&gt;Node16</title>
<path fill="none" stroke="#9a32cd" stroke-dasharray="5,2" d="M1490,-145.667C1477.65,-140.109 1463.55,-134.797 1450,-132 1417.73,-125.337 1380.22,-135.052 1356.43,-143.37"/>
<polygon fill="#9a32cd" stroke="#9a32cd" points="1488.52,-148.841 1499.06,-149.927 1491.5,-142.506 1488.52,-148.841"/>
<text text-anchor="middle" x="1428.5" y="-135" font-family="Helvetica,sans-Serif" font-size="10.00"> children</text>
</g>
<!-- Node18&#45;&gt;Node17 -->
<g id="edge25" class="edge"><title>Node18&#45;&gt;Node17</title>
<path fill="none" stroke="orange" stroke-dasharray="5,2" d="M354.828,-189.643C406.446,-190.228 487.95,-191 558.5,-191 558.5,-191 558.5,-191 1332.5,-191 1381.43,-191 1436.7,-182.773 1475.69,-175.575"/>
<polygon fill="orange" stroke="orange" points="354.638,-186.141 344.599,-189.525 354.558,-193.141 354.638,-186.141"/>
<text text-anchor="middle" x="887" y="-194" font-family="Helvetica,sans-Serif" font-size="10.00"> &lt; mc::gfx::Entity * &gt;</text>
</g>
</g>
</svg>
