<?xml version="1.0" encoding="UTF-8" standalone="no"?>
<!DOCTYPE svg PUBLIC "-//W3C//DTD SVG 1.1//EN"
 "http://www.w3.org/Graphics/SVG/1.1/DTD/svg11.dtd">
<!-- Generated by graphviz version 2.38.0 (20140413.2041)
 -->
<!-- Title: mc::os::WindowModule Pages: 1 -->
<!--zoomable 583 -->
<svg id="main" version="1.1" xmlns="http://www.w3.org/2000/svg" xmlns:xlink="http://www.w3.org/1999/xlink" xml:space="preserve" onload="init(evt)">
<style type="text/css"><![CDATA[
.edge:hover path { stroke: red; }
.edge:hover polygon { stroke: red; fill: red; }
]]></style>
<script type="text/javascript"><![CDATA[
var edges = document.getElementsByTagName('g');
if (edges && edges.length) {
  for (var i=0;i<edges.length;i++) {
    if (edges[i].id.substr(0,4)=='edge') {
      edges[i].setAttribute('class','edge');
    }
  }
}
]]></script>
        <defs>
                <circle id="rim" cx="0" cy="0" r="7"/>
                <circle id="rim2" cx="0" cy="0" r="3.5"/>
                <g id="zoomPlus">
                        <use xlink:href="#rim" fill="#404040">
                                <set attributeName="fill" to="#808080" begin="zoomplus.mouseover" end="zoomplus.mouseout"/>
                        </use>
                        <path d="M-4,0h8M0,-4v8" fill="none" stroke="white" stroke-width="1.5" pointer-events="none"/>
                </g>
                <g id="zoomMin">
                        <use xlink:href="#rim" fill="#404040">
                                <set attributeName="fill" to="#808080" begin="zoomminus.mouseover" end="zoomminus.mouseout"/>
                        </use>
                        <path d="M-4,0h8" fill="none" stroke="white" stroke-width="1.5" pointer-events="none"/>
                </g>
                <g id="dirArrow">
                        <path fill="none" stroke="white" stroke-width="1.5" d="M0,-3.0v7 M-2.5,-0.5L0,-3.0L2.5,-0.5"/>
                </g>
               <g id="resetDef">
                       <use xlink:href="#rim2" fill="#404040">
                               <set attributeName="fill" to="#808080" begin="reset.mouseover" end="reset.mouseout"/>
                       </use>
               </g>
        </defs>

<script type="text/javascript">
var viewWidth = 434;
var viewHeight = 583;
var sectionId = 'dynsection-1';
</script>
<script xlink:href="../../svgpan.js"/>
<svg id="graph" class="graph">
<g id="viewport">
<title>mc::os::WindowModule</title>
<polygon fill="white" stroke="none" points="-4,4 -4,-579 429.5,-579 429.5,4 -4,4"/>
<!-- Node1 -->
<g id="node1" class="node"><title>Node1</title>
<polygon fill="#bfbfbf" stroke="black" points="85,-6 85,-25 204,-25 204,-6 85,-6"/>
<text text-anchor="middle" x="144.5" y="-13" font-family="Helvetica,sans-Serif" font-size="10.00">mc::os::WindowModule</text>
</g>
<!-- Node2 -->
<g id="node2" class="node"><title>Node2</title>
<g id="a_node2"><a xlink:href="../../d1/dc6/a00037.html" target="_top" xlink:title="Abstract class used for doing a task in MACE. ">
<polygon fill="white" stroke="black" points="87.5,-78.5 87.5,-97.5 155.5,-97.5 155.5,-78.5 87.5,-78.5"/>
<text text-anchor="middle" x="121.5" y="-85.5" font-family="Helvetica,sans-Serif" font-size="10.00">mc::Module</text>
</a>
</g>
</g>
<!-- Node2&#45;&gt;Node1 -->
<g id="edge1" class="edge"><title>Node2&#45;&gt;Node1</title>
<path fill="none" stroke="midnightblue" d="M127.447,-68.7714C132.017,-54.7619 138.128,-36.0324 141.657,-25.2154"/>
<polygon fill="midnightblue" stroke="midnightblue" points="124.094,-67.7629 124.32,-78.3553 130.749,-69.934 124.094,-67.7629"/>
</g>
<!-- Node3 -->
<g id="node3" class="node"><title>Node3</title>
<g id="a_node3"><a xlink:href="../../df/d61/a00031.html" target="_top" xlink:title="mc::Initializable">
<polygon fill="white" stroke="black" points="71.5,-145.5 71.5,-164.5 155.5,-164.5 155.5,-145.5 71.5,-145.5"/>
<text text-anchor="middle" x="113.5" y="-152.5" font-family="Helvetica,sans-Serif" font-size="10.00">mc::Initializable</text>
</a>
</g>
</g>
<!-- Node3&#45;&gt;Node2 -->
<g id="edge2" class="edge"><title>Node3&#45;&gt;Node2</title>
<path fill="none" stroke="midnightblue" d="M115.834,-135.037C117.356,-122.67 119.27,-107.12 120.438,-97.6273"/>
<polygon fill="midnightblue" stroke="midnightblue" points="112.327,-134.881 114.579,-145.234 119.274,-135.736 112.327,-134.881"/>
</g>
<!-- Node4 -->
<g id="node4" class="node"><title>Node4</title>
<g id="a_node4"><a xlink:href="../../dd/da2/a00019.html" target="_top" xlink:title="Abstract superclass for all graphical objects. ">
<polygon fill="white" stroke="black" points="174.5,-78.5 174.5,-97.5 254.5,-97.5 254.5,-78.5 174.5,-78.5"/>
<text text-anchor="middle" x="214.5" y="-85.5" font-family="Helvetica,sans-Serif" font-size="10.00">mc::gfx::Entity</text>
</a>
</g>
</g>
<!-- Node3&#45;&gt;Node4 -->
<g id="edge4" class="edge"><title>Node3&#45;&gt;Node4</title>
<path fill="none" stroke="midnightblue" d="M135.613,-139.769C155.605,-126.903 184.388,-108.379 201.094,-97.6273"/>
<polygon fill="midnightblue" stroke="midnightblue" points="133.636,-136.879 127.121,-145.234 137.425,-142.765 133.636,-136.879"/>
</g>
<!-- Node4&#45;&gt;Node1 -->
<g id="edge3" class="edge"><title>Node4&#45;&gt;Node1</title>
<path fill="none" stroke="midnightblue" d="M198.804,-71.1921C184.706,-56.9928 164.526,-36.6687 153.154,-25.2154"/>
<polygon fill="midnightblue" stroke="midnightblue" points="196.387,-73.7252 205.917,-78.3553 201.354,-68.793 196.387,-73.7252"/>
</g>
<!-- Node5 -->
<g id="node5" class="node"><title>Node5</title>
<polygon fill="white" stroke="#bfbfbf" points="229,-0.5 229,-30.5 332,-30.5 332,-0.5 229,-0.5"/>
<text text-anchor="start" x="237" y="-18.5" font-family="Helvetica,sans-Serif" font-size="10.00">std::vector&lt; mc::gfx</text>
<text text-anchor="middle" x="280.5" y="-7.5" font-family="Helvetica,sans-Serif" font-size="10.00">::Entity * &gt;</text>
</g>
<!-- Node4&#45;&gt;Node5 -->
<g id="edge6" class="edge"><title>Node4&#45;&gt;Node5</title>
<path fill="none" stroke="#9a32cd" stroke-dasharray="5,2" d="M208.601,-68.3271C207.63,-61.7803 207.912,-54.6563 211.5,-49 216.465,-41.173 223.874,-35.1964 232.019,-30.6435"/>
<polygon fill="#9a32cd" stroke="#9a32cd" points="205.295,-69.5467 211.055,-78.4391 212.098,-67.8957 205.295,-69.5467"/>
<text text-anchor="middle" x="233" y="-52" font-family="Helvetica,sans-Serif" font-size="10.00"> elements</text>
</g>
<!-- Node5&#45;&gt;Node4 -->
<g id="edge5" class="edge"><title>Node5&#45;&gt;Node4</title>
<path fill="none" stroke="#9a32cd" stroke-dasharray="5,2" d="M271.64,-39.795C268.24,-46.8082 263.861,-54.1797 258.5,-60 251.457,-67.6471 241.762,-73.9077 233.265,-78.4682"/>
<polygon fill="#9a32cd" stroke="#9a32cd" points="274.848,-41.196 275.67,-30.633 268.44,-38.3778 274.848,-41.196"/>
<text text-anchor="middle" x="284" y="-52" font-family="Helvetica,sans-Serif" font-size="10.00"> children</text>
</g>
<!-- Node6 -->
<g id="node6" class="node"><title>Node6</title>
<g id="a_node6"><a xlink:title="STL class. ">
<polygon fill="white" stroke="#bfbfbf" points="292,-438.5 292,-457.5 377,-457.5 377,-438.5 292,-438.5"/>
<text text-anchor="middle" x="334.5" y="-445.5" font-family="Helvetica,sans-Serif" font-size="10.00">std::vector&lt; T &gt;</text>
</a>
</g>
</g>
<!-- Node6&#45;&gt;Node5 -->
<g id="edge7" class="edge"><title>Node6&#45;&gt;Node5</title>
<path fill="none" stroke="orange" stroke-dasharray="5,2" d="M334.174,-428.162C333.882,-409.663 333.5,-380.64 333.5,-355.5 333.5,-355.5 333.5,-355.5 333.5,-87 333.5,-63.8781 315.06,-43.5048 299.934,-30.682"/>
<polygon fill="orange" stroke="orange" points="330.679,-428.482 334.344,-438.422 337.678,-428.366 330.679,-428.482"/>
<text text-anchor="middle" x="379.5" y="-241.5" font-family="Helvetica,sans-Serif" font-size="10.00"> &lt; mc::gfx::Entity * &gt;</text>
</g>
<!-- Node7 -->
<g id="node7" class="node"><title>Node7</title>
<polygon fill="white" stroke="#bfbfbf" points="259,-555.5 259,-574.5 288,-574.5 288,-555.5 259,-555.5"/>
<text text-anchor="middle" x="273.5" y="-562.5" font-family="Helvetica,sans-Serif" font-size="10.00">T</text>
</g>
<!-- Node7&#45;&gt;Node6 -->
<g id="edge8" class="edge"><title>Node7&#45;&gt;Node6</title>
<path fill="none" stroke="#9a32cd" stroke-dasharray="5,2" d="M287.272,-547.35C295.667,-536.61 306.157,-522.067 313.5,-508 322.355,-491.036 328.96,-469.511 332.224,-457.714"/>
<polygon fill="#9a32cd" stroke="#9a32cd" points="284.355,-545.392 280.827,-555.383 289.815,-549.773 284.355,-545.392"/>
<text text-anchor="middle" x="323" y="-529" font-family="Helvetica,sans-Serif" font-size="10.00"> elements</text>
</g>
<!-- Node11 -->
<g id="node11" class="node"><title>Node11</title>
<g id="a_node11"><a xlink:href="../../d1/d1e/a00087.html" target="_top" xlink:title="1&#45;dimensional vector class that supports mathmatical operations. ">
<polygon fill="white" stroke="black" points="88,-477.5 88,-507.5 209,-507.5 209,-477.5 88,-477.5"/>
<text text-anchor="start" x="96" y="-495.5" font-family="Helvetica,sans-Serif" font-size="10.00">mc::VectorBase&lt; Child,</text>
<text text-anchor="middle" x="148.5" y="-484.5" font-family="Helvetica,sans-Serif" font-size="10.00"> T, N &gt;</text>
</a>
</g>
</g>
<!-- Node7&#45;&gt;Node11 -->
<g id="edge13" class="edge"><title>Node7&#45;&gt;Node11</title>
<path fill="none" stroke="#9a32cd" stroke-dasharray="5,2" d="M250.084,-551.546C241.671,-547.021 232.131,-541.832 223.5,-537 206.294,-527.368 187.058,-516.203 172.375,-507.596"/>
<polygon fill="#9a32cd" stroke="#9a32cd" points="248.528,-554.682 258.995,-556.318 251.832,-548.511 248.528,-554.682"/>
<text text-anchor="middle" x="241.5" y="-529" font-family="Helvetica,sans-Serif" font-size="10.00"> content</text>
</g>
<!-- Node13 -->
<g id="node13" class="node"><title>Node13</title>
<g id="a_node13"><a xlink:href="../../d1/d1e/a00087.html" target="_top" xlink:title="mc::VectorBase\&lt; Vector\l\&lt; T, N \&gt;, T, N \&gt;">
<polygon fill="white" stroke="black" points="132,-388.5 132,-418.5 257,-418.5 257,-388.5 132,-388.5"/>
<text text-anchor="start" x="140" y="-406.5" font-family="Helvetica,sans-Serif" font-size="10.00">mc::VectorBase&lt; Vector</text>
<text text-anchor="middle" x="194.5" y="-395.5" font-family="Helvetica,sans-Serif" font-size="10.00">&lt; T, N &gt;, T, N &gt;</text>
</a>
</g>
</g>
<!-- Node7&#45;&gt;Node13 -->
<g id="edge16" class="edge"><title>Node7&#45;&gt;Node13</title>
<path fill="none" stroke="#9a32cd" stroke-dasharray="5,2" d="M273.581,-545.052C273.363,-514.002 271.362,-454.027 259.5,-437 254.091,-429.236 246.272,-423.231 237.92,-418.622"/>
<polygon fill="#9a32cd" stroke="#9a32cd" points="270.082,-545.392 273.594,-555.387 277.082,-545.383 270.082,-545.392"/>
<text text-anchor="middle" x="289.5" y="-490" font-family="Helvetica,sans-Serif" font-size="10.00"> content</text>
</g>
<!-- Node8 -->
<g id="node8" class="node"><title>Node8</title>
<g id="a_node8"><a xlink:href="../../d1/d09/a00077.html" target="_top" xlink:title="Matrix&#45;based class that allows for the easy creation and management of transformation matrices...">
<polygon fill="white" stroke="black" points="173.5,-145.5 173.5,-164.5 279.5,-164.5 279.5,-145.5 173.5,-145.5"/>
<text text-anchor="middle" x="226.5" y="-152.5" font-family="Helvetica,sans-Serif" font-size="10.00">mc::TransformMatrix</text>
</a>
</g>
</g>
<!-- Node8&#45;&gt;Node4 -->
<g id="edge9" class="edge"><title>Node8&#45;&gt;Node4</title>
<path fill="none" stroke="#9a32cd" stroke-dasharray="5,2" d="M222.999,-135.037C220.716,-122.67 217.845,-107.12 216.093,-97.6273"/>
<polygon fill="#9a32cd" stroke="#9a32cd" points="219.624,-136.035 224.882,-145.234 226.508,-134.765 219.624,-136.035"/>
<text text-anchor="middle" x="253" y="-119" font-family="Helvetica,sans-Serif" font-size="10.00"> transformation</text>
</g>
<!-- Node9 -->
<g id="node9" class="node"><title>Node9</title>
<g id="a_node9"><a xlink:href="../../d1/d51/a00079.html" target="_top" xlink:title="mc::Vector\&lt; float, 3 \&gt;">
<polygon fill="white" stroke="black" points="138.5,-234.5 138.5,-253.5 250.5,-253.5 250.5,-234.5 138.5,-234.5"/>
<text text-anchor="middle" x="194.5" y="-241.5" font-family="Helvetica,sans-Serif" font-size="10.00">mc::Vector&lt; float, 3 &gt;</text>
</a>
</g>
</g>
<!-- Node9&#45;&gt;Node8 -->
<g id="edge10" class="edge"><title>Node9&#45;&gt;Node8</title>
<path fill="none" stroke="#9a32cd" stroke-dasharray="5,2" d="M201.226,-224.715C208.016,-206.255 218.209,-178.542 223.328,-164.625"/>
<polygon fill="#9a32cd" stroke="#9a32cd" points="197.853,-223.747 197.685,-234.34 204.422,-226.163 197.853,-223.747"/>
<text text-anchor="middle" x="238.5" y="-208" font-family="Helvetica,sans-Serif" font-size="10.00"> rotation</text>
<text text-anchor="middle" x="238.5" y="-197" font-family="Helvetica,sans-Serif" font-size="10.00">scaler</text>
<text text-anchor="middle" x="238.5" y="-186" font-family="Helvetica,sans-Serif" font-size="10.00">translation</text>
</g>
<!-- Node10 -->
<g id="node10" class="node"><title>Node10</title>
<g id="a_node10"><a xlink:href="../../d1/d1e/a00087.html" target="_top" xlink:title="mc::VectorBase\&lt; Vector\l\&lt; float, N \&gt;, float, N \&gt;">
<polygon fill="white" stroke="black" points="0,-339.5 0,-369.5 125,-369.5 125,-339.5 0,-339.5"/>
<text text-anchor="start" x="8" y="-357.5" font-family="Helvetica,sans-Serif" font-size="10.00">mc::VectorBase&lt; Vector</text>
<text text-anchor="middle" x="62.5" y="-346.5" font-family="Helvetica,sans-Serif" font-size="10.00">&lt; float, N &gt;, float, N &gt;</text>
</a>
</g>
</g>
<!-- Node10&#45;&gt;Node9 -->
<g id="edge11" class="edge"><title>Node10&#45;&gt;Node9</title>
<path fill="none" stroke="midnightblue" d="M87.8436,-332.668C117.004,-308.699 163.51,-270.472 184.104,-253.545"/>
<polygon fill="midnightblue" stroke="midnightblue" points="85.2595,-330.262 79.7567,-339.316 89.7044,-335.669 85.2595,-330.262"/>
</g>
<!-- Node11&#45;&gt;Node10 -->
<g id="edge12" class="edge"><title>Node11&#45;&gt;Node10</title>
<path fill="none" stroke="orange" stroke-dasharray="5,2" d="M78.6663,-476.562C70.7668,-472.136 63.7017,-466.409 58.5,-459 39.6944,-432.215 49.6497,-391.203 56.9765,-369.731"/>
<polygon fill="orange" stroke="orange" points="77.3591,-479.818 87.8847,-481.026 80.4101,-473.518 77.3591,-479.818"/>
<text text-anchor="start" x="58.5" y="-451" font-family="Helvetica,sans-Serif" font-size="10.00"> &lt; Vector&lt; float, N</text>
<text text-anchor="middle" x="99" y="-440" font-family="Helvetica,sans-Serif" font-size="10.00"> &gt;, float, N &gt;</text>
</g>
<!-- Node11&#45;&gt;Node13 -->
<g id="edge17" class="edge"><title>Node11&#45;&gt;Node13</title>
<path fill="none" stroke="orange" stroke-dasharray="5,2" d="M144.377,-467.184C143.834,-457.313 144.734,-446.115 149.5,-437 153.341,-429.656 159.679,-423.578 166.404,-418.745"/>
<polygon fill="orange" stroke="orange" points="140.905,-467.626 145.418,-477.212 147.867,-466.904 140.905,-467.626"/>
<text text-anchor="middle" x="204.5" y="-445.5" font-family="Helvetica,sans-Serif" font-size="10.00"> &lt; Vector&lt; T, N &gt;, T, N &gt;</text>
</g>
<!-- Node12 -->
<g id="node12" class="node"><title>Node12</title>
<g id="a_node12"><a xlink:href="../../d1/d51/a00079.html" target="_top" xlink:title="mc::Vector\&lt; T, N \&gt;">
<polygon fill="white" stroke="black" points="144,-301.5 144,-320.5 245,-320.5 245,-301.5 144,-301.5"/>
<text text-anchor="middle" x="194.5" y="-308.5" font-family="Helvetica,sans-Serif" font-size="10.00">mc::Vector&lt; T, N &gt;</text>
</a>
</g>
</g>
<!-- Node12&#45;&gt;Node9 -->
<g id="edge14" class="edge"><title>Node12&#45;&gt;Node9</title>
<path fill="none" stroke="orange" stroke-dasharray="5,2" d="M194.5,-291.037C194.5,-278.67 194.5,-263.12 194.5,-253.627"/>
<polygon fill="orange" stroke="orange" points="191,-291.234 194.5,-301.234 198,-291.234 191,-291.234"/>
<text text-anchor="middle" x="220" y="-275" font-family="Helvetica,sans-Serif" font-size="10.00"> &lt; float, 3 &gt;</text>
</g>
<!-- Node13&#45;&gt;Node12 -->
<g id="edge15" class="edge"><title>Node13&#45;&gt;Node12</title>
<path fill="none" stroke="midnightblue" d="M194.5,-378.275C194.5,-359.198 194.5,-333.709 194.5,-320.596"/>
<polygon fill="midnightblue" stroke="midnightblue" points="191,-378.359 194.5,-388.359 198,-378.359 191,-378.359"/>
</g>
</g>
</svg>
        <g id="navigator" transform="translate(0 0)" fill="#404254">
                <rect fill="#f2f5e9" fill-opacity="0.5" stroke="#606060" stroke-width=".5" x="0" y="0" width="60" height="60"/>
                <use id="zoomplus" xlink:href="#zoomPlus" x="17" y="9" onmousedown="handleZoom(evt,'in')"/>
                <use id="zoomminus" xlink:href="#zoomMin" x="42" y="9" onmousedown="handleZoom(evt,'out')"/>
                <use id="reset" xlink:href="#resetDef" x="30" y="36" onmousedown="handleReset()"/>
                <g id="arrowUp" xlink:href="#dirArrow" transform="translate(30 24)" onmousedown="handlePan(0,-1)">
                  <use xlink:href="#rim" fill="#404040">
                        <set attributeName="fill" to="#808080" begin="arrowUp.mouseover" end="arrowUp.mouseout"/>
                  </use>
                  <path fill="none" stroke="white" stroke-width="1.5" d="M0,-3.0v7 M-2.5,-0.5L0,-3.0L2.5,-0.5"/>
                </g>
                <g id="arrowRight" xlink:href="#dirArrow" transform="rotate(90) translate(36 -43)" onmousedown="handlePan(1,0)">
                  <use xlink:href="#rim" fill="#404040">
                        <set attributeName="fill" to="#808080" begin="arrowRight.mouseover" end="arrowRight.mouseout"/>
                  </use>
                  <path fill="none" stroke="white" stroke-width="1.5" d="M0,-3.0v7 M-2.5,-0.5L0,-3.0L2.5,-0.5"/>
                </g>
                <g id="arrowDown" xlink:href="#dirArrow" transform="rotate(180) translate(-30 -48)" onmousedown="handlePan(0,1)">
                  <use xlink:href="#rim" fill="#404040">
                        <set attributeName="fill" to="#808080" begin="arrowDown.mouseover" end="arrowDown.mouseout"/>
                  </use>
                  <path fill="none" stroke="white" stroke-width="1.5" d="M0,-3.0v7 M-2.5,-0.5L0,-3.0L2.5,-0.5"/>
                </g>
                <g id="arrowLeft" xlink:href="#dirArrow" transform="rotate(270) translate(-36 17)" onmousedown="handlePan(-1,0)">
                  <use xlink:href="#rim" fill="#404040">
                        <set attributeName="fill" to="#808080" begin="arrowLeft.mouseover" end="arrowLeft.mouseout"/>
                  </use>
                  <path fill="none" stroke="white" stroke-width="1.5" d="M0,-3.0v7 M-2.5,-0.5L0,-3.0L2.5,-0.5"/>
                </g>
        </g>
        <svg viewBox="0 0 15 15" width="100%" height="30px" preserveAspectRatio="xMaxYMin meet">
         <g id="arrow_out" transform="scale(0.3 0.3)">
          <a xlink:href="a00375_org.svg" target="_base">
           <rect id="button" ry="5" rx="5" y="6" x="6" height="38" width="38"
                fill="#f2f5e9" fill-opacity="0.5" stroke="#606060" stroke-width="1.0"/>
           <path id="arrow"
             d="M 11.500037,31.436501 C 11.940474,20.09759 22.043105,11.32322 32.158766,21.979434 L 37.068811,17.246167 C 37.068811,17.246167 37.088388,32 37.088388,32 L 22.160133,31.978069 C 22.160133,31.978069 26.997745,27.140456 26.997745,27.140456 C 18.528582,18.264221 13.291696,25.230495 11.500037,31.436501 z"
             style="fill:#404040;"/>
          </a>
         </g>
        </svg>
</svg>
