<?xml version="1.0" encoding="UTF-8" standalone="no"?>
<!DOCTYPE svg PUBLIC "-//W3C//DTD SVG 1.1//EN"
 "http://www.w3.org/Graphics/SVG/1.1/DTD/svg11.dtd">
<!-- Generated by graphviz version 2.38.0 (20140413.2041)
 -->
<!-- Title: mc::Matrix&lt; T, W, H &gt; Pages: 1 -->
<svg width="1073pt" height="90pt"
 viewBox="0.00 0.00 1073.00 89.50" xmlns="http://www.w3.org/2000/svg" xmlns:xlink="http://www.w3.org/1999/xlink">
<g id="graph0" class="graph" transform="scale(1 1) rotate(0) translate(4 85.5)">
<title>mc::Matrix&lt; T, W, H &gt;</title>
<polygon fill="white" stroke="none" points="-4,4 -4,-85.5 1069,-85.5 1069,4 -4,4"/>
<!-- Node1 -->
<g id="node1" class="node"><title>Node1</title>
<polygon fill="#bfbfbf" stroke="black" points="950,-27 950,-46 1065,-46 1065,-27 950,-27"/>
<text text-anchor="middle" x="1007.5" y="-34" font-family="Helvetica,sans-Serif" font-size="10.00">mc::Matrix&lt; T, W, H &gt;</text>
</g>
<!-- Node2 -->
<g id="node2" class="node"><title>Node2</title>
<g id="a_node2"><a xlink:href="../../d1/d51/a00079.html" target="_top" xlink:title="mc::Vector\&lt; MatrixRow\l\&lt; T, H \&gt;, W \&gt;">
<polygon fill="white" stroke="black" points="794,-21.5 794,-51.5 913,-51.5 913,-21.5 794,-21.5"/>
<text text-anchor="start" x="802" y="-39.5" font-family="Helvetica,sans-Serif" font-size="10.00">mc::Vector&lt; MatrixRow</text>
<text text-anchor="middle" x="853.5" y="-28.5" font-family="Helvetica,sans-Serif" font-size="10.00">&lt; T, H &gt;, W &gt;</text>
</a>
</g>
</g>
<!-- Node2&#45;&gt;Node1 -->
<g id="edge1" class="edge"><title>Node2&#45;&gt;Node1</title>
<path fill="none" stroke="midnightblue" d="M923.533,-36.5C932.352,-36.5 941.297,-36.5 949.887,-36.5"/>
<polygon fill="midnightblue" stroke="midnightblue" points="923.267,-33.0001 913.267,-36.5 923.267,-40.0001 923.267,-33.0001"/>
</g>
<!-- Node3 -->
<g id="node3" class="node"><title>Node3</title>
<g id="a_node3"><a xlink:href="../../d1/d1e/a00087.html" target="_top" xlink:title="mc::VectorBase\&lt; Vector\l\&lt; MatrixRow\&lt; T, H \&gt;, N\l \&gt;, MatrixRow\&lt; T, H \&gt;, N \&gt;">
<polygon fill="white" stroke="black" points="410,-38 410,-79 545,-79 545,-38 410,-38"/>
<text text-anchor="start" x="418" y="-67" font-family="Helvetica,sans-Serif" font-size="10.00">mc::VectorBase&lt; Vector</text>
<text text-anchor="start" x="418" y="-56" font-family="Helvetica,sans-Serif" font-size="10.00">&lt; MatrixRow&lt; T, H &gt;, N</text>
<text text-anchor="middle" x="477.5" y="-45" font-family="Helvetica,sans-Serif" font-size="10.00"> &gt;, MatrixRow&lt; T, H &gt;, N &gt;</text>
</a>
</g>
</g>
<!-- Node3&#45;&gt;Node2 -->
<g id="edge2" class="edge"><title>Node3&#45;&gt;Node2</title>
<path fill="none" stroke="midnightblue" d="M555.179,-55.4959C615.29,-52.9326 701.025,-48.8181 776,-43.5 781.72,-43.0942 787.677,-42.6273 793.63,-42.1312"/>
<polygon fill="midnightblue" stroke="midnightblue" points="554.854,-52.0064 545.011,-55.9251 555.149,-59.0002 554.854,-52.0064"/>
</g>
<!-- Node4 -->
<g id="node4" class="node"><title>Node4</title>
<g id="a_node4"><a xlink:href="../../d1/d1e/a00087.html" target="_top" xlink:title="1&#45;dimensional vector class that supports mathmatical operations. ">
<polygon fill="white" stroke="black" points="0,-24.5 0,-54.5 121,-54.5 121,-24.5 0,-24.5"/>
<text text-anchor="start" x="8" y="-42.5" font-family="Helvetica,sans-Serif" font-size="10.00">mc::VectorBase&lt; Child,</text>
<text text-anchor="middle" x="60.5" y="-31.5" font-family="Helvetica,sans-Serif" font-size="10.00"> T, N &gt;</text>
</a>
</g>
</g>
<!-- Node4&#45;&gt;Node3 -->
<g id="edge3" class="edge"><title>Node4&#45;&gt;Node3</title>
<path fill="none" stroke="orange" stroke-dasharray="5,2" d="M131.567,-42.7079C209.2,-46.2621 333.468,-51.9515 409.743,-55.4437"/>
<polygon fill="orange" stroke="orange" points="131.551,-39.2036 121.401,-42.2425 131.231,-46.1963 131.551,-39.2036"/>
<text text-anchor="start" x="139" y="-73.5" font-family="Helvetica,sans-Serif" font-size="10.00"> &lt; Vector&lt; MatrixRow</text>
<text text-anchor="start" x="139" y="-62.5" font-family="Helvetica,sans-Serif" font-size="10.00">&lt; T, H &gt;, N &gt;, MatrixRow</text>
<text text-anchor="middle" x="194" y="-51.5" font-family="Helvetica,sans-Serif" font-size="10.00">&lt; T, H &gt;, N &gt;</text>
</g>
<!-- Node6 -->
<g id="node6" class="node"><title>Node6</title>
<g id="a_node6"><a xlink:href="../../d1/d1e/a00087.html" target="_top" xlink:title="mc::VectorBase\&lt; Vector\l\&lt; T, N \&gt;, T, N \&gt;">
<polygon fill="white" stroke="black" points="267,-0.5 267,-30.5 392,-30.5 392,-0.5 267,-0.5"/>
<text text-anchor="start" x="275" y="-18.5" font-family="Helvetica,sans-Serif" font-size="10.00">mc::VectorBase&lt; Vector</text>
<text text-anchor="middle" x="329.5" y="-7.5" font-family="Helvetica,sans-Serif" font-size="10.00">&lt; T, N &gt;, T, N &gt;</text>
</a>
</g>
</g>
<!-- Node4&#45;&gt;Node6 -->
<g id="edge6" class="edge"><title>Node4&#45;&gt;Node6</title>
<path fill="none" stroke="orange" stroke-dasharray="5,2" d="M131.238,-27.4396C133.855,-27.1022 136.45,-26.7871 139,-26.5 181.572,-21.7081 229.774,-18.9463 266.91,-17.3886"/>
<polygon fill="orange" stroke="orange" points="130.497,-24.0085 121.068,-28.8399 131.452,-30.9431 130.497,-24.0085"/>
<text text-anchor="middle" x="194" y="-29.5" font-family="Helvetica,sans-Serif" font-size="10.00"> &lt; Vector&lt; T, N &gt;, T, N &gt;</text>
</g>
<!-- Node5 -->
<g id="node5" class="node"><title>Node5</title>
<g id="a_node5"><a xlink:href="../../d1/d51/a00079.html" target="_top" xlink:title="mc::Vector\&lt; T, N \&gt;">
<polygon fill="white" stroke="black" points="563,-7 563,-26 664,-26 664,-7 563,-7"/>
<text text-anchor="middle" x="613.5" y="-14" font-family="Helvetica,sans-Serif" font-size="10.00">mc::Vector&lt; T, N &gt;</text>
</a>
</g>
</g>
<!-- Node5&#45;&gt;Node2 -->
<g id="edge4" class="edge"><title>Node5&#45;&gt;Node2</title>
<path fill="none" stroke="orange" stroke-dasharray="5,2" d="M674.192,-16.0371C704.729,-16.3851 742.441,-17.7159 776,-21.5 781.783,-22.1521 787.782,-23.0083 793.76,-23.9817"/>
<polygon fill="orange" stroke="orange" points="674.155,-12.5368 664.127,-15.9546 674.098,-19.5366 674.155,-12.5368"/>
<text text-anchor="start" x="682" y="-35.5" font-family="Helvetica,sans-Serif" font-size="10.00"> &lt; MatrixRow&lt; T, H &gt;</text>
<text text-anchor="middle" x="729" y="-24.5" font-family="Helvetica,sans-Serif" font-size="10.00">, W &gt;</text>
</g>
<!-- Node6&#45;&gt;Node5 -->
<g id="edge5" class="edge"><title>Node6&#45;&gt;Node5</title>
<path fill="none" stroke="midnightblue" d="M402.187,-15.7542C452.426,-15.9324 518.293,-16.1659 562.827,-16.3239"/>
<polygon fill="midnightblue" stroke="midnightblue" points="402.05,-12.2538 392.038,-15.7182 402.025,-19.2538 402.05,-12.2538"/>
</g>
</g>
</svg>
