<?xml version="1.0" encoding="UTF-8" standalone="no"?>
<!DOCTYPE svg PUBLIC "-//W3C//DTD SVG 1.1//EN"
 "http://www.w3.org/Graphics/SVG/1.1/DTD/svg11.dtd">
<!-- Generated by graphviz version 2.38.0 (20140413.2041)
 -->
<!-- Title: mc::gfx::Button Pages: 1 -->
<!--zoomable 529 -->
<svg id="main" version="1.1" xmlns="http://www.w3.org/2000/svg" xmlns:xlink="http://www.w3.org/1999/xlink" xml:space="preserve" onload="init(evt)">
<style type="text/css"><![CDATA[
.edge:hover path { stroke: red; }
.edge:hover polygon { stroke: red; fill: red; }
]]></style>
<script type="text/javascript"><![CDATA[
var edges = document.getElementsByTagName('g');
if (edges && edges.length) {
  for (var i=0;i<edges.length;i++) {
    if (edges[i].id.substr(0,4)=='edge') {
      edges[i].setAttribute('class','edge');
    }
  }
}
]]></script>
        <defs>
                <circle id="rim" cx="0" cy="0" r="7"/>
                <circle id="rim2" cx="0" cy="0" r="3.5"/>
                <g id="zoomPlus">
                        <use xlink:href="#rim" fill="#404040">
                                <set attributeName="fill" to="#808080" begin="zoomplus.mouseover" end="zoomplus.mouseout"/>
                        </use>
                        <path d="M-4,0h8M0,-4v8" fill="none" stroke="white" stroke-width="1.5" pointer-events="none"/>
                </g>
                <g id="zoomMin">
                        <use xlink:href="#rim" fill="#404040">
                                <set attributeName="fill" to="#808080" begin="zoomminus.mouseover" end="zoomminus.mouseout"/>
                        </use>
                        <path d="M-4,0h8" fill="none" stroke="white" stroke-width="1.5" pointer-events="none"/>
                </g>
                <g id="dirArrow">
                        <path fill="none" stroke="white" stroke-width="1.5" d="M0,-3.0v7 M-2.5,-0.5L0,-3.0L2.5,-0.5"/>
                </g>
               <g id="resetDef">
                       <use xlink:href="#rim2" fill="#404040">
                               <set attributeName="fill" to="#808080" begin="reset.mouseover" end="reset.mouseout"/>
                       </use>
               </g>
        </defs>

<script type="text/javascript">
var viewWidth = 484;
var viewHeight = 529;
var sectionId = 'dynsection-1';
</script>
<script xlink:href="../../svgpan.js"/>
<svg id="graph" class="graph">
<g id="viewport">
<title>mc::gfx::Button</title>
<polygon fill="white" stroke="none" points="-4,4 -4,-525 480,-525 480,4 -4,4"/>
<!-- Node1 -->
<g id="node1" class="node"><title>Node1</title>
<polygon fill="#bfbfbf" stroke="black" points="157,-0.5 157,-19.5 240,-19.5 240,-0.5 157,-0.5"/>
<text text-anchor="middle" x="198.5" y="-7.5" font-family="Helvetica,sans-Serif" font-size="10.00">mc::gfx::Button</text>
</g>
<!-- Node2 -->
<g id="node2" class="node"><title>Node2</title>
<g id="a_node2"><a xlink:href="../../d2/d79/a00051.html" target="_top" xlink:title="mc::gfx::Selectable">
<polygon fill="white" stroke="black" points="43,-57.5 43,-76.5 144,-76.5 144,-57.5 43,-57.5"/>
<text text-anchor="middle" x="93.5" y="-64.5" font-family="Helvetica,sans-Serif" font-size="10.00">mc::gfx::Selectable</text>
</a>
</g>
</g>
<!-- Node2&#45;&gt;Node1 -->
<g id="edge1" class="edge"><title>Node2&#45;&gt;Node1</title>
<path fill="none" stroke="midnightblue" d="M118.936,-52.6762C138.624,-42.3634 165.301,-28.3898 182.209,-19.5334"/>
<polygon fill="midnightblue" stroke="midnightblue" points="117.141,-49.6657 109.906,-57.4063 120.389,-55.8665 117.141,-49.6657"/>
</g>
<!-- Node3 -->
<g id="node3" class="node"><title>Node3</title>
<g id="a_node3"><a xlink:href="../../da/da0/a00009.html" target="_top" xlink:title="Wrapper class for a primitive type that allows for easy bit manipulation. ">
<polygon fill="white" stroke="black" points="0,-130 0,-149 69,-149 69,-130 0,-130"/>
<text text-anchor="middle" x="34.5" y="-137" font-family="Helvetica,sans-Serif" font-size="10.00">mc::BitField</text>
</a>
</g>
</g>
<!-- Node3&#45;&gt;Node2 -->
<g id="edge2" class="edge"><title>Node3&#45;&gt;Node2</title>
<path fill="none" stroke="#9a32cd" stroke-dasharray="5,2" d="M48.3946,-121.897C60.2398,-107.743 76.7987,-87.9566 86.2063,-76.7154"/>
<polygon fill="#9a32cd" stroke="#9a32cd" points="45.4684,-119.94 41.7346,-129.855 50.8366,-124.433 45.4684,-119.94"/>
<text text-anchor="middle" x="115.5" y="-98" font-family="Helvetica,sans-Serif" font-size="10.00"> selectableProperties</text>
</g>
<!-- Node4 -->
<g id="node4" class="node"><title>Node4</title>
<g id="a_node4"><a xlink:href="../../de/d11/a00021.html" target="_top" xlink:title="mc::gfx::Entity2D">
<polygon fill="white" stroke="black" points="221.5,-57.5 221.5,-76.5 313.5,-76.5 313.5,-57.5 221.5,-57.5"/>
<text text-anchor="middle" x="267.5" y="-64.5" font-family="Helvetica,sans-Serif" font-size="10.00">mc::gfx::Entity2D</text>
</a>
</g>
</g>
<!-- Node4&#45;&gt;Node1 -->
<g id="edge3" class="edge"><title>Node4&#45;&gt;Node1</title>
<path fill="none" stroke="midnightblue" d="M248.68,-50.9983C236.089,-40.9619 219.958,-28.1044 209.433,-19.7149"/>
<polygon fill="midnightblue" stroke="midnightblue" points="246.717,-53.91 256.719,-57.4063 251.081,-48.4362 246.717,-53.91"/>
</g>
<!-- Node5 -->
<g id="node5" class="node"><title>Node5</title>
<g id="a_node5"><a xlink:href="../../d6/d5b/a00026.html" target="_top" xlink:title="mc::gfx::GraphicsEntity">
<polygon fill="white" stroke="black" points="208,-130 208,-149 327,-149 327,-130 208,-130"/>
<text text-anchor="middle" x="267.5" y="-137" font-family="Helvetica,sans-Serif" font-size="10.00">mc::gfx::GraphicsEntity</text>
</a>
</g>
</g>
<!-- Node5&#45;&gt;Node4 -->
<g id="edge4" class="edge"><title>Node5&#45;&gt;Node4</title>
<path fill="none" stroke="midnightblue" d="M267.5,-119.442C267.5,-105.53 267.5,-87.3203 267.5,-76.7154"/>
<polygon fill="midnightblue" stroke="midnightblue" points="264,-119.855 267.5,-129.855 271,-119.855 264,-119.855"/>
</g>
<!-- Node6 -->
<g id="node6" class="node"><title>Node6</title>
<g id="a_node6"><a xlink:href="../../db/db2/a00020.html" target="_top" xlink:title="Abstract superclass for all graphical objects. ">
<polygon fill="white" stroke="black" points="195.5,-202.5 195.5,-221.5 275.5,-221.5 275.5,-202.5 195.5,-202.5"/>
<text text-anchor="middle" x="235.5" y="-209.5" font-family="Helvetica,sans-Serif" font-size="10.00">mc::gfx::Entity</text>
</a>
</g>
</g>
<!-- Node6&#45;&gt;Node5 -->
<g id="edge5" class="edge"><title>Node6&#45;&gt;Node5</title>
<path fill="none" stroke="midnightblue" d="M244.403,-192.743C245.792,-189.827 247.198,-186.837 248.5,-184 254,-172.016 260.047,-158.02 263.809,-149.208"/>
<polygon fill="midnightblue" stroke="midnightblue" points="241.111,-191.512 239.917,-202.039 247.415,-194.554 241.111,-191.512"/>
</g>
<!-- Node7 -->
<g id="node7" class="node"><title>Node7</title>
<polygon fill="white" stroke="#bfbfbf" points="87,-124.5 87,-154.5 190,-154.5 190,-124.5 87,-124.5"/>
<text text-anchor="start" x="95" y="-142.5" font-family="Helvetica,sans-Serif" font-size="10.00">std::vector&lt; mc::gfx</text>
<text text-anchor="middle" x="138.5" y="-131.5" font-family="Helvetica,sans-Serif" font-size="10.00">::Entity * &gt;</text>
</g>
<!-- Node6&#45;&gt;Node7 -->
<g id="edge7" class="edge"><title>Node6&#45;&gt;Node7</title>
<path fill="none" stroke="#9a32cd" stroke-dasharray="5,2" d="M185.035,-208.225C168.319,-204.645 151.256,-197.579 140.5,-184 134.116,-175.94 133.95,-164.167 135.198,-154.901"/>
<polygon fill="#9a32cd" stroke="#9a32cd" points="184.885,-211.751 195.339,-210.029 186.093,-204.856 184.885,-211.751"/>
<text text-anchor="middle" x="162" y="-176" font-family="Helvetica,sans-Serif" font-size="10.00"> elements</text>
</g>
<!-- Node7&#45;&gt;Node6 -->
<g id="edge6" class="edge"><title>Node7&#45;&gt;Node6</title>
<path fill="none" stroke="#9a32cd" stroke-dasharray="5,2" d="M169.386,-160.415C175.454,-164.488 181.727,-168.811 187.5,-173 200.749,-182.612 215.428,-194.411 225.022,-202.287"/>
<polygon fill="#9a32cd" stroke="#9a32cd" points="170.991,-157.28 160.722,-154.673 167.124,-163.115 170.991,-157.28"/>
<text text-anchor="middle" x="220" y="-176" font-family="Helvetica,sans-Serif" font-size="10.00"> children</text>
</g>
<!-- Node8 -->
<g id="node8" class="node"><title>Node8</title>
<g id="a_node8"><a xlink:title="STL class. ">
<polygon fill="white" stroke="#bfbfbf" points="58,-396.5 58,-415.5 143,-415.5 143,-396.5 58,-396.5"/>
<text text-anchor="middle" x="100.5" y="-403.5" font-family="Helvetica,sans-Serif" font-size="10.00">std::vector&lt; T &gt;</text>
</a>
</g>
</g>
<!-- Node8&#45;&gt;Node7 -->
<g id="edge8" class="edge"><title>Node8&#45;&gt;Node7</title>
<path fill="none" stroke="orange" stroke-dasharray="5,2" d="M96.1083,-386.29C92.6819,-370.05 88.5,-345.854 88.5,-324.5 88.5,-324.5 88.5,-324.5 88.5,-211 88.5,-188.192 106.127,-167.614 120.449,-154.659"/>
<polygon fill="orange" stroke="orange" points="92.7094,-387.13 98.299,-396.13 99.5421,-385.609 92.7094,-387.13"/>
<text text-anchor="middle" x="134.5" y="-276.5" font-family="Helvetica,sans-Serif" font-size="10.00"> &lt; mc::gfx::Entity * &gt;</text>
</g>
<!-- Node9 -->
<g id="node9" class="node"><title>Node9</title>
<polygon fill="white" stroke="#bfbfbf" points="125,-501.5 125,-520.5 154,-520.5 154,-501.5 125,-501.5"/>
<text text-anchor="middle" x="139.5" y="-508.5" font-family="Helvetica,sans-Serif" font-size="10.00">T</text>
</g>
<!-- Node9&#45;&gt;Node8 -->
<g id="edge9" class="edge"><title>Node9&#45;&gt;Node8</title>
<path fill="none" stroke="#9a32cd" stroke-dasharray="5,2" d="M120.598,-494.296C117.462,-490.875 114.564,-487.054 112.5,-483 101.104,-460.622 99.9744,-430.124 100.178,-415.501"/>
<polygon fill="#9a32cd" stroke="#9a32cd" points="118.433,-497.069 128.068,-501.475 123.284,-492.022 118.433,-497.069"/>
<text text-anchor="middle" x="134" y="-475" font-family="Helvetica,sans-Serif" font-size="10.00"> elements</text>
</g>
<!-- Node12 -->
<g id="node12" class="node"><title>Node12</title>
<g id="a_node12"><a xlink:href="../../db/df8/a00076.html" target="_top" xlink:title="1&#45;dimensional vector class that supports mathmatical operations. ">
<polygon fill="white" stroke="black" points="134,-434.5 134,-453.5 235,-453.5 235,-434.5 134,-434.5"/>
<text text-anchor="middle" x="184.5" y="-441.5" font-family="Helvetica,sans-Serif" font-size="10.00">mc::Vector&lt; T, N &gt;</text>
</a>
</g>
</g>
<!-- Node9&#45;&gt;Node12 -->
<g id="edge13" class="edge"><title>Node9&#45;&gt;Node12</title>
<path fill="none" stroke="#9a32cd" stroke-dasharray="5,2" d="M151.336,-492.904C160.08,-480.273 171.62,-463.604 178.527,-453.627"/>
<polygon fill="#9a32cd" stroke="#9a32cd" points="148.383,-491.02 145.569,-501.234 154.139,-495.004 148.383,-491.02"/>
<text text-anchor="middle" x="183.5" y="-475" font-family="Helvetica,sans-Serif" font-size="10.00"> content</text>
</g>
<!-- Node10 -->
<g id="node10" class="node"><title>Node10</title>
<g id="a_node10"><a xlink:href="../../db/db6/a00074.html" target="_top" xlink:title="Matrix&#45;based class that allows for the easy creation and management of transformation matrices...">
<polygon fill="white" stroke="black" points="198.5,-269.5 198.5,-288.5 304.5,-288.5 304.5,-269.5 198.5,-269.5"/>
<text text-anchor="middle" x="251.5" y="-276.5" font-family="Helvetica,sans-Serif" font-size="10.00">mc::TransformMatrix</text>
</a>
</g>
</g>
<!-- Node10&#45;&gt;Node6 -->
<g id="edge10" class="edge"><title>Node10&#45;&gt;Node6</title>
<path fill="none" stroke="#9a32cd" stroke-dasharray="5,2" d="M246.925,-259.415C243.866,-246.988 239.984,-231.217 237.624,-221.627"/>
<polygon fill="#9a32cd" stroke="#9a32cd" points="243.553,-260.36 249.342,-269.234 250.35,-258.687 243.553,-260.36"/>
<text text-anchor="middle" x="277" y="-243" font-family="Helvetica,sans-Serif" font-size="10.00"> transformation</text>
</g>
<!-- Node11 -->
<g id="node11" class="node"><title>Node11</title>
<g id="a_node11"><a xlink:href="../../db/df8/a00076.html" target="_top" xlink:title="mc::Vector\&lt; float, 3 \&gt;">
<polygon fill="white" stroke="black" points="136.5,-358.5 136.5,-377.5 248.5,-377.5 248.5,-358.5 136.5,-358.5"/>
<text text-anchor="middle" x="192.5" y="-365.5" font-family="Helvetica,sans-Serif" font-size="10.00">mc::Vector&lt; float, 3 &gt;</text>
</a>
</g>
</g>
<!-- Node11&#45;&gt;Node10 -->
<g id="edge11" class="edge"><title>Node11&#45;&gt;Node10</title>
<path fill="none" stroke="#9a32cd" stroke-dasharray="5,2" d="M204.033,-349.993C216.536,-331.557 235.992,-302.867 245.651,-288.625"/>
<polygon fill="#9a32cd" stroke="#9a32cd" points="201.089,-348.099 198.373,-358.34 206.882,-352.028 201.089,-348.099"/>
<text text-anchor="middle" x="255.5" y="-332" font-family="Helvetica,sans-Serif" font-size="10.00"> rotation</text>
<text text-anchor="middle" x="255.5" y="-321" font-family="Helvetica,sans-Serif" font-size="10.00">scaler</text>
<text text-anchor="middle" x="255.5" y="-310" font-family="Helvetica,sans-Serif" font-size="10.00">translation</text>
</g>
<!-- Node12&#45;&gt;Node11 -->
<g id="edge12" class="edge"><title>Node12&#45;&gt;Node11</title>
<path fill="none" stroke="orange" stroke-dasharray="5,2" d="M186.546,-424.072C188.156,-409.18 190.326,-389.111 191.552,-377.768"/>
<polygon fill="orange" stroke="orange" points="183.044,-423.902 185.449,-434.221 190.004,-424.655 183.044,-423.902"/>
<text text-anchor="middle" x="215" y="-403.5" font-family="Helvetica,sans-Serif" font-size="10.00"> &lt; float, 3 &gt;</text>
</g>
<!-- Node13 -->
<g id="node13" class="node"><title>Node13</title>
<g id="a_node13"><a xlink:href="../../d9/da5/a00075.html" target="_top" xlink:title="Stores uniform data for a shader in the form of a sslBuffer. ">
<polygon fill="white" stroke="black" points="345,-130 345,-149 476,-149 476,-130 345,-130"/>
<text text-anchor="middle" x="410.5" y="-137" font-family="Helvetica,sans-Serif" font-size="10.00">mc::gfx::ogl::UniformBuffer</text>
</a>
</g>
</g>
<!-- Node13&#45;&gt;Node4 -->
<g id="edge14" class="edge"><title>Node13&#45;&gt;Node4</title>
<path fill="none" stroke="#9a32cd" stroke-dasharray="5,2" d="M384.128,-125.498C355.18,-111.227 309.539,-88.7253 284.81,-76.5341"/>
<polygon fill="#9a32cd" stroke="#9a32cd" points="382.734,-128.713 393.251,-129.996 385.829,-122.435 382.734,-128.713"/>
<text text-anchor="middle" x="357" y="-98" font-family="Helvetica,sans-Serif" font-size="10.00"> buffer</text>
</g>
<!-- Node14 -->
<g id="node14" class="node"><title>Node14</title>
<g id="a_node14"><a xlink:href="../../d7/dec/a00010.html" target="_top" xlink:title="Represents a sslBuffer of memory in the GPU. ">
<polygon fill="white" stroke="black" points="361.5,-202.5 361.5,-221.5 459.5,-221.5 459.5,-202.5 361.5,-202.5"/>
<text text-anchor="middle" x="410.5" y="-209.5" font-family="Helvetica,sans-Serif" font-size="10.00">mc::gfx::ogl::Buffer</text>
</a>
</g>
</g>
<!-- Node14&#45;&gt;Node13 -->
<g id="edge15" class="edge"><title>Node14&#45;&gt;Node13</title>
<path fill="none" stroke="midnightblue" d="M410.5,-191.942C410.5,-178.03 410.5,-159.82 410.5,-149.215"/>
<polygon fill="midnightblue" stroke="midnightblue" points="407,-192.355 410.5,-202.355 414,-192.355 407,-192.355"/>
</g>
<!-- Node15 -->
<g id="node15" class="node"><title>Node15</title>
<g id="a_node15"><a xlink:href="../../de/d8c/a00036.html" target="_top" xlink:title="Represents a OpenGL object in memory. ">
<polygon fill="white" stroke="black" points="359.5,-269.5 359.5,-288.5 461.5,-288.5 461.5,-269.5 359.5,-269.5"/>
<text text-anchor="middle" x="410.5" y="-276.5" font-family="Helvetica,sans-Serif" font-size="10.00">mc::gfx::ogl::Object</text>
</a>
</g>
</g>
<!-- Node15&#45;&gt;Node14 -->
<g id="edge16" class="edge"><title>Node15&#45;&gt;Node14</title>
<path fill="none" stroke="midnightblue" d="M410.5,-259.037C410.5,-246.67 410.5,-231.12 410.5,-221.627"/>
<polygon fill="midnightblue" stroke="midnightblue" points="407,-259.234 410.5,-269.234 414,-259.234 407,-259.234"/>
</g>
</g>
</svg>
        <g id="navigator" transform="translate(0 0)" fill="#404254">
                <rect fill="#f2f5e9" fill-opacity="0.5" stroke="#606060" stroke-width=".5" x="0" y="0" width="60" height="60"/>
                <use id="zoomplus" xlink:href="#zoomPlus" x="17" y="9" onmousedown="handleZoom(evt,'in')"/>
                <use id="zoomminus" xlink:href="#zoomMin" x="42" y="9" onmousedown="handleZoom(evt,'out')"/>
                <use id="reset" xlink:href="#resetDef" x="30" y="36" onmousedown="handleReset()"/>
                <g id="arrowUp" xlink:href="#dirArrow" transform="translate(30 24)" onmousedown="handlePan(0,-1)">
                  <use xlink:href="#rim" fill="#404040">
                        <set attributeName="fill" to="#808080" begin="arrowUp.mouseover" end="arrowUp.mouseout"/>
                  </use>
                  <path fill="none" stroke="white" stroke-width="1.5" d="M0,-3.0v7 M-2.5,-0.5L0,-3.0L2.5,-0.5"/>
                </g>
                <g id="arrowRight" xlink:href="#dirArrow" transform="rotate(90) translate(36 -43)" onmousedown="handlePan(1,0)">
                  <use xlink:href="#rim" fill="#404040">
                        <set attributeName="fill" to="#808080" begin="arrowRight.mouseover" end="arrowRight.mouseout"/>
                  </use>
                  <path fill="none" stroke="white" stroke-width="1.5" d="M0,-3.0v7 M-2.5,-0.5L0,-3.0L2.5,-0.5"/>
                </g>
                <g id="arrowDown" xlink:href="#dirArrow" transform="rotate(180) translate(-30 -48)" onmousedown="handlePan(0,1)">
                  <use xlink:href="#rim" fill="#404040">
                        <set attributeName="fill" to="#808080" begin="arrowDown.mouseover" end="arrowDown.mouseout"/>
                  </use>
                  <path fill="none" stroke="white" stroke-width="1.5" d="M0,-3.0v7 M-2.5,-0.5L0,-3.0L2.5,-0.5"/>
                </g>
                <g id="arrowLeft" xlink:href="#dirArrow" transform="rotate(270) translate(-36 17)" onmousedown="handlePan(-1,0)">
                  <use xlink:href="#rim" fill="#404040">
                        <set attributeName="fill" to="#808080" begin="arrowLeft.mouseover" end="arrowLeft.mouseout"/>
                  </use>
                  <path fill="none" stroke="white" stroke-width="1.5" d="M0,-3.0v7 M-2.5,-0.5L0,-3.0L2.5,-0.5"/>
                </g>
        </g>
        <svg viewBox="0 0 15 15" width="100%" height="30px" preserveAspectRatio="xMaxYMin meet">
         <g id="arrow_out" transform="scale(0.3 0.3)">
          <a xlink:href="a00173_org.svg" target="_base">
           <rect id="button" ry="5" rx="5" y="6" x="6" height="38" width="38"
                fill="#f2f5e9" fill-opacity="0.5" stroke="#606060" stroke-width="1.0"/>
           <path id="arrow"
             d="M 11.500037,31.436501 C 11.940474,20.09759 22.043105,11.32322 32.158766,21.979434 L 37.068811,17.246167 C 37.068811,17.246167 37.088388,32 37.088388,32 L 22.160133,31.978069 C 22.160133,31.978069 26.997745,27.140456 26.997745,27.140456 C 18.528582,18.264221 13.291696,25.230495 11.500037,31.436501 z"
             style="fill:#404040;"/>
          </a>
         </g>
        </svg>
</svg>
