<?xml version="1.0" encoding="UTF-8" standalone="no"?>
<!DOCTYPE svg PUBLIC "-//W3C//DTD SVG 1.1//EN"
 "http://www.w3.org/Graphics/SVG/1.1/DTD/svg11.dtd">
<!-- Generated by graphviz version 2.38.0 (20140413.2041)
 -->
<!-- Title: mc::Matrix&lt; T, W, H &gt; Pages: 1 -->
<svg width="183pt" height="196pt"
 viewBox="0.00 0.00 182.50 196.00" xmlns="http://www.w3.org/2000/svg" xmlns:xlink="http://www.w3.org/1999/xlink">
<g id="graph0" class="graph" transform="scale(1 1) rotate(0) translate(4 192)">
<title>mc::Matrix&lt; T, W, H &gt;</title>
<polygon fill="white" stroke="none" points="-4,4 -4,-192 178.5,-192 178.5,4 -4,4"/>
<!-- Node1 -->
<g id="node1" class="node"><title>Node1</title>
<polygon fill="#bfbfbf" stroke="black" points="4,-0.5 4,-19.5 119,-19.5 119,-0.5 4,-0.5"/>
<text text-anchor="middle" x="61.5" y="-7.5" font-family="Helvetica,sans-Serif" font-size="10.00">mc::Matrix&lt; T, W, H &gt;</text>
</g>
<!-- Node2 -->
<g id="node2" class="node"><title>Node2</title>
<g id="a_node2"><a xlink:href="../../d1/d1e/a00087.html" target="_top" xlink:title="mc::VectorBase\&lt; Matrix\l\&lt; T, W, H \&gt;, MatrixRow\l\&lt; T, H \&gt;, W \&gt;">
<polygon fill="white" stroke="black" points="0,-57.5 0,-98.5 123,-98.5 123,-57.5 0,-57.5"/>
<text text-anchor="start" x="8" y="-86.5" font-family="Helvetica,sans-Serif" font-size="10.00">mc::VectorBase&lt; Matrix</text>
<text text-anchor="start" x="8" y="-75.5" font-family="Helvetica,sans-Serif" font-size="10.00">&lt; T, W, H &gt;, MatrixRow</text>
<text text-anchor="middle" x="61.5" y="-64.5" font-family="Helvetica,sans-Serif" font-size="10.00">&lt; T, H &gt;, W &gt;</text>
</a>
</g>
</g>
<!-- Node2&#45;&gt;Node1 -->
<g id="edge1" class="edge"><title>Node2&#45;&gt;Node1</title>
<path fill="none" stroke="midnightblue" d="M61.5,-47.1201C61.5,-37.1695 61.5,-26.8372 61.5,-19.7856"/>
<polygon fill="midnightblue" stroke="midnightblue" points="58.0001,-47.1978 61.5,-57.1978 65.0001,-47.1979 58.0001,-47.1978"/>
</g>
<!-- Node3 -->
<g id="node3" class="node"><title>Node3</title>
<g id="a_node3"><a xlink:href="../../d1/d1e/a00087.html" target="_top" xlink:title="1&#45;dimensional vector class that supports mathmatical operations. ">
<polygon fill="white" stroke="black" points="1,-157.5 1,-187.5 122,-187.5 122,-157.5 1,-157.5"/>
<text text-anchor="start" x="9" y="-175.5" font-family="Helvetica,sans-Serif" font-size="10.00">mc::VectorBase&lt; Child,</text>
<text text-anchor="middle" x="61.5" y="-164.5" font-family="Helvetica,sans-Serif" font-size="10.00"> T, N &gt;</text>
</a>
</g>
</g>
<!-- Node3&#45;&gt;Node2 -->
<g id="edge2" class="edge"><title>Node3&#45;&gt;Node2</title>
<path fill="none" stroke="orange" stroke-dasharray="5,2" d="M61.5,-147.282C61.5,-132.138 61.5,-112.882 61.5,-98.6823"/>
<polygon fill="orange" stroke="orange" points="58.0001,-147.451 61.5,-157.451 65.0001,-147.451 58.0001,-147.451"/>
<text text-anchor="start" x="61.5" y="-131" font-family="Helvetica,sans-Serif" font-size="10.00"> &lt; Matrix&lt; T, W, H &gt;</text>
<text text-anchor="middle" x="118" y="-120" font-family="Helvetica,sans-Serif" font-size="10.00">, MatrixRow&lt; T, H &gt;, W &gt;</text>
</g>
</g>
</svg>
