<?xml version="1.0" encoding="UTF-8" standalone="no"?>
<!DOCTYPE svg PUBLIC "-//W3C//DTD SVG 1.1//EN"
 "http://www.w3.org/Graphics/SVG/1.1/DTD/svg11.dtd">
<!-- Generated by graphviz version 2.38.0 (20140413.2041)
 -->
<!-- Title: mc::gfx::GraphicsEntity Pages: 1 -->
<svg width="127pt" height="196pt"
 viewBox="0.00 0.00 127.00 196.00" xmlns="http://www.w3.org/2000/svg" xmlns:xlink="http://www.w3.org/1999/xlink">
<g id="graph0" class="graph" transform="scale(1 1) rotate(0) translate(4 192)">
<title>mc::gfx::GraphicsEntity</title>
<polygon fill="white" stroke="none" points="-4,4 -4,-192 123,-192 123,4 -4,4"/>
<!-- Node1 -->
<g id="node1" class="node"><title>Node1</title>
<polygon fill="#bfbfbf" stroke="black" points="0,-112.5 0,-131.5 119,-131.5 119,-112.5 0,-112.5"/>
<text text-anchor="middle" x="59.5" y="-119.5" font-family="Helvetica,sans-Serif" font-size="10.00">mc::gfx::GraphicsEntity</text>
</g>
<!-- Node3 -->
<g id="node3" class="node"><title>Node3</title>
<g id="a_node3"><a xlink:href="../../df/d86/a00012.html" target="_top" xlink:title="mc::gfx::Entity2D">
<polygon fill="white" stroke="black" points="13.5,-56.5 13.5,-75.5 105.5,-75.5 105.5,-56.5 13.5,-56.5"/>
<text text-anchor="middle" x="59.5" y="-63.5" font-family="Helvetica,sans-Serif" font-size="10.00">mc::gfx::Entity2D</text>
</a>
</g>
</g>
<!-- Node1&#45;&gt;Node3 -->
<g id="edge2" class="edge"><title>Node1&#45;&gt;Node3</title>
<path fill="none" stroke="midnightblue" d="M59.5,-101.805C59.5,-92.9102 59.5,-82.7798 59.5,-75.7511"/>
<polygon fill="midnightblue" stroke="midnightblue" points="56.0001,-102.083 59.5,-112.083 63.0001,-102.083 56.0001,-102.083"/>
</g>
<!-- Node2 -->
<g id="node2" class="node"><title>Node2</title>
<g id="a_node2"><a xlink:href="../../da/d45/a00011.html" target="_top" xlink:title="Abstract superclass for all graphical objects. ">
<polygon fill="white" stroke="black" points="19.5,-168.5 19.5,-187.5 99.5,-187.5 99.5,-168.5 19.5,-168.5"/>
<text text-anchor="middle" x="59.5" y="-175.5" font-family="Helvetica,sans-Serif" font-size="10.00">mc::gfx::Entity</text>
</a>
</g>
</g>
<!-- Node2&#45;&gt;Node1 -->
<g id="edge1" class="edge"><title>Node2&#45;&gt;Node1</title>
<path fill="none" stroke="midnightblue" d="M59.5,-157.805C59.5,-148.91 59.5,-138.78 59.5,-131.751"/>
<polygon fill="midnightblue" stroke="midnightblue" points="56.0001,-158.083 59.5,-168.083 63.0001,-158.083 56.0001,-158.083"/>
</g>
<!-- Node4 -->
<g id="node4" class="node"><title>Node4</title>
<g id="a_node4"><a xlink:href="../../d1/d2b/a00018.html" target="_top" xlink:title="mc::gfx::Image">
<polygon fill="white" stroke="black" points="19,-0.5 19,-19.5 100,-19.5 100,-0.5 19,-0.5"/>
<text text-anchor="middle" x="59.5" y="-7.5" font-family="Helvetica,sans-Serif" font-size="10.00">mc::gfx::Image</text>
</a>
</g>
</g>
<!-- Node3&#45;&gt;Node4 -->
<g id="edge3" class="edge"><title>Node3&#45;&gt;Node4</title>
<path fill="none" stroke="midnightblue" d="M59.5,-45.8045C59.5,-36.9102 59.5,-26.7798 59.5,-19.7511"/>
<polygon fill="midnightblue" stroke="midnightblue" points="56.0001,-46.083 59.5,-56.083 63.0001,-46.083 56.0001,-46.083"/>
</g>
</g>
</svg>
