<?xml version="1.0" encoding="UTF-8" standalone="no"?>
<!DOCTYPE svg PUBLIC "-//W3C//DTD SVG 1.1//EN"
 "http://www.w3.org/Graphics/SVG/1.1/DTD/svg11.dtd">
<!-- Generated by graphviz version 2.38.0 (20140413.2041)
 -->
<!-- Title: mc::Matrix&lt; T, W, H &gt; Pages: 1 -->
<svg width="278pt" height="406pt"
 viewBox="0.00 0.00 277.50 406.00" xmlns="http://www.w3.org/2000/svg" xmlns:xlink="http://www.w3.org/1999/xlink">
<g id="graph0" class="graph" transform="scale(1 1) rotate(0) translate(4 402)">
<title>mc::Matrix&lt; T, W, H &gt;</title>
<polygon fill="white" stroke="none" points="-4,4 -4,-402 273.5,-402 273.5,4 -4,4"/>
<!-- Node1 -->
<g id="node1" class="node"><title>Node1</title>
<polygon fill="#bfbfbf" stroke="black" points="34,-0.5 34,-19.5 149,-19.5 149,-0.5 34,-0.5"/>
<text text-anchor="middle" x="91.5" y="-7.5" font-family="Helvetica,sans-Serif" font-size="10.00">mc::Matrix&lt; T, W, H &gt;</text>
</g>
<!-- Node2 -->
<g id="node2" class="node"><title>Node2</title>
<g id="a_node2"><a xlink:href="../../d1/d84/a00052.html" target="_top" xlink:title="mc::Vector\&lt; MatrixRow\l\&lt; T, H \&gt;, W \&gt;">
<polygon fill="white" stroke="black" points="32,-57.5 32,-87.5 151,-87.5 151,-57.5 32,-57.5"/>
<text text-anchor="start" x="40" y="-75.5" font-family="Helvetica,sans-Serif" font-size="10.00">mc::Vector&lt; MatrixRow</text>
<text text-anchor="middle" x="91.5" y="-64.5" font-family="Helvetica,sans-Serif" font-size="10.00">&lt; T, H &gt;, W &gt;</text>
</a>
</g>
</g>
<!-- Node2&#45;&gt;Node1 -->
<g id="edge1" class="edge"><title>Node2&#45;&gt;Node1</title>
<path fill="none" stroke="midnightblue" d="M91.5,-47.3524C91.5,-37.5132 91.5,-26.7753 91.5,-19.5399"/>
<polygon fill="midnightblue" stroke="midnightblue" points="88.0001,-47.468 91.5,-57.468 95.0001,-47.4681 88.0001,-47.468"/>
</g>
<!-- Node3 -->
<g id="node3" class="node"><title>Node3</title>
<polygon fill="white" stroke="#bfbfbf" points="0,-184.5 0,-214.5 113,-214.5 113,-184.5 0,-184.5"/>
<text text-anchor="start" x="8" y="-202.5" font-family="Helvetica,sans-Serif" font-size="10.00">std::array&lt; MatrixRow</text>
<text text-anchor="middle" x="56.5" y="-191.5" font-family="Helvetica,sans-Serif" font-size="10.00">&lt; T, H &gt;, N &gt;</text>
</g>
<!-- Node3&#45;&gt;Node2 -->
<g id="edge2" class="edge"><title>Node3&#45;&gt;Node2</title>
<path fill="none" stroke="#9a32cd" stroke-dasharray="5,2" d="M61.0266,-174.043C62.8276,-165.16 65.0549,-155.078 67.5,-146 73.0518,-125.388 81.113,-102.027 86.3314,-87.5267"/>
<polygon fill="#9a32cd" stroke="#9a32cd" points="57.5373,-173.65 59.0552,-184.136 64.4075,-174.992 57.5373,-173.65"/>
<text text-anchor="middle" x="85.5" y="-153.5" font-family="Helvetica,sans-Serif" font-size="10.00"> content</text>
</g>
<!-- Node4 -->
<g id="node4" class="node"><title>Node4</title>
<g id="a_node4"><a xlink:title="STL class. ">
<polygon fill="white" stroke="#bfbfbf" points="105,-311.5 105,-330.5 186,-330.5 186,-311.5 105,-311.5"/>
<text text-anchor="middle" x="145.5" y="-318.5" font-family="Helvetica,sans-Serif" font-size="10.00">std::array&lt; T &gt;</text>
</a>
</g>
</g>
<!-- Node4&#45;&gt;Node3 -->
<g id="edge3" class="edge"><title>Node4&#45;&gt;Node3</title>
<path fill="none" stroke="orange" stroke-dasharray="5,2" d="M94.665,-315.924C80.0192,-312.106 65.5654,-305.224 56.5,-293 39.4721,-270.04 46.1237,-234.289 51.7577,-214.634"/>
<polygon fill="orange" stroke="orange" points="94.2578,-319.417 104.771,-318.105 95.7347,-312.574 94.2578,-319.417"/>
<text text-anchor="start" x="56.5" y="-285" font-family="Helvetica,sans-Serif" font-size="10.00"> &lt; MatrixRow&lt; T, H &gt;</text>
<text text-anchor="middle" x="103.5" y="-274" font-family="Helvetica,sans-Serif" font-size="10.00">, N &gt;</text>
</g>
<!-- Node7 -->
<g id="node7" class="node"><title>Node7</title>
<polygon fill="white" stroke="#bfbfbf" points="120.5,-233.5 120.5,-252.5 214.5,-252.5 214.5,-233.5 120.5,-233.5"/>
<text text-anchor="middle" x="167.5" y="-240.5" font-family="Helvetica,sans-Serif" font-size="10.00">std::array&lt; T, N &gt;</text>
</g>
<!-- Node4&#45;&gt;Node7 -->
<g id="edge8" class="edge"><title>Node4&#45;&gt;Node7</title>
<path fill="none" stroke="orange" stroke-dasharray="5,2" d="M150.805,-301.674C155.309,-286.113 161.574,-264.472 165.006,-252.616"/>
<polygon fill="orange" stroke="orange" points="147.442,-300.703 148.024,-311.282 154.166,-302.649 147.442,-300.703"/>
<text text-anchor="middle" x="179.5" y="-279.5" font-family="Helvetica,sans-Serif" font-size="10.00"> &lt; T, N &gt;</text>
</g>
<!-- Node5 -->
<g id="node5" class="node"><title>Node5</title>
<polygon fill="white" stroke="#bfbfbf" points="174,-378.5 174,-397.5 203,-397.5 203,-378.5 174,-378.5"/>
<text text-anchor="middle" x="188.5" y="-385.5" font-family="Helvetica,sans-Serif" font-size="10.00">T</text>
</g>
<!-- Node5&#45;&gt;Node4 -->
<g id="edge4" class="edge"><title>Node5&#45;&gt;Node4</title>
<path fill="none" stroke="#9a32cd" stroke-dasharray="5,2" d="M173.545,-370.605C170.731,-367.206 167.916,-363.57 165.5,-360 159.065,-350.492 153.134,-338.672 149.43,-330.762"/>
<polygon fill="#9a32cd" stroke="#9a32cd" points="171.113,-373.142 180.313,-378.395 176.397,-368.551 171.113,-373.142"/>
<text text-anchor="middle" x="187" y="-352" font-family="Helvetica,sans-Serif" font-size="10.00"> elements</text>
</g>
<!-- Node5&#45;&gt;Node7 -->
<g id="edge7" class="edge"><title>Node5&#45;&gt;Node7</title>
<path fill="none" stroke="#9a32cd" stroke-dasharray="5,2" d="M203.407,-370.192C205.498,-366.999 207.331,-363.542 208.5,-360 215.857,-337.709 248.794,-354.773 203.5,-271 199.338,-263.303 191.928,-257.173 184.907,-252.712"/>
<polygon fill="#9a32cd" stroke="#9a32cd" points="200.463,-368.279 197.16,-378.346 206.02,-372.536 200.463,-368.279"/>
<text text-anchor="middle" x="248" y="-318.5" font-family="Helvetica,sans-Serif" font-size="10.00"> elements</text>
</g>
<!-- Node6 -->
<g id="node6" class="node"><title>Node6</title>
<g id="a_node6"><a xlink:href="../../d1/d84/a00052.html" target="_top" xlink:title="1&#45;dimensional vector class that supports mathmatical operations. ">
<polygon fill="white" stroke="black" points="113,-146.5 113,-165.5 214,-165.5 214,-146.5 113,-146.5"/>
<text text-anchor="middle" x="163.5" y="-153.5" font-family="Helvetica,sans-Serif" font-size="10.00">mc::Vector&lt; T, N &gt;</text>
</a>
</g>
</g>
<!-- Node6&#45;&gt;Node2 -->
<g id="edge5" class="edge"><title>Node6&#45;&gt;Node2</title>
<path fill="none" stroke="orange" stroke-dasharray="5,2" d="M148.806,-138.367C135.601,-123.42 116.422,-101.71 103.954,-87.5974"/>
<polygon fill="orange" stroke="orange" points="146.551,-141.101 155.795,-146.278 151.797,-136.466 146.551,-141.101"/>
<text text-anchor="start" x="138.5" y="-120" font-family="Helvetica,sans-Serif" font-size="10.00"> &lt; MatrixRow&lt; T, H &gt;</text>
<text text-anchor="middle" x="185.5" y="-109" font-family="Helvetica,sans-Serif" font-size="10.00">, W &gt;</text>
</g>
<!-- Node7&#45;&gt;Node6 -->
<g id="edge6" class="edge"><title>Node7&#45;&gt;Node6</title>
<path fill="none" stroke="#9a32cd" stroke-dasharray="5,2" d="M166.612,-223.125C165.773,-205.293 164.551,-179.33 163.917,-165.856"/>
<polygon fill="#9a32cd" stroke="#9a32cd" points="163.121,-223.399 167.087,-233.224 170.113,-223.07 163.121,-223.399"/>
<text text-anchor="middle" x="184.5" y="-197" font-family="Helvetica,sans-Serif" font-size="10.00"> content</text>
</g>
</g>
</svg>
