<?xml version="1.0" encoding="UTF-8" standalone="no"?>
<!DOCTYPE svg PUBLIC "-//W3C//DTD SVG 1.1//EN"
 "http://www.w3.org/Graphics/SVG/1.1/DTD/svg11.dtd">
<!-- Generated by graphviz version 2.38.0 (20140413.2041)
 -->
<!-- Title: mc::gfx::ogl::PixelUnpackBuffer Pages: 1 -->
<svg width="184pt" height="207pt"
 viewBox="0.00 0.00 184.00 207.00" xmlns="http://www.w3.org/2000/svg" xmlns:xlink="http://www.w3.org/1999/xlink">
<g id="graph0" class="graph" transform="scale(1 1) rotate(0) translate(4 203)">
<title>mc::gfx::ogl::PixelUnpackBuffer</title>
<polygon fill="white" stroke="none" points="-4,4 -4,-203 180,-203 180,4 -4,4"/>
<!-- Node1 -->
<g id="node1" class="node"><title>Node1</title>
<polygon fill="#bfbfbf" stroke="black" points="26,-0.5 26,-30.5 154,-30.5 154,-0.5 26,-0.5"/>
<text text-anchor="start" x="34" y="-18.5" font-family="Helvetica,sans-Serif" font-size="10.00">mc::gfx::ogl::PixelUnpack</text>
<text text-anchor="middle" x="90" y="-7.5" font-family="Helvetica,sans-Serif" font-size="10.00">Buffer</text>
</g>
<!-- Node2 -->
<g id="node2" class="node"><title>Node2</title>
<g id="a_node2"><a xlink:href="../../df/d86/a00012.html" target="_top" xlink:title="Represents a sslBuffer of memory in the GPU. ">
<polygon fill="white" stroke="black" points="41,-67.5 41,-86.5 139,-86.5 139,-67.5 41,-67.5"/>
<text text-anchor="middle" x="90" y="-74.5" font-family="Helvetica,sans-Serif" font-size="10.00">mc::gfx::ogl::Buffer</text>
</a>
</g>
</g>
<!-- Node2&#45;&gt;Node1 -->
<g id="edge1" class="edge"><title>Node2&#45;&gt;Node1</title>
<path fill="none" stroke="midnightblue" d="M90,-57.2349C90,-48.5864 90,-38.4969 90,-30.523"/>
<polygon fill="midnightblue" stroke="midnightblue" points="86.5001,-57.4751 90,-67.4751 93.5001,-57.4751 86.5001,-57.4751"/>
</g>
<!-- Node3 -->
<g id="node3" class="node"><title>Node3</title>
<g id="a_node3"><a xlink:href="../../d6/d97/a00045.html" target="_top" xlink:title="Represents a OpenGL object in memory. ">
<polygon fill="white" stroke="black" points="39,-123.5 39,-142.5 141,-142.5 141,-123.5 39,-123.5"/>
<text text-anchor="middle" x="90" y="-130.5" font-family="Helvetica,sans-Serif" font-size="10.00">mc::gfx::ogl::Object</text>
</a>
</g>
</g>
<!-- Node3&#45;&gt;Node2 -->
<g id="edge2" class="edge"><title>Node3&#45;&gt;Node2</title>
<path fill="none" stroke="midnightblue" d="M90,-112.805C90,-103.91 90,-93.7798 90,-86.7511"/>
<polygon fill="midnightblue" stroke="midnightblue" points="86.5001,-113.083 90,-123.083 93.5001,-113.083 86.5001,-113.083"/>
</g>
<!-- Node4 -->
<g id="node4" class="node"><title>Node4</title>
<g id="a_node4"><a xlink:href="../../d4/d8c/a00035.html" target="_top" xlink:title="mc::Initializable">
<polygon fill="white" stroke="black" points="0,-179.5 0,-198.5 84,-198.5 84,-179.5 0,-179.5"/>
<text text-anchor="middle" x="42" y="-186.5" font-family="Helvetica,sans-Serif" font-size="10.00">mc::Initializable</text>
</a>
</g>
</g>
<!-- Node4&#45;&gt;Node3 -->
<g id="edge3" class="edge"><title>Node4&#45;&gt;Node3</title>
<path fill="none" stroke="midnightblue" d="M56.7277,-171.431C65.1401,-161.967 75.3487,-150.483 82.2213,-142.751"/>
<polygon fill="midnightblue" stroke="midnightblue" points="53.954,-169.284 49.9262,-179.083 59.1858,-173.934 53.954,-169.284"/>
</g>
<!-- Node5 -->
<g id="node5" class="node"><title>Node5</title>
<g id="a_node5"><a xlink:href="../../da/da0/a00009.html" target="_top" xlink:title="mc::Bindable">
<polygon fill="white" stroke="black" points="102,-179.5 102,-198.5 176,-198.5 176,-179.5 102,-179.5"/>
<text text-anchor="middle" x="139" y="-186.5" font-family="Helvetica,sans-Serif" font-size="10.00">mc::Bindable</text>
</a>
</g>
</g>
<!-- Node5&#45;&gt;Node3 -->
<g id="edge4" class="edge"><title>Node5&#45;&gt;Node3</title>
<path fill="none" stroke="midnightblue" d="M123.966,-171.431C115.378,-161.967 104.957,-150.483 97.9408,-142.751"/>
<polygon fill="midnightblue" stroke="midnightblue" points="121.597,-174.029 130.909,-179.083 126.781,-169.325 121.597,-174.029"/>
</g>
</g>
</svg>
