<?xml version="1.0" encoding="UTF-8" standalone="no"?>
<!DOCTYPE svg PUBLIC "-//W3C//DTD SVG 1.1//EN"
 "http://www.w3.org/Graphics/SVG/1.1/DTD/svg11.dtd">
<!-- Generated by graphviz version 2.38.0 (20140413.2041)
 -->
<!-- Title: mc::Matrix&lt; T, W, H &gt; Pages: 1 -->
<!--zoomable 137 -->
<svg id="main" version="1.1" xmlns="http://www.w3.org/2000/svg" xmlns:xlink="http://www.w3.org/1999/xlink" xml:space="preserve" onload="init(evt)">
<style type="text/css"><![CDATA[
.edge:hover path { stroke: red; }
.edge:hover polygon { stroke: red; fill: red; }
]]></style>
<script type="text/javascript"><![CDATA[
var edges = document.getElementsByTagName('g');
if (edges && edges.length) {
  for (var i=0;i<edges.length;i++) {
    if (edges[i].id.substr(0,4)=='edge') {
      edges[i].setAttribute('class','edge');
    }
  }
}
]]></script>
        <defs>
                <circle id="rim" cx="0" cy="0" r="7"/>
                <circle id="rim2" cx="0" cy="0" r="3.5"/>
                <g id="zoomPlus">
                        <use xlink:href="#rim" fill="#404040">
                                <set attributeName="fill" to="#808080" begin="zoomplus.mouseover" end="zoomplus.mouseout"/>
                        </use>
                        <path d="M-4,0h8M0,-4v8" fill="none" stroke="white" stroke-width="1.5" pointer-events="none"/>
                </g>
                <g id="zoomMin">
                        <use xlink:href="#rim" fill="#404040">
                                <set attributeName="fill" to="#808080" begin="zoomminus.mouseover" end="zoomminus.mouseout"/>
                        </use>
                        <path d="M-4,0h8" fill="none" stroke="white" stroke-width="1.5" pointer-events="none"/>
                </g>
                <g id="dirArrow">
                        <path fill="none" stroke="white" stroke-width="1.5" d="M0,-3.0v7 M-2.5,-0.5L0,-3.0L2.5,-0.5"/>
                </g>
               <g id="resetDef">
                       <use xlink:href="#rim2" fill="#404040">
                               <set attributeName="fill" to="#808080" begin="reset.mouseover" end="reset.mouseout"/>
                       </use>
               </g>
        </defs>

<script type="text/javascript">
var viewWidth = 1398;
var viewHeight = 137;
var sectionId = 'dynsection-1';
</script>
<script xlink:href="../../svgpan.js"/>
<svg id="graph" class="graph">
<g id="viewport">
<title>mc::Matrix&lt; T, W, H &gt;</title>
<polygon fill="white" stroke="none" points="-4,4 -4,-132.5 1394,-132.5 1394,4 -4,4"/>
<!-- Node1 -->
<g id="node1" class="node"><title>Node1</title>
<polygon fill="#bfbfbf" stroke="black" points="1275,-97 1275,-116 1390,-116 1390,-97 1275,-97"/>
<text text-anchor="middle" x="1332.5" y="-104" font-family="Helvetica,sans-Serif" font-size="10.00">mc::Matrix&lt; T, W, H &gt;</text>
</g>
<!-- Node2 -->
<g id="node2" class="node"><title>Node2</title>
<g id="a_node2"><a xlink:href="../../d1/d51/a00079.html" target="_top" xlink:title="mc::Vector\&lt; MatrixRow\l\&lt; T, H \&gt;, W \&gt;">
<polygon fill="white" stroke="black" points="1119,-91.5 1119,-121.5 1238,-121.5 1238,-91.5 1119,-91.5"/>
<text text-anchor="start" x="1127" y="-109.5" font-family="Helvetica,sans-Serif" font-size="10.00">mc::Vector&lt; MatrixRow</text>
<text text-anchor="middle" x="1178.5" y="-98.5" font-family="Helvetica,sans-Serif" font-size="10.00">&lt; T, H &gt;, W &gt;</text>
</a>
</g>
</g>
<!-- Node2&#45;&gt;Node1 -->
<g id="edge1" class="edge"><title>Node2&#45;&gt;Node1</title>
<path fill="none" stroke="midnightblue" d="M1248.53,-106.5C1257.35,-106.5 1266.3,-106.5 1274.89,-106.5"/>
<polygon fill="midnightblue" stroke="midnightblue" points="1248.27,-103 1238.27,-106.5 1248.27,-110 1248.27,-103"/>
</g>
<!-- Node3 -->
<g id="node3" class="node"><title>Node3</title>
<g id="a_node3"><a xlink:href="../../d1/d1e/a00087.html" target="_top" xlink:title="mc::VectorBase\&lt; Vector\l\&lt; MatrixRow\&lt; T, H \&gt;, N\l \&gt;, MatrixRow\&lt; T, H \&gt;, N \&gt;">
<polygon fill="white" stroke="black" points="947,-52 947,-93 1082,-93 1082,-52 947,-52"/>
<text text-anchor="start" x="955" y="-81" font-family="Helvetica,sans-Serif" font-size="10.00">mc::VectorBase&lt; Vector</text>
<text text-anchor="start" x="955" y="-70" font-family="Helvetica,sans-Serif" font-size="10.00">&lt; MatrixRow&lt; T, H &gt;, N</text>
<text text-anchor="middle" x="1014.5" y="-59" font-family="Helvetica,sans-Serif" font-size="10.00"> &gt;, MatrixRow&lt; T, H &gt;, N &gt;</text>
</a>
</g>
</g>
<!-- Node3&#45;&gt;Node2 -->
<g id="edge2" class="edge"><title>Node3&#45;&gt;Node2</title>
<path fill="none" stroke="midnightblue" d="M1092.34,-88.6269C1101.25,-90.4978 1110.24,-92.3828 1118.85,-94.191"/>
<polygon fill="midnightblue" stroke="midnightblue" points="1092.83,-85.1541 1082.33,-86.5254 1091.39,-92.0049 1092.83,-85.1541"/>
</g>
<!-- Node4 -->
<g id="node4" class="node"><title>Node4</title>
<g id="a_node4"><a xlink:href="../../d1/d51/a00079.html" target="_top" xlink:title="mc::Vector\&lt; T, H \&gt;">
<polygon fill="white" stroke="black" points="716,-63 716,-82 817,-82 817,-63 716,-63"/>
<text text-anchor="middle" x="766.5" y="-70" font-family="Helvetica,sans-Serif" font-size="10.00">mc::Vector&lt; T, H &gt;</text>
</a>
</g>
</g>
<!-- Node4&#45;&gt;Node3 -->
<g id="edge3" class="edge"><title>Node4&#45;&gt;Node3</title>
<path fill="none" stroke="#9a32cd" stroke-dasharray="5,2" d="M827.672,-72.5C863.795,-72.5 909.802,-72.5 947,-72.5"/>
<polygon fill="#9a32cd" stroke="#9a32cd" points="827.282,-69.0001 817.282,-72.5 827.282,-76.0001 827.282,-69.0001"/>
<text text-anchor="middle" x="882" y="-75.5" font-family="Helvetica,sans-Serif" font-size="10.00"> content</text>
</g>
<!-- Node5 -->
<g id="node5" class="node"><title>Node5</title>
<g id="a_node5"><a xlink:href="../../d1/d1e/a00087.html" target="_top" xlink:title="mc::VectorBase\&lt; Vector\l\&lt; T, N \&gt;, T, N \&gt;">
<polygon fill="white" stroke="black" points="368,-52.5 368,-82.5 493,-82.5 493,-52.5 368,-52.5"/>
<text text-anchor="start" x="376" y="-70.5" font-family="Helvetica,sans-Serif" font-size="10.00">mc::VectorBase&lt; Vector</text>
<text text-anchor="middle" x="430.5" y="-59.5" font-family="Helvetica,sans-Serif" font-size="10.00">&lt; T, N &gt;, T, N &gt;</text>
</a>
</g>
</g>
<!-- Node5&#45;&gt;Node4 -->
<g id="edge4" class="edge"><title>Node5&#45;&gt;Node4</title>
<path fill="none" stroke="midnightblue" d="M503.189,-68.5732C567.31,-69.5331 659.612,-70.9148 715.902,-71.7575"/>
<polygon fill="midnightblue" stroke="midnightblue" points="503.201,-65.0731 493.15,-68.4229 503.096,-72.0723 503.201,-65.0731"/>
</g>
<!-- Node8 -->
<g id="node8" class="node"><title>Node8</title>
<g id="a_node8"><a xlink:href="../../d1/d51/a00079.html" target="_top" xlink:title="mc::Vector\&lt; T, N \&gt;">
<polygon fill="white" stroke="black" points="534.5,-96 534.5,-115 635.5,-115 635.5,-96 534.5,-96"/>
<text text-anchor="middle" x="585" y="-103" font-family="Helvetica,sans-Serif" font-size="10.00">mc::Vector&lt; T, N &gt;</text>
</a>
</g>
</g>
<!-- Node5&#45;&gt;Node8 -->
<g id="edge9" class="edge"><title>Node5&#45;&gt;Node8</title>
<path fill="none" stroke="midnightblue" d="M501.653,-84.9807C516.798,-88.7547 532.267,-92.609 545.647,-95.9432"/>
<polygon fill="midnightblue" stroke="midnightblue" points="502.322,-81.5404 491.772,-82.5186 500.629,-88.3327 502.322,-81.5404"/>
</g>
<!-- Node6 -->
<g id="node6" class="node"><title>Node6</title>
<polygon fill="white" stroke="#bfbfbf" points="0,-38 0,-57 29,-57 29,-38 0,-38"/>
<text text-anchor="middle" x="14.5" y="-45" font-family="Helvetica,sans-Serif" font-size="10.00">T</text>
</g>
<!-- Node6&#45;&gt;Node5 -->
<g id="edge5" class="edge"><title>Node6&#45;&gt;Node5</title>
<path fill="none" stroke="#9a32cd" stroke-dasharray="5,2" d="M39.1129,-52.3981C41.7649,-52.8289 44.4346,-53.2104 47,-53.5 159.583,-66.2083 291.87,-68.1988 367.676,-68.1109"/>
<polygon fill="#9a32cd" stroke="#9a32cd" points="39.6986,-48.9472 29.231,-50.5841 38.4347,-55.8322 39.6986,-48.9472"/>
<text text-anchor="middle" x="161.5" y="-69.5" font-family="Helvetica,sans-Serif" font-size="10.00"> content</text>
</g>
<!-- Node7 -->
<g id="node7" class="node"><title>Node7</title>
<g id="a_node7"><a xlink:href="../../d1/d1e/a00087.html" target="_top" xlink:title="1&#45;dimensional vector class that supports mathmatical operations. ">
<polygon fill="white" stroke="black" points="101,-0.5 101,-30.5 222,-30.5 222,-0.5 101,-0.5"/>
<text text-anchor="start" x="109" y="-18.5" font-family="Helvetica,sans-Serif" font-size="10.00">mc::VectorBase&lt; Child,</text>
<text text-anchor="middle" x="161.5" y="-7.5" font-family="Helvetica,sans-Serif" font-size="10.00"> T, N &gt;</text>
</a>
</g>
</g>
<!-- Node6&#45;&gt;Node7 -->
<g id="edge7" class="edge"><title>Node6&#45;&gt;Node7</title>
<path fill="none" stroke="#9a32cd" stroke-dasharray="5,2" d="M39.1457,-42.2816C55.9311,-38.5773 79.2504,-33.4309 100.966,-28.6386"/>
<polygon fill="#9a32cd" stroke="#9a32cd" points="38.152,-38.9166 29.1412,-44.4895 39.6606,-45.7522 38.152,-38.9166"/>
<text text-anchor="middle" x="65" y="-43.5" font-family="Helvetica,sans-Serif" font-size="10.00"> content</text>
</g>
<!-- Node7&#45;&gt;Node3 -->
<g id="edge10" class="edge"><title>Node7&#45;&gt;Node3</title>
<path fill="none" stroke="orange" stroke-dasharray="5,2" d="M232.254,-11.8622C286.114,-9.36512 362.508,-6.5 429.5,-6.5 429.5,-6.5 429.5,-6.5 767.5,-6.5 838.692,-6.5 917.637,-32.6045 966.424,-51.979"/>
<polygon fill="orange" stroke="orange" points="231.954,-8.3724 222.13,-12.3396 232.284,-15.3646 231.954,-8.3724"/>
<text text-anchor="start" x="530" y="-31.5" font-family="Helvetica,sans-Serif" font-size="10.00"> &lt; Vector&lt; MatrixRow</text>
<text text-anchor="start" x="530" y="-20.5" font-family="Helvetica,sans-Serif" font-size="10.00">&lt; T, H &gt;, N &gt;, MatrixRow</text>
<text text-anchor="middle" x="585" y="-9.5" font-family="Helvetica,sans-Serif" font-size="10.00">&lt; T, H &gt;, N &gt;</text>
</g>
<!-- Node7&#45;&gt;Node5 -->
<g id="edge6" class="edge"><title>Node7&#45;&gt;Node5</title>
<path fill="none" stroke="orange" stroke-dasharray="5,2" d="M232.322,-22.8311C267.813,-27.2441 311.474,-33.7292 350,-42.5 361.85,-45.1978 374.483,-48.8169 386.109,-52.4621"/>
<polygon fill="orange" stroke="orange" points="232.413,-19.3164 222.063,-21.5846 231.568,-26.2653 232.413,-19.3164"/>
<text text-anchor="middle" x="295" y="-45.5" font-family="Helvetica,sans-Serif" font-size="10.00"> &lt; Vector&lt; T, N &gt;, T, N &gt;</text>
</g>
<!-- Node8&#45;&gt;Node2 -->
<g id="edge11" class="edge"><title>Node8&#45;&gt;Node2</title>
<path fill="none" stroke="orange" stroke-dasharray="5,2" d="M645.828,-106.394C649.947,-106.436 654.035,-106.472 658,-106.5 825.075,-107.66 1022.38,-107.141 1118.68,-106.766"/>
<polygon fill="orange" stroke="orange" points="645.614,-102.892 635.575,-106.279 645.535,-109.891 645.614,-102.892"/>
<text text-anchor="start" x="835" y="-120.5" font-family="Helvetica,sans-Serif" font-size="10.00"> &lt; MatrixRow&lt; T, H &gt;</text>
<text text-anchor="middle" x="882" y="-109.5" font-family="Helvetica,sans-Serif" font-size="10.00">, W &gt;</text>
</g>
<!-- Node8&#45;&gt;Node4 -->
<g id="edge8" class="edge"><title>Node8&#45;&gt;Node4</title>
<path fill="none" stroke="orange" stroke-dasharray="5,2" d="M645.435,-94.5732C668.248,-90.3791 694.023,-85.6407 715.826,-81.6323"/>
<polygon fill="orange" stroke="orange" points="644.727,-91.1447 635.524,-96.3952 645.992,-98.0293 644.727,-91.1447"/>
<text text-anchor="middle" x="678" y="-94.5" font-family="Helvetica,sans-Serif" font-size="10.00"> &lt; T, H &gt;</text>
</g>
</g>
</svg>
        <g id="navigator" transform="translate(0 0)" fill="#404254">
                <rect fill="#f2f5e9" fill-opacity="0.5" stroke="#606060" stroke-width=".5" x="0" y="0" width="60" height="60"/>
                <use id="zoomplus" xlink:href="#zoomPlus" x="17" y="9" onmousedown="handleZoom(evt,'in')"/>
                <use id="zoomminus" xlink:href="#zoomMin" x="42" y="9" onmousedown="handleZoom(evt,'out')"/>
                <use id="reset" xlink:href="#resetDef" x="30" y="36" onmousedown="handleReset()"/>
                <g id="arrowUp" xlink:href="#dirArrow" transform="translate(30 24)" onmousedown="handlePan(0,-1)">
                  <use xlink:href="#rim" fill="#404040">
                        <set attributeName="fill" to="#808080" begin="arrowUp.mouseover" end="arrowUp.mouseout"/>
                  </use>
                  <path fill="none" stroke="white" stroke-width="1.5" d="M0,-3.0v7 M-2.5,-0.5L0,-3.0L2.5,-0.5"/>
                </g>
                <g id="arrowRight" xlink:href="#dirArrow" transform="rotate(90) translate(36 -43)" onmousedown="handlePan(1,0)">
                  <use xlink:href="#rim" fill="#404040">
                        <set attributeName="fill" to="#808080" begin="arrowRight.mouseover" end="arrowRight.mouseout"/>
                  </use>
                  <path fill="none" stroke="white" stroke-width="1.5" d="M0,-3.0v7 M-2.5,-0.5L0,-3.0L2.5,-0.5"/>
                </g>
                <g id="arrowDown" xlink:href="#dirArrow" transform="rotate(180) translate(-30 -48)" onmousedown="handlePan(0,1)">
                  <use xlink:href="#rim" fill="#404040">
                        <set attributeName="fill" to="#808080" begin="arrowDown.mouseover" end="arrowDown.mouseout"/>
                  </use>
                  <path fill="none" stroke="white" stroke-width="1.5" d="M0,-3.0v7 M-2.5,-0.5L0,-3.0L2.5,-0.5"/>
                </g>
                <g id="arrowLeft" xlink:href="#dirArrow" transform="rotate(270) translate(-36 17)" onmousedown="handlePan(-1,0)">
                  <use xlink:href="#rim" fill="#404040">
                        <set attributeName="fill" to="#808080" begin="arrowLeft.mouseover" end="arrowLeft.mouseout"/>
                  </use>
                  <path fill="none" stroke="white" stroke-width="1.5" d="M0,-3.0v7 M-2.5,-0.5L0,-3.0L2.5,-0.5"/>
                </g>
        </g>
        <svg viewBox="0 0 15 15" width="100%" height="30px" preserveAspectRatio="xMaxYMin meet">
         <g id="arrow_out" transform="scale(0.3 0.3)">
          <a xlink:href="a00174_org.svg" target="_base">
           <rect id="button" ry="5" rx="5" y="6" x="6" height="38" width="38"
                fill="#f2f5e9" fill-opacity="0.5" stroke="#606060" stroke-width="1.0"/>
           <path id="arrow"
             d="M 11.500037,31.436501 C 11.940474,20.09759 22.043105,11.32322 32.158766,21.979434 L 37.068811,17.246167 C 37.068811,17.246167 37.088388,32 37.088388,32 L 22.160133,31.978069 C 22.160133,31.978069 26.997745,27.140456 26.997745,27.140456 C 18.528582,18.264221 13.291696,25.230495 11.500037,31.436501 z"
             style="fill:#404040;"/>
          </a>
         </g>
        </svg>
</svg>
