<?xml version="1.0" encoding="UTF-8" standalone="no"?>
<!DOCTYPE svg PUBLIC "-//W3C//DTD SVG 1.1//EN"
 "http://www.w3.org/Graphics/SVG/1.1/DTD/svg11.dtd">
<!-- Generated by graphviz version 2.38.0 (20140413.2041)
 -->
<!-- Title: mc::gfx::ogl::Buffer Pages: 1 -->
<svg width="544pt" height="268pt"
 viewBox="0.00 0.00 544.00 268.00" xmlns="http://www.w3.org/2000/svg" xmlns:xlink="http://www.w3.org/1999/xlink">
<g id="graph0" class="graph" transform="scale(1 1) rotate(0) translate(4 264)">
<title>mc::gfx::ogl::Buffer</title>
<polygon fill="white" stroke="none" points="-4,4 -4,-264 540,-264 540,4 -4,4"/>
<!-- Node1 -->
<g id="node1" class="node"><title>Node1</title>
<polygon fill="#bfbfbf" stroke="black" points="258,-126.5 258,-145.5 356,-145.5 356,-126.5 258,-126.5"/>
<text text-anchor="middle" x="307" y="-133.5" font-family="Helvetica,sans-Serif" font-size="10.00">mc::gfx::ogl::Buffer</text>
</g>
<!-- Node4 -->
<g id="node4" class="node"><title>Node4</title>
<g id="a_node4"><a xlink:href="../../d7/d7a/a00016.html" target="_top" xlink:title="Special sslBuffer with no extra semantics to be used as a proxy in copying. ">
<polygon fill="white" stroke="black" points="392.5,-240.5 392.5,-259.5 535.5,-259.5 535.5,-240.5 392.5,-240.5"/>
<text text-anchor="middle" x="464" y="-247.5" font-family="Helvetica,sans-Serif" font-size="10.00">mc::gfx::ogl::CopyReadBuffer</text>
</a>
</g>
</g>
<!-- Node1&#45;&gt;Node4 -->
<g id="edge3" class="edge"><title>Node1&#45;&gt;Node4</title>
<path fill="none" stroke="midnightblue" d="M319.329,-154.345C333.617,-175.932 360.199,-211.322 392,-231 398.293,-234.894 405.38,-237.999 412.576,-240.473"/>
<polygon fill="midnightblue" stroke="midnightblue" points="322.166,-152.285 313.817,-145.763 316.277,-156.069 322.166,-152.285"/>
</g>
<!-- Node5 -->
<g id="node5" class="node"><title>Node5</title>
<g id="a_node5"><a xlink:href="../../d4/d51/a00017.html" target="_top" xlink:title="Special sslBuffer with no extra semantics to be used as a proxy in copying. ">
<polygon fill="white" stroke="black" points="392,-202.5 392,-221.5 536,-221.5 536,-202.5 392,-202.5"/>
<text text-anchor="middle" x="464" y="-209.5" font-family="Helvetica,sans-Serif" font-size="10.00">mc::gfx::ogl::CopyWriteBuffer</text>
</a>
</g>
</g>
<!-- Node1&#45;&gt;Node5 -->
<g id="edge4" class="edge"><title>Node1&#45;&gt;Node5</title>
<path fill="none" stroke="midnightblue" d="M327.685,-152.172C344.023,-164.878 368.334,-182.179 392,-193 400.239,-196.767 409.37,-199.906 418.263,-202.476"/>
<polygon fill="midnightblue" stroke="midnightblue" points="329.49,-149.136 319.483,-145.657 325.135,-154.617 329.49,-149.136"/>
</g>
<!-- Node6 -->
<g id="node6" class="node"><title>Node6</title>
<g id="a_node6"><a xlink:href="../../dd/da2/a00019.html" target="_top" xlink:title="Stores element indices to save vertex data. ">
<polygon fill="white" stroke="black" points="397,-164.5 397,-183.5 531,-183.5 531,-164.5 397,-164.5"/>
<text text-anchor="middle" x="464" y="-171.5" font-family="Helvetica,sans-Serif" font-size="10.00">mc::gfx::ogl::ElementBuffer</text>
</a>
</g>
</g>
<!-- Node1&#45;&gt;Node6 -->
<g id="edge5" class="edge"><title>Node1&#45;&gt;Node6</title>
<path fill="none" stroke="midnightblue" d="M357.111,-148.04C378.765,-153.349 403.85,-159.499 424.168,-164.48"/>
<polygon fill="midnightblue" stroke="midnightblue" points="357.659,-144.571 347.113,-145.589 355.992,-151.37 357.659,-144.571"/>
</g>
<!-- Node7 -->
<g id="node7" class="node"><title>Node7</title>
<g id="a_node7"><a xlink:href="../../db/d3a/a00040.html" target="_top" xlink:title="Special sslBuffer that excels at asynchronous pixel transfer operations. ">
<polygon fill="white" stroke="black" points="392.5,-126.5 392.5,-145.5 535.5,-145.5 535.5,-126.5 392.5,-126.5"/>
<text text-anchor="middle" x="464" y="-133.5" font-family="Helvetica,sans-Serif" font-size="10.00">mc::gfx::ogl::PixelPackBuffer</text>
</a>
</g>
</g>
<!-- Node1&#45;&gt;Node7 -->
<g id="edge6" class="edge"><title>Node1&#45;&gt;Node7</title>
<path fill="none" stroke="midnightblue" d="M366.356,-136C374.846,-136 383.662,-136 392.362,-136"/>
<polygon fill="midnightblue" stroke="midnightblue" points="366.193,-132.5 356.193,-136 366.193,-139.5 366.193,-132.5"/>
</g>
<!-- Node8 -->
<g id="node8" class="node"><title>Node8</title>
<g id="a_node8"><a xlink:href="../../dd/d32/a00041.html" target="_top" xlink:title="Special sslBuffer that excels at asynchronous pixel transfer operations. ">
<polygon fill="white" stroke="black" points="400,-77 400,-107 528,-107 528,-77 400,-77"/>
<text text-anchor="start" x="408" y="-95" font-family="Helvetica,sans-Serif" font-size="10.00">mc::gfx::ogl::PixelUnpack</text>
<text text-anchor="middle" x="464" y="-84" font-family="Helvetica,sans-Serif" font-size="10.00">Buffer</text>
</a>
</g>
</g>
<!-- Node1&#45;&gt;Node8 -->
<g id="edge7" class="edge"><title>Node1&#45;&gt;Node8</title>
<path fill="none" stroke="midnightblue" d="M351.371,-123.688C369.54,-118.531 390.836,-112.485 409.929,-107.065"/>
<polygon fill="midnightblue" stroke="midnightblue" points="350.297,-120.355 341.633,-126.453 352.208,-127.089 350.297,-120.355"/>
</g>
<!-- Node9 -->
<g id="node9" class="node"><title>Node9</title>
<g id="a_node9"><a xlink:href="../../d9/da4/a00078.html" target="_top" xlink:title="Stores uniform data for a shader in the form of a sslBuffer. ">
<polygon fill="white" stroke="black" points="398.5,-38.5 398.5,-57.5 529.5,-57.5 529.5,-38.5 398.5,-38.5"/>
<text text-anchor="middle" x="464" y="-45.5" font-family="Helvetica,sans-Serif" font-size="10.00">mc::gfx::ogl::UniformBuffer</text>
</a>
</g>
</g>
<!-- Node1&#45;&gt;Node9 -->
<g id="edge8" class="edge"><title>Node1&#45;&gt;Node9</title>
<path fill="none" stroke="midnightblue" d="M324.241,-119.005C340.124,-103.333 365.697,-80.5128 392,-67 399.491,-63.1516 407.839,-60.0247 416.103,-57.503"/>
<polygon fill="midnightblue" stroke="midnightblue" points="321.41,-116.891 316.866,-126.462 326.387,-121.813 321.41,-116.891"/>
</g>
<!-- Node10 -->
<g id="node10" class="node"><title>Node10</title>
<g id="a_node10"><a xlink:href="../../db/dab/a00089.html" target="_top" xlink:title="Stores vertex data for a `VertexArray. ">
<polygon fill="white" stroke="black" points="400.5,-0.5 400.5,-19.5 527.5,-19.5 527.5,-0.5 400.5,-0.5"/>
<text text-anchor="middle" x="464" y="-7.5" font-family="Helvetica,sans-Serif" font-size="10.00">mc::gfx::ogl::VertexBuffer</text>
</a>
</g>
</g>
<!-- Node1&#45;&gt;Node10 -->
<g id="edge9" class="edge"><title>Node1&#45;&gt;Node10</title>
<path fill="none" stroke="midnightblue" d="M317.569,-117.44C330.948,-93.361 357.525,-51.7529 392,-29 397.857,-25.1342 404.475,-22.0525 411.256,-19.5964"/>
<polygon fill="midnightblue" stroke="midnightblue" points="314.459,-115.834 312.805,-126.299 320.624,-119.149 314.459,-115.834"/>
</g>
<!-- Node2 -->
<g id="node2" class="node"><title>Node2</title>
<g id="a_node2"><a xlink:href="../../d3/de7/a00039.html" target="_top" xlink:title="Represents a OpenGL object in memory. ">
<polygon fill="white" stroke="black" points="120,-126.5 120,-145.5 222,-145.5 222,-126.5 120,-126.5"/>
<text text-anchor="middle" x="171" y="-133.5" font-family="Helvetica,sans-Serif" font-size="10.00">mc::gfx::ogl::Object</text>
</a>
</g>
</g>
<!-- Node2&#45;&gt;Node1 -->
<g id="edge1" class="edge"><title>Node2&#45;&gt;Node1</title>
<path fill="none" stroke="midnightblue" d="M232.467,-136C240.906,-136 249.485,-136 257.661,-136"/>
<polygon fill="midnightblue" stroke="midnightblue" points="232.278,-132.5 222.278,-136 232.278,-139.5 232.278,-132.5"/>
</g>
<!-- Node3 -->
<g id="node3" class="node"><title>Node3</title>
<g id="a_node3"><a xlink:href="../../dc/d87/a00032.html" target="_top" xlink:title="mc::Initializable">
<polygon fill="white" stroke="black" points="0,-126.5 0,-145.5 84,-145.5 84,-126.5 0,-126.5"/>
<text text-anchor="middle" x="42" y="-133.5" font-family="Helvetica,sans-Serif" font-size="10.00">mc::Initializable</text>
</a>
</g>
</g>
<!-- Node3&#45;&gt;Node2 -->
<g id="edge2" class="edge"><title>Node3&#45;&gt;Node2</title>
<path fill="none" stroke="midnightblue" d="M94.2602,-136C102.634,-136 111.303,-136 119.655,-136"/>
<polygon fill="midnightblue" stroke="midnightblue" points="94.2333,-132.5 84.2333,-136 94.2332,-139.5 94.2333,-132.5"/>
</g>
</g>
</svg>
