<?xml version="1.0" encoding="UTF-8" standalone="no"?>
<!DOCTYPE svg PUBLIC "-//W3C//DTD SVG 1.1//EN"
 "http://www.w3.org/Graphics/SVG/1.1/DTD/svg11.dtd">
<!-- Generated by graphviz version 2.38.0 (20140413.2041)
 -->
<!-- Title: mc::gfx::ogl::OGL33Texture Pages: 1 -->
<svg width="234pt" height="196pt"
 viewBox="0.00 0.00 233.50 196.00" xmlns="http://www.w3.org/2000/svg" xmlns:xlink="http://www.w3.org/1999/xlink">
<g id="graph0" class="graph" transform="scale(1 1) rotate(0) translate(4 192)">
<title>mc::gfx::ogl::OGL33Texture</title>
<polygon fill="white" stroke="none" points="-4,4 -4,-192 229.5,-192 229.5,4 -4,4"/>
<!-- Node1 -->
<g id="node1" class="node"><title>Node1</title>
<polygon fill="#bfbfbf" stroke="black" points="49,-0.5 49,-19.5 186,-19.5 186,-0.5 49,-0.5"/>
<text text-anchor="middle" x="117.5" y="-7.5" font-family="Helvetica,sans-Serif" font-size="10.00">mc::gfx::ogl::OGL33Texture</text>
</g>
<!-- Node2 -->
<g id="node2" class="node"><title>Node2</title>
<g id="a_node2"><a xlink:href="../../d1/d6e/a00073.html" target="_top" xlink:title="mc::gfx::TextureImpl">
<polygon fill="white" stroke="black" points="0,-112.5 0,-131.5 105,-131.5 105,-112.5 0,-112.5"/>
<text text-anchor="middle" x="52.5" y="-119.5" font-family="Helvetica,sans-Serif" font-size="10.00">mc::gfx::TextureImpl</text>
</a>
</g>
</g>
<!-- Node2&#45;&gt;Node1 -->
<g id="edge1" class="edge"><title>Node2&#45;&gt;Node1</title>
<path fill="none" stroke="midnightblue" d="M62.7584,-103.64C76.8788,-79.7436 101.765,-37.6286 112.423,-19.5914"/>
<polygon fill="midnightblue" stroke="midnightblue" points="59.6745,-101.979 57.6004,-112.368 65.701,-105.54 59.6745,-101.979"/>
</g>
<!-- Node3 -->
<g id="node3" class="node"><title>Node3</title>
<g id="a_node3"><a xlink:href="../../d4/d8c/a00035.html" target="_top" xlink:title="mc::Initializable">
<polygon fill="white" stroke="black" points="16.5,-168.5 16.5,-187.5 100.5,-187.5 100.5,-168.5 16.5,-168.5"/>
<text text-anchor="middle" x="58.5" y="-175.5" font-family="Helvetica,sans-Serif" font-size="10.00">mc::Initializable</text>
</a>
</g>
</g>
<!-- Node3&#45;&gt;Node2 -->
<g id="edge2" class="edge"><title>Node3&#45;&gt;Node2</title>
<path fill="none" stroke="midnightblue" d="M56.4001,-158.101C55.404,-149.136 54.262,-138.858 53.4723,-131.751"/>
<polygon fill="midnightblue" stroke="midnightblue" points="52.9262,-158.531 57.5092,-168.083 59.8834,-157.758 52.9262,-158.531"/>
</g>
<!-- Node6 -->
<g id="node6" class="node"><title>Node6</title>
<g id="a_node6"><a xlink:href="../../d6/d97/a00045.html" target="_top" xlink:title="Represents a OpenGL object in memory. ">
<polygon fill="white" stroke="black" points="123.5,-112.5 123.5,-131.5 225.5,-131.5 225.5,-112.5 123.5,-112.5"/>
<text text-anchor="middle" x="174.5" y="-119.5" font-family="Helvetica,sans-Serif" font-size="10.00">mc::gfx::ogl::Object</text>
</a>
</g>
</g>
<!-- Node3&#45;&gt;Node6 -->
<g id="edge6" class="edge"><title>Node3&#45;&gt;Node6</title>
<path fill="none" stroke="midnightblue" d="M86.2197,-164.096C107.892,-154.007 137.402,-140.27 156.205,-131.516"/>
<polygon fill="midnightblue" stroke="midnightblue" points="84.4693,-161.05 76.8805,-168.444 87.4235,-167.396 84.4693,-161.05"/>
</g>
<!-- Node4 -->
<g id="node4" class="node"><title>Node4</title>
<g id="a_node4"><a xlink:href="../../da/da0/a00009.html" target="_top" xlink:title="mc::Bindable">
<polygon fill="white" stroke="black" points="130.5,-168.5 130.5,-187.5 204.5,-187.5 204.5,-168.5 130.5,-168.5"/>
<text text-anchor="middle" x="167.5" y="-175.5" font-family="Helvetica,sans-Serif" font-size="10.00">mc::Bindable</text>
</a>
</g>
</g>
<!-- Node4&#45;&gt;Node2 -->
<g id="edge3" class="edge"><title>Node4&#45;&gt;Node2</title>
<path fill="none" stroke="midnightblue" d="M140.019,-164.096C118.534,-154.007 89.2781,-140.27 70.6368,-131.516"/>
<polygon fill="midnightblue" stroke="midnightblue" points="138.738,-167.361 149.278,-168.444 141.714,-161.025 138.738,-167.361"/>
</g>
<!-- Node4&#45;&gt;Node6 -->
<g id="edge7" class="edge"><title>Node4&#45;&gt;Node6</title>
<path fill="none" stroke="midnightblue" d="M169.95,-158.101C171.112,-149.136 172.444,-138.858 173.366,-131.751"/>
<polygon fill="midnightblue" stroke="midnightblue" points="166.471,-157.716 168.656,-168.083 173.412,-158.616 166.471,-157.716"/>
</g>
<!-- Node5 -->
<g id="node5" class="node"><title>Node5</title>
<g id="a_node5"><a xlink:href="../../d6/d2c/a00072.html" target="_top" xlink:title="mc::gfx::ogl::Texture2D">
<polygon fill="white" stroke="black" points="106.5,-56.5 106.5,-75.5 224.5,-75.5 224.5,-56.5 106.5,-56.5"/>
<text text-anchor="middle" x="165.5" y="-63.5" font-family="Helvetica,sans-Serif" font-size="10.00">mc::gfx::ogl::Texture2D</text>
</a>
</g>
</g>
<!-- Node5&#45;&gt;Node1 -->
<g id="edge4" class="edge"><title>Node5&#45;&gt;Node1</title>
<path fill="none" stroke="#8b1a1a" d="M150.772,-48.4314C142.36,-38.9673 132.151,-27.4827 125.279,-19.7511"/>
<polygon fill="#8b1a1a" stroke="#8b1a1a" points="148.314,-50.9342 157.574,-56.083 153.546,-46.2836 148.314,-50.9342"/>
</g>
<!-- Node6&#45;&gt;Node5 -->
<g id="edge5" class="edge"><title>Node6&#45;&gt;Node5</title>
<path fill="none" stroke="midnightblue" d="M171.35,-102.101C169.856,-93.1357 168.143,-82.8579 166.959,-75.7511"/>
<polygon fill="midnightblue" stroke="midnightblue" points="167.917,-102.794 173.014,-112.083 174.822,-101.644 167.917,-102.794"/>
</g>
</g>
</svg>
