<?xml version="1.0" encoding="UTF-8" standalone="no"?>
<!DOCTYPE svg PUBLIC "-//W3C//DTD SVG 1.1//EN"
 "http://www.w3.org/Graphics/SVG/1.1/DTD/svg11.dtd">
<!-- Generated by graphviz version 2.38.0 (20140413.2041)
 -->
<!-- Title: mc::Module Pages: 1 -->
<svg width="238pt" height="84pt"
 viewBox="0.00 0.00 237.50 84.00" xmlns="http://www.w3.org/2000/svg" xmlns:xlink="http://www.w3.org/1999/xlink">
<g id="graph0" class="graph" transform="scale(1 1) rotate(0) translate(4 80)">
<title>mc::Module</title>
<polygon fill="white" stroke="none" points="-4,4 -4,-80 233.5,-80 233.5,4 -4,4"/>
<!-- Node1 -->
<g id="node1" class="node"><title>Node1</title>
<polygon fill="#bfbfbf" stroke="black" points="74,-56.5 74,-75.5 142,-75.5 142,-56.5 74,-56.5"/>
<text text-anchor="middle" x="108" y="-63.5" font-family="Helvetica,sans-Serif" font-size="10.00">mc::Module</text>
</g>
<!-- Node2 -->
<g id="node2" class="node"><title>Node2</title>
<g id="a_node2"><a xlink:href="$de/d21/a00006.html" xlink:title="mc::AudioModule">
<polygon fill="white" stroke="black" points="0,-0.5 0,-19.5 92,-19.5 92,-0.5 0,-0.5"/>
<text text-anchor="middle" x="46" y="-7.5" font-family="Helvetica,sans-Serif" font-size="10.00">mc::AudioModule</text>
</a>
</g>
</g>
<!-- Node1&#45;&gt;Node2 -->
<g id="edge1" class="edge"><title>Node1&#45;&gt;Node2</title>
<path fill="none" stroke="midnightblue" d="M90.2464,-49.5372C79.1915,-39.9087 65.3685,-27.8694 56.1426,-19.8339"/>
<polygon fill="midnightblue" stroke="midnightblue" points="88.199,-52.3954 98.0386,-56.324 92.7965,-47.1168 88.199,-52.3954"/>
</g>
<!-- Node3 -->
<g id="node3" class="node"><title>Node3</title>
<g id="a_node3"><a xlink:href="$d4/d6d/a00055.html" xlink:title="mc::os::WindowModule">
<polygon fill="white" stroke="black" points="110.5,-0.5 110.5,-19.5 229.5,-19.5 229.5,-0.5 110.5,-0.5"/>
<text text-anchor="middle" x="170" y="-7.5" font-family="Helvetica,sans-Serif" font-size="10.00">mc::os::WindowModule</text>
</a>
</g>
</g>
<!-- Node1&#45;&gt;Node3 -->
<g id="edge2" class="edge"><title>Node1&#45;&gt;Node3</title>
<path fill="none" stroke="midnightblue" d="M125.754,-49.5372C136.808,-39.9087 150.631,-27.8694 159.857,-19.8339"/>
<polygon fill="midnightblue" stroke="midnightblue" points="123.203,-47.1168 117.961,-56.324 127.801,-52.3954 123.203,-47.1168"/>
</g>
</g>
</svg>
