<?xml version="1.0" encoding="UTF-8" standalone="no"?>
<!DOCTYPE svg PUBLIC "-//W3C//DTD SVG 1.1//EN"
 "http://www.w3.org/Graphics/SVG/1.1/DTD/svg11.dtd">
<!-- Generated by graphviz version 2.38.0 (20140413.2041)
 -->
<!-- Title: mc::gfx::Renderer Pages: 1 -->
<svg width="1167pt" height="157pt"
 viewBox="0.00 0.00 1167.00 157.17" xmlns="http://www.w3.org/2000/svg" xmlns:xlink="http://www.w3.org/1999/xlink">
<g id="graph0" class="graph" transform="scale(1 1) rotate(0) translate(4 153.167)">
<title>mc::gfx::Renderer</title>
<polygon fill="white" stroke="none" points="-4,4 -4,-153.167 1163,-153.167 1163,4 -4,4"/>
<!-- Node1 -->
<g id="node1" class="node"><title>Node1</title>
<polygon fill="#bfbfbf" stroke="black" points="1065,-74.6673 1065,-93.6673 1159,-93.6673 1159,-74.6673 1065,-74.6673"/>
<text text-anchor="middle" x="1112" y="-81.6673" font-family="Helvetica,sans-Serif" font-size="10.00">mc::gfx::Renderer</text>
</g>
<!-- Node2 -->
<g id="node2" class="node"><title>Node2</title>
<polygon fill="white" stroke="#bfbfbf" points="391,-90.1673 391,-120.167 494,-120.167 494,-90.1673 391,-90.1673"/>
<text text-anchor="start" x="399" y="-108.167" font-family="Helvetica,sans-Serif" font-size="10.00">std::vector&lt; mc::gfx</text>
<text text-anchor="middle" x="442.5" y="-97.1673" font-family="Helvetica,sans-Serif" font-size="10.00">::RenderImpl * &gt;</text>
</g>
<!-- Node2&#45;&gt;Node1 -->
<g id="edge1" class="edge"><title>Node2&#45;&gt;Node1</title>
<path fill="none" stroke="#9a32cd" stroke-dasharray="5,2" d="M504.52,-103.691C613.464,-100.978 848.625,-94.7745 1047,-87.1673 1052.78,-86.9456 1058.85,-86.6903 1064.86,-86.424"/>
<polygon fill="#9a32cd" stroke="#9a32cd" points="504.286,-100.195 494.376,-103.942 504.46,-107.193 504.286,-100.195"/>
<text text-anchor="middle" x="810.5" y="-99.1673" font-family="Helvetica,sans-Serif" font-size="10.00"> protocols</text>
</g>
<!-- Node3 -->
<g id="node3" class="node"><title>Node3</title>
<g id="a_node3"><a xlink:href="../../d4/dca/a00048.html" target="_top" xlink:title="mc::gfx::RenderImpl">
<polygon fill="white" stroke="black" points="116.5,-129.667 116.5,-148.667 220.5,-148.667 220.5,-129.667 116.5,-129.667"/>
<text text-anchor="middle" x="168.5" y="-136.667" font-family="Helvetica,sans-Serif" font-size="10.00">mc::gfx::RenderImpl</text>
</a>
</g>
</g>
<!-- Node3&#45;&gt;Node2 -->
<g id="edge2" class="edge"><title>Node3&#45;&gt;Node2</title>
<path fill="none" stroke="#9a32cd" stroke-dasharray="5,2" d="M230.977,-132.712C268.807,-128.598 318.261,-122.966 362,-117.167 371.271,-115.938 381.135,-114.531 390.646,-113.122"/>
<polygon fill="#9a32cd" stroke="#9a32cd" points="230.195,-129.276 220.629,-133.831 230.948,-136.235 230.195,-129.276"/>
<text text-anchor="middle" x="304.5" y="-134.167" font-family="Helvetica,sans-Serif" font-size="10.00"> elements</text>
</g>
<!-- Node4 -->
<g id="node4" class="node"><title>Node4</title>
<g id="a_node4"><a xlink:title="STL class. ">
<polygon fill="white" stroke="#bfbfbf" points="126,-86.6673 126,-105.667 211,-105.667 211,-86.6673 126,-86.6673"/>
<text text-anchor="middle" x="168.5" y="-93.6673" font-family="Helvetica,sans-Serif" font-size="10.00">std::vector&lt; T &gt;</text>
</a>
</g>
</g>
<!-- Node4&#45;&gt;Node2 -->
<g id="edge3" class="edge"><title>Node4&#45;&gt;Node2</title>
<path fill="none" stroke="orange" stroke-dasharray="5,2" d="M221.109,-97.8749C269.755,-99.4845 342.221,-101.882 390.626,-103.484"/>
<polygon fill="orange" stroke="orange" points="221.217,-94.3767 211.107,-97.544 220.986,-101.373 221.217,-94.3767"/>
<text text-anchor="middle" x="304.5" y="-106.167" font-family="Helvetica,sans-Serif" font-size="10.00"> &lt; mc::gfx::RenderImpl * &gt;</text>
</g>
<!-- Node5 -->
<g id="node5" class="node"><title>Node5</title>
<polygon fill="white" stroke="#bfbfbf" points="0,-37.6673 0,-56.6673 29,-56.6673 29,-37.6673 0,-37.6673"/>
<text text-anchor="middle" x="14.5" y="-44.6673" font-family="Helvetica,sans-Serif" font-size="10.00">T</text>
</g>
<!-- Node5&#45;&gt;Node4 -->
<g id="edge4" class="edge"><title>Node5&#45;&gt;Node4</title>
<path fill="none" stroke="#9a32cd" stroke-dasharray="5,2" d="M38.4118,-58.6272C41.2728,-59.8946 44.183,-61.1079 47,-62.1673 73.246,-72.0378 103.638,-80.594 127.334,-86.6542"/>
<polygon fill="#9a32cd" stroke="#9a32cd" points="39.621,-55.3286 29.0808,-54.254 36.6504,-61.667 39.621,-55.3286"/>
<text text-anchor="middle" x="68.5" y="-80.1673" font-family="Helvetica,sans-Serif" font-size="10.00"> elements</text>
</g>
<!-- Node8 -->
<g id="node8" class="node"><title>Node8</title>
<g id="a_node8"><a xlink:href="../../d1/d1e/a00087.html" target="_top" xlink:title="1&#45;dimensional vector class that supports mathmatical operations. ">
<polygon fill="white" stroke="black" points="108,-32.1673 108,-62.1673 229,-62.1673 229,-32.1673 108,-32.1673"/>
<text text-anchor="start" x="116" y="-50.1673" font-family="Helvetica,sans-Serif" font-size="10.00">mc::VectorBase&lt; Child,</text>
<text text-anchor="middle" x="168.5" y="-39.1673" font-family="Helvetica,sans-Serif" font-size="10.00"> T, N &gt;</text>
</a>
</g>
</g>
<!-- Node5&#45;&gt;Node8 -->
<g id="edge8" class="edge"><title>Node5&#45;&gt;Node8</title>
<path fill="none" stroke="#9a32cd" stroke-dasharray="5,2" d="M39.3312,-47.1673C57.6867,-47.1673 83.8886,-47.1673 107.824,-47.1673"/>
<polygon fill="#9a32cd" stroke="#9a32cd" points="39.2571,-43.6674 29.2571,-47.1673 39.257,-50.6674 39.2571,-43.6674"/>
<text text-anchor="middle" x="68.5" y="-50.1673" font-family="Helvetica,sans-Serif" font-size="10.00"> content</text>
</g>
<!-- Node10 -->
<g id="node10" class="node"><title>Node10</title>
<g id="a_node10"><a xlink:href="../../d1/d1e/a00087.html" target="_top" xlink:title="mc::VectorBase\&lt; Vector\l\&lt; T, N \&gt;, T, N \&gt;">
<polygon fill="white" stroke="black" points="380,-1.16728 380,-31.1673 505,-31.1673 505,-1.16728 380,-1.16728"/>
<text text-anchor="start" x="388" y="-19.1673" font-family="Helvetica,sans-Serif" font-size="10.00">mc::VectorBase&lt; Vector</text>
<text text-anchor="middle" x="442.5" y="-8.16728" font-family="Helvetica,sans-Serif" font-size="10.00">&lt; T, N &gt;, T, N &gt;</text>
</a>
</g>
</g>
<!-- Node5&#45;&gt;Node10 -->
<g id="edge11" class="edge"><title>Node5&#45;&gt;Node10</title>
<path fill="none" stroke="#9a32cd" stroke-dasharray="5,2" d="M38.1203,-35.6248C56.4288,-26.9637 83.1635,-15.83 108,-11.1673 201.477,6.38178 312.29,-0.646435 379.714,-7.9384"/>
<polygon fill="#9a32cd" stroke="#9a32cd" points="36.5849,-32.4794 29.1253,-40.0031 39.6485,-38.7734 36.5849,-32.4794"/>
<text text-anchor="middle" x="168.5" y="-14.1673" font-family="Helvetica,sans-Serif" font-size="10.00"> content</text>
</g>
<!-- Node6 -->
<g id="node6" class="node"><title>Node6</title>
<g id="a_node6"><a xlink:href="../../d1/d51/a00079.html" target="_top" xlink:title="mc::Vector\&lt; float, 2 \&gt;">
<polygon fill="white" stroke="black" points="854,-50.6673 854,-69.6673 966,-69.6673 966,-50.6673 854,-50.6673"/>
<text text-anchor="middle" x="910" y="-57.6673" font-family="Helvetica,sans-Serif" font-size="10.00">mc::Vector&lt; float, 2 &gt;</text>
</a>
</g>
</g>
<!-- Node6&#45;&gt;Node1 -->
<g id="edge5" class="edge"><title>Node6&#45;&gt;Node1</title>
<path fill="none" stroke="#9a32cd" stroke-dasharray="5,2" d="M976.342,-67.7573C998.748,-70.3859 1023.98,-73.3739 1047,-76.1673 1052.78,-76.8686 1058.85,-77.615 1064.86,-78.3594"/>
<polygon fill="#9a32cd" stroke="#9a32cd" points="976.602,-64.264 966.263,-66.5769 975.788,-71.2165 976.602,-64.264"/>
<text text-anchor="middle" x="1015.5" y="-79.1673" font-family="Helvetica,sans-Serif" font-size="10.00"> windowRatios</text>
</g>
<!-- Node7 -->
<g id="node7" class="node"><title>Node7</title>
<g id="a_node7"><a xlink:href="../../d1/d1e/a00087.html" target="_top" xlink:title="mc::VectorBase\&lt; Vector\l\&lt; float, N \&gt;, float, N \&gt;">
<polygon fill="white" stroke="black" points="523,-45.1673 523,-75.1673 648,-75.1673 648,-45.1673 523,-45.1673"/>
<text text-anchor="start" x="531" y="-63.1673" font-family="Helvetica,sans-Serif" font-size="10.00">mc::VectorBase&lt; Vector</text>
<text text-anchor="middle" x="585.5" y="-52.1673" font-family="Helvetica,sans-Serif" font-size="10.00">&lt; float, N &gt;, float, N &gt;</text>
</a>
</g>
</g>
<!-- Node7&#45;&gt;Node6 -->
<g id="edge6" class="edge"><title>Node7&#45;&gt;Node6</title>
<path fill="none" stroke="midnightblue" d="M658.307,-60.1673C717.383,-60.1673 799.886,-60.1673 853.862,-60.1673"/>
<polygon fill="midnightblue" stroke="midnightblue" points="658.3,-56.6674 648.3,-60.1673 658.3,-63.6674 658.3,-56.6674"/>
</g>
<!-- Node8&#45;&gt;Node7 -->
<g id="edge7" class="edge"><title>Node8&#45;&gt;Node7</title>
<path fill="none" stroke="orange" stroke-dasharray="5,2" d="M239.797,-49.3694C319.231,-51.8577 447.277,-55.8687 522.925,-58.2384"/>
<polygon fill="orange" stroke="orange" points="239.506,-45.8586 229.401,-49.0437 239.287,-52.8552 239.506,-45.8586"/>
<text text-anchor="start" x="264" y="-67.1673" font-family="Helvetica,sans-Serif" font-size="10.00"> &lt; Vector&lt; float, N</text>
<text text-anchor="middle" x="304.5" y="-56.1673" font-family="Helvetica,sans-Serif" font-size="10.00"> &gt;, float, N &gt;</text>
</g>
<!-- Node8&#45;&gt;Node10 -->
<g id="edge12" class="edge"><title>Node8&#45;&gt;Node10</title>
<path fill="none" stroke="orange" stroke-dasharray="5,2" d="M232.293,-29.8629C237.245,-28.8352 242.19,-27.9165 247,-27.1673 291.112,-20.2961 341.445,-17.5862 379.856,-16.5732"/>
<polygon fill="orange" stroke="orange" points="231.164,-26.5279 222.157,-32.1063 232.677,-33.3626 231.164,-26.5279"/>
<text text-anchor="middle" x="304.5" y="-30.1673" font-family="Helvetica,sans-Serif" font-size="10.00"> &lt; Vector&lt; T, N &gt;, T, N &gt;</text>
</g>
<!-- Node9 -->
<g id="node9" class="node"><title>Node9</title>
<g id="a_node9"><a xlink:href="../../d1/d51/a00079.html" target="_top" xlink:title="mc::Vector\&lt; T, N \&gt;">
<polygon fill="white" stroke="black" points="666,-11.6673 666,-30.6673 767,-30.6673 767,-11.6673 666,-11.6673"/>
<text text-anchor="middle" x="716.5" y="-18.6673" font-family="Helvetica,sans-Serif" font-size="10.00">mc::Vector&lt; T, N &gt;</text>
</a>
</g>
</g>
<!-- Node9&#45;&gt;Node6 -->
<g id="edge9" class="edge"><title>Node9&#45;&gt;Node6</title>
<path fill="none" stroke="orange" stroke-dasharray="5,2" d="M777.194,-25.7219C796.141,-27.8322 817.08,-30.8614 836,-35.1673 852.85,-39.0021 871.255,-45.3202 885.369,-50.6451"/>
<polygon fill="orange" stroke="orange" points="777.506,-22.2355 767.195,-24.6711 776.774,-29.1971 777.506,-22.2355"/>
<text text-anchor="middle" x="810.5" y="-38.1673" font-family="Helvetica,sans-Serif" font-size="10.00"> &lt; float, 2 &gt;</text>
</g>
<!-- Node10&#45;&gt;Node9 -->
<g id="edge10" class="edge"><title>Node10&#45;&gt;Node9</title>
<path fill="none" stroke="midnightblue" d="M515.429,-17.4895C562.847,-18.3612 623.736,-19.4804 665.824,-20.2541"/>
<polygon fill="midnightblue" stroke="midnightblue" points="515.284,-13.9863 505.221,-17.3019 515.155,-20.9852 515.284,-13.9863"/>
</g>
</g>
</svg>
