<?xml version="1.0" encoding="UTF-8" standalone="no"?>
<!DOCTYPE svg PUBLIC "-//W3C//DTD SVG 1.1//EN"
 "http://www.w3.org/Graphics/SVG/1.1/DTD/svg11.dtd">
<!-- Generated by graphviz version 2.38.0 (20140413.2041)
 -->
<!-- Title: mc::TransformMatrix Pages: 1 -->
<svg width="120pt" height="251pt"
 viewBox="0.00 0.00 120.00 251.00" xmlns="http://www.w3.org/2000/svg" xmlns:xlink="http://www.w3.org/1999/xlink">
<g id="graph0" class="graph" transform="scale(1 1) rotate(0) translate(4 247)">
<title>mc::TransformMatrix</title>
<polygon fill="white" stroke="none" points="-4,4 -4,-247 116,-247 116,4 -4,4"/>
<!-- Node1 -->
<g id="node1" class="node"><title>Node1</title>
<polygon fill="#bfbfbf" stroke="black" points="3,-0.5 3,-19.5 109,-19.5 109,-0.5 3,-0.5"/>
<text text-anchor="middle" x="56" y="-7.5" font-family="Helvetica,sans-Serif" font-size="10.00">mc::TransformMatrix</text>
</g>
<!-- Node2 -->
<g id="node2" class="node"><title>Node2</title>
<g id="a_node2"><a xlink:href="../../d1/dea/a00054.html" target="_top" xlink:title="mc::Vector\&lt; float, 3 \&gt;">
<polygon fill="white" stroke="black" points="0,-89.5 0,-108.5 112,-108.5 112,-89.5 0,-89.5"/>
<text text-anchor="middle" x="56" y="-96.5" font-family="Helvetica,sans-Serif" font-size="10.00">mc::Vector&lt; float, 3 &gt;</text>
</a>
</g>
</g>
<!-- Node2&#45;&gt;Node1 -->
<g id="edge1" class="edge"><title>Node2&#45;&gt;Node1</title>
<path fill="none" stroke="#9a32cd" stroke-dasharray="5,2" d="M56,-79.1946C56,-60.7379 56,-33.412 56,-19.6249"/>
<polygon fill="#9a32cd" stroke="#9a32cd" points="52.5001,-79.34 56,-89.34 59.5001,-79.3401 52.5001,-79.34"/>
<text text-anchor="middle" x="79" y="-63" font-family="Helvetica,sans-Serif" font-size="10.00"> rotation</text>
<text text-anchor="middle" x="79" y="-52" font-family="Helvetica,sans-Serif" font-size="10.00">scaler</text>
<text text-anchor="middle" x="79" y="-41" font-family="Helvetica,sans-Serif" font-size="10.00">translation</text>
</g>
<!-- Node3 -->
<g id="node3" class="node"><title>Node3</title>
<g id="a_node3"><a xlink:href="../../d1/dea/a00054.html" target="_top" xlink:title="1&#45;dimensional vector class that supports mathmatical operations. ">
<polygon fill="white" stroke="black" points="5.5,-156.5 5.5,-175.5 106.5,-175.5 106.5,-156.5 5.5,-156.5"/>
<text text-anchor="middle" x="56" y="-163.5" font-family="Helvetica,sans-Serif" font-size="10.00">mc::Vector&lt; T, N &gt;</text>
</a>
</g>
</g>
<!-- Node3&#45;&gt;Node2 -->
<g id="edge2" class="edge"><title>Node3&#45;&gt;Node2</title>
<path fill="none" stroke="orange" stroke-dasharray="5,2" d="M56,-146.037C56,-133.67 56,-118.12 56,-108.627"/>
<polygon fill="orange" stroke="orange" points="52.5001,-146.234 56,-156.234 59.5001,-146.234 52.5001,-146.234"/>
<text text-anchor="middle" x="81.5" y="-130" font-family="Helvetica,sans-Serif" font-size="10.00"> &lt; float, 3 &gt;</text>
</g>
<!-- Node4 -->
<g id="node4" class="node"><title>Node4</title>
<polygon fill="white" stroke="#bfbfbf" points="41.5,-223.5 41.5,-242.5 70.5,-242.5 70.5,-223.5 41.5,-223.5"/>
<text text-anchor="middle" x="56" y="-230.5" font-family="Helvetica,sans-Serif" font-size="10.00">T</text>
</g>
<!-- Node4&#45;&gt;Node3 -->
<g id="edge3" class="edge"><title>Node4&#45;&gt;Node3</title>
<path fill="none" stroke="#9a32cd" stroke-dasharray="5,2" d="M56,-213.037C56,-200.67 56,-185.12 56,-175.627"/>
<polygon fill="#9a32cd" stroke="#9a32cd" points="52.5001,-213.234 56,-223.234 59.5001,-213.234 52.5001,-213.234"/>
<text text-anchor="middle" x="74" y="-197" font-family="Helvetica,sans-Serif" font-size="10.00"> content</text>
</g>
</g>
</svg>
