<?xml version="1.0" encoding="UTF-8" standalone="no"?>
<!DOCTYPE svg PUBLIC "-//W3C//DTD SVG 1.1//EN"
 "http://www.w3.org/Graphics/SVG/1.1/DTD/svg11.dtd">
<!-- Generated by graphviz version 2.38.0 (20140413.2041)
 -->
<!-- Title: mc::gfx::Component Pages: 1 -->
<svg width="292pt" height="84pt"
 viewBox="0.00 0.00 292.00 84.00" xmlns="http://www.w3.org/2000/svg" xmlns:xlink="http://www.w3.org/1999/xlink">
<g id="graph0" class="graph" transform="scale(1 1) rotate(0) translate(4 80)">
<title>mc::gfx::Component</title>
<polygon fill="white" stroke="none" points="-4,4 -4,-80 288,-80 288,4 -4,4"/>
<!-- Node1 -->
<g id="node1" class="node"><title>Node1</title>
<polygon fill="#bfbfbf" stroke="black" points="94,-56.5 94,-75.5 198,-75.5 198,-56.5 94,-56.5"/>
<text text-anchor="middle" x="146" y="-63.5" font-family="Helvetica,sans-Serif" font-size="10.00">mc::gfx::Component</text>
</g>
<!-- Node2 -->
<g id="node2" class="node"><title>Node2</title>
<g id="a_node2"><a xlink:href="../../d4/dee/a00008.html" target="_top" xlink:title="mc::gfx::CallbackComponent">
<polygon fill="white" stroke="black" points="0,-0.5 0,-19.5 142,-19.5 142,-0.5 0,-0.5"/>
<text text-anchor="middle" x="71" y="-7.5" font-family="Helvetica,sans-Serif" font-size="10.00">mc::gfx::CallbackComponent</text>
</a>
</g>
</g>
<!-- Node1&#45;&gt;Node2 -->
<g id="edge1" class="edge"><title>Node1&#45;&gt;Node2</title>
<path fill="none" stroke="midnightblue" d="M125.695,-50.3804C112.139,-40.6204 94.7579,-28.1057 83.2693,-19.8339"/>
<polygon fill="midnightblue" stroke="midnightblue" points="123.79,-53.3213 133.95,-56.324 127.88,-47.6405 123.79,-53.3213"/>
</g>
<!-- Node3 -->
<g id="node3" class="node"><title>Node3</title>
<g id="a_node3"><a xlink:href="../../d1/d2b/a00018.html" target="_top" xlink:title="mc::gfx::FPSComponent">
<polygon fill="white" stroke="black" points="160,-0.5 160,-19.5 284,-19.5 284,-0.5 160,-0.5"/>
<text text-anchor="middle" x="222" y="-7.5" font-family="Helvetica,sans-Serif" font-size="10.00">mc::gfx::FPSComponent</text>
</a>
</g>
</g>
<!-- Node1&#45;&gt;Node3 -->
<g id="edge2" class="edge"><title>Node1&#45;&gt;Node3</title>
<path fill="none" stroke="midnightblue" d="M166.576,-50.3804C180.312,-40.6204 197.925,-28.1057 209.567,-19.8339"/>
<polygon fill="midnightblue" stroke="midnightblue" points="164.335,-47.6787 158.211,-56.324 168.39,-53.385 164.335,-47.6787"/>
</g>
</g>
</svg>
