<?xml version="1.0" encoding="UTF-8" standalone="no"?>
<!DOCTYPE svg PUBLIC "-//W3C//DTD SVG 1.1//EN"
 "http://www.w3.org/Graphics/SVG/1.1/DTD/svg11.dtd">
<!-- Generated by graphviz version 2.38.0 (20140413.2041)
 -->
<!-- Title: mc::Vector&lt; T, 3 &gt; Pages: 1 -->
<svg width="233pt" height="241pt"
 viewBox="0.00 0.00 232.50 241.00" xmlns="http://www.w3.org/2000/svg" xmlns:xlink="http://www.w3.org/1999/xlink">
<g id="graph0" class="graph" transform="scale(1 1) rotate(0) translate(4 237)">
<title>mc::Vector&lt; T, 3 &gt;</title>
<polygon fill="white" stroke="none" points="-4,4 -4,-237 228.5,-237 228.5,4 -4,4"/>
<!-- Node1 -->
<g id="node1" class="node"><title>Node1</title>
<polygon fill="#bfbfbf" stroke="black" points="13,-0.5 13,-19.5 112,-19.5 112,-0.5 13,-0.5"/>
<text text-anchor="middle" x="62.5" y="-7.5" font-family="Helvetica,sans-Serif" font-size="10.00">mc::Vector&lt; T, 3 &gt;</text>
</g>
<!-- Node2 -->
<g id="node2" class="node"><title>Node2</title>
<g id="a_node2"><a xlink:href="../../d1/d09/a00077.html" target="_top" xlink:title="mc::VectorBase\&lt; Vector\l\&lt; T, 3 \&gt;, T, 3 \&gt;">
<polygon fill="white" stroke="black" points="0,-57.5 0,-87.5 125,-87.5 125,-57.5 0,-57.5"/>
<text text-anchor="start" x="8" y="-75.5" font-family="Helvetica,sans-Serif" font-size="10.00">mc::VectorBase&lt; Vector</text>
<text text-anchor="middle" x="62.5" y="-64.5" font-family="Helvetica,sans-Serif" font-size="10.00">&lt; T, 3 &gt;, T, 3 &gt;</text>
</a>
</g>
</g>
<!-- Node2&#45;&gt;Node1 -->
<g id="edge1" class="edge"><title>Node2&#45;&gt;Node1</title>
<path fill="none" stroke="midnightblue" d="M62.5,-47.3524C62.5,-37.5132 62.5,-26.7753 62.5,-19.5399"/>
<polygon fill="midnightblue" stroke="midnightblue" points="59.0001,-47.468 62.5,-57.468 66.0001,-47.4681 59.0001,-47.468"/>
</g>
<!-- Node3 -->
<g id="node3" class="node"><title>Node3</title>
<polygon fill="white" stroke="#bfbfbf" points="69,-213.5 69,-232.5 98,-232.5 98,-213.5 69,-213.5"/>
<text text-anchor="middle" x="83.5" y="-220.5" font-family="Helvetica,sans-Serif" font-size="10.00">T</text>
</g>
<!-- Node3&#45;&gt;Node2 -->
<g id="edge2" class="edge"><title>Node3&#45;&gt;Node2</title>
<path fill="none" stroke="#9a32cd" stroke-dasharray="5,2" d="M72.2101,-204.689C65.9335,-194.013 58.7505,-179.769 55.5,-166 49.0987,-138.884 54.5459,-106.174 58.751,-87.814"/>
<polygon fill="#9a32cd" stroke="#9a32cd" points="69.3448,-206.711 77.5807,-213.375 75.2987,-203.029 69.3448,-206.711"/>
<text text-anchor="middle" x="73.5" y="-148" font-family="Helvetica,sans-Serif" font-size="10.00"> content</text>
</g>
<!-- Node4 -->
<g id="node4" class="node"><title>Node4</title>
<g id="a_node4"><a xlink:href="../../d1/d09/a00077.html" target="_top" xlink:title="1&#45;dimensional vector class that supports mathmatical operations. ">
<polygon fill="white" stroke="black" points="101,-135.5 101,-165.5 222,-165.5 222,-135.5 101,-135.5"/>
<text text-anchor="start" x="109" y="-153.5" font-family="Helvetica,sans-Serif" font-size="10.00">mc::VectorBase&lt; Child,</text>
<text text-anchor="middle" x="161.5" y="-142.5" font-family="Helvetica,sans-Serif" font-size="10.00"> T, N &gt;</text>
</a>
</g>
</g>
<!-- Node3&#45;&gt;Node4 -->
<g id="edge4" class="edge"><title>Node3&#45;&gt;Node4</title>
<path fill="none" stroke="#9a32cd" stroke-dasharray="5,2" d="M100.715,-206.44C114.222,-194.232 132.861,-177.386 145.926,-165.576"/>
<polygon fill="#9a32cd" stroke="#9a32cd" points="98.1362,-204.053 93.0643,-213.355 102.83,-209.246 98.1362,-204.053"/>
<text text-anchor="middle" x="142.5" y="-187" font-family="Helvetica,sans-Serif" font-size="10.00"> content</text>
</g>
<!-- Node4&#45;&gt;Node2 -->
<g id="edge3" class="edge"><title>Node4&#45;&gt;Node2</title>
<path fill="none" stroke="orange" stroke-dasharray="5,2" d="M134.94,-129.111C117.909,-116.036 96.2245,-99.3895 81.0376,-87.7309"/>
<polygon fill="orange" stroke="orange" points="132.815,-131.892 142.879,-135.205 137.078,-126.339 132.815,-131.892"/>
<text text-anchor="middle" x="171" y="-109" font-family="Helvetica,sans-Serif" font-size="10.00"> &lt; Vector&lt; T, 3 &gt;, T, 3 &gt;</text>
</g>
</g>
</svg>
