<?xml version="1.0" encoding="UTF-8" standalone="no"?>
<!DOCTYPE svg PUBLIC "-//W3C//DTD SVG 1.1//EN"
 "http://www.w3.org/Graphics/SVG/1.1/DTD/svg11.dtd">
<!-- Generated by graphviz version 2.38.0 (20140413.2041)
 -->
<!-- Title: mc::gfx::ogl::OGL33Context Pages: 1 -->
<!--zoomable 707 -->
<svg id="main" version="1.1" xmlns="http://www.w3.org/2000/svg" xmlns:xlink="http://www.w3.org/1999/xlink" xml:space="preserve" onload="init(evt)">
<style type="text/css"><![CDATA[
.edge:hover path { stroke: red; }
.edge:hover polygon { stroke: red; fill: red; }
]]></style>
<script type="text/javascript"><![CDATA[
var edges = document.getElementsByTagName('g');
if (edges && edges.length) {
  for (var i=0;i<edges.length;i++) {
    if (edges[i].id.substr(0,4)=='edge') {
      edges[i].setAttribute('class','edge');
    }
  }
}
]]></script>
        <defs>
                <circle id="rim" cx="0" cy="0" r="7"/>
                <circle id="rim2" cx="0" cy="0" r="3.5"/>
                <g id="zoomPlus">
                        <use xlink:href="#rim" fill="#404040">
                                <set attributeName="fill" to="#808080" begin="zoomplus.mouseover" end="zoomplus.mouseout"/>
                        </use>
                        <path d="M-4,0h8M0,-4v8" fill="none" stroke="white" stroke-width="1.5" pointer-events="none"/>
                </g>
                <g id="zoomMin">
                        <use xlink:href="#rim" fill="#404040">
                                <set attributeName="fill" to="#808080" begin="zoomminus.mouseover" end="zoomminus.mouseout"/>
                        </use>
                        <path d="M-4,0h8" fill="none" stroke="white" stroke-width="1.5" pointer-events="none"/>
                </g>
                <g id="dirArrow">
                        <path fill="none" stroke="white" stroke-width="1.5" d="M0,-3.0v7 M-2.5,-0.5L0,-3.0L2.5,-0.5"/>
                </g>
               <g id="resetDef">
                       <use xlink:href="#rim2" fill="#404040">
                               <set attributeName="fill" to="#808080" begin="reset.mouseover" end="reset.mouseout"/>
                       </use>
               </g>
        </defs>

<script type="text/javascript">
var viewWidth = 446;
var viewHeight = 707;
var sectionId = 'dynsection-1';
</script>
<script xlink:href="../../svgpan.js"/>
<svg id="graph" class="graph">
<g id="viewport">
<title>mc::gfx::ogl::OGL33Context</title>
<polygon fill="white" stroke="none" points="-4,4 -4,-703 442,-703 442,4 -4,4"/>
<!-- Node1 -->
<g id="node1" class="node"><title>Node1</title>
<polygon fill="#bfbfbf" stroke="black" points="0,-0.5 0,-19.5 138,-19.5 138,-0.5 0,-0.5"/>
<text text-anchor="middle" x="69" y="-7.5" font-family="Helvetica,sans-Serif" font-size="10.00">mc::gfx::ogl::OGL33Context</text>
</g>
<!-- Node2 -->
<g id="node2" class="node"><title>Node2</title>
<g id="a_node2"><a xlink:href="../../dc/d3c/a00028.html" target="_top" xlink:title="mc::gfx::GraphicsContext">
<polygon fill="white" stroke="black" points="5,-57.5 5,-76.5 133,-76.5 133,-57.5 5,-57.5"/>
<text text-anchor="middle" x="69" y="-64.5" font-family="Helvetica,sans-Serif" font-size="10.00">mc::gfx::GraphicsContext</text>
</a>
</g>
</g>
<!-- Node2&#45;&gt;Node1 -->
<g id="edge1" class="edge"><title>Node2&#45;&gt;Node1</title>
<path fill="none" stroke="midnightblue" d="M69,-47.1166C69,-37.8173 69,-27.0557 69,-19.7149"/>
<polygon fill="midnightblue" stroke="midnightblue" points="65.5001,-47.4062 69,-57.4063 72.5001,-47.4063 65.5001,-47.4062"/>
</g>
<!-- Node3 -->
<g id="node3" class="node"><title>Node3</title>
<g id="a_node3"><a xlink:href="../../d4/d8c/a00035.html" target="_top" xlink:title="mc::Initializable">
<polygon fill="white" stroke="black" points="38,-269.5 38,-288.5 122,-288.5 122,-269.5 38,-269.5"/>
<text text-anchor="middle" x="80" y="-276.5" font-family="Helvetica,sans-Serif" font-size="10.00">mc::Initializable</text>
</a>
</g>
</g>
<!-- Node3&#45;&gt;Node2 -->
<g id="edge2" class="edge"><title>Node3&#45;&gt;Node2</title>
<path fill="none" stroke="midnightblue" d="M70.9605,-260.06C66.0592,-249.318 60.504,-235.222 58,-222 49.8954,-179.205 53.7826,-167.351 58,-124 59.6501,-107.038 64.0485,-87.5896 66.7572,-76.6526"/>
<polygon fill="midnightblue" stroke="midnightblue" points="67.8598,-261.689 75.3384,-269.194 74.1722,-258.663 67.8598,-261.689"/>
</g>
<!-- Node5 -->
<g id="node5" class="node"><title>Node5</title>
<g id="a_node5"><a xlink:href="../../d5/df9/a00044.html" target="_top" xlink:title="Abstract class used for doing a task in MACE. ">
<polygon fill="white" stroke="black" points="67,-202.5 67,-221.5 135,-221.5 135,-202.5 67,-202.5"/>
<text text-anchor="middle" x="101" y="-209.5" font-family="Helvetica,sans-Serif" font-size="10.00">mc::Module</text>
</a>
</g>
</g>
<!-- Node3&#45;&gt;Node5 -->
<g id="edge5" class="edge"><title>Node3&#45;&gt;Node5</title>
<path fill="none" stroke="midnightblue" d="M86.0045,-259.415C90.0192,-246.988 95.1146,-231.217 98.2127,-221.627"/>
<polygon fill="midnightblue" stroke="midnightblue" points="82.576,-258.642 82.8322,-269.234 89.237,-260.794 82.576,-258.642"/>
</g>
<!-- Node6 -->
<g id="node6" class="node"><title>Node6</title>
<g id="a_node6"><a xlink:href="../../d7/de0/a00022.html" target="_top" xlink:title="Abstract superclass for all graphical objects. ">
<polygon fill="white" stroke="black" points="153,-202.5 153,-221.5 233,-221.5 233,-202.5 153,-202.5"/>
<text text-anchor="middle" x="193" y="-209.5" font-family="Helvetica,sans-Serif" font-size="10.00">mc::gfx::Entity</text>
</a>
</g>
</g>
<!-- Node3&#45;&gt;Node6 -->
<g id="edge7" class="edge"><title>Node3&#45;&gt;Node6</title>
<path fill="none" stroke="midnightblue" d="M104.138,-264.115C126.526,-251.237 159.142,-232.476 178.002,-221.627"/>
<polygon fill="midnightblue" stroke="midnightblue" points="102.163,-261.214 95.2397,-269.234 105.653,-267.281 102.163,-261.214"/>
</g>
<!-- Node4 -->
<g id="node4" class="node"><title>Node4</title>
<g id="a_node4"><a xlink:href="../../d1/d1e/a00087.html" target="_top" xlink:title="mc::os::WindowModule">
<polygon fill="white" stroke="black" points="67.5,-130 67.5,-149 186.5,-149 186.5,-130 67.5,-130"/>
<text text-anchor="middle" x="127" y="-137" font-family="Helvetica,sans-Serif" font-size="10.00">mc::os::WindowModule</text>
</a>
</g>
</g>
<!-- Node4&#45;&gt;Node2 -->
<g id="edge3" class="edge"><title>Node4&#45;&gt;Node2</title>
<path fill="none" stroke="#9a32cd" stroke-dasharray="5,2" d="M113.341,-121.897C101.696,-107.743 85.4182,-87.9566 76.1701,-76.7154"/>
<polygon fill="#9a32cd" stroke="#9a32cd" points="110.832,-124.356 119.888,-129.855 116.238,-119.909 110.832,-124.356"/>
<text text-anchor="middle" x="117.5" y="-98" font-family="Helvetica,sans-Serif" font-size="10.00"> window</text>
</g>
<!-- Node5&#45;&gt;Node4 -->
<g id="edge4" class="edge"><title>Node5&#45;&gt;Node4</title>
<path fill="none" stroke="midnightblue" d="M107.723,-192.771C112.889,-178.762 119.797,-160.032 123.786,-149.215"/>
<polygon fill="midnightblue" stroke="midnightblue" points="104.365,-191.762 104.188,-202.355 110.932,-194.184 104.365,-191.762"/>
</g>
<!-- Node6&#45;&gt;Node4 -->
<g id="edge6" class="edge"><title>Node6&#45;&gt;Node4</title>
<path fill="none" stroke="midnightblue" d="M177.83,-194.796C164.557,-180.617 145.782,-160.563 135.159,-149.215"/>
<polygon fill="midnightblue" stroke="midnightblue" points="175.518,-197.447 184.907,-202.355 180.628,-192.663 175.518,-197.447"/>
</g>
<!-- Node7 -->
<g id="node7" class="node"><title>Node7</title>
<polygon fill="white" stroke="#bfbfbf" points="207.5,-124.5 207.5,-154.5 310.5,-154.5 310.5,-124.5 207.5,-124.5"/>
<text text-anchor="start" x="215.5" y="-142.5" font-family="Helvetica,sans-Serif" font-size="10.00">std::vector&lt; mc::gfx</text>
<text text-anchor="middle" x="259" y="-131.5" font-family="Helvetica,sans-Serif" font-size="10.00">::Entity * &gt;</text>
</g>
<!-- Node6&#45;&gt;Node7 -->
<g id="edge9" class="edge"><title>Node6&#45;&gt;Node7</title>
<path fill="none" stroke="#9a32cd" stroke-dasharray="5,2" d="M187.101,-192.327C186.13,-185.78 186.412,-178.656 190,-173 194.965,-165.173 202.374,-159.196 210.519,-154.644"/>
<polygon fill="#9a32cd" stroke="#9a32cd" points="183.795,-193.547 189.555,-202.439 190.598,-191.896 183.795,-193.547"/>
<text text-anchor="middle" x="211.5" y="-176" font-family="Helvetica,sans-Serif" font-size="10.00"> elements</text>
</g>
<!-- Node7&#45;&gt;Node6 -->
<g id="edge8" class="edge"><title>Node7&#45;&gt;Node6</title>
<path fill="none" stroke="#9a32cd" stroke-dasharray="5,2" d="M250.14,-163.795C246.74,-170.808 242.361,-178.18 237,-184 229.957,-191.647 220.262,-197.908 211.765,-202.468"/>
<polygon fill="#9a32cd" stroke="#9a32cd" points="253.348,-165.196 254.17,-154.633 246.94,-162.378 253.348,-165.196"/>
<text text-anchor="middle" x="263.5" y="-176" font-family="Helvetica,sans-Serif" font-size="10.00"> children</text>
</g>
<!-- Node8 -->
<g id="node8" class="node"><title>Node8</title>
<g id="a_node8"><a xlink:title="STL class. ">
<polygon fill="white" stroke="#bfbfbf" points="306.5,-562.5 306.5,-581.5 391.5,-581.5 391.5,-562.5 306.5,-562.5"/>
<text text-anchor="middle" x="349" y="-569.5" font-family="Helvetica,sans-Serif" font-size="10.00">std::vector&lt; T &gt;</text>
</a>
</g>
</g>
<!-- Node8&#45;&gt;Node7 -->
<g id="edge10" class="edge"><title>Node8&#45;&gt;Node7</title>
<path fill="none" stroke="orange" stroke-dasharray="5,2" d="M348.034,-552.43C347.157,-533.948 346,-504.771 346,-479.5 346,-479.5 346,-479.5 346,-211 346,-184.172 320.719,-165.781 297.413,-154.527"/>
<polygon fill="orange" stroke="orange" points="344.539,-552.611 348.531,-562.425 351.53,-552.263 344.539,-552.611"/>
<text text-anchor="middle" x="392" y="-365.5" font-family="Helvetica,sans-Serif" font-size="10.00"> &lt; mc::gfx::Entity * &gt;</text>
</g>
<!-- Node9 -->
<g id="node9" class="node"><title>Node9</title>
<polygon fill="white" stroke="#bfbfbf" points="272.5,-679.5 272.5,-698.5 301.5,-698.5 301.5,-679.5 272.5,-679.5"/>
<text text-anchor="middle" x="287" y="-686.5" font-family="Helvetica,sans-Serif" font-size="10.00">T</text>
</g>
<!-- Node9&#45;&gt;Node8 -->
<g id="edge11" class="edge"><title>Node9&#45;&gt;Node8</title>
<path fill="none" stroke="#9a32cd" stroke-dasharray="5,2" d="M300.699,-671.312C309.066,-660.557 319.552,-646.011 327,-632 336.031,-615.011 343.043,-593.495 346.543,-581.707"/>
<polygon fill="#9a32cd" stroke="#9a32cd" points="297.78,-669.358 294.282,-679.359 303.253,-673.722 297.78,-669.358"/>
<text text-anchor="middle" x="336.5" y="-653" font-family="Helvetica,sans-Serif" font-size="10.00"> elements</text>
</g>
<!-- Node13 -->
<g id="node13" class="node"><title>Node13</title>
<g id="a_node13"><a xlink:href="../../df/d5d/a00084.html" target="_top" xlink:title="1&#45;dimensional vector class that supports mathmatical operations. ">
<polygon fill="white" stroke="black" points="101.5,-601.5 101.5,-631.5 222.5,-631.5 222.5,-601.5 101.5,-601.5"/>
<text text-anchor="start" x="109.5" y="-619.5" font-family="Helvetica,sans-Serif" font-size="10.00">mc::VectorBase&lt; Child,</text>
<text text-anchor="middle" x="162" y="-608.5" font-family="Helvetica,sans-Serif" font-size="10.00"> T, N &gt;</text>
</a>
</g>
</g>
<!-- Node9&#45;&gt;Node13 -->
<g id="edge16" class="edge"><title>Node9&#45;&gt;Node13</title>
<path fill="none" stroke="#9a32cd" stroke-dasharray="5,2" d="M263.584,-675.546C255.171,-671.021 245.631,-665.832 237,-661 219.794,-651.368 200.558,-640.203 185.875,-631.596"/>
<polygon fill="#9a32cd" stroke="#9a32cd" points="262.028,-678.682 272.495,-680.318 265.332,-672.511 262.028,-678.682"/>
<text text-anchor="middle" x="255" y="-653" font-family="Helvetica,sans-Serif" font-size="10.00"> content</text>
</g>
<!-- Node15 -->
<g id="node15" class="node"><title>Node15</title>
<g id="a_node15"><a xlink:href="../../df/d5d/a00084.html" target="_top" xlink:title="mc::VectorBase\&lt; Vector\l\&lt; T, N \&gt;, T, N \&gt;">
<polygon fill="white" stroke="black" points="103.5,-512.5 103.5,-542.5 228.5,-542.5 228.5,-512.5 103.5,-512.5"/>
<text text-anchor="start" x="111.5" y="-530.5" font-family="Helvetica,sans-Serif" font-size="10.00">mc::VectorBase&lt; Vector</text>
<text text-anchor="middle" x="166" y="-519.5" font-family="Helvetica,sans-Serif" font-size="10.00">&lt; T, N &gt;, T, N &gt;</text>
</a>
</g>
</g>
<!-- Node9&#45;&gt;Node15 -->
<g id="edge19" class="edge"><title>Node9&#45;&gt;Node15</title>
<path fill="none" stroke="#9a32cd" stroke-dasharray="5,2" d="M287.381,-669.235C287.625,-637.964 286.313,-577.037 273,-561 261.839,-547.556 245.301,-539.548 228.546,-534.815"/>
<polygon fill="#9a32cd" stroke="#9a32cd" points="283.881,-669.228 287.24,-679.276 290.88,-669.326 283.881,-669.228"/>
<text text-anchor="middle" x="305" y="-614" font-family="Helvetica,sans-Serif" font-size="10.00"> content</text>
</g>
<!-- Node10 -->
<g id="node10" class="node"><title>Node10</title>
<g id="a_node10"><a xlink:href="../../db/db6/a00074.html" target="_top" xlink:title="Matrix&#45;based class that allows for the easy creation and management of transformation matrices...">
<polygon fill="white" stroke="black" points="140,-269.5 140,-288.5 246,-288.5 246,-269.5 140,-269.5"/>
<text text-anchor="middle" x="193" y="-276.5" font-family="Helvetica,sans-Serif" font-size="10.00">mc::TransformMatrix</text>
</a>
</g>
</g>
<!-- Node10&#45;&gt;Node6 -->
<g id="edge12" class="edge"><title>Node10&#45;&gt;Node6</title>
<path fill="none" stroke="#9a32cd" stroke-dasharray="5,2" d="M193,-259.037C193,-246.67 193,-231.12 193,-221.627"/>
<polygon fill="#9a32cd" stroke="#9a32cd" points="189.5,-259.234 193,-269.234 196.5,-259.234 189.5,-259.234"/>
<text text-anchor="middle" x="225.5" y="-243" font-family="Helvetica,sans-Serif" font-size="10.00"> transformation</text>
</g>
<!-- Node11 -->
<g id="node11" class="node"><title>Node11</title>
<g id="a_node11"><a xlink:href="../../db/df8/a00076.html" target="_top" xlink:title="mc::Vector\&lt; float, 3 \&gt;">
<polygon fill="white" stroke="black" points="110,-358.5 110,-377.5 222,-377.5 222,-358.5 110,-358.5"/>
<text text-anchor="middle" x="166" y="-365.5" font-family="Helvetica,sans-Serif" font-size="10.00">mc::Vector&lt; float, 3 &gt;</text>
</a>
</g>
</g>
<!-- Node11&#45;&gt;Node10 -->
<g id="edge13" class="edge"><title>Node11&#45;&gt;Node10</title>
<path fill="none" stroke="#9a32cd" stroke-dasharray="5,2" d="M171.675,-348.715C177.404,-330.255 186.004,-302.542 190.323,-288.625"/>
<polygon fill="#9a32cd" stroke="#9a32cd" points="168.309,-347.752 168.688,-358.34 174.994,-349.827 168.309,-347.752"/>
<text text-anchor="middle" x="208" y="-332" font-family="Helvetica,sans-Serif" font-size="10.00"> rotation</text>
<text text-anchor="middle" x="208" y="-321" font-family="Helvetica,sans-Serif" font-size="10.00">scaler</text>
<text text-anchor="middle" x="208" y="-310" font-family="Helvetica,sans-Serif" font-size="10.00">translation</text>
</g>
<!-- Node12 -->
<g id="node12" class="node"><title>Node12</title>
<g id="a_node12"><a xlink:href="../../df/d5d/a00084.html" target="_top" xlink:title="mc::VectorBase\&lt; Vector\l\&lt; float, N \&gt;, float, N \&gt;">
<polygon fill="white" stroke="black" points="1.5,-463.5 1.5,-493.5 126.5,-493.5 126.5,-463.5 1.5,-463.5"/>
<text text-anchor="start" x="9.5" y="-481.5" font-family="Helvetica,sans-Serif" font-size="10.00">mc::VectorBase&lt; Vector</text>
<text text-anchor="middle" x="64" y="-470.5" font-family="Helvetica,sans-Serif" font-size="10.00">&lt; float, N &gt;, float, N &gt;</text>
</a>
</g>
</g>
<!-- Node12&#45;&gt;Node11 -->
<g id="edge14" class="edge"><title>Node12&#45;&gt;Node11</title>
<path fill="none" stroke="midnightblue" d="M80.8349,-455.004C88.2509,-445.486 97.2536,-434.44 106,-425 122.463,-407.232 143.52,-388.367 155.81,-377.698"/>
<polygon fill="midnightblue" stroke="midnightblue" points="77.8363,-453.162 74.5232,-463.226 83.3888,-457.425 77.8363,-453.162"/>
</g>
<!-- Node13&#45;&gt;Node12 -->
<g id="edge15" class="edge"><title>Node13&#45;&gt;Node12</title>
<path fill="none" stroke="orange" stroke-dasharray="5,2" d="M92.5695,-596.146C87.0625,-592.494 82.0682,-588.156 78,-583 57.4453,-556.951 59.1234,-515.255 61.7518,-493.594"/>
<polygon fill="orange" stroke="orange" points="91.1732,-599.38 101.586,-601.336 94.6654,-593.314 91.1732,-599.38"/>
<text text-anchor="start" x="78" y="-575" font-family="Helvetica,sans-Serif" font-size="10.00"> &lt; Vector&lt; float, N</text>
<text text-anchor="middle" x="118.5" y="-564" font-family="Helvetica,sans-Serif" font-size="10.00"> &gt;, float, N &gt;</text>
</g>
<!-- Node13&#45;&gt;Node15 -->
<g id="edge20" class="edge"><title>Node13&#45;&gt;Node15</title>
<path fill="none" stroke="orange" stroke-dasharray="5,2" d="M162.067,-590.933C162.193,-581.56 162.46,-570.78 163,-561 163.331,-555.003 163.903,-548.4 164.458,-542.721"/>
<polygon fill="orange" stroke="orange" points="158.565,-591.115 161.975,-601.146 165.565,-591.178 158.565,-591.115"/>
<text text-anchor="middle" x="218" y="-569.5" font-family="Helvetica,sans-Serif" font-size="10.00"> &lt; Vector&lt; T, N &gt;, T, N &gt;</text>
</g>
<!-- Node14 -->
<g id="node14" class="node"><title>Node14</title>
<g id="a_node14"><a xlink:href="../../db/df8/a00076.html" target="_top" xlink:title="mc::Vector\&lt; T, N \&gt;">
<polygon fill="white" stroke="black" points="115.5,-425.5 115.5,-444.5 216.5,-444.5 216.5,-425.5 115.5,-425.5"/>
<text text-anchor="middle" x="166" y="-432.5" font-family="Helvetica,sans-Serif" font-size="10.00">mc::Vector&lt; T, N &gt;</text>
</a>
</g>
</g>
<!-- Node14&#45;&gt;Node11 -->
<g id="edge17" class="edge"><title>Node14&#45;&gt;Node11</title>
<path fill="none" stroke="orange" stroke-dasharray="5,2" d="M166,-415.037C166,-402.67 166,-387.12 166,-377.627"/>
<polygon fill="orange" stroke="orange" points="162.5,-415.234 166,-425.234 169.5,-415.234 162.5,-415.234"/>
<text text-anchor="middle" x="191.5" y="-399" font-family="Helvetica,sans-Serif" font-size="10.00"> &lt; float, 3 &gt;</text>
</g>
<!-- Node15&#45;&gt;Node14 -->
<g id="edge18" class="edge"><title>Node15&#45;&gt;Node14</title>
<path fill="none" stroke="midnightblue" d="M166,-502.275C166,-483.198 166,-457.709 166,-444.596"/>
<polygon fill="midnightblue" stroke="midnightblue" points="162.5,-502.359 166,-512.359 169.5,-502.359 162.5,-502.359"/>
</g>
</g>
</svg>
        <g id="navigator" transform="translate(0 0)" fill="#404254">
                <rect fill="#f2f5e9" fill-opacity="0.5" stroke="#606060" stroke-width=".5" x="0" y="0" width="60" height="60"/>
                <use id="zoomplus" xlink:href="#zoomPlus" x="17" y="9" onmousedown="handleZoom(evt,'in')"/>
                <use id="zoomminus" xlink:href="#zoomMin" x="42" y="9" onmousedown="handleZoom(evt,'out')"/>
                <use id="reset" xlink:href="#resetDef" x="30" y="36" onmousedown="handleReset()"/>
                <g id="arrowUp" xlink:href="#dirArrow" transform="translate(30 24)" onmousedown="handlePan(0,-1)">
                  <use xlink:href="#rim" fill="#404040">
                        <set attributeName="fill" to="#808080" begin="arrowUp.mouseover" end="arrowUp.mouseout"/>
                  </use>
                  <path fill="none" stroke="white" stroke-width="1.5" d="M0,-3.0v7 M-2.5,-0.5L0,-3.0L2.5,-0.5"/>
                </g>
                <g id="arrowRight" xlink:href="#dirArrow" transform="rotate(90) translate(36 -43)" onmousedown="handlePan(1,0)">
                  <use xlink:href="#rim" fill="#404040">
                        <set attributeName="fill" to="#808080" begin="arrowRight.mouseover" end="arrowRight.mouseout"/>
                  </use>
                  <path fill="none" stroke="white" stroke-width="1.5" d="M0,-3.0v7 M-2.5,-0.5L0,-3.0L2.5,-0.5"/>
                </g>
                <g id="arrowDown" xlink:href="#dirArrow" transform="rotate(180) translate(-30 -48)" onmousedown="handlePan(0,1)">
                  <use xlink:href="#rim" fill="#404040">
                        <set attributeName="fill" to="#808080" begin="arrowDown.mouseover" end="arrowDown.mouseout"/>
                  </use>
                  <path fill="none" stroke="white" stroke-width="1.5" d="M0,-3.0v7 M-2.5,-0.5L0,-3.0L2.5,-0.5"/>
                </g>
                <g id="arrowLeft" xlink:href="#dirArrow" transform="rotate(270) translate(-36 17)" onmousedown="handlePan(-1,0)">
                  <use xlink:href="#rim" fill="#404040">
                        <set attributeName="fill" to="#808080" begin="arrowLeft.mouseover" end="arrowLeft.mouseout"/>
                  </use>
                  <path fill="none" stroke="white" stroke-width="1.5" d="M0,-3.0v7 M-2.5,-0.5L0,-3.0L2.5,-0.5"/>
                </g>
        </g>
        <svg viewBox="0 0 15 15" width="100%" height="30px" preserveAspectRatio="xMaxYMin meet">
         <g id="arrow_out" transform="scale(0.3 0.3)">
          <a xlink:href="a00307_org.svg" target="_base">
           <rect id="button" ry="5" rx="5" y="6" x="6" height="38" width="38"
                fill="#f2f5e9" fill-opacity="0.5" stroke="#606060" stroke-width="1.0"/>
           <path id="arrow"
             d="M 11.500037,31.436501 C 11.940474,20.09759 22.043105,11.32322 32.158766,21.979434 L 37.068811,17.246167 C 37.068811,17.246167 37.088388,32 37.088388,32 L 22.160133,31.978069 C 22.160133,31.978069 26.997745,27.140456 26.997745,27.140456 C 18.528582,18.264221 13.291696,25.230495 11.500037,31.436501 z"
             style="fill:#404040;"/>
          </a>
         </g>
        </svg>
</svg>
