<?xml version="1.0" encoding="UTF-8" standalone="no"?>
<!DOCTYPE svg PUBLIC "-//W3C//DTD SVG 1.1//EN"
 "http://www.w3.org/Graphics/SVG/1.1/DTD/svg11.dtd">
<!-- Generated by graphviz version 2.38.0 (20140413.2041)
 -->
<!-- Title: mc::gfx::ogl::Buffer Pages: 1 -->
<svg width="424pt" height="268pt"
 viewBox="0.00 0.00 424.00 268.00" xmlns="http://www.w3.org/2000/svg" xmlns:xlink="http://www.w3.org/1999/xlink">
<g id="graph0" class="graph" transform="scale(1 1) rotate(0) translate(4 264)">
<title>mc::gfx::ogl::Buffer</title>
<polygon fill="white" stroke="none" points="-4,4 -4,-264 420,-264 420,4 -4,4"/>
<!-- Node1 -->
<g id="node1" class="node"><title>Node1</title>
<polygon fill="#bfbfbf" stroke="black" points="138,-126.5 138,-145.5 236,-145.5 236,-126.5 138,-126.5"/>
<text text-anchor="middle" x="187" y="-133.5" font-family="Helvetica,sans-Serif" font-size="10.00">mc::gfx::ogl::Buffer</text>
</g>
<!-- Node3 -->
<g id="node3" class="node"><title>Node3</title>
<g id="a_node3"><a xlink:href="../../da/d45/a00011.html" target="_top" xlink:title="Special buffer with no extra semantics to be used as a proxy in copying. ">
<polygon fill="white" stroke="black" points="272.5,-240.5 272.5,-259.5 415.5,-259.5 415.5,-240.5 272.5,-240.5"/>
<text text-anchor="middle" x="344" y="-247.5" font-family="Helvetica,sans-Serif" font-size="10.00">mc::gfx::ogl::CopyReadBuffer</text>
</a>
</g>
</g>
<!-- Node1&#45;&gt;Node3 -->
<g id="edge2" class="edge"><title>Node1&#45;&gt;Node3</title>
<path fill="none" stroke="midnightblue" d="M199.329,-154.345C213.617,-175.932 240.199,-211.322 272,-231 278.293,-234.894 285.38,-237.999 292.576,-240.473"/>
<polygon fill="midnightblue" stroke="midnightblue" points="202.166,-152.285 193.817,-145.763 196.277,-156.069 202.166,-152.285"/>
</g>
<!-- Node4 -->
<g id="node4" class="node"><title>Node4</title>
<g id="a_node4"><a xlink:href="../../df/d86/a00012.html" target="_top" xlink:title="Special buffer with no extra semantics to be used as a proxy in copying. ">
<polygon fill="white" stroke="black" points="272,-202.5 272,-221.5 416,-221.5 416,-202.5 272,-202.5"/>
<text text-anchor="middle" x="344" y="-209.5" font-family="Helvetica,sans-Serif" font-size="10.00">mc::gfx::ogl::CopyWriteBuffer</text>
</a>
</g>
</g>
<!-- Node1&#45;&gt;Node4 -->
<g id="edge3" class="edge"><title>Node1&#45;&gt;Node4</title>
<path fill="none" stroke="midnightblue" d="M207.685,-152.172C224.023,-164.878 248.334,-182.179 272,-193 280.239,-196.767 289.37,-199.906 298.263,-202.476"/>
<polygon fill="midnightblue" stroke="midnightblue" points="209.49,-149.136 199.483,-145.657 205.135,-154.617 209.49,-149.136"/>
</g>
<!-- Node5 -->
<g id="node5" class="node"><title>Node5</title>
<g id="a_node5"><a xlink:href="../../d7/dd4/a00013.html" target="_top" xlink:title="Stores element indices to save vertex data. ">
<polygon fill="white" stroke="black" points="277,-164.5 277,-183.5 411,-183.5 411,-164.5 277,-164.5"/>
<text text-anchor="middle" x="344" y="-171.5" font-family="Helvetica,sans-Serif" font-size="10.00">mc::gfx::ogl::ElementBuffer</text>
</a>
</g>
</g>
<!-- Node1&#45;&gt;Node5 -->
<g id="edge4" class="edge"><title>Node1&#45;&gt;Node5</title>
<path fill="none" stroke="midnightblue" d="M237.111,-148.04C258.765,-153.349 283.85,-159.499 304.168,-164.48"/>
<polygon fill="midnightblue" stroke="midnightblue" points="237.659,-144.571 227.113,-145.589 235.992,-151.37 237.659,-144.571"/>
</g>
<!-- Node6 -->
<g id="node6" class="node"><title>Node6</title>
<g id="a_node6"><a xlink:href="../../dc/d3c/a00028.html" target="_top" xlink:title="Special buffer that excels at asynchronous pixel transfer operations. ">
<polygon fill="white" stroke="black" points="272.5,-126.5 272.5,-145.5 415.5,-145.5 415.5,-126.5 272.5,-126.5"/>
<text text-anchor="middle" x="344" y="-133.5" font-family="Helvetica,sans-Serif" font-size="10.00">mc::gfx::ogl::PixelPackBuffer</text>
</a>
</g>
</g>
<!-- Node1&#45;&gt;Node6 -->
<g id="edge5" class="edge"><title>Node1&#45;&gt;Node6</title>
<path fill="none" stroke="midnightblue" d="M246.356,-136C254.846,-136 263.662,-136 272.362,-136"/>
<polygon fill="midnightblue" stroke="midnightblue" points="246.193,-132.5 236.193,-136 246.193,-139.5 246.193,-132.5"/>
</g>
<!-- Node7 -->
<g id="node7" class="node"><title>Node7</title>
<g id="a_node7"><a xlink:href="../../d5/d16/a00029.html" target="_top" xlink:title="Special buffer that excels at asynchronous pixel transfer operations. ">
<polygon fill="white" stroke="black" points="280,-77 280,-107 408,-107 408,-77 280,-77"/>
<text text-anchor="start" x="288" y="-95" font-family="Helvetica,sans-Serif" font-size="10.00">mc::gfx::ogl::PixelUnpack</text>
<text text-anchor="middle" x="344" y="-84" font-family="Helvetica,sans-Serif" font-size="10.00">Buffer</text>
</a>
</g>
</g>
<!-- Node1&#45;&gt;Node7 -->
<g id="edge6" class="edge"><title>Node1&#45;&gt;Node7</title>
<path fill="none" stroke="midnightblue" d="M231.371,-123.688C249.54,-118.531 270.836,-112.485 289.929,-107.065"/>
<polygon fill="midnightblue" stroke="midnightblue" points="230.297,-120.355 221.633,-126.453 232.208,-127.089 230.297,-120.355"/>
</g>
<!-- Node8 -->
<g id="node8" class="node"><title>Node8</title>
<g id="a_node8"><a xlink:href="../../dd/d32/a00041.html" target="_top" xlink:title="Stores uniform data for a shader in the form of a buffer. ">
<polygon fill="white" stroke="black" points="278.5,-38.5 278.5,-57.5 409.5,-57.5 409.5,-38.5 278.5,-38.5"/>
<text text-anchor="middle" x="344" y="-45.5" font-family="Helvetica,sans-Serif" font-size="10.00">mc::gfx::ogl::UniformBuffer</text>
</a>
</g>
</g>
<!-- Node1&#45;&gt;Node8 -->
<g id="edge7" class="edge"><title>Node1&#45;&gt;Node8</title>
<path fill="none" stroke="midnightblue" d="M204.241,-119.005C220.124,-103.333 245.697,-80.5128 272,-67 279.491,-63.1516 287.839,-60.0247 296.103,-57.503"/>
<polygon fill="midnightblue" stroke="midnightblue" points="201.41,-116.891 196.866,-126.462 206.387,-121.813 201.41,-116.891"/>
</g>
<!-- Node9 -->
<g id="node9" class="node"><title>Node9</title>
<g id="a_node9"><a xlink:href="../../d5/df9/a00044.html" target="_top" xlink:title="Stores vertex data for a `VertexArray. ">
<polygon fill="white" stroke="black" points="280.5,-0.5 280.5,-19.5 407.5,-19.5 407.5,-0.5 280.5,-0.5"/>
<text text-anchor="middle" x="344" y="-7.5" font-family="Helvetica,sans-Serif" font-size="10.00">mc::gfx::ogl::VertexBuffer</text>
</a>
</g>
</g>
<!-- Node1&#45;&gt;Node9 -->
<g id="edge8" class="edge"><title>Node1&#45;&gt;Node9</title>
<path fill="none" stroke="midnightblue" d="M197.569,-117.44C210.948,-93.361 237.525,-51.7529 272,-29 277.857,-25.1342 284.475,-22.0525 291.256,-19.5964"/>
<polygon fill="midnightblue" stroke="midnightblue" points="194.459,-115.834 192.805,-126.299 200.624,-119.149 194.459,-115.834"/>
</g>
<!-- Node2 -->
<g id="node2" class="node"><title>Node2</title>
<g id="a_node2"><a xlink:href="../../d0/d33/a00027.html" target="_top" xlink:title="Represents a OpenGL object in memory. ">
<polygon fill="white" stroke="black" points="0,-126.5 0,-145.5 102,-145.5 102,-126.5 0,-126.5"/>
<text text-anchor="middle" x="51" y="-133.5" font-family="Helvetica,sans-Serif" font-size="10.00">mc::gfx::ogl::Object</text>
</a>
</g>
</g>
<!-- Node2&#45;&gt;Node1 -->
<g id="edge1" class="edge"><title>Node2&#45;&gt;Node1</title>
<path fill="none" stroke="midnightblue" d="M112.467,-136C120.906,-136 129.485,-136 137.661,-136"/>
<polygon fill="midnightblue" stroke="midnightblue" points="112.278,-132.5 102.278,-136 112.278,-139.5 112.278,-132.5"/>
</g>
</g>
</svg>
