<?xml version="1.0" encoding="UTF-8" standalone="no"?>
<!DOCTYPE svg PUBLIC "-//W3C//DTD SVG 1.1//EN"
 "http://www.w3.org/Graphics/SVG/1.1/DTD/svg11.dtd">
<!-- Generated by graphviz version 2.38.0 (20140413.2041)
 -->
<!-- Title: mc::Bindable Pages: 1 -->
<!--zoomable 408 -->
<svg id="main" version="1.1" xmlns="http://www.w3.org/2000/svg" xmlns:xlink="http://www.w3.org/1999/xlink" xml:space="preserve" onload="init(evt)">
<style type="text/css"><![CDATA[
.edge:hover path { stroke: red; }
.edge:hover polygon { stroke: red; fill: red; }
]]></style>
<script type="text/javascript"><![CDATA[
var edges = document.getElementsByTagName('g');
if (edges && edges.length) {
  for (var i=0;i<edges.length;i++) {
    if (edges[i].id.substr(0,4)=='edge') {
      edges[i].setAttribute('class','edge');
    }
  }
}
]]></script>
        <defs>
                <circle id="rim" cx="0" cy="0" r="7"/>
                <circle id="rim2" cx="0" cy="0" r="3.5"/>
                <g id="zoomPlus">
                        <use xlink:href="#rim" fill="#404040">
                                <set attributeName="fill" to="#808080" begin="zoomplus.mouseover" end="zoomplus.mouseout"/>
                        </use>
                        <path d="M-4,0h8M0,-4v8" fill="none" stroke="white" stroke-width="1.5" pointer-events="none"/>
                </g>
                <g id="zoomMin">
                        <use xlink:href="#rim" fill="#404040">
                                <set attributeName="fill" to="#808080" begin="zoomminus.mouseover" end="zoomminus.mouseout"/>
                        </use>
                        <path d="M-4,0h8" fill="none" stroke="white" stroke-width="1.5" pointer-events="none"/>
                </g>
                <g id="dirArrow">
                        <path fill="none" stroke="white" stroke-width="1.5" d="M0,-3.0v7 M-2.5,-0.5L0,-3.0L2.5,-0.5"/>
                </g>
               <g id="resetDef">
                       <use xlink:href="#rim2" fill="#404040">
                               <set attributeName="fill" to="#808080" begin="reset.mouseover" end="reset.mouseout"/>
                       </use>
               </g>
        </defs>

<script type="text/javascript">
var viewWidth = 580;
var viewHeight = 408;
var sectionId = 'dynsection-0';
</script>
<script xlink:href="../../svgpan.js"/>
<svg id="graph" class="graph">
<g id="viewport">
<title>mc::Bindable</title>
<polygon fill="white" stroke="none" points="-4,4 -4,-404 576,-404 576,4 -4,4"/>
<!-- Node1 -->
<g id="node1" class="node"><title>Node1</title>
<polygon fill="#bfbfbf" stroke="black" points="0,-76.5 0,-95.5 74,-95.5 74,-76.5 0,-76.5"/>
<text text-anchor="middle" x="37" y="-83.5" font-family="Helvetica,sans-Serif" font-size="10.00">mc::Bindable</text>
</g>
<!-- Node2 -->
<g id="node2" class="node"><title>Node2</title>
<g id="a_node2"><a xlink:href="../../d6/d97/a00045.html" target="_top" xlink:title="Represents a OpenGL object in memory. ">
<polygon fill="white" stroke="black" points="111.5,-133.5 111.5,-152.5 213.5,-152.5 213.5,-133.5 111.5,-133.5"/>
<text text-anchor="middle" x="162.5" y="-140.5" font-family="Helvetica,sans-Serif" font-size="10.00">mc::gfx::ogl::Object</text>
</a>
</g>
</g>
<!-- Node1&#45;&gt;Node2 -->
<g id="edge1" class="edge"><title>Node1&#45;&gt;Node2</title>
<path fill="none" stroke="midnightblue" d="M67.8076,-99.7574C90.3725,-110.172 120.79,-124.211 140.761,-133.428"/>
<polygon fill="midnightblue" stroke="midnightblue" points="69.2175,-96.5533 58.6711,-95.5405 66.284,-102.909 69.2175,-96.5533"/>
</g>
<!-- Node20 -->
<g id="node20" class="node"><title>Node20</title>
<g id="a_node20"><a xlink:href="../../d0/d89/a00071.html" target="_top" xlink:title="mc::gfx::Texture">
<polygon fill="white" stroke="black" points="119,-76.5 119,-95.5 206,-95.5 206,-76.5 119,-76.5"/>
<text text-anchor="middle" x="162.5" y="-83.5" font-family="Helvetica,sans-Serif" font-size="10.00">mc::gfx::Texture</text>
</a>
</g>
</g>
<!-- Node1&#45;&gt;Node20 -->
<g id="edge19" class="edge"><title>Node1&#45;&gt;Node20</title>
<path fill="none" stroke="midnightblue" d="M84.1689,-86C95.463,-86 107.501,-86 118.633,-86"/>
<polygon fill="midnightblue" stroke="midnightblue" points="84.0533,-82.5001 74.0533,-86 84.0533,-89.5001 84.0533,-82.5001"/>
</g>
<!-- Node21 -->
<g id="node21" class="node"><title>Node21</title>
<g id="a_node21"><a xlink:href="../../d1/d6e/a00073.html" target="_top" xlink:title="mc::gfx::TextureImpl">
<polygon fill="white" stroke="black" points="110,-0.5 110,-19.5 215,-19.5 215,-0.5 110,-0.5"/>
<text text-anchor="middle" x="162.5" y="-7.5" font-family="Helvetica,sans-Serif" font-size="10.00">mc::gfx::TextureImpl</text>
</a>
</g>
</g>
<!-- Node1&#45;&gt;Node21 -->
<g id="edge20" class="edge"><title>Node1&#45;&gt;Node21</title>
<path fill="none" stroke="midnightblue" d="M62.4673,-70.9432C87.2993,-55.662 124.988,-32.4689 145.986,-19.5473"/>
<polygon fill="midnightblue" stroke="midnightblue" points="60.3236,-68.1527 53.6414,-76.3745 63.9923,-74.1143 60.3236,-68.1527"/>
</g>
<!-- Node3 -->
<g id="node3" class="node"><title>Node3</title>
<g id="a_node3"><a xlink:href="../../df/d86/a00012.html" target="_top" xlink:title="Represents a sslBuffer of memory in the GPU. ">
<polygon fill="white" stroke="black" points="272.5,-247.5 272.5,-266.5 370.5,-266.5 370.5,-247.5 272.5,-247.5"/>
<text text-anchor="middle" x="321.5" y="-254.5" font-family="Helvetica,sans-Serif" font-size="10.00">mc::gfx::ogl::Buffer</text>
</a>
</g>
</g>
<!-- Node2&#45;&gt;Node3 -->
<g id="edge2" class="edge"><title>Node2&#45;&gt;Node3</title>
<path fill="none" stroke="midnightblue" d="M175.299,-161.014C190.331,-182.533 218.317,-218.111 251,-238 257.518,-241.967 264.876,-245.122 272.304,-247.627"/>
<polygon fill="midnightblue" stroke="midnightblue" points="178.191,-159.042 169.674,-152.74 172.401,-162.977 178.191,-159.042"/>
</g>
<!-- Node11 -->
<g id="node11" class="node"><title>Node11</title>
<g id="a_node11"><a xlink:href="../../d0/d33/a00027.html" target="_top" xlink:title="Represents an OpenGL Framebuffer Object which allows rendering to a non&#45;screen location. ">
<polygon fill="white" stroke="black" points="258.5,-209.5 258.5,-228.5 384.5,-228.5 384.5,-209.5 258.5,-209.5"/>
<text text-anchor="middle" x="321.5" y="-216.5" font-family="Helvetica,sans-Serif" font-size="10.00">mc::gfx::ogl::FrameBuffer</text>
</a>
</g>
</g>
<!-- Node2&#45;&gt;Node11 -->
<g id="edge10" class="edge"><title>Node2&#45;&gt;Node11</title>
<path fill="none" stroke="midnightblue" d="M183.657,-158.743C200.751,-171.434 226.354,-188.931 251,-200 259.33,-203.741 268.56,-206.894 277.501,-209.489"/>
<polygon fill="midnightblue" stroke="midnightblue" points="185.63,-155.847 175.544,-152.604 181.407,-161.429 185.63,-155.847"/>
</g>
<!-- Node12 -->
<g id="node12" class="node"><title>Node12</title>
<g id="a_node12"><a xlink:href="../../d7/df7/a00058.html" target="_top" xlink:title="Special object that is used for asynchronous queries of information from the GPU. ...">
<polygon fill="white" stroke="black" points="257.5,-171.5 257.5,-190.5 385.5,-190.5 385.5,-171.5 257.5,-171.5"/>
<text text-anchor="middle" x="321.5" y="-178.5" font-family="Helvetica,sans-Serif" font-size="10.00">mc::gfx::ogl::QueryObject</text>
</a>
</g>
</g>
<!-- Node2&#45;&gt;Node12 -->
<g id="edge11" class="edge"><title>Node2&#45;&gt;Node12</title>
<path fill="none" stroke="midnightblue" d="M212.947,-154.968C234.948,-160.293 260.494,-166.476 281.167,-171.48"/>
<polygon fill="midnightblue" stroke="midnightblue" points="213.66,-151.54 203.118,-152.589 212.014,-158.343 213.66,-151.54"/>
</g>
<!-- Node13 -->
<g id="node13" class="node"><title>Node13</title>
<g id="a_node13"><a xlink:href="../../d3/d8b/a00059.html" target="_top" xlink:title="Represents a render buffer for use with a `FrameBuffer. ">
<polygon fill="white" stroke="black" points="257,-133.5 257,-152.5 386,-152.5 386,-133.5 257,-133.5"/>
<text text-anchor="middle" x="321.5" y="-140.5" font-family="Helvetica,sans-Serif" font-size="10.00">mc::gfx::ogl::RenderBuffer</text>
</a>
</g>
</g>
<!-- Node2&#45;&gt;Node13 -->
<g id="edge12" class="edge"><title>Node2&#45;&gt;Node13</title>
<path fill="none" stroke="midnightblue" d="M223.79,-143C234.597,-143 245.891,-143 256.79,-143"/>
<polygon fill="midnightblue" stroke="midnightblue" points="223.607,-139.5 213.607,-143 223.607,-146.5 223.607,-139.5"/>
</g>
<!-- Node14 -->
<g id="node14" class="node"><title>Node14</title>
<g id="a_node14"><a xlink:href="../../d1/d6f/a00063.html" target="_top" xlink:title="Represents a shader object in OpenGL. ">
<polygon fill="white" stroke="black" points="269.5,-95.5 269.5,-114.5 373.5,-114.5 373.5,-95.5 269.5,-95.5"/>
<text text-anchor="middle" x="321.5" y="-102.5" font-family="Helvetica,sans-Serif" font-size="10.00">mc::gfx::ogl::Shader</text>
</a>
</g>
</g>
<!-- Node2&#45;&gt;Node14 -->
<g id="edge13" class="edge"><title>Node2&#45;&gt;Node14</title>
<path fill="none" stroke="midnightblue" d="M212.947,-131.032C234.948,-125.707 260.494,-119.524 281.167,-114.52"/>
<polygon fill="midnightblue" stroke="midnightblue" points="212.014,-127.657 203.118,-133.411 213.66,-134.46 212.014,-127.657"/>
</g>
<!-- Node15 -->
<g id="node15" class="node"><title>Node15</title>
<g id="a_node15"><a xlink:href="../../df/d5f/a00064.html" target="_top" xlink:title="mc::gfx::ogl::ShaderProgram">
<polygon fill="white" stroke="black" points="251,-57.5 251,-76.5 392,-76.5 392,-57.5 251,-57.5"/>
<text text-anchor="middle" x="321.5" y="-64.5" font-family="Helvetica,sans-Serif" font-size="10.00">mc::gfx::ogl::ShaderProgram</text>
</a>
</g>
</g>
<!-- Node2&#45;&gt;Node15 -->
<g id="edge14" class="edge"><title>Node2&#45;&gt;Node15</title>
<path fill="none" stroke="midnightblue" d="M183.657,-127.257C200.751,-114.566 226.354,-97.0691 251,-86 259.33,-82.2589 268.56,-79.1065 277.501,-76.5111"/>
<polygon fill="midnightblue" stroke="midnightblue" points="181.407,-124.571 175.544,-133.396 185.63,-130.153 181.407,-124.571"/>
</g>
<!-- Node16 -->
<g id="node16" class="node"><title>Node16</title>
<g id="a_node16"><a xlink:href="../../d6/d2c/a00072.html" target="_top" xlink:title="mc::gfx::ogl::Texture2D">
<polygon fill="white" stroke="black" points="262.5,-19.5 262.5,-38.5 380.5,-38.5 380.5,-19.5 262.5,-19.5"/>
<text text-anchor="middle" x="321.5" y="-26.5" font-family="Helvetica,sans-Serif" font-size="10.00">mc::gfx::ogl::Texture2D</text>
</a>
</g>
</g>
<!-- Node2&#45;&gt;Node16 -->
<g id="edge15" class="edge"><title>Node2&#45;&gt;Node16</title>
<path fill="none" stroke="midnightblue" d="M187.932,-127.774C197.044,-121.407 207.086,-113.509 215,-105 235.407,-83.0604 226.916,-65.8257 251,-48 256.228,-44.1303 262.2,-41.0487 268.398,-38.5948"/>
<polygon fill="midnightblue" stroke="midnightblue" points="185.935,-124.899 179.582,-133.379 189.836,-130.711 185.935,-124.899"/>
</g>
<!-- Node18 -->
<g id="node18" class="node"><title>Node18</title>
<g id="a_node18"><a xlink:href="../../df/d13/a00085.html" target="_top" xlink:title="mc::gfx::ogl::VertexArray">
<polygon fill="white" stroke="black" points="259,-323.5 259,-342.5 384,-342.5 384,-323.5 259,-323.5"/>
<text text-anchor="middle" x="321.5" y="-330.5" font-family="Helvetica,sans-Serif" font-size="10.00">mc::gfx::ogl::VertexArray</text>
</a>
</g>
</g>
<!-- Node2&#45;&gt;Node18 -->
<g id="edge17" class="edge"><title>Node2&#45;&gt;Node18</title>
<path fill="none" stroke="midnightblue" d="M173.474,-161.826C188.27,-188.789 217.879,-239.205 251,-276 268.017,-294.905 291.54,-312.844 306.385,-323.383"/>
<polygon fill="midnightblue" stroke="midnightblue" points="176.385,-159.851 168.551,-152.718 170.227,-163.179 176.385,-159.851"/>
</g>
<!-- Node4 -->
<g id="node4" class="node"><title>Node4</title>
<g id="a_node4"><a xlink:href="../../d4/d51/a00017.html" target="_top" xlink:title="Special sslBuffer with no extra semantics to be used as a proxy in copying. ">
<polygon fill="white" stroke="black" points="428.5,-304.5 428.5,-323.5 571.5,-323.5 571.5,-304.5 428.5,-304.5"/>
<text text-anchor="middle" x="500" y="-311.5" font-family="Helvetica,sans-Serif" font-size="10.00">mc::gfx::ogl::CopyReadBuffer</text>
</a>
</g>
</g>
<!-- Node3&#45;&gt;Node4 -->
<g id="edge3" class="edge"><title>Node3&#45;&gt;Node4</title>
<path fill="none" stroke="midnightblue" d="M356.983,-270.251C377.472,-277.916 404.052,-287.498 428,-295 438.594,-298.319 450.187,-301.576 460.877,-304.431"/>
<polygon fill="midnightblue" stroke="midnightblue" points="358.043,-266.91 347.451,-266.66 355.575,-273.461 358.043,-266.91"/>
</g>
<!-- Node5 -->
<g id="node5" class="node"><title>Node5</title>
<g id="a_node5"><a xlink:href="../../d1/d2b/a00018.html" target="_top" xlink:title="Special sslBuffer with no extra semantics to be used as a proxy in copying. ">
<polygon fill="white" stroke="black" points="428,-266.5 428,-285.5 572,-285.5 572,-266.5 428,-266.5"/>
<text text-anchor="middle" x="500" y="-273.5" font-family="Helvetica,sans-Serif" font-size="10.00">mc::gfx::ogl::CopyWriteBuffer</text>
</a>
</g>
</g>
<!-- Node3&#45;&gt;Node5 -->
<g id="edge4" class="edge"><title>Node3&#45;&gt;Node5</title>
<path fill="none" stroke="midnightblue" d="M380.922,-263.289C395.986,-264.911 412.363,-266.674 427.99,-268.356"/>
<polygon fill="midnightblue" stroke="midnightblue" points="381.047,-259.782 370.729,-262.192 380.297,-266.742 381.047,-259.782"/>
</g>
<!-- Node6 -->
<g id="node6" class="node"><title>Node6</title>
<g id="a_node6"><a xlink:href="../../de/d11/a00021.html" target="_top" xlink:title="Stores element indices to save vertex data. ">
<polygon fill="white" stroke="black" points="433,-228.5 433,-247.5 567,-247.5 567,-228.5 433,-228.5"/>
<text text-anchor="middle" x="500" y="-235.5" font-family="Helvetica,sans-Serif" font-size="10.00">mc::gfx::ogl::ElementBuffer</text>
</a>
</g>
</g>
<!-- Node3&#45;&gt;Node6 -->
<g id="edge5" class="edge"><title>Node3&#45;&gt;Node6</title>
<path fill="none" stroke="midnightblue" d="M380.882,-250.715C397.564,-248.919 415.859,-246.95 432.964,-245.109"/>
<polygon fill="midnightblue" stroke="midnightblue" points="380.297,-247.258 370.729,-251.808 381.047,-254.218 380.297,-247.258"/>
</g>
<!-- Node7 -->
<g id="node7" class="node"><title>Node7</title>
<g id="a_node7"><a xlink:href="../../dc/dee/a00053.html" target="_top" xlink:title="Special buffer that excels at asynchronous pixel transfer operations. ">
<polygon fill="white" stroke="black" points="428.5,-190.5 428.5,-209.5 571.5,-209.5 571.5,-190.5 428.5,-190.5"/>
<text text-anchor="middle" x="500" y="-197.5" font-family="Helvetica,sans-Serif" font-size="10.00">mc::gfx::ogl::PixelPackBuffer</text>
</a>
</g>
</g>
<!-- Node3&#45;&gt;Node7 -->
<g id="edge6" class="edge"><title>Node3&#45;&gt;Node7</title>
<path fill="none" stroke="midnightblue" d="M373.34,-244.493C379.693,-242.524 386.045,-240.353 392,-238 408.826,-231.353 411.156,-225.602 428,-219 437.267,-215.368 447.478,-212.185 457.197,-209.515"/>
<polygon fill="midnightblue" stroke="midnightblue" points="372.018,-241.233 363.414,-247.416 373.996,-247.948 372.018,-241.233"/>
</g>
<!-- Node8 -->
<g id="node8" class="node"><title>Node8</title>
<g id="a_node8"><a xlink:href="../../d1/dea/a00054.html" target="_top" xlink:title="Special buffer that excels at asynchronous pixel transfer operations. ">
<polygon fill="white" stroke="black" points="436,-141 436,-171 564,-171 564,-141 436,-141"/>
<text text-anchor="start" x="444" y="-159" font-family="Helvetica,sans-Serif" font-size="10.00">mc::gfx::ogl::PixelUnpack</text>
<text text-anchor="middle" x="500" y="-148" font-family="Helvetica,sans-Serif" font-size="10.00">Buffer</text>
</a>
</g>
</g>
<!-- Node3&#45;&gt;Node8 -->
<g id="edge7" class="edge"><title>Node3&#45;&gt;Node8</title>
<path fill="none" stroke="midnightblue" d="M380.098,-245.026C384.311,-243.034 388.338,-240.71 392,-238 416.084,-220.174 404.571,-199.677 428,-181 432.803,-177.171 438.235,-173.906 443.904,-171.126"/>
<polygon fill="midnightblue" stroke="midnightblue" points="378.583,-241.864 370.644,-248.88 381.225,-248.346 378.583,-241.864"/>
</g>
<!-- Node9 -->
<g id="node9" class="node"><title>Node9</title>
<g id="a_node9"><a xlink:href="../../d9/da5/a00075.html" target="_top" xlink:title="Stores uniform data for a shader in the form of a sslBuffer. ">
<polygon fill="white" stroke="black" points="434.5,-102.5 434.5,-121.5 565.5,-121.5 565.5,-102.5 434.5,-102.5"/>
<text text-anchor="middle" x="500" y="-109.5" font-family="Helvetica,sans-Serif" font-size="10.00">mc::gfx::ogl::UniformBuffer</text>
</a>
</g>
</g>
<!-- Node3&#45;&gt;Node9 -->
<g id="edge8" class="edge"><title>Node3&#45;&gt;Node9</title>
<path fill="none" stroke="midnightblue" d="M379.942,-246.44C384.333,-244.145 388.435,-241.365 392,-238 428.488,-203.559 391.42,-165.343 428,-131 432.093,-127.157 436.877,-124.074 441.993,-121.603"/>
<polygon fill="midnightblue" stroke="midnightblue" points="378.376,-243.304 370.602,-250.502 381.168,-249.723 378.376,-243.304"/>
</g>
<!-- Node10 -->
<g id="node10" class="node"><title>Node10</title>
<g id="a_node10"><a xlink:href="../../da/d2a/a00086.html" target="_top" xlink:title="Stores vertex data for a `VertexArray. ">
<polygon fill="white" stroke="black" points="436.5,-342.5 436.5,-361.5 563.5,-361.5 563.5,-342.5 436.5,-342.5"/>
<text text-anchor="middle" x="500" y="-349.5" font-family="Helvetica,sans-Serif" font-size="10.00">mc::gfx::ogl::VertexBuffer</text>
</a>
</g>
</g>
<!-- Node3&#45;&gt;Node10 -->
<g id="edge9" class="edge"><title>Node3&#45;&gt;Node10</title>
<path fill="none" stroke="midnightblue" d="M340.761,-273.362C360.816,-290.529 394.627,-317.171 428,-333 435.955,-336.773 444.78,-339.893 453.427,-342.437"/>
<polygon fill="midnightblue" stroke="midnightblue" points="342.888,-270.574 333.049,-266.645 338.29,-275.852 342.888,-270.574"/>
</g>
<!-- Node17 -->
<g id="node17" class="node"><title>Node17</title>
<g id="a_node17"><a xlink:href="../../d5/de0/a00050.html" target="_top" xlink:title="mc::gfx::ogl::OGL33Texture">
<polygon fill="white" stroke="black" points="431.5,-0.5 431.5,-19.5 568.5,-19.5 568.5,-0.5 431.5,-0.5"/>
<text text-anchor="middle" x="500" y="-7.5" font-family="Helvetica,sans-Serif" font-size="10.00">mc::gfx::ogl::OGL33Texture</text>
</a>
</g>
</g>
<!-- Node16&#45;&gt;Node17 -->
<g id="edge16" class="edge"><title>Node16&#45;&gt;Node17</title>
<path fill="none" stroke="#8b1a1a" d="M390.8,-21.6476C404.091,-20.2168 418.02,-18.7174 431.292,-17.2887"/>
<polygon fill="#8b1a1a" stroke="#8b1a1a" points="390.35,-18.1757 380.782,-22.726 391.099,-25.1355 390.35,-18.1757"/>
</g>
<!-- Node19 -->
<g id="node19" class="node"><title>Node19</title>
<g id="a_node19"><a xlink:href="../../d6/d2d/a00047.html" target="_top" xlink:title="mc::gfx::ogl::OGL33Model">
<polygon fill="white" stroke="black" points="434.5,-380.5 434.5,-399.5 565.5,-399.5 565.5,-380.5 434.5,-380.5"/>
<text text-anchor="middle" x="500" y="-387.5" font-family="Helvetica,sans-Serif" font-size="10.00">mc::gfx::ogl::OGL33Model</text>
</a>
</g>
</g>
<!-- Node18&#45;&gt;Node19 -->
<g id="edge18" class="edge"><title>Node18&#45;&gt;Node19</title>
<path fill="none" stroke="#8b1a1a" d="M356.983,-346.251C377.472,-353.916 404.052,-363.498 428,-371 438.594,-374.319 450.187,-377.576 460.877,-380.431"/>
<polygon fill="#8b1a1a" stroke="#8b1a1a" points="358.043,-342.91 347.451,-342.66 355.575,-349.461 358.043,-342.91"/>
</g>
<!-- Node21&#45;&gt;Node17 -->
<g id="edge21" class="edge"><title>Node21&#45;&gt;Node17</title>
<path fill="none" stroke="midnightblue" d="M225.378,-10C283.762,-10 371.084,-10 431.301,-10"/>
<polygon fill="midnightblue" stroke="midnightblue" points="225.187,-6.5001 215.187,-10 225.187,-13.5001 225.187,-6.5001"/>
</g>
</g>
</svg>
        <g id="navigator" transform="translate(0 0)" fill="#404254">
                <rect fill="#f2f5e9" fill-opacity="0.5" stroke="#606060" stroke-width=".5" x="0" y="0" width="60" height="60"/>
                <use id="zoomplus" xlink:href="#zoomPlus" x="17" y="9" onmousedown="handleZoom(evt,'in')"/>
                <use id="zoomminus" xlink:href="#zoomMin" x="42" y="9" onmousedown="handleZoom(evt,'out')"/>
                <use id="reset" xlink:href="#resetDef" x="30" y="36" onmousedown="handleReset()"/>
                <g id="arrowUp" xlink:href="#dirArrow" transform="translate(30 24)" onmousedown="handlePan(0,-1)">
                  <use xlink:href="#rim" fill="#404040">
                        <set attributeName="fill" to="#808080" begin="arrowUp.mouseover" end="arrowUp.mouseout"/>
                  </use>
                  <path fill="none" stroke="white" stroke-width="1.5" d="M0,-3.0v7 M-2.5,-0.5L0,-3.0L2.5,-0.5"/>
                </g>
                <g id="arrowRight" xlink:href="#dirArrow" transform="rotate(90) translate(36 -43)" onmousedown="handlePan(1,0)">
                  <use xlink:href="#rim" fill="#404040">
                        <set attributeName="fill" to="#808080" begin="arrowRight.mouseover" end="arrowRight.mouseout"/>
                  </use>
                  <path fill="none" stroke="white" stroke-width="1.5" d="M0,-3.0v7 M-2.5,-0.5L0,-3.0L2.5,-0.5"/>
                </g>
                <g id="arrowDown" xlink:href="#dirArrow" transform="rotate(180) translate(-30 -48)" onmousedown="handlePan(0,1)">
                  <use xlink:href="#rim" fill="#404040">
                        <set attributeName="fill" to="#808080" begin="arrowDown.mouseover" end="arrowDown.mouseout"/>
                  </use>
                  <path fill="none" stroke="white" stroke-width="1.5" d="M0,-3.0v7 M-2.5,-0.5L0,-3.0L2.5,-0.5"/>
                </g>
                <g id="arrowLeft" xlink:href="#dirArrow" transform="rotate(270) translate(-36 17)" onmousedown="handlePan(-1,0)">
                  <use xlink:href="#rim" fill="#404040">
                        <set attributeName="fill" to="#808080" begin="arrowLeft.mouseover" end="arrowLeft.mouseout"/>
                  </use>
                  <path fill="none" stroke="white" stroke-width="1.5" d="M0,-3.0v7 M-2.5,-0.5L0,-3.0L2.5,-0.5"/>
                </g>
        </g>
        <svg viewBox="0 0 15 15" width="100%" height="30px" preserveAspectRatio="xMaxYMin meet">
         <g id="arrow_out" transform="scale(0.3 0.3)">
          <a xlink:href="a00147_org.svg" target="_base">
           <rect id="button" ry="5" rx="5" y="6" x="6" height="38" width="38"
                fill="#f2f5e9" fill-opacity="0.5" stroke="#606060" stroke-width="1.0"/>
           <path id="arrow"
             d="M 11.500037,31.436501 C 11.940474,20.09759 22.043105,11.32322 32.158766,21.979434 L 37.068811,17.246167 C 37.068811,17.246167 37.088388,32 37.088388,32 L 22.160133,31.978069 C 22.160133,31.978069 26.997745,27.140456 26.997745,27.140456 C 18.528582,18.264221 13.291696,25.230495 11.500037,31.436501 z"
             style="fill:#404040;"/>
          </a>
         </g>
        </svg>
</svg>
