<?xml version="1.0" encoding="UTF-8" standalone="no"?>
<!DOCTYPE svg PUBLIC "-//W3C//DTD SVG 1.1//EN"
 "http://www.w3.org/Graphics/SVG/1.1/DTD/svg11.dtd">
<!-- Generated by graphviz version 2.38.0 (20140413.2041)
 -->
<!-- Title: mc::gfx::Entity2D Pages: 1 -->
<svg width="426pt" height="472pt"
 viewBox="0.00 0.00 426.00 472.00" xmlns="http://www.w3.org/2000/svg" xmlns:xlink="http://www.w3.org/1999/xlink">
<g id="graph0" class="graph" transform="scale(1 1) rotate(0) translate(4 468)">
<title>mc::gfx::Entity2D</title>
<polygon fill="white" stroke="none" points="-4,4 -4,-468 422,-468 422,4 -4,4"/>
<!-- Node1 -->
<g id="node1" class="node"><title>Node1</title>
<polygon fill="#bfbfbf" stroke="black" points="248.5,-0.5 248.5,-19.5 340.5,-19.5 340.5,-0.5 248.5,-0.5"/>
<text text-anchor="middle" x="294.5" y="-7.5" font-family="Helvetica,sans-Serif" font-size="10.00">mc::gfx::Entity2D</text>
</g>
<!-- Node2 -->
<g id="node2" class="node"><title>Node2</title>
<g id="a_node2"><a xlink:href="../../d3/dfe/a00025.html" target="_top" xlink:title="mc::gfx::GraphicsEntity">
<polygon fill="white" stroke="black" points="150,-73 150,-92 269,-92 269,-73 150,-73"/>
<text text-anchor="middle" x="209.5" y="-80" font-family="Helvetica,sans-Serif" font-size="10.00">mc::gfx::GraphicsEntity</text>
</a>
</g>
</g>
<!-- Node2&#45;&gt;Node1 -->
<g id="edge1" class="edge"><title>Node2&#45;&gt;Node1</title>
<path fill="none" stroke="midnightblue" d="M228.085,-66.085C245.224,-51.8699 270.055,-31.2747 283.992,-19.7154"/>
<polygon fill="midnightblue" stroke="midnightblue" points="225.385,-63.7773 219.923,-72.8553 229.854,-69.1652 225.385,-63.7773"/>
</g>
<!-- Node3 -->
<g id="node3" class="node"><title>Node3</title>
<g id="a_node3"><a xlink:href="../../dd/da2/a00019.html" target="_top" xlink:title="Abstract superclass for all graphical objects. ">
<polygon fill="white" stroke="black" points="139.5,-145.5 139.5,-164.5 219.5,-164.5 219.5,-145.5 139.5,-145.5"/>
<text text-anchor="middle" x="179.5" y="-152.5" font-family="Helvetica,sans-Serif" font-size="10.00">mc::gfx::Entity</text>
</a>
</g>
</g>
<!-- Node3&#45;&gt;Node2 -->
<g id="edge2" class="edge"><title>Node3&#45;&gt;Node2</title>
<path fill="none" stroke="midnightblue" d="M189.953,-136.215C191.567,-133.186 193.146,-130.036 194.5,-127 199.772,-115.181 204.378,-100.901 207.05,-92.0073"/>
<polygon fill="midnightblue" stroke="midnightblue" points="186.751,-134.769 184.903,-145.201 192.853,-138.198 186.751,-134.769"/>
</g>
<!-- Node4 -->
<g id="node4" class="node"><title>Node4</title>
<polygon fill="white" stroke="#bfbfbf" points="29,-67.5 29,-97.5 132,-97.5 132,-67.5 29,-67.5"/>
<text text-anchor="start" x="37" y="-85.5" font-family="Helvetica,sans-Serif" font-size="10.00">std::vector&lt; mc::gfx</text>
<text text-anchor="middle" x="80.5" y="-74.5" font-family="Helvetica,sans-Serif" font-size="10.00">::Entity * &gt;</text>
</g>
<!-- Node3&#45;&gt;Node4 -->
<g id="edge4" class="edge"><title>Node3&#45;&gt;Node4</title>
<path fill="none" stroke="#9a32cd" stroke-dasharray="5,2" d="M129.325,-151.753C111.84,-148.295 93.7894,-141.173 82.5,-127 75.9998,-118.84 75.9265,-106.836 77.2399,-97.505"/>
<polygon fill="#9a32cd" stroke="#9a32cd" points="129.07,-155.257 139.499,-153.39 130.182,-148.345 129.07,-155.257"/>
<text text-anchor="middle" x="104" y="-119" font-family="Helvetica,sans-Serif" font-size="10.00"> elements</text>
</g>
<!-- Node4&#45;&gt;Node3 -->
<g id="edge3" class="edge"><title>Node4&#45;&gt;Node3</title>
<path fill="none" stroke="#9a32cd" stroke-dasharray="5,2" d="M111.32,-103.506C117.394,-107.571 123.685,-111.869 129.5,-116 143.187,-125.725 158.501,-137.501 168.531,-145.341"/>
<polygon fill="#9a32cd" stroke="#9a32cd" points="112.926,-100.371 102.657,-97.7634 109.058,-106.206 112.926,-100.371"/>
<text text-anchor="middle" x="162" y="-119" font-family="Helvetica,sans-Serif" font-size="10.00"> children</text>
</g>
<!-- Node5 -->
<g id="node5" class="node"><title>Node5</title>
<g id="a_node5"><a xlink:title="STL class. ">
<polygon fill="white" stroke="#bfbfbf" points="0,-339.5 0,-358.5 85,-358.5 85,-339.5 0,-339.5"/>
<text text-anchor="middle" x="42.5" y="-346.5" font-family="Helvetica,sans-Serif" font-size="10.00">std::vector&lt; T &gt;</text>
</a>
</g>
</g>
<!-- Node5&#45;&gt;Node4 -->
<g id="edge5" class="edge"><title>Node5&#45;&gt;Node4</title>
<path fill="none" stroke="orange" stroke-dasharray="5,2" d="M38.1083,-329.29C34.6819,-313.05 30.5,-288.854 30.5,-267.5 30.5,-267.5 30.5,-267.5 30.5,-154 30.5,-131.192 48.127,-110.614 62.4489,-97.6594"/>
<polygon fill="orange" stroke="orange" points="34.7094,-330.13 40.299,-339.13 41.5421,-328.609 34.7094,-330.13"/>
<text text-anchor="middle" x="76.5" y="-219.5" font-family="Helvetica,sans-Serif" font-size="10.00"> &lt; mc::gfx::Entity * &gt;</text>
</g>
<!-- Node6 -->
<g id="node6" class="node"><title>Node6</title>
<polygon fill="white" stroke="#bfbfbf" points="67,-444.5 67,-463.5 96,-463.5 96,-444.5 67,-444.5"/>
<text text-anchor="middle" x="81.5" y="-451.5" font-family="Helvetica,sans-Serif" font-size="10.00">T</text>
</g>
<!-- Node6&#45;&gt;Node5 -->
<g id="edge6" class="edge"><title>Node6&#45;&gt;Node5</title>
<path fill="none" stroke="#9a32cd" stroke-dasharray="5,2" d="M62.5982,-437.296C59.4621,-433.875 56.5643,-430.054 54.5,-426 43.1043,-403.622 41.9744,-373.124 42.1781,-358.501"/>
<polygon fill="#9a32cd" stroke="#9a32cd" points="60.4329,-440.069 70.068,-444.475 65.2836,-435.022 60.4329,-440.069"/>
<text text-anchor="middle" x="76" y="-418" font-family="Helvetica,sans-Serif" font-size="10.00"> elements</text>
</g>
<!-- Node9 -->
<g id="node9" class="node"><title>Node9</title>
<g id="a_node9"><a xlink:href="../../d9/da5/a00075.html" target="_top" xlink:title="1&#45;dimensional vector class that supports mathmatical operations. ">
<polygon fill="white" stroke="black" points="76,-377.5 76,-396.5 177,-396.5 177,-377.5 76,-377.5"/>
<text text-anchor="middle" x="126.5" y="-384.5" font-family="Helvetica,sans-Serif" font-size="10.00">mc::Vector&lt; T, N &gt;</text>
</a>
</g>
</g>
<!-- Node6&#45;&gt;Node9 -->
<g id="edge10" class="edge"><title>Node6&#45;&gt;Node9</title>
<path fill="none" stroke="#9a32cd" stroke-dasharray="5,2" d="M93.3359,-435.904C102.08,-423.273 113.62,-406.604 120.527,-396.627"/>
<polygon fill="#9a32cd" stroke="#9a32cd" points="90.3834,-434.02 87.5689,-444.234 96.1387,-438.004 90.3834,-434.02"/>
<text text-anchor="middle" x="125.5" y="-418" font-family="Helvetica,sans-Serif" font-size="10.00"> content</text>
</g>
<!-- Node7 -->
<g id="node7" class="node"><title>Node7</title>
<g id="a_node7"><a xlink:href="../../d1/d6e/a00073.html" target="_top" xlink:title="Matrix&#45;based class that allows for the easy creation and management of transformation matrices...">
<polygon fill="white" stroke="black" points="140.5,-212.5 140.5,-231.5 246.5,-231.5 246.5,-212.5 140.5,-212.5"/>
<text text-anchor="middle" x="193.5" y="-219.5" font-family="Helvetica,sans-Serif" font-size="10.00">mc::TransformMatrix</text>
</a>
</g>
</g>
<!-- Node7&#45;&gt;Node3 -->
<g id="edge7" class="edge"><title>Node7&#45;&gt;Node3</title>
<path fill="none" stroke="#9a32cd" stroke-dasharray="5,2" d="M189.497,-202.415C186.821,-189.988 183.424,-174.217 181.358,-164.627"/>
<polygon fill="#9a32cd" stroke="#9a32cd" points="186.085,-203.195 191.612,-212.234 192.928,-201.721 186.085,-203.195"/>
<text text-anchor="middle" x="220" y="-186" font-family="Helvetica,sans-Serif" font-size="10.00"> transformation</text>
</g>
<!-- Node8 -->
<g id="node8" class="node"><title>Node8</title>
<g id="a_node8"><a xlink:href="../../d9/da5/a00075.html" target="_top" xlink:title="mc::Vector\&lt; float, 3 \&gt;">
<polygon fill="white" stroke="black" points="78.5,-301.5 78.5,-320.5 190.5,-320.5 190.5,-301.5 78.5,-301.5"/>
<text text-anchor="middle" x="134.5" y="-308.5" font-family="Helvetica,sans-Serif" font-size="10.00">mc::Vector&lt; float, 3 &gt;</text>
</a>
</g>
</g>
<!-- Node8&#45;&gt;Node7 -->
<g id="edge8" class="edge"><title>Node8&#45;&gt;Node7</title>
<path fill="none" stroke="#9a32cd" stroke-dasharray="5,2" d="M146.033,-292.993C158.536,-274.557 177.992,-245.867 187.651,-231.625"/>
<polygon fill="#9a32cd" stroke="#9a32cd" points="143.089,-291.099 140.373,-301.34 148.882,-295.028 143.089,-291.099"/>
<text text-anchor="middle" x="197.5" y="-275" font-family="Helvetica,sans-Serif" font-size="10.00"> rotation</text>
<text text-anchor="middle" x="197.5" y="-264" font-family="Helvetica,sans-Serif" font-size="10.00">scaler</text>
<text text-anchor="middle" x="197.5" y="-253" font-family="Helvetica,sans-Serif" font-size="10.00">translation</text>
</g>
<!-- Node9&#45;&gt;Node8 -->
<g id="edge9" class="edge"><title>Node9&#45;&gt;Node8</title>
<path fill="none" stroke="orange" stroke-dasharray="5,2" d="M128.546,-367.072C130.156,-352.18 132.326,-332.111 133.552,-320.768"/>
<polygon fill="orange" stroke="orange" points="125.044,-366.902 127.449,-377.221 132.004,-367.655 125.044,-366.902"/>
<text text-anchor="middle" x="157" y="-346.5" font-family="Helvetica,sans-Serif" font-size="10.00"> &lt; float, 3 &gt;</text>
</g>
<!-- Node10 -->
<g id="node10" class="node"><title>Node10</title>
<g id="a_node10"><a xlink:href="../../db/db6/a00074.html" target="_top" xlink:title="Stores uniform data for a shader in the form of a sslBuffer. ">
<polygon fill="white" stroke="black" points="287,-73 287,-92 418,-92 418,-73 287,-73"/>
<text text-anchor="middle" x="352.5" y="-80" font-family="Helvetica,sans-Serif" font-size="10.00">mc::gfx::ogl::UniformBuffer</text>
</a>
</g>
</g>
<!-- Node10&#45;&gt;Node1 -->
<g id="edge11" class="edge"><title>Node10&#45;&gt;Node1</title>
<path fill="none" stroke="#9a32cd" stroke-dasharray="5,2" d="M338.841,-64.8971C327.196,-50.7431 310.918,-30.9566 301.67,-19.7154"/>
<polygon fill="#9a32cd" stroke="#9a32cd" points="336.332,-67.3565 345.388,-72.8553 341.738,-62.9092 336.332,-67.3565"/>
<text text-anchor="middle" x="339" y="-41" font-family="Helvetica,sans-Serif" font-size="10.00"> buffer</text>
</g>
<!-- Node11 -->
<g id="node11" class="node"><title>Node11</title>
<g id="a_node11"><a xlink:href="../../da/da0/a00009.html" target="_top" xlink:title="Represents a sslBuffer of memory in the GPU. ">
<polygon fill="white" stroke="black" points="303.5,-145.5 303.5,-164.5 401.5,-164.5 401.5,-145.5 303.5,-145.5"/>
<text text-anchor="middle" x="352.5" y="-152.5" font-family="Helvetica,sans-Serif" font-size="10.00">mc::gfx::ogl::Buffer</text>
</a>
</g>
</g>
<!-- Node11&#45;&gt;Node10 -->
<g id="edge12" class="edge"><title>Node11&#45;&gt;Node10</title>
<path fill="none" stroke="midnightblue" d="M352.5,-134.942C352.5,-121.03 352.5,-102.82 352.5,-92.2154"/>
<polygon fill="midnightblue" stroke="midnightblue" points="349,-135.355 352.5,-145.355 356,-135.355 349,-135.355"/>
</g>
<!-- Node12 -->
<g id="node12" class="node"><title>Node12</title>
<g id="a_node12"><a xlink:href="../../d4/d8c/a00035.html" target="_top" xlink:title="Represents a OpenGL object in memory. ">
<polygon fill="white" stroke="black" points="301.5,-212.5 301.5,-231.5 403.5,-231.5 403.5,-212.5 301.5,-212.5"/>
<text text-anchor="middle" x="352.5" y="-219.5" font-family="Helvetica,sans-Serif" font-size="10.00">mc::gfx::ogl::Object</text>
</a>
</g>
</g>
<!-- Node12&#45;&gt;Node11 -->
<g id="edge13" class="edge"><title>Node12&#45;&gt;Node11</title>
<path fill="none" stroke="midnightblue" d="M352.5,-202.037C352.5,-189.67 352.5,-174.12 352.5,-164.627"/>
<polygon fill="midnightblue" stroke="midnightblue" points="349,-202.234 352.5,-212.234 356,-202.234 349,-202.234"/>
</g>
</g>
</svg>
