<?xml version="1.0" encoding="UTF-8" standalone="no"?>
<!DOCTYPE svg PUBLIC "-//W3C//DTD SVG 1.1//EN"
 "http://www.w3.org/Graphics/SVG/1.1/DTD/svg11.dtd">
<!-- Generated by graphviz version 2.38.0 (20140413.2041)
 -->
<!-- Title: mc::gfx::Text Pages: 1 -->
<!--zoomable 160 -->
<svg id="main" version="1.1" xmlns="http://www.w3.org/2000/svg" xmlns:xlink="http://www.w3.org/1999/xlink" xml:space="preserve" onload="init(evt)">
<style type="text/css"><![CDATA[
.edge:hover path { stroke: red; }
.edge:hover polygon { stroke: red; fill: red; }
]]></style>
<script type="text/javascript"><![CDATA[
var edges = document.getElementsByTagName('g');
if (edges && edges.length) {
  for (var i=0;i<edges.length;i++) {
    if (edges[i].id.substr(0,4)=='edge') {
      edges[i].setAttribute('class','edge');
    }
  }
}
]]></script>
        <defs>
                <circle id="rim" cx="0" cy="0" r="7"/>
                <circle id="rim2" cx="0" cy="0" r="3.5"/>
                <g id="zoomPlus">
                        <use xlink:href="#rim" fill="#404040">
                                <set attributeName="fill" to="#808080" begin="zoomplus.mouseover" end="zoomplus.mouseout"/>
                        </use>
                        <path d="M-4,0h8M0,-4v8" fill="none" stroke="white" stroke-width="1.5" pointer-events="none"/>
                </g>
                <g id="zoomMin">
                        <use xlink:href="#rim" fill="#404040">
                                <set attributeName="fill" to="#808080" begin="zoomminus.mouseover" end="zoomminus.mouseout"/>
                        </use>
                        <path d="M-4,0h8" fill="none" stroke="white" stroke-width="1.5" pointer-events="none"/>
                </g>
                <g id="dirArrow">
                        <path fill="none" stroke="white" stroke-width="1.5" d="M0,-3.0v7 M-2.5,-0.5L0,-3.0L2.5,-0.5"/>
                </g>
               <g id="resetDef">
                       <use xlink:href="#rim2" fill="#404040">
                               <set attributeName="fill" to="#808080" begin="reset.mouseover" end="reset.mouseout"/>
                       </use>
               </g>
        </defs>

<script type="text/javascript">
var viewWidth = 1832;
var viewHeight = 160;
var sectionId = 'dynsection-1';
</script>
<script xlink:href="../../svgpan.js"/>
<svg id="graph" class="graph">
<g id="viewport">
<title>mc::gfx::Text</title>
<polygon fill="white" stroke="none" points="-4,4 -4,-156 1828,-156 1828,4 -4,4"/>
<!-- Node1 -->
<g id="node1" class="node"><title>Node1</title>
<polygon fill="#bfbfbf" stroke="black" points="1750,-19.5 1750,-38.5 1824,-38.5 1824,-19.5 1750,-19.5"/>
<text text-anchor="middle" x="1787" y="-26.5" font-family="Helvetica,sans-Serif" font-size="10.00">mc::gfx::Text</text>
</g>
<!-- Node2 -->
<g id="node2" class="node"><title>Node2</title>
<g id="a_node2"><a xlink:href="../../de/d11/a00021.html" target="_top" xlink:title="mc::gfx::Entity2D">
<polygon fill="white" stroke="black" points="1621,-19.5 1621,-38.5 1713,-38.5 1713,-19.5 1621,-19.5"/>
<text text-anchor="middle" x="1667" y="-26.5" font-family="Helvetica,sans-Serif" font-size="10.00">mc::gfx::Entity2D</text>
</a>
</g>
</g>
<!-- Node2&#45;&gt;Node1 -->
<g id="edge1" class="edge"><title>Node2&#45;&gt;Node1</title>
<path fill="none" stroke="midnightblue" d="M1723.34,-29C1732.33,-29 1741.43,-29 1749.8,-29"/>
<polygon fill="midnightblue" stroke="midnightblue" points="1723.28,-25.5001 1713.28,-29 1723.28,-32.5001 1723.28,-25.5001"/>
</g>
<!-- Node3 -->
<g id="node3" class="node"><title>Node3</title>
<g id="a_node3"><a xlink:href="../../d6/d5b/a00026.html" target="_top" xlink:title="mc::gfx::GraphicsEntity">
<polygon fill="white" stroke="black" points="1433,-38.5 1433,-57.5 1552,-57.5 1552,-38.5 1433,-38.5"/>
<text text-anchor="middle" x="1492.5" y="-45.5" font-family="Helvetica,sans-Serif" font-size="10.00">mc::gfx::GraphicsEntity</text>
</a>
</g>
</g>
<!-- Node3&#45;&gt;Node2 -->
<g id="edge2" class="edge"><title>Node3&#45;&gt;Node2</title>
<path fill="none" stroke="midnightblue" d="M1562.54,-40.3958C1582.22,-38.2279 1603.15,-35.9227 1621,-33.9569"/>
<polygon fill="midnightblue" stroke="midnightblue" points="1561.94,-36.9405 1552.38,-41.5144 1562.71,-43.8985 1561.94,-36.9405"/>
</g>
<!-- Node4 -->
<g id="node4" class="node"><title>Node4</title>
<g id="a_node4"><a xlink:href="../../db/db2/a00020.html" target="_top" xlink:title="Abstract superclass for all graphical objects. ">
<polygon fill="white" stroke="black" points="1259,-71.5 1259,-90.5 1339,-90.5 1339,-71.5 1259,-71.5"/>
<text text-anchor="middle" x="1299" y="-78.5" font-family="Helvetica,sans-Serif" font-size="10.00">mc::gfx::Entity</text>
</a>
</g>
</g>
<!-- Node4&#45;&gt;Node3 -->
<g id="edge3" class="edge"><title>Node4&#45;&gt;Node3</title>
<path fill="none" stroke="midnightblue" d="M1338.97,-68.5999C1347.79,-66.125 1357.16,-63.752 1366,-62 1387.61,-57.7157 1411.6,-54.6376 1432.76,-52.4789"/>
<polygon fill="midnightblue" stroke="midnightblue" points="1337.93,-65.2571 1329.31,-71.4097 1339.89,-71.9788 1337.93,-65.2571"/>
</g>
<!-- Node6 -->
<g id="node6" class="node"><title>Node6</title>
<polygon fill="white" stroke="#bfbfbf" points="1441,-100 1441,-130 1544,-130 1544,-100 1441,-100"/>
<text text-anchor="start" x="1449" y="-118" font-family="Helvetica,sans-Serif" font-size="10.00">std::vector&lt; mc::gfx</text>
<text text-anchor="middle" x="1492.5" y="-107" font-family="Helvetica,sans-Serif" font-size="10.00">::Entity * &gt;</text>
</g>
<!-- Node4&#45;&gt;Node6 -->
<g id="edge6" class="edge"><title>Node4&#45;&gt;Node6</title>
<path fill="none" stroke="#9a32cd" stroke-dasharray="5,2" d="M1349.19,-89.9789C1354.86,-91.0029 1360.55,-92.0276 1366,-93 1390.61,-97.3937 1417.94,-102.195 1440.8,-106.188"/>
<polygon fill="#9a32cd" stroke="#9a32cd" points="1349.54,-86.4862 1339.08,-88.1476 1348.3,-93.3741 1349.54,-86.4862"/>
<text text-anchor="middle" x="1387.5" y="-104" font-family="Helvetica,sans-Serif" font-size="10.00"> elements</text>
</g>
<!-- Node5 -->
<g id="node5" class="node"><title>Node5</title>
<g id="a_node5"><a xlink:href="../../dc/d87/a00032.html" target="_top" xlink:title="mc::Initializable">
<polygon fill="white" stroke="black" points="863,-23.5 863,-42.5 947,-42.5 947,-23.5 863,-23.5"/>
<text text-anchor="middle" x="905" y="-30.5" font-family="Helvetica,sans-Serif" font-size="10.00">mc::Initializable</text>
</a>
</g>
</g>
<!-- Node5&#45;&gt;Node4 -->
<g id="edge4" class="edge"><title>Node5&#45;&gt;Node4</title>
<path fill="none" stroke="midnightblue" d="M957.462,-39.3014C1036.87,-49.0255 1187.55,-67.4757 1258.8,-76.1997"/>
<polygon fill="midnightblue" stroke="midnightblue" points="957.561,-35.7876 947.21,-38.0461 956.71,-42.7357 957.561,-35.7876"/>
</g>
<!-- Node17 -->
<g id="node17" class="node"><title>Node17</title>
<g id="a_node17"><a xlink:href="../../d3/de7/a00039.html" target="_top" xlink:title="Represents a OpenGL object in memory. ">
<polygon fill="white" stroke="black" points="1045,-0.5 1045,-19.5 1147,-19.5 1147,-0.5 1045,-0.5"/>
<text text-anchor="middle" x="1096" y="-7.5" font-family="Helvetica,sans-Serif" font-size="10.00">mc::gfx::ogl::Object</text>
</a>
</g>
</g>
<!-- Node5&#45;&gt;Node17 -->
<g id="edge21" class="edge"><title>Node5&#45;&gt;Node17</title>
<path fill="none" stroke="midnightblue" d="M957.141,-26.7765C984.43,-23.4556 1017.88,-19.3853 1044.99,-16.0855"/>
<polygon fill="midnightblue" stroke="midnightblue" points="956.514,-23.3269 947.01,-28.0093 957.36,-30.2756 956.514,-23.3269"/>
</g>
<!-- Node6&#45;&gt;Node4 -->
<g id="edge5" class="edge"><title>Node6&#45;&gt;Node4</title>
<path fill="none" stroke="#9a32cd" stroke-dasharray="5,2" d="M1452.36,-95.8995C1438.94,-90.2875 1423.61,-84.884 1409,-82 1386.16,-77.4933 1360.11,-77.0864 1339.2,-77.8801"/>
<polygon fill="#9a32cd" stroke="#9a32cd" points="1451.2,-99.2091 1461.76,-99.9896 1453.99,-92.7904 1451.2,-99.2091"/>
<text text-anchor="middle" x="1387.5" y="-85" font-family="Helvetica,sans-Serif" font-size="10.00"> children</text>
</g>
<!-- Node7 -->
<g id="node7" class="node"><title>Node7</title>
<g id="a_node7"><a xlink:title="STL class. ">
<polygon fill="white" stroke="#bfbfbf" points="259.5,-130.5 259.5,-149.5 344.5,-149.5 344.5,-130.5 259.5,-130.5"/>
<text text-anchor="middle" x="302" y="-137.5" font-family="Helvetica,sans-Serif" font-size="10.00">std::vector&lt; T &gt;</text>
</a>
</g>
</g>
<!-- Node7&#45;&gt;Node6 -->
<g id="edge7" class="edge"><title>Node7&#45;&gt;Node6</title>
<path fill="none" stroke="orange" stroke-dasharray="5,2" d="M354.985,-140.3C410.559,-140.595 501.256,-141 579.5,-141 579.5,-141 579.5,-141 1300,-141 1348.15,-141 1402.49,-132.83 1440.95,-125.65"/>
<polygon fill="orange" stroke="orange" points="354.709,-136.799 344.69,-140.245 354.671,-143.799 354.709,-136.799"/>
<text text-anchor="middle" x="905" y="-144" font-family="Helvetica,sans-Serif" font-size="10.00"> &lt; mc::gfx::Entity * &gt;</text>
</g>
<!-- Node8 -->
<g id="node8" class="node"><title>Node8</title>
<polygon fill="white" stroke="#bfbfbf" points="0,-78.5 0,-97.5 29,-97.5 29,-78.5 0,-78.5"/>
<text text-anchor="middle" x="14.5" y="-85.5" font-family="Helvetica,sans-Serif" font-size="10.00">T</text>
</g>
<!-- Node8&#45;&gt;Node7 -->
<g id="edge8" class="edge"><title>Node8&#45;&gt;Node7</title>
<path fill="none" stroke="#9a32cd" stroke-dasharray="5,2" d="M38.4538,-99.8848C41.2838,-101.064 44.1751,-102.14 47,-103 119.687,-125.123 208.221,-134.19 259.251,-137.778"/>
<polygon fill="#9a32cd" stroke="#9a32cd" points="39.8009,-96.6519 29.2541,-95.6448 36.8709,-103.009 39.8009,-96.6519"/>
<text text-anchor="middle" x="68.5" y="-117" font-family="Helvetica,sans-Serif" font-size="10.00"> elements</text>
</g>
<!-- Node12 -->
<g id="node12" class="node"><title>Node12</title>
<g id="a_node12"><a xlink:href="../../d1/d1e/a00087.html" target="_top" xlink:title="1&#45;dimensional vector class that supports mathmatical operations. ">
<polygon fill="white" stroke="black" points="108,-73 108,-103 229,-103 229,-73 108,-73"/>
<text text-anchor="start" x="116" y="-91" font-family="Helvetica,sans-Serif" font-size="10.00">mc::VectorBase&lt; Child,</text>
<text text-anchor="middle" x="168.5" y="-80" font-family="Helvetica,sans-Serif" font-size="10.00"> T, N &gt;</text>
</a>
</g>
</g>
<!-- Node8&#45;&gt;Node12 -->
<g id="edge13" class="edge"><title>Node8&#45;&gt;Node12</title>
<path fill="none" stroke="#9a32cd" stroke-dasharray="5,2" d="M39.3312,-88C57.6867,-88 83.8886,-88 107.824,-88"/>
<polygon fill="#9a32cd" stroke="#9a32cd" points="39.2571,-84.5001 29.2571,-88 39.257,-91.5001 39.2571,-84.5001"/>
<text text-anchor="middle" x="68.5" y="-91" font-family="Helvetica,sans-Serif" font-size="10.00"> content</text>
</g>
<!-- Node14 -->
<g id="node14" class="node"><title>Node14</title>
<g id="a_node14"><a xlink:href="../../d1/d1e/a00087.html" target="_top" xlink:title="mc::VectorBase\&lt; Vector\l\&lt; T, N \&gt;, T, N \&gt;">
<polygon fill="white" stroke="black" points="375,-44 375,-74 500,-74 500,-44 375,-44"/>
<text text-anchor="start" x="383" y="-62" font-family="Helvetica,sans-Serif" font-size="10.00">mc::VectorBase&lt; Vector</text>
<text text-anchor="middle" x="437.5" y="-51" font-family="Helvetica,sans-Serif" font-size="10.00">&lt; T, N &gt;, T, N &gt;</text>
</a>
</g>
</g>
<!-- Node8&#45;&gt;Node14 -->
<g id="edge16" class="edge"><title>Node8&#45;&gt;Node14</title>
<path fill="none" stroke="#9a32cd" stroke-dasharray="5,2" d="M38.1203,-76.4575C56.4288,-67.7964 83.1635,-56.6627 108,-52 199.666,-34.791 308.239,-42.4191 374.732,-50.1784"/>
<polygon fill="#9a32cd" stroke="#9a32cd" points="36.5849,-73.3122 29.1253,-80.8358 39.6485,-79.6062 36.5849,-73.3122"/>
<text text-anchor="middle" x="168.5" y="-55" font-family="Helvetica,sans-Serif" font-size="10.00"> content</text>
</g>
<!-- Node9 -->
<g id="node9" class="node"><title>Node9</title>
<g id="a_node9"><a xlink:href="../../d1/d09/a00077.html" target="_top" xlink:title="Matrix&#45;based class that allows for the easy creation and management of transformation matrices...">
<polygon fill="white" stroke="black" points="1043,-76.5 1043,-95.5 1149,-95.5 1149,-76.5 1043,-76.5"/>
<text text-anchor="middle" x="1096" y="-83.5" font-family="Helvetica,sans-Serif" font-size="10.00">mc::TransformMatrix</text>
</a>
</g>
</g>
<!-- Node9&#45;&gt;Node4 -->
<g id="edge9" class="edge"><title>Node9&#45;&gt;Node4</title>
<path fill="none" stroke="#9a32cd" stroke-dasharray="5,2" d="M1159.34,-84.4493C1191.85,-83.6405 1230.63,-82.676 1258.89,-81.9728"/>
<polygon fill="#9a32cd" stroke="#9a32cd" points="1158.93,-80.9582 1149.02,-84.7059 1159.11,-87.956 1158.93,-80.9582"/>
<text text-anchor="middle" x="1199.5" y="-88" font-family="Helvetica,sans-Serif" font-size="10.00"> transformation</text>
</g>
<!-- Node10 -->
<g id="node10" class="node"><title>Node10</title>
<g id="a_node10"><a xlink:href="../../d1/d51/a00079.html" target="_top" xlink:title="mc::Vector\&lt; float, 3 \&gt;">
<polygon fill="white" stroke="black" points="849,-76.5 849,-95.5 961,-95.5 961,-76.5 849,-76.5"/>
<text text-anchor="middle" x="905" y="-83.5" font-family="Helvetica,sans-Serif" font-size="10.00">mc::Vector&lt; float, 3 &gt;</text>
</a>
</g>
</g>
<!-- Node10&#45;&gt;Node9 -->
<g id="edge10" class="edge"><title>Node10&#45;&gt;Node9</title>
<path fill="none" stroke="#9a32cd" stroke-dasharray="5,2" d="M971.333,-86C994.652,-86 1020.6,-86 1042.68,-86"/>
<polygon fill="#9a32cd" stroke="#9a32cd" points="971.175,-82.5001 961.175,-86 971.175,-89.5001 971.175,-82.5001"/>
<text text-anchor="middle" x="1002" y="-111" font-family="Helvetica,sans-Serif" font-size="10.00"> rotation</text>
<text text-anchor="middle" x="1002" y="-100" font-family="Helvetica,sans-Serif" font-size="10.00">scaler</text>
<text text-anchor="middle" x="1002" y="-89" font-family="Helvetica,sans-Serif" font-size="10.00">translation</text>
</g>
<!-- Node11 -->
<g id="node11" class="node"><title>Node11</title>
<g id="a_node11"><a xlink:href="../../d1/d1e/a00087.html" target="_top" xlink:title="mc::VectorBase\&lt; Vector\l\&lt; float, N \&gt;, float, N \&gt;">
<polygon fill="white" stroke="black" points="518,-85 518,-115 643,-115 643,-85 518,-85"/>
<text text-anchor="start" x="526" y="-103" font-family="Helvetica,sans-Serif" font-size="10.00">mc::VectorBase&lt; Vector</text>
<text text-anchor="middle" x="580.5" y="-92" font-family="Helvetica,sans-Serif" font-size="10.00">&lt; float, N &gt;, float, N &gt;</text>
</a>
</g>
</g>
<!-- Node11&#45;&gt;Node10 -->
<g id="edge11" class="edge"><title>Node11&#45;&gt;Node10</title>
<path fill="none" stroke="midnightblue" d="M653.307,-96.8828C712.383,-94.3183 794.886,-90.7367 848.862,-88.3936"/>
<polygon fill="midnightblue" stroke="midnightblue" points="653.138,-93.3867 643.3,-97.3172 653.442,-100.38 653.138,-93.3867"/>
</g>
<!-- Node12&#45;&gt;Node11 -->
<g id="edge12" class="edge"><title>Node12&#45;&gt;Node11</title>
<path fill="none" stroke="orange" stroke-dasharray="5,2" d="M239.356,-90.0446C317.558,-92.3334 443.083,-96.0073 517.798,-98.1941"/>
<polygon fill="orange" stroke="orange" points="239.216,-86.5391 229.118,-89.7449 239.011,-93.5361 239.216,-86.5391"/>
<text text-anchor="start" x="261.5" y="-108" font-family="Helvetica,sans-Serif" font-size="10.00"> &lt; Vector&lt; float, N</text>
<text text-anchor="middle" x="302" y="-97" font-family="Helvetica,sans-Serif" font-size="10.00"> &gt;, float, N &gt;</text>
</g>
<!-- Node12&#45;&gt;Node14 -->
<g id="edge17" class="edge"><title>Node12&#45;&gt;Node14</title>
<path fill="none" stroke="orange" stroke-dasharray="5,2" d="M239.366,-71.2005C241.937,-70.7647 244.488,-70.362 247,-70 289.403,-63.8905 337.608,-61.1493 374.787,-59.931"/>
<polygon fill="orange" stroke="orange" points="238.594,-67.7836 229.389,-73.0289 239.856,-74.6689 238.594,-67.7836"/>
<text text-anchor="middle" x="302" y="-73" font-family="Helvetica,sans-Serif" font-size="10.00"> &lt; Vector&lt; T, N &gt;, T, N &gt;</text>
</g>
<!-- Node13 -->
<g id="node13" class="node"><title>Node13</title>
<g id="a_node13"><a xlink:href="../../d1/d51/a00079.html" target="_top" xlink:title="mc::Vector\&lt; T, N \&gt;">
<polygon fill="white" stroke="black" points="661,-50.5 661,-69.5 762,-69.5 762,-50.5 661,-50.5"/>
<text text-anchor="middle" x="711.5" y="-57.5" font-family="Helvetica,sans-Serif" font-size="10.00">mc::Vector&lt; T, N &gt;</text>
</a>
</g>
</g>
<!-- Node13&#45;&gt;Node10 -->
<g id="edge14" class="edge"><title>Node13&#45;&gt;Node10</title>
<path fill="none" stroke="orange" stroke-dasharray="5,2" d="M772.097,-66.5065C790.96,-68.709 811.874,-71.2996 831,-74 836.723,-74.808 842.689,-75.7027 848.637,-76.6288"/>
<polygon fill="orange" stroke="orange" points="772.484,-63.028 762.149,-65.3583 771.681,-69.9818 772.484,-63.028"/>
<text text-anchor="middle" x="805.5" y="-77" font-family="Helvetica,sans-Serif" font-size="10.00"> &lt; float, 3 &gt;</text>
</g>
<!-- Node14&#45;&gt;Node13 -->
<g id="edge15" class="edge"><title>Node14&#45;&gt;Node13</title>
<path fill="none" stroke="midnightblue" d="M510.429,-59.2644C557.847,-59.4388 618.736,-59.6626 660.824,-59.8174"/>
<polygon fill="midnightblue" stroke="midnightblue" points="510.234,-55.7638 500.221,-59.2269 510.208,-62.7638 510.234,-55.7638"/>
</g>
<!-- Node15 -->
<g id="node15" class="node"><title>Node15</title>
<g id="a_node15"><a xlink:href="../../d9/da4/a00078.html" target="_top" xlink:title="Stores uniform data for a shader in the form of a sslBuffer. ">
<polygon fill="white" stroke="black" points="1427,-0.5 1427,-19.5 1558,-19.5 1558,-0.5 1427,-0.5"/>
<text text-anchor="middle" x="1492.5" y="-7.5" font-family="Helvetica,sans-Serif" font-size="10.00">mc::gfx::ogl::UniformBuffer</text>
</a>
</g>
</g>
<!-- Node15&#45;&gt;Node2 -->
<g id="edge18" class="edge"><title>Node15&#45;&gt;Node2</title>
<path fill="none" stroke="#9a32cd" stroke-dasharray="5,2" d="M1568.21,-18.1721C1579.86,-19.4504 1591.75,-20.7589 1603,-22 1608.8,-22.6397 1614.89,-23.3146 1620.92,-23.9827"/>
<polygon fill="#9a32cd" stroke="#9a32cd" points="1568.38,-14.6703 1558.06,-17.0589 1567.62,-21.6286 1568.38,-14.6703"/>
<text text-anchor="middle" x="1589.5" y="-25" font-family="Helvetica,sans-Serif" font-size="10.00"> buffer</text>
</g>
<!-- Node16 -->
<g id="node16" class="node"><title>Node16</title>
<g id="a_node16"><a xlink:href="../../d7/dec/a00010.html" target="_top" xlink:title="Represents a sslBuffer of memory in the GPU. ">
<polygon fill="white" stroke="black" points="1250,-0.5 1250,-19.5 1348,-19.5 1348,-0.5 1250,-0.5"/>
<text text-anchor="middle" x="1299" y="-7.5" font-family="Helvetica,sans-Serif" font-size="10.00">mc::gfx::ogl::Buffer</text>
</a>
</g>
</g>
<!-- Node16&#45;&gt;Node15 -->
<g id="edge19" class="edge"><title>Node16&#45;&gt;Node15</title>
<path fill="none" stroke="midnightblue" d="M1358.37,-10C1380.03,-10 1404.72,-10 1426.91,-10"/>
<polygon fill="midnightblue" stroke="midnightblue" points="1358.32,-6.5001 1348.32,-10 1358.32,-13.5001 1358.32,-6.5001"/>
</g>
<!-- Node17&#45;&gt;Node16 -->
<g id="edge20" class="edge"><title>Node17&#45;&gt;Node16</title>
<path fill="none" stroke="midnightblue" d="M1157.41,-10C1186.98,-10 1222.09,-10 1249.82,-10"/>
<polygon fill="midnightblue" stroke="midnightblue" points="1157.2,-6.5001 1147.2,-10 1157.2,-13.5001 1157.2,-6.5001"/>
</g>
</g>
</svg>
        <g id="navigator" transform="translate(0 0)" fill="#404254">
                <rect fill="#f2f5e9" fill-opacity="0.5" stroke="#606060" stroke-width=".5" x="0" y="0" width="60" height="60"/>
                <use id="zoomplus" xlink:href="#zoomPlus" x="17" y="9" onmousedown="handleZoom(evt,'in')"/>
                <use id="zoomminus" xlink:href="#zoomMin" x="42" y="9" onmousedown="handleZoom(evt,'out')"/>
                <use id="reset" xlink:href="#resetDef" x="30" y="36" onmousedown="handleReset()"/>
                <g id="arrowUp" xlink:href="#dirArrow" transform="translate(30 24)" onmousedown="handlePan(0,-1)">
                  <use xlink:href="#rim" fill="#404040">
                        <set attributeName="fill" to="#808080" begin="arrowUp.mouseover" end="arrowUp.mouseout"/>
                  </use>
                  <path fill="none" stroke="white" stroke-width="1.5" d="M0,-3.0v7 M-2.5,-0.5L0,-3.0L2.5,-0.5"/>
                </g>
                <g id="arrowRight" xlink:href="#dirArrow" transform="rotate(90) translate(36 -43)" onmousedown="handlePan(1,0)">
                  <use xlink:href="#rim" fill="#404040">
                        <set attributeName="fill" to="#808080" begin="arrowRight.mouseover" end="arrowRight.mouseout"/>
                  </use>
                  <path fill="none" stroke="white" stroke-width="1.5" d="M0,-3.0v7 M-2.5,-0.5L0,-3.0L2.5,-0.5"/>
                </g>
                <g id="arrowDown" xlink:href="#dirArrow" transform="rotate(180) translate(-30 -48)" onmousedown="handlePan(0,1)">
                  <use xlink:href="#rim" fill="#404040">
                        <set attributeName="fill" to="#808080" begin="arrowDown.mouseover" end="arrowDown.mouseout"/>
                  </use>
                  <path fill="none" stroke="white" stroke-width="1.5" d="M0,-3.0v7 M-2.5,-0.5L0,-3.0L2.5,-0.5"/>
                </g>
                <g id="arrowLeft" xlink:href="#dirArrow" transform="rotate(270) translate(-36 17)" onmousedown="handlePan(-1,0)">
                  <use xlink:href="#rim" fill="#404040">
                        <set attributeName="fill" to="#808080" begin="arrowLeft.mouseover" end="arrowLeft.mouseout"/>
                  </use>
                  <path fill="none" stroke="white" stroke-width="1.5" d="M0,-3.0v7 M-2.5,-0.5L0,-3.0L2.5,-0.5"/>
                </g>
        </g>
        <svg viewBox="0 0 15 15" width="100%" height="30px" preserveAspectRatio="xMaxYMin meet">
         <g id="arrow_out" transform="scale(0.3 0.3)">
          <a xlink:href="a00274_org.svg" target="_base">
           <rect id="button" ry="5" rx="5" y="6" x="6" height="38" width="38"
                fill="#f2f5e9" fill-opacity="0.5" stroke="#606060" stroke-width="1.0"/>
           <path id="arrow"
             d="M 11.500037,31.436501 C 11.940474,20.09759 22.043105,11.32322 32.158766,21.979434 L 37.068811,17.246167 C 37.068811,17.246167 37.088388,32 37.088388,32 L 22.160133,31.978069 C 22.160133,31.978069 26.997745,27.140456 26.997745,27.140456 C 18.528582,18.264221 13.291696,25.230495 11.500037,31.436501 z"
             style="fill:#404040;"/>
          </a>
         </g>
        </svg>
</svg>
