<?xml version="1.0" encoding="UTF-8" standalone="no"?>
<!DOCTYPE svg PUBLIC "-//W3C//DTD SVG 1.1//EN"
 "http://www.w3.org/Graphics/SVG/1.1/DTD/svg11.dtd">
<!-- Generated by graphviz version 2.38.0 (20140413.2041)
 -->
<!-- Title: mc::gfx::Renderer Pages: 1 -->
<svg width="1961pt" height="331pt"
 viewBox="0.00 0.00 1961.00 330.83" xmlns="http://www.w3.org/2000/svg" xmlns:xlink="http://www.w3.org/1999/xlink">
<g id="graph0" class="graph" transform="scale(1 1) rotate(0) translate(4 326.831)">
<title>mc::gfx::Renderer</title>
<polygon fill="white" stroke="none" points="-4,4 -4,-326.831 1957,-326.831 1957,4 -4,4"/>
<!-- Node1 -->
<g id="node1" class="node"><title>Node1</title>
<polygon fill="#bfbfbf" stroke="black" points="1859,-71.831 1859,-90.831 1953,-90.831 1953,-71.831 1859,-71.831"/>
<text text-anchor="middle" x="1906" y="-78.831" font-family="Helvetica,sans-Serif" font-size="10.00">mc::gfx::Renderer</text>
</g>
<!-- Node2 -->
<g id="node2" class="node"><title>Node2</title>
<polygon fill="white" stroke="#bfbfbf" points="1612,-71.831 1612,-90.831 1764,-90.831 1764,-71.831 1612,-71.831"/>
<text text-anchor="middle" x="1688" y="-78.831" font-family="Helvetica,sans-Serif" font-size="10.00">std::deque&lt; GraphicsEntity * &gt;</text>
</g>
<!-- Node2&#45;&gt;Node1 -->
<g id="edge1" class="edge"><title>Node2&#45;&gt;Node1</title>
<path fill="none" stroke="#9a32cd" stroke-dasharray="5,2" d="M1774.34,-81.331C1803.21,-81.331 1834.33,-81.331 1858.96,-81.331"/>
<polygon fill="#9a32cd" stroke="#9a32cd" points="1774.24,-77.8311 1764.24,-81.331 1774.24,-84.8311 1774.24,-77.8311"/>
<text text-anchor="middle" x="1811.5" y="-84.331" font-family="Helvetica,sans-Serif" font-size="10.00"> renderQueue</text>
</g>
<!-- Node3 -->
<g id="node3" class="node"><title>Node3</title>
<g id="a_node3"><a xlink:href="../../d5/d16/a00029.html" target="_top" xlink:title="mc::gfx::GraphicsEntity">
<polygon fill="white" stroke="black" points="1414,-95.831 1414,-114.831 1533,-114.831 1533,-95.831 1414,-95.831"/>
<text text-anchor="middle" x="1473.5" y="-102.831" font-family="Helvetica,sans-Serif" font-size="10.00">mc::gfx::GraphicsEntity</text>
</a>
</g>
</g>
<!-- Node3&#45;&gt;Node2 -->
<g id="edge2" class="edge"><title>Node3&#45;&gt;Node2</title>
<path fill="none" stroke="#9a32cd" stroke-dasharray="5,2" d="M1543.32,-97.558C1565.2,-95.087 1589.51,-92.3419 1611.81,-89.8229"/>
<polygon fill="#9a32cd" stroke="#9a32cd" points="1542.67,-94.1091 1533.13,-98.7094 1543.46,-101.065 1542.67,-94.1091"/>
<text text-anchor="middle" x="1572.5" y="-99.331" font-family="Helvetica,sans-Serif" font-size="10.00"> elements</text>
</g>
<!-- Node4 -->
<g id="node4" class="node"><title>Node4</title>
<g id="a_node4"><a xlink:href="../../d7/de0/a00022.html" target="_top" xlink:title="Abstract superclass for all graphical objects. ">
<polygon fill="white" stroke="black" points="1235,-118.831 1235,-137.831 1315,-137.831 1315,-118.831 1235,-118.831"/>
<text text-anchor="middle" x="1275" y="-125.831" font-family="Helvetica,sans-Serif" font-size="10.00">mc::gfx::Entity</text>
</a>
</g>
</g>
<!-- Node4&#45;&gt;Node3 -->
<g id="edge3" class="edge"><title>Node4&#45;&gt;Node3</title>
<path fill="none" stroke="midnightblue" d="M1325.26,-122.566C1352.16,-119.417 1385.65,-115.497 1413.89,-112.191"/>
<polygon fill="midnightblue" stroke="midnightblue" points="1324.82,-119.093 1315.29,-123.732 1325.63,-126.046 1324.82,-119.093"/>
</g>
<!-- Node6 -->
<g id="node6" class="node"><title>Node6</title>
<polygon fill="white" stroke="#bfbfbf" points="1422,-163.331 1422,-193.331 1525,-193.331 1525,-163.331 1422,-163.331"/>
<text text-anchor="start" x="1430" y="-181.331" font-family="Helvetica,sans-Serif" font-size="10.00">std::vector&lt; mc::gfx</text>
<text text-anchor="middle" x="1473.5" y="-170.331" font-family="Helvetica,sans-Serif" font-size="10.00">::Entity * &gt;</text>
</g>
<!-- Node4&#45;&gt;Node6 -->
<g id="edge6" class="edge"><title>Node4&#45;&gt;Node6</title>
<path fill="none" stroke="#9a32cd" stroke-dasharray="5,2" d="M1325.33,-131.095C1347.28,-133.189 1373.25,-136.869 1396,-143.331 1412.86,-148.119 1430.72,-156.109 1444.94,-163.247"/>
<polygon fill="#9a32cd" stroke="#9a32cd" points="1325.51,-127.597 1315.24,-130.214 1324.9,-134.57 1325.51,-127.597"/>
<text text-anchor="middle" x="1364.5" y="-146.331" font-family="Helvetica,sans-Serif" font-size="10.00"> elements</text>
</g>
<!-- Node17 -->
<g id="node17" class="node"><title>Node17</title>
<g id="a_node17"><a xlink:href="../../d1/d1e/a00087.html" target="_top" xlink:title="mc::os::WindowModule">
<polygon fill="white" stroke="black" points="1414,-13.831 1414,-32.831 1533,-32.831 1533,-13.831 1414,-13.831"/>
<text text-anchor="middle" x="1473.5" y="-20.831" font-family="Helvetica,sans-Serif" font-size="10.00">mc::os::WindowModule</text>
</a>
</g>
</g>
<!-- Node4&#45;&gt;Node17 -->
<g id="edge25" class="edge"><title>Node4&#45;&gt;Node17</title>
<path fill="none" stroke="midnightblue" d="M1302.86,-113.978C1343.61,-92.201 1419.99,-51.3925 1454.61,-32.8884"/>
<polygon fill="midnightblue" stroke="midnightblue" points="1300.95,-111.028 1293.78,-118.828 1304.25,-117.202 1300.95,-111.028"/>
</g>
<!-- Node5 -->
<g id="node5" class="node"><title>Node5</title>
<g id="a_node5"><a xlink:href="../../d4/d8c/a00035.html" target="_top" xlink:title="mc::Initializable">
<polygon fill="white" stroke="black" points="1039,-1.83103 1039,-20.831 1123,-20.831 1123,-1.83103 1039,-1.83103"/>
<text text-anchor="middle" x="1081" y="-8.83103" font-family="Helvetica,sans-Serif" font-size="10.00">mc::Initializable</text>
</a>
</g>
</g>
<!-- Node5&#45;&gt;Node4 -->
<g id="edge4" class="edge"><title>Node5&#45;&gt;Node4</title>
<path fill="none" stroke="midnightblue" d="M1109.43,-25.6228C1117.42,-29.9135 1126.12,-34.7105 1134,-39.331 1180.71,-66.7086 1234.32,-101.874 1259.5,-118.623"/>
<polygon fill="midnightblue" stroke="midnightblue" points="1110.94,-22.4627 1100.47,-20.8596 1107.66,-28.6438 1110.94,-22.4627"/>
</g>
<!-- Node16 -->
<g id="node16" class="node"><title>Node16</title>
<g id="a_node16"><a xlink:href="../../dc/d3c/a00028.html" target="_top" xlink:title="mc::gfx::GraphicsContext">
<polygon fill="white" stroke="black" points="1624,-13.831 1624,-32.831 1752,-32.831 1752,-13.831 1624,-13.831"/>
<text text-anchor="middle" x="1688" y="-20.831" font-family="Helvetica,sans-Serif" font-size="10.00">mc::gfx::GraphicsContext</text>
</a>
</g>
</g>
<!-- Node5&#45;&gt;Node16 -->
<g id="edge21" class="edge"><title>Node5&#45;&gt;Node16</title>
<path fill="none" stroke="midnightblue" d="M1133.09,-7.98546C1216.76,-3.08001 1388.19,4.56832 1533,-4.33103 1563.11,-6.18174 1596.36,-10.0498 1624.22,-13.8158"/>
<polygon fill="midnightblue" stroke="midnightblue" points="1132.86,-4.49286 1123.09,-8.58355 1133.28,-11.4804 1132.86,-4.49286"/>
</g>
<!-- Node18 -->
<g id="node18" class="node"><title>Node18</title>
<g id="a_node18"><a xlink:href="../../d5/df9/a00044.html" target="_top" xlink:title="Abstract class used for doing a task in MACE. ">
<polygon fill="white" stroke="black" points="1241,-13.831 1241,-32.831 1309,-32.831 1309,-13.831 1241,-13.831"/>
<text text-anchor="middle" x="1275" y="-20.831" font-family="Helvetica,sans-Serif" font-size="10.00">mc::Module</text>
</a>
</g>
</g>
<!-- Node5&#45;&gt;Node18 -->
<g id="edge24" class="edge"><title>Node5&#45;&gt;Node18</title>
<path fill="none" stroke="midnightblue" d="M1133.44,-14.5458C1167.54,-16.6774 1211.29,-19.4116 1240.85,-21.2592"/>
<polygon fill="midnightblue" stroke="midnightblue" points="1133.39,-11.036 1123.19,-13.9053 1132.95,-18.0224 1133.39,-11.036"/>
</g>
<!-- Node6&#45;&gt;Node4 -->
<g id="edge5" class="edge"><title>Node6&#45;&gt;Node4</title>
<path fill="none" stroke="#9a32cd" stroke-dasharray="5,2" d="M1411.92,-172.795C1387.07,-169.495 1358.27,-164.329 1333,-156.331 1318.7,-151.807 1303.51,-144.187 1292.41,-138.038"/>
<polygon fill="#9a32cd" stroke="#9a32cd" points="1411.59,-176.28 1421.95,-174.055 1412.46,-169.335 1411.59,-176.28"/>
<text text-anchor="middle" x="1364.5" y="-173.331" font-family="Helvetica,sans-Serif" font-size="10.00"> children</text>
</g>
<!-- Node7 -->
<g id="node7" class="node"><title>Node7</title>
<g id="a_node7"><a xlink:title="STL class. ">
<polygon fill="white" stroke="#bfbfbf" points="259.5,-194.831 259.5,-213.831 344.5,-213.831 344.5,-194.831 259.5,-194.831"/>
<text text-anchor="middle" x="302" y="-201.831" font-family="Helvetica,sans-Serif" font-size="10.00">std::vector&lt; T &gt;</text>
</a>
</g>
</g>
<!-- Node7&#45;&gt;Node6 -->
<g id="edge7" class="edge"><title>Node7&#45;&gt;Node6</title>
<path fill="none" stroke="orange" stroke-dasharray="5,2" d="M355.133,-204.331C407.055,-204.331 489.038,-204.331 560,-204.331 560,-204.331 560,-204.331 1276,-204.331 1325.9,-204.331 1382.31,-195.99 1421.85,-188.756"/>
<polygon fill="orange" stroke="orange" points="354.844,-200.831 344.844,-204.331 354.844,-207.831 354.844,-200.831"/>
<text text-anchor="middle" x="890" y="-207.331" font-family="Helvetica,sans-Serif" font-size="10.00"> &lt; mc::gfx::Entity * &gt;</text>
</g>
<!-- Node8 -->
<g id="node8" class="node"><title>Node8</title>
<polygon fill="white" stroke="#bfbfbf" points="0,-215.831 0,-234.831 29,-234.831 29,-215.831 0,-215.831"/>
<text text-anchor="middle" x="14.5" y="-222.831" font-family="Helvetica,sans-Serif" font-size="10.00">T</text>
</g>
<!-- Node8&#45;&gt;Node7 -->
<g id="edge8" class="edge"><title>Node8&#45;&gt;Node7</title>
<path fill="none" stroke="#9a32cd" stroke-dasharray="5,2" d="M38.7168,-217.207C41.4821,-216.464 44.2864,-215.812 47,-215.331 120.885,-202.242 208.65,-201.686 259.279,-202.79"/>
<polygon fill="#9a32cd" stroke="#9a32cd" points="37.6414,-213.876 29.1024,-220.147 39.6888,-220.57 37.6414,-213.876"/>
<text text-anchor="middle" x="68.5" y="-218.331" font-family="Helvetica,sans-Serif" font-size="10.00"> elements</text>
</g>
<!-- Node12 -->
<g id="node12" class="node"><title>Node12</title>
<g id="a_node12"><a xlink:href="../../df/d5d/a00084.html" target="_top" xlink:title="1&#45;dimensional vector class that supports mathmatical operations. ">
<polygon fill="white" stroke="black" points="108,-235.331 108,-265.331 229,-265.331 229,-235.331 108,-235.331"/>
<text text-anchor="start" x="116" y="-253.331" font-family="Helvetica,sans-Serif" font-size="10.00">mc::VectorBase&lt; Child,</text>
<text text-anchor="middle" x="168.5" y="-242.331" font-family="Helvetica,sans-Serif" font-size="10.00"> T, N &gt;</text>
</a>
</g>
</g>
<!-- Node8&#45;&gt;Node12 -->
<g id="edge13" class="edge"><title>Node8&#45;&gt;Node12</title>
<path fill="none" stroke="#9a32cd" stroke-dasharray="5,2" d="M39.3312,-229.251C57.6867,-232.27 83.8886,-236.579 107.824,-240.516"/>
<polygon fill="#9a32cd" stroke="#9a32cd" points="39.6926,-225.763 29.2571,-227.594 38.5564,-232.67 39.6926,-225.763"/>
<text text-anchor="middle" x="68.5" y="-239.331" font-family="Helvetica,sans-Serif" font-size="10.00"> content</text>
</g>
<!-- Node14 -->
<g id="node14" class="node"><title>Node14</title>
<g id="a_node14"><a xlink:href="../../df/d5d/a00084.html" target="_top" xlink:title="mc::VectorBase\&lt; Vector\l\&lt; T, N \&gt;, T, N \&gt;">
<polygon fill="white" stroke="black" points="375,-292.331 375,-322.331 500,-322.331 500,-292.331 375,-292.331"/>
<text text-anchor="start" x="383" y="-310.331" font-family="Helvetica,sans-Serif" font-size="10.00">mc::VectorBase&lt; Vector</text>
<text text-anchor="middle" x="437.5" y="-299.331" font-family="Helvetica,sans-Serif" font-size="10.00">&lt; T, N &gt;, T, N &gt;</text>
</a>
</g>
</g>
<!-- Node8&#45;&gt;Node14 -->
<g id="edge16" class="edge"><title>Node8&#45;&gt;Node14</title>
<path fill="none" stroke="#9a32cd" stroke-dasharray="5,2" d="M33.0976,-241.489C37.4489,-245.013 42.2347,-248.523 47,-251.331 72.101,-266.12 79.8368,-267.873 108,-275.331 198.843,-299.387 308.11,-305.754 374.913,-307.224"/>
<polygon fill="#9a32cd" stroke="#9a32cd" points="35.2547,-238.728 25.385,-234.875 30.6982,-244.042 35.2547,-238.728"/>
<text text-anchor="middle" x="168.5" y="-299.331" font-family="Helvetica,sans-Serif" font-size="10.00"> content</text>
</g>
<!-- Node15 -->
<g id="node15" class="node"><title>Node15</title>
<g id="a_node15"><a xlink:title="STL class. ">
<polygon fill="white" stroke="#bfbfbf" points="518,-104.831 518,-123.831 604,-123.831 604,-104.831 518,-104.831"/>
<text text-anchor="middle" x="561" y="-111.831" font-family="Helvetica,sans-Serif" font-size="10.00">std::deque&lt; T &gt;</text>
</a>
</g>
</g>
<!-- Node8&#45;&gt;Node15 -->
<g id="edge19" class="edge"><title>Node8&#45;&gt;Node15</title>
<path fill="none" stroke="#9a32cd" stroke-dasharray="5,2" d="M37.3232,-210.394C40.4933,-208.546 43.7763,-206.795 47,-205.331 72.7367,-193.642 80.4364,-193.597 108,-187.331 257.21,-153.411 437.598,-129.227 517.907,-119.316"/>
<polygon fill="#9a32cd" stroke="#9a32cd" points="35.455,-207.434 28.8312,-215.703 39.1659,-213.369 35.455,-207.434"/>
<text text-anchor="middle" x="168.5" y="-190.331" font-family="Helvetica,sans-Serif" font-size="10.00"> elements</text>
</g>
<!-- Node9 -->
<g id="node9" class="node"><title>Node9</title>
<g id="a_node9"><a xlink:href="../../db/db6/a00074.html" target="_top" xlink:title="Matrix&#45;based class that allows for the easy creation and management of transformation matrices...">
<polygon fill="white" stroke="black" points="1028,-232.831 1028,-251.831 1134,-251.831 1134,-232.831 1028,-232.831"/>
<text text-anchor="middle" x="1081" y="-239.831" font-family="Helvetica,sans-Serif" font-size="10.00">mc::TransformMatrix</text>
</a>
</g>
</g>
<!-- Node9&#45;&gt;Node4 -->
<g id="edge9" class="edge"><title>Node9&#45;&gt;Node4</title>
<path fill="none" stroke="#9a32cd" stroke-dasharray="5,2" d="M1106.64,-227.701C1146.55,-204.002 1224.26,-157.862 1257.87,-137.908"/>
<polygon fill="#9a32cd" stroke="#9a32cd" points="1104.85,-224.693 1098.04,-232.808 1108.43,-230.712 1104.85,-224.693"/>
<text text-anchor="middle" x="1184.5" y="-202.331" font-family="Helvetica,sans-Serif" font-size="10.00"> transformation</text>
</g>
<!-- Node10 -->
<g id="node10" class="node"><title>Node10</title>
<g id="a_node10"><a xlink:href="../../db/df8/a00076.html" target="_top" xlink:title="mc::Vector\&lt; float, 3 \&gt;">
<polygon fill="white" stroke="black" points="834,-233.831 834,-252.831 946,-252.831 946,-233.831 834,-233.831"/>
<text text-anchor="middle" x="890" y="-240.831" font-family="Helvetica,sans-Serif" font-size="10.00">mc::Vector&lt; float, 3 &gt;</text>
</a>
</g>
</g>
<!-- Node10&#45;&gt;Node9 -->
<g id="edge10" class="edge"><title>Node10&#45;&gt;Node9</title>
<path fill="none" stroke="#9a32cd" stroke-dasharray="5,2" d="M956.333,-242.985C979.652,-242.862 1005.6,-242.725 1027.68,-242.608"/>
<polygon fill="#9a32cd" stroke="#9a32cd" points="956.156,-239.486 946.175,-243.039 956.193,-246.486 956.156,-239.486"/>
<text text-anchor="middle" x="987" y="-267.331" font-family="Helvetica,sans-Serif" font-size="10.00"> rotation</text>
<text text-anchor="middle" x="987" y="-256.331" font-family="Helvetica,sans-Serif" font-size="10.00">scaler</text>
<text text-anchor="middle" x="987" y="-245.331" font-family="Helvetica,sans-Serif" font-size="10.00">translation</text>
</g>
<!-- Node11 -->
<g id="node11" class="node"><title>Node11</title>
<g id="a_node11"><a xlink:href="../../df/d5d/a00084.html" target="_top" xlink:title="mc::VectorBase\&lt; Vector\l\&lt; float, N \&gt;, float, N \&gt;">
<polygon fill="white" stroke="black" points="622,-235.331 622,-265.331 747,-265.331 747,-235.331 622,-235.331"/>
<text text-anchor="start" x="630" y="-253.331" font-family="Helvetica,sans-Serif" font-size="10.00">mc::VectorBase&lt; Vector</text>
<text text-anchor="middle" x="684.5" y="-242.331" font-family="Helvetica,sans-Serif" font-size="10.00">&lt; float, N &gt;, float, N &gt;</text>
</a>
</g>
</g>
<!-- Node11&#45;&gt;Node10 -->
<g id="edge11" class="edge"><title>Node11&#45;&gt;Node10</title>
<path fill="none" stroke="midnightblue" d="M757.327,-247.86C782.46,-246.996 810.266,-246.039 833.825,-245.229"/>
<polygon fill="midnightblue" stroke="midnightblue" points="756.983,-244.37 747.109,-248.212 757.223,-251.366 756.983,-244.37"/>
</g>
<!-- Node19 -->
<g id="node19" class="node"><title>Node19</title>
<g id="a_node19"><a xlink:href="../../db/df8/a00076.html" target="_top" xlink:title="mc::Vector\&lt; float, 2 \&gt;">
<polygon fill="white" stroke="black" points="834,-280.831 834,-299.831 946,-299.831 946,-280.831 834,-280.831"/>
<text text-anchor="middle" x="890" y="-287.831" font-family="Helvetica,sans-Serif" font-size="10.00">mc::Vector&lt; float, 2 &gt;</text>
</a>
</g>
</g>
<!-- Node11&#45;&gt;Node19 -->
<g id="edge27" class="edge"><title>Node11&#45;&gt;Node19</title>
<path fill="none" stroke="midnightblue" d="M757.122,-263.873C776.26,-267.54 796.925,-271.544 816,-275.331 824.757,-277.069 834.096,-278.96 843.068,-280.795"/>
<polygon fill="midnightblue" stroke="midnightblue" points="757.75,-260.43 747.27,-261.989 756.435,-267.305 757.75,-260.43"/>
</g>
<!-- Node12&#45;&gt;Node11 -->
<g id="edge12" class="edge"><title>Node12&#45;&gt;Node11</title>
<path fill="none" stroke="orange" stroke-dasharray="5,2" d="M239.318,-250.331C340.326,-250.331 525.627,-250.331 621.85,-250.331"/>
<polygon fill="orange" stroke="orange" points="239.216,-246.831 229.216,-250.331 239.216,-253.831 239.216,-246.831"/>
<text text-anchor="start" x="397" y="-264.331" font-family="Helvetica,sans-Serif" font-size="10.00"> &lt; Vector&lt; float, N</text>
<text text-anchor="middle" x="437.5" y="-253.331" font-family="Helvetica,sans-Serif" font-size="10.00"> &gt;, float, N &gt;</text>
</g>
<!-- Node12&#45;&gt;Node14 -->
<g id="edge17" class="edge"><title>Node12&#45;&gt;Node14</title>
<path fill="none" stroke="orange" stroke-dasharray="5,2" d="M239.583,-261.29C274.965,-267.266 318.452,-275.285 357,-284.331 366.932,-286.662 377.469,-289.469 387.513,-292.309"/>
<polygon fill="orange" stroke="orange" points="239.794,-257.777 229.354,-259.582 238.641,-264.682 239.794,-257.777"/>
<text text-anchor="middle" x="302" y="-287.331" font-family="Helvetica,sans-Serif" font-size="10.00"> &lt; Vector&lt; T, N &gt;, T, N &gt;</text>
</g>
<!-- Node13 -->
<g id="node13" class="node"><title>Node13</title>
<g id="a_node13"><a xlink:href="../../db/df8/a00076.html" target="_top" xlink:title="mc::Vector\&lt; T, N \&gt;">
<polygon fill="white" stroke="black" points="634,-297.831 634,-316.831 735,-316.831 735,-297.831 634,-297.831"/>
<text text-anchor="middle" x="684.5" y="-304.831" font-family="Helvetica,sans-Serif" font-size="10.00">mc::Vector&lt; T, N &gt;</text>
</a>
</g>
</g>
<!-- Node13&#45;&gt;Node10 -->
<g id="edge14" class="edge"><title>Node13&#45;&gt;Node10</title>
<path fill="none" stroke="orange" stroke-dasharray="5,2" d="M725.707,-294.686C764.804,-282.39 823.319,-263.987 858.659,-252.873"/>
<polygon fill="orange" stroke="orange" points="724.455,-291.411 715.966,-297.75 726.555,-298.088 724.455,-291.411"/>
<text text-anchor="middle" x="790.5" y="-283.331" font-family="Helvetica,sans-Serif" font-size="10.00"> &lt; float, 3 &gt;</text>
</g>
<!-- Node13&#45;&gt;Node19 -->
<g id="edge28" class="edge"><title>Node13&#45;&gt;Node19</title>
<path fill="none" stroke="orange" stroke-dasharray="5,2" d="M745.512,-309.478C767.718,-309.588 793.064,-308.904 816,-306.331 827.991,-304.986 840.904,-302.506 852.486,-299.894"/>
<polygon fill="orange" stroke="orange" points="745.255,-305.975 735.219,-309.371 745.182,-312.975 745.255,-305.975"/>
<text text-anchor="middle" x="790.5" y="-312.331" font-family="Helvetica,sans-Serif" font-size="10.00"> &lt; float, 2 &gt;</text>
</g>
<!-- Node14&#45;&gt;Node13 -->
<g id="edge15" class="edge"><title>Node14&#45;&gt;Node13</title>
<path fill="none" stroke="midnightblue" d="M510.177,-307.331C549.926,-307.331 598.354,-307.331 633.904,-307.331"/>
<polygon fill="midnightblue" stroke="midnightblue" points="510.008,-303.831 500.008,-307.331 510.008,-310.831 510.008,-303.831"/>
</g>
<!-- Node15&#45;&gt;Node2 -->
<g id="edge18" class="edge"><title>Node15&#45;&gt;Node2</title>
<path fill="none" stroke="orange" stroke-dasharray="5,2" d="M596.094,-101.236C640.091,-85.5414 719.332,-61.331 789.5,-61.331 789.5,-61.331 789.5,-61.331 1474.5,-61.331 1523.41,-61.331 1578.38,-66.6484 1620.16,-71.7996"/>
<polygon fill="orange" stroke="orange" points="594.677,-98.0269 586.475,-104.733 597.069,-104.606 594.677,-98.0269"/>
<text text-anchor="middle" x="1081" y="-64.331" font-family="Helvetica,sans-Serif" font-size="10.00"> &lt; GraphicsEntity * &gt;</text>
</g>
<!-- Node16&#45;&gt;Node1 -->
<g id="edge20" class="edge"><title>Node16&#45;&gt;Node1</title>
<path fill="none" stroke="#9a32cd" stroke-dasharray="5,2" d="M1734.47,-35.5416C1774.63,-46.323 1832.36,-61.827 1869.28,-71.7393"/>
<polygon fill="#9a32cd" stroke="#9a32cd" points="1735.23,-32.1217 1724.67,-32.9085 1733.42,-38.8822 1735.23,-32.1217"/>
<text text-anchor="middle" x="1811.5" y="-66.331" font-family="Helvetica,sans-Serif" font-size="10.00"> context</text>
</g>
<!-- Node17&#45;&gt;Node16 -->
<g id="edge22" class="edge"><title>Node17&#45;&gt;Node16</title>
<path fill="none" stroke="#9a32cd" stroke-dasharray="5,2" d="M1543.23,-23.331C1569.1,-23.331 1598.37,-23.331 1623.72,-23.331"/>
<polygon fill="#9a32cd" stroke="#9a32cd" points="1543.13,-19.8311 1533.13,-23.331 1543.13,-26.8311 1543.13,-19.8311"/>
<text text-anchor="middle" x="1572.5" y="-26.331" font-family="Helvetica,sans-Serif" font-size="10.00"> window</text>
</g>
<!-- Node18&#45;&gt;Node17 -->
<g id="edge23" class="edge"><title>Node18&#45;&gt;Node17</title>
<path fill="none" stroke="midnightblue" d="M1319.53,-23.331C1347.29,-23.331 1383.62,-23.331 1413.91,-23.331"/>
<polygon fill="midnightblue" stroke="midnightblue" points="1319.33,-19.8311 1309.33,-23.331 1319.33,-26.8311 1319.33,-19.8311"/>
</g>
<!-- Node19&#45;&gt;Node1 -->
<g id="edge26" class="edge"><title>Node19&#45;&gt;Node1</title>
<path fill="none" stroke="#9a32cd" stroke-dasharray="5,2" d="M956.871,-290.331C993.189,-290.331 1039.09,-290.331 1080,-290.331 1080,-290.331 1080,-290.331 1689,-290.331 1805.36,-290.331 1882.9,-131.741 1900.96,-90.8544"/>
<polygon fill="#9a32cd" stroke="#9a32cd" points="956.409,-286.831 946.409,-290.331 956.409,-293.831 956.409,-286.831"/>
<text text-anchor="middle" x="1364.5" y="-293.331" font-family="Helvetica,sans-Serif" font-size="10.00"> windowRatios</text>
</g>
</g>
</svg>
