<?xml version="1.0" encoding="UTF-8" standalone="no"?>
<!DOCTYPE svg PUBLIC "-//W3C//DTD SVG 1.1//EN"
 "http://www.w3.org/Graphics/SVG/1.1/DTD/svg11.dtd">
<!-- Generated by graphviz version 2.38.0 (20140413.2041)
 -->
<!-- Title: mc::gfx::Entity Pages: 1 -->
<svg width="255pt" height="405pt"
 viewBox="0.00 0.00 254.50 405.00" xmlns="http://www.w3.org/2000/svg" xmlns:xlink="http://www.w3.org/1999/xlink">
<g id="graph0" class="graph" transform="scale(1 1) rotate(0) translate(4 401)">
<title>mc::gfx::Entity</title>
<polygon fill="white" stroke="none" points="-4,4 -4,-401 250.5,-401 250.5,4 -4,4"/>
<!-- Node1 -->
<g id="node1" class="node"><title>Node1</title>
<polygon fill="#bfbfbf" stroke="black" points="105.5,-78.5 105.5,-97.5 185.5,-97.5 185.5,-78.5 105.5,-78.5"/>
<text text-anchor="middle" x="145.5" y="-85.5" font-family="Helvetica,sans-Serif" font-size="10.00">mc::gfx::Entity</text>
</g>
<!-- Node2 -->
<g id="node2" class="node"><title>Node2</title>
<polygon fill="white" stroke="#bfbfbf" points="28,-0.5 28,-30.5 131,-30.5 131,-0.5 28,-0.5"/>
<text text-anchor="start" x="36" y="-18.5" font-family="Helvetica,sans-Serif" font-size="10.00">std::vector&lt; mc::gfx</text>
<text text-anchor="middle" x="79.5" y="-7.5" font-family="Helvetica,sans-Serif" font-size="10.00">::Entity * &gt;</text>
</g>
<!-- Node1&#45;&gt;Node2 -->
<g id="edge2" class="edge"><title>Node1&#45;&gt;Node2</title>
<path fill="none" stroke="#9a32cd" stroke-dasharray="5,2" d="M96.0955,-76.1933C88.3675,-72.336 81.3473,-67.102 76.5,-60 70.6962,-51.4966 71.9056,-39.7512 74.3147,-30.6083"/>
<polygon fill="#9a32cd" stroke="#9a32cd" points="94.8304,-79.4583 105.405,-80.1185 97.5501,-73.0082 94.8304,-79.4583"/>
<text text-anchor="middle" x="98" y="-52" font-family="Helvetica,sans-Serif" font-size="10.00"> elements</text>
</g>
<!-- Node2&#45;&gt;Node1 -->
<g id="edge1" class="edge"><title>Node2&#45;&gt;Node1</title>
<path fill="none" stroke="#9a32cd" stroke-dasharray="5,2" d="M110.702,-37.0121C115.266,-40.7112 119.701,-44.7528 123.5,-49 131.428,-57.864 137.863,-70.0358 141.681,-78.1925"/>
<polygon fill="#9a32cd" stroke="#9a32cd" points="112.537,-34.0112 102.456,-30.7533 108.305,-39.587 112.537,-34.0112"/>
<text text-anchor="middle" x="150" y="-52" font-family="Helvetica,sans-Serif" font-size="10.00"> children</text>
</g>
<!-- Node3 -->
<g id="node3" class="node"><title>Node3</title>
<g id="a_node3"><a xlink:title="STL class. ">
<polygon fill="white" stroke="#bfbfbf" points="0,-272.5 0,-291.5 85,-291.5 85,-272.5 0,-272.5"/>
<text text-anchor="middle" x="42.5" y="-279.5" font-family="Helvetica,sans-Serif" font-size="10.00">std::vector&lt; T &gt;</text>
</a>
</g>
</g>
<!-- Node3&#45;&gt;Node2 -->
<g id="edge3" class="edge"><title>Node3&#45;&gt;Node2</title>
<path fill="none" stroke="orange" stroke-dasharray="5,2" d="M38.1083,-262.29C34.6819,-246.05 30.5,-221.854 30.5,-200.5 30.5,-200.5 30.5,-200.5 30.5,-87 30.5,-64.3436 47.7744,-43.7376 61.8099,-30.7345"/>
<polygon fill="orange" stroke="orange" points="34.7094,-263.13 40.299,-272.13 41.5421,-261.609 34.7094,-263.13"/>
<text text-anchor="middle" x="76.5" y="-152.5" font-family="Helvetica,sans-Serif" font-size="10.00"> &lt; mc::gfx::Entity * &gt;</text>
</g>
<!-- Node4 -->
<g id="node4" class="node"><title>Node4</title>
<polygon fill="white" stroke="#bfbfbf" points="67,-377.5 67,-396.5 96,-396.5 96,-377.5 67,-377.5"/>
<text text-anchor="middle" x="81.5" y="-384.5" font-family="Helvetica,sans-Serif" font-size="10.00">T</text>
</g>
<!-- Node4&#45;&gt;Node3 -->
<g id="edge4" class="edge"><title>Node4&#45;&gt;Node3</title>
<path fill="none" stroke="#9a32cd" stroke-dasharray="5,2" d="M62.5982,-370.296C59.4621,-366.875 56.5643,-363.054 54.5,-359 43.1043,-336.622 41.9744,-306.124 42.1781,-291.501"/>
<polygon fill="#9a32cd" stroke="#9a32cd" points="60.4329,-373.069 70.068,-377.475 65.2836,-368.022 60.4329,-373.069"/>
<text text-anchor="middle" x="76" y="-351" font-family="Helvetica,sans-Serif" font-size="10.00"> elements</text>
</g>
<!-- Node7 -->
<g id="node7" class="node"><title>Node7</title>
<g id="a_node7"><a xlink:href="$d9/da5/a00075.html" xlink:title="1&#45;dimensional vector class that supports mathmatical operations. ">
<polygon fill="white" stroke="black" points="76,-310.5 76,-329.5 177,-329.5 177,-310.5 76,-310.5"/>
<text text-anchor="middle" x="126.5" y="-317.5" font-family="Helvetica,sans-Serif" font-size="10.00">mc::Vector&lt; T, N &gt;</text>
</a>
</g>
</g>
<!-- Node4&#45;&gt;Node7 -->
<g id="edge8" class="edge"><title>Node4&#45;&gt;Node7</title>
<path fill="none" stroke="#9a32cd" stroke-dasharray="5,2" d="M93.3359,-368.904C102.08,-356.273 113.62,-339.604 120.527,-329.627"/>
<polygon fill="#9a32cd" stroke="#9a32cd" points="90.3834,-367.02 87.5689,-377.234 96.1387,-371.004 90.3834,-367.02"/>
<text text-anchor="middle" x="125.5" y="-351" font-family="Helvetica,sans-Serif" font-size="10.00"> content</text>
</g>
<!-- Node5 -->
<g id="node5" class="node"><title>Node5</title>
<g id="a_node5"><a xlink:href="$d1/d6e/a00073.html" xlink:title="Matrix&#45;based class that allows for the easy creation and management of transformation matrices...">
<polygon fill="white" stroke="black" points="140.5,-145.5 140.5,-164.5 246.5,-164.5 246.5,-145.5 140.5,-145.5"/>
<text text-anchor="middle" x="193.5" y="-152.5" font-family="Helvetica,sans-Serif" font-size="10.00">mc::TransformMatrix</text>
</a>
</g>
</g>
<!-- Node5&#45;&gt;Node1 -->
<g id="edge5" class="edge"><title>Node5&#45;&gt;Node1</title>
<path fill="none" stroke="#9a32cd" stroke-dasharray="5,2" d="M180.875,-136.904C171.548,-124.273 159.238,-107.604 151.871,-97.6273"/>
<polygon fill="#9a32cd" stroke="#9a32cd" points="178.271,-139.269 187.027,-145.234 183.902,-135.11 178.271,-139.269"/>
<text text-anchor="middle" x="205" y="-119" font-family="Helvetica,sans-Serif" font-size="10.00"> transformation</text>
</g>
<!-- Node6 -->
<g id="node6" class="node"><title>Node6</title>
<g id="a_node6"><a xlink:href="$d9/da5/a00075.html" xlink:title="mc::Vector\&lt; float, 3 \&gt;">
<polygon fill="white" stroke="black" points="78.5,-234.5 78.5,-253.5 190.5,-253.5 190.5,-234.5 78.5,-234.5"/>
<text text-anchor="middle" x="134.5" y="-241.5" font-family="Helvetica,sans-Serif" font-size="10.00">mc::Vector&lt; float, 3 &gt;</text>
</a>
</g>
</g>
<!-- Node6&#45;&gt;Node5 -->
<g id="edge6" class="edge"><title>Node6&#45;&gt;Node5</title>
<path fill="none" stroke="#9a32cd" stroke-dasharray="5,2" d="M146.033,-225.993C158.536,-207.557 177.992,-178.867 187.651,-164.625"/>
<polygon fill="#9a32cd" stroke="#9a32cd" points="143.089,-224.099 140.373,-234.34 148.882,-228.028 143.089,-224.099"/>
<text text-anchor="middle" x="197.5" y="-208" font-family="Helvetica,sans-Serif" font-size="10.00"> rotation</text>
<text text-anchor="middle" x="197.5" y="-197" font-family="Helvetica,sans-Serif" font-size="10.00">scaler</text>
<text text-anchor="middle" x="197.5" y="-186" font-family="Helvetica,sans-Serif" font-size="10.00">translation</text>
</g>
<!-- Node7&#45;&gt;Node6 -->
<g id="edge7" class="edge"><title>Node7&#45;&gt;Node6</title>
<path fill="none" stroke="orange" stroke-dasharray="5,2" d="M128.546,-300.072C130.156,-285.18 132.326,-265.111 133.552,-253.768"/>
<polygon fill="orange" stroke="orange" points="125.044,-299.902 127.449,-310.221 132.004,-300.655 125.044,-299.902"/>
<text text-anchor="middle" x="157" y="-279.5" font-family="Helvetica,sans-Serif" font-size="10.00"> &lt; float, 3 &gt;</text>
</g>
</g>
</svg>
