<?xml version="1.0" encoding="UTF-8" standalone="no"?>
<!DOCTYPE svg PUBLIC "-//W3C//DTD SVG 1.1//EN"
 "http://www.w3.org/Graphics/SVG/1.1/DTD/svg11.dtd">
<!-- Generated by graphviz version 2.38.0 (20140413.2041)
 -->
<!-- Title: mc::Matrix&lt; T, W, H &gt; Pages: 1 -->
<svg width="326pt" height="456pt"
 viewBox="0.00 0.00 325.50 456.00" xmlns="http://www.w3.org/2000/svg" xmlns:xlink="http://www.w3.org/1999/xlink">
<g id="graph0" class="graph" transform="scale(1 1) rotate(0) translate(4 452)">
<title>mc::Matrix&lt; T, W, H &gt;</title>
<polygon fill="white" stroke="none" points="-4,4 -4,-452 321.5,-452 321.5,4 -4,4"/>
<!-- Node1 -->
<g id="node1" class="node"><title>Node1</title>
<polygon fill="#bfbfbf" stroke="black" points="112,-0.5 112,-19.5 227,-19.5 227,-0.5 112,-0.5"/>
<text text-anchor="middle" x="169.5" y="-7.5" font-family="Helvetica,sans-Serif" font-size="10.00">mc::Matrix&lt; T, W, H &gt;</text>
</g>
<!-- Node2 -->
<g id="node2" class="node"><title>Node2</title>
<g id="a_node2"><a xlink:href="../../d1/d09/a00077.html" target="_top" xlink:title="mc::VectorBase\&lt; Matrix\l\&lt; T, W, H \&gt;, MatrixRow\l\&lt; T, H \&gt;, W \&gt;">
<polygon fill="white" stroke="black" points="108,-57.5 108,-98.5 231,-98.5 231,-57.5 108,-57.5"/>
<text text-anchor="start" x="116" y="-86.5" font-family="Helvetica,sans-Serif" font-size="10.00">mc::VectorBase&lt; Matrix</text>
<text text-anchor="start" x="116" y="-75.5" font-family="Helvetica,sans-Serif" font-size="10.00">&lt; T, W, H &gt;, MatrixRow</text>
<text text-anchor="middle" x="169.5" y="-64.5" font-family="Helvetica,sans-Serif" font-size="10.00">&lt; T, H &gt;, W &gt;</text>
</a>
</g>
</g>
<!-- Node2&#45;&gt;Node1 -->
<g id="edge1" class="edge"><title>Node2&#45;&gt;Node1</title>
<path fill="none" stroke="midnightblue" d="M169.5,-47.1201C169.5,-37.1695 169.5,-26.8372 169.5,-19.7856"/>
<polygon fill="midnightblue" stroke="midnightblue" points="166,-47.1978 169.5,-57.1978 173,-47.1979 166,-47.1978"/>
</g>
<!-- Node3 -->
<g id="node3" class="node"><title>Node3</title>
<g id="a_node3"><a xlink:href="../../d4/d31/a00069.html" target="_top" xlink:title="mc::Vector\&lt; T, H \&gt;">
<polygon fill="white" stroke="black" points="67,-146.5 67,-165.5 168,-165.5 168,-146.5 67,-146.5"/>
<text text-anchor="middle" x="117.5" y="-153.5" font-family="Helvetica,sans-Serif" font-size="10.00">mc::Vector&lt; T, H &gt;</text>
</a>
</g>
</g>
<!-- Node3&#45;&gt;Node2 -->
<g id="edge2" class="edge"><title>Node3&#45;&gt;Node2</title>
<path fill="none" stroke="#9a32cd" stroke-dasharray="5,2" d="M129.204,-137.894C137.171,-126.25 147.736,-110.809 156.05,-98.6584"/>
<polygon fill="#9a32cd" stroke="#9a32cd" points="126.223,-136.052 123.465,-146.282 132.001,-140.005 126.223,-136.052"/>
<text text-anchor="middle" x="161.5" y="-120" font-family="Helvetica,sans-Serif" font-size="10.00"> content</text>
</g>
<!-- Node4 -->
<g id="node4" class="node"><title>Node4</title>
<g id="a_node4"><a xlink:href="../../d1/d09/a00077.html" target="_top" xlink:title="mc::VectorBase\&lt; Vector\l\&lt; T, N \&gt;, T, N \&gt;">
<polygon fill="white" stroke="black" points="0,-272.5 0,-302.5 125,-302.5 125,-272.5 0,-272.5"/>
<text text-anchor="start" x="8" y="-290.5" font-family="Helvetica,sans-Serif" font-size="10.00">mc::VectorBase&lt; Vector</text>
<text text-anchor="middle" x="62.5" y="-279.5" font-family="Helvetica,sans-Serif" font-size="10.00">&lt; T, N &gt;, T, N &gt;</text>
</a>
</g>
</g>
<!-- Node4&#45;&gt;Node3 -->
<g id="edge3" class="edge"><title>Node4&#45;&gt;Node3</title>
<path fill="none" stroke="midnightblue" d="M55.379,-262.36C52.3103,-247.532 50.773,-228.48 57.5,-213 66.6997,-191.829 88.2831,-175.028 102.893,-165.543"/>
<polygon fill="midnightblue" stroke="midnightblue" points="52.0308,-263.405 57.7879,-272.299 58.8338,-261.756 52.0308,-263.405"/>
</g>
<!-- Node7 -->
<g id="node7" class="node"><title>Node7</title>
<g id="a_node7"><a xlink:href="../../d4/d31/a00069.html" target="_top" xlink:title="mc::Vector\&lt; T, N \&gt;">
<polygon fill="white" stroke="black" points="67,-214.5 67,-233.5 168,-233.5 168,-214.5 67,-214.5"/>
<text text-anchor="middle" x="117.5" y="-221.5" font-family="Helvetica,sans-Serif" font-size="10.00">mc::Vector&lt; T, N &gt;</text>
</a>
</g>
</g>
<!-- Node4&#45;&gt;Node7 -->
<g id="edge8" class="edge"><title>Node4&#45;&gt;Node7</title>
<path fill="none" stroke="midnightblue" d="M82.1888,-264.484C91.7124,-253.835 102.599,-241.662 109.736,-233.681"/>
<polygon fill="midnightblue" stroke="midnightblue" points="79.3136,-262.449 75.2563,-272.236 84.5315,-267.115 79.3136,-262.449"/>
</g>
<!-- Node5 -->
<g id="node5" class="node"><title>Node5</title>
<polygon fill="white" stroke="#bfbfbf" points="69,-428.5 69,-447.5 98,-447.5 98,-428.5 69,-428.5"/>
<text text-anchor="middle" x="83.5" y="-435.5" font-family="Helvetica,sans-Serif" font-size="10.00">T</text>
</g>
<!-- Node5&#45;&gt;Node4 -->
<g id="edge4" class="edge"><title>Node5&#45;&gt;Node4</title>
<path fill="none" stroke="#9a32cd" stroke-dasharray="5,2" d="M72.2101,-419.689C65.9335,-409.013 58.7505,-394.769 55.5,-381 49.0987,-353.884 54.5459,-321.174 58.751,-302.814"/>
<polygon fill="#9a32cd" stroke="#9a32cd" points="69.3448,-421.711 77.5807,-428.375 75.2987,-418.029 69.3448,-421.711"/>
<text text-anchor="middle" x="73.5" y="-363" font-family="Helvetica,sans-Serif" font-size="10.00"> content</text>
</g>
<!-- Node6 -->
<g id="node6" class="node"><title>Node6</title>
<g id="a_node6"><a xlink:href="../../d1/d09/a00077.html" target="_top" xlink:title="1&#45;dimensional vector class that supports mathmatical operations. ">
<polygon fill="white" stroke="black" points="101,-350.5 101,-380.5 222,-380.5 222,-350.5 101,-350.5"/>
<text text-anchor="start" x="109" y="-368.5" font-family="Helvetica,sans-Serif" font-size="10.00">mc::VectorBase&lt; Child,</text>
<text text-anchor="middle" x="161.5" y="-357.5" font-family="Helvetica,sans-Serif" font-size="10.00"> T, N &gt;</text>
</a>
</g>
</g>
<!-- Node5&#45;&gt;Node6 -->
<g id="edge6" class="edge"><title>Node5&#45;&gt;Node6</title>
<path fill="none" stroke="#9a32cd" stroke-dasharray="5,2" d="M100.715,-421.44C114.222,-409.232 132.861,-392.386 145.926,-380.576"/>
<polygon fill="#9a32cd" stroke="#9a32cd" points="98.1362,-419.053 93.0643,-428.355 102.83,-424.246 98.1362,-419.053"/>
<text text-anchor="middle" x="143.5" y="-402" font-family="Helvetica,sans-Serif" font-size="10.00"> content</text>
</g>
<!-- Node6&#45;&gt;Node2 -->
<g id="edge9" class="edge"><title>Node6&#45;&gt;Node2</title>
<path fill="none" stroke="orange" stroke-dasharray="5,2" d="M183.055,-342.76C185.802,-339.33 188.387,-335.691 190.5,-332 200.591,-314.374 204.5,-308.81 204.5,-288.5 204.5,-288.5 204.5,-288.5 204.5,-155 204.5,-134.373 193.731,-113.245 184.14,-98.519"/>
<polygon fill="orange" stroke="orange" points="180.41,-340.468 176.496,-350.314 185.695,-345.058 180.41,-340.468"/>
<text text-anchor="start" x="204.5" y="-227" font-family="Helvetica,sans-Serif" font-size="10.00"> &lt; Matrix&lt; T, W, H &gt;</text>
<text text-anchor="middle" x="261" y="-216" font-family="Helvetica,sans-Serif" font-size="10.00">, MatrixRow&lt; T, H &gt;, W &gt;</text>
</g>
<!-- Node6&#45;&gt;Node4 -->
<g id="edge5" class="edge"><title>Node6&#45;&gt;Node4</title>
<path fill="none" stroke="orange" stroke-dasharray="5,2" d="M99.5653,-345.884C92.597,-342.053 86.029,-337.47 80.5,-332 72.4818,-324.068 67.8776,-312.047 65.3367,-302.65"/>
<polygon fill="orange" stroke="orange" points="98.0441,-349.037 108.558,-350.346 101.156,-342.766 98.0441,-349.037"/>
<text text-anchor="middle" x="135.5" y="-324" font-family="Helvetica,sans-Serif" font-size="10.00"> &lt; Vector&lt; T, N &gt;, T, N &gt;</text>
</g>
<!-- Node7&#45;&gt;Node3 -->
<g id="edge7" class="edge"><title>Node7&#45;&gt;Node3</title>
<path fill="none" stroke="orange" stroke-dasharray="5,2" d="M117.5,-204.041C117.5,-191.472 117.5,-175.563 117.5,-165.841"/>
<polygon fill="orange" stroke="orange" points="114,-204.372 117.5,-214.372 121,-204.372 114,-204.372"/>
<text text-anchor="middle" x="137.5" y="-187" font-family="Helvetica,sans-Serif" font-size="10.00"> &lt; T, H &gt;</text>
</g>
</g>
</svg>
