<?xml version="1.0" encoding="UTF-8" standalone="no"?>
<!DOCTYPE svg PUBLIC "-//W3C//DTD SVG 1.1//EN"
 "http://www.w3.org/Graphics/SVG/1.1/DTD/svg11.dtd">
<!-- Generated by graphviz version 2.38.0 (20140413.2041)
 -->
<!-- Title: mc::Vector&lt; T, N &gt; Pages: 1 -->
<svg width="258pt" height="174pt"
 viewBox="0.00 0.00 257.50 174.00" xmlns="http://www.w3.org/2000/svg" xmlns:xlink="http://www.w3.org/1999/xlink">
<g id="graph0" class="graph" transform="scale(1 1) rotate(0) translate(4 170)">
<title>mc::Vector&lt; T, N &gt;</title>
<polygon fill="white" stroke="none" points="-4,4 -4,-170 253.5,-170 253.5,4 -4,4"/>
<!-- Node1 -->
<g id="node1" class="node"><title>Node1</title>
<polygon fill="#bfbfbf" stroke="black" points="84,-146.5 84,-165.5 185,-165.5 185,-146.5 84,-146.5"/>
<text text-anchor="middle" x="134.5" y="-153.5" font-family="Helvetica,sans-Serif" font-size="10.00">mc::Vector&lt; T, N &gt;</text>
</g>
<!-- Node2 -->
<g id="node2" class="node"><title>Node2</title>
<g id="a_node2"><a xlink:href="$d1/dea/a00054.html" xlink:title="mc::Vector\&lt; MatrixRow\l\&lt; T, H \&gt;, W \&gt;">
<polygon fill="white" stroke="black" points="0,-57.5 0,-87.5 119,-87.5 119,-57.5 0,-57.5"/>
<text text-anchor="start" x="8" y="-75.5" font-family="Helvetica,sans-Serif" font-size="10.00">mc::Vector&lt; MatrixRow</text>
<text text-anchor="middle" x="59.5" y="-64.5" font-family="Helvetica,sans-Serif" font-size="10.00">&lt; T, H &gt;, W &gt;</text>
</a>
</g>
</g>
<!-- Node1&#45;&gt;Node2 -->
<g id="edge1" class="edge"><title>Node1&#45;&gt;Node2</title>
<path fill="none" stroke="orange" stroke-dasharray="5,2" d="M84.9365,-142.119C78.2674,-138.509 72.1388,-133.895 67.5,-128 58.5106,-116.577 57.3758,-99.5053 57.9374,-87.52"/>
<polygon fill="orange" stroke="orange" points="83.7315,-145.418 94.2764,-146.445 86.6738,-139.066 83.7315,-145.418"/>
<text text-anchor="start" x="67.5" y="-120" font-family="Helvetica,sans-Serif" font-size="10.00"> &lt; MatrixRow&lt; T, H &gt;</text>
<text text-anchor="middle" x="114.5" y="-109" font-family="Helvetica,sans-Serif" font-size="10.00">, W &gt;</text>
</g>
<!-- Node4 -->
<g id="node4" class="node"><title>Node4</title>
<g id="a_node4"><a xlink:href="$d1/dea/a00054.html" xlink:title="mc::Vector\&lt; float, 3 \&gt;">
<polygon fill="white" stroke="black" points="137.5,-63 137.5,-82 249.5,-82 249.5,-63 137.5,-63"/>
<text text-anchor="middle" x="193.5" y="-70" font-family="Helvetica,sans-Serif" font-size="10.00">mc::Vector&lt; float, 3 &gt;</text>
</a>
</g>
</g>
<!-- Node1&#45;&gt;Node4 -->
<g id="edge3" class="edge"><title>Node1&#45;&gt;Node4</title>
<path fill="none" stroke="orange" stroke-dasharray="5,2" d="M154.036,-139.996C158.112,-136.337 162.175,-132.246 165.5,-128 176.913,-113.428 185.747,-93.4873 190.235,-82.2077"/>
<polygon fill="orange" stroke="orange" points="151.785,-137.316 146.374,-146.425 156.284,-142.678 151.785,-137.316"/>
<text text-anchor="middle" x="205" y="-114.5" font-family="Helvetica,sans-Serif" font-size="10.00"> &lt; float, 3 &gt;</text>
</g>
<!-- Node3 -->
<g id="node3" class="node"><title>Node3</title>
<g id="a_node3"><a xlink:href="$d5/d79/a00030.html" xlink:title="A class representing a 2&#45;dimensional matrix, and allows for math involving matrices. ">
<polygon fill="white" stroke="black" points="2,-0.5 2,-19.5 117,-19.5 117,-0.5 2,-0.5"/>
<text text-anchor="middle" x="59.5" y="-7.5" font-family="Helvetica,sans-Serif" font-size="10.00">mc::Matrix&lt; T, W, H &gt;</text>
</a>
</g>
</g>
<!-- Node2&#45;&gt;Node3 -->
<g id="edge2" class="edge"><title>Node2&#45;&gt;Node3</title>
<path fill="none" stroke="midnightblue" d="M59.5,-47.3524C59.5,-37.5132 59.5,-26.7753 59.5,-19.5399"/>
<polygon fill="midnightblue" stroke="midnightblue" points="56.0001,-47.468 59.5,-57.468 63.0001,-47.4681 56.0001,-47.468"/>
</g>
</g>
</svg>
