<?xml version="1.0" encoding="UTF-8" standalone="no"?>
<!DOCTYPE svg PUBLIC "-//W3C//DTD SVG 1.1//EN"
 "http://www.w3.org/Graphics/SVG/1.1/DTD/svg11.dtd">
<!-- Generated by graphviz version 2.38.0 (20140413.2041)
 -->
<!-- Title: mc::Initializable Pages: 1 -->
<svg width="742pt" height="712pt"
 viewBox="0.00 0.00 742.00 712.00" xmlns="http://www.w3.org/2000/svg" xmlns:xlink="http://www.w3.org/1999/xlink">
<g id="graph0" class="graph" transform="scale(1 1) rotate(0) translate(4 708)">
<title>mc::Initializable</title>
<polygon fill="white" stroke="none" points="-4,4 -4,-708 738,-708 738,4 -4,4"/>
<!-- Node1 -->
<g id="node1" class="node"><title>Node1</title>
<polygon fill="#bfbfbf" stroke="black" points="0,-190.5 0,-209.5 84,-209.5 84,-190.5 0,-190.5"/>
<text text-anchor="middle" x="42" y="-197.5" font-family="Helvetica,sans-Serif" font-size="10.00">mc::Initializable</text>
</g>
<!-- Node2 -->
<g id="node2" class="node"><title>Node2</title>
<g id="a_node2"><a xlink:href="../../dd/d1b/a00015.html" target="_top" xlink:title="Can be plugged into an Entity to allow for additional functionality by listening to events...">
<polygon fill="white" stroke="black" points="120.5,-608.5 120.5,-627.5 224.5,-627.5 224.5,-608.5 120.5,-608.5"/>
<text text-anchor="middle" x="172.5" y="-615.5" font-family="Helvetica,sans-Serif" font-size="10.00">mc::gfx::Component</text>
</a>
</g>
</g>
<!-- Node1&#45;&gt;Node2 -->
<g id="edge1" class="edge"><title>Node1&#45;&gt;Node2</title>
<path fill="none" stroke="midnightblue" d="M46.6908,-219.482C56.1921,-268.232 83.3414,-399.099 120,-504 133.971,-543.978 156.539,-589.197 166.501,-608.476"/>
<polygon fill="midnightblue" stroke="midnightblue" points="50.1227,-218.794 44.7956,-209.636 43.2489,-220.118 50.1227,-218.794"/>
</g>
<!-- Node7 -->
<g id="node7" class="node"><title>Node7</title>
<g id="a_node7"><a xlink:href="../../de/d11/a00021.html" target="_top" xlink:title="Abstract superclass for all graphical objects. ">
<polygon fill="white" stroke="black" points="132.5,-475.5 132.5,-494.5 212.5,-494.5 212.5,-475.5 132.5,-475.5"/>
<text text-anchor="middle" x="172.5" y="-482.5" font-family="Helvetica,sans-Serif" font-size="10.00">mc::gfx::Entity</text>
</a>
</g>
</g>
<!-- Node1&#45;&gt;Node7 -->
<g id="edge6" class="edge"><title>Node1&#45;&gt;Node7</title>
<path fill="none" stroke="midnightblue" d="M46.8135,-219.732C55.3283,-260.722 78.4765,-357.167 120,-428 130.926,-446.639 148.647,-464.514 160.188,-475.127"/>
<polygon fill="midnightblue" stroke="midnightblue" points="50.2006,-218.821 44.7969,-209.708 43.3381,-220.202 50.2006,-218.821"/>
</g>
<!-- Node17 -->
<g id="node17" class="node"><title>Node17</title>
<g id="a_node17"><a xlink:href="../../da/da0/a00009.html" target="_top" xlink:title="mc::gfx::ogl::Binder">
<polygon fill="white" stroke="black" points="122,-266.5 122,-285.5 223,-285.5 223,-266.5 122,-266.5"/>
<text text-anchor="middle" x="172.5" y="-273.5" font-family="Helvetica,sans-Serif" font-size="10.00">mc::gfx::ogl::Binder</text>
</a>
</g>
</g>
<!-- Node1&#45;&gt;Node17 -->
<g id="edge16" class="edge"><title>Node1&#45;&gt;Node17</title>
<path fill="none" stroke="midnightblue" d="M61.7676,-216.274C76.7603,-228.668 98.7156,-245.501 120,-257 126.624,-260.579 134.064,-263.758 141.186,-266.444"/>
<polygon fill="midnightblue" stroke="midnightblue" points="63.7053,-213.33 53.8024,-209.564 59.1953,-218.684 63.7053,-213.33"/>
</g>
<!-- Node18 -->
<g id="node18" class="node"><title>Node18</title>
<g id="a_node18"><a xlink:href="../../d6/d42/a00043.html" target="_top" xlink:title="Represents a OpenGL object in memory. ">
<polygon fill="white" stroke="black" points="121.5,-228.5 121.5,-247.5 223.5,-247.5 223.5,-228.5 121.5,-228.5"/>
<text text-anchor="middle" x="172.5" y="-235.5" font-family="Helvetica,sans-Serif" font-size="10.00">mc::gfx::ogl::Object</text>
</a>
</g>
</g>
<!-- Node1&#45;&gt;Node18 -->
<g id="edge17" class="edge"><title>Node1&#45;&gt;Node18</title>
<path fill="none" stroke="midnightblue" d="M85.3891,-212.535C102.87,-217.705 122.802,-223.599 139.084,-228.414"/>
<polygon fill="midnightblue" stroke="midnightblue" points="86.008,-209.069 75.426,-209.589 84.0229,-215.781 86.008,-209.069"/>
</g>
<!-- Node34 -->
<g id="node34" class="node"><title>Node34</title>
<g id="a_node34"><a xlink:href="../../d5/df9/a00044.html" target="_top" xlink:title="mc::gfx::Painter">
<polygon fill="white" stroke="black" points="129.5,-152.5 129.5,-171.5 215.5,-171.5 215.5,-152.5 129.5,-152.5"/>
<text text-anchor="middle" x="172.5" y="-159.5" font-family="Helvetica,sans-Serif" font-size="10.00">mc::gfx::Painter</text>
</a>
</g>
</g>
<!-- Node1&#45;&gt;Node34 -->
<g id="edge33" class="edge"><title>Node1&#45;&gt;Node34</title>
<path fill="none" stroke="midnightblue" d="M85.3891,-187.465C102.87,-182.295 122.802,-176.401 139.084,-171.586"/>
<polygon fill="midnightblue" stroke="midnightblue" points="84.0229,-184.219 75.426,-190.411 86.008,-190.931 84.0229,-184.219"/>
</g>
<!-- Node35 -->
<g id="node35" class="node"><title>Node35</title>
<g id="a_node35"><a xlink:href="../../d6/d97/a00045.html" target="_top" xlink:title="mc::gfx::PainterImpl">
<polygon fill="white" stroke="black" points="120.5,-114.5 120.5,-133.5 224.5,-133.5 224.5,-114.5 120.5,-114.5"/>
<text text-anchor="middle" x="172.5" y="-121.5" font-family="Helvetica,sans-Serif" font-size="10.00">mc::gfx::PainterImpl</text>
</a>
</g>
</g>
<!-- Node1&#45;&gt;Node35 -->
<g id="edge34" class="edge"><title>Node1&#45;&gt;Node35</title>
<path fill="none" stroke="midnightblue" d="M61.7676,-183.726C76.7603,-171.332 98.7156,-154.499 120,-143 126.624,-139.421 134.064,-136.242 141.186,-133.556"/>
<polygon fill="midnightblue" stroke="midnightblue" points="59.1953,-181.316 53.8024,-190.436 63.7053,-186.67 59.1953,-181.316"/>
</g>
<!-- Node37 -->
<g id="node37" class="node"><title>Node37</title>
<g id="a_node37"><a xlink:href="../../df/d5f/a00064.html" target="_top" xlink:title="mc::gfx::Texture">
<polygon fill="white" stroke="black" points="129,-76.5 129,-95.5 216,-95.5 216,-76.5 129,-76.5"/>
<text text-anchor="middle" x="172.5" y="-83.5" font-family="Helvetica,sans-Serif" font-size="10.00">mc::gfx::Texture</text>
</a>
</g>
</g>
<!-- Node1&#45;&gt;Node37 -->
<g id="edge36" class="edge"><title>Node1&#45;&gt;Node37</title>
<path fill="none" stroke="midnightblue" d="M53.5045,-181.819C66.5881,-160.644 90.8136,-125.905 120,-105 125.268,-101.226 131.372,-98.117 137.495,-95.5851"/>
<polygon fill="midnightblue" stroke="midnightblue" points="50.4426,-180.119 48.2994,-190.495 56.4453,-183.72 50.4426,-180.119"/>
</g>
<!-- Node38 -->
<g id="node38" class="node"><title>Node38</title>
<g id="a_node38"><a xlink:href="../../d9/db3/a00066.html" target="_top" xlink:title="mc::gfx::TextureImpl">
<polygon fill="white" stroke="black" points="120,-190.5 120,-209.5 225,-209.5 225,-190.5 120,-190.5"/>
<text text-anchor="middle" x="172.5" y="-197.5" font-family="Helvetica,sans-Serif" font-size="10.00">mc::gfx::TextureImpl</text>
</a>
</g>
</g>
<!-- Node1&#45;&gt;Node38 -->
<g id="edge37" class="edge"><title>Node1&#45;&gt;Node38</title>
<path fill="none" stroke="midnightblue" d="M94.0581,-200C102.456,-200 111.167,-200 119.586,-200"/>
<polygon fill="midnightblue" stroke="midnightblue" points="94.0115,-196.5 84.0115,-200 94.0115,-203.5 94.0115,-196.5"/>
</g>
<!-- Node39 -->
<g id="node39" class="node"><title>Node39</title>
<g id="a_node39"><a xlink:href="../../d5/db6/a00042.html" target="_top" xlink:title="Abstract class used for doing a task in MACE. ">
<polygon fill="white" stroke="black" points="138.5,-399.5 138.5,-418.5 206.5,-418.5 206.5,-399.5 138.5,-399.5"/>
<text text-anchor="middle" x="172.5" y="-406.5" font-family="Helvetica,sans-Serif" font-size="10.00">mc::Module</text>
</a>
</g>
</g>
<!-- Node1&#45;&gt;Node39 -->
<g id="edge39" class="edge"><title>Node1&#45;&gt;Node39</title>
<path fill="none" stroke="midnightblue" d="M54.1127,-218.074C80.3931,-260.818 145.656,-366.967 165.61,-399.421"/>
<polygon fill="midnightblue" stroke="midnightblue" points="57.0744,-216.209 48.8553,-209.523 51.1114,-219.875 57.0744,-216.209"/>
</g>
<!-- Node42 -->
<g id="node42" class="node"><title>Node42</title>
<g id="a_node42"><a xlink:href="../../d2/dee/a00049.html" target="_top" xlink:title="mc::Process">
<polygon fill="white" stroke="black" points="136.5,-38.5 136.5,-57.5 208.5,-57.5 208.5,-38.5 136.5,-38.5"/>
<text text-anchor="middle" x="172.5" y="-45.5" font-family="Helvetica,sans-Serif" font-size="10.00">mc::Process</text>
</a>
</g>
</g>
<!-- Node1&#45;&gt;Node42 -->
<g id="edge43" class="edge"><title>Node1&#45;&gt;Node42</title>
<path fill="none" stroke="midnightblue" d="M49.308,-180.819C59.662,-152.17 82.8967,-98.234 120,-67 124.812,-62.9493 130.566,-59.7244 136.456,-57.1687"/>
<polygon fill="midnightblue" stroke="midnightblue" points="45.9339,-179.867 45.9683,-190.462 52.5484,-182.158 45.9339,-179.867"/>
</g>
<!-- Node43 -->
<g id="node43" class="node"><title>Node43</title>
<g id="a_node43"><a xlink:href="../../d4/de8/a00061.html" target="_top" xlink:title="mc::Sound">
<polygon fill="white" stroke="black" points="140.5,-0.5 140.5,-19.5 204.5,-19.5 204.5,-0.5 140.5,-0.5"/>
<text text-anchor="middle" x="172.5" y="-7.5" font-family="Helvetica,sans-Serif" font-size="10.00">mc::Sound</text>
</a>
</g>
</g>
<!-- Node1&#45;&gt;Node43 -->
<g id="edge44" class="edge"><title>Node1&#45;&gt;Node43</title>
<path fill="none" stroke="midnightblue" d="M46.6473,-180.395C54.1737,-145.256 74.6671,-71.2803 120,-29 125.715,-23.67 133.053,-19.8051 140.387,-17.0136"/>
<polygon fill="midnightblue" stroke="midnightblue" points="43.1857,-179.856 44.6442,-190.35 50.0482,-181.237 43.1857,-179.856"/>
</g>
<!-- Node3 -->
<g id="node3" class="node"><title>Node3</title>
<g id="a_node3"><a xlink:href="../../de/d5e/a00007.html" target="_top" xlink:title="mc::gfx::AlignmentComponent">
<polygon fill="white" stroke="black" points="261,-684.5 261,-703.5 409,-703.5 409,-684.5 261,-684.5"/>
<text text-anchor="middle" x="335" y="-691.5" font-family="Helvetica,sans-Serif" font-size="10.00">mc::gfx::AlignmentComponent</text>
</a>
</g>
</g>
<!-- Node2&#45;&gt;Node3 -->
<g id="edge2" class="edge"><title>Node2&#45;&gt;Node3</title>
<path fill="none" stroke="midnightblue" d="M193.622,-633.822C210.695,-646.56 236.286,-664.082 261,-675 269.505,-678.757 278.908,-681.892 288.056,-684.46"/>
<polygon fill="midnightblue" stroke="midnightblue" points="195.598,-630.927 185.52,-627.657 191.359,-636.498 195.598,-630.927"/>
</g>
<!-- Node4 -->
<g id="node4" class="node"><title>Node4</title>
<g id="a_node4"><a xlink:href="../../d7/dd4/a00013.html" target="_top" xlink:title="mc::gfx::CallbackComponent">
<polygon fill="white" stroke="black" points="264,-646.5 264,-665.5 406,-665.5 406,-646.5 264,-646.5"/>
<text text-anchor="middle" x="335" y="-653.5" font-family="Helvetica,sans-Serif" font-size="10.00">mc::gfx::CallbackComponent</text>
</a>
</g>
</g>
<!-- Node2&#45;&gt;Node4 -->
<g id="edge3" class="edge"><title>Node2&#45;&gt;Node4</title>
<path fill="none" stroke="midnightblue" d="M223.745,-629.896C246.305,-635.237 272.561,-641.454 293.79,-646.48"/>
<polygon fill="midnightblue" stroke="midnightblue" points="224.538,-626.487 214.001,-627.589 222.926,-633.299 224.538,-626.487"/>
</g>
<!-- Node5 -->
<g id="node5" class="node"><title>Node5</title>
<g id="a_node5"><a xlink:href="../../dd/da2/a00019.html" target="_top" xlink:title="mc::gfx::EaseComponent">
<polygon fill="white" stroke="black" points="271.5,-608.5 271.5,-627.5 398.5,-627.5 398.5,-608.5 271.5,-608.5"/>
<text text-anchor="middle" x="335" y="-615.5" font-family="Helvetica,sans-Serif" font-size="10.00">mc::gfx::EaseComponent</text>
</a>
</g>
</g>
<!-- Node2&#45;&gt;Node5 -->
<g id="edge4" class="edge"><title>Node2&#45;&gt;Node5</title>
<path fill="none" stroke="midnightblue" d="M235.034,-618C246.969,-618 259.489,-618 271.456,-618"/>
<polygon fill="midnightblue" stroke="midnightblue" points="234.725,-614.5 224.724,-618 234.724,-621.5 234.725,-614.5"/>
</g>
<!-- Node6 -->
<g id="node6" class="node"><title>Node6</title>
<g id="a_node6"><a xlink:href="../../d3/dfe/a00025.html" target="_top" xlink:title="mc::gfx::FPSComponent">
<polygon fill="white" stroke="black" points="273,-570.5 273,-589.5 397,-589.5 397,-570.5 273,-570.5"/>
<text text-anchor="middle" x="335" y="-577.5" font-family="Helvetica,sans-Serif" font-size="10.00">mc::gfx::FPSComponent</text>
</a>
</g>
</g>
<!-- Node2&#45;&gt;Node6 -->
<g id="edge5" class="edge"><title>Node2&#45;&gt;Node6</title>
<path fill="none" stroke="midnightblue" d="M223.745,-606.104C246.305,-600.763 272.561,-594.546 293.79,-589.52"/>
<polygon fill="midnightblue" stroke="midnightblue" points="222.926,-602.701 214.001,-608.411 224.538,-609.513 222.926,-602.701"/>
</g>
<!-- Node8 -->
<g id="node8" class="node"><title>Node8</title>
<g id="a_node8"><a xlink:href="../../d5/d16/a00029.html" target="_top" xlink:title="mc::gfx::GraphicsEntity">
<polygon fill="white" stroke="black" points="275.5,-532.5 275.5,-551.5 394.5,-551.5 394.5,-532.5 275.5,-532.5"/>
<text text-anchor="middle" x="335" y="-539.5" font-family="Helvetica,sans-Serif" font-size="10.00">mc::gfx::GraphicsEntity</text>
</a>
</g>
</g>
<!-- Node7&#45;&gt;Node8 -->
<g id="edge7" class="edge"><title>Node7&#45;&gt;Node8</title>
<path fill="none" stroke="midnightblue" d="M202.591,-498.986C219.405,-506.726 241.107,-516.138 261,-523 271.152,-526.502 282.29,-529.71 292.741,-532.453"/>
<polygon fill="midnightblue" stroke="midnightblue" points="203.849,-495.711 193.307,-494.654 200.889,-502.055 203.849,-495.711"/>
</g>
<!-- Node15 -->
<g id="node15" class="node"><title>Node15</title>
<g id="a_node15"><a xlink:href="../../d5/d79/a00030.html" target="_top" xlink:title="mc::gfx::Group">
<polygon fill="white" stroke="black" points="294.5,-494.5 294.5,-513.5 375.5,-513.5 375.5,-494.5 294.5,-494.5"/>
<text text-anchor="middle" x="335" y="-501.5" font-family="Helvetica,sans-Serif" font-size="10.00">mc::gfx::Group</text>
</a>
</g>
</g>
<!-- Node7&#45;&gt;Node15 -->
<g id="edge14" class="edge"><title>Node7&#45;&gt;Node15</title>
<path fill="none" stroke="midnightblue" d="M222.979,-490.857C245.892,-493.57 272.749,-496.749 294.307,-499.301"/>
<polygon fill="midnightblue" stroke="midnightblue" points="223.105,-487.348 212.763,-489.648 222.282,-494.299 223.105,-487.348"/>
</g>
<!-- Node16 -->
<g id="node16" class="node"><title>Node16</title>
<g id="a_node16"><a xlink:href="../../da/dec/a00080.html" target="_top" xlink:title="mc::os::WindowModule">
<polygon fill="white" stroke="black" points="275.5,-456.5 275.5,-475.5 394.5,-475.5 394.5,-456.5 275.5,-456.5"/>
<text text-anchor="middle" x="335" y="-463.5" font-family="Helvetica,sans-Serif" font-size="10.00">mc::os::WindowModule</text>
</a>
</g>
</g>
<!-- Node7&#45;&gt;Node16 -->
<g id="edge15" class="edge"><title>Node7&#45;&gt;Node16</title>
<path fill="none" stroke="midnightblue" d="M222.81,-479.163C239.432,-477.195 258.144,-474.98 275.411,-472.936"/>
<polygon fill="midnightblue" stroke="midnightblue" points="222.282,-475.701 212.763,-480.352 223.105,-482.652 222.282,-475.701"/>
</g>
<!-- Node9 -->
<g id="node9" class="node"><title>Node9</title>
<g id="a_node9"><a xlink:href="../../d7/de0/a00022.html" target="_top" xlink:title="mc::gfx::Entity2D">
<polygon fill="white" stroke="black" points="471,-532.5 471,-551.5 563,-551.5 563,-532.5 471,-532.5"/>
<text text-anchor="middle" x="517" y="-539.5" font-family="Helvetica,sans-Serif" font-size="10.00">mc::gfx::Entity2D</text>
</a>
</g>
</g>
<!-- Node8&#45;&gt;Node9 -->
<g id="edge8" class="edge"><title>Node8&#45;&gt;Node9</title>
<path fill="none" stroke="midnightblue" d="M404.952,-542C427.065,-542 450.974,-542 470.923,-542"/>
<polygon fill="midnightblue" stroke="midnightblue" points="404.939,-538.5 394.939,-542 404.939,-545.5 404.939,-538.5"/>
</g>
<!-- Node10 -->
<g id="node10" class="node"><title>Node10</title>
<g id="a_node10"><a xlink:href="../../df/d86/a00012.html" target="_top" xlink:title="mc::gfx::Button">
<polygon fill="white" stroke="black" points="638,-608.5 638,-627.5 721,-627.5 721,-608.5 638,-608.5"/>
<text text-anchor="middle" x="679.5" y="-615.5" font-family="Helvetica,sans-Serif" font-size="10.00">mc::gfx::Button</text>
</a>
</g>
</g>
<!-- Node9&#45;&gt;Node10 -->
<g id="edge9" class="edge"><title>Node9&#45;&gt;Node10</title>
<path fill="none" stroke="midnightblue" d="M543.058,-556.714C564.415,-568.92 596.146,-586.275 625,-599 632.666,-602.381 641.139,-605.611 649.038,-608.418"/>
<polygon fill="midnightblue" stroke="midnightblue" points="544.713,-553.628 534.302,-551.665 541.216,-559.692 544.713,-553.628"/>
</g>
<!-- Node11 -->
<g id="node11" class="node"><title>Node11</title>
<g id="a_node11"><a xlink:href="../../df/d61/a00031.html" target="_top" xlink:title="mc::gfx::Image">
<polygon fill="white" stroke="black" points="639,-570.5 639,-589.5 720,-589.5 720,-570.5 639,-570.5"/>
<text text-anchor="middle" x="679.5" y="-577.5" font-family="Helvetica,sans-Serif" font-size="10.00">mc::gfx::Image</text>
</a>
</g>
</g>
<!-- Node9&#45;&gt;Node11 -->
<g id="edge10" class="edge"><title>Node9&#45;&gt;Node11</title>
<path fill="none" stroke="midnightblue" d="M568.321,-553.914C591.061,-559.298 617.543,-565.568 638.845,-570.611"/>
<polygon fill="midnightblue" stroke="midnightblue" points="569.038,-550.487 558.501,-551.589 567.426,-557.299 569.038,-550.487"/>
</g>
<!-- Node12 -->
<g id="node12" class="node"><title>Node12</title>
<g id="a_node12"><a xlink:href="../../d8/d41/a00038.html" target="_top" xlink:title="mc::gfx::Letter">
<polygon fill="white" stroke="black" points="639.5,-532.5 639.5,-551.5 719.5,-551.5 719.5,-532.5 639.5,-532.5"/>
<text text-anchor="middle" x="679.5" y="-539.5" font-family="Helvetica,sans-Serif" font-size="10.00">mc::gfx::Letter</text>
</a>
</g>
</g>
<!-- Node9&#45;&gt;Node12 -->
<g id="edge11" class="edge"><title>Node9&#45;&gt;Node12</title>
<path fill="none" stroke="midnightblue" d="M573.249,-542C595.029,-542 619.538,-542 639.422,-542"/>
<polygon fill="midnightblue" stroke="midnightblue" points="573.135,-538.5 563.135,-542 573.135,-545.5 573.135,-538.5"/>
</g>
<!-- Node13 -->
<g id="node13" class="node"><title>Node13</title>
<g id="a_node13"><a xlink:href="../../d5/de0/a00050.html" target="_top" xlink:title="mc::gfx::ProgressBar">
<polygon fill="white" stroke="black" points="625,-494.5 625,-513.5 734,-513.5 734,-494.5 625,-494.5"/>
<text text-anchor="middle" x="679.5" y="-501.5" font-family="Helvetica,sans-Serif" font-size="10.00">mc::gfx::ProgressBar</text>
</a>
</g>
</g>
<!-- Node9&#45;&gt;Node13 -->
<g id="edge12" class="edge"><title>Node9&#45;&gt;Node13</title>
<path fill="none" stroke="midnightblue" d="M568.245,-530.104C590.805,-524.763 617.061,-518.546 638.29,-513.52"/>
<polygon fill="midnightblue" stroke="midnightblue" points="567.426,-526.701 558.501,-532.411 569.038,-533.513 567.426,-526.701"/>
</g>
<!-- Node14 -->
<g id="node14" class="node"><title>Node14</title>
<g id="a_node14"><a xlink:href="../../d1/d6f/a00063.html" target="_top" xlink:title="mc::gfx::Text">
<polygon fill="white" stroke="black" points="642.5,-456.5 642.5,-475.5 716.5,-475.5 716.5,-456.5 642.5,-456.5"/>
<text text-anchor="middle" x="679.5" y="-463.5" font-family="Helvetica,sans-Serif" font-size="10.00">mc::gfx::Text</text>
</a>
</g>
</g>
<!-- Node9&#45;&gt;Node14 -->
<g id="edge13" class="edge"><title>Node9&#45;&gt;Node14</title>
<path fill="none" stroke="midnightblue" d="M543.058,-527.286C564.415,-515.08 596.146,-497.725 625,-485 632.666,-481.619 641.139,-478.389 649.038,-475.582"/>
<polygon fill="midnightblue" stroke="midnightblue" points="541.216,-524.308 534.302,-532.335 544.713,-530.372 541.216,-524.308"/>
</g>
<!-- Node19 -->
<g id="node19" class="node"><title>Node19</title>
<g id="a_node19"><a xlink:href="../../da/d45/a00011.html" target="_top" xlink:title="Represents a sslBuffer of memory in the GPU. ">
<polygon fill="white" stroke="black" points="286,-342.5 286,-361.5 384,-361.5 384,-342.5 286,-342.5"/>
<text text-anchor="middle" x="335" y="-349.5" font-family="Helvetica,sans-Serif" font-size="10.00">mc::gfx::ogl::Buffer</text>
</a>
</g>
</g>
<!-- Node18&#45;&gt;Node19 -->
<g id="edge18" class="edge"><title>Node18&#45;&gt;Node19</title>
<path fill="none" stroke="midnightblue" d="M219.479,-252.665C221.432,-253.99 223.286,-255.432 225,-257 252.577,-282.228 232.21,-309.165 261,-333 268.162,-338.929 276.967,-343.031 285.952,-345.863"/>
<polygon fill="midnightblue" stroke="midnightblue" points="220.852,-249.422 210.42,-247.571 217.421,-255.523 220.852,-249.422"/>
</g>
<!-- Node27 -->
<g id="node27" class="node"><title>Node27</title>
<g id="a_node27"><a xlink:href="../../d6/d5b/a00026.html" target="_top" xlink:title="Represents an OpenGL Framebuffer Object which allows rendering to a non&#45;screen location. ">
<polygon fill="white" stroke="black" points="272,-304.5 272,-323.5 398,-323.5 398,-304.5 272,-304.5"/>
<text text-anchor="middle" x="335" y="-311.5" font-family="Helvetica,sans-Serif" font-size="10.00">mc::gfx::ogl::FrameBuffer</text>
</a>
</g>
</g>
<!-- Node18&#45;&gt;Node27 -->
<g id="edge26" class="edge"><title>Node18&#45;&gt;Node27</title>
<path fill="none" stroke="midnightblue" d="M215.724,-251.714C218.954,-253.32 222.087,-255.079 225,-257 244.422,-269.806 240.969,-283.168 261,-295 267.54,-298.863 274.864,-301.951 282.28,-304.416"/>
<polygon fill="midnightblue" stroke="midnightblue" points="217.022,-248.461 206.463,-247.591 214.175,-254.856 217.022,-248.461"/>
</g>
<!-- Node28 -->
<g id="node28" class="node"><title>Node28</title>
<g id="a_node28"><a xlink:href="../../d2/d79/a00051.html" target="_top" xlink:title="Special object that is used for asynchronous queries of information from the GPU. ...">
<polygon fill="white" stroke="black" points="271,-266.5 271,-285.5 399,-285.5 399,-266.5 271,-266.5"/>
<text text-anchor="middle" x="335" y="-273.5" font-family="Helvetica,sans-Serif" font-size="10.00">mc::gfx::ogl::QueryObject</text>
</a>
</g>
</g>
<!-- Node18&#45;&gt;Node28 -->
<g id="edge27" class="edge"><title>Node18&#45;&gt;Node28</title>
<path fill="none" stroke="midnightblue" d="M223.745,-249.896C246.305,-255.237 272.561,-261.454 293.79,-266.48"/>
<polygon fill="midnightblue" stroke="midnightblue" points="224.538,-246.487 214.001,-247.589 222.926,-253.299 224.538,-246.487"/>
</g>
<!-- Node29 -->
<g id="node29" class="node"><title>Node29</title>
<g id="a_node29"><a xlink:href="../../d1/d84/a00052.html" target="_top" xlink:title="Represents a render buffer for use with a `FrameBuffer. ">
<polygon fill="white" stroke="black" points="270.5,-228.5 270.5,-247.5 399.5,-247.5 399.5,-228.5 270.5,-228.5"/>
<text text-anchor="middle" x="335" y="-235.5" font-family="Helvetica,sans-Serif" font-size="10.00">mc::gfx::ogl::RenderBuffer</text>
</a>
</g>
</g>
<!-- Node18&#45;&gt;Node29 -->
<g id="edge28" class="edge"><title>Node18&#45;&gt;Node29</title>
<path fill="none" stroke="midnightblue" d="M234.053,-238C245.882,-238 258.32,-238 270.249,-238"/>
<polygon fill="midnightblue" stroke="midnightblue" points="233.843,-234.5 223.843,-238 233.843,-241.5 233.843,-234.5"/>
</g>
<!-- Node30 -->
<g id="node30" class="node"><title>Node30</title>
<g id="a_node30"><a xlink:href="../../d9/d2e/a00056.html" target="_top" xlink:title="Represents a shader object in OpenGL. ">
<polygon fill="white" stroke="black" points="283,-190.5 283,-209.5 387,-209.5 387,-190.5 283,-190.5"/>
<text text-anchor="middle" x="335" y="-197.5" font-family="Helvetica,sans-Serif" font-size="10.00">mc::gfx::ogl::Shader</text>
</a>
</g>
</g>
<!-- Node18&#45;&gt;Node30 -->
<g id="edge29" class="edge"><title>Node18&#45;&gt;Node30</title>
<path fill="none" stroke="midnightblue" d="M223.745,-226.104C246.305,-220.763 272.561,-214.546 293.79,-209.52"/>
<polygon fill="midnightblue" stroke="midnightblue" points="222.926,-222.701 214.001,-228.411 224.538,-229.513 222.926,-222.701"/>
</g>
<!-- Node31 -->
<g id="node31" class="node"><title>Node31</title>
<g id="a_node31"><a xlink:href="../../d1/d22/a00057.html" target="_top" xlink:title="mc::gfx::ogl::ShaderProgram">
<polygon fill="white" stroke="black" points="264.5,-152.5 264.5,-171.5 405.5,-171.5 405.5,-152.5 264.5,-152.5"/>
<text text-anchor="middle" x="335" y="-159.5" font-family="Helvetica,sans-Serif" font-size="10.00">mc::gfx::ogl::ShaderProgram</text>
</a>
</g>
</g>
<!-- Node18&#45;&gt;Node31 -->
<g id="edge30" class="edge"><title>Node18&#45;&gt;Node31</title>
<path fill="none" stroke="midnightblue" d="M215.724,-224.286C218.954,-222.68 222.087,-220.921 225,-219 244.422,-206.194 240.969,-192.832 261,-181 267.54,-177.137 274.864,-174.049 282.28,-171.584"/>
<polygon fill="midnightblue" stroke="midnightblue" points="214.175,-221.144 206.463,-228.409 217.022,-227.539 214.175,-221.144"/>
</g>
<!-- Node32 -->
<g id="node32" class="node"><title>Node32</title>
<g id="a_node32"><a xlink:href="../../de/de1/a00065.html" target="_top" xlink:title="mc::gfx::ogl::Texture2D">
<polygon fill="white" stroke="black" points="276,-76.5 276,-95.5 394,-95.5 394,-76.5 276,-76.5"/>
<text text-anchor="middle" x="335" y="-83.5" font-family="Helvetica,sans-Serif" font-size="10.00">mc::gfx::ogl::Texture2D</text>
</a>
</g>
</g>
<!-- Node18&#45;&gt;Node32 -->
<g id="edge31" class="edge"><title>Node18&#45;&gt;Node32</title>
<path fill="none" stroke="midnightblue" d="M220.526,-223.024C222.118,-221.787 223.619,-220.448 225,-219 261.667,-180.547 222.479,-141.596 261,-105 265.272,-100.941 270.299,-97.722 275.681,-95.173"/>
<polygon fill="midnightblue" stroke="midnightblue" points="218.558,-220.127 211.941,-228.402 222.274,-226.059 218.558,-220.127"/>
</g>
<!-- Node33 -->
<g id="node33" class="node"><title>Node33</title>
<g id="a_node33"><a xlink:href="../../d9/da4/a00078.html" target="_top" xlink:title="mc::gfx::ogl::VertexArray">
<polygon fill="white" stroke="black" points="272.5,-114.5 272.5,-133.5 397.5,-133.5 397.5,-114.5 272.5,-114.5"/>
<text text-anchor="middle" x="335" y="-121.5" font-family="Helvetica,sans-Serif" font-size="10.00">mc::gfx::ogl::VertexArray</text>
</a>
</g>
</g>
<!-- Node18&#45;&gt;Node33 -->
<g id="edge32" class="edge"><title>Node18&#45;&gt;Node33</title>
<path fill="none" stroke="midnightblue" d="M219.479,-223.335C221.432,-222.01 223.286,-220.568 225,-219 252.577,-193.772 232.21,-166.835 261,-143 265.64,-139.158 270.97,-136.084 276.591,-133.625"/>
<polygon fill="midnightblue" stroke="midnightblue" points="217.421,-220.477 210.42,-228.429 220.852,-226.578 217.421,-220.477"/>
</g>
<!-- Node20 -->
<g id="node20" class="node"><title>Node20</title>
<g id="a_node20"><a xlink:href="../../d7/d7a/a00016.html" target="_top" xlink:title="Special sslBuffer with no extra semantics to be used as a proxy in copying. ">
<polygon fill="white" stroke="black" points="445.5,-456.5 445.5,-475.5 588.5,-475.5 588.5,-456.5 445.5,-456.5"/>
<text text-anchor="middle" x="517" y="-463.5" font-family="Helvetica,sans-Serif" font-size="10.00">mc::gfx::ogl::CopyReadBuffer</text>
</a>
</g>
</g>
<!-- Node19&#45;&gt;Node20 -->
<g id="edge19" class="edge"><title>Node19&#45;&gt;Node20</title>
<path fill="none" stroke="midnightblue" d="M393.598,-361.708C399.15,-364.153 404.412,-367.201 409,-371 437.79,-394.835 416.292,-423.067 445,-447 449.606,-450.84 454.915,-453.911 460.512,-456.365"/>
<polygon fill="midnightblue" stroke="midnightblue" points="394.641,-358.361 384.048,-358.137 392.189,-364.918 394.641,-358.361"/>
</g>
<!-- Node21 -->
<g id="node21" class="node"><title>Node21</title>
<g id="a_node21"><a xlink:href="../../d4/d51/a00017.html" target="_top" xlink:title="Special sslBuffer with no extra semantics to be used as a proxy in copying. ">
<polygon fill="white" stroke="black" points="445,-418.5 445,-437.5 589,-437.5 589,-418.5 445,-418.5"/>
<text text-anchor="middle" x="517" y="-425.5" font-family="Helvetica,sans-Serif" font-size="10.00">mc::gfx::ogl::CopyWriteBuffer</text>
</a>
</g>
</g>
<!-- Node19&#45;&gt;Node21 -->
<g id="edge20" class="edge"><title>Node19&#45;&gt;Node21</title>
<path fill="none" stroke="midnightblue" d="M393.869,-363.788C399.148,-365.826 404.278,-368.211 409,-371 429.031,-382.832 425.009,-397.1 445,-409 451.469,-412.851 458.727,-415.936 466.068,-418.404"/>
<polygon fill="midnightblue" stroke="midnightblue" points="394.858,-360.427 384.263,-360.48 392.579,-367.045 394.858,-360.427"/>
</g>
<!-- Node22 -->
<g id="node22" class="node"><title>Node22</title>
<g id="a_node22"><a xlink:href="../../db/db2/a00020.html" target="_top" xlink:title="Stores element indices to save vertex data. ">
<polygon fill="white" stroke="black" points="450,-380.5 450,-399.5 584,-399.5 584,-380.5 450,-380.5"/>
<text text-anchor="middle" x="517" y="-387.5" font-family="Helvetica,sans-Serif" font-size="10.00">mc::gfx::ogl::ElementBuffer</text>
</a>
</g>
</g>
<!-- Node19&#45;&gt;Node22 -->
<g id="edge21" class="edge"><title>Node19&#45;&gt;Node22</title>
<path fill="none" stroke="midnightblue" d="M391.331,-363.681C416.857,-369.07 446.776,-375.386 470.905,-380.48"/>
<polygon fill="midnightblue" stroke="midnightblue" points="391.929,-360.23 381.422,-361.589 390.483,-367.079 391.929,-360.23"/>
</g>
<!-- Node23 -->
<g id="node23" class="node"><title>Node23</title>
<g id="a_node23"><a xlink:href="../../d3/dea/a00046.html" target="_top" xlink:title="Special buffer that excels at asynchronous pixel transfer operations. ">
<polygon fill="white" stroke="black" points="445.5,-342.5 445.5,-361.5 588.5,-361.5 588.5,-342.5 445.5,-342.5"/>
<text text-anchor="middle" x="517" y="-349.5" font-family="Helvetica,sans-Serif" font-size="10.00">mc::gfx::ogl::PixelPackBuffer</text>
</a>
</g>
</g>
<!-- Node19&#45;&gt;Node23 -->
<g id="edge22" class="edge"><title>Node19&#45;&gt;Node23</title>
<path fill="none" stroke="midnightblue" d="M394.616,-352C410.789,-352 428.507,-352 445.287,-352"/>
<polygon fill="midnightblue" stroke="midnightblue" points="394.237,-348.5 384.237,-352 394.237,-355.5 394.237,-348.5"/>
</g>
<!-- Node24 -->
<g id="node24" class="node"><title>Node24</title>
<g id="a_node24"><a xlink:href="../../d6/d2d/a00047.html" target="_top" xlink:title="Special buffer that excels at asynchronous pixel transfer operations. ">
<polygon fill="white" stroke="black" points="453,-293 453,-323 581,-323 581,-293 453,-293"/>
<text text-anchor="start" x="461" y="-311" font-family="Helvetica,sans-Serif" font-size="10.00">mc::gfx::ogl::PixelUnpack</text>
<text text-anchor="middle" x="517" y="-300" font-family="Helvetica,sans-Serif" font-size="10.00">Buffer</text>
</a>
</g>
</g>
<!-- Node19&#45;&gt;Node24 -->
<g id="edge23" class="edge"><title>Node19&#45;&gt;Node24</title>
<path fill="none" stroke="midnightblue" d="M384.907,-340.045C406.319,-334.811 431.683,-328.611 454.369,-323.065"/>
<polygon fill="midnightblue" stroke="midnightblue" points="383.94,-336.678 375.057,-342.453 385.602,-343.478 383.94,-336.678"/>
</g>
<!-- Node25 -->
<g id="node25" class="node"><title>Node25</title>
<g id="a_node25"><a xlink:href="../../da/d24/a00068.html" target="_top" xlink:title="Stores uniform data for a shader in the form of a sslBuffer. ">
<polygon fill="white" stroke="black" points="451.5,-254.5 451.5,-273.5 582.5,-273.5 582.5,-254.5 451.5,-254.5"/>
<text text-anchor="middle" x="517" y="-261.5" font-family="Helvetica,sans-Serif" font-size="10.00">mc::gfx::ogl::UniformBuffer</text>
</a>
</g>
</g>
<!-- Node19&#45;&gt;Node25 -->
<g id="edge24" class="edge"><title>Node19&#45;&gt;Node25</title>
<path fill="none" stroke="midnightblue" d="M393.819,-341.058C399.18,-338.848 404.341,-336.192 409,-333 431.589,-317.523 422.464,-298.555 445,-283 450.671,-279.086 457.108,-275.978 463.737,-273.51"/>
<polygon fill="midnightblue" stroke="midnightblue" points="392.248,-337.902 384.017,-344.573 394.611,-344.492 392.248,-337.902"/>
</g>
<!-- Node26 -->
<g id="node26" class="node"><title>Node26</title>
<g id="a_node26"><a xlink:href="../../d1/d51/a00079.html" target="_top" xlink:title="Stores vertex data for a `VertexArray. ">
<polygon fill="white" stroke="black" points="453.5,-216.5 453.5,-235.5 580.5,-235.5 580.5,-216.5 453.5,-216.5"/>
<text text-anchor="middle" x="517" y="-223.5" font-family="Helvetica,sans-Serif" font-size="10.00">mc::gfx::ogl::VertexBuffer</text>
</a>
</g>
</g>
<!-- Node19&#45;&gt;Node26 -->
<g id="edge25" class="edge"><title>Node19&#45;&gt;Node26</title>
<path fill="none" stroke="midnightblue" d="M393.809,-342.541C399.321,-340.049 404.516,-336.921 409,-333 440.81,-305.182 413.286,-272.927 445,-245 449.405,-241.121 454.52,-238.022 459.946,-235.549"/>
<polygon fill="midnightblue" stroke="midnightblue" points="392.402,-339.332 384.304,-346.163 394.894,-345.873 392.402,-339.332"/>
</g>
<!-- Node36 -->
<g id="node36" class="node"><title>Node36</title>
<g id="a_node36"><a xlink:href="../../d0/d33/a00027.html" target="_top" xlink:title="mc::gfx::GLPainter">
<polygon fill="white" stroke="black" points="286,-38.5 286,-57.5 384,-57.5 384,-38.5 286,-38.5"/>
<text text-anchor="middle" x="335" y="-45.5" font-family="Helvetica,sans-Serif" font-size="10.00">mc::gfx::GLPainter</text>
</a>
</g>
</g>
<!-- Node35&#45;&gt;Node36 -->
<g id="edge35" class="edge"><title>Node35&#45;&gt;Node36</title>
<path fill="none" stroke="midnightblue" d="M215.724,-110.286C218.954,-108.68 222.087,-106.921 225,-105 244.422,-92.1936 240.969,-78.8316 261,-67 268.555,-62.5377 277.155,-59.1097 285.737,-56.4803"/>
<polygon fill="midnightblue" stroke="midnightblue" points="214.175,-107.144 206.463,-114.409 217.022,-113.539 214.175,-107.144"/>
</g>
<!-- Node38&#45;&gt;Node32 -->
<g id="edge38" class="edge"><title>Node38&#45;&gt;Node32</title>
<path fill="none" stroke="midnightblue" d="M219.479,-185.335C221.432,-184.01 223.286,-182.568 225,-181 252.577,-155.772 232.21,-128.835 261,-105 265.64,-101.158 270.97,-98.0839 276.591,-95.6248"/>
<polygon fill="midnightblue" stroke="midnightblue" points="217.421,-182.477 210.42,-190.429 220.852,-188.578 217.421,-182.477"/>
</g>
<!-- Node39&#45;&gt;Node16 -->
<g id="edge42" class="edge"><title>Node39&#45;&gt;Node16</title>
<path fill="none" stroke="midnightblue" d="M202.591,-422.986C219.405,-430.726 241.107,-440.138 261,-447 271.152,-450.502 282.29,-453.71 292.741,-456.453"/>
<polygon fill="midnightblue" stroke="midnightblue" points="203.849,-419.711 193.307,-418.654 200.889,-426.055 203.849,-419.711"/>
</g>
<!-- Node40 -->
<g id="node40" class="node"><title>Node40</title>
<g id="a_node40"><a xlink:href="../../d4/dee/a00008.html" target="_top" xlink:title="mc::AudioModule">
<polygon fill="white" stroke="black" points="289,-418.5 289,-437.5 381,-437.5 381,-418.5 289,-418.5"/>
<text text-anchor="middle" x="335" y="-425.5" font-family="Helvetica,sans-Serif" font-size="10.00">mc::AudioModule</text>
</a>
</g>
</g>
<!-- Node39&#45;&gt;Node40 -->
<g id="edge40" class="edge"><title>Node39&#45;&gt;Node40</title>
<path fill="none" stroke="midnightblue" d="M216.949,-414.143C239.248,-416.783 266.387,-419.996 288.916,-422.663"/>
<polygon fill="midnightblue" stroke="midnightblue" points="217.098,-410.637 206.756,-412.937 216.275,-417.588 217.098,-410.637"/>
</g>
<!-- Node41 -->
<g id="node41" class="node"><title>Node41</title>
<g id="a_node41"><a xlink:href="../../d3/d8b/a00059.html" target="_top" xlink:title="mc::os::SignalModule">
<polygon fill="white" stroke="black" points="279.5,-380.5 279.5,-399.5 390.5,-399.5 390.5,-380.5 279.5,-380.5"/>
<text text-anchor="middle" x="335" y="-387.5" font-family="Helvetica,sans-Serif" font-size="10.00">mc::os::SignalModule</text>
</a>
</g>
</g>
<!-- Node39&#45;&gt;Node41 -->
<g id="edge41" class="edge"><title>Node39&#45;&gt;Node41</title>
<path fill="none" stroke="midnightblue" d="M216.747,-403.88C235.997,-401.602 258.883,-398.892 279.305,-396.475"/>
<polygon fill="midnightblue" stroke="midnightblue" points="216.275,-400.412 206.756,-405.063 217.098,-407.363 216.275,-400.412"/>
</g>
</g>
</svg>
