<?xml version="1.0" encoding="UTF-8" standalone="no"?>
<!DOCTYPE svg PUBLIC "-//W3C//DTD SVG 1.1//EN"
 "http://www.w3.org/Graphics/SVG/1.1/DTD/svg11.dtd">
<!-- Generated by graphviz version 2.38.0 (20140413.2041)
 -->
<!-- Title: mc::gfx::RenderImpl Pages: 1 -->
<svg width="294pt" height="95pt"
 viewBox="0.00 0.00 293.50 95.00" xmlns="http://www.w3.org/2000/svg" xmlns:xlink="http://www.w3.org/1999/xlink">
<g id="graph0" class="graph" transform="scale(1 1) rotate(0) translate(4 91)">
<title>mc::gfx::RenderImpl</title>
<polygon fill="white" stroke="none" points="-4,4 -4,-91 289.5,-91 289.5,4 -4,4"/>
<!-- Node1 -->
<g id="node1" class="node"><title>Node1</title>
<polygon fill="#bfbfbf" stroke="black" points="96.5,-67.5 96.5,-86.5 200.5,-86.5 200.5,-67.5 96.5,-67.5"/>
<text text-anchor="middle" x="148.5" y="-74.5" font-family="Helvetica,sans-Serif" font-size="10.00">mc::gfx::RenderImpl</text>
</g>
<!-- Node2 -->
<g id="node2" class="node"><title>Node2</title>
<g id="a_node2"><a xlink:href="../../d4/d8c/a00035.html" target="_top" xlink:title="mc::gfx::RenderProtocol\&lt; T \&gt;">
<polygon fill="white" stroke="black" points="0,-6 0,-25 145,-25 145,-6 0,-6"/>
<text text-anchor="middle" x="72.5" y="-13" font-family="Helvetica,sans-Serif" font-size="10.00">mc::gfx::RenderProtocol&lt; T &gt;</text>
</a>
</g>
</g>
<!-- Node1&#45;&gt;Node2 -->
<g id="edge1" class="edge"><title>Node1&#45;&gt;Node2</title>
<path fill="none" stroke="midnightblue" d="M129.716,-61.2938C115.137,-49.8803 95.4375,-34.4577 83.3687,-25.0091"/>
<polygon fill="midnightblue" stroke="midnightblue" points="127.579,-64.0665 137.611,-67.4751 131.895,-58.5547 127.579,-64.0665"/>
</g>
<!-- Node3 -->
<g id="node3" class="node"><title>Node3</title>
<g id="a_node3"><a xlink:href="../../de/d8c/a00036.html" target="_top" xlink:title="mc::gfx::RenderProtocol\l\&lt; Entity2D \&gt;">
<polygon fill="white" stroke="black" points="163.5,-0.5 163.5,-30.5 285.5,-30.5 285.5,-0.5 163.5,-0.5"/>
<text text-anchor="start" x="171.5" y="-18.5" font-family="Helvetica,sans-Serif" font-size="10.00">mc::gfx::RenderProtocol</text>
<text text-anchor="middle" x="224.5" y="-7.5" font-family="Helvetica,sans-Serif" font-size="10.00">&lt; Entity2D &gt;</text>
</a>
</g>
</g>
<!-- Node1&#45;&gt;Node3 -->
<g id="edge2" class="edge"><title>Node1&#45;&gt;Node3</title>
<path fill="none" stroke="midnightblue" d="M167.41,-61.1955C179.394,-51.8129 194.801,-39.7512 206.588,-30.523"/>
<polygon fill="midnightblue" stroke="midnightblue" points="165.105,-58.5547 159.389,-67.4751 169.421,-64.0665 165.105,-58.5547"/>
</g>
</g>
</svg>
