<?xml version="1.0" encoding="UTF-8" standalone="no"?>
<!DOCTYPE svg PUBLIC "-//W3C//DTD SVG 1.1//EN"
 "http://www.w3.org/Graphics/SVG/1.1/DTD/svg11.dtd">
<!-- Generated by graphviz version 2.38.0 (20140413.2041)
 -->
<!-- Title: mc::gfx::Image Pages: 1 -->
<!--zoomable 529 -->
<svg id="main" version="1.1" xmlns="http://www.w3.org/2000/svg" xmlns:xlink="http://www.w3.org/1999/xlink" xml:space="preserve" onload="init(evt)">
<style type="text/css"><![CDATA[
.edge:hover path { stroke: red; }
.edge:hover polygon { stroke: red; fill: red; }
]]></style>
<script type="text/javascript"><![CDATA[
var edges = document.getElementsByTagName('g');
if (edges && edges.length) {
  for (var i=0;i<edges.length;i++) {
    if (edges[i].id.substr(0,4)=='edge') {
      edges[i].setAttribute('class','edge');
    }
  }
}
]]></script>
        <defs>
                <circle id="rim" cx="0" cy="0" r="7"/>
                <circle id="rim2" cx="0" cy="0" r="3.5"/>
                <g id="zoomPlus">
                        <use xlink:href="#rim" fill="#404040">
                                <set attributeName="fill" to="#808080" begin="zoomplus.mouseover" end="zoomplus.mouseout"/>
                        </use>
                        <path d="M-4,0h8M0,-4v8" fill="none" stroke="white" stroke-width="1.5" pointer-events="none"/>
                </g>
                <g id="zoomMin">
                        <use xlink:href="#rim" fill="#404040">
                                <set attributeName="fill" to="#808080" begin="zoomminus.mouseover" end="zoomminus.mouseout"/>
                        </use>
                        <path d="M-4,0h8" fill="none" stroke="white" stroke-width="1.5" pointer-events="none"/>
                </g>
                <g id="dirArrow">
                        <path fill="none" stroke="white" stroke-width="1.5" d="M0,-3.0v7 M-2.5,-0.5L0,-3.0L2.5,-0.5"/>
                </g>
               <g id="resetDef">
                       <use xlink:href="#rim2" fill="#404040">
                               <set attributeName="fill" to="#808080" begin="reset.mouseover" end="reset.mouseout"/>
                       </use>
               </g>
        </defs>

<script type="text/javascript">
var viewWidth = 426;
var viewHeight = 529;
var sectionId = 'dynsection-1';
</script>
<script xlink:href="../../svgpan.js"/>
<svg id="graph" class="graph">
<g id="viewport">
<title>mc::gfx::Image</title>
<polygon fill="white" stroke="none" points="-4,4 -4,-525 422,-525 422,4 -4,4"/>
<!-- Node1 -->
<g id="node1" class="node"><title>Node1</title>
<polygon fill="#bfbfbf" stroke="black" points="254,-0.5 254,-19.5 335,-19.5 335,-0.5 254,-0.5"/>
<text text-anchor="middle" x="294.5" y="-7.5" font-family="Helvetica,sans-Serif" font-size="10.00">mc::gfx::Image</text>
</g>
<!-- Node2 -->
<g id="node2" class="node"><title>Node2</title>
<g id="a_node2"><a xlink:href="../../db/db2/a00020.html" target="_top" xlink:title="mc::gfx::Entity2D">
<polygon fill="white" stroke="black" points="248.5,-57.5 248.5,-76.5 340.5,-76.5 340.5,-57.5 248.5,-57.5"/>
<text text-anchor="middle" x="294.5" y="-64.5" font-family="Helvetica,sans-Serif" font-size="10.00">mc::gfx::Entity2D</text>
</a>
</g>
</g>
<!-- Node2&#45;&gt;Node1 -->
<g id="edge1" class="edge"><title>Node2&#45;&gt;Node1</title>
<path fill="none" stroke="midnightblue" d="M294.5,-47.1166C294.5,-37.8173 294.5,-27.0557 294.5,-19.7149"/>
<polygon fill="midnightblue" stroke="midnightblue" points="291,-47.4062 294.5,-57.4063 298,-47.4063 291,-47.4062"/>
</g>
<!-- Node3 -->
<g id="node3" class="node"><title>Node3</title>
<g id="a_node3"><a xlink:href="../../d3/dfe/a00025.html" target="_top" xlink:title="mc::gfx::GraphicsEntity">
<polygon fill="white" stroke="black" points="150,-130 150,-149 269,-149 269,-130 150,-130"/>
<text text-anchor="middle" x="209.5" y="-137" font-family="Helvetica,sans-Serif" font-size="10.00">mc::gfx::GraphicsEntity</text>
</a>
</g>
</g>
<!-- Node3&#45;&gt;Node2 -->
<g id="edge2" class="edge"><title>Node3&#45;&gt;Node2</title>
<path fill="none" stroke="midnightblue" d="M228.085,-123.085C245.224,-108.87 270.055,-88.2747 283.992,-76.7154"/>
<polygon fill="midnightblue" stroke="midnightblue" points="225.385,-120.777 219.923,-129.855 229.854,-126.165 225.385,-120.777"/>
</g>
<!-- Node4 -->
<g id="node4" class="node"><title>Node4</title>
<g id="a_node4"><a xlink:href="../../dd/da2/a00019.html" target="_top" xlink:title="Abstract superclass for all graphical objects. ">
<polygon fill="white" stroke="black" points="139.5,-202.5 139.5,-221.5 219.5,-221.5 219.5,-202.5 139.5,-202.5"/>
<text text-anchor="middle" x="179.5" y="-209.5" font-family="Helvetica,sans-Serif" font-size="10.00">mc::gfx::Entity</text>
</a>
</g>
</g>
<!-- Node4&#45;&gt;Node3 -->
<g id="edge3" class="edge"><title>Node4&#45;&gt;Node3</title>
<path fill="none" stroke="midnightblue" d="M189.953,-193.215C191.567,-190.186 193.146,-187.036 194.5,-184 199.772,-172.181 204.378,-157.901 207.05,-149.007"/>
<polygon fill="midnightblue" stroke="midnightblue" points="186.751,-191.769 184.903,-202.201 192.853,-195.198 186.751,-191.769"/>
</g>
<!-- Node5 -->
<g id="node5" class="node"><title>Node5</title>
<polygon fill="white" stroke="#bfbfbf" points="29,-124.5 29,-154.5 132,-154.5 132,-124.5 29,-124.5"/>
<text text-anchor="start" x="37" y="-142.5" font-family="Helvetica,sans-Serif" font-size="10.00">std::vector&lt; mc::gfx</text>
<text text-anchor="middle" x="80.5" y="-131.5" font-family="Helvetica,sans-Serif" font-size="10.00">::Entity * &gt;</text>
</g>
<!-- Node4&#45;&gt;Node5 -->
<g id="edge5" class="edge"><title>Node4&#45;&gt;Node5</title>
<path fill="none" stroke="#9a32cd" stroke-dasharray="5,2" d="M129.325,-208.753C111.84,-205.295 93.7894,-198.173 82.5,-184 75.9998,-175.84 75.9265,-163.836 77.2399,-154.505"/>
<polygon fill="#9a32cd" stroke="#9a32cd" points="129.07,-212.257 139.499,-210.39 130.182,-205.345 129.07,-212.257"/>
<text text-anchor="middle" x="104" y="-176" font-family="Helvetica,sans-Serif" font-size="10.00"> elements</text>
</g>
<!-- Node5&#45;&gt;Node4 -->
<g id="edge4" class="edge"><title>Node5&#45;&gt;Node4</title>
<path fill="none" stroke="#9a32cd" stroke-dasharray="5,2" d="M111.32,-160.506C117.394,-164.571 123.685,-168.869 129.5,-173 143.187,-182.725 158.501,-194.501 168.531,-202.341"/>
<polygon fill="#9a32cd" stroke="#9a32cd" points="112.926,-157.371 102.657,-154.763 109.058,-163.206 112.926,-157.371"/>
<text text-anchor="middle" x="162" y="-176" font-family="Helvetica,sans-Serif" font-size="10.00"> children</text>
</g>
<!-- Node6 -->
<g id="node6" class="node"><title>Node6</title>
<g id="a_node6"><a xlink:title="STL class. ">
<polygon fill="white" stroke="#bfbfbf" points="0,-396.5 0,-415.5 85,-415.5 85,-396.5 0,-396.5"/>
<text text-anchor="middle" x="42.5" y="-403.5" font-family="Helvetica,sans-Serif" font-size="10.00">std::vector&lt; T &gt;</text>
</a>
</g>
</g>
<!-- Node6&#45;&gt;Node5 -->
<g id="edge6" class="edge"><title>Node6&#45;&gt;Node5</title>
<path fill="none" stroke="orange" stroke-dasharray="5,2" d="M38.1083,-386.29C34.6819,-370.05 30.5,-345.854 30.5,-324.5 30.5,-324.5 30.5,-324.5 30.5,-211 30.5,-188.192 48.127,-167.614 62.4489,-154.659"/>
<polygon fill="orange" stroke="orange" points="34.7094,-387.13 40.299,-396.13 41.5421,-385.609 34.7094,-387.13"/>
<text text-anchor="middle" x="76.5" y="-276.5" font-family="Helvetica,sans-Serif" font-size="10.00"> &lt; mc::gfx::Entity * &gt;</text>
</g>
<!-- Node7 -->
<g id="node7" class="node"><title>Node7</title>
<polygon fill="white" stroke="#bfbfbf" points="67,-501.5 67,-520.5 96,-520.5 96,-501.5 67,-501.5"/>
<text text-anchor="middle" x="81.5" y="-508.5" font-family="Helvetica,sans-Serif" font-size="10.00">T</text>
</g>
<!-- Node7&#45;&gt;Node6 -->
<g id="edge7" class="edge"><title>Node7&#45;&gt;Node6</title>
<path fill="none" stroke="#9a32cd" stroke-dasharray="5,2" d="M62.5982,-494.296C59.4621,-490.875 56.5643,-487.054 54.5,-483 43.1043,-460.622 41.9744,-430.124 42.1781,-415.501"/>
<polygon fill="#9a32cd" stroke="#9a32cd" points="60.4329,-497.069 70.068,-501.475 65.2836,-492.022 60.4329,-497.069"/>
<text text-anchor="middle" x="76" y="-475" font-family="Helvetica,sans-Serif" font-size="10.00"> elements</text>
</g>
<!-- Node10 -->
<g id="node10" class="node"><title>Node10</title>
<g id="a_node10"><a xlink:href="../../d9/da5/a00075.html" target="_top" xlink:title="1&#45;dimensional vector class that supports mathmatical operations. ">
<polygon fill="white" stroke="black" points="76,-434.5 76,-453.5 177,-453.5 177,-434.5 76,-434.5"/>
<text text-anchor="middle" x="126.5" y="-441.5" font-family="Helvetica,sans-Serif" font-size="10.00">mc::Vector&lt; T, N &gt;</text>
</a>
</g>
</g>
<!-- Node7&#45;&gt;Node10 -->
<g id="edge11" class="edge"><title>Node7&#45;&gt;Node10</title>
<path fill="none" stroke="#9a32cd" stroke-dasharray="5,2" d="M93.3359,-492.904C102.08,-480.273 113.62,-463.604 120.527,-453.627"/>
<polygon fill="#9a32cd" stroke="#9a32cd" points="90.3834,-491.02 87.5689,-501.234 96.1387,-495.004 90.3834,-491.02"/>
<text text-anchor="middle" x="125.5" y="-475" font-family="Helvetica,sans-Serif" font-size="10.00"> content</text>
</g>
<!-- Node8 -->
<g id="node8" class="node"><title>Node8</title>
<g id="a_node8"><a xlink:href="../../d1/d6e/a00073.html" target="_top" xlink:title="Matrix&#45;based class that allows for the easy creation and management of transformation matrices...">
<polygon fill="white" stroke="black" points="140.5,-269.5 140.5,-288.5 246.5,-288.5 246.5,-269.5 140.5,-269.5"/>
<text text-anchor="middle" x="193.5" y="-276.5" font-family="Helvetica,sans-Serif" font-size="10.00">mc::TransformMatrix</text>
</a>
</g>
</g>
<!-- Node8&#45;&gt;Node4 -->
<g id="edge8" class="edge"><title>Node8&#45;&gt;Node4</title>
<path fill="none" stroke="#9a32cd" stroke-dasharray="5,2" d="M189.497,-259.415C186.821,-246.988 183.424,-231.217 181.358,-221.627"/>
<polygon fill="#9a32cd" stroke="#9a32cd" points="186.085,-260.195 191.612,-269.234 192.928,-258.721 186.085,-260.195"/>
<text text-anchor="middle" x="220" y="-243" font-family="Helvetica,sans-Serif" font-size="10.00"> transformation</text>
</g>
<!-- Node9 -->
<g id="node9" class="node"><title>Node9</title>
<g id="a_node9"><a xlink:href="../../d9/da5/a00075.html" target="_top" xlink:title="mc::Vector\&lt; float, 3 \&gt;">
<polygon fill="white" stroke="black" points="78.5,-358.5 78.5,-377.5 190.5,-377.5 190.5,-358.5 78.5,-358.5"/>
<text text-anchor="middle" x="134.5" y="-365.5" font-family="Helvetica,sans-Serif" font-size="10.00">mc::Vector&lt; float, 3 &gt;</text>
</a>
</g>
</g>
<!-- Node9&#45;&gt;Node8 -->
<g id="edge9" class="edge"><title>Node9&#45;&gt;Node8</title>
<path fill="none" stroke="#9a32cd" stroke-dasharray="5,2" d="M146.033,-349.993C158.536,-331.557 177.992,-302.867 187.651,-288.625"/>
<polygon fill="#9a32cd" stroke="#9a32cd" points="143.089,-348.099 140.373,-358.34 148.882,-352.028 143.089,-348.099"/>
<text text-anchor="middle" x="197.5" y="-332" font-family="Helvetica,sans-Serif" font-size="10.00"> rotation</text>
<text text-anchor="middle" x="197.5" y="-321" font-family="Helvetica,sans-Serif" font-size="10.00">scaler</text>
<text text-anchor="middle" x="197.5" y="-310" font-family="Helvetica,sans-Serif" font-size="10.00">translation</text>
</g>
<!-- Node10&#45;&gt;Node9 -->
<g id="edge10" class="edge"><title>Node10&#45;&gt;Node9</title>
<path fill="none" stroke="orange" stroke-dasharray="5,2" d="M128.546,-424.072C130.156,-409.18 132.326,-389.111 133.552,-377.768"/>
<polygon fill="orange" stroke="orange" points="125.044,-423.902 127.449,-434.221 132.004,-424.655 125.044,-423.902"/>
<text text-anchor="middle" x="157" y="-403.5" font-family="Helvetica,sans-Serif" font-size="10.00"> &lt; float, 3 &gt;</text>
</g>
<!-- Node11 -->
<g id="node11" class="node"><title>Node11</title>
<g id="a_node11"><a xlink:href="../../db/db6/a00074.html" target="_top" xlink:title="Stores uniform data for a shader in the form of a sslBuffer. ">
<polygon fill="white" stroke="black" points="287,-130 287,-149 418,-149 418,-130 287,-130"/>
<text text-anchor="middle" x="352.5" y="-137" font-family="Helvetica,sans-Serif" font-size="10.00">mc::gfx::ogl::UniformBuffer</text>
</a>
</g>
</g>
<!-- Node11&#45;&gt;Node2 -->
<g id="edge12" class="edge"><title>Node11&#45;&gt;Node2</title>
<path fill="none" stroke="#9a32cd" stroke-dasharray="5,2" d="M338.841,-121.897C327.196,-107.743 310.918,-87.9566 301.67,-76.7154"/>
<polygon fill="#9a32cd" stroke="#9a32cd" points="336.332,-124.356 345.388,-129.855 341.738,-119.909 336.332,-124.356"/>
<text text-anchor="middle" x="339" y="-98" font-family="Helvetica,sans-Serif" font-size="10.00"> buffer</text>
</g>
<!-- Node12 -->
<g id="node12" class="node"><title>Node12</title>
<g id="a_node12"><a xlink:href="../../da/da0/a00009.html" target="_top" xlink:title="Represents a sslBuffer of memory in the GPU. ">
<polygon fill="white" stroke="black" points="303.5,-202.5 303.5,-221.5 401.5,-221.5 401.5,-202.5 303.5,-202.5"/>
<text text-anchor="middle" x="352.5" y="-209.5" font-family="Helvetica,sans-Serif" font-size="10.00">mc::gfx::ogl::Buffer</text>
</a>
</g>
</g>
<!-- Node12&#45;&gt;Node11 -->
<g id="edge13" class="edge"><title>Node12&#45;&gt;Node11</title>
<path fill="none" stroke="midnightblue" d="M352.5,-191.942C352.5,-178.03 352.5,-159.82 352.5,-149.215"/>
<polygon fill="midnightblue" stroke="midnightblue" points="349,-192.355 352.5,-202.355 356,-192.355 349,-192.355"/>
</g>
<!-- Node13 -->
<g id="node13" class="node"><title>Node13</title>
<g id="a_node13"><a xlink:href="../../d4/d8c/a00035.html" target="_top" xlink:title="Represents a OpenGL object in memory. ">
<polygon fill="white" stroke="black" points="301.5,-269.5 301.5,-288.5 403.5,-288.5 403.5,-269.5 301.5,-269.5"/>
<text text-anchor="middle" x="352.5" y="-276.5" font-family="Helvetica,sans-Serif" font-size="10.00">mc::gfx::ogl::Object</text>
</a>
</g>
</g>
<!-- Node13&#45;&gt;Node12 -->
<g id="edge14" class="edge"><title>Node13&#45;&gt;Node12</title>
<path fill="none" stroke="midnightblue" d="M352.5,-259.037C352.5,-246.67 352.5,-231.12 352.5,-221.627"/>
<polygon fill="midnightblue" stroke="midnightblue" points="349,-259.234 352.5,-269.234 356,-259.234 349,-259.234"/>
</g>
</g>
</svg>
        <g id="navigator" transform="translate(0 0)" fill="#404254">
                <rect fill="#f2f5e9" fill-opacity="0.5" stroke="#606060" stroke-width=".5" x="0" y="0" width="60" height="60"/>
                <use id="zoomplus" xlink:href="#zoomPlus" x="17" y="9" onmousedown="handleZoom(evt,'in')"/>
                <use id="zoomminus" xlink:href="#zoomMin" x="42" y="9" onmousedown="handleZoom(evt,'out')"/>
                <use id="reset" xlink:href="#resetDef" x="30" y="36" onmousedown="handleReset()"/>
                <g id="arrowUp" xlink:href="#dirArrow" transform="translate(30 24)" onmousedown="handlePan(0,-1)">
                  <use xlink:href="#rim" fill="#404040">
                        <set attributeName="fill" to="#808080" begin="arrowUp.mouseover" end="arrowUp.mouseout"/>
                  </use>
                  <path fill="none" stroke="white" stroke-width="1.5" d="M0,-3.0v7 M-2.5,-0.5L0,-3.0L2.5,-0.5"/>
                </g>
                <g id="arrowRight" xlink:href="#dirArrow" transform="rotate(90) translate(36 -43)" onmousedown="handlePan(1,0)">
                  <use xlink:href="#rim" fill="#404040">
                        <set attributeName="fill" to="#808080" begin="arrowRight.mouseover" end="arrowRight.mouseout"/>
                  </use>
                  <path fill="none" stroke="white" stroke-width="1.5" d="M0,-3.0v7 M-2.5,-0.5L0,-3.0L2.5,-0.5"/>
                </g>
                <g id="arrowDown" xlink:href="#dirArrow" transform="rotate(180) translate(-30 -48)" onmousedown="handlePan(0,1)">
                  <use xlink:href="#rim" fill="#404040">
                        <set attributeName="fill" to="#808080" begin="arrowDown.mouseover" end="arrowDown.mouseout"/>
                  </use>
                  <path fill="none" stroke="white" stroke-width="1.5" d="M0,-3.0v7 M-2.5,-0.5L0,-3.0L2.5,-0.5"/>
                </g>
                <g id="arrowLeft" xlink:href="#dirArrow" transform="rotate(270) translate(-36 17)" onmousedown="handlePan(-1,0)">
                  <use xlink:href="#rim" fill="#404040">
                        <set attributeName="fill" to="#808080" begin="arrowLeft.mouseover" end="arrowLeft.mouseout"/>
                  </use>
                  <path fill="none" stroke="white" stroke-width="1.5" d="M0,-3.0v7 M-2.5,-0.5L0,-3.0L2.5,-0.5"/>
                </g>
        </g>
        <svg viewBox="0 0 15 15" width="100%" height="30px" preserveAspectRatio="xMaxYMin meet">
         <g id="arrow_out" transform="scale(0.3 0.3)">
          <a xlink:href="a00200_org.svg" target="_base">
           <rect id="button" ry="5" rx="5" y="6" x="6" height="38" width="38"
                fill="#f2f5e9" fill-opacity="0.5" stroke="#606060" stroke-width="1.0"/>
           <path id="arrow"
             d="M 11.500037,31.436501 C 11.940474,20.09759 22.043105,11.32322 32.158766,21.979434 L 37.068811,17.246167 C 37.068811,17.246167 37.088388,32 37.088388,32 L 22.160133,31.978069 C 22.160133,31.978069 26.997745,27.140456 26.997745,27.140456 C 18.528582,18.264221 13.291696,25.230495 11.500037,31.436501 z"
             style="fill:#404040;"/>
          </a>
         </g>
        </svg>
</svg>
