<?xml version="1.0" encoding="UTF-8" standalone="no"?>
<!DOCTYPE svg PUBLIC "-//W3C//DTD SVG 1.1//EN"
 "http://www.w3.org/Graphics/SVG/1.1/DTD/svg11.dtd">
<!-- Generated by graphviz version 2.38.0 (20140413.2041)
 -->
<!-- Title: mc::gfx::Component Pages: 1 -->
<svg width="433pt" height="583pt"
 viewBox="0.00 0.00 432.50 583.00" xmlns="http://www.w3.org/2000/svg" xmlns:xlink="http://www.w3.org/1999/xlink">
<g id="graph0" class="graph" transform="scale(1 1) rotate(0) translate(4 579)">
<title>mc::gfx::Component</title>
<polygon fill="white" stroke="none" points="-4,4 -4,-579 428.5,-579 428.5,4 -4,4"/>
<!-- Node1 -->
<g id="node1" class="node"><title>Node1</title>
<polygon fill="#bfbfbf" stroke="black" points="88.5,-6 88.5,-25 192.5,-25 192.5,-6 88.5,-6"/>
<text text-anchor="middle" x="140.5" y="-13" font-family="Helvetica,sans-Serif" font-size="10.00">mc::gfx::Component</text>
</g>
<!-- Node2 -->
<g id="node2" class="node"><title>Node2</title>
<g id="a_node2"><a xlink:href="../../dc/d87/a00032.html" target="_top" xlink:title="mc::Initializable">
<polygon fill="white" stroke="black" points="74.5,-145.5 74.5,-164.5 158.5,-164.5 158.5,-145.5 74.5,-145.5"/>
<text text-anchor="middle" x="116.5" y="-152.5" font-family="Helvetica,sans-Serif" font-size="10.00">mc::Initializable</text>
</a>
</g>
</g>
<!-- Node2&#45;&gt;Node1 -->
<g id="edge1" class="edge"><title>Node2&#45;&gt;Node1</title>
<path fill="none" stroke="midnightblue" d="M119.753,-135.362C125.012,-105.231 135.178,-46.9903 138.999,-25.098"/>
<polygon fill="midnightblue" stroke="midnightblue" points="116.273,-134.946 118.001,-145.399 123.169,-136.15 116.273,-134.946"/>
</g>
<!-- Node3 -->
<g id="node3" class="node"><title>Node3</title>
<g id="a_node3"><a xlink:href="../../db/db2/a00020.html" target="_top" xlink:title="Abstract superclass for all graphical objects. ">
<polygon fill="white" stroke="black" points="173.5,-78.5 173.5,-97.5 253.5,-97.5 253.5,-78.5 173.5,-78.5"/>
<text text-anchor="middle" x="213.5" y="-85.5" font-family="Helvetica,sans-Serif" font-size="10.00">mc::gfx::Entity</text>
</a>
</g>
</g>
<!-- Node2&#45;&gt;Node3 -->
<g id="edge3" class="edge"><title>Node2&#45;&gt;Node3</title>
<path fill="none" stroke="midnightblue" d="M137.997,-139.595C157.186,-126.736 184.653,-108.331 200.625,-97.6273"/>
<polygon fill="midnightblue" stroke="midnightblue" points="135.941,-136.759 129.582,-145.234 139.838,-142.575 135.941,-136.759"/>
</g>
<!-- Node3&#45;&gt;Node1 -->
<g id="edge2" class="edge"><title>Node3&#45;&gt;Node1</title>
<path fill="none" stroke="#9a32cd" stroke-dasharray="5,2" d="M188.084,-72.8671C182.317,-69.0775 176.441,-64.7102 171.5,-60 160.492,-49.506 150.865,-34.6051 145.368,-25.2503"/>
<polygon fill="#9a32cd" stroke="#9a32cd" points="186.56,-76.0397 196.909,-78.313 190.237,-70.0827 186.56,-76.0397"/>
<text text-anchor="middle" x="187" y="-52" font-family="Helvetica,sans-Serif" font-size="10.00"> parent</text>
</g>
<!-- Node4 -->
<g id="node4" class="node"><title>Node4</title>
<polygon fill="white" stroke="#bfbfbf" points="228,-0.5 228,-30.5 331,-30.5 331,-0.5 228,-0.5"/>
<text text-anchor="start" x="236" y="-18.5" font-family="Helvetica,sans-Serif" font-size="10.00">std::vector&lt; mc::gfx</text>
<text text-anchor="middle" x="279.5" y="-7.5" font-family="Helvetica,sans-Serif" font-size="10.00">::Entity * &gt;</text>
</g>
<!-- Node3&#45;&gt;Node4 -->
<g id="edge5" class="edge"><title>Node3&#45;&gt;Node4</title>
<path fill="none" stroke="#9a32cd" stroke-dasharray="5,2" d="M207.601,-68.3271C206.63,-61.7803 206.912,-54.6563 210.5,-49 215.465,-41.173 222.874,-35.1964 231.019,-30.6435"/>
<polygon fill="#9a32cd" stroke="#9a32cd" points="204.295,-69.5467 210.055,-78.4391 211.098,-67.8957 204.295,-69.5467"/>
<text text-anchor="middle" x="232" y="-52" font-family="Helvetica,sans-Serif" font-size="10.00"> elements</text>
</g>
<!-- Node4&#45;&gt;Node3 -->
<g id="edge4" class="edge"><title>Node4&#45;&gt;Node3</title>
<path fill="none" stroke="#9a32cd" stroke-dasharray="5,2" d="M270.64,-39.795C267.24,-46.8082 262.861,-54.1797 257.5,-60 250.457,-67.6471 240.762,-73.9077 232.265,-78.4682"/>
<polygon fill="#9a32cd" stroke="#9a32cd" points="273.848,-41.196 274.67,-30.633 267.44,-38.3778 273.848,-41.196"/>
<text text-anchor="middle" x="283" y="-52" font-family="Helvetica,sans-Serif" font-size="10.00"> children</text>
</g>
<!-- Node5 -->
<g id="node5" class="node"><title>Node5</title>
<g id="a_node5"><a xlink:title="STL class. ">
<polygon fill="white" stroke="#bfbfbf" points="291,-438.5 291,-457.5 376,-457.5 376,-438.5 291,-438.5"/>
<text text-anchor="middle" x="333.5" y="-445.5" font-family="Helvetica,sans-Serif" font-size="10.00">std::vector&lt; T &gt;</text>
</a>
</g>
</g>
<!-- Node5&#45;&gt;Node4 -->
<g id="edge6" class="edge"><title>Node5&#45;&gt;Node4</title>
<path fill="none" stroke="orange" stroke-dasharray="5,2" d="M333.174,-428.162C332.882,-409.663 332.5,-380.64 332.5,-355.5 332.5,-355.5 332.5,-355.5 332.5,-87 332.5,-63.8781 314.06,-43.5048 298.934,-30.682"/>
<polygon fill="orange" stroke="orange" points="329.679,-428.482 333.344,-438.422 336.678,-428.366 329.679,-428.482"/>
<text text-anchor="middle" x="378.5" y="-241.5" font-family="Helvetica,sans-Serif" font-size="10.00"> &lt; mc::gfx::Entity * &gt;</text>
</g>
<!-- Node6 -->
<g id="node6" class="node"><title>Node6</title>
<polygon fill="white" stroke="#bfbfbf" points="258,-555.5 258,-574.5 287,-574.5 287,-555.5 258,-555.5"/>
<text text-anchor="middle" x="272.5" y="-562.5" font-family="Helvetica,sans-Serif" font-size="10.00">T</text>
</g>
<!-- Node6&#45;&gt;Node5 -->
<g id="edge7" class="edge"><title>Node6&#45;&gt;Node5</title>
<path fill="none" stroke="#9a32cd" stroke-dasharray="5,2" d="M286.272,-547.35C294.667,-536.61 305.157,-522.067 312.5,-508 321.355,-491.036 327.96,-469.511 331.224,-457.714"/>
<polygon fill="#9a32cd" stroke="#9a32cd" points="283.355,-545.392 279.827,-555.383 288.815,-549.773 283.355,-545.392"/>
<text text-anchor="middle" x="322" y="-529" font-family="Helvetica,sans-Serif" font-size="10.00"> elements</text>
</g>
<!-- Node10 -->
<g id="node10" class="node"><title>Node10</title>
<g id="a_node10"><a xlink:href="../../d1/d1e/a00087.html" target="_top" xlink:title="1&#45;dimensional vector class that supports mathmatical operations. ">
<polygon fill="white" stroke="black" points="87,-477.5 87,-507.5 208,-507.5 208,-477.5 87,-477.5"/>
<text text-anchor="start" x="95" y="-495.5" font-family="Helvetica,sans-Serif" font-size="10.00">mc::VectorBase&lt; Child,</text>
<text text-anchor="middle" x="147.5" y="-484.5" font-family="Helvetica,sans-Serif" font-size="10.00"> T, N &gt;</text>
</a>
</g>
</g>
<!-- Node6&#45;&gt;Node10 -->
<g id="edge12" class="edge"><title>Node6&#45;&gt;Node10</title>
<path fill="none" stroke="#9a32cd" stroke-dasharray="5,2" d="M249.084,-551.546C240.671,-547.021 231.131,-541.832 222.5,-537 205.294,-527.368 186.058,-516.203 171.375,-507.596"/>
<polygon fill="#9a32cd" stroke="#9a32cd" points="247.528,-554.682 257.995,-556.318 250.832,-548.511 247.528,-554.682"/>
<text text-anchor="middle" x="240.5" y="-529" font-family="Helvetica,sans-Serif" font-size="10.00"> content</text>
</g>
<!-- Node12 -->
<g id="node12" class="node"><title>Node12</title>
<g id="a_node12"><a xlink:href="../../d1/d1e/a00087.html" target="_top" xlink:title="mc::VectorBase\&lt; Vector\l\&lt; T, N \&gt;, T, N \&gt;">
<polygon fill="white" stroke="black" points="133,-388.5 133,-418.5 258,-418.5 258,-388.5 133,-388.5"/>
<text text-anchor="start" x="141" y="-406.5" font-family="Helvetica,sans-Serif" font-size="10.00">mc::VectorBase&lt; Vector</text>
<text text-anchor="middle" x="195.5" y="-395.5" font-family="Helvetica,sans-Serif" font-size="10.00">&lt; T, N &gt;, T, N &gt;</text>
</a>
</g>
</g>
<!-- Node6&#45;&gt;Node12 -->
<g id="edge15" class="edge"><title>Node6&#45;&gt;Node12</title>
<path fill="none" stroke="#9a32cd" stroke-dasharray="5,2" d="M272.558,-545.069C272.305,-514.042 270.254,-454.101 258.5,-437 253.202,-429.292 245.497,-423.296 237.282,-418.675"/>
<polygon fill="#9a32cd" stroke="#9a32cd" points="269.059,-545.403 272.583,-555.395 276.059,-545.386 269.059,-545.403"/>
<text text-anchor="middle" x="288.5" y="-490" font-family="Helvetica,sans-Serif" font-size="10.00"> content</text>
</g>
<!-- Node7 -->
<g id="node7" class="node"><title>Node7</title>
<g id="a_node7"><a xlink:href="../../d1/d09/a00077.html" target="_top" xlink:title="Matrix&#45;based class that allows for the easy creation and management of transformation matrices...">
<polygon fill="white" stroke="black" points="176.5,-145.5 176.5,-164.5 282.5,-164.5 282.5,-145.5 176.5,-145.5"/>
<text text-anchor="middle" x="229.5" y="-152.5" font-family="Helvetica,sans-Serif" font-size="10.00">mc::TransformMatrix</text>
</a>
</g>
</g>
<!-- Node7&#45;&gt;Node3 -->
<g id="edge8" class="edge"><title>Node7&#45;&gt;Node3</title>
<path fill="none" stroke="#9a32cd" stroke-dasharray="5,2" d="M224.925,-135.415C221.866,-122.988 217.984,-107.217 215.624,-97.6273"/>
<polygon fill="#9a32cd" stroke="#9a32cd" points="221.553,-136.36 227.342,-145.234 228.35,-134.687 221.553,-136.36"/>
<text text-anchor="middle" x="254" y="-119" font-family="Helvetica,sans-Serif" font-size="10.00"> transformation</text>
</g>
<!-- Node8 -->
<g id="node8" class="node"><title>Node8</title>
<g id="a_node8"><a xlink:href="../../d1/d51/a00079.html" target="_top" xlink:title="mc::Vector\&lt; float, 3 \&gt;">
<polygon fill="white" stroke="black" points="139.5,-234.5 139.5,-253.5 251.5,-253.5 251.5,-234.5 139.5,-234.5"/>
<text text-anchor="middle" x="195.5" y="-241.5" font-family="Helvetica,sans-Serif" font-size="10.00">mc::Vector&lt; float, 3 &gt;</text>
</a>
</g>
</g>
<!-- Node8&#45;&gt;Node7 -->
<g id="edge9" class="edge"><title>Node8&#45;&gt;Node7</title>
<path fill="none" stroke="#9a32cd" stroke-dasharray="5,2" d="M202.545,-224.973C209.759,-206.514 220.665,-178.607 226.129,-164.625"/>
<polygon fill="#9a32cd" stroke="#9a32cd" points="199.264,-223.752 198.884,-234.34 205.784,-226.3 199.264,-223.752"/>
<text text-anchor="middle" x="241.5" y="-208" font-family="Helvetica,sans-Serif" font-size="10.00"> rotation</text>
<text text-anchor="middle" x="241.5" y="-197" font-family="Helvetica,sans-Serif" font-size="10.00">scaler</text>
<text text-anchor="middle" x="241.5" y="-186" font-family="Helvetica,sans-Serif" font-size="10.00">translation</text>
</g>
<!-- Node9 -->
<g id="node9" class="node"><title>Node9</title>
<g id="a_node9"><a xlink:href="../../d1/d1e/a00087.html" target="_top" xlink:title="mc::VectorBase\&lt; Vector\l\&lt; float, N \&gt;, float, N \&gt;">
<polygon fill="white" stroke="black" points="0,-339.5 0,-369.5 125,-369.5 125,-339.5 0,-339.5"/>
<text text-anchor="start" x="8" y="-357.5" font-family="Helvetica,sans-Serif" font-size="10.00">mc::VectorBase&lt; Vector</text>
<text text-anchor="middle" x="62.5" y="-346.5" font-family="Helvetica,sans-Serif" font-size="10.00">&lt; float, N &gt;, float, N &gt;</text>
</a>
</g>
</g>
<!-- Node9&#45;&gt;Node8 -->
<g id="edge10" class="edge"><title>Node9&#45;&gt;Node8</title>
<path fill="none" stroke="midnightblue" d="M87.6582,-332.976C117.014,-309.028 164.187,-270.545 185.026,-253.545"/>
<polygon fill="midnightblue" stroke="midnightblue" points="85.4236,-330.282 79.8874,-339.316 89.8486,-335.706 85.4236,-330.282"/>
</g>
<!-- Node10&#45;&gt;Node9 -->
<g id="edge11" class="edge"><title>Node10&#45;&gt;Node9</title>
<path fill="none" stroke="orange" stroke-dasharray="5,2" d="M77.6663,-476.562C69.7668,-472.136 62.7017,-466.409 57.5,-459 38.6865,-432.204 49.1506,-391.196 56.7722,-369.728"/>
<polygon fill="orange" stroke="orange" points="76.3591,-479.818 86.8847,-481.026 79.4101,-473.518 76.3591,-479.818"/>
<text text-anchor="start" x="57.5" y="-451" font-family="Helvetica,sans-Serif" font-size="10.00"> &lt; Vector&lt; float, N</text>
<text text-anchor="middle" x="98" y="-440" font-family="Helvetica,sans-Serif" font-size="10.00"> &gt;, float, N &gt;</text>
</g>
<!-- Node10&#45;&gt;Node12 -->
<g id="edge16" class="edge"><title>Node10&#45;&gt;Node12</title>
<path fill="none" stroke="orange" stroke-dasharray="5,2" d="M143.285,-467.135C142.727,-457.257 143.641,-446.065 148.5,-437 152.531,-429.481 159.158,-423.346 166.181,-418.513"/>
<polygon fill="orange" stroke="orange" points="139.815,-467.601 144.351,-477.176 146.776,-466.862 139.815,-467.601"/>
<text text-anchor="middle" x="203.5" y="-445.5" font-family="Helvetica,sans-Serif" font-size="10.00"> &lt; Vector&lt; T, N &gt;, T, N &gt;</text>
</g>
<!-- Node11 -->
<g id="node11" class="node"><title>Node11</title>
<g id="a_node11"><a xlink:href="../../d1/d51/a00079.html" target="_top" xlink:title="mc::Vector\&lt; T, N \&gt;">
<polygon fill="white" stroke="black" points="145,-301.5 145,-320.5 246,-320.5 246,-301.5 145,-301.5"/>
<text text-anchor="middle" x="195.5" y="-308.5" font-family="Helvetica,sans-Serif" font-size="10.00">mc::Vector&lt; T, N &gt;</text>
</a>
</g>
</g>
<!-- Node11&#45;&gt;Node8 -->
<g id="edge13" class="edge"><title>Node11&#45;&gt;Node8</title>
<path fill="none" stroke="orange" stroke-dasharray="5,2" d="M195.5,-291.037C195.5,-278.67 195.5,-263.12 195.5,-253.627"/>
<polygon fill="orange" stroke="orange" points="192,-291.234 195.5,-301.234 199,-291.234 192,-291.234"/>
<text text-anchor="middle" x="221" y="-275" font-family="Helvetica,sans-Serif" font-size="10.00"> &lt; float, 3 &gt;</text>
</g>
<!-- Node12&#45;&gt;Node11 -->
<g id="edge14" class="edge"><title>Node12&#45;&gt;Node11</title>
<path fill="none" stroke="midnightblue" d="M195.5,-378.275C195.5,-359.198 195.5,-333.709 195.5,-320.596"/>
<polygon fill="midnightblue" stroke="midnightblue" points="192,-378.359 195.5,-388.359 199,-378.359 192,-378.359"/>
</g>
</g>
</svg>
