<?xml version="1.0" encoding="UTF-8" standalone="no"?>
<!DOCTYPE svg PUBLIC "-//W3C//DTD SVG 1.1//EN"
 "http://www.w3.org/Graphics/SVG/1.1/DTD/svg11.dtd">
<!-- Generated by graphviz version 2.38.0 (20140413.2041)
 -->
<!-- Title: mc::gfx::Entity Pages: 1 -->
<svg width="228pt" height="461pt"
 viewBox="0.00 0.00 227.50 461.00" xmlns="http://www.w3.org/2000/svg" xmlns:xlink="http://www.w3.org/1999/xlink">
<g id="graph0" class="graph" transform="scale(1 1) rotate(0) translate(4 457)">
<title>mc::gfx::Entity</title>
<polygon fill="white" stroke="none" points="-4,4 -4,-457 223.5,-457 223.5,4 -4,4"/>
<!-- Node1 -->
<g id="node1" class="node"><title>Node1</title>
<polygon fill="#bfbfbf" stroke="black" points="47.5,-0.5 47.5,-19.5 127.5,-19.5 127.5,-0.5 47.5,-0.5"/>
<text text-anchor="middle" x="87.5" y="-7.5" font-family="Helvetica,sans-Serif" font-size="10.00">mc::gfx::Entity</text>
</g>
<!-- Node2 -->
<g id="node2" class="node"><title>Node2</title>
<g id="a_node2"><a xlink:href="$d4/d8c/a00035.html" xlink:title="Matrix&#45;based class that allows for the easy creation and management of transformation matrices...">
<polygon fill="white" stroke="black" points="34.5,-67.5 34.5,-86.5 140.5,-86.5 140.5,-67.5 34.5,-67.5"/>
<text text-anchor="middle" x="87.5" y="-74.5" font-family="Helvetica,sans-Serif" font-size="10.00">mc::TransformMatrix</text>
</a>
</g>
</g>
<!-- Node2&#45;&gt;Node1 -->
<g id="edge1" class="edge"><title>Node2&#45;&gt;Node1</title>
<path fill="none" stroke="#9a32cd" stroke-dasharray="5,2" d="M87.5,-57.037C87.5,-44.6703 87.5,-29.1198 87.5,-19.6273"/>
<polygon fill="#9a32cd" stroke="#9a32cd" points="84.0001,-57.2338 87.5,-67.2338 91.0001,-57.2338 84.0001,-57.2338"/>
<text text-anchor="middle" x="120" y="-41" font-family="Helvetica,sans-Serif" font-size="10.00"> transformation</text>
</g>
<!-- Node3 -->
<g id="node3" class="node"><title>Node3</title>
<g id="a_node3"><a xlink:href="$d1/dc6/a00037.html" xlink:title="mc::Vector\&lt; float, 3 \&gt;">
<polygon fill="white" stroke="black" points="31.5,-156.5 31.5,-175.5 143.5,-175.5 143.5,-156.5 31.5,-156.5"/>
<text text-anchor="middle" x="87.5" y="-163.5" font-family="Helvetica,sans-Serif" font-size="10.00">mc::Vector&lt; float, 3 &gt;</text>
</a>
</g>
</g>
<!-- Node3&#45;&gt;Node2 -->
<g id="edge2" class="edge"><title>Node3&#45;&gt;Node2</title>
<path fill="none" stroke="#9a32cd" stroke-dasharray="5,2" d="M87.5,-146.195C87.5,-127.738 87.5,-100.412 87.5,-86.6249"/>
<polygon fill="#9a32cd" stroke="#9a32cd" points="84.0001,-146.34 87.5,-156.34 91.0001,-146.34 84.0001,-146.34"/>
<text text-anchor="middle" x="110.5" y="-130" font-family="Helvetica,sans-Serif" font-size="10.00"> rotation</text>
<text text-anchor="middle" x="110.5" y="-119" font-family="Helvetica,sans-Serif" font-size="10.00">scaler</text>
<text text-anchor="middle" x="110.5" y="-108" font-family="Helvetica,sans-Serif" font-size="10.00">translation</text>
</g>
<!-- Node4 -->
<g id="node4" class="node"><title>Node4</title>
<polygon fill="white" stroke="#bfbfbf" points="0,-261.5 0,-280.5 107,-280.5 107,-261.5 0,-261.5"/>
<text text-anchor="middle" x="53.5" y="-268.5" font-family="Helvetica,sans-Serif" font-size="10.00">std::array&lt; float, N &gt;</text>
</g>
<!-- Node4&#45;&gt;Node3 -->
<g id="edge3" class="edge"><title>Node4&#45;&gt;Node3</title>
<path fill="none" stroke="#9a32cd" stroke-dasharray="5,2" d="M56.0641,-251.298C57.5166,-242.581 59.6274,-232.139 62.5,-223 67.9273,-205.733 77.171,-186.704 82.769,-175.867"/>
<polygon fill="#9a32cd" stroke="#9a32cd" points="52.6031,-250.778 54.5687,-261.189 59.5244,-251.824 52.6031,-250.778"/>
<text text-anchor="middle" x="80.5" y="-230.5" font-family="Helvetica,sans-Serif" font-size="10.00"> content</text>
</g>
<!-- Node5 -->
<g id="node5" class="node"><title>Node5</title>
<g id="a_node5"><a xlink:title="STL class. ">
<polygon fill="white" stroke="#bfbfbf" points="66,-366.5 66,-385.5 147,-385.5 147,-366.5 66,-366.5"/>
<text text-anchor="middle" x="106.5" y="-373.5" font-family="Helvetica,sans-Serif" font-size="10.00">std::array&lt; T &gt;</text>
</a>
</g>
</g>
<!-- Node5&#45;&gt;Node4 -->
<g id="edge4" class="edge"><title>Node5&#45;&gt;Node4</title>
<path fill="none" stroke="orange" stroke-dasharray="5,2" d="M78.874,-360.756C74.1128,-357.179 69.6808,-352.927 66.5,-348 52.8514,-326.857 52.2382,-295.78 52.8754,-280.763"/>
<polygon fill="orange" stroke="orange" points="77.3161,-363.919 87.6004,-366.465 81.1488,-358.061 77.3161,-363.919"/>
<text text-anchor="middle" x="92.5" y="-340" font-family="Helvetica,sans-Serif" font-size="10.00"> &lt; float, N &gt;</text>
</g>
<!-- Node8 -->
<g id="node8" class="node"><title>Node8</title>
<polygon fill="white" stroke="#bfbfbf" points="111.5,-299.5 111.5,-318.5 205.5,-318.5 205.5,-299.5 111.5,-299.5"/>
<text text-anchor="middle" x="158.5" y="-306.5" font-family="Helvetica,sans-Serif" font-size="10.00">std::array&lt; T, N &gt;</text>
</g>
<!-- Node5&#45;&gt;Node8 -->
<g id="edge9" class="edge"><title>Node5&#45;&gt;Node8</title>
<path fill="none" stroke="orange" stroke-dasharray="5,2" d="M115.755,-357.455C119.622,-350.777 124.401,-343.271 129.5,-337 134.968,-330.275 142.079,-323.629 147.891,-318.614"/>
<polygon fill="orange" stroke="orange" points="112.582,-355.962 110.813,-366.408 118.71,-359.345 112.582,-355.962"/>
<text text-anchor="middle" x="149.5" y="-340" font-family="Helvetica,sans-Serif" font-size="10.00"> &lt; T, N &gt;</text>
</g>
<!-- Node6 -->
<g id="node6" class="node"><title>Node6</title>
<polygon fill="white" stroke="#bfbfbf" points="135,-433.5 135,-452.5 164,-452.5 164,-433.5 135,-433.5"/>
<text text-anchor="middle" x="149.5" y="-440.5" font-family="Helvetica,sans-Serif" font-size="10.00">T</text>
</g>
<!-- Node6&#45;&gt;Node5 -->
<g id="edge5" class="edge"><title>Node6&#45;&gt;Node5</title>
<path fill="none" stroke="#9a32cd" stroke-dasharray="5,2" d="M134.545,-425.605C131.731,-422.206 128.916,-418.57 126.5,-415 120.065,-405.492 114.134,-393.672 110.43,-385.762"/>
<polygon fill="#9a32cd" stroke="#9a32cd" points="132.113,-428.142 141.313,-433.395 137.397,-423.551 132.113,-428.142"/>
<text text-anchor="middle" x="148" y="-407" font-family="Helvetica,sans-Serif" font-size="10.00"> elements</text>
</g>
<!-- Node6&#45;&gt;Node8 -->
<g id="edge8" class="edge"><title>Node6&#45;&gt;Node8</title>
<path fill="none" stroke="#9a32cd" stroke-dasharray="5,2" d="M164.407,-425.192C166.498,-421.999 168.331,-418.542 169.5,-415 180.365,-382.08 176.164,-371.02 169.5,-337 168.255,-330.642 165.505,-323.892 163.066,-318.732"/>
<polygon fill="#9a32cd" stroke="#9a32cd" points="161.463,-423.279 158.16,-433.346 167.02,-427.536 161.463,-423.279"/>
<text text-anchor="middle" x="198" y="-373.5" font-family="Helvetica,sans-Serif" font-size="10.00"> elements</text>
</g>
<!-- Node7 -->
<g id="node7" class="node"><title>Node7</title>
<g id="a_node7"><a xlink:href="$d1/dc6/a00037.html" xlink:title="1&#45;dimensional vector class that supports mathmatical operations. ">
<polygon fill="white" stroke="black" points="108,-223.5 108,-242.5 209,-242.5 209,-223.5 108,-223.5"/>
<text text-anchor="middle" x="158.5" y="-230.5" font-family="Helvetica,sans-Serif" font-size="10.00">mc::Vector&lt; T, N &gt;</text>
</a>
</g>
</g>
<!-- Node7&#45;&gt;Node3 -->
<g id="edge6" class="edge"><title>Node7&#45;&gt;Node3</title>
<path fill="none" stroke="orange" stroke-dasharray="5,2" d="M141.412,-216.356C127.454,-203.578 108.245,-185.992 96.9237,-175.627"/>
<polygon fill="orange" stroke="orange" points="139.185,-219.063 148.925,-223.234 143.912,-213.9 139.185,-219.063"/>
<text text-anchor="middle" x="153" y="-197" font-family="Helvetica,sans-Serif" font-size="10.00"> &lt; float, 3 &gt;</text>
</g>
<!-- Node8&#45;&gt;Node7 -->
<g id="edge7" class="edge"><title>Node8&#45;&gt;Node7</title>
<path fill="none" stroke="#9a32cd" stroke-dasharray="5,2" d="M158.5,-289.072C158.5,-274.18 158.5,-254.111 158.5,-242.768"/>
<polygon fill="#9a32cd" stroke="#9a32cd" points="155,-289.221 158.5,-299.221 162,-289.221 155,-289.221"/>
<text text-anchor="middle" x="176.5" y="-268.5" font-family="Helvetica,sans-Serif" font-size="10.00"> content</text>
</g>
</g>
</svg>
