<?xml version="1.0" encoding="UTF-8" standalone="no"?>
<!DOCTYPE svg PUBLIC "-//W3C//DTD SVG 1.1//EN"
 "http://www.w3.org/Graphics/SVG/1.1/DTD/svg11.dtd">
<!-- Generated by graphviz version 2.38.0 (20140413.2041)
 -->
<!-- Title: mc::gfx::GraphicsEntity Pages: 1 -->
<!--zoomable 583 -->
<svg id="main" version="1.1" xmlns="http://www.w3.org/2000/svg" xmlns:xlink="http://www.w3.org/1999/xlink" xml:space="preserve" onload="init(evt)">
<style type="text/css"><![CDATA[
.edge:hover path { stroke: red; }
.edge:hover polygon { stroke: red; fill: red; }
]]></style>
<script type="text/javascript"><![CDATA[
var edges = document.getElementsByTagName('g');
if (edges && edges.length) {
  for (var i=0;i<edges.length;i++) {
    if (edges[i].id.substr(0,4)=='edge') {
      edges[i].setAttribute('class','edge');
    }
  }
}
]]></script>
        <defs>
                <circle id="rim" cx="0" cy="0" r="7"/>
                <circle id="rim2" cx="0" cy="0" r="3.5"/>
                <g id="zoomPlus">
                        <use xlink:href="#rim" fill="#404040">
                                <set attributeName="fill" to="#808080" begin="zoomplus.mouseover" end="zoomplus.mouseout"/>
                        </use>
                        <path d="M-4,0h8M0,-4v8" fill="none" stroke="white" stroke-width="1.5" pointer-events="none"/>
                </g>
                <g id="zoomMin">
                        <use xlink:href="#rim" fill="#404040">
                                <set attributeName="fill" to="#808080" begin="zoomminus.mouseover" end="zoomminus.mouseout"/>
                        </use>
                        <path d="M-4,0h8" fill="none" stroke="white" stroke-width="1.5" pointer-events="none"/>
                </g>
                <g id="dirArrow">
                        <path fill="none" stroke="white" stroke-width="1.5" d="M0,-3.0v7 M-2.5,-0.5L0,-3.0L2.5,-0.5"/>
                </g>
               <g id="resetDef">
                       <use xlink:href="#rim2" fill="#404040">
                               <set attributeName="fill" to="#808080" begin="reset.mouseover" end="reset.mouseout"/>
                       </use>
               </g>
        </defs>

<script type="text/javascript">
var viewWidth = 356;
var viewHeight = 583;
var sectionId = 'dynsection-1';
</script>
<script xlink:href="../../svgpan.js"/>
<svg id="graph" class="graph">
<g id="viewport">
<title>mc::gfx::GraphicsEntity</title>
<polygon fill="white" stroke="none" points="-4,4 -4,-579 351.5,-579 351.5,4 -4,4"/>
<!-- Node1 -->
<g id="node1" class="node"><title>Node1</title>
<polygon fill="#bfbfbf" stroke="black" points="162,-6 162,-25 281,-25 281,-6 162,-6"/>
<text text-anchor="middle" x="221.5" y="-13" font-family="Helvetica,sans-Serif" font-size="10.00">mc::gfx::GraphicsEntity</text>
</g>
<!-- Node2 -->
<g id="node2" class="node"><title>Node2</title>
<g id="a_node2"><a xlink:href="../../d7/de0/a00022.html" target="_top" xlink:title="Abstract superclass for all graphical objects. ">
<polygon fill="white" stroke="black" points="152.5,-78.5 152.5,-97.5 232.5,-97.5 232.5,-78.5 152.5,-78.5"/>
<text text-anchor="middle" x="192.5" y="-85.5" font-family="Helvetica,sans-Serif" font-size="10.00">mc::gfx::Entity</text>
</a>
</g>
</g>
<!-- Node2&#45;&gt;Node1 -->
<g id="edge1" class="edge"><title>Node2&#45;&gt;Node1</title>
<path fill="none" stroke="midnightblue" d="M203.008,-69.2388C204.615,-66.2065 206.177,-63.0501 207.5,-60 212.614,-48.2089 216.862,-33.9213 219.292,-25.0185"/>
<polygon fill="midnightblue" stroke="midnightblue" points="199.806,-67.7914 197.952,-78.2227 205.906,-71.2245 199.806,-67.7914"/>
</g>
<!-- Node4 -->
<g id="node4" class="node"><title>Node4</title>
<polygon fill="white" stroke="#bfbfbf" points="41,-0.5 41,-30.5 144,-30.5 144,-0.5 41,-0.5"/>
<text text-anchor="start" x="49" y="-18.5" font-family="Helvetica,sans-Serif" font-size="10.00">std::vector&lt; mc::gfx</text>
<text text-anchor="middle" x="92.5" y="-7.5" font-family="Helvetica,sans-Serif" font-size="10.00">::Entity * &gt;</text>
</g>
<!-- Node2&#45;&gt;Node4 -->
<g id="edge4" class="edge"><title>Node2&#45;&gt;Node4</title>
<path fill="none" stroke="#9a32cd" stroke-dasharray="5,2" d="M142.074,-84.5294C124.741,-81.0251 106.859,-73.9294 95.5,-60 88.8981,-51.9039 88.5421,-39.8958 89.6166,-30.546"/>
<polygon fill="#9a32cd" stroke="#9a32cd" points="141.724,-88.0192 152.162,-86.2022 142.87,-81.1135 141.724,-88.0192"/>
<text text-anchor="middle" x="117" y="-52" font-family="Helvetica,sans-Serif" font-size="10.00"> elements</text>
</g>
<!-- Node3 -->
<g id="node3" class="node"><title>Node3</title>
<g id="a_node3"><a xlink:href="../../d4/d8c/a00035.html" target="_top" xlink:title="mc::Initializable">
<polygon fill="white" stroke="black" points="263.5,-145.5 263.5,-164.5 347.5,-164.5 347.5,-145.5 263.5,-145.5"/>
<text text-anchor="middle" x="305.5" y="-152.5" font-family="Helvetica,sans-Serif" font-size="10.00">mc::Initializable</text>
</a>
</g>
</g>
<!-- Node3&#45;&gt;Node2 -->
<g id="edge2" class="edge"><title>Node3&#45;&gt;Node2</title>
<path fill="none" stroke="midnightblue" d="M290.222,-138.517C282.188,-130.996 271.872,-122.255 261.5,-116 248.832,-108.36 233.622,-102.136 220.709,-97.5969"/>
<polygon fill="midnightblue" stroke="midnightblue" points="287.798,-141.042 297.412,-145.495 292.673,-136.019 287.798,-141.042"/>
</g>
<!-- Node4&#45;&gt;Node2 -->
<g id="edge3" class="edge"><title>Node4&#45;&gt;Node2</title>
<path fill="none" stroke="#9a32cd" stroke-dasharray="5,2" d="M123.544,-36.173C129.873,-40.325 136.446,-44.7404 142.5,-49 156.232,-58.6617 171.537,-70.4505 181.553,-78.3109"/>
<polygon fill="#9a32cd" stroke="#9a32cd" points="125.429,-33.2238 115.135,-30.714 121.617,-39.095 125.429,-33.2238"/>
<text text-anchor="middle" x="175" y="-52" font-family="Helvetica,sans-Serif" font-size="10.00"> children</text>
</g>
<!-- Node5 -->
<g id="node5" class="node"><title>Node5</title>
<g id="a_node5"><a xlink:title="STL class. ">
<polygon fill="white" stroke="#bfbfbf" points="0,-438.5 0,-457.5 85,-457.5 85,-438.5 0,-438.5"/>
<text text-anchor="middle" x="42.5" y="-445.5" font-family="Helvetica,sans-Serif" font-size="10.00">std::vector&lt; T &gt;</text>
</a>
</g>
</g>
<!-- Node5&#45;&gt;Node4 -->
<g id="edge5" class="edge"><title>Node5&#45;&gt;Node4</title>
<path fill="none" stroke="orange" stroke-dasharray="5,2" d="M42.5,-428.162C42.5,-409.662 42.5,-380.639 42.5,-355.5 42.5,-355.5 42.5,-355.5 42.5,-87 42.5,-64.1919 60.127,-43.6144 74.4489,-30.6594"/>
<polygon fill="orange" stroke="orange" points="39.0001,-428.422 42.5,-438.422 46.0001,-428.422 39.0001,-428.422"/>
<text text-anchor="middle" x="88.5" y="-241.5" font-family="Helvetica,sans-Serif" font-size="10.00"> &lt; mc::gfx::Entity * &gt;</text>
</g>
<!-- Node6 -->
<g id="node6" class="node"><title>Node6</title>
<polygon fill="white" stroke="#bfbfbf" points="158,-555.5 158,-574.5 187,-574.5 187,-555.5 158,-555.5"/>
<text text-anchor="middle" x="172.5" y="-562.5" font-family="Helvetica,sans-Serif" font-size="10.00">T</text>
</g>
<!-- Node6&#45;&gt;Node5 -->
<g id="edge6" class="edge"><title>Node6&#45;&gt;Node5</title>
<path fill="none" stroke="#9a32cd" stroke-dasharray="5,2" d="M148.848,-552.193C141.094,-547.866 132.643,-542.636 125.5,-537 93.5155,-511.762 62.3423,-474.239 49.1188,-457.544"/>
<polygon fill="#9a32cd" stroke="#9a32cd" points="147.354,-555.363 157.823,-556.99 150.653,-549.19 147.354,-555.363"/>
<text text-anchor="middle" x="147" y="-529" font-family="Helvetica,sans-Serif" font-size="10.00"> elements</text>
</g>
<!-- Node10 -->
<g id="node10" class="node"><title>Node10</title>
<g id="a_node10"><a xlink:href="../../df/d5d/a00084.html" target="_top" xlink:title="1&#45;dimensional vector class that supports mathmatical operations. ">
<polygon fill="white" stroke="black" points="112,-477.5 112,-507.5 233,-507.5 233,-477.5 112,-477.5"/>
<text text-anchor="start" x="120" y="-495.5" font-family="Helvetica,sans-Serif" font-size="10.00">mc::VectorBase&lt; Child,</text>
<text text-anchor="middle" x="172.5" y="-484.5" font-family="Helvetica,sans-Serif" font-size="10.00"> T, N &gt;</text>
</a>
</g>
</g>
<!-- Node6&#45;&gt;Node10 -->
<g id="edge11" class="edge"><title>Node6&#45;&gt;Node10</title>
<path fill="none" stroke="#9a32cd" stroke-dasharray="5,2" d="M172.5,-545.236C172.5,-533.408 172.5,-518.383 172.5,-507.576"/>
<polygon fill="#9a32cd" stroke="#9a32cd" points="169,-545.355 172.5,-555.355 176,-545.355 169,-545.355"/>
<text text-anchor="middle" x="190.5" y="-529" font-family="Helvetica,sans-Serif" font-size="10.00"> content</text>
</g>
<!-- Node12 -->
<g id="node12" class="node"><title>Node12</title>
<g id="a_node12"><a xlink:href="../../df/d5d/a00084.html" target="_top" xlink:title="mc::VectorBase\&lt; Vector\l\&lt; T, N \&gt;, T, N \&gt;">
<polygon fill="white" stroke="black" points="150,-388.5 150,-418.5 275,-418.5 275,-388.5 150,-388.5"/>
<text text-anchor="start" x="158" y="-406.5" font-family="Helvetica,sans-Serif" font-size="10.00">mc::VectorBase&lt; Vector</text>
<text text-anchor="middle" x="212.5" y="-395.5" font-family="Helvetica,sans-Serif" font-size="10.00">&lt; T, N &gt;, T, N &gt;</text>
</a>
</g>
</g>
<!-- Node6&#45;&gt;Node12 -->
<g id="edge14" class="edge"><title>Node6&#45;&gt;Node12</title>
<path fill="none" stroke="#9a32cd" stroke-dasharray="5,2" d="M196.978,-554.455C230.761,-539.767 290.249,-508.073 314.5,-459 318.832,-450.234 320.27,-444.894 314.5,-437 305.068,-424.096 290.462,-416.194 275.223,-411.39"/>
<polygon fill="#9a32cd" stroke="#9a32cd" points="195.261,-551.38 187.387,-558.468 197.963,-557.837 195.261,-551.38"/>
<text text-anchor="middle" x="320.5" y="-490" font-family="Helvetica,sans-Serif" font-size="10.00"> content</text>
</g>
<!-- Node7 -->
<g id="node7" class="node"><title>Node7</title>
<g id="a_node7"><a xlink:href="../../db/db6/a00074.html" target="_top" xlink:title="Matrix&#45;based class that allows for the easy creation and management of transformation matrices...">
<polygon fill="white" stroke="black" points="139.5,-145.5 139.5,-164.5 245.5,-164.5 245.5,-145.5 139.5,-145.5"/>
<text text-anchor="middle" x="192.5" y="-152.5" font-family="Helvetica,sans-Serif" font-size="10.00">mc::TransformMatrix</text>
</a>
</g>
</g>
<!-- Node7&#45;&gt;Node2 -->
<g id="edge7" class="edge"><title>Node7&#45;&gt;Node2</title>
<path fill="none" stroke="#9a32cd" stroke-dasharray="5,2" d="M192.5,-135.037C192.5,-122.67 192.5,-107.12 192.5,-97.6273"/>
<polygon fill="#9a32cd" stroke="#9a32cd" points="189,-135.234 192.5,-145.234 196,-135.234 189,-135.234"/>
<text text-anchor="middle" x="225" y="-119" font-family="Helvetica,sans-Serif" font-size="10.00"> transformation</text>
</g>
<!-- Node8 -->
<g id="node8" class="node"><title>Node8</title>
<g id="a_node8"><a xlink:href="../../db/df8/a00076.html" target="_top" xlink:title="mc::Vector\&lt; float, 3 \&gt;">
<polygon fill="white" stroke="black" points="152.5,-234.5 152.5,-253.5 264.5,-253.5 264.5,-234.5 152.5,-234.5"/>
<text text-anchor="middle" x="208.5" y="-241.5" font-family="Helvetica,sans-Serif" font-size="10.00">mc::Vector&lt; float, 3 &gt;</text>
</a>
</g>
</g>
<!-- Node8&#45;&gt;Node7 -->
<g id="edge8" class="edge"><title>Node8&#45;&gt;Node7</title>
<path fill="none" stroke="#9a32cd" stroke-dasharray="5,2" d="M205.089,-224.455C201.695,-205.996 196.634,-178.477 194.086,-164.625"/>
<polygon fill="#9a32cd" stroke="#9a32cd" points="201.656,-225.138 206.907,-234.34 208.541,-223.872 201.656,-225.138"/>
<text text-anchor="middle" x="226.5" y="-208" font-family="Helvetica,sans-Serif" font-size="10.00"> rotation</text>
<text text-anchor="middle" x="226.5" y="-197" font-family="Helvetica,sans-Serif" font-size="10.00">scaler</text>
<text text-anchor="middle" x="226.5" y="-186" font-family="Helvetica,sans-Serif" font-size="10.00">translation</text>
</g>
<!-- Node9 -->
<g id="node9" class="node"><title>Node9</title>
<g id="a_node9"><a xlink:href="../../df/d5d/a00084.html" target="_top" xlink:title="mc::VectorBase\&lt; Vector\l\&lt; float, N \&gt;, float, N \&gt;">
<polygon fill="white" stroke="black" points="61,-339.5 61,-369.5 186,-369.5 186,-339.5 61,-339.5"/>
<text text-anchor="start" x="69" y="-357.5" font-family="Helvetica,sans-Serif" font-size="10.00">mc::VectorBase&lt; Vector</text>
<text text-anchor="middle" x="123.5" y="-346.5" font-family="Helvetica,sans-Serif" font-size="10.00">&lt; float, N &gt;, float, N &gt;</text>
</a>
</g>
</g>
<!-- Node9&#45;&gt;Node8 -->
<g id="edge9" class="edge"><title>Node9&#45;&gt;Node8</title>
<path fill="none" stroke="midnightblue" d="M134.008,-330.2C138.751,-320.746 144.797,-309.964 151.5,-301 165.457,-282.336 185.644,-264.051 197.872,-253.686"/>
<polygon fill="midnightblue" stroke="midnightblue" points="130.744,-328.912 129.564,-339.44 137.052,-331.946 130.744,-328.912"/>
</g>
<!-- Node10&#45;&gt;Node9 -->
<g id="edge10" class="edge"><title>Node10&#45;&gt;Node9</title>
<path fill="none" stroke="orange" stroke-dasharray="5,2" d="M117.624,-471.975C112.865,-468.341 108.665,-464.054 105.5,-459 87.9764,-431.023 104.23,-390.869 115.258,-369.742"/>
<polygon fill="orange" stroke="orange" points="115.789,-474.957 126.076,-477.492 119.615,-469.095 115.789,-474.957"/>
<text text-anchor="start" x="105.5" y="-451" font-family="Helvetica,sans-Serif" font-size="10.00"> &lt; Vector&lt; float, N</text>
<text text-anchor="middle" x="146" y="-440" font-family="Helvetica,sans-Serif" font-size="10.00"> &gt;, float, N &gt;</text>
</g>
<!-- Node10&#45;&gt;Node12 -->
<g id="edge15" class="edge"><title>Node10&#45;&gt;Node12</title>
<path fill="none" stroke="orange" stroke-dasharray="5,2" d="M185.731,-468.424C187.396,-465.287 189.029,-462.086 190.5,-459 196.909,-445.552 203.163,-429.716 207.355,-418.591"/>
<polygon fill="orange" stroke="orange" points="182.515,-467.009 180.768,-477.459 188.65,-470.379 182.515,-467.009"/>
<text text-anchor="middle" x="255.5" y="-445.5" font-family="Helvetica,sans-Serif" font-size="10.00"> &lt; Vector&lt; T, N &gt;, T, N &gt;</text>
</g>
<!-- Node11 -->
<g id="node11" class="node"><title>Node11</title>
<g id="a_node11"><a xlink:href="../../db/df8/a00076.html" target="_top" xlink:title="mc::Vector\&lt; T, N \&gt;">
<polygon fill="white" stroke="black" points="161,-301.5 161,-320.5 262,-320.5 262,-301.5 161,-301.5"/>
<text text-anchor="middle" x="211.5" y="-308.5" font-family="Helvetica,sans-Serif" font-size="10.00">mc::Vector&lt; T, N &gt;</text>
</a>
</g>
</g>
<!-- Node11&#45;&gt;Node8 -->
<g id="edge12" class="edge"><title>Node11&#45;&gt;Node8</title>
<path fill="none" stroke="orange" stroke-dasharray="5,2" d="M210.625,-291.037C210.054,-278.67 209.336,-263.12 208.898,-253.627"/>
<polygon fill="orange" stroke="orange" points="207.138,-291.406 211.095,-301.234 214.131,-291.083 207.138,-291.406"/>
<text text-anchor="middle" x="236" y="-275" font-family="Helvetica,sans-Serif" font-size="10.00"> &lt; float, 3 &gt;</text>
</g>
<!-- Node12&#45;&gt;Node11 -->
<g id="edge13" class="edge"><title>Node12&#45;&gt;Node11</title>
<path fill="none" stroke="midnightblue" d="M212.232,-378.275C212.022,-359.198 211.74,-333.709 211.595,-320.596"/>
<polygon fill="midnightblue" stroke="midnightblue" points="208.733,-378.399 212.344,-388.359 215.733,-378.321 208.733,-378.399"/>
</g>
</g>
</svg>
        <g id="navigator" transform="translate(0 0)" fill="#404254">
                <rect fill="#f2f5e9" fill-opacity="0.5" stroke="#606060" stroke-width=".5" x="0" y="0" width="60" height="60"/>
                <use id="zoomplus" xlink:href="#zoomPlus" x="17" y="9" onmousedown="handleZoom(evt,'in')"/>
                <use id="zoomminus" xlink:href="#zoomMin" x="42" y="9" onmousedown="handleZoom(evt,'out')"/>
                <use id="reset" xlink:href="#resetDef" x="30" y="36" onmousedown="handleReset()"/>
                <g id="arrowUp" xlink:href="#dirArrow" transform="translate(30 24)" onmousedown="handlePan(0,-1)">
                  <use xlink:href="#rim" fill="#404040">
                        <set attributeName="fill" to="#808080" begin="arrowUp.mouseover" end="arrowUp.mouseout"/>
                  </use>
                  <path fill="none" stroke="white" stroke-width="1.5" d="M0,-3.0v7 M-2.5,-0.5L0,-3.0L2.5,-0.5"/>
                </g>
                <g id="arrowRight" xlink:href="#dirArrow" transform="rotate(90) translate(36 -43)" onmousedown="handlePan(1,0)">
                  <use xlink:href="#rim" fill="#404040">
                        <set attributeName="fill" to="#808080" begin="arrowRight.mouseover" end="arrowRight.mouseout"/>
                  </use>
                  <path fill="none" stroke="white" stroke-width="1.5" d="M0,-3.0v7 M-2.5,-0.5L0,-3.0L2.5,-0.5"/>
                </g>
                <g id="arrowDown" xlink:href="#dirArrow" transform="rotate(180) translate(-30 -48)" onmousedown="handlePan(0,1)">
                  <use xlink:href="#rim" fill="#404040">
                        <set attributeName="fill" to="#808080" begin="arrowDown.mouseover" end="arrowDown.mouseout"/>
                  </use>
                  <path fill="none" stroke="white" stroke-width="1.5" d="M0,-3.0v7 M-2.5,-0.5L0,-3.0L2.5,-0.5"/>
                </g>
                <g id="arrowLeft" xlink:href="#dirArrow" transform="rotate(270) translate(-36 17)" onmousedown="handlePan(-1,0)">
                  <use xlink:href="#rim" fill="#404040">
                        <set attributeName="fill" to="#808080" begin="arrowLeft.mouseover" end="arrowLeft.mouseout"/>
                  </use>
                  <path fill="none" stroke="white" stroke-width="1.5" d="M0,-3.0v7 M-2.5,-0.5L0,-3.0L2.5,-0.5"/>
                </g>
        </g>
        <svg viewBox="0 0 15 15" width="100%" height="30px" preserveAspectRatio="xMaxYMin meet">
         <g id="arrow_out" transform="scale(0.3 0.3)">
          <a xlink:href="a00243_org.svg" target="_base">
           <rect id="button" ry="5" rx="5" y="6" x="6" height="38" width="38"
                fill="#f2f5e9" fill-opacity="0.5" stroke="#606060" stroke-width="1.0"/>
           <path id="arrow"
             d="M 11.500037,31.436501 C 11.940474,20.09759 22.043105,11.32322 32.158766,21.979434 L 37.068811,17.246167 C 37.068811,17.246167 37.088388,32 37.088388,32 L 22.160133,31.978069 C 22.160133,31.978069 26.997745,27.140456 26.997745,27.140456 C 18.528582,18.264221 13.291696,25.230495 11.500037,31.436501 z"
             style="fill:#404040;"/>
          </a>
         </g>
        </svg>
</svg>
