<?xml version="1.0" encoding="UTF-8" standalone="no"?>
<!DOCTYPE svg PUBLIC "-//W3C//DTD SVG 1.1//EN"
 "http://www.w3.org/Graphics/SVG/1.1/DTD/svg11.dtd">
<!-- Generated by graphviz version 2.38.0 (20140413.2041)
 -->
<!-- Title: mc::gfx::Painter::State Pages: 1 -->
<svg width="1272pt" height="135pt"
 viewBox="0.00 0.00 1272.00 135.00" xmlns="http://www.w3.org/2000/svg" xmlns:xlink="http://www.w3.org/1999/xlink">
<g id="graph0" class="graph" transform="scale(1 1) rotate(0) translate(4 131)">
<title>mc::gfx::Painter::State</title>
<polygon fill="white" stroke="none" points="-4,4 -4,-131 1268,-131 1268,4 -4,4"/>
<!-- Node1 -->
<g id="node1" class="node"><title>Node1</title>
<polygon fill="#bfbfbf" stroke="black" points="1149,-39.5 1149,-58.5 1264,-58.5 1264,-39.5 1149,-39.5"/>
<text text-anchor="middle" x="1206.5" y="-46.5" font-family="Helvetica,sans-Serif" font-size="10.00">mc::gfx::Painter::State</text>
</g>
<!-- Node2 -->
<g id="node2" class="node"><title>Node2</title>
<g id="a_node2"><a xlink:href="../../db/db6/a00074.html" target="_top" xlink:title="Matrix&#45;based class that allows for the easy creation and management of transformation matrices...">
<polygon fill="white" stroke="black" points="936,-84.5 936,-103.5 1042,-103.5 1042,-84.5 936,-84.5"/>
<text text-anchor="middle" x="989" y="-91.5" font-family="Helvetica,sans-Serif" font-size="10.00">mc::TransformMatrix</text>
</a>
</g>
</g>
<!-- Node2&#45;&gt;Node1 -->
<g id="edge1" class="edge"><title>Node2&#45;&gt;Node1</title>
<path fill="none" stroke="#9a32cd" stroke-dasharray="5,2" d="M1052.21,-86.2731C1076.89,-82.6931 1105.43,-77.9081 1131,-72 1146.69,-68.373 1163.9,-63.1481 1177.81,-58.5947"/>
<polygon fill="#9a32cd" stroke="#9a32cd" points="1051.65,-82.8166 1042.24,-87.684 1052.63,-89.7474 1051.65,-82.8166"/>
<text text-anchor="middle" x="1095.5" y="-88" font-family="Helvetica,sans-Serif" font-size="10.00"> transformation</text>
</g>
<!-- Node3 -->
<g id="node3" class="node"><title>Node3</title>
<g id="a_node3"><a xlink:href="../../db/df8/a00076.html" target="_top" xlink:title="mc::Vector\&lt; float, 3 \&gt;">
<polygon fill="white" stroke="black" points="742,-84.5 742,-103.5 854,-103.5 854,-84.5 742,-84.5"/>
<text text-anchor="middle" x="798" y="-91.5" font-family="Helvetica,sans-Serif" font-size="10.00">mc::Vector&lt; float, 3 &gt;</text>
</a>
</g>
</g>
<!-- Node3&#45;&gt;Node2 -->
<g id="edge2" class="edge"><title>Node3&#45;&gt;Node2</title>
<path fill="none" stroke="#9a32cd" stroke-dasharray="5,2" d="M864.333,-94C887.652,-94 913.598,-94 935.678,-94"/>
<polygon fill="#9a32cd" stroke="#9a32cd" points="864.175,-90.5001 854.175,-94 864.175,-97.5001 864.175,-90.5001"/>
<text text-anchor="middle" x="895" y="-119" font-family="Helvetica,sans-Serif" font-size="10.00"> rotation</text>
<text text-anchor="middle" x="895" y="-108" font-family="Helvetica,sans-Serif" font-size="10.00">scaler</text>
<text text-anchor="middle" x="895" y="-97" font-family="Helvetica,sans-Serif" font-size="10.00">translation</text>
</g>
<!-- Node4 -->
<g id="node4" class="node"><title>Node4</title>
<g id="a_node4"><a xlink:href="../../df/d5d/a00084.html" target="_top" xlink:title="mc::VectorBase\&lt; Vector\l\&lt; float, N \&gt;, float, N \&gt;">
<polygon fill="white" stroke="black" points="530,-67 530,-97 655,-97 655,-67 530,-67"/>
<text text-anchor="start" x="538" y="-85" font-family="Helvetica,sans-Serif" font-size="10.00">mc::VectorBase&lt; Vector</text>
<text text-anchor="middle" x="592.5" y="-74" font-family="Helvetica,sans-Serif" font-size="10.00">&lt; float, N &gt;, float, N &gt;</text>
</a>
</g>
</g>
<!-- Node4&#45;&gt;Node3 -->
<g id="edge3" class="edge"><title>Node4&#45;&gt;Node3</title>
<path fill="none" stroke="midnightblue" d="M665.327,-86.2355C690.46,-87.7175 718.266,-89.3572 741.825,-90.7464"/>
<polygon fill="midnightblue" stroke="midnightblue" points="665.298,-82.7278 655.109,-85.633 664.886,-89.7156 665.298,-82.7278"/>
</g>
<!-- Node10 -->
<g id="node10" class="node"><title>Node10</title>
<g id="a_node10"><a xlink:href="../../db/df8/a00076.html" target="_top" xlink:title="mc::Vector\&lt; float, 4 \&gt;">
<polygon fill="white" stroke="black" points="742,-0.5 742,-19.5 854,-19.5 854,-0.5 742,-0.5"/>
<text text-anchor="middle" x="798" y="-7.5" font-family="Helvetica,sans-Serif" font-size="10.00">mc::Vector&lt; float, 4 &gt;</text>
</a>
</g>
</g>
<!-- Node4&#45;&gt;Node10 -->
<g id="edge12" class="edge"><title>Node4&#45;&gt;Node10</title>
<path fill="none" stroke="midnightblue" d="M665.294,-72.5683C684.76,-68.7094 705.544,-63.3601 724,-56 747.098,-46.7886 770.935,-30.1816 784.841,-19.6432"/>
<polygon fill="midnightblue" stroke="midnightblue" points="664.437,-69.168 655.254,-74.4532 665.728,-76.0479 664.437,-69.168"/>
</g>
<!-- Node5 -->
<g id="node5" class="node"><title>Node5</title>
<g id="a_node5"><a xlink:href="../../df/d5d/a00084.html" target="_top" xlink:title="1&#45;dimensional vector class that supports mathmatical operations. ">
<polygon fill="white" stroke="black" points="101,-53 101,-83 222,-83 222,-53 101,-53"/>
<text text-anchor="start" x="109" y="-71" font-family="Helvetica,sans-Serif" font-size="10.00">mc::VectorBase&lt; Child,</text>
<text text-anchor="middle" x="161.5" y="-60" font-family="Helvetica,sans-Serif" font-size="10.00"> T, N &gt;</text>
</a>
</g>
</g>
<!-- Node5&#45;&gt;Node4 -->
<g id="edge4" class="edge"><title>Node5&#45;&gt;Node4</title>
<path fill="none" stroke="orange" stroke-dasharray="5,2" d="M232.195,-70.2744C314.776,-72.9694 451.075,-77.4174 529.928,-79.9907"/>
<polygon fill="orange" stroke="orange" points="232.259,-66.7748 222.151,-69.9466 232.031,-73.771 232.259,-66.7748"/>
<text text-anchor="start" x="390" y="-93" font-family="Helvetica,sans-Serif" font-size="10.00"> &lt; Vector&lt; float, N</text>
<text text-anchor="middle" x="430.5" y="-82" font-family="Helvetica,sans-Serif" font-size="10.00"> &gt;, float, N &gt;</text>
</g>
<!-- Node8 -->
<g id="node8" class="node"><title>Node8</title>
<g id="a_node8"><a xlink:href="../../df/d5d/a00084.html" target="_top" xlink:title="mc::VectorBase\&lt; Vector\l\&lt; T, N \&gt;, T, N \&gt;">
<polygon fill="white" stroke="black" points="368,-11 368,-41 493,-41 493,-11 368,-11"/>
<text text-anchor="start" x="376" y="-29" font-family="Helvetica,sans-Serif" font-size="10.00">mc::VectorBase&lt; Vector</text>
<text text-anchor="middle" x="430.5" y="-18" font-family="Helvetica,sans-Serif" font-size="10.00">&lt; T, N &gt;, T, N &gt;</text>
</a>
</g>
</g>
<!-- Node5&#45;&gt;Node8 -->
<g id="edge9" class="edge"><title>Node5&#45;&gt;Node8</title>
<path fill="none" stroke="orange" stroke-dasharray="5,2" d="M231.977,-57.0711C274.035,-50.4552 327.201,-42.092 367.777,-35.7092"/>
<polygon fill="orange" stroke="orange" points="231.422,-53.6152 222.088,-58.6267 232.51,-60.5301 231.422,-53.6152"/>
<text text-anchor="middle" x="295" y="-59" font-family="Helvetica,sans-Serif" font-size="10.00"> &lt; Vector&lt; T, N &gt;, T, N &gt;</text>
</g>
<!-- Node6 -->
<g id="node6" class="node"><title>Node6</title>
<polygon fill="white" stroke="#bfbfbf" points="0,-32.5 0,-51.5 29,-51.5 29,-32.5 0,-32.5"/>
<text text-anchor="middle" x="14.5" y="-39.5" font-family="Helvetica,sans-Serif" font-size="10.00">T</text>
</g>
<!-- Node6&#45;&gt;Node5 -->
<g id="edge5" class="edge"><title>Node6&#45;&gt;Node5</title>
<path fill="none" stroke="#9a32cd" stroke-dasharray="5,2" d="M39.1457,-46.2399C55.9311,-49.2497 79.2504,-53.4311 100.966,-57.3249"/>
<polygon fill="#9a32cd" stroke="#9a32cd" points="39.602,-42.766 29.1412,-44.446 38.3665,-49.6561 39.602,-42.766"/>
<text text-anchor="middle" x="65" y="-57" font-family="Helvetica,sans-Serif" font-size="10.00"> content</text>
</g>
<!-- Node6&#45;&gt;Node8 -->
<g id="edge8" class="edge"><title>Node6&#45;&gt;Node8</title>
<path fill="none" stroke="#9a32cd" stroke-dasharray="5,2" d="M39.2971,-38.5818C56.4187,-36.2779 80.0838,-33.4108 101,-32 193.908,-25.7335 301.908,-25.0193 367.971,-25.3244"/>
<polygon fill="#9a32cd" stroke="#9a32cd" points="38.5118,-35.157 29.0853,-39.9935 39.4705,-42.0911 38.5118,-35.157"/>
<text text-anchor="middle" x="161.5" y="-35" font-family="Helvetica,sans-Serif" font-size="10.00"> content</text>
</g>
<!-- Node7 -->
<g id="node7" class="node"><title>Node7</title>
<g id="a_node7"><a xlink:href="../../db/df8/a00076.html" target="_top" xlink:title="mc::Vector\&lt; T, N \&gt;">
<polygon fill="white" stroke="black" points="542,-16.5 542,-35.5 643,-35.5 643,-16.5 542,-16.5"/>
<text text-anchor="middle" x="592.5" y="-23.5" font-family="Helvetica,sans-Serif" font-size="10.00">mc::Vector&lt; T, N &gt;</text>
</a>
</g>
</g>
<!-- Node7&#45;&gt;Node3 -->
<g id="edge6" class="edge"><title>Node7&#45;&gt;Node3</title>
<path fill="none" stroke="orange" stroke-dasharray="5,2" d="M631.834,-38.8095C671.561,-52.0843 732.736,-72.5261 768.421,-84.4503"/>
<polygon fill="orange" stroke="orange" points="632.819,-35.4483 622.225,-35.5985 630.6,-42.0874 632.819,-35.4483"/>
<text text-anchor="middle" x="698.5" y="-72" font-family="Helvetica,sans-Serif" font-size="10.00"> &lt; float, 3 &gt;</text>
</g>
<!-- Node7&#45;&gt;Node10 -->
<g id="edge13" class="edge"><title>Node7&#45;&gt;Node10</title>
<path fill="none" stroke="orange" stroke-dasharray="5,2" d="M646.13,-14.7058C655.058,-13.1823 664.265,-11.8524 673,-11 695.498,-8.80456 720.401,-8.24184 741.951,-8.34183"/>
<polygon fill="orange" stroke="orange" points="645.429,-11.2757 636.208,-16.4931 646.67,-18.1648 645.429,-11.2757"/>
<text text-anchor="middle" x="698.5" y="-14" font-family="Helvetica,sans-Serif" font-size="10.00"> &lt; float, 4 &gt;</text>
</g>
<!-- Node8&#45;&gt;Node7 -->
<g id="edge7" class="edge"><title>Node8&#45;&gt;Node7</title>
<path fill="none" stroke="midnightblue" d="M503.656,-26C516.6,-26 529.82,-26 541.944,-26"/>
<polygon fill="midnightblue" stroke="midnightblue" points="503.36,-22.5001 493.36,-26 503.36,-29.5001 503.36,-22.5001"/>
</g>
<!-- Node9 -->
<g id="node9" class="node"><title>Node9</title>
<g id="a_node9"><a xlink:href="../../dd/d1b/a00015.html" target="_top" xlink:title="Represents a color in the RGBA space. ">
<polygon fill="white" stroke="black" points="959.5,-39.5 959.5,-58.5 1018.5,-58.5 1018.5,-39.5 959.5,-39.5"/>
<text text-anchor="middle" x="989" y="-46.5" font-family="Helvetica,sans-Serif" font-size="10.00">mc::Color</text>
</a>
</g>
</g>
<!-- Node9&#45;&gt;Node1 -->
<g id="edge10" class="edge"><title>Node9&#45;&gt;Node1</title>
<path fill="none" stroke="#9a32cd" stroke-dasharray="5,2" d="M1028.91,-49C1062.37,-49 1111.07,-49 1148.86,-49"/>
<polygon fill="#9a32cd" stroke="#9a32cd" points="1028.62,-45.5001 1018.62,-49 1028.62,-52.5001 1028.62,-45.5001"/>
<text text-anchor="middle" x="1095.5" y="-63" font-family="Helvetica,sans-Serif" font-size="10.00"> secondaryColor</text>
<text text-anchor="middle" x="1095.5" y="-52" font-family="Helvetica,sans-Serif" font-size="10.00">primaryColor</text>
</g>
<!-- Node10&#45;&gt;Node1 -->
<g id="edge11" class="edge"><title>Node10&#45;&gt;Node1</title>
<path fill="none" stroke="#9a32cd" stroke-dasharray="5,2" d="M864.328,-9.86711C913.354,-10.3858 982.058,-12.4255 1042,-19 1083.45,-23.5466 1130.2,-32.5187 1163.06,-39.4718"/>
<polygon fill="#9a32cd" stroke="#9a32cd" points="864.206,-6.366 854.176,-9.77844 864.145,-13.3657 864.206,-6.366"/>
<text text-anchor="middle" x="989" y="-22" font-family="Helvetica,sans-Serif" font-size="10.00"> data</text>
</g>
</g>
</svg>
