<?xml version="1.0" encoding="UTF-8" standalone="no"?>
<!DOCTYPE svg PUBLIC "-//W3C//DTD SVG 1.1//EN"
 "http://www.w3.org/Graphics/SVG/1.1/DTD/svg11.dtd">
<!-- Generated by graphviz version 2.38.0 (20140413.2041)
 -->
<!-- Title: mc::gfx::Image Pages: 1 -->
<svg width="274pt" height="662pt"
 viewBox="0.00 0.00 274.00 662.00" xmlns="http://www.w3.org/2000/svg" xmlns:xlink="http://www.w3.org/1999/xlink">
<g id="graph0" class="graph" transform="scale(1 1) rotate(0) translate(4 658)">
<title>mc::gfx::Image</title>
<polygon fill="white" stroke="none" points="-4,4 -4,-658 270,-658 270,4 -4,4"/>
<!-- Node1 -->
<g id="node1" class="node"><title>Node1</title>
<polygon fill="#bfbfbf" stroke="black" points="162,-0.5 162,-19.5 243,-19.5 243,-0.5 162,-0.5"/>
<text text-anchor="middle" x="202.5" y="-7.5" font-family="Helvetica,sans-Serif" font-size="10.00">mc::gfx::Image</text>
</g>
<!-- Node2 -->
<g id="node2" class="node"><title>Node2</title>
<g id="a_node2"><a xlink:href="../../d7/d7a/a00016.html" target="_top" xlink:title="mc::gfx::Entity2D">
<polygon fill="white" stroke="black" points="156.5,-57.5 156.5,-76.5 248.5,-76.5 248.5,-57.5 156.5,-57.5"/>
<text text-anchor="middle" x="202.5" y="-64.5" font-family="Helvetica,sans-Serif" font-size="10.00">mc::gfx::Entity2D</text>
</a>
</g>
</g>
<!-- Node2&#45;&gt;Node1 -->
<g id="edge1" class="edge"><title>Node2&#45;&gt;Node1</title>
<path fill="none" stroke="midnightblue" d="M202.5,-47.1166C202.5,-37.8173 202.5,-27.0557 202.5,-19.7149"/>
<polygon fill="midnightblue" stroke="midnightblue" points="199,-47.4062 202.5,-57.4063 206,-47.4063 199,-47.4062"/>
</g>
<!-- Node3 -->
<g id="node3" class="node"><title>Node3</title>
<g id="a_node3"><a xlink:href="../../de/d11/a00021.html" target="_top" xlink:title="mc::gfx::GraphicsEntity">
<polygon fill="white" stroke="black" points="143,-120 143,-139 262,-139 262,-120 143,-120"/>
<text text-anchor="middle" x="202.5" y="-127" font-family="Helvetica,sans-Serif" font-size="10.00">mc::gfx::GraphicsEntity</text>
</a>
</g>
</g>
<!-- Node3&#45;&gt;Node2 -->
<g id="edge2" class="edge"><title>Node3&#45;&gt;Node2</title>
<path fill="none" stroke="midnightblue" d="M202.5,-109.503C202.5,-98.5003 202.5,-85.182 202.5,-76.6521"/>
<polygon fill="midnightblue" stroke="midnightblue" points="199,-109.832 202.5,-119.832 206,-109.832 199,-109.832"/>
</g>
<!-- Node4 -->
<g id="node4" class="node"><title>Node4</title>
<g id="a_node4"><a xlink:href="../../dd/d1b/a00015.html" target="_top" xlink:title="Abstract superclass for all graphical objects. ">
<polygon fill="white" stroke="black" points="107.5,-192.5 107.5,-211.5 187.5,-211.5 187.5,-192.5 107.5,-192.5"/>
<text text-anchor="middle" x="147.5" y="-199.5" font-family="Helvetica,sans-Serif" font-size="10.00">mc::gfx::Entity</text>
</a>
</g>
</g>
<!-- Node4&#45;&gt;Node3 -->
<g id="edge3" class="edge"><title>Node4&#45;&gt;Node3</title>
<path fill="none" stroke="midnightblue" d="M171.545,-186.441C176.268,-182.805 180.875,-178.61 184.5,-174 192.785,-163.464 197.842,-148.575 200.407,-139.234"/>
<polygon fill="midnightblue" stroke="midnightblue" points="169.29,-183.747 163.107,-192.351 173.306,-189.481 169.29,-183.747"/>
</g>
<!-- Node5 -->
<g id="node5" class="node"><title>Node5</title>
<polygon fill="white" stroke="#bfbfbf" points="22,-114.5 22,-144.5 125,-144.5 125,-114.5 22,-114.5"/>
<text text-anchor="start" x="30" y="-132.5" font-family="Helvetica,sans-Serif" font-size="10.00">std::vector&lt; mc::gfx</text>
<text text-anchor="middle" x="73.5" y="-121.5" font-family="Helvetica,sans-Serif" font-size="10.00">::Entity * &gt;</text>
</g>
<!-- Node4&#45;&gt;Node5 -->
<g id="edge5" class="edge"><title>Node4&#45;&gt;Node5</title>
<path fill="none" stroke="#9a32cd" stroke-dasharray="5,2" d="M97.6068,-191.6C88.5663,-187.634 80.2087,-182 74.5,-174 68.5327,-165.637 68.6234,-153.883 70.0197,-144.701"/>
<polygon fill="#9a32cd" stroke="#9a32cd" points="96.5998,-194.96 107.193,-195.159 99.0361,-188.398 96.5998,-194.96"/>
<text text-anchor="middle" x="96" y="-166" font-family="Helvetica,sans-Serif" font-size="10.00"> elements</text>
</g>
<!-- Node5&#45;&gt;Node4 -->
<g id="edge4" class="edge"><title>Node5&#45;&gt;Node4</title>
<path fill="none" stroke="#9a32cd" stroke-dasharray="5,2" d="M106.547,-150.438C111.817,-154.288 117.006,-158.528 121.5,-163 130.452,-171.909 138.258,-184.296 142.922,-192.474"/>
<polygon fill="#9a32cd" stroke="#9a32cd" points="108.504,-147.536 98.2873,-144.731 104.524,-153.295 108.504,-147.536"/>
<text text-anchor="middle" x="150" y="-166" font-family="Helvetica,sans-Serif" font-size="10.00"> children</text>
</g>
<!-- Node6 -->
<g id="node6" class="node"><title>Node6</title>
<g id="a_node6"><a xlink:title="STL class. ">
<polygon fill="white" stroke="#bfbfbf" points="0,-529.5 0,-548.5 85,-548.5 85,-529.5 0,-529.5"/>
<text text-anchor="middle" x="42.5" y="-536.5" font-family="Helvetica,sans-Serif" font-size="10.00">std::vector&lt; T &gt;</text>
</a>
</g>
</g>
<!-- Node6&#45;&gt;Node5 -->
<g id="edge6" class="edge"><title>Node6&#45;&gt;Node5</title>
<path fill="none" stroke="orange" stroke-dasharray="5,2" d="M42.1084,-519.335C41.828,-504.373 41.5,-482.839 41.5,-464 41.5,-464 41.5,-464 41.5,-201 41.5,-179.897 53.5356,-158.162 62.8445,-144.508"/>
<polygon fill="orange" stroke="orange" points="38.6091,-519.414 42.3072,-529.342 45.6077,-519.275 38.6091,-519.414"/>
<text text-anchor="middle" x="87.5" y="-355.5" font-family="Helvetica,sans-Serif" font-size="10.00"> &lt; mc::gfx::Entity * &gt;</text>
</g>
<!-- Node7 -->
<g id="node7" class="node"><title>Node7</title>
<polygon fill="white" stroke="#bfbfbf" points="135,-634.5 135,-653.5 164,-653.5 164,-634.5 135,-634.5"/>
<text text-anchor="middle" x="149.5" y="-641.5" font-family="Helvetica,sans-Serif" font-size="10.00">T</text>
</g>
<!-- Node7&#45;&gt;Node6 -->
<g id="edge7" class="edge"><title>Node7&#45;&gt;Node6</title>
<path fill="none" stroke="#9a32cd" stroke-dasharray="5,2" d="M125.552,-631.551C117.778,-627.25 109.388,-621.944 102.5,-616 78.5733,-595.352 57.4305,-564.044 47.8866,-548.868"/>
<polygon fill="#9a32cd" stroke="#9a32cd" points="124.104,-634.744 134.587,-636.276 127.347,-628.54 124.104,-634.744"/>
<text text-anchor="middle" x="124" y="-608" font-family="Helvetica,sans-Serif" font-size="10.00"> elements</text>
</g>
<!-- Node11 -->
<g id="node11" class="node"><title>Node11</title>
<g id="a_node11"><a xlink:title="STL class. ">
<polygon fill="white" stroke="#bfbfbf" points="109,-567.5 109,-586.5 190,-586.5 190,-567.5 109,-567.5"/>
<text text-anchor="middle" x="149.5" y="-574.5" font-family="Helvetica,sans-Serif" font-size="10.00">std::array&lt; T &gt;</text>
</a>
</g>
</g>
<!-- Node7&#45;&gt;Node11 -->
<g id="edge12" class="edge"><title>Node7&#45;&gt;Node11</title>
<path fill="none" stroke="#9a32cd" stroke-dasharray="5,2" d="M149.5,-624.037C149.5,-611.67 149.5,-596.12 149.5,-586.627"/>
<polygon fill="#9a32cd" stroke="#9a32cd" points="146,-624.234 149.5,-634.234 153,-624.234 146,-624.234"/>
<text text-anchor="middle" x="171" y="-608" font-family="Helvetica,sans-Serif" font-size="10.00"> elements</text>
</g>
<!-- Node13 -->
<g id="node13" class="node"><title>Node13</title>
<polygon fill="white" stroke="#bfbfbf" points="168.5,-491.5 168.5,-510.5 262.5,-510.5 262.5,-491.5 168.5,-491.5"/>
<text text-anchor="middle" x="215.5" y="-498.5" font-family="Helvetica,sans-Serif" font-size="10.00">std::array&lt; T, N &gt;</text>
</g>
<!-- Node7&#45;&gt;Node13 -->
<g id="edge15" class="edge"><title>Node7&#45;&gt;Node13</title>
<path fill="none" stroke="#9a32cd" stroke-dasharray="5,2" d="M173.454,-633.04C181.582,-628.745 190.193,-623.063 196.5,-616 218.112,-591.798 218.919,-580.773 225.5,-549 227.303,-540.296 227.068,-537.749 225.5,-529 224.371,-522.702 221.871,-515.952 219.653,-510.777"/>
<polygon fill="#9a32cd" stroke="#9a32cd" points="171.793,-629.956 164.3,-637.446 174.828,-636.263 171.793,-629.956"/>
<text text-anchor="middle" x="243" y="-574.5" font-family="Helvetica,sans-Serif" font-size="10.00"> elements</text>
</g>
<!-- Node8 -->
<g id="node8" class="node"><title>Node8</title>
<g id="a_node8"><a xlink:href="../../d5/de0/a00050.html" target="_top" xlink:title="Matrix&#45;based class that allows for the easy creation and management of transformation matrices...">
<polygon fill="white" stroke="black" points="119.5,-259.5 119.5,-278.5 225.5,-278.5 225.5,-259.5 119.5,-259.5"/>
<text text-anchor="middle" x="172.5" y="-266.5" font-family="Helvetica,sans-Serif" font-size="10.00">mc::TransformMatrix</text>
</a>
</g>
</g>
<!-- Node8&#45;&gt;Node4 -->
<g id="edge8" class="edge"><title>Node8&#45;&gt;Node4</title>
<path fill="none" stroke="#9a32cd" stroke-dasharray="5,2" d="M165.496,-249.79C160.695,-237.308 154.544,-221.314 150.818,-211.627"/>
<polygon fill="#9a32cd" stroke="#9a32cd" points="162.272,-251.157 169.128,-259.234 168.805,-248.644 162.272,-251.157"/>
<text text-anchor="middle" x="194" y="-233" font-family="Helvetica,sans-Serif" font-size="10.00"> transformation</text>
</g>
<!-- Node9 -->
<g id="node9" class="node"><title>Node9</title>
<g id="a_node9"><a xlink:href="../../d1/d84/a00052.html" target="_top" xlink:title="mc::Vector\&lt; float, 3 \&gt;">
<polygon fill="white" stroke="black" points="151.5,-348.5 151.5,-367.5 263.5,-367.5 263.5,-348.5 151.5,-348.5"/>
<text text-anchor="middle" x="207.5" y="-355.5" font-family="Helvetica,sans-Serif" font-size="10.00">mc::Vector&lt; float, 3 &gt;</text>
</a>
</g>
</g>
<!-- Node9&#45;&gt;Node8 -->
<g id="edge9" class="edge"><title>Node9&#45;&gt;Node8</title>
<path fill="none" stroke="#9a32cd" stroke-dasharray="5,2" d="M200.248,-338.973C192.822,-320.514 181.595,-292.607 175.97,-278.625"/>
<polygon fill="#9a32cd" stroke="#9a32cd" points="197.037,-340.369 204.016,-348.34 203.531,-337.756 197.037,-340.369"/>
<text text-anchor="middle" x="219.5" y="-322" font-family="Helvetica,sans-Serif" font-size="10.00"> rotation</text>
<text text-anchor="middle" x="219.5" y="-311" font-family="Helvetica,sans-Serif" font-size="10.00">scaler</text>
<text text-anchor="middle" x="219.5" y="-300" font-family="Helvetica,sans-Serif" font-size="10.00">translation</text>
</g>
<!-- Node10 -->
<g id="node10" class="node"><title>Node10</title>
<polygon fill="white" stroke="#bfbfbf" points="57,-453.5 57,-472.5 164,-472.5 164,-453.5 57,-453.5"/>
<text text-anchor="middle" x="110.5" y="-460.5" font-family="Helvetica,sans-Serif" font-size="10.00">std::array&lt; float, N &gt;</text>
</g>
<!-- Node10&#45;&gt;Node9 -->
<g id="edge10" class="edge"><title>Node10&#45;&gt;Node9</title>
<path fill="none" stroke="#9a32cd" stroke-dasharray="5,2" d="M110.691,-443.153C111.593,-433.988 113.925,-423.208 119.5,-415 135.169,-391.93 163.831,-376.351 184.184,-367.599"/>
<polygon fill="#9a32cd" stroke="#9a32cd" points="107.19,-443.086 110.179,-453.25 114.181,-443.44 107.19,-443.086"/>
<text text-anchor="middle" x="137.5" y="-422.5" font-family="Helvetica,sans-Serif" font-size="10.00"> content</text>
</g>
<!-- Node11&#45;&gt;Node10 -->
<g id="edge11" class="edge"><title>Node11&#45;&gt;Node10</title>
<path fill="none" stroke="orange" stroke-dasharray="5,2" d="M123.795,-561.36C119.679,-557.852 115.968,-553.726 113.5,-549 100.376,-523.87 105.25,-488.622 108.508,-472.569"/>
<polygon fill="orange" stroke="orange" points="121.848,-564.272 131.987,-567.344 125.976,-558.62 121.848,-564.272"/>
<text text-anchor="middle" x="139.5" y="-536.5" font-family="Helvetica,sans-Serif" font-size="10.00"> &lt; float, N &gt;</text>
</g>
<!-- Node11&#45;&gt;Node13 -->
<g id="edge16" class="edge"><title>Node11&#45;&gt;Node13</title>
<path fill="none" stroke="orange" stroke-dasharray="5,2" d="M161.365,-558.977C168.065,-549.773 176.817,-538.4 185.5,-529 191.586,-522.412 199.086,-515.662 205.065,-510.559"/>
<polygon fill="orange" stroke="orange" points="158.383,-557.13 155.427,-567.304 164.082,-561.194 158.383,-557.13"/>
<text text-anchor="middle" x="205.5" y="-536.5" font-family="Helvetica,sans-Serif" font-size="10.00"> &lt; T, N &gt;</text>
</g>
<!-- Node12 -->
<g id="node12" class="node"><title>Node12</title>
<g id="a_node12"><a xlink:href="../../d1/d84/a00052.html" target="_top" xlink:title="1&#45;dimensional vector class that supports mathmatical operations. ">
<polygon fill="white" stroke="black" points="165,-415.5 165,-434.5 266,-434.5 266,-415.5 165,-415.5"/>
<text text-anchor="middle" x="215.5" y="-422.5" font-family="Helvetica,sans-Serif" font-size="10.00">mc::Vector&lt; T, N &gt;</text>
</a>
</g>
</g>
<!-- Node12&#45;&gt;Node9 -->
<g id="edge13" class="edge"><title>Node12&#45;&gt;Node9</title>
<path fill="none" stroke="orange" stroke-dasharray="5,2" d="M213.166,-405.037C211.644,-392.67 209.73,-377.12 208.562,-367.627"/>
<polygon fill="orange" stroke="orange" points="209.726,-405.736 214.421,-415.234 216.673,-404.881 209.726,-405.736"/>
<text text-anchor="middle" x="238" y="-389" font-family="Helvetica,sans-Serif" font-size="10.00"> &lt; float, 3 &gt;</text>
</g>
<!-- Node13&#45;&gt;Node12 -->
<g id="edge14" class="edge"><title>Node13&#45;&gt;Node12</title>
<path fill="none" stroke="#9a32cd" stroke-dasharray="5,2" d="M215.5,-481.072C215.5,-466.18 215.5,-446.111 215.5,-434.768"/>
<polygon fill="#9a32cd" stroke="#9a32cd" points="212,-481.221 215.5,-491.221 219,-481.221 212,-481.221"/>
<text text-anchor="middle" x="233.5" y="-460.5" font-family="Helvetica,sans-Serif" font-size="10.00"> content</text>
</g>
</g>
</svg>
