<?xml version="1.0" encoding="UTF-8" standalone="no"?>
<!DOCTYPE svg PUBLIC "-//W3C//DTD SVG 1.1//EN"
 "http://www.w3.org/Graphics/SVG/1.1/DTD/svg11.dtd">
<!-- Generated by graphviz version 2.38.0 (20140413.2041)
 -->
<!-- Title: mc::TransformMatrix Pages: 1 -->
<svg width="228pt" height="394pt"
 viewBox="0.00 0.00 227.50 394.00" xmlns="http://www.w3.org/2000/svg" xmlns:xlink="http://www.w3.org/1999/xlink">
<g id="graph0" class="graph" transform="scale(1 1) rotate(0) translate(4 390)">
<title>mc::TransformMatrix</title>
<polygon fill="white" stroke="none" points="-4,4 -4,-390 223.5,-390 223.5,4 -4,4"/>
<!-- Node1 -->
<g id="node1" class="node"><title>Node1</title>
<polygon fill="#bfbfbf" stroke="black" points="34.5,-0.5 34.5,-19.5 140.5,-19.5 140.5,-0.5 34.5,-0.5"/>
<text text-anchor="middle" x="87.5" y="-7.5" font-family="Helvetica,sans-Serif" font-size="10.00">mc::TransformMatrix</text>
</g>
<!-- Node2 -->
<g id="node2" class="node"><title>Node2</title>
<g id="a_node2"><a xlink:href="$d1/d84/a00052.html" xlink:title="mc::Vector\&lt; float, 3 \&gt;">
<polygon fill="white" stroke="black" points="31.5,-89.5 31.5,-108.5 143.5,-108.5 143.5,-89.5 31.5,-89.5"/>
<text text-anchor="middle" x="87.5" y="-96.5" font-family="Helvetica,sans-Serif" font-size="10.00">mc::Vector&lt; float, 3 &gt;</text>
</a>
</g>
</g>
<!-- Node2&#45;&gt;Node1 -->
<g id="edge1" class="edge"><title>Node2&#45;&gt;Node1</title>
<path fill="none" stroke="#9a32cd" stroke-dasharray="5,2" d="M87.5,-79.1946C87.5,-60.7379 87.5,-33.412 87.5,-19.6249"/>
<polygon fill="#9a32cd" stroke="#9a32cd" points="84.0001,-79.34 87.5,-89.34 91.0001,-79.3401 84.0001,-79.34"/>
<text text-anchor="middle" x="110.5" y="-63" font-family="Helvetica,sans-Serif" font-size="10.00"> rotation</text>
<text text-anchor="middle" x="110.5" y="-52" font-family="Helvetica,sans-Serif" font-size="10.00">scaler</text>
<text text-anchor="middle" x="110.5" y="-41" font-family="Helvetica,sans-Serif" font-size="10.00">translation</text>
</g>
<!-- Node3 -->
<g id="node3" class="node"><title>Node3</title>
<polygon fill="white" stroke="#bfbfbf" points="0,-194.5 0,-213.5 107,-213.5 107,-194.5 0,-194.5"/>
<text text-anchor="middle" x="53.5" y="-201.5" font-family="Helvetica,sans-Serif" font-size="10.00">std::array&lt; float, N &gt;</text>
</g>
<!-- Node3&#45;&gt;Node2 -->
<g id="edge2" class="edge"><title>Node3&#45;&gt;Node2</title>
<path fill="none" stroke="#9a32cd" stroke-dasharray="5,2" d="M56.0641,-184.298C57.5166,-175.581 59.6274,-165.139 62.5,-156 67.9273,-138.733 77.171,-119.704 82.769,-108.867"/>
<polygon fill="#9a32cd" stroke="#9a32cd" points="52.6031,-183.778 54.5687,-194.189 59.5244,-184.824 52.6031,-183.778"/>
<text text-anchor="middle" x="80.5" y="-163.5" font-family="Helvetica,sans-Serif" font-size="10.00"> content</text>
</g>
<!-- Node4 -->
<g id="node4" class="node"><title>Node4</title>
<g id="a_node4"><a xlink:title="STL class. ">
<polygon fill="white" stroke="#bfbfbf" points="66,-299.5 66,-318.5 147,-318.5 147,-299.5 66,-299.5"/>
<text text-anchor="middle" x="106.5" y="-306.5" font-family="Helvetica,sans-Serif" font-size="10.00">std::array&lt; T &gt;</text>
</a>
</g>
</g>
<!-- Node4&#45;&gt;Node3 -->
<g id="edge3" class="edge"><title>Node4&#45;&gt;Node3</title>
<path fill="none" stroke="orange" stroke-dasharray="5,2" d="M78.874,-293.756C74.1128,-290.179 69.6808,-285.927 66.5,-281 52.8514,-259.857 52.2382,-228.78 52.8754,-213.763"/>
<polygon fill="orange" stroke="orange" points="77.3161,-296.919 87.6004,-299.465 81.1488,-291.061 77.3161,-296.919"/>
<text text-anchor="middle" x="92.5" y="-273" font-family="Helvetica,sans-Serif" font-size="10.00"> &lt; float, N &gt;</text>
</g>
<!-- Node7 -->
<g id="node7" class="node"><title>Node7</title>
<polygon fill="white" stroke="#bfbfbf" points="111.5,-232.5 111.5,-251.5 205.5,-251.5 205.5,-232.5 111.5,-232.5"/>
<text text-anchor="middle" x="158.5" y="-239.5" font-family="Helvetica,sans-Serif" font-size="10.00">std::array&lt; T, N &gt;</text>
</g>
<!-- Node4&#45;&gt;Node7 -->
<g id="edge8" class="edge"><title>Node4&#45;&gt;Node7</title>
<path fill="none" stroke="orange" stroke-dasharray="5,2" d="M115.755,-290.455C119.622,-283.777 124.401,-276.271 129.5,-270 134.968,-263.275 142.079,-256.629 147.891,-251.614"/>
<polygon fill="orange" stroke="orange" points="112.582,-288.962 110.813,-299.408 118.71,-292.345 112.582,-288.962"/>
<text text-anchor="middle" x="149.5" y="-273" font-family="Helvetica,sans-Serif" font-size="10.00"> &lt; T, N &gt;</text>
</g>
<!-- Node5 -->
<g id="node5" class="node"><title>Node5</title>
<polygon fill="white" stroke="#bfbfbf" points="135,-366.5 135,-385.5 164,-385.5 164,-366.5 135,-366.5"/>
<text text-anchor="middle" x="149.5" y="-373.5" font-family="Helvetica,sans-Serif" font-size="10.00">T</text>
</g>
<!-- Node5&#45;&gt;Node4 -->
<g id="edge4" class="edge"><title>Node5&#45;&gt;Node4</title>
<path fill="none" stroke="#9a32cd" stroke-dasharray="5,2" d="M134.545,-358.605C131.731,-355.206 128.916,-351.57 126.5,-348 120.065,-338.492 114.134,-326.672 110.43,-318.762"/>
<polygon fill="#9a32cd" stroke="#9a32cd" points="132.113,-361.142 141.313,-366.395 137.397,-356.551 132.113,-361.142"/>
<text text-anchor="middle" x="148" y="-340" font-family="Helvetica,sans-Serif" font-size="10.00"> elements</text>
</g>
<!-- Node5&#45;&gt;Node7 -->
<g id="edge7" class="edge"><title>Node5&#45;&gt;Node7</title>
<path fill="none" stroke="#9a32cd" stroke-dasharray="5,2" d="M164.407,-358.192C166.498,-354.999 168.331,-351.542 169.5,-348 180.365,-315.08 176.164,-304.02 169.5,-270 168.255,-263.642 165.505,-256.892 163.066,-251.732"/>
<polygon fill="#9a32cd" stroke="#9a32cd" points="161.463,-356.279 158.16,-366.346 167.02,-360.536 161.463,-356.279"/>
<text text-anchor="middle" x="198" y="-306.5" font-family="Helvetica,sans-Serif" font-size="10.00"> elements</text>
</g>
<!-- Node6 -->
<g id="node6" class="node"><title>Node6</title>
<g id="a_node6"><a xlink:href="$d1/d84/a00052.html" xlink:title="1&#45;dimensional vector class that supports mathmatical operations. ">
<polygon fill="white" stroke="black" points="108,-156.5 108,-175.5 209,-175.5 209,-156.5 108,-156.5"/>
<text text-anchor="middle" x="158.5" y="-163.5" font-family="Helvetica,sans-Serif" font-size="10.00">mc::Vector&lt; T, N &gt;</text>
</a>
</g>
</g>
<!-- Node6&#45;&gt;Node2 -->
<g id="edge5" class="edge"><title>Node6&#45;&gt;Node2</title>
<path fill="none" stroke="orange" stroke-dasharray="5,2" d="M141.412,-149.356C127.454,-136.578 108.245,-118.992 96.9237,-108.627"/>
<polygon fill="orange" stroke="orange" points="139.185,-152.063 148.925,-156.234 143.912,-146.9 139.185,-152.063"/>
<text text-anchor="middle" x="153" y="-130" font-family="Helvetica,sans-Serif" font-size="10.00"> &lt; float, 3 &gt;</text>
</g>
<!-- Node7&#45;&gt;Node6 -->
<g id="edge6" class="edge"><title>Node7&#45;&gt;Node6</title>
<path fill="none" stroke="#9a32cd" stroke-dasharray="5,2" d="M158.5,-222.072C158.5,-207.18 158.5,-187.111 158.5,-175.768"/>
<polygon fill="#9a32cd" stroke="#9a32cd" points="155,-222.221 158.5,-232.221 162,-222.221 155,-222.221"/>
<text text-anchor="middle" x="176.5" y="-201.5" font-family="Helvetica,sans-Serif" font-size="10.00"> content</text>
</g>
</g>
</svg>
