<?xml version="1.0" encoding="UTF-8" standalone="no"?>
<!DOCTYPE svg PUBLIC "-//W3C//DTD SVG 1.1//EN"
 "http://www.w3.org/Graphics/SVG/1.1/DTD/svg11.dtd">
<!-- Generated by graphviz version 2.38.0 (20140413.2041)
 -->
<!-- Title: mc::gfx::Entity Pages: 1 -->
<!--zoomable 142 -->
<svg id="main" version="1.1" xmlns="http://www.w3.org/2000/svg" xmlns:xlink="http://www.w3.org/1999/xlink" xml:space="preserve" onload="init(evt)">
<style type="text/css"><![CDATA[
.edge:hover path { stroke: red; }
.edge:hover polygon { stroke: red; fill: red; }
]]></style>
<script type="text/javascript"><![CDATA[
var edges = document.getElementsByTagName('g');
if (edges && edges.length) {
  for (var i=0;i<edges.length;i++) {
    if (edges[i].id.substr(0,4)=='edge') {
      edges[i].setAttribute('class','edge');
    }
  }
}
]]></script>
        <defs>
                <circle id="rim" cx="0" cy="0" r="7"/>
                <circle id="rim2" cx="0" cy="0" r="3.5"/>
                <g id="zoomPlus">
                        <use xlink:href="#rim" fill="#404040">
                                <set attributeName="fill" to="#808080" begin="zoomplus.mouseover" end="zoomplus.mouseout"/>
                        </use>
                        <path d="M-4,0h8M0,-4v8" fill="none" stroke="white" stroke-width="1.5" pointer-events="none"/>
                </g>
                <g id="zoomMin">
                        <use xlink:href="#rim" fill="#404040">
                                <set attributeName="fill" to="#808080" begin="zoomminus.mouseover" end="zoomminus.mouseout"/>
                        </use>
                        <path d="M-4,0h8" fill="none" stroke="white" stroke-width="1.5" pointer-events="none"/>
                </g>
                <g id="dirArrow">
                        <path fill="none" stroke="white" stroke-width="1.5" d="M0,-3.0v7 M-2.5,-0.5L0,-3.0L2.5,-0.5"/>
                </g>
               <g id="resetDef">
                       <use xlink:href="#rim2" fill="#404040">
                               <set attributeName="fill" to="#808080" begin="reset.mouseover" end="reset.mouseout"/>
                       </use>
               </g>
        </defs>

<script type="text/javascript">
var viewWidth = 527;
var viewHeight = 142;
var sectionId = 'dynsection-0';
</script>
<script xlink:href="../../svgpan.js"/>
<svg id="graph" class="graph">
<g id="viewport">
<title>mc::gfx::Entity</title>
<polygon fill="white" stroke="none" points="-4,4 -4,-138 523,-138 523,4 -4,4"/>
<!-- Node1 -->
<g id="node1" class="node"><title>Node1</title>
<polygon fill="#bfbfbf" stroke="black" points="0,-57.5 0,-76.5 80,-76.5 80,-57.5 0,-57.5"/>
<text text-anchor="middle" x="40" y="-64.5" font-family="Helvetica,sans-Serif" font-size="10.00">mc::gfx::Entity</text>
</g>
<!-- Node2 -->
<g id="node2" class="node"><title>Node2</title>
<g id="a_node2"><a xlink:href="../../d4/dee/a00008.html" target="_top" xlink:title="mc::gfx::CallbackEntity">
<polygon fill="white" stroke="black" points="119.5,-114.5 119.5,-133.5 237.5,-133.5 237.5,-114.5 119.5,-114.5"/>
<text text-anchor="middle" x="178.5" y="-121.5" font-family="Helvetica,sans-Serif" font-size="10.00">mc::gfx::CallbackEntity</text>
</a>
</g>
</g>
<!-- Node1&#45;&gt;Node2 -->
<g id="edge1" class="edge"><title>Node1&#45;&gt;Node2</title>
<path fill="none" stroke="midnightblue" d="M67.0459,-81.5699C81.2455,-89.16 99.2879,-98.2414 116,-105 124.599,-108.477 134.086,-111.697 142.983,-114.461"/>
<polygon fill="midnightblue" stroke="midnightblue" points="68.3511,-78.296 57.8928,-76.6004 65.011,-84.4478 68.3511,-78.296"/>
</g>
<!-- Node3 -->
<g id="node3" class="node"><title>Node3</title>
<g id="a_node3"><a xlink:href="../../d7/d7a/a00016.html" target="_top" xlink:title="mc::gfx::GraphicsEntity">
<polygon fill="white" stroke="black" points="119,-76.5 119,-95.5 238,-95.5 238,-76.5 119,-76.5"/>
<text text-anchor="middle" x="178.5" y="-83.5" font-family="Helvetica,sans-Serif" font-size="10.00">mc::gfx::GraphicsEntity</text>
</a>
</g>
</g>
<!-- Node1&#45;&gt;Node3 -->
<g id="edge2" class="edge"><title>Node1&#45;&gt;Node3</title>
<path fill="none" stroke="midnightblue" d="M90.2975,-73.8619C99.5411,-75.1486 109.289,-76.5054 118.785,-77.8272"/>
<polygon fill="midnightblue" stroke="midnightblue" points="90.5025,-70.3568 80.1154,-72.4446 89.5374,-77.29 90.5025,-70.3568"/>
</g>
<!-- Node6 -->
<g id="node6" class="node"><title>Node6</title>
<g id="a_node6"><a xlink:href="../../d4/d51/a00017.html" target="_top" xlink:title="mc::gfx::Group">
<polygon fill="white" stroke="black" points="138,-38.5 138,-57.5 219,-57.5 219,-38.5 138,-38.5"/>
<text text-anchor="middle" x="178.5" y="-45.5" font-family="Helvetica,sans-Serif" font-size="10.00">mc::gfx::Group</text>
</a>
</g>
</g>
<!-- Node1&#45;&gt;Node6 -->
<g id="edge5" class="edge"><title>Node1&#45;&gt;Node6</title>
<path fill="none" stroke="midnightblue" d="M90.1708,-60.1557C105.852,-57.973 122.994,-55.587 137.905,-53.5113"/>
<polygon fill="midnightblue" stroke="midnightblue" points="89.5374,-56.71 80.1154,-61.5554 90.5025,-63.6432 89.5374,-56.71"/>
</g>
<!-- Node7 -->
<g id="node7" class="node"><title>Node7</title>
<g id="a_node7"><a xlink:href="../../dd/d1b/a00015.html" target="_top" xlink:title="mc::os::GraphicsContext">
<polygon fill="white" stroke="black" points="116,-0.5 116,-19.5 241,-19.5 241,-0.5 116,-0.5"/>
<text text-anchor="middle" x="178.5" y="-7.5" font-family="Helvetica,sans-Serif" font-size="10.00">mc::os::GraphicsContext</text>
</a>
</g>
</g>
<!-- Node1&#45;&gt;Node7 -->
<g id="edge6" class="edge"><title>Node1&#45;&gt;Node7</title>
<path fill="none" stroke="midnightblue" d="M67.0459,-52.4301C81.2455,-44.84 99.2879,-35.7586 116,-29 124.599,-25.5226 134.086,-22.3028 142.983,-19.5392"/>
<polygon fill="midnightblue" stroke="midnightblue" points="65.011,-49.5522 57.8928,-57.3996 68.3511,-55.704 65.011,-49.5522"/>
</g>
<!-- Node4 -->
<g id="node4" class="node"><title>Node4</title>
<g id="a_node4"><a xlink:href="../../df/d86/a00012.html" target="_top" xlink:title="mc::gfx::Entity2D">
<polygon fill="white" stroke="black" points="293.5,-76.5 293.5,-95.5 385.5,-95.5 385.5,-76.5 293.5,-76.5"/>
<text text-anchor="middle" x="339.5" y="-83.5" font-family="Helvetica,sans-Serif" font-size="10.00">mc::gfx::Entity2D</text>
</a>
</g>
</g>
<!-- Node3&#45;&gt;Node4 -->
<g id="edge3" class="edge"><title>Node3&#45;&gt;Node4</title>
<path fill="none" stroke="midnightblue" d="M248.642,-86C263.805,-86 279.479,-86 293.407,-86"/>
<polygon fill="midnightblue" stroke="midnightblue" points="248.254,-82.5001 238.254,-86 248.254,-89.5001 248.254,-82.5001"/>
</g>
<!-- Node5 -->
<g id="node5" class="node"><title>Node5</title>
<g id="a_node5"><a xlink:href="../../d1/d2b/a00018.html" target="_top" xlink:title="mc::gfx::Image">
<polygon fill="white" stroke="black" points="438,-76.5 438,-95.5 519,-95.5 519,-76.5 438,-76.5"/>
<text text-anchor="middle" x="478.5" y="-83.5" font-family="Helvetica,sans-Serif" font-size="10.00">mc::gfx::Image</text>
</a>
</g>
</g>
<!-- Node4&#45;&gt;Node5 -->
<g id="edge4" class="edge"><title>Node4&#45;&gt;Node5</title>
<path fill="none" stroke="midnightblue" d="M395.811,-86C409.879,-86 424.719,-86 437.834,-86"/>
<polygon fill="midnightblue" stroke="midnightblue" points="395.739,-82.5001 385.739,-86 395.739,-89.5001 395.739,-82.5001"/>
</g>
<!-- Node8 -->
<g id="node8" class="node"><title>Node8</title>
<g id="a_node8"><a xlink:href="../../d6/d5b/a00026.html" target="_top" xlink:title="mc::gfx::OpenGLContext">
<polygon fill="white" stroke="black" points="277,-0.5 277,-19.5 402,-19.5 402,-0.5 277,-0.5"/>
<text text-anchor="middle" x="339.5" y="-7.5" font-family="Helvetica,sans-Serif" font-size="10.00">mc::gfx::OpenGLContext</text>
</a>
</g>
</g>
<!-- Node7&#45;&gt;Node8 -->
<g id="edge7" class="edge"><title>Node7&#45;&gt;Node8</title>
<path fill="none" stroke="midnightblue" d="M251.592,-10C259.99,-10 268.499,-10 276.74,-10"/>
<polygon fill="midnightblue" stroke="midnightblue" points="251.429,-6.5001 241.429,-10 251.429,-13.5001 251.429,-6.5001"/>
</g>
</g>
</svg>
        <g id="navigator" transform="translate(0 0)" fill="#404254">
                <rect fill="#f2f5e9" fill-opacity="0.5" stroke="#606060" stroke-width=".5" x="0" y="0" width="60" height="60"/>
                <use id="zoomplus" xlink:href="#zoomPlus" x="17" y="9" onmousedown="handleZoom(evt,'in')"/>
                <use id="zoomminus" xlink:href="#zoomMin" x="42" y="9" onmousedown="handleZoom(evt,'out')"/>
                <use id="reset" xlink:href="#resetDef" x="30" y="36" onmousedown="handleReset()"/>
                <g id="arrowUp" xlink:href="#dirArrow" transform="translate(30 24)" onmousedown="handlePan(0,-1)">
                  <use xlink:href="#rim" fill="#404040">
                        <set attributeName="fill" to="#808080" begin="arrowUp.mouseover" end="arrowUp.mouseout"/>
                  </use>
                  <path fill="none" stroke="white" stroke-width="1.5" d="M0,-3.0v7 M-2.5,-0.5L0,-3.0L2.5,-0.5"/>
                </g>
                <g id="arrowRight" xlink:href="#dirArrow" transform="rotate(90) translate(36 -43)" onmousedown="handlePan(1,0)">
                  <use xlink:href="#rim" fill="#404040">
                        <set attributeName="fill" to="#808080" begin="arrowRight.mouseover" end="arrowRight.mouseout"/>
                  </use>
                  <path fill="none" stroke="white" stroke-width="1.5" d="M0,-3.0v7 M-2.5,-0.5L0,-3.0L2.5,-0.5"/>
                </g>
                <g id="arrowDown" xlink:href="#dirArrow" transform="rotate(180) translate(-30 -48)" onmousedown="handlePan(0,1)">
                  <use xlink:href="#rim" fill="#404040">
                        <set attributeName="fill" to="#808080" begin="arrowDown.mouseover" end="arrowDown.mouseout"/>
                  </use>
                  <path fill="none" stroke="white" stroke-width="1.5" d="M0,-3.0v7 M-2.5,-0.5L0,-3.0L2.5,-0.5"/>
                </g>
                <g id="arrowLeft" xlink:href="#dirArrow" transform="rotate(270) translate(-36 17)" onmousedown="handlePan(-1,0)">
                  <use xlink:href="#rim" fill="#404040">
                        <set attributeName="fill" to="#808080" begin="arrowLeft.mouseover" end="arrowLeft.mouseout"/>
                  </use>
                  <path fill="none" stroke="white" stroke-width="1.5" d="M0,-3.0v7 M-2.5,-0.5L0,-3.0L2.5,-0.5"/>
                </g>
        </g>
        <svg viewBox="0 0 15 15" width="100%" height="30px" preserveAspectRatio="xMaxYMin meet">
         <g id="arrow_out" transform="scale(0.3 0.3)">
          <a xlink:href="a00122_org.svg" target="_base">
           <rect id="button" ry="5" rx="5" y="6" x="6" height="38" width="38"
                fill="#f2f5e9" fill-opacity="0.5" stroke="#606060" stroke-width="1.0"/>
           <path id="arrow"
             d="M 11.500037,31.436501 C 11.940474,20.09759 22.043105,11.32322 32.158766,21.979434 L 37.068811,17.246167 C 37.068811,17.246167 37.088388,32 37.088388,32 L 22.160133,31.978069 C 22.160133,31.978069 26.997745,27.140456 26.997745,27.140456 C 18.528582,18.264221 13.291696,25.230495 11.500037,31.436501 z"
             style="fill:#404040;"/>
          </a>
         </g>
        </svg>
</svg>
