<?xml version="1.0" encoding="UTF-8" standalone="no"?>
<!DOCTYPE svg PUBLIC "-//W3C//DTD SVG 1.1//EN"
 "http://www.w3.org/Graphics/SVG/1.1/DTD/svg11.dtd">
<!-- Generated by graphviz version 2.38.0 (20140413.2041)
 -->
<!-- Title: mc::VectorBase&lt; Child, T, N &gt; Pages: 1 -->
<svg width="1097pt" height="442pt"
 viewBox="0.00 0.00 1097.00 441.50" xmlns="http://www.w3.org/2000/svg" xmlns:xlink="http://www.w3.org/1999/xlink">
<g id="graph0" class="graph" transform="scale(1 1) rotate(0) translate(4 437.5)">
<title>mc::VectorBase&lt; Child, T, N &gt;</title>
<polygon fill="white" stroke="none" points="-4,4 -4,-437.5 1093,-437.5 1093,4 -4,4"/>
<!-- Node1 -->
<g id="node1" class="node"><title>Node1</title>
<polygon fill="#bfbfbf" stroke="black" points="0,-147.5 0,-177.5 121,-177.5 121,-147.5 0,-147.5"/>
<text text-anchor="start" x="8" y="-165.5" font-family="Helvetica,sans-Serif" font-size="10.00">mc::VectorBase&lt; Child,</text>
<text text-anchor="middle" x="60.5" y="-154.5" font-family="Helvetica,sans-Serif" font-size="10.00"> T, N &gt;</text>
</g>
<!-- Node2 -->
<g id="node2" class="node"><title>Node2</title>
<g id="a_node2"><a xlink:href="../../d1/d1e/a00087.html" target="_top" xlink:title="mc::VectorBase\&lt; Vector\l\&lt; float, N \&gt;, float, N \&gt;">
<polygon fill="white" stroke="black" points="563,-397.5 563,-427.5 688,-427.5 688,-397.5 563,-397.5"/>
<text text-anchor="start" x="571" y="-415.5" font-family="Helvetica,sans-Serif" font-size="10.00">mc::VectorBase&lt; Vector</text>
<text text-anchor="middle" x="625.5" y="-404.5" font-family="Helvetica,sans-Serif" font-size="10.00">&lt; float, N &gt;, float, N &gt;</text>
</a>
</g>
</g>
<!-- Node1&#45;&gt;Node2 -->
<g id="edge1" class="edge"><title>Node1&#45;&gt;Node2</title>
<path fill="none" stroke="orange" stroke-dasharray="5,2" d="M71.3295,-187.23C83.3077,-214.181 106.103,-256.637 139,-280.5 269.627,-375.256 464.571,-401.994 562.966,-409.537"/>
<polygon fill="orange" stroke="orange" points="74.4182,-185.551 67.2699,-177.731 67.9814,-188.302 74.4182,-185.551"/>
<text text-anchor="start" x="289" y="-397.5" font-family="Helvetica,sans-Serif" font-size="10.00"> &lt; Vector&lt; float, N</text>
<text text-anchor="middle" x="329.5" y="-386.5" font-family="Helvetica,sans-Serif" font-size="10.00"> &gt;, float, N &gt;</text>
</g>
<!-- Node5 -->
<g id="node5" class="node"><title>Node5</title>
<g id="a_node5"><a xlink:href="../../d1/d1e/a00087.html" target="_top" xlink:title="mc::VectorBase\&lt; Vector\l\&lt; MatrixRow\&lt; T, H \&gt;, N\l \&gt;, MatrixRow\&lt; T, H \&gt;, N \&gt;">
<polygon fill="white" stroke="black" points="410,-183 410,-224 545,-224 545,-183 410,-183"/>
<text text-anchor="start" x="418" y="-212" font-family="Helvetica,sans-Serif" font-size="10.00">mc::VectorBase&lt; Vector</text>
<text text-anchor="start" x="418" y="-201" font-family="Helvetica,sans-Serif" font-size="10.00">&lt; MatrixRow&lt; T, H &gt;, N</text>
<text text-anchor="middle" x="477.5" y="-190" font-family="Helvetica,sans-Serif" font-size="10.00"> &gt;, MatrixRow&lt; T, H &gt;, N &gt;</text>
</a>
</g>
</g>
<!-- Node1&#45;&gt;Node5 -->
<g id="edge4" class="edge"><title>Node1&#45;&gt;Node5</title>
<path fill="none" stroke="orange" stroke-dasharray="5,2" d="M130.945,-176.339C133.661,-176.754 136.354,-177.143 139,-177.5 232.621,-190.124 341.742,-197.146 409.983,-200.623"/>
<polygon fill="orange" stroke="orange" points="131.477,-172.879 121.046,-174.737 130.359,-179.789 131.477,-172.879"/>
<text text-anchor="start" x="139" y="-214.5" font-family="Helvetica,sans-Serif" font-size="10.00"> &lt; Vector&lt; MatrixRow</text>
<text text-anchor="start" x="139" y="-203.5" font-family="Helvetica,sans-Serif" font-size="10.00">&lt; T, H &gt;, N &gt;, MatrixRow</text>
<text text-anchor="middle" x="194" y="-192.5" font-family="Helvetica,sans-Serif" font-size="10.00">&lt; T, H &gt;, N &gt;</text>
</g>
<!-- Node8 -->
<g id="node8" class="node"><title>Node8</title>
<g id="a_node8"><a xlink:href="../../d1/d1e/a00087.html" target="_top" xlink:title="mc::VectorBase\&lt; Vector\l\&lt; T, 2 \&gt;, T, 2 \&gt;">
<polygon fill="white" stroke="black" points="267,-147.5 267,-177.5 392,-177.5 392,-147.5 267,-147.5"/>
<text text-anchor="start" x="275" y="-165.5" font-family="Helvetica,sans-Serif" font-size="10.00">mc::VectorBase&lt; Vector</text>
<text text-anchor="middle" x="329.5" y="-154.5" font-family="Helvetica,sans-Serif" font-size="10.00">&lt; T, 2 &gt;, T, 2 &gt;</text>
</a>
</g>
</g>
<!-- Node1&#45;&gt;Node8 -->
<g id="edge7" class="edge"><title>Node1&#45;&gt;Node8</title>
<path fill="none" stroke="orange" stroke-dasharray="5,2" d="M131.243,-162.5C173.259,-162.5 226.286,-162.5 266.777,-162.5"/>
<polygon fill="orange" stroke="orange" points="131.088,-159 121.088,-162.5 131.088,-166 131.088,-159"/>
<text text-anchor="middle" x="194" y="-165.5" font-family="Helvetica,sans-Serif" font-size="10.00"> &lt; Vector&lt; T, 2 &gt;, T, 2 &gt;</text>
</g>
<!-- Node10 -->
<g id="node10" class="node"><title>Node10</title>
<g id="a_node10"><a xlink:href="../../d1/d1e/a00087.html" target="_top" xlink:title="mc::VectorBase\&lt; Vector\l\&lt; T, 3 \&gt;, T, 3 \&gt;">
<polygon fill="white" stroke="black" points="267,-98.5 267,-128.5 392,-128.5 392,-98.5 267,-98.5"/>
<text text-anchor="start" x="275" y="-116.5" font-family="Helvetica,sans-Serif" font-size="10.00">mc::VectorBase&lt; Vector</text>
<text text-anchor="middle" x="329.5" y="-105.5" font-family="Helvetica,sans-Serif" font-size="10.00">&lt; T, 3 &gt;, T, 3 &gt;</text>
</a>
</g>
</g>
<!-- Node1&#45;&gt;Node10 -->
<g id="edge9" class="edge"><title>Node1&#45;&gt;Node10</title>
<path fill="none" stroke="orange" stroke-dasharray="5,2" d="M131,-149.001C133.701,-148.491 136.375,-147.989 139,-147.5 181.551,-139.565 229.545,-130.958 266.585,-124.389"/>
<polygon fill="orange" stroke="orange" points="130.316,-145.568 121.144,-150.871 131.621,-152.445 130.316,-145.568"/>
<text text-anchor="middle" x="194" y="-150.5" font-family="Helvetica,sans-Serif" font-size="10.00"> &lt; Vector&lt; T, 3 &gt;, T, 3 &gt;</text>
</g>
<!-- Node12 -->
<g id="node12" class="node"><title>Node12</title>
<g id="a_node12"><a xlink:href="../../d1/d1e/a00087.html" target="_top" xlink:title="mc::VectorBase\&lt; Vector\l\&lt; T, N \&gt;, T, N \&gt;">
<polygon fill="white" stroke="black" points="267,-247.5 267,-277.5 392,-277.5 392,-247.5 267,-247.5"/>
<text text-anchor="start" x="275" y="-265.5" font-family="Helvetica,sans-Serif" font-size="10.00">mc::VectorBase&lt; Vector</text>
<text text-anchor="middle" x="329.5" y="-254.5" font-family="Helvetica,sans-Serif" font-size="10.00">&lt; T, N &gt;, T, N &gt;</text>
</a>
</g>
</g>
<!-- Node1&#45;&gt;Node12 -->
<g id="edge11" class="edge"><title>Node1&#45;&gt;Node12</title>
<path fill="none" stroke="orange" stroke-dasharray="5,2" d="M77.7256,-185.913C91.7097,-204.078 113.618,-228.173 139,-240.5 178.624,-259.743 228.225,-264.93 266.741,-265.471"/>
<polygon fill="orange" stroke="orange" points="80.2878,-183.493 71.5167,-177.55 74.6674,-187.665 80.2878,-183.493"/>
<text text-anchor="middle" x="194" y="-268.5" font-family="Helvetica,sans-Serif" font-size="10.00"> &lt; Vector&lt; T, N &gt;, T, N &gt;</text>
</g>
<!-- Node15 -->
<g id="node15" class="node"><title>Node15</title>
<g id="a_node15"><a xlink:href="../../d1/d1e/a00087.html" target="_top" xlink:title="mc::VectorBase\&lt; Vector\l\&lt; T, 1 \&gt;, T, 1 \&gt;">
<polygon fill="white" stroke="black" points="267,-49.5 267,-79.5 392,-79.5 392,-49.5 267,-49.5"/>
<text text-anchor="start" x="275" y="-67.5" font-family="Helvetica,sans-Serif" font-size="10.00">mc::VectorBase&lt; Vector</text>
<text text-anchor="middle" x="329.5" y="-56.5" font-family="Helvetica,sans-Serif" font-size="10.00">&lt; T, 1 &gt;, T, 1 &gt;</text>
</a>
</g>
</g>
<!-- Node1&#45;&gt;Node15 -->
<g id="edge18" class="edge"><title>Node1&#45;&gt;Node15</title>
<path fill="none" stroke="orange" stroke-dasharray="5,2" d="M89.9002,-141.538C104.071,-131.878 121.82,-120.934 139,-113.5 180.01,-95.7528 228.89,-83.309 266.734,-75.403"/>
<polygon fill="orange" stroke="orange" points="87.7759,-138.753 81.5764,-147.344 91.7806,-144.494 87.7759,-138.753"/>
<text text-anchor="middle" x="194" y="-116.5" font-family="Helvetica,sans-Serif" font-size="10.00"> &lt; Vector&lt; T, 1 &gt;, T, 1 &gt;</text>
</g>
<!-- Node17 -->
<g id="node17" class="node"><title>Node17</title>
<g id="a_node17"><a xlink:href="../../d1/d1e/a00087.html" target="_top" xlink:title="mc::VectorBase\&lt; Vector\l\&lt; T, 4 \&gt;, T, 4 \&gt;">
<polygon fill="white" stroke="black" points="267,-0.5 267,-30.5 392,-30.5 392,-0.5 267,-0.5"/>
<text text-anchor="start" x="275" y="-18.5" font-family="Helvetica,sans-Serif" font-size="10.00">mc::VectorBase&lt; Vector</text>
<text text-anchor="middle" x="329.5" y="-7.5" font-family="Helvetica,sans-Serif" font-size="10.00">&lt; T, 4 &gt;, T, 4 &gt;</text>
</a>
</g>
</g>
<!-- Node1&#45;&gt;Node17 -->
<g id="edge20" class="edge"><title>Node1&#45;&gt;Node17</title>
<path fill="none" stroke="orange" stroke-dasharray="5,2" d="M74.6797,-138.328C88.0276,-116.115 110.711,-83.9263 139,-65.5 177.347,-40.5226 227.708,-27.9892 266.874,-21.7186"/>
<polygon fill="orange" stroke="orange" points="71.5408,-136.763 69.5416,-147.168 77.5928,-140.281 71.5408,-136.763"/>
<text text-anchor="middle" x="194" y="-68.5" font-family="Helvetica,sans-Serif" font-size="10.00"> &lt; Vector&lt; T, 4 &gt;, T, 4 &gt;</text>
</g>
<!-- Node3 -->
<g id="node3" class="node"><title>Node3</title>
<g id="a_node3"><a xlink:href="../../d1/d51/a00079.html" target="_top" xlink:title="mc::Vector\&lt; float, 2 \&gt;">
<polygon fill="white" stroke="black" points="821.5,-353 821.5,-372 933.5,-372 933.5,-353 821.5,-353"/>
<text text-anchor="middle" x="877.5" y="-360" font-family="Helvetica,sans-Serif" font-size="10.00">mc::Vector&lt; float, 2 &gt;</text>
</a>
</g>
</g>
<!-- Node2&#45;&gt;Node3 -->
<g id="edge2" class="edge"><title>Node2&#45;&gt;Node3</title>
<path fill="none" stroke="midnightblue" d="M698.096,-412.473C729.768,-410.998 767.194,-407.234 800,-398.5 821.986,-392.647 845.392,-380.684 860.44,-372.156"/>
<polygon fill="midnightblue" stroke="midnightblue" points="697.88,-408.978 688.028,-412.874 698.16,-415.973 697.88,-408.978"/>
</g>
<!-- Node4 -->
<g id="node4" class="node"><title>Node4</title>
<g id="a_node4"><a xlink:href="../../d1/d51/a00079.html" target="_top" xlink:title="mc::Vector\&lt; float, 3 \&gt;">
<polygon fill="white" stroke="black" points="821.5,-414 821.5,-433 933.5,-433 933.5,-414 821.5,-414"/>
<text text-anchor="middle" x="877.5" y="-421" font-family="Helvetica,sans-Serif" font-size="10.00">mc::Vector&lt; float, 3 &gt;</text>
</a>
</g>
</g>
<!-- Node2&#45;&gt;Node4 -->
<g id="edge3" class="edge"><title>Node2&#45;&gt;Node4</title>
<path fill="none" stroke="midnightblue" d="M698.228,-422.884C700.849,-423.117 703.446,-423.324 706,-423.5 744.39,-426.143 787.758,-426.102 821.148,-425.421"/>
<polygon fill="midnightblue" stroke="midnightblue" points="698.342,-419.378 688.043,-421.866 697.646,-426.343 698.342,-419.378"/>
</g>
<!-- Node6 -->
<g id="node6" class="node"><title>Node6</title>
<g id="a_node6"><a xlink:href="../../d1/d51/a00079.html" target="_top" xlink:title="mc::Vector\&lt; MatrixRow\l\&lt; T, H \&gt;, W \&gt;">
<polygon fill="white" stroke="black" points="818,-214.5 818,-244.5 937,-244.5 937,-214.5 818,-214.5"/>
<text text-anchor="start" x="826" y="-232.5" font-family="Helvetica,sans-Serif" font-size="10.00">mc::Vector&lt; MatrixRow</text>
<text text-anchor="middle" x="877.5" y="-221.5" font-family="Helvetica,sans-Serif" font-size="10.00">&lt; T, H &gt;, W &gt;</text>
</a>
</g>
</g>
<!-- Node5&#45;&gt;Node6 -->
<g id="edge5" class="edge"><title>Node5&#45;&gt;Node6</title>
<path fill="none" stroke="midnightblue" d="M555.198,-208.51C631.885,-213.52 748.15,-221.115 817.783,-225.664"/>
<polygon fill="midnightblue" stroke="midnightblue" points="555.323,-205.011 545.116,-207.852 554.867,-211.996 555.323,-205.011"/>
</g>
<!-- Node7 -->
<g id="node7" class="node"><title>Node7</title>
<g id="a_node7"><a xlink:href="../../de/d8c/a00036.html" target="_top" xlink:title="A class representing a 2&#45;dimensional matrix, and allows for math involving matrices. ">
<polygon fill="white" stroke="black" points="974,-220 974,-239 1089,-239 1089,-220 974,-220"/>
<text text-anchor="middle" x="1031.5" y="-227" font-family="Helvetica,sans-Serif" font-size="10.00">mc::Matrix&lt; T, W, H &gt;</text>
</a>
</g>
</g>
<!-- Node6&#45;&gt;Node7 -->
<g id="edge6" class="edge"><title>Node6&#45;&gt;Node7</title>
<path fill="none" stroke="midnightblue" d="M947.533,-229.5C956.352,-229.5 965.297,-229.5 973.887,-229.5"/>
<polygon fill="midnightblue" stroke="midnightblue" points="947.267,-226 937.267,-229.5 947.267,-233 947.267,-226"/>
</g>
<!-- Node9 -->
<g id="node9" class="node"><title>Node9</title>
<g id="a_node9"><a xlink:href="../../d4/d63/a00082.html" target="_top" xlink:title="mc::Vector\&lt; T, 2 \&gt;">
<polygon fill="white" stroke="black" points="576,-153 576,-172 675,-172 675,-153 576,-153"/>
<text text-anchor="middle" x="625.5" y="-160" font-family="Helvetica,sans-Serif" font-size="10.00">mc::Vector&lt; T, 2 &gt;</text>
</a>
</g>
</g>
<!-- Node8&#45;&gt;Node9 -->
<g id="edge8" class="edge"><title>Node8&#45;&gt;Node9</title>
<path fill="none" stroke="midnightblue" d="M402.294,-162.5C456.097,-162.5 528.296,-162.5 575.586,-162.5"/>
<polygon fill="midnightblue" stroke="midnightblue" points="402.132,-159 392.132,-162.5 402.132,-166 402.132,-159"/>
</g>
<!-- Node11 -->
<g id="node11" class="node"><title>Node11</title>
<g id="a_node11"><a xlink:href="../../d2/d1f/a00083.html" target="_top" xlink:title="mc::Vector\&lt; T, 3 \&gt;">
<polygon fill="white" stroke="black" points="576,-104 576,-123 675,-123 675,-104 576,-104"/>
<text text-anchor="middle" x="625.5" y="-111" font-family="Helvetica,sans-Serif" font-size="10.00">mc::Vector&lt; T, 3 &gt;</text>
</a>
</g>
</g>
<!-- Node10&#45;&gt;Node11 -->
<g id="edge10" class="edge"><title>Node10&#45;&gt;Node11</title>
<path fill="none" stroke="midnightblue" d="M402.294,-113.5C456.097,-113.5 528.296,-113.5 575.586,-113.5"/>
<polygon fill="midnightblue" stroke="midnightblue" points="402.132,-110 392.132,-113.5 402.132,-117 402.132,-110"/>
</g>
<!-- Node13 -->
<g id="node13" class="node"><title>Node13</title>
<g id="a_node13"><a xlink:href="../../d1/d51/a00079.html" target="_top" xlink:title="mc::Vector\&lt; T, N \&gt;">
<polygon fill="white" stroke="black" points="575,-309 575,-328 676,-328 676,-309 575,-309"/>
<text text-anchor="middle" x="625.5" y="-316" font-family="Helvetica,sans-Serif" font-size="10.00">mc::Vector&lt; T, N &gt;</text>
</a>
</g>
</g>
<!-- Node12&#45;&gt;Node13 -->
<g id="edge12" class="edge"><title>Node12&#45;&gt;Node13</title>
<path fill="none" stroke="midnightblue" d="M402.23,-276.163C455.686,-286.345 527.329,-299.991 574.65,-309.005"/>
<polygon fill="midnightblue" stroke="midnightblue" points="402.61,-272.672 392.132,-274.239 401.301,-279.549 402.61,-272.672"/>
</g>
<!-- Node14 -->
<g id="node14" class="node"><title>Node14</title>
<g id="a_node14"><a xlink:href="../../d1/d51/a00079.html" target="_top" xlink:title="mc::Vector\&lt; T, H \&gt;">
<polygon fill="white" stroke="black" points="827,-298 827,-317 928,-317 928,-298 827,-298"/>
<text text-anchor="middle" x="877.5" y="-305" font-family="Helvetica,sans-Serif" font-size="10.00">mc::Vector&lt; T, H &gt;</text>
</a>
</g>
</g>
<!-- Node12&#45;&gt;Node14 -->
<g id="edge17" class="edge"><title>Node12&#45;&gt;Node14</title>
<path fill="none" stroke="midnightblue" d="M402.23,-247.582C496.07,-231.12 664.491,-212.145 800,-254.5 827.142,-262.984 853.122,-284.853 866.709,-297.693"/>
<polygon fill="midnightblue" stroke="midnightblue" points="401.499,-244.157 392.275,-249.368 402.736,-251.047 401.499,-244.157"/>
</g>
<!-- Node13&#45;&gt;Node3 -->
<g id="edge16" class="edge"><title>Node13&#45;&gt;Node3</title>
<path fill="none" stroke="orange" stroke-dasharray="5,2" d="M686.124,-328.994C727.438,-336.265 782.012,-345.87 822.133,-352.931"/>
<polygon fill="orange" stroke="orange" points="686.646,-325.532 676.191,-327.246 685.433,-332.426 686.646,-325.532"/>
<text text-anchor="middle" x="753" y="-350.5" font-family="Helvetica,sans-Serif" font-size="10.00"> &lt; float, 2 &gt;</text>
</g>
<!-- Node13&#45;&gt;Node4 -->
<g id="edge15" class="edge"><title>Node13&#45;&gt;Node4</title>
<path fill="none" stroke="orange" stroke-dasharray="5,2" d="M650.857,-333.329C666.326,-342.406 686.954,-353.891 706,-362.5 753.268,-383.866 810.434,-403.031 845.102,-413.956"/>
<polygon fill="orange" stroke="orange" points="652.336,-330.137 641.951,-328.036 648.759,-336.154 652.336,-330.137"/>
<text text-anchor="middle" x="753" y="-400.5" font-family="Helvetica,sans-Serif" font-size="10.00"> &lt; float, 3 &gt;</text>
</g>
<!-- Node13&#45;&gt;Node6 -->
<g id="edge14" class="edge"><title>Node13&#45;&gt;Node6</title>
<path fill="none" stroke="orange" stroke-dasharray="5,2" d="M656.698,-304.809C671.438,-298.326 689.508,-290.672 706,-284.5 745.762,-269.62 791.596,-254.971 825.722,-244.538"/>
<polygon fill="orange" stroke="orange" points="655.263,-301.616 647.543,-308.872 658.103,-308.014 655.263,-301.616"/>
<text text-anchor="start" x="706" y="-298.5" font-family="Helvetica,sans-Serif" font-size="10.00"> &lt; MatrixRow&lt; T, H &gt;</text>
<text text-anchor="middle" x="753" y="-287.5" font-family="Helvetica,sans-Serif" font-size="10.00">, W &gt;</text>
</g>
<!-- Node13&#45;&gt;Node14 -->
<g id="edge13" class="edge"><title>Node13&#45;&gt;Node14</title>
<path fill="none" stroke="orange" stroke-dasharray="5,2" d="M686.232,-315.872C729.196,-313.981 786.458,-311.462 826.903,-309.682"/>
<polygon fill="orange" stroke="orange" points="686.027,-312.377 676.191,-316.314 686.335,-319.371 686.027,-312.377"/>
<text text-anchor="middle" x="753" y="-317.5" font-family="Helvetica,sans-Serif" font-size="10.00"> &lt; T, H &gt;</text>
</g>
<!-- Node16 -->
<g id="node16" class="node"><title>Node16</title>
<g id="a_node16"><a xlink:href="../../d8/d53/a00081.html" target="_top" xlink:title="mc::Vector\&lt; T, 1 \&gt;">
<polygon fill="white" stroke="black" points="576,-55 576,-74 675,-74 675,-55 576,-55"/>
<text text-anchor="middle" x="625.5" y="-62" font-family="Helvetica,sans-Serif" font-size="10.00">mc::Vector&lt; T, 1 &gt;</text>
</a>
</g>
</g>
<!-- Node15&#45;&gt;Node16 -->
<g id="edge19" class="edge"><title>Node15&#45;&gt;Node16</title>
<path fill="none" stroke="midnightblue" d="M402.294,-64.5C456.097,-64.5 528.296,-64.5 575.586,-64.5"/>
<polygon fill="midnightblue" stroke="midnightblue" points="402.132,-61.0001 392.132,-64.5 402.132,-68.0001 402.132,-61.0001"/>
</g>
<!-- Node18 -->
<g id="node18" class="node"><title>Node18</title>
<g id="a_node18"><a xlink:href="../../df/d5d/a00084.html" target="_top" xlink:title="mc::Vector\&lt; T, 4 \&gt;">
<polygon fill="white" stroke="black" points="576,-6 576,-25 675,-25 675,-6 576,-6"/>
<text text-anchor="middle" x="625.5" y="-13" font-family="Helvetica,sans-Serif" font-size="10.00">mc::Vector&lt; T, 4 &gt;</text>
</a>
</g>
</g>
<!-- Node17&#45;&gt;Node18 -->
<g id="edge21" class="edge"><title>Node17&#45;&gt;Node18</title>
<path fill="none" stroke="midnightblue" d="M402.294,-15.5C456.097,-15.5 528.296,-15.5 575.586,-15.5"/>
<polygon fill="midnightblue" stroke="midnightblue" points="402.132,-12.0001 392.132,-15.5 402.132,-19.0001 402.132,-12.0001"/>
</g>
</g>
</svg>
