<?xml version="1.0" encoding="UTF-8" standalone="no"?>
<!DOCTYPE svg PUBLIC "-//W3C//DTD SVG 1.1//EN"
 "http://www.w3.org/Graphics/SVG/1.1/DTD/svg11.dtd">
<!-- Generated by graphviz version 2.38.0 (20140413.2041)
 -->
<!-- Title: mc::gfx::Entity2D Pages: 1 -->
<svg width="509pt" height="196pt"
 viewBox="0.00 0.00 508.50 196.00" xmlns="http://www.w3.org/2000/svg" xmlns:xlink="http://www.w3.org/1999/xlink">
<g id="graph0" class="graph" transform="scale(1 1) rotate(0) translate(4 192)">
<title>mc::gfx::Entity2D</title>
<polygon fill="white" stroke="none" points="-4,4 -4,-192 504.5,-192 504.5,4 -4,4"/>
<!-- Node1 -->
<g id="node1" class="node"><title>Node1</title>
<polygon fill="#bfbfbf" stroke="black" points="194.5,-56.5 194.5,-75.5 286.5,-75.5 286.5,-56.5 194.5,-56.5"/>
<text text-anchor="middle" x="240.5" y="-63.5" font-family="Helvetica,sans-Serif" font-size="10.00">mc::gfx::Entity2D</text>
</g>
<!-- Node4 -->
<g id="node4" class="node"><title>Node4</title>
<g id="a_node4"><a xlink:href="$d7/dec/a00010.html" xlink:title="mc::gfx::Button">
<polygon fill="white" stroke="black" points="0,-0.5 0,-19.5 83,-19.5 83,-0.5 0,-0.5"/>
<text text-anchor="middle" x="41.5" y="-7.5" font-family="Helvetica,sans-Serif" font-size="10.00">mc::gfx::Button</text>
</a>
</g>
</g>
<!-- Node1&#45;&gt;Node4 -->
<g id="edge3" class="edge"><title>Node1&#45;&gt;Node4</title>
<path fill="none" stroke="midnightblue" d="M198.852,-53.6986C161.294,-43.507 106.886,-28.7429 72.8846,-19.5164"/>
<polygon fill="midnightblue" stroke="midnightblue" points="198.4,-57.2025 208.968,-56.4435 200.233,-50.4468 198.4,-57.2025"/>
</g>
<!-- Node5 -->
<g id="node5" class="node"><title>Node5</title>
<g id="a_node5"><a xlink:href="$d0/d33/a00027.html" xlink:title="mc::gfx::Image">
<polygon fill="white" stroke="black" points="101,-0.5 101,-19.5 182,-19.5 182,-0.5 101,-0.5"/>
<text text-anchor="middle" x="141.5" y="-7.5" font-family="Helvetica,sans-Serif" font-size="10.00">mc::gfx::Image</text>
</a>
</g>
</g>
<!-- Node1&#45;&gt;Node5 -->
<g id="edge4" class="edge"><title>Node1&#45;&gt;Node5</title>
<path fill="none" stroke="midnightblue" d="M215.663,-51.4526C197.386,-41.4835 173.084,-28.2279 157.367,-19.6545"/>
<polygon fill="midnightblue" stroke="midnightblue" points="214.139,-54.608 224.594,-56.324 217.491,-48.4628 214.139,-54.608"/>
</g>
<!-- Node6 -->
<g id="node6" class="node"><title>Node6</title>
<g id="a_node6"><a xlink:href="$df/d61/a00031.html" xlink:title="mc::gfx::Letter">
<polygon fill="white" stroke="black" points="200.5,-0.5 200.5,-19.5 280.5,-19.5 280.5,-0.5 200.5,-0.5"/>
<text text-anchor="middle" x="240.5" y="-7.5" font-family="Helvetica,sans-Serif" font-size="10.00">mc::gfx::Letter</text>
</a>
</g>
</g>
<!-- Node1&#45;&gt;Node6 -->
<g id="edge5" class="edge"><title>Node1&#45;&gt;Node6</title>
<path fill="none" stroke="midnightblue" d="M240.5,-45.8045C240.5,-36.9102 240.5,-26.7798 240.5,-19.7511"/>
<polygon fill="midnightblue" stroke="midnightblue" points="237,-46.083 240.5,-56.083 244,-46.083 237,-46.083"/>
</g>
<!-- Node7 -->
<g id="node7" class="node"><title>Node7</title>
<g id="a_node7"><a xlink:href="$db/d3a/a00040.html" xlink:title="mc::gfx::ProgressBar">
<polygon fill="white" stroke="black" points="299,-0.5 299,-19.5 408,-19.5 408,-0.5 299,-0.5"/>
<text text-anchor="middle" x="353.5" y="-7.5" font-family="Helvetica,sans-Serif" font-size="10.00">mc::gfx::ProgressBar</text>
</a>
</g>
</g>
<!-- Node1&#45;&gt;Node7 -->
<g id="edge6" class="edge"><title>Node1&#45;&gt;Node7</title>
<path fill="none" stroke="midnightblue" d="M267.503,-52.096C288.614,-42.0073 317.362,-28.2697 335.679,-19.5164"/>
<polygon fill="midnightblue" stroke="midnightblue" points="265.919,-48.9738 258.405,-56.4435 268.937,-55.2897 265.919,-48.9738"/>
</g>
<!-- Node8 -->
<g id="node8" class="node"><title>Node8</title>
<g id="a_node8"><a xlink:href="$d0/d89/a00071.html" xlink:title="mc::gfx::Text">
<polygon fill="white" stroke="black" points="426.5,-0.5 426.5,-19.5 500.5,-19.5 500.5,-0.5 426.5,-0.5"/>
<text text-anchor="middle" x="463.5" y="-7.5" font-family="Helvetica,sans-Serif" font-size="10.00">mc::gfx::Text</text>
</a>
</g>
</g>
<!-- Node1&#45;&gt;Node8 -->
<g id="edge7" class="edge"><title>Node1&#45;&gt;Node8</title>
<path fill="none" stroke="midnightblue" d="M285.561,-54.0884C327.691,-43.8865 389.74,-28.8612 428.33,-19.5164"/>
<polygon fill="midnightblue" stroke="midnightblue" points="284.73,-50.6883 275.835,-56.4435 286.378,-57.4916 284.73,-50.6883"/>
</g>
<!-- Node2 -->
<g id="node2" class="node"><title>Node2</title>
<g id="a_node2"><a xlink:href="$d3/dfe/a00025.html" xlink:title="mc::gfx::GraphicsEntity">
<polygon fill="white" stroke="black" points="181,-112.5 181,-131.5 300,-131.5 300,-112.5 181,-112.5"/>
<text text-anchor="middle" x="240.5" y="-119.5" font-family="Helvetica,sans-Serif" font-size="10.00">mc::gfx::GraphicsEntity</text>
</a>
</g>
</g>
<!-- Node2&#45;&gt;Node1 -->
<g id="edge1" class="edge"><title>Node2&#45;&gt;Node1</title>
<path fill="none" stroke="midnightblue" d="M240.5,-101.805C240.5,-92.9102 240.5,-82.7798 240.5,-75.7511"/>
<polygon fill="midnightblue" stroke="midnightblue" points="237,-102.083 240.5,-112.083 244,-102.083 237,-102.083"/>
</g>
<!-- Node3 -->
<g id="node3" class="node"><title>Node3</title>
<g id="a_node3"><a xlink:href="$dd/da2/a00019.html" xlink:title="Abstract superclass for all graphical objects. ">
<polygon fill="white" stroke="black" points="200.5,-168.5 200.5,-187.5 280.5,-187.5 280.5,-168.5 200.5,-168.5"/>
<text text-anchor="middle" x="240.5" y="-175.5" font-family="Helvetica,sans-Serif" font-size="10.00">mc::gfx::Entity</text>
</a>
</g>
</g>
<!-- Node3&#45;&gt;Node2 -->
<g id="edge2" class="edge"><title>Node3&#45;&gt;Node2</title>
<path fill="none" stroke="midnightblue" d="M240.5,-157.805C240.5,-148.91 240.5,-138.78 240.5,-131.751"/>
<polygon fill="midnightblue" stroke="midnightblue" points="237,-158.083 240.5,-168.083 244,-158.083 237,-158.083"/>
</g>
</g>
</svg>
