<?xml version="1.0" encoding="UTF-8" standalone="no"?>
<!DOCTYPE svg PUBLIC "-//W3C//DTD SVG 1.1//EN"
 "http://www.w3.org/Graphics/SVG/1.1/DTD/svg11.dtd">
<!-- Generated by graphviz version 2.38.0 (20140413.2041)
 -->
<!-- Title: mc::gfx::Entity2D Pages: 1 -->
<svg width="274pt" height="605pt"
 viewBox="0.00 0.00 274.00 605.00" xmlns="http://www.w3.org/2000/svg" xmlns:xlink="http://www.w3.org/1999/xlink">
<g id="graph0" class="graph" transform="scale(1 1) rotate(0) translate(4 601)">
<title>mc::gfx::Entity2D</title>
<polygon fill="white" stroke="none" points="-4,4 -4,-601 270,-601 270,4 -4,4"/>
<!-- Node1 -->
<g id="node1" class="node"><title>Node1</title>
<polygon fill="#bfbfbf" stroke="black" points="156.5,-0.5 156.5,-19.5 248.5,-19.5 248.5,-0.5 156.5,-0.5"/>
<text text-anchor="middle" x="202.5" y="-7.5" font-family="Helvetica,sans-Serif" font-size="10.00">mc::gfx::Entity2D</text>
</g>
<!-- Node2 -->
<g id="node2" class="node"><title>Node2</title>
<g id="a_node2"><a xlink:href="../../d1/d2b/a00018.html" target="_top" xlink:title="mc::gfx::GraphicsEntity">
<polygon fill="white" stroke="black" points="143,-63 143,-82 262,-82 262,-63 143,-63"/>
<text text-anchor="middle" x="202.5" y="-70" font-family="Helvetica,sans-Serif" font-size="10.00">mc::gfx::GraphicsEntity</text>
</a>
</g>
</g>
<!-- Node2&#45;&gt;Node1 -->
<g id="edge1" class="edge"><title>Node2&#45;&gt;Node1</title>
<path fill="none" stroke="midnightblue" d="M202.5,-52.5025C202.5,-41.5003 202.5,-28.182 202.5,-19.6521"/>
<polygon fill="midnightblue" stroke="midnightblue" points="199,-52.8318 202.5,-62.8318 206,-52.8319 199,-52.8318"/>
</g>
<!-- Node3 -->
<g id="node3" class="node"><title>Node3</title>
<g id="a_node3"><a xlink:href="../../d2/de7/a00014.html" target="_top" xlink:title="Abstract superclass for all graphical objects. ">
<polygon fill="white" stroke="black" points="107.5,-135.5 107.5,-154.5 187.5,-154.5 187.5,-135.5 107.5,-135.5"/>
<text text-anchor="middle" x="147.5" y="-142.5" font-family="Helvetica,sans-Serif" font-size="10.00">mc::gfx::Entity</text>
</a>
</g>
</g>
<!-- Node3&#45;&gt;Node2 -->
<g id="edge2" class="edge"><title>Node3&#45;&gt;Node2</title>
<path fill="none" stroke="midnightblue" d="M171.545,-129.441C176.268,-125.805 180.875,-121.61 184.5,-117 192.785,-106.464 197.842,-91.5745 200.407,-82.2338"/>
<polygon fill="midnightblue" stroke="midnightblue" points="169.29,-126.747 163.107,-135.351 173.306,-132.481 169.29,-126.747"/>
</g>
<!-- Node4 -->
<g id="node4" class="node"><title>Node4</title>
<polygon fill="white" stroke="#bfbfbf" points="22,-57.5 22,-87.5 125,-87.5 125,-57.5 22,-57.5"/>
<text text-anchor="start" x="30" y="-75.5" font-family="Helvetica,sans-Serif" font-size="10.00">std::vector&lt; mc::gfx</text>
<text text-anchor="middle" x="73.5" y="-64.5" font-family="Helvetica,sans-Serif" font-size="10.00">::Entity * &gt;</text>
</g>
<!-- Node3&#45;&gt;Node4 -->
<g id="edge4" class="edge"><title>Node3&#45;&gt;Node4</title>
<path fill="none" stroke="#9a32cd" stroke-dasharray="5,2" d="M97.6068,-134.6C88.5663,-130.634 80.2087,-125 74.5,-117 68.5327,-108.637 68.6234,-96.883 70.0197,-87.701"/>
<polygon fill="#9a32cd" stroke="#9a32cd" points="96.5998,-137.96 107.193,-138.159 99.0361,-131.398 96.5998,-137.96"/>
<text text-anchor="middle" x="96" y="-109" font-family="Helvetica,sans-Serif" font-size="10.00"> elements</text>
</g>
<!-- Node4&#45;&gt;Node3 -->
<g id="edge3" class="edge"><title>Node4&#45;&gt;Node3</title>
<path fill="none" stroke="#9a32cd" stroke-dasharray="5,2" d="M106.547,-93.4382C111.817,-97.2884 117.006,-101.528 121.5,-106 130.452,-114.909 138.258,-127.296 142.922,-135.474"/>
<polygon fill="#9a32cd" stroke="#9a32cd" points="108.504,-90.5362 98.2873,-87.7306 104.524,-96.295 108.504,-90.5362"/>
<text text-anchor="middle" x="150" y="-109" font-family="Helvetica,sans-Serif" font-size="10.00"> children</text>
</g>
<!-- Node5 -->
<g id="node5" class="node"><title>Node5</title>
<g id="a_node5"><a xlink:title="STL class. ">
<polygon fill="white" stroke="#bfbfbf" points="0,-472.5 0,-491.5 85,-491.5 85,-472.5 0,-472.5"/>
<text text-anchor="middle" x="42.5" y="-479.5" font-family="Helvetica,sans-Serif" font-size="10.00">std::vector&lt; T &gt;</text>
</a>
</g>
</g>
<!-- Node5&#45;&gt;Node4 -->
<g id="edge5" class="edge"><title>Node5&#45;&gt;Node4</title>
<path fill="none" stroke="orange" stroke-dasharray="5,2" d="M42.1084,-462.335C41.828,-447.373 41.5,-425.839 41.5,-407 41.5,-407 41.5,-407 41.5,-144 41.5,-122.897 53.5356,-101.162 62.8445,-87.5075"/>
<polygon fill="orange" stroke="orange" points="38.6091,-462.414 42.3072,-472.342 45.6077,-462.275 38.6091,-462.414"/>
<text text-anchor="middle" x="87.5" y="-298.5" font-family="Helvetica,sans-Serif" font-size="10.00"> &lt; mc::gfx::Entity * &gt;</text>
</g>
<!-- Node6 -->
<g id="node6" class="node"><title>Node6</title>
<polygon fill="white" stroke="#bfbfbf" points="135,-577.5 135,-596.5 164,-596.5 164,-577.5 135,-577.5"/>
<text text-anchor="middle" x="149.5" y="-584.5" font-family="Helvetica,sans-Serif" font-size="10.00">T</text>
</g>
<!-- Node6&#45;&gt;Node5 -->
<g id="edge6" class="edge"><title>Node6&#45;&gt;Node5</title>
<path fill="none" stroke="#9a32cd" stroke-dasharray="5,2" d="M125.552,-574.551C117.778,-570.25 109.388,-564.944 102.5,-559 78.5733,-538.352 57.4305,-507.044 47.8866,-491.868"/>
<polygon fill="#9a32cd" stroke="#9a32cd" points="124.104,-577.744 134.587,-579.276 127.347,-571.54 124.104,-577.744"/>
<text text-anchor="middle" x="124" y="-551" font-family="Helvetica,sans-Serif" font-size="10.00"> elements</text>
</g>
<!-- Node10 -->
<g id="node10" class="node"><title>Node10</title>
<g id="a_node10"><a xlink:title="STL class. ">
<polygon fill="white" stroke="#bfbfbf" points="109,-510.5 109,-529.5 190,-529.5 190,-510.5 109,-510.5"/>
<text text-anchor="middle" x="149.5" y="-517.5" font-family="Helvetica,sans-Serif" font-size="10.00">std::array&lt; T &gt;</text>
</a>
</g>
</g>
<!-- Node6&#45;&gt;Node10 -->
<g id="edge11" class="edge"><title>Node6&#45;&gt;Node10</title>
<path fill="none" stroke="#9a32cd" stroke-dasharray="5,2" d="M149.5,-567.037C149.5,-554.67 149.5,-539.12 149.5,-529.627"/>
<polygon fill="#9a32cd" stroke="#9a32cd" points="146,-567.234 149.5,-577.234 153,-567.234 146,-567.234"/>
<text text-anchor="middle" x="171" y="-551" font-family="Helvetica,sans-Serif" font-size="10.00"> elements</text>
</g>
<!-- Node12 -->
<g id="node12" class="node"><title>Node12</title>
<polygon fill="white" stroke="#bfbfbf" points="168.5,-434.5 168.5,-453.5 262.5,-453.5 262.5,-434.5 168.5,-434.5"/>
<text text-anchor="middle" x="215.5" y="-441.5" font-family="Helvetica,sans-Serif" font-size="10.00">std::array&lt; T, N &gt;</text>
</g>
<!-- Node6&#45;&gt;Node12 -->
<g id="edge14" class="edge"><title>Node6&#45;&gt;Node12</title>
<path fill="none" stroke="#9a32cd" stroke-dasharray="5,2" d="M173.454,-576.04C181.582,-571.745 190.193,-566.063 196.5,-559 218.112,-534.798 218.919,-523.773 225.5,-492 227.303,-483.296 227.068,-480.749 225.5,-472 224.371,-465.702 221.871,-458.952 219.653,-453.777"/>
<polygon fill="#9a32cd" stroke="#9a32cd" points="171.793,-572.956 164.3,-580.446 174.828,-579.263 171.793,-572.956"/>
<text text-anchor="middle" x="243" y="-517.5" font-family="Helvetica,sans-Serif" font-size="10.00"> elements</text>
</g>
<!-- Node7 -->
<g id="node7" class="node"><title>Node7</title>
<g id="a_node7"><a xlink:href="../../db/d3a/a00040.html" target="_top" xlink:title="Matrix&#45;based class that allows for the easy creation and management of transformation matrices...">
<polygon fill="white" stroke="black" points="119.5,-202.5 119.5,-221.5 225.5,-221.5 225.5,-202.5 119.5,-202.5"/>
<text text-anchor="middle" x="172.5" y="-209.5" font-family="Helvetica,sans-Serif" font-size="10.00">mc::TransformMatrix</text>
</a>
</g>
</g>
<!-- Node7&#45;&gt;Node3 -->
<g id="edge7" class="edge"><title>Node7&#45;&gt;Node3</title>
<path fill="none" stroke="#9a32cd" stroke-dasharray="5,2" d="M165.496,-192.79C160.695,-180.308 154.544,-164.314 150.818,-154.627"/>
<polygon fill="#9a32cd" stroke="#9a32cd" points="162.272,-194.157 169.128,-202.234 168.805,-191.644 162.272,-194.157"/>
<text text-anchor="middle" x="194" y="-176" font-family="Helvetica,sans-Serif" font-size="10.00"> transformation</text>
</g>
<!-- Node8 -->
<g id="node8" class="node"><title>Node8</title>
<g id="a_node8"><a xlink:href="../../d5/db6/a00042.html" target="_top" xlink:title="mc::Vector\&lt; float, 3 \&gt;">
<polygon fill="white" stroke="black" points="151.5,-291.5 151.5,-310.5 263.5,-310.5 263.5,-291.5 151.5,-291.5"/>
<text text-anchor="middle" x="207.5" y="-298.5" font-family="Helvetica,sans-Serif" font-size="10.00">mc::Vector&lt; float, 3 &gt;</text>
</a>
</g>
</g>
<!-- Node8&#45;&gt;Node7 -->
<g id="edge8" class="edge"><title>Node8&#45;&gt;Node7</title>
<path fill="none" stroke="#9a32cd" stroke-dasharray="5,2" d="M200.248,-281.973C192.822,-263.514 181.595,-235.607 175.97,-221.625"/>
<polygon fill="#9a32cd" stroke="#9a32cd" points="197.037,-283.369 204.016,-291.34 203.531,-280.756 197.037,-283.369"/>
<text text-anchor="middle" x="219.5" y="-265" font-family="Helvetica,sans-Serif" font-size="10.00"> rotation</text>
<text text-anchor="middle" x="219.5" y="-254" font-family="Helvetica,sans-Serif" font-size="10.00">scaler</text>
<text text-anchor="middle" x="219.5" y="-243" font-family="Helvetica,sans-Serif" font-size="10.00">translation</text>
</g>
<!-- Node9 -->
<g id="node9" class="node"><title>Node9</title>
<polygon fill="white" stroke="#bfbfbf" points="57,-396.5 57,-415.5 164,-415.5 164,-396.5 57,-396.5"/>
<text text-anchor="middle" x="110.5" y="-403.5" font-family="Helvetica,sans-Serif" font-size="10.00">std::array&lt; float, N &gt;</text>
</g>
<!-- Node9&#45;&gt;Node8 -->
<g id="edge9" class="edge"><title>Node9&#45;&gt;Node8</title>
<path fill="none" stroke="#9a32cd" stroke-dasharray="5,2" d="M110.691,-386.153C111.593,-376.988 113.925,-366.208 119.5,-358 135.169,-334.93 163.831,-319.351 184.184,-310.599"/>
<polygon fill="#9a32cd" stroke="#9a32cd" points="107.19,-386.086 110.179,-396.25 114.181,-386.44 107.19,-386.086"/>
<text text-anchor="middle" x="137.5" y="-365.5" font-family="Helvetica,sans-Serif" font-size="10.00"> content</text>
</g>
<!-- Node10&#45;&gt;Node9 -->
<g id="edge10" class="edge"><title>Node10&#45;&gt;Node9</title>
<path fill="none" stroke="orange" stroke-dasharray="5,2" d="M123.795,-504.36C119.679,-500.852 115.968,-496.726 113.5,-492 100.376,-466.87 105.25,-431.622 108.508,-415.569"/>
<polygon fill="orange" stroke="orange" points="121.848,-507.272 131.987,-510.344 125.976,-501.62 121.848,-507.272"/>
<text text-anchor="middle" x="139.5" y="-479.5" font-family="Helvetica,sans-Serif" font-size="10.00"> &lt; float, N &gt;</text>
</g>
<!-- Node10&#45;&gt;Node12 -->
<g id="edge15" class="edge"><title>Node10&#45;&gt;Node12</title>
<path fill="none" stroke="orange" stroke-dasharray="5,2" d="M161.365,-501.977C168.065,-492.773 176.817,-481.4 185.5,-472 191.586,-465.412 199.086,-458.662 205.065,-453.559"/>
<polygon fill="orange" stroke="orange" points="158.383,-500.13 155.427,-510.304 164.082,-504.194 158.383,-500.13"/>
<text text-anchor="middle" x="205.5" y="-479.5" font-family="Helvetica,sans-Serif" font-size="10.00"> &lt; T, N &gt;</text>
</g>
<!-- Node11 -->
<g id="node11" class="node"><title>Node11</title>
<g id="a_node11"><a xlink:href="../../d5/db6/a00042.html" target="_top" xlink:title="1&#45;dimensional vector class that supports mathmatical operations. ">
<polygon fill="white" stroke="black" points="165,-358.5 165,-377.5 266,-377.5 266,-358.5 165,-358.5"/>
<text text-anchor="middle" x="215.5" y="-365.5" font-family="Helvetica,sans-Serif" font-size="10.00">mc::Vector&lt; T, N &gt;</text>
</a>
</g>
</g>
<!-- Node11&#45;&gt;Node8 -->
<g id="edge12" class="edge"><title>Node11&#45;&gt;Node8</title>
<path fill="none" stroke="orange" stroke-dasharray="5,2" d="M213.166,-348.037C211.644,-335.67 209.73,-320.12 208.562,-310.627"/>
<polygon fill="orange" stroke="orange" points="209.726,-348.736 214.421,-358.234 216.673,-347.881 209.726,-348.736"/>
<text text-anchor="middle" x="238" y="-332" font-family="Helvetica,sans-Serif" font-size="10.00"> &lt; float, 3 &gt;</text>
</g>
<!-- Node12&#45;&gt;Node11 -->
<g id="edge13" class="edge"><title>Node12&#45;&gt;Node11</title>
<path fill="none" stroke="#9a32cd" stroke-dasharray="5,2" d="M215.5,-424.072C215.5,-409.18 215.5,-389.111 215.5,-377.768"/>
<polygon fill="#9a32cd" stroke="#9a32cd" points="212,-424.221 215.5,-434.221 219,-424.221 212,-424.221"/>
<text text-anchor="middle" x="233.5" y="-403.5" font-family="Helvetica,sans-Serif" font-size="10.00"> content</text>
</g>
</g>
</svg>
