<?xml version="1.0" encoding="UTF-8" standalone="no"?>
<!DOCTYPE svg PUBLIC "-//W3C//DTD SVG 1.1//EN"
 "http://www.w3.org/Graphics/SVG/1.1/DTD/svg11.dtd">
<!-- Generated by graphviz version 2.38.0 (20140413.2041)
 -->
<!-- Title: mc::gfx::CallbackComponent Pages: 1 -->
<!--zoomable 640 -->
<svg id="main" version="1.1" xmlns="http://www.w3.org/2000/svg" xmlns:xlink="http://www.w3.org/1999/xlink" xml:space="preserve" onload="init(evt)">
<style type="text/css"><![CDATA[
.edge:hover path { stroke: red; }
.edge:hover polygon { stroke: red; fill: red; }
]]></style>
<script type="text/javascript"><![CDATA[
var edges = document.getElementsByTagName('g');
if (edges && edges.length) {
  for (var i=0;i<edges.length;i++) {
    if (edges[i].id.substr(0,4)=='edge') {
      edges[i].setAttribute('class','edge');
    }
  }
}
]]></script>
        <defs>
                <circle id="rim" cx="0" cy="0" r="7"/>
                <circle id="rim2" cx="0" cy="0" r="3.5"/>
                <g id="zoomPlus">
                        <use xlink:href="#rim" fill="#404040">
                                <set attributeName="fill" to="#808080" begin="zoomplus.mouseover" end="zoomplus.mouseout"/>
                        </use>
                        <path d="M-4,0h8M0,-4v8" fill="none" stroke="white" stroke-width="1.5" pointer-events="none"/>
                </g>
                <g id="zoomMin">
                        <use xlink:href="#rim" fill="#404040">
                                <set attributeName="fill" to="#808080" begin="zoomminus.mouseover" end="zoomminus.mouseout"/>
                        </use>
                        <path d="M-4,0h8" fill="none" stroke="white" stroke-width="1.5" pointer-events="none"/>
                </g>
                <g id="dirArrow">
                        <path fill="none" stroke="white" stroke-width="1.5" d="M0,-3.0v7 M-2.5,-0.5L0,-3.0L2.5,-0.5"/>
                </g>
               <g id="resetDef">
                       <use xlink:href="#rim2" fill="#404040">
                               <set attributeName="fill" to="#808080" begin="reset.mouseover" end="reset.mouseout"/>
                       </use>
               </g>
        </defs>

<script type="text/javascript">
var viewWidth = 433;
var viewHeight = 640;
var sectionId = 'dynsection-1';
</script>
<script xlink:href="../../svgpan.js"/>
<svg id="graph" class="graph">
<g id="viewport">
<title>mc::gfx::CallbackComponent</title>
<polygon fill="white" stroke="none" points="-4,4 -4,-636 428.5,-636 428.5,4 -4,4"/>
<!-- Node1 -->
<g id="node1" class="node"><title>Node1</title>
<polygon fill="#bfbfbf" stroke="black" points="69.5,-0.5 69.5,-19.5 211.5,-19.5 211.5,-0.5 69.5,-0.5"/>
<text text-anchor="middle" x="140.5" y="-7.5" font-family="Helvetica,sans-Serif" font-size="10.00">mc::gfx::CallbackComponent</text>
</g>
<!-- Node2 -->
<g id="node2" class="node"><title>Node2</title>
<g id="a_node2"><a xlink:href="../../d7/d7a/a00016.html" target="_top" xlink:title="Can be plugged into an Entity to allow for additional functionality by listening to events...">
<polygon fill="white" stroke="black" points="88.5,-63 88.5,-82 192.5,-82 192.5,-63 88.5,-63"/>
<text text-anchor="middle" x="140.5" y="-70" font-family="Helvetica,sans-Serif" font-size="10.00">mc::gfx::Component</text>
</a>
</g>
</g>
<!-- Node2&#45;&gt;Node1 -->
<g id="edge1" class="edge"><title>Node2&#45;&gt;Node1</title>
<path fill="none" stroke="midnightblue" d="M140.5,-52.5025C140.5,-41.5003 140.5,-28.182 140.5,-19.6521"/>
<polygon fill="midnightblue" stroke="midnightblue" points="137,-52.8318 140.5,-62.8318 144,-52.8319 137,-52.8318"/>
</g>
<!-- Node3 -->
<g id="node3" class="node"><title>Node3</title>
<g id="a_node3"><a xlink:href="../../d4/d8c/a00035.html" target="_top" xlink:title="mc::Initializable">
<polygon fill="white" stroke="black" points="74.5,-202.5 74.5,-221.5 158.5,-221.5 158.5,-202.5 74.5,-202.5"/>
<text text-anchor="middle" x="116.5" y="-209.5" font-family="Helvetica,sans-Serif" font-size="10.00">mc::Initializable</text>
</a>
</g>
</g>
<!-- Node3&#45;&gt;Node2 -->
<g id="edge2" class="edge"><title>Node3&#45;&gt;Node2</title>
<path fill="none" stroke="midnightblue" d="M119.753,-192.362C125.012,-162.231 135.178,-103.99 138.999,-82.098"/>
<polygon fill="midnightblue" stroke="midnightblue" points="116.273,-191.946 118.001,-202.399 123.169,-193.15 116.273,-191.946"/>
</g>
<!-- Node4 -->
<g id="node4" class="node"><title>Node4</title>
<g id="a_node4"><a xlink:href="../../d7/de0/a00022.html" target="_top" xlink:title="Abstract superclass for all graphical objects. ">
<polygon fill="white" stroke="black" points="173.5,-135.5 173.5,-154.5 253.5,-154.5 253.5,-135.5 173.5,-135.5"/>
<text text-anchor="middle" x="213.5" y="-142.5" font-family="Helvetica,sans-Serif" font-size="10.00">mc::gfx::Entity</text>
</a>
</g>
</g>
<!-- Node3&#45;&gt;Node4 -->
<g id="edge4" class="edge"><title>Node3&#45;&gt;Node4</title>
<path fill="none" stroke="midnightblue" d="M137.997,-196.595C157.186,-183.736 184.653,-165.331 200.625,-154.627"/>
<polygon fill="midnightblue" stroke="midnightblue" points="135.941,-193.759 129.582,-202.234 139.838,-199.575 135.941,-193.759"/>
</g>
<!-- Node4&#45;&gt;Node2 -->
<g id="edge3" class="edge"><title>Node4&#45;&gt;Node2</title>
<path fill="none" stroke="#9a32cd" stroke-dasharray="5,2" d="M188.084,-129.867C182.317,-126.077 176.441,-121.71 171.5,-117 160.492,-106.506 150.865,-91.6051 145.368,-82.2503"/>
<polygon fill="#9a32cd" stroke="#9a32cd" points="186.56,-133.04 196.909,-135.313 190.237,-127.083 186.56,-133.04"/>
<text text-anchor="middle" x="187" y="-109" font-family="Helvetica,sans-Serif" font-size="10.00"> parent</text>
</g>
<!-- Node5 -->
<g id="node5" class="node"><title>Node5</title>
<polygon fill="white" stroke="#bfbfbf" points="228,-57.5 228,-87.5 331,-87.5 331,-57.5 228,-57.5"/>
<text text-anchor="start" x="236" y="-75.5" font-family="Helvetica,sans-Serif" font-size="10.00">std::vector&lt; mc::gfx</text>
<text text-anchor="middle" x="279.5" y="-64.5" font-family="Helvetica,sans-Serif" font-size="10.00">::Entity * &gt;</text>
</g>
<!-- Node4&#45;&gt;Node5 -->
<g id="edge6" class="edge"><title>Node4&#45;&gt;Node5</title>
<path fill="none" stroke="#9a32cd" stroke-dasharray="5,2" d="M207.601,-125.327C206.63,-118.78 206.912,-111.656 210.5,-106 215.465,-98.173 222.874,-92.1964 231.019,-87.6435"/>
<polygon fill="#9a32cd" stroke="#9a32cd" points="204.295,-126.547 210.055,-135.439 211.098,-124.896 204.295,-126.547"/>
<text text-anchor="middle" x="232" y="-109" font-family="Helvetica,sans-Serif" font-size="10.00"> elements</text>
</g>
<!-- Node5&#45;&gt;Node4 -->
<g id="edge5" class="edge"><title>Node5&#45;&gt;Node4</title>
<path fill="none" stroke="#9a32cd" stroke-dasharray="5,2" d="M270.64,-96.795C267.24,-103.808 262.861,-111.18 257.5,-117 250.457,-124.647 240.762,-130.908 232.265,-135.468"/>
<polygon fill="#9a32cd" stroke="#9a32cd" points="273.848,-98.196 274.67,-87.633 267.44,-95.3778 273.848,-98.196"/>
<text text-anchor="middle" x="283" y="-109" font-family="Helvetica,sans-Serif" font-size="10.00"> children</text>
</g>
<!-- Node6 -->
<g id="node6" class="node"><title>Node6</title>
<g id="a_node6"><a xlink:title="STL class. ">
<polygon fill="white" stroke="#bfbfbf" points="291,-495.5 291,-514.5 376,-514.5 376,-495.5 291,-495.5"/>
<text text-anchor="middle" x="333.5" y="-502.5" font-family="Helvetica,sans-Serif" font-size="10.00">std::vector&lt; T &gt;</text>
</a>
</g>
</g>
<!-- Node6&#45;&gt;Node5 -->
<g id="edge7" class="edge"><title>Node6&#45;&gt;Node5</title>
<path fill="none" stroke="orange" stroke-dasharray="5,2" d="M333.174,-485.162C332.882,-466.663 332.5,-437.64 332.5,-412.5 332.5,-412.5 332.5,-412.5 332.5,-144 332.5,-120.878 314.06,-100.505 298.934,-87.682"/>
<polygon fill="orange" stroke="orange" points="329.679,-485.482 333.344,-495.422 336.678,-485.366 329.679,-485.482"/>
<text text-anchor="middle" x="378.5" y="-298.5" font-family="Helvetica,sans-Serif" font-size="10.00"> &lt; mc::gfx::Entity * &gt;</text>
</g>
<!-- Node7 -->
<g id="node7" class="node"><title>Node7</title>
<polygon fill="white" stroke="#bfbfbf" points="258,-612.5 258,-631.5 287,-631.5 287,-612.5 258,-612.5"/>
<text text-anchor="middle" x="272.5" y="-619.5" font-family="Helvetica,sans-Serif" font-size="10.00">T</text>
</g>
<!-- Node7&#45;&gt;Node6 -->
<g id="edge8" class="edge"><title>Node7&#45;&gt;Node6</title>
<path fill="none" stroke="#9a32cd" stroke-dasharray="5,2" d="M286.272,-604.35C294.667,-593.61 305.157,-579.067 312.5,-565 321.355,-548.036 327.96,-526.511 331.224,-514.714"/>
<polygon fill="#9a32cd" stroke="#9a32cd" points="283.355,-602.392 279.827,-612.383 288.815,-606.773 283.355,-602.392"/>
<text text-anchor="middle" x="322" y="-586" font-family="Helvetica,sans-Serif" font-size="10.00"> elements</text>
</g>
<!-- Node11 -->
<g id="node11" class="node"><title>Node11</title>
<g id="a_node11"><a xlink:href="../../df/d5d/a00084.html" target="_top" xlink:title="1&#45;dimensional vector class that supports mathmatical operations. ">
<polygon fill="white" stroke="black" points="87,-534.5 87,-564.5 208,-564.5 208,-534.5 87,-534.5"/>
<text text-anchor="start" x="95" y="-552.5" font-family="Helvetica,sans-Serif" font-size="10.00">mc::VectorBase&lt; Child,</text>
<text text-anchor="middle" x="147.5" y="-541.5" font-family="Helvetica,sans-Serif" font-size="10.00"> T, N &gt;</text>
</a>
</g>
</g>
<!-- Node7&#45;&gt;Node11 -->
<g id="edge13" class="edge"><title>Node7&#45;&gt;Node11</title>
<path fill="none" stroke="#9a32cd" stroke-dasharray="5,2" d="M249.084,-608.546C240.671,-604.021 231.131,-598.832 222.5,-594 205.294,-584.368 186.058,-573.203 171.375,-564.596"/>
<polygon fill="#9a32cd" stroke="#9a32cd" points="247.528,-611.682 257.995,-613.318 250.832,-605.511 247.528,-611.682"/>
<text text-anchor="middle" x="240.5" y="-586" font-family="Helvetica,sans-Serif" font-size="10.00"> content</text>
</g>
<!-- Node13 -->
<g id="node13" class="node"><title>Node13</title>
<g id="a_node13"><a xlink:href="../../df/d5d/a00084.html" target="_top" xlink:title="mc::VectorBase\&lt; Vector\l\&lt; T, N \&gt;, T, N \&gt;">
<polygon fill="white" stroke="black" points="133,-445.5 133,-475.5 258,-475.5 258,-445.5 133,-445.5"/>
<text text-anchor="start" x="141" y="-463.5" font-family="Helvetica,sans-Serif" font-size="10.00">mc::VectorBase&lt; Vector</text>
<text text-anchor="middle" x="195.5" y="-452.5" font-family="Helvetica,sans-Serif" font-size="10.00">&lt; T, N &gt;, T, N &gt;</text>
</a>
</g>
</g>
<!-- Node7&#45;&gt;Node13 -->
<g id="edge16" class="edge"><title>Node7&#45;&gt;Node13</title>
<path fill="none" stroke="#9a32cd" stroke-dasharray="5,2" d="M272.558,-602.069C272.305,-571.042 270.254,-511.101 258.5,-494 253.202,-486.292 245.497,-480.296 237.282,-475.675"/>
<polygon fill="#9a32cd" stroke="#9a32cd" points="269.059,-602.403 272.583,-612.395 276.059,-602.386 269.059,-602.403"/>
<text text-anchor="middle" x="288.5" y="-547" font-family="Helvetica,sans-Serif" font-size="10.00"> content</text>
</g>
<!-- Node8 -->
<g id="node8" class="node"><title>Node8</title>
<g id="a_node8"><a xlink:href="../../db/db6/a00074.html" target="_top" xlink:title="Matrix&#45;based class that allows for the easy creation and management of transformation matrices...">
<polygon fill="white" stroke="black" points="176.5,-202.5 176.5,-221.5 282.5,-221.5 282.5,-202.5 176.5,-202.5"/>
<text text-anchor="middle" x="229.5" y="-209.5" font-family="Helvetica,sans-Serif" font-size="10.00">mc::TransformMatrix</text>
</a>
</g>
</g>
<!-- Node8&#45;&gt;Node4 -->
<g id="edge9" class="edge"><title>Node8&#45;&gt;Node4</title>
<path fill="none" stroke="#9a32cd" stroke-dasharray="5,2" d="M224.925,-192.415C221.866,-179.988 217.984,-164.217 215.624,-154.627"/>
<polygon fill="#9a32cd" stroke="#9a32cd" points="221.553,-193.36 227.342,-202.234 228.35,-191.687 221.553,-193.36"/>
<text text-anchor="middle" x="254" y="-176" font-family="Helvetica,sans-Serif" font-size="10.00"> transformation</text>
</g>
<!-- Node9 -->
<g id="node9" class="node"><title>Node9</title>
<g id="a_node9"><a xlink:href="../../db/df8/a00076.html" target="_top" xlink:title="mc::Vector\&lt; float, 3 \&gt;">
<polygon fill="white" stroke="black" points="139.5,-291.5 139.5,-310.5 251.5,-310.5 251.5,-291.5 139.5,-291.5"/>
<text text-anchor="middle" x="195.5" y="-298.5" font-family="Helvetica,sans-Serif" font-size="10.00">mc::Vector&lt; float, 3 &gt;</text>
</a>
</g>
</g>
<!-- Node9&#45;&gt;Node8 -->
<g id="edge10" class="edge"><title>Node9&#45;&gt;Node8</title>
<path fill="none" stroke="#9a32cd" stroke-dasharray="5,2" d="M202.545,-281.973C209.759,-263.514 220.665,-235.607 226.129,-221.625"/>
<polygon fill="#9a32cd" stroke="#9a32cd" points="199.264,-280.752 198.884,-291.34 205.784,-283.3 199.264,-280.752"/>
<text text-anchor="middle" x="241.5" y="-265" font-family="Helvetica,sans-Serif" font-size="10.00"> rotation</text>
<text text-anchor="middle" x="241.5" y="-254" font-family="Helvetica,sans-Serif" font-size="10.00">scaler</text>
<text text-anchor="middle" x="241.5" y="-243" font-family="Helvetica,sans-Serif" font-size="10.00">translation</text>
</g>
<!-- Node10 -->
<g id="node10" class="node"><title>Node10</title>
<g id="a_node10"><a xlink:href="../../df/d5d/a00084.html" target="_top" xlink:title="mc::VectorBase\&lt; Vector\l\&lt; float, N \&gt;, float, N \&gt;">
<polygon fill="white" stroke="black" points="0,-396.5 0,-426.5 125,-426.5 125,-396.5 0,-396.5"/>
<text text-anchor="start" x="8" y="-414.5" font-family="Helvetica,sans-Serif" font-size="10.00">mc::VectorBase&lt; Vector</text>
<text text-anchor="middle" x="62.5" y="-403.5" font-family="Helvetica,sans-Serif" font-size="10.00">&lt; float, N &gt;, float, N &gt;</text>
</a>
</g>
</g>
<!-- Node10&#45;&gt;Node9 -->
<g id="edge11" class="edge"><title>Node10&#45;&gt;Node9</title>
<path fill="none" stroke="midnightblue" d="M87.6582,-389.976C117.014,-366.028 164.187,-327.545 185.026,-310.545"/>
<polygon fill="midnightblue" stroke="midnightblue" points="85.4236,-387.282 79.8874,-396.316 89.8486,-392.706 85.4236,-387.282"/>
</g>
<!-- Node11&#45;&gt;Node10 -->
<g id="edge12" class="edge"><title>Node11&#45;&gt;Node10</title>
<path fill="none" stroke="orange" stroke-dasharray="5,2" d="M77.6663,-533.562C69.7668,-529.136 62.7017,-523.409 57.5,-516 38.6865,-489.204 49.1506,-448.196 56.7722,-426.728"/>
<polygon fill="orange" stroke="orange" points="76.3591,-536.818 86.8847,-538.026 79.4101,-530.518 76.3591,-536.818"/>
<text text-anchor="start" x="57.5" y="-508" font-family="Helvetica,sans-Serif" font-size="10.00"> &lt; Vector&lt; float, N</text>
<text text-anchor="middle" x="98" y="-497" font-family="Helvetica,sans-Serif" font-size="10.00"> &gt;, float, N &gt;</text>
</g>
<!-- Node11&#45;&gt;Node13 -->
<g id="edge17" class="edge"><title>Node11&#45;&gt;Node13</title>
<path fill="none" stroke="orange" stroke-dasharray="5,2" d="M143.285,-524.135C142.727,-514.257 143.641,-503.065 148.5,-494 152.531,-486.481 159.158,-480.346 166.181,-475.513"/>
<polygon fill="orange" stroke="orange" points="139.815,-524.601 144.351,-534.176 146.776,-523.862 139.815,-524.601"/>
<text text-anchor="middle" x="203.5" y="-502.5" font-family="Helvetica,sans-Serif" font-size="10.00"> &lt; Vector&lt; T, N &gt;, T, N &gt;</text>
</g>
<!-- Node12 -->
<g id="node12" class="node"><title>Node12</title>
<g id="a_node12"><a xlink:href="../../db/df8/a00076.html" target="_top" xlink:title="mc::Vector\&lt; T, N \&gt;">
<polygon fill="white" stroke="black" points="145,-358.5 145,-377.5 246,-377.5 246,-358.5 145,-358.5"/>
<text text-anchor="middle" x="195.5" y="-365.5" font-family="Helvetica,sans-Serif" font-size="10.00">mc::Vector&lt; T, N &gt;</text>
</a>
</g>
</g>
<!-- Node12&#45;&gt;Node9 -->
<g id="edge14" class="edge"><title>Node12&#45;&gt;Node9</title>
<path fill="none" stroke="orange" stroke-dasharray="5,2" d="M195.5,-348.037C195.5,-335.67 195.5,-320.12 195.5,-310.627"/>
<polygon fill="orange" stroke="orange" points="192,-348.234 195.5,-358.234 199,-348.234 192,-348.234"/>
<text text-anchor="middle" x="221" y="-332" font-family="Helvetica,sans-Serif" font-size="10.00"> &lt; float, 3 &gt;</text>
</g>
<!-- Node13&#45;&gt;Node12 -->
<g id="edge15" class="edge"><title>Node13&#45;&gt;Node12</title>
<path fill="none" stroke="midnightblue" d="M195.5,-435.275C195.5,-416.198 195.5,-390.709 195.5,-377.596"/>
<polygon fill="midnightblue" stroke="midnightblue" points="192,-435.359 195.5,-445.359 199,-435.359 192,-435.359"/>
</g>
</g>
</svg>
        <g id="navigator" transform="translate(0 0)" fill="#404254">
                <rect fill="#f2f5e9" fill-opacity="0.5" stroke="#606060" stroke-width=".5" x="0" y="0" width="60" height="60"/>
                <use id="zoomplus" xlink:href="#zoomPlus" x="17" y="9" onmousedown="handleZoom(evt,'in')"/>
                <use id="zoomminus" xlink:href="#zoomMin" x="42" y="9" onmousedown="handleZoom(evt,'out')"/>
                <use id="reset" xlink:href="#resetDef" x="30" y="36" onmousedown="handleReset()"/>
                <g id="arrowUp" xlink:href="#dirArrow" transform="translate(30 24)" onmousedown="handlePan(0,-1)">
                  <use xlink:href="#rim" fill="#404040">
                        <set attributeName="fill" to="#808080" begin="arrowUp.mouseover" end="arrowUp.mouseout"/>
                  </use>
                  <path fill="none" stroke="white" stroke-width="1.5" d="M0,-3.0v7 M-2.5,-0.5L0,-3.0L2.5,-0.5"/>
                </g>
                <g id="arrowRight" xlink:href="#dirArrow" transform="rotate(90) translate(36 -43)" onmousedown="handlePan(1,0)">
                  <use xlink:href="#rim" fill="#404040">
                        <set attributeName="fill" to="#808080" begin="arrowRight.mouseover" end="arrowRight.mouseout"/>
                  </use>
                  <path fill="none" stroke="white" stroke-width="1.5" d="M0,-3.0v7 M-2.5,-0.5L0,-3.0L2.5,-0.5"/>
                </g>
                <g id="arrowDown" xlink:href="#dirArrow" transform="rotate(180) translate(-30 -48)" onmousedown="handlePan(0,1)">
                  <use xlink:href="#rim" fill="#404040">
                        <set attributeName="fill" to="#808080" begin="arrowDown.mouseover" end="arrowDown.mouseout"/>
                  </use>
                  <path fill="none" stroke="white" stroke-width="1.5" d="M0,-3.0v7 M-2.5,-0.5L0,-3.0L2.5,-0.5"/>
                </g>
                <g id="arrowLeft" xlink:href="#dirArrow" transform="rotate(270) translate(-36 17)" onmousedown="handlePan(-1,0)">
                  <use xlink:href="#rim" fill="#404040">
                        <set attributeName="fill" to="#808080" begin="arrowLeft.mouseover" end="arrowLeft.mouseout"/>
                  </use>
                  <path fill="none" stroke="white" stroke-width="1.5" d="M0,-3.0v7 M-2.5,-0.5L0,-3.0L2.5,-0.5"/>
                </g>
        </g>
        <svg viewBox="0 0 15 15" width="100%" height="30px" preserveAspectRatio="xMaxYMin meet">
         <g id="arrow_out" transform="scale(0.3 0.3)">
          <a xlink:href="a00219_org.svg" target="_base">
           <rect id="button" ry="5" rx="5" y="6" x="6" height="38" width="38"
                fill="#f2f5e9" fill-opacity="0.5" stroke="#606060" stroke-width="1.0"/>
           <path id="arrow"
             d="M 11.500037,31.436501 C 11.940474,20.09759 22.043105,11.32322 32.158766,21.979434 L 37.068811,17.246167 C 37.068811,17.246167 37.088388,32 37.088388,32 L 22.160133,31.978069 C 22.160133,31.978069 26.997745,27.140456 26.997745,27.140456 C 18.528582,18.264221 13.291696,25.230495 11.500037,31.436501 z"
             style="fill:#404040;"/>
          </a>
         </g>
        </svg>
</svg>
