<?xml version="1.0" encoding="UTF-8" standalone="no"?>
<!DOCTYPE svg PUBLIC "-//W3C//DTD SVG 1.1//EN"
 "http://www.w3.org/Graphics/SVG/1.1/DTD/svg11.dtd">
<!-- Generated by graphviz version 2.38.0 (20140413.2041)
 -->
<!-- Title: mc::gfx::Entity2D Pages: 1 -->
<svg width="356pt" height="640pt"
 viewBox="0.00 0.00 355.50 640.00" xmlns="http://www.w3.org/2000/svg" xmlns:xlink="http://www.w3.org/1999/xlink">
<g id="graph0" class="graph" transform="scale(1 1) rotate(0) translate(4 636)">
<title>mc::gfx::Entity2D</title>
<polygon fill="white" stroke="none" points="-4,4 -4,-636 351.5,-636 351.5,4 -4,4"/>
<!-- Node1 -->
<g id="node1" class="node"><title>Node1</title>
<polygon fill="#bfbfbf" stroke="black" points="176.5,-0.5 176.5,-19.5 268.5,-19.5 268.5,-0.5 176.5,-0.5"/>
<text text-anchor="middle" x="222.5" y="-7.5" font-family="Helvetica,sans-Serif" font-size="10.00">mc::gfx::Entity2D</text>
</g>
<!-- Node2 -->
<g id="node2" class="node"><title>Node2</title>
<g id="a_node2"><a xlink:href="../../d5/d16/a00029.html" target="_top" xlink:title="mc::gfx::GraphicsEntity">
<polygon fill="white" stroke="black" points="163,-63 163,-82 282,-82 282,-63 163,-63"/>
<text text-anchor="middle" x="222.5" y="-70" font-family="Helvetica,sans-Serif" font-size="10.00">mc::gfx::GraphicsEntity</text>
</a>
</g>
</g>
<!-- Node2&#45;&gt;Node1 -->
<g id="edge1" class="edge"><title>Node2&#45;&gt;Node1</title>
<path fill="none" stroke="midnightblue" d="M222.5,-52.5025C222.5,-41.5003 222.5,-28.182 222.5,-19.6521"/>
<polygon fill="midnightblue" stroke="midnightblue" points="219,-52.8318 222.5,-62.8318 226,-52.8319 219,-52.8318"/>
</g>
<!-- Node3 -->
<g id="node3" class="node"><title>Node3</title>
<g id="a_node3"><a xlink:href="../../d7/de0/a00022.html" target="_top" xlink:title="Abstract superclass for all graphical objects. ">
<polygon fill="white" stroke="black" points="152.5,-135.5 152.5,-154.5 232.5,-154.5 232.5,-135.5 152.5,-135.5"/>
<text text-anchor="middle" x="192.5" y="-142.5" font-family="Helvetica,sans-Serif" font-size="10.00">mc::gfx::Entity</text>
</a>
</g>
</g>
<!-- Node3&#45;&gt;Node2 -->
<g id="edge2" class="edge"><title>Node3&#45;&gt;Node2</title>
<path fill="none" stroke="midnightblue" d="M202.953,-126.215C204.567,-123.186 206.146,-120.036 207.5,-117 212.772,-105.181 217.378,-90.9009 220.05,-82.0073"/>
<polygon fill="midnightblue" stroke="midnightblue" points="199.751,-124.769 197.903,-135.201 205.853,-128.198 199.751,-124.769"/>
</g>
<!-- Node5 -->
<g id="node5" class="node"><title>Node5</title>
<polygon fill="white" stroke="#bfbfbf" points="42,-57.5 42,-87.5 145,-87.5 145,-57.5 42,-57.5"/>
<text text-anchor="start" x="50" y="-75.5" font-family="Helvetica,sans-Serif" font-size="10.00">std::vector&lt; mc::gfx</text>
<text text-anchor="middle" x="93.5" y="-64.5" font-family="Helvetica,sans-Serif" font-size="10.00">::Entity * &gt;</text>
</g>
<!-- Node3&#45;&gt;Node5 -->
<g id="edge5" class="edge"><title>Node3&#45;&gt;Node5</title>
<path fill="none" stroke="#9a32cd" stroke-dasharray="5,2" d="M142.325,-141.753C124.84,-138.295 106.789,-131.173 95.5,-117 88.9998,-108.84 88.9265,-96.8365 90.2399,-87.505"/>
<polygon fill="#9a32cd" stroke="#9a32cd" points="142.07,-145.257 152.499,-143.39 143.182,-138.345 142.07,-145.257"/>
<text text-anchor="middle" x="117" y="-109" font-family="Helvetica,sans-Serif" font-size="10.00"> elements</text>
</g>
<!-- Node4 -->
<g id="node4" class="node"><title>Node4</title>
<g id="a_node4"><a xlink:href="../../d4/d8c/a00035.html" target="_top" xlink:title="mc::Initializable">
<polygon fill="white" stroke="black" points="263.5,-202.5 263.5,-221.5 347.5,-221.5 347.5,-202.5 263.5,-202.5"/>
<text text-anchor="middle" x="305.5" y="-209.5" font-family="Helvetica,sans-Serif" font-size="10.00">mc::Initializable</text>
</a>
</g>
</g>
<!-- Node4&#45;&gt;Node3 -->
<g id="edge3" class="edge"><title>Node4&#45;&gt;Node3</title>
<path fill="none" stroke="midnightblue" d="M290.222,-195.517C282.188,-187.996 271.872,-179.255 261.5,-173 248.832,-165.36 233.622,-159.136 220.709,-154.597"/>
<polygon fill="midnightblue" stroke="midnightblue" points="287.798,-198.042 297.412,-202.495 292.673,-193.019 287.798,-198.042"/>
</g>
<!-- Node5&#45;&gt;Node3 -->
<g id="edge4" class="edge"><title>Node5&#45;&gt;Node3</title>
<path fill="none" stroke="#9a32cd" stroke-dasharray="5,2" d="M124.32,-93.5063C130.394,-97.5712 136.685,-101.869 142.5,-106 156.187,-115.725 171.501,-127.501 181.531,-135.341"/>
<polygon fill="#9a32cd" stroke="#9a32cd" points="125.926,-90.3714 115.657,-87.7634 122.058,-96.2059 125.926,-90.3714"/>
<text text-anchor="middle" x="175" y="-109" font-family="Helvetica,sans-Serif" font-size="10.00"> children</text>
</g>
<!-- Node6 -->
<g id="node6" class="node"><title>Node6</title>
<g id="a_node6"><a xlink:title="STL class. ">
<polygon fill="white" stroke="#bfbfbf" points="0,-495.5 0,-514.5 85,-514.5 85,-495.5 0,-495.5"/>
<text text-anchor="middle" x="42.5" y="-502.5" font-family="Helvetica,sans-Serif" font-size="10.00">std::vector&lt; T &gt;</text>
</a>
</g>
</g>
<!-- Node6&#45;&gt;Node5 -->
<g id="edge6" class="edge"><title>Node6&#45;&gt;Node5</title>
<path fill="none" stroke="orange" stroke-dasharray="5,2" d="M42.5,-485.162C42.5,-466.662 42.5,-437.639 42.5,-412.5 42.5,-412.5 42.5,-412.5 42.5,-144 42.5,-121.038 60.4795,-100.49 75.0878,-87.5834"/>
<polygon fill="orange" stroke="orange" points="39.0001,-485.422 42.5,-495.422 46.0001,-485.422 39.0001,-485.422"/>
<text text-anchor="middle" x="88.5" y="-298.5" font-family="Helvetica,sans-Serif" font-size="10.00"> &lt; mc::gfx::Entity * &gt;</text>
</g>
<!-- Node7 -->
<g id="node7" class="node"><title>Node7</title>
<polygon fill="white" stroke="#bfbfbf" points="158,-612.5 158,-631.5 187,-631.5 187,-612.5 158,-612.5"/>
<text text-anchor="middle" x="172.5" y="-619.5" font-family="Helvetica,sans-Serif" font-size="10.00">T</text>
</g>
<!-- Node7&#45;&gt;Node6 -->
<g id="edge7" class="edge"><title>Node7&#45;&gt;Node6</title>
<path fill="none" stroke="#9a32cd" stroke-dasharray="5,2" d="M148.848,-609.193C141.094,-604.866 132.643,-599.636 125.5,-594 93.5155,-568.762 62.3423,-531.239 49.1188,-514.544"/>
<polygon fill="#9a32cd" stroke="#9a32cd" points="147.354,-612.363 157.823,-613.99 150.653,-606.19 147.354,-612.363"/>
<text text-anchor="middle" x="147" y="-586" font-family="Helvetica,sans-Serif" font-size="10.00"> elements</text>
</g>
<!-- Node11 -->
<g id="node11" class="node"><title>Node11</title>
<g id="a_node11"><a xlink:href="../../df/d5d/a00084.html" target="_top" xlink:title="1&#45;dimensional vector class that supports mathmatical operations. ">
<polygon fill="white" stroke="black" points="112,-534.5 112,-564.5 233,-564.5 233,-534.5 112,-534.5"/>
<text text-anchor="start" x="120" y="-552.5" font-family="Helvetica,sans-Serif" font-size="10.00">mc::VectorBase&lt; Child,</text>
<text text-anchor="middle" x="172.5" y="-541.5" font-family="Helvetica,sans-Serif" font-size="10.00"> T, N &gt;</text>
</a>
</g>
</g>
<!-- Node7&#45;&gt;Node11 -->
<g id="edge12" class="edge"><title>Node7&#45;&gt;Node11</title>
<path fill="none" stroke="#9a32cd" stroke-dasharray="5,2" d="M172.5,-602.236C172.5,-590.408 172.5,-575.383 172.5,-564.576"/>
<polygon fill="#9a32cd" stroke="#9a32cd" points="169,-602.355 172.5,-612.355 176,-602.355 169,-602.355"/>
<text text-anchor="middle" x="190.5" y="-586" font-family="Helvetica,sans-Serif" font-size="10.00"> content</text>
</g>
<!-- Node13 -->
<g id="node13" class="node"><title>Node13</title>
<g id="a_node13"><a xlink:href="../../df/d5d/a00084.html" target="_top" xlink:title="mc::VectorBase\&lt; Vector\l\&lt; T, N \&gt;, T, N \&gt;">
<polygon fill="white" stroke="black" points="150,-445.5 150,-475.5 275,-475.5 275,-445.5 150,-445.5"/>
<text text-anchor="start" x="158" y="-463.5" font-family="Helvetica,sans-Serif" font-size="10.00">mc::VectorBase&lt; Vector</text>
<text text-anchor="middle" x="212.5" y="-452.5" font-family="Helvetica,sans-Serif" font-size="10.00">&lt; T, N &gt;, T, N &gt;</text>
</a>
</g>
</g>
<!-- Node7&#45;&gt;Node13 -->
<g id="edge15" class="edge"><title>Node7&#45;&gt;Node13</title>
<path fill="none" stroke="#9a32cd" stroke-dasharray="5,2" d="M196.978,-611.455C230.761,-596.767 290.249,-565.073 314.5,-516 318.832,-507.234 320.27,-501.894 314.5,-494 305.068,-481.096 290.462,-473.194 275.223,-468.39"/>
<polygon fill="#9a32cd" stroke="#9a32cd" points="195.261,-608.38 187.387,-615.468 197.963,-614.837 195.261,-608.38"/>
<text text-anchor="middle" x="320.5" y="-547" font-family="Helvetica,sans-Serif" font-size="10.00"> content</text>
</g>
<!-- Node8 -->
<g id="node8" class="node"><title>Node8</title>
<g id="a_node8"><a xlink:href="../../db/db6/a00074.html" target="_top" xlink:title="Matrix&#45;based class that allows for the easy creation and management of transformation matrices...">
<polygon fill="white" stroke="black" points="139.5,-202.5 139.5,-221.5 245.5,-221.5 245.5,-202.5 139.5,-202.5"/>
<text text-anchor="middle" x="192.5" y="-209.5" font-family="Helvetica,sans-Serif" font-size="10.00">mc::TransformMatrix</text>
</a>
</g>
</g>
<!-- Node8&#45;&gt;Node3 -->
<g id="edge8" class="edge"><title>Node8&#45;&gt;Node3</title>
<path fill="none" stroke="#9a32cd" stroke-dasharray="5,2" d="M192.5,-192.037C192.5,-179.67 192.5,-164.12 192.5,-154.627"/>
<polygon fill="#9a32cd" stroke="#9a32cd" points="189,-192.234 192.5,-202.234 196,-192.234 189,-192.234"/>
<text text-anchor="middle" x="225" y="-176" font-family="Helvetica,sans-Serif" font-size="10.00"> transformation</text>
</g>
<!-- Node9 -->
<g id="node9" class="node"><title>Node9</title>
<g id="a_node9"><a xlink:href="../../db/df8/a00076.html" target="_top" xlink:title="mc::Vector\&lt; float, 3 \&gt;">
<polygon fill="white" stroke="black" points="152.5,-291.5 152.5,-310.5 264.5,-310.5 264.5,-291.5 152.5,-291.5"/>
<text text-anchor="middle" x="208.5" y="-298.5" font-family="Helvetica,sans-Serif" font-size="10.00">mc::Vector&lt; float, 3 &gt;</text>
</a>
</g>
</g>
<!-- Node9&#45;&gt;Node8 -->
<g id="edge9" class="edge"><title>Node9&#45;&gt;Node8</title>
<path fill="none" stroke="#9a32cd" stroke-dasharray="5,2" d="M205.089,-281.455C201.695,-262.996 196.634,-235.477 194.086,-221.625"/>
<polygon fill="#9a32cd" stroke="#9a32cd" points="201.656,-282.138 206.907,-291.34 208.541,-280.872 201.656,-282.138"/>
<text text-anchor="middle" x="226.5" y="-265" font-family="Helvetica,sans-Serif" font-size="10.00"> rotation</text>
<text text-anchor="middle" x="226.5" y="-254" font-family="Helvetica,sans-Serif" font-size="10.00">scaler</text>
<text text-anchor="middle" x="226.5" y="-243" font-family="Helvetica,sans-Serif" font-size="10.00">translation</text>
</g>
<!-- Node10 -->
<g id="node10" class="node"><title>Node10</title>
<g id="a_node10"><a xlink:href="../../df/d5d/a00084.html" target="_top" xlink:title="mc::VectorBase\&lt; Vector\l\&lt; float, N \&gt;, float, N \&gt;">
<polygon fill="white" stroke="black" points="61,-396.5 61,-426.5 186,-426.5 186,-396.5 61,-396.5"/>
<text text-anchor="start" x="69" y="-414.5" font-family="Helvetica,sans-Serif" font-size="10.00">mc::VectorBase&lt; Vector</text>
<text text-anchor="middle" x="123.5" y="-403.5" font-family="Helvetica,sans-Serif" font-size="10.00">&lt; float, N &gt;, float, N &gt;</text>
</a>
</g>
</g>
<!-- Node10&#45;&gt;Node9 -->
<g id="edge10" class="edge"><title>Node10&#45;&gt;Node9</title>
<path fill="none" stroke="midnightblue" d="M134.008,-387.2C138.751,-377.746 144.797,-366.964 151.5,-358 165.457,-339.336 185.644,-321.051 197.872,-310.686"/>
<polygon fill="midnightblue" stroke="midnightblue" points="130.744,-385.912 129.564,-396.44 137.052,-388.946 130.744,-385.912"/>
</g>
<!-- Node11&#45;&gt;Node10 -->
<g id="edge11" class="edge"><title>Node11&#45;&gt;Node10</title>
<path fill="none" stroke="orange" stroke-dasharray="5,2" d="M117.624,-528.975C112.865,-525.341 108.665,-521.054 105.5,-516 87.9764,-488.023 104.23,-447.869 115.258,-426.742"/>
<polygon fill="orange" stroke="orange" points="115.789,-531.957 126.076,-534.492 119.615,-526.095 115.789,-531.957"/>
<text text-anchor="start" x="105.5" y="-508" font-family="Helvetica,sans-Serif" font-size="10.00"> &lt; Vector&lt; float, N</text>
<text text-anchor="middle" x="146" y="-497" font-family="Helvetica,sans-Serif" font-size="10.00"> &gt;, float, N &gt;</text>
</g>
<!-- Node11&#45;&gt;Node13 -->
<g id="edge16" class="edge"><title>Node11&#45;&gt;Node13</title>
<path fill="none" stroke="orange" stroke-dasharray="5,2" d="M185.731,-525.424C187.396,-522.287 189.029,-519.086 190.5,-516 196.909,-502.552 203.163,-486.716 207.355,-475.591"/>
<polygon fill="orange" stroke="orange" points="182.515,-524.009 180.768,-534.459 188.65,-527.379 182.515,-524.009"/>
<text text-anchor="middle" x="255.5" y="-502.5" font-family="Helvetica,sans-Serif" font-size="10.00"> &lt; Vector&lt; T, N &gt;, T, N &gt;</text>
</g>
<!-- Node12 -->
<g id="node12" class="node"><title>Node12</title>
<g id="a_node12"><a xlink:href="../../db/df8/a00076.html" target="_top" xlink:title="mc::Vector\&lt; T, N \&gt;">
<polygon fill="white" stroke="black" points="161,-358.5 161,-377.5 262,-377.5 262,-358.5 161,-358.5"/>
<text text-anchor="middle" x="211.5" y="-365.5" font-family="Helvetica,sans-Serif" font-size="10.00">mc::Vector&lt; T, N &gt;</text>
</a>
</g>
</g>
<!-- Node12&#45;&gt;Node9 -->
<g id="edge13" class="edge"><title>Node12&#45;&gt;Node9</title>
<path fill="none" stroke="orange" stroke-dasharray="5,2" d="M210.625,-348.037C210.054,-335.67 209.336,-320.12 208.898,-310.627"/>
<polygon fill="orange" stroke="orange" points="207.138,-348.406 211.095,-358.234 214.131,-348.083 207.138,-348.406"/>
<text text-anchor="middle" x="236" y="-332" font-family="Helvetica,sans-Serif" font-size="10.00"> &lt; float, 3 &gt;</text>
</g>
<!-- Node13&#45;&gt;Node12 -->
<g id="edge14" class="edge"><title>Node13&#45;&gt;Node12</title>
<path fill="none" stroke="midnightblue" d="M212.232,-435.275C212.022,-416.198 211.74,-390.709 211.595,-377.596"/>
<polygon fill="midnightblue" stroke="midnightblue" points="208.733,-435.399 212.344,-445.359 215.733,-435.321 208.733,-435.399"/>
</g>
</g>
</svg>
