<?xml version="1.0" encoding="UTF-8" standalone="no"?>
<!DOCTYPE svg PUBLIC "-//W3C//DTD SVG 1.1//EN"
 "http://www.w3.org/Graphics/SVG/1.1/DTD/svg11.dtd">
<!-- Generated by graphviz version 2.38.0 (20140413.2041)
 -->
<!-- Title: mc::Initializable Pages: 1 -->
<svg width="741pt" height="598pt"
 viewBox="0.00 0.00 741.00 598.00" xmlns="http://www.w3.org/2000/svg" xmlns:xlink="http://www.w3.org/1999/xlink">
<g id="graph0" class="graph" transform="scale(1 1) rotate(0) translate(4 594)">
<title>mc::Initializable</title>
<polygon fill="white" stroke="none" points="-4,4 -4,-594 737,-594 737,4 -4,4"/>
<!-- Node1 -->
<g id="node1" class="node"><title>Node1</title>
<polygon fill="#bfbfbf" stroke="black" points="0,-266.5 0,-285.5 84,-285.5 84,-266.5 0,-266.5"/>
<text text-anchor="middle" x="42" y="-273.5" font-family="Helvetica,sans-Serif" font-size="10.00">mc::Initializable</text>
</g>
<!-- Node2 -->
<g id="node2" class="node"><title>Node2</title>
<g id="a_node2"><a xlink:href="../../dd/d1b/a00015.html" target="_top" xlink:title="Can be plugged into an Entity to allow for additional functionality by listening to events...">
<polygon fill="white" stroke="black" points="120,-513.5 120,-532.5 224,-532.5 224,-513.5 120,-513.5"/>
<text text-anchor="middle" x="172" y="-520.5" font-family="Helvetica,sans-Serif" font-size="10.00">mc::gfx::Component</text>
</a>
</g>
</g>
<!-- Node1&#45;&gt;Node2 -->
<g id="edge1" class="edge"><title>Node1&#45;&gt;Node2</title>
<path fill="none" stroke="midnightblue" d="M52.4146,-294.942C66.7843,-323.772 95.1434,-380.347 120,-428 136.362,-459.369 156.363,-496.2 165.711,-513.331"/>
<polygon fill="midnightblue" stroke="midnightblue" points="55.3755,-293.036 47.7858,-285.644 49.109,-296.156 55.3755,-293.036"/>
</g>
<!-- Node6 -->
<g id="node6" class="node"><title>Node6</title>
<g id="a_node6"><a xlink:href="../../db/db2/a00020.html" target="_top" xlink:title="Abstract superclass for all graphical objects. ">
<polygon fill="white" stroke="black" points="132,-399.5 132,-418.5 212,-418.5 212,-399.5 132,-399.5"/>
<text text-anchor="middle" x="172" y="-406.5" font-family="Helvetica,sans-Serif" font-size="10.00">mc::gfx::Entity</text>
</a>
</g>
</g>
<!-- Node1&#45;&gt;Node6 -->
<g id="edge5" class="edge"><title>Node1&#45;&gt;Node6</title>
<path fill="none" stroke="midnightblue" d="M59.4176,-293.059C86.5466,-321.248 139.884,-376.668 161.533,-399.163"/>
<polygon fill="midnightblue" stroke="midnightblue" points="61.6616,-290.343 52.2054,-285.565 56.618,-295.197 61.6616,-290.343"/>
</g>
<!-- Node16 -->
<g id="node16" class="node"><title>Node16</title>
<g id="a_node16"><a xlink:href="../../d3/de7/a00039.html" target="_top" xlink:title="Represents a OpenGL object in memory. ">
<polygon fill="white" stroke="black" points="121,-190.5 121,-209.5 223,-209.5 223,-190.5 121,-190.5"/>
<text text-anchor="middle" x="172" y="-197.5" font-family="Helvetica,sans-Serif" font-size="10.00">mc::gfx::ogl::Object</text>
</a>
</g>
</g>
<!-- Node1&#45;&gt;Node16 -->
<g id="edge15" class="edge"><title>Node1&#45;&gt;Node16</title>
<path fill="none" stroke="midnightblue" d="M68.0195,-261.145C93.7511,-245.867 133.062,-222.526 154.92,-209.547"/>
<polygon fill="midnightblue" stroke="midnightblue" points="66.0229,-258.26 59.2113,-266.375 69.5968,-264.279 66.0229,-258.26"/>
</g>
<!-- Node33 -->
<g id="node33" class="node"><title>Node33</title>
<g id="a_node33"><a xlink:href="../../d0/dc0/a00033.html" target="_top" xlink:title="mc::Initializer">
<polygon fill="white" stroke="black" points="135,-152.5 135,-171.5 209,-171.5 209,-152.5 135,-152.5"/>
<text text-anchor="middle" x="172" y="-159.5" font-family="Helvetica,sans-Serif" font-size="10.00">mc::Initializer</text>
</a>
</g>
</g>
<!-- Node1&#45;&gt;Node33 -->
<g id="edge32" class="edge"><title>Node1&#45;&gt;Node33</title>
<path fill="none" stroke="midnightblue" d="M53.7184,-257.508C66.8594,-236.319 90.9964,-201.844 120,-181 125.294,-177.195 131.439,-174.061 137.592,-171.513"/>
<polygon fill="midnightblue" stroke="midnightblue" points="50.6374,-255.84 48.4764,-266.212 56.6339,-259.451 50.6374,-255.84"/>
</g>
<!-- Node34 -->
<g id="node34" class="node"><title>Node34</title>
<g id="a_node34"><a xlink:href="../../d8/d41/a00038.html" target="_top" xlink:title="Abstract class used for doing a task in MACE. ">
<polygon fill="white" stroke="black" points="138,-323.5 138,-342.5 206,-342.5 206,-323.5 138,-323.5"/>
<text text-anchor="middle" x="172" y="-330.5" font-family="Helvetica,sans-Serif" font-size="10.00">mc::Module</text>
</a>
</g>
</g>
<!-- Node1&#45;&gt;Node34 -->
<g id="edge33" class="edge"><title>Node1&#45;&gt;Node34</title>
<path fill="none" stroke="midnightblue" d="M73.581,-289.618C96.9991,-300.046 128.714,-314.17 149.506,-323.428"/>
<polygon fill="midnightblue" stroke="midnightblue" points="74.9833,-286.411 64.4243,-285.541 72.1357,-292.806 74.9833,-286.411"/>
</g>
<!-- Node37 -->
<g id="node37" class="node"><title>Node37</title>
<g id="a_node37"><a xlink:href="../../db/db6/a00074.html" target="_top" xlink:title="mc::Sound">
<polygon fill="white" stroke="black" points="140,-114.5 140,-133.5 204,-133.5 204,-114.5 140,-114.5"/>
<text text-anchor="middle" x="172" y="-121.5" font-family="Helvetica,sans-Serif" font-size="10.00">mc::Sound</text>
</a>
</g>
</g>
<!-- Node1&#45;&gt;Node37 -->
<g id="edge37" class="edge"><title>Node1&#45;&gt;Node37</title>
<path fill="none" stroke="midnightblue" d="M49.3205,-256.834C59.6908,-228.204 82.9464,-174.293 120,-143 125.703,-138.184 132.743,-134.531 139.751,-131.782"/>
<polygon fill="midnightblue" stroke="midnightblue" points="45.9487,-255.875 45.975,-266.469 52.5615,-258.171 45.9487,-255.875"/>
</g>
<!-- Node3 -->
<g id="node3" class="node"><title>Node3</title>
<g id="a_node3"><a xlink:href="../../de/d5e/a00007.html" target="_top" xlink:title="mc::gfx::AlignmentComponent">
<polygon fill="white" stroke="black" points="260,-570.5 260,-589.5 408,-589.5 408,-570.5 260,-570.5"/>
<text text-anchor="middle" x="334" y="-577.5" font-family="Helvetica,sans-Serif" font-size="10.00">mc::gfx::AlignmentComponent</text>
</a>
</g>
</g>
<!-- Node2&#45;&gt;Node3 -->
<g id="edge2" class="edge"><title>Node2&#45;&gt;Node3</title>
<path fill="none" stroke="midnightblue" d="M201.917,-536.996C218.632,-544.739 240.209,-554.15 260,-561 270.148,-564.512 281.285,-567.724 291.736,-570.467"/>
<polygon fill="midnightblue" stroke="midnightblue" points="203.227,-533.744 192.687,-532.662 200.251,-540.08 203.227,-533.744"/>
</g>
<!-- Node4 -->
<g id="node4" class="node"><title>Node4</title>
<g id="a_node4"><a xlink:href="../../df/d86/a00012.html" target="_top" xlink:title="mc::gfx::CallbackComponent">
<polygon fill="white" stroke="black" points="263,-532.5 263,-551.5 405,-551.5 405,-532.5 263,-532.5"/>
<text text-anchor="middle" x="334" y="-539.5" font-family="Helvetica,sans-Serif" font-size="10.00">mc::gfx::CallbackComponent</text>
</a>
</g>
</g>
<!-- Node2&#45;&gt;Node4 -->
<g id="edge3" class="edge"><title>Node2&#45;&gt;Node4</title>
<path fill="none" stroke="midnightblue" d="M234.102,-530.256C243.51,-531.373 253.288,-532.534 262.874,-533.672"/>
<polygon fill="midnightblue" stroke="midnightblue" points="234.408,-526.768 224.065,-529.064 233.582,-533.719 234.408,-526.768"/>
</g>
<!-- Node5 -->
<g id="node5" class="node"><title>Node5</title>
<g id="a_node5"><a xlink:href="../../dc/de2/a00024.html" target="_top" xlink:title="mc::gfx::FPSComponent">
<polygon fill="white" stroke="black" points="272,-494.5 272,-513.5 396,-513.5 396,-494.5 272,-494.5"/>
<text text-anchor="middle" x="334" y="-501.5" font-family="Helvetica,sans-Serif" font-size="10.00">mc::gfx::FPSComponent</text>
</a>
</g>
</g>
<!-- Node2&#45;&gt;Node5 -->
<g id="edge4" class="edge"><title>Node2&#45;&gt;Node5</title>
<path fill="none" stroke="midnightblue" d="M234.231,-515.729C246.542,-514.267 259.482,-512.73 271.792,-511.268"/>
<polygon fill="midnightblue" stroke="midnightblue" points="233.582,-512.281 224.065,-516.936 234.408,-519.232 233.582,-512.281"/>
</g>
<!-- Node7 -->
<g id="node7" class="node"><title>Node7</title>
<g id="a_node7"><a xlink:href="../../d6/d5b/a00026.html" target="_top" xlink:title="mc::gfx::GraphicsEntity">
<polygon fill="white" stroke="black" points="274.5,-456.5 274.5,-475.5 393.5,-475.5 393.5,-456.5 274.5,-456.5"/>
<text text-anchor="middle" x="334" y="-463.5" font-family="Helvetica,sans-Serif" font-size="10.00">mc::gfx::GraphicsEntity</text>
</a>
</g>
</g>
<!-- Node6&#45;&gt;Node7 -->
<g id="edge6" class="edge"><title>Node6&#45;&gt;Node7</title>
<path fill="none" stroke="midnightblue" d="M201.917,-422.996C218.632,-430.739 240.209,-440.15 260,-447 270.148,-450.512 281.285,-453.724 291.736,-456.467"/>
<polygon fill="midnightblue" stroke="midnightblue" points="203.227,-419.744 192.687,-418.662 200.251,-426.08 203.227,-419.744"/>
</g>
<!-- Node14 -->
<g id="node14" class="node"><title>Node14</title>
<g id="a_node14"><a xlink:href="../../d0/d33/a00027.html" target="_top" xlink:title="mc::gfx::Group">
<polygon fill="white" stroke="black" points="293.5,-418.5 293.5,-437.5 374.5,-437.5 374.5,-418.5 293.5,-418.5"/>
<text text-anchor="middle" x="334" y="-425.5" font-family="Helvetica,sans-Serif" font-size="10.00">mc::gfx::Group</text>
</a>
</g>
</g>
<!-- Node6&#45;&gt;Node14 -->
<g id="edge13" class="edge"><title>Node6&#45;&gt;Node14</title>
<path fill="none" stroke="midnightblue" d="M222.325,-414.857C245.167,-417.57 271.939,-420.749 293.431,-423.301"/>
<polygon fill="midnightblue" stroke="midnightblue" points="222.483,-411.352 212.14,-413.648 221.658,-418.303 222.483,-411.352"/>
</g>
<!-- Node15 -->
<g id="node15" class="node"><title>Node15</title>
<g id="a_node15"><a xlink:href="../../d9/dec/a00090.html" target="_top" xlink:title="mc::os::WindowModule">
<polygon fill="white" stroke="black" points="274.5,-380.5 274.5,-399.5 393.5,-399.5 393.5,-380.5 274.5,-380.5"/>
<text text-anchor="middle" x="334" y="-387.5" font-family="Helvetica,sans-Serif" font-size="10.00">mc::os::WindowModule</text>
</a>
</g>
</g>
<!-- Node6&#45;&gt;Node15 -->
<g id="edge14" class="edge"><title>Node6&#45;&gt;Node15</title>
<path fill="none" stroke="midnightblue" d="M222.106,-403.169C238.59,-401.211 257.141,-399.008 274.286,-396.972"/>
<polygon fill="midnightblue" stroke="midnightblue" points="221.658,-399.697 212.14,-404.352 222.483,-406.648 221.658,-399.697"/>
</g>
<!-- Node8 -->
<g id="node8" class="node"><title>Node8</title>
<g id="a_node8"><a xlink:href="../../de/d11/a00021.html" target="_top" xlink:title="mc::gfx::Entity2D">
<polygon fill="white" stroke="black" points="470,-456.5 470,-475.5 562,-475.5 562,-456.5 470,-456.5"/>
<text text-anchor="middle" x="516" y="-463.5" font-family="Helvetica,sans-Serif" font-size="10.00">mc::gfx::Entity2D</text>
</a>
</g>
</g>
<!-- Node7&#45;&gt;Node8 -->
<g id="edge7" class="edge"><title>Node7&#45;&gt;Node8</title>
<path fill="none" stroke="midnightblue" d="M403.952,-466C426.065,-466 449.974,-466 469.923,-466"/>
<polygon fill="midnightblue" stroke="midnightblue" points="403.939,-462.5 393.939,-466 403.939,-469.5 403.939,-462.5"/>
</g>
<!-- Node9 -->
<g id="node9" class="node"><title>Node9</title>
<g id="a_node9"><a xlink:href="../../da/d45/a00011.html" target="_top" xlink:title="mc::gfx::Button">
<polygon fill="white" stroke="black" points="637,-532.5 637,-551.5 720,-551.5 720,-532.5 637,-532.5"/>
<text text-anchor="middle" x="678.5" y="-539.5" font-family="Helvetica,sans-Serif" font-size="10.00">mc::gfx::Button</text>
</a>
</g>
</g>
<!-- Node8&#45;&gt;Node9 -->
<g id="edge8" class="edge"><title>Node8&#45;&gt;Node9</title>
<path fill="none" stroke="midnightblue" d="M542.058,-480.714C563.415,-492.92 595.146,-510.275 624,-523 631.666,-526.381 640.139,-529.611 648.038,-532.418"/>
<polygon fill="midnightblue" stroke="midnightblue" points="543.713,-477.628 533.302,-475.665 540.216,-483.692 543.713,-477.628"/>
</g>
<!-- Node10 -->
<g id="node10" class="node"><title>Node10</title>
<g id="a_node10"><a xlink:href="../../dc/d3c/a00028.html" target="_top" xlink:title="mc::gfx::Image">
<polygon fill="white" stroke="black" points="638,-494.5 638,-513.5 719,-513.5 719,-494.5 638,-494.5"/>
<text text-anchor="middle" x="678.5" y="-501.5" font-family="Helvetica,sans-Serif" font-size="10.00">mc::gfx::Image</text>
</a>
</g>
</g>
<!-- Node8&#45;&gt;Node10 -->
<g id="edge9" class="edge"><title>Node8&#45;&gt;Node10</title>
<path fill="none" stroke="midnightblue" d="M567.321,-477.914C590.061,-483.298 616.543,-489.568 637.845,-494.611"/>
<polygon fill="midnightblue" stroke="midnightblue" points="568.038,-474.487 557.501,-475.589 566.426,-481.299 568.038,-474.487"/>
</g>
<!-- Node11 -->
<g id="node11" class="node"><title>Node11</title>
<g id="a_node11"><a xlink:href="../../d4/d8c/a00035.html" target="_top" xlink:title="mc::gfx::Letter">
<polygon fill="white" stroke="black" points="638.5,-456.5 638.5,-475.5 718.5,-475.5 718.5,-456.5 638.5,-456.5"/>
<text text-anchor="middle" x="678.5" y="-463.5" font-family="Helvetica,sans-Serif" font-size="10.00">mc::gfx::Letter</text>
</a>
</g>
</g>
<!-- Node8&#45;&gt;Node11 -->
<g id="edge10" class="edge"><title>Node8&#45;&gt;Node11</title>
<path fill="none" stroke="midnightblue" d="M572.249,-466C594.029,-466 618.538,-466 638.422,-466"/>
<polygon fill="midnightblue" stroke="midnightblue" points="572.135,-462.5 562.135,-466 572.135,-469.5 572.135,-462.5"/>
</g>
<!-- Node12 -->
<g id="node12" class="node"><title>Node12</title>
<g id="a_node12"><a xlink:href="../../d5/df9/a00044.html" target="_top" xlink:title="mc::gfx::ProgressBar">
<polygon fill="white" stroke="black" points="624,-418.5 624,-437.5 733,-437.5 733,-418.5 624,-418.5"/>
<text text-anchor="middle" x="678.5" y="-425.5" font-family="Helvetica,sans-Serif" font-size="10.00">mc::gfx::ProgressBar</text>
</a>
</g>
</g>
<!-- Node8&#45;&gt;Node12 -->
<g id="edge11" class="edge"><title>Node8&#45;&gt;Node12</title>
<path fill="none" stroke="midnightblue" d="M567.245,-454.104C589.805,-448.763 616.061,-442.546 637.29,-437.52"/>
<polygon fill="midnightblue" stroke="midnightblue" points="566.426,-450.701 557.501,-456.411 568.038,-457.513 566.426,-450.701"/>
</g>
<!-- Node13 -->
<g id="node13" class="node"><title>Node13</title>
<g id="a_node13"><a xlink:href="../../d9/da5/a00075.html" target="_top" xlink:title="mc::gfx::Text">
<polygon fill="white" stroke="black" points="641.5,-380.5 641.5,-399.5 715.5,-399.5 715.5,-380.5 641.5,-380.5"/>
<text text-anchor="middle" x="678.5" y="-387.5" font-family="Helvetica,sans-Serif" font-size="10.00">mc::gfx::Text</text>
</a>
</g>
</g>
<!-- Node8&#45;&gt;Node13 -->
<g id="edge12" class="edge"><title>Node8&#45;&gt;Node13</title>
<path fill="none" stroke="midnightblue" d="M542.058,-451.286C563.415,-439.08 595.146,-421.725 624,-409 631.666,-405.619 640.139,-402.389 648.038,-399.582"/>
<polygon fill="midnightblue" stroke="midnightblue" points="540.216,-448.308 533.302,-456.335 543.713,-454.372 540.216,-448.308"/>
</g>
<!-- Node17 -->
<g id="node17" class="node"><title>Node17</title>
<g id="a_node17"><a xlink:href="../../d7/dec/a00010.html" target="_top" xlink:title="Represents a sslBuffer of memory in the GPU. ">
<polygon fill="white" stroke="black" points="285,-266.5 285,-285.5 383,-285.5 383,-266.5 285,-266.5"/>
<text text-anchor="middle" x="334" y="-273.5" font-family="Helvetica,sans-Serif" font-size="10.00">mc::gfx::ogl::Buffer</text>
</a>
</g>
</g>
<!-- Node16&#45;&gt;Node17 -->
<g id="edge16" class="edge"><title>Node16&#45;&gt;Node17</title>
<path fill="none" stroke="midnightblue" d="M192.992,-215.828C209.959,-228.569 235.4,-246.093 260,-257 268.5,-260.769 277.9,-263.908 287.048,-266.478"/>
<polygon fill="midnightblue" stroke="midnightblue" points="195.009,-212.964 184.942,-209.662 190.752,-218.521 195.009,-212.964"/>
</g>
<!-- Node25 -->
<g id="node25" class="node"><title>Node25</title>
<g id="a_node25"><a xlink:href="../../d3/dfe/a00025.html" target="_top" xlink:title="Represents an OpenGL Framebuffer Object which allows rendering to a non&#45;screen location. ">
<polygon fill="white" stroke="black" points="271,-228.5 271,-247.5 397,-247.5 397,-228.5 271,-228.5"/>
<text text-anchor="middle" x="334" y="-235.5" font-family="Helvetica,sans-Serif" font-size="10.00">mc::gfx::ogl::FrameBuffer</text>
</a>
</g>
</g>
<!-- Node16&#45;&gt;Node25 -->
<g id="edge24" class="edge"><title>Node16&#45;&gt;Node25</title>
<path fill="none" stroke="midnightblue" d="M223.392,-211.968C245.813,-217.293 271.847,-223.476 292.916,-228.48"/>
<polygon fill="midnightblue" stroke="midnightblue" points="223.913,-208.495 213.375,-209.589 222.295,-215.305 223.913,-208.495"/>
</g>
<!-- Node26 -->
<g id="node26" class="node"><title>Node26</title>
<g id="a_node26"><a xlink:href="../../d6/d97/a00045.html" target="_top" xlink:title="Special object that is used for asynchronous queries of information from the GPU. ...">
<polygon fill="white" stroke="black" points="270,-190.5 270,-209.5 398,-209.5 398,-190.5 270,-190.5"/>
<text text-anchor="middle" x="334" y="-197.5" font-family="Helvetica,sans-Serif" font-size="10.00">mc::gfx::ogl::QueryObject</text>
</a>
</g>
</g>
<!-- Node16&#45;&gt;Node26 -->
<g id="edge25" class="edge"><title>Node16&#45;&gt;Node26</title>
<path fill="none" stroke="midnightblue" d="M233.429,-200C245.298,-200 257.778,-200 269.736,-200"/>
<polygon fill="midnightblue" stroke="midnightblue" points="233.186,-196.5 223.186,-200 233.186,-203.5 233.186,-196.5"/>
</g>
<!-- Node27 -->
<g id="node27" class="node"><title>Node27</title>
<g id="a_node27"><a xlink:href="../../d3/dea/a00046.html" target="_top" xlink:title="Represents a render buffer for use with a `FrameBuffer. ">
<polygon fill="white" stroke="black" points="269.5,-152.5 269.5,-171.5 398.5,-171.5 398.5,-152.5 269.5,-152.5"/>
<text text-anchor="middle" x="334" y="-159.5" font-family="Helvetica,sans-Serif" font-size="10.00">mc::gfx::ogl::RenderBuffer</text>
</a>
</g>
</g>
<!-- Node16&#45;&gt;Node27 -->
<g id="edge26" class="edge"><title>Node16&#45;&gt;Node27</title>
<path fill="none" stroke="midnightblue" d="M223.392,-188.032C245.813,-182.707 271.847,-176.524 292.916,-171.52"/>
<polygon fill="midnightblue" stroke="midnightblue" points="222.295,-184.695 213.375,-190.411 223.913,-191.505 222.295,-184.695"/>
</g>
<!-- Node28 -->
<g id="node28" class="node"><title>Node28</title>
<g id="a_node28"><a xlink:href="../../d9/d2e/a00056.html" target="_top" xlink:title="Represents a shader object in OpenGL. ">
<polygon fill="white" stroke="black" points="282,-114.5 282,-133.5 386,-133.5 386,-114.5 282,-114.5"/>
<text text-anchor="middle" x="334" y="-121.5" font-family="Helvetica,sans-Serif" font-size="10.00">mc::gfx::ogl::Shader</text>
</a>
</g>
</g>
<!-- Node16&#45;&gt;Node28 -->
<g id="edge27" class="edge"><title>Node16&#45;&gt;Node28</title>
<path fill="none" stroke="midnightblue" d="M214.678,-186.328C217.925,-184.709 221.075,-182.936 224,-181 243.402,-168.163 239.969,-154.832 260,-143 266.653,-139.071 274.116,-135.943 281.664,-133.457"/>
<polygon fill="midnightblue" stroke="midnightblue" points="213.078,-183.209 205.374,-190.481 215.932,-189.601 213.078,-183.209"/>
</g>
<!-- Node29 -->
<g id="node29" class="node"><title>Node29</title>
<g id="a_node29"><a xlink:href="../../d1/d22/a00057.html" target="_top" xlink:title="mc::gfx::ogl::ShaderProgram">
<polygon fill="white" stroke="black" points="263.5,-76.5 263.5,-95.5 404.5,-95.5 404.5,-76.5 263.5,-76.5"/>
<text text-anchor="middle" x="334" y="-83.5" font-family="Helvetica,sans-Serif" font-size="10.00">mc::gfx::ogl::ShaderProgram</text>
</a>
</g>
</g>
<!-- Node16&#45;&gt;Node29 -->
<g id="edge28" class="edge"><title>Node16&#45;&gt;Node29</title>
<path fill="none" stroke="midnightblue" d="M218.534,-185.308C220.467,-183.99 222.303,-182.557 224,-181 251.537,-155.729 231.21,-128.835 260,-105 264.64,-101.158 269.97,-98.0839 275.591,-95.6248"/>
<polygon fill="midnightblue" stroke="midnightblue" points="216.544,-182.413 209.563,-190.383 219.991,-188.505 216.544,-182.413"/>
</g>
<!-- Node30 -->
<g id="node30" class="node"><title>Node30</title>
<g id="a_node30"><a xlink:href="../../db/df8/a00076.html" target="_top" xlink:title="mc::gfx::ogl::Texture2D">
<polygon fill="white" stroke="black" points="275,-38.5 275,-57.5 393,-57.5 393,-38.5 275,-38.5"/>
<text text-anchor="middle" x="334" y="-45.5" font-family="Helvetica,sans-Serif" font-size="10.00">mc::gfx::ogl::Texture2D</text>
</a>
</g>
</g>
<!-- Node16&#45;&gt;Node30 -->
<g id="edge29" class="edge"><title>Node16&#45;&gt;Node30</title>
<path fill="none" stroke="midnightblue" d="M219.486,-185.064C221.094,-183.816 222.609,-182.464 224,-181 260.605,-142.488 221.479,-103.596 260,-67 264.272,-62.9411 269.299,-59.722 274.681,-57.173"/>
<polygon fill="midnightblue" stroke="midnightblue" points="217.44,-182.216 210.815,-190.483 221.15,-188.152 217.44,-182.216"/>
</g>
<!-- Node32 -->
<g id="node32" class="node"><title>Node32</title>
<g id="a_node32"><a xlink:href="../../db/ddf/a00088.html" target="_top" xlink:title="mc::gfx::ogl::VertexArray">
<polygon fill="white" stroke="black" points="271.5,-0.5 271.5,-19.5 396.5,-19.5 396.5,-0.5 271.5,-0.5"/>
<text text-anchor="middle" x="334" y="-7.5" font-family="Helvetica,sans-Serif" font-size="10.00">mc::gfx::ogl::VertexArray</text>
</a>
</g>
</g>
<!-- Node16&#45;&gt;Node32 -->
<g id="edge31" class="edge"><title>Node16&#45;&gt;Node32</title>
<path fill="none" stroke="midnightblue" d="M220.164,-184.741C221.532,-183.584 222.818,-182.339 224,-181 269.953,-128.961 211.454,-78.6292 260,-29 263.755,-25.1617 268.179,-22.0655 272.962,-19.5721"/>
<polygon fill="midnightblue" stroke="midnightblue" points="217.967,-181.999 211.588,-190.458 221.85,-187.824 217.967,-181.999"/>
</g>
<!-- Node18 -->
<g id="node18" class="node"><title>Node18</title>
<g id="a_node18"><a xlink:href="../../d7/d7a/a00016.html" target="_top" xlink:title="Special sslBuffer with no extra semantics to be used as a proxy in copying. ">
<polygon fill="white" stroke="black" points="444.5,-380.5 444.5,-399.5 587.5,-399.5 587.5,-380.5 444.5,-380.5"/>
<text text-anchor="middle" x="516" y="-387.5" font-family="Helvetica,sans-Serif" font-size="10.00">mc::gfx::ogl::CopyReadBuffer</text>
</a>
</g>
</g>
<!-- Node17&#45;&gt;Node18 -->
<g id="edge17" class="edge"><title>Node17&#45;&gt;Node18</title>
<path fill="none" stroke="midnightblue" d="M392.598,-285.708C398.15,-288.153 403.412,-291.201 408,-295 436.79,-318.835 415.292,-347.067 444,-371 448.606,-374.84 453.915,-377.911 459.512,-380.365"/>
<polygon fill="midnightblue" stroke="midnightblue" points="393.641,-282.361 383.048,-282.137 391.189,-288.918 393.641,-282.361"/>
</g>
<!-- Node19 -->
<g id="node19" class="node"><title>Node19</title>
<g id="a_node19"><a xlink:href="../../d4/d51/a00017.html" target="_top" xlink:title="Special sslBuffer with no extra semantics to be used as a proxy in copying. ">
<polygon fill="white" stroke="black" points="444,-342.5 444,-361.5 588,-361.5 588,-342.5 444,-342.5"/>
<text text-anchor="middle" x="516" y="-349.5" font-family="Helvetica,sans-Serif" font-size="10.00">mc::gfx::ogl::CopyWriteBuffer</text>
</a>
</g>
</g>
<!-- Node17&#45;&gt;Node19 -->
<g id="edge18" class="edge"><title>Node17&#45;&gt;Node19</title>
<path fill="none" stroke="midnightblue" d="M392.869,-287.788C398.148,-289.826 403.278,-292.211 408,-295 428.031,-306.832 424.009,-321.1 444,-333 450.469,-336.851 457.727,-339.936 465.068,-342.404"/>
<polygon fill="midnightblue" stroke="midnightblue" points="393.858,-284.427 383.263,-284.48 391.579,-291.045 393.858,-284.427"/>
</g>
<!-- Node20 -->
<g id="node20" class="node"><title>Node20</title>
<g id="a_node20"><a xlink:href="../../dd/da2/a00019.html" target="_top" xlink:title="Stores element indices to save vertex data. ">
<polygon fill="white" stroke="black" points="449,-304.5 449,-323.5 583,-323.5 583,-304.5 449,-304.5"/>
<text text-anchor="middle" x="516" y="-311.5" font-family="Helvetica,sans-Serif" font-size="10.00">mc::gfx::ogl::ElementBuffer</text>
</a>
</g>
</g>
<!-- Node17&#45;&gt;Node20 -->
<g id="edge19" class="edge"><title>Node17&#45;&gt;Node20</title>
<path fill="none" stroke="midnightblue" d="M390.331,-287.681C415.857,-293.07 445.776,-299.386 469.905,-304.48"/>
<polygon fill="midnightblue" stroke="midnightblue" points="390.929,-284.23 380.422,-285.589 389.483,-291.079 390.929,-284.23"/>
</g>
<!-- Node21 -->
<g id="node21" class="node"><title>Node21</title>
<g id="a_node21"><a xlink:href="../../db/d3a/a00040.html" target="_top" xlink:title="Special sslBuffer that excels at asynchronous pixel transfer operations. ">
<polygon fill="white" stroke="black" points="444.5,-266.5 444.5,-285.5 587.5,-285.5 587.5,-266.5 444.5,-266.5"/>
<text text-anchor="middle" x="516" y="-273.5" font-family="Helvetica,sans-Serif" font-size="10.00">mc::gfx::ogl::PixelPackBuffer</text>
</a>
</g>
</g>
<!-- Node17&#45;&gt;Node21 -->
<g id="edge20" class="edge"><title>Node17&#45;&gt;Node21</title>
<path fill="none" stroke="midnightblue" d="M393.616,-276C409.789,-276 427.507,-276 444.287,-276"/>
<polygon fill="midnightblue" stroke="midnightblue" points="393.237,-272.5 383.237,-276 393.237,-279.5 393.237,-272.5"/>
</g>
<!-- Node22 -->
<g id="node22" class="node"><title>Node22</title>
<g id="a_node22"><a xlink:href="../../dd/d32/a00041.html" target="_top" xlink:title="Special sslBuffer that excels at asynchronous pixel transfer operations. ">
<polygon fill="white" stroke="black" points="452,-217 452,-247 580,-247 580,-217 452,-217"/>
<text text-anchor="start" x="460" y="-235" font-family="Helvetica,sans-Serif" font-size="10.00">mc::gfx::ogl::PixelUnpack</text>
<text text-anchor="middle" x="516" y="-224" font-family="Helvetica,sans-Serif" font-size="10.00">Buffer</text>
</a>
</g>
</g>
<!-- Node17&#45;&gt;Node22 -->
<g id="edge21" class="edge"><title>Node17&#45;&gt;Node22</title>
<path fill="none" stroke="midnightblue" d="M383.907,-264.045C405.319,-258.811 430.683,-252.611 453.369,-247.065"/>
<polygon fill="midnightblue" stroke="midnightblue" points="382.94,-260.678 374.057,-266.453 384.602,-267.478 382.94,-260.678"/>
</g>
<!-- Node23 -->
<g id="node23" class="node"><title>Node23</title>
<g id="a_node23"><a xlink:href="../../d9/da4/a00078.html" target="_top" xlink:title="Stores uniform data for a shader in the form of a sslBuffer. ">
<polygon fill="white" stroke="black" points="450.5,-178.5 450.5,-197.5 581.5,-197.5 581.5,-178.5 450.5,-178.5"/>
<text text-anchor="middle" x="516" y="-185.5" font-family="Helvetica,sans-Serif" font-size="10.00">mc::gfx::ogl::UniformBuffer</text>
</a>
</g>
</g>
<!-- Node17&#45;&gt;Node23 -->
<g id="edge22" class="edge"><title>Node17&#45;&gt;Node23</title>
<path fill="none" stroke="midnightblue" d="M392.819,-265.058C398.18,-262.848 403.341,-260.192 408,-257 430.589,-241.523 421.464,-222.555 444,-207 449.671,-203.086 456.108,-199.978 462.737,-197.51"/>
<polygon fill="midnightblue" stroke="midnightblue" points="391.248,-261.902 383.017,-268.573 393.611,-268.492 391.248,-261.902"/>
</g>
<!-- Node24 -->
<g id="node24" class="node"><title>Node24</title>
<g id="a_node24"><a xlink:href="../../db/dab/a00089.html" target="_top" xlink:title="Stores vertex data for a `VertexArray. ">
<polygon fill="white" stroke="black" points="452.5,-140.5 452.5,-159.5 579.5,-159.5 579.5,-140.5 452.5,-140.5"/>
<text text-anchor="middle" x="516" y="-147.5" font-family="Helvetica,sans-Serif" font-size="10.00">mc::gfx::ogl::VertexBuffer</text>
</a>
</g>
</g>
<!-- Node17&#45;&gt;Node24 -->
<g id="edge23" class="edge"><title>Node17&#45;&gt;Node24</title>
<path fill="none" stroke="midnightblue" d="M392.809,-266.541C398.321,-264.049 403.516,-260.921 408,-257 439.81,-229.182 412.286,-196.927 444,-169 448.405,-165.121 453.52,-162.022 458.946,-159.549"/>
<polygon fill="midnightblue" stroke="midnightblue" points="391.402,-263.332 383.304,-270.163 393.894,-269.873 391.402,-263.332"/>
</g>
<!-- Node31 -->
<g id="node31" class="node"><title>Node31</title>
<g id="a_node31"><a xlink:href="../../d2/de7/a00014.html" target="_top" xlink:title="mc::gfx::ColorAttachment">
<polygon fill="white" stroke="black" points="452,-38.5 452,-57.5 580,-57.5 580,-38.5 452,-38.5"/>
<text text-anchor="middle" x="516" y="-45.5" font-family="Helvetica,sans-Serif" font-size="10.00">mc::gfx::ColorAttachment</text>
</a>
</g>
</g>
<!-- Node30&#45;&gt;Node31 -->
<g id="edge30" class="edge"><title>Node30&#45;&gt;Node31</title>
<path fill="none" stroke="midnightblue" d="M403.691,-48C419.528,-48 436.299,-48 451.885,-48"/>
<polygon fill="midnightblue" stroke="midnightblue" points="403.441,-44.5001 393.441,-48 403.441,-51.5001 403.441,-44.5001"/>
</g>
<!-- Node34&#45;&gt;Node15 -->
<g id="edge36" class="edge"><title>Node34&#45;&gt;Node15</title>
<path fill="none" stroke="midnightblue" d="M201.917,-346.996C218.632,-354.739 240.209,-364.15 260,-371 270.148,-374.512 281.285,-377.724 291.736,-380.467"/>
<polygon fill="midnightblue" stroke="midnightblue" points="203.227,-343.744 192.687,-342.662 200.251,-350.08 203.227,-343.744"/>
</g>
<!-- Node35 -->
<g id="node35" class="node"><title>Node35</title>
<g id="a_node35"><a xlink:href="../../d4/dee/a00008.html" target="_top" xlink:title="mc::AudioModule">
<polygon fill="white" stroke="black" points="288,-342.5 288,-361.5 380,-361.5 380,-342.5 288,-342.5"/>
<text text-anchor="middle" x="334" y="-349.5" font-family="Helvetica,sans-Serif" font-size="10.00">mc::AudioModule</text>
</a>
</g>
</g>
<!-- Node34&#45;&gt;Node35 -->
<g id="edge34" class="edge"><title>Node34&#45;&gt;Node35</title>
<path fill="none" stroke="midnightblue" d="M216.273,-338.139C238.411,-340.768 265.342,-343.966 287.755,-346.627"/>
<polygon fill="midnightblue" stroke="midnightblue" points="216.495,-334.641 206.152,-336.937 215.67,-341.592 216.495,-334.641"/>
</g>
<!-- Node36 -->
<g id="node36" class="node"><title>Node36</title>
<g id="a_node36"><a xlink:href="../../d9/db3/a00066.html" target="_top" xlink:title="mc::os::SignalModule">
<polygon fill="white" stroke="black" points="278.5,-304.5 278.5,-323.5 389.5,-323.5 389.5,-304.5 278.5,-304.5"/>
<text text-anchor="middle" x="334" y="-311.5" font-family="Helvetica,sans-Serif" font-size="10.00">mc::os::SignalModule</text>
</a>
</g>
</g>
<!-- Node34&#45;&gt;Node36 -->
<g id="edge35" class="edge"><title>Node34&#45;&gt;Node36</title>
<path fill="none" stroke="midnightblue" d="M216.112,-327.88C235.302,-325.602 258.117,-322.892 278.475,-320.475"/>
<polygon fill="midnightblue" stroke="midnightblue" points="215.67,-324.408 206.152,-329.063 216.495,-331.359 215.67,-324.408"/>
</g>
</g>
</svg>
