<?xml version="1.0" encoding="UTF-8" standalone="no"?>
<!DOCTYPE svg PUBLIC "-//W3C//DTD SVG 1.1//EN"
 "http://www.w3.org/Graphics/SVG/1.1/DTD/svg11.dtd">
<!-- Generated by graphviz version 2.38.0 (20140413.2041)
 -->
<!-- Title: mc::VectorBase&lt; Child, T, N &gt; Pages: 1 -->
<svg width="129pt" height="106pt"
 viewBox="0.00 0.00 129.00 106.00" xmlns="http://www.w3.org/2000/svg" xmlns:xlink="http://www.w3.org/1999/xlink">
<g id="graph0" class="graph" transform="scale(1 1) rotate(0) translate(4 102)">
<title>mc::VectorBase&lt; Child, T, N &gt;</title>
<polygon fill="white" stroke="none" points="-4,4 -4,-102 125,-102 125,4 -4,4"/>
<!-- Node1 -->
<g id="node1" class="node"><title>Node1</title>
<polygon fill="#bfbfbf" stroke="black" points="0,-0.5 0,-30.5 121,-30.5 121,-0.5 0,-0.5"/>
<text text-anchor="start" x="8" y="-18.5" font-family="Helvetica,sans-Serif" font-size="10.00">mc::VectorBase&lt; Child,</text>
<text text-anchor="middle" x="60.5" y="-7.5" font-family="Helvetica,sans-Serif" font-size="10.00"> T, N &gt;</text>
</g>
<!-- Node2 -->
<g id="node2" class="node"><title>Node2</title>
<polygon fill="white" stroke="#bfbfbf" points="46,-78.5 46,-97.5 75,-97.5 75,-78.5 46,-78.5"/>
<text text-anchor="middle" x="60.5" y="-85.5" font-family="Helvetica,sans-Serif" font-size="10.00">T</text>
</g>
<!-- Node2&#45;&gt;Node1 -->
<g id="edge1" class="edge"><title>Node2&#45;&gt;Node1</title>
<path fill="none" stroke="#9a32cd" stroke-dasharray="5,2" d="M60.5,-68.2362C60.5,-56.4079 60.5,-41.3829 60.5,-30.5762"/>
<polygon fill="#9a32cd" stroke="#9a32cd" points="57.0001,-68.3553 60.5,-78.3553 64.0001,-68.3554 57.0001,-68.3553"/>
<text text-anchor="middle" x="78.5" y="-52" font-family="Helvetica,sans-Serif" font-size="10.00"> content</text>
</g>
</g>
</svg>
