<?xml version="1.0" encoding="UTF-8" standalone="no"?>
<!DOCTYPE svg PUBLIC "-//W3C//DTD SVG 1.1//EN"
 "http://www.w3.org/Graphics/SVG/1.1/DTD/svg11.dtd">
<!-- Generated by graphviz version 2.38.0 (20140413.2041)
 -->
<!-- Title: mc::gfx::PainterImpl Pages: 1 -->
<svg width="1780pt" height="253pt"
 viewBox="0.00 0.00 1780.00 253.00" xmlns="http://www.w3.org/2000/svg" xmlns:xlink="http://www.w3.org/1999/xlink">
<g id="graph0" class="graph" transform="scale(1 1) rotate(0) translate(4 249)">
<title>mc::gfx::PainterImpl</title>
<polygon fill="white" stroke="none" points="-4,4 -4,-249 1776,-249 1776,4 -4,4"/>
<!-- Node1 -->
<g id="node1" class="node"><title>Node1</title>
<polygon fill="#bfbfbf" stroke="black" points="1668,-78.5 1668,-97.5 1772,-97.5 1772,-78.5 1668,-78.5"/>
<text text-anchor="middle" x="1720" y="-85.5" font-family="Helvetica,sans-Serif" font-size="10.00">mc::gfx::PainterImpl</text>
</g>
<!-- Node2 -->
<g id="node2" class="node"><title>Node2</title>
<g id="a_node2"><a xlink:href="../../d4/d8c/a00035.html" target="_top" xlink:title="mc::Initializable">
<polygon fill="white" stroke="black" points="1072,-225.5 1072,-244.5 1156,-244.5 1156,-225.5 1072,-225.5"/>
<text text-anchor="middle" x="1114" y="-232.5" font-family="Helvetica,sans-Serif" font-size="10.00">mc::Initializable</text>
</a>
</g>
</g>
<!-- Node2&#45;&gt;Node1 -->
<g id="edge1" class="edge"><title>Node2&#45;&gt;Node1</title>
<path fill="none" stroke="midnightblue" d="M1166.32,-238.821C1254.47,-243.477 1438.87,-244.787 1581,-189 1636,-167.413 1688.88,-118.356 1709.7,-97.5811"/>
<polygon fill="midnightblue" stroke="midnightblue" points="1166.49,-235.326 1156.31,-238.256 1166.1,-242.315 1166.49,-235.326"/>
</g>
<!-- Node16 -->
<g id="node16" class="node"><title>Node16</title>
<g id="a_node16"><a xlink:href="../../de/d11/a00021.html" target="_top" xlink:title="Abstract superclass for all graphical objects. ">
<polygon fill="white" stroke="black" points="1285.5,-143.5 1285.5,-162.5 1365.5,-162.5 1365.5,-143.5 1285.5,-143.5"/>
<text text-anchor="middle" x="1325.5" y="-150.5" font-family="Helvetica,sans-Serif" font-size="10.00">mc::gfx::Entity</text>
</a>
</g>
</g>
<!-- Node2&#45;&gt;Node16 -->
<g id="edge22" class="edge"><title>Node2&#45;&gt;Node16</title>
<path fill="none" stroke="midnightblue" d="M1148.79,-221.775C1191.18,-205.181 1262.86,-177.127 1300.21,-162.506"/>
<polygon fill="midnightblue" stroke="midnightblue" points="1147.48,-218.529 1139.44,-225.433 1150.03,-225.047 1147.48,-218.529"/>
</g>
<!-- Node3 -->
<g id="node3" class="node"><title>Node3</title>
<polygon fill="white" stroke="#bfbfbf" points="1471,-3 1471,-33 1572,-33 1572,-3 1471,-3"/>
<text text-anchor="start" x="1479" y="-21" font-family="Helvetica,sans-Serif" font-size="10.00">std::stack&lt; mc::gfx</text>
<text text-anchor="middle" x="1521.5" y="-10" font-family="Helvetica,sans-Serif" font-size="10.00">::Painter::State &gt;</text>
</g>
<!-- Node3&#45;&gt;Node1 -->
<g id="edge2" class="edge"><title>Node3&#45;&gt;Node1</title>
<path fill="none" stroke="#9a32cd" stroke-dasharray="5,2" d="M1582.25,-26.21C1604.07,-30.3532 1628.62,-36.3868 1650,-45 1671.21,-53.545 1693.21,-68.4946 1706.5,-78.3212"/>
<polygon fill="#9a32cd" stroke="#9a32cd" points="1582.58,-22.7125 1572.12,-24.381 1581.34,-29.6013 1582.58,-22.7125"/>
<text text-anchor="middle" x="1624.5" y="-48" font-family="Helvetica,sans-Serif" font-size="10.00"> stateStack</text>
</g>
<!-- Node4 -->
<g id="node4" class="node"><title>Node4</title>
<g id="a_node4"><a xlink:href="../../df/d03/a00062.html" target="_top" xlink:title="mc::gfx::Painter::State">
<polygon fill="white" stroke="black" points="1268,-60.5 1268,-79.5 1383,-79.5 1383,-60.5 1268,-60.5"/>
<text text-anchor="middle" x="1325.5" y="-67.5" font-family="Helvetica,sans-Serif" font-size="10.00">mc::gfx::Painter::State</text>
</a>
</g>
</g>
<!-- Node4&#45;&gt;Node1 -->
<g id="edge19" class="edge"><title>Node4&#45;&gt;Node1</title>
<path fill="none" stroke="#9a32cd" stroke-dasharray="5,2" d="M1393.42,-71.8225C1444.76,-73.3525 1517.38,-75.8014 1581,-79 1609.77,-80.4468 1641.9,-82.5147 1667.9,-84.3036"/>
<polygon fill="#9a32cd" stroke="#9a32cd" points="1393.22,-68.3152 1383.13,-71.5194 1393.02,-75.3122 1393.22,-68.3152"/>
<text text-anchor="middle" x="1521.5" y="-82" font-family="Helvetica,sans-Serif" font-size="10.00"> state</text>
</g>
<!-- Node4&#45;&gt;Node3 -->
<g id="edge3" class="edge"><title>Node4&#45;&gt;Node3</title>
<path fill="none" stroke="#9a32cd" stroke-dasharray="5,2" d="M1362.61,-57.0602C1374.73,-52.9381 1388.38,-48.5345 1401,-45 1423.73,-38.6348 1449.22,-32.7133 1470.8,-28.0474"/>
<polygon fill="#9a32cd" stroke="#9a32cd" points="1361.16,-53.8598 1352.85,-60.4314 1363.44,-60.4767 1361.16,-53.8598"/>
<text text-anchor="middle" x="1422.5" y="-48" font-family="Helvetica,sans-Serif" font-size="10.00"> elements</text>
</g>
<!-- Node5 -->
<g id="node5" class="node"><title>Node5</title>
<g id="a_node5"><a xlink:href="../../dc/ddf/a00067.html" target="_top" xlink:title="Matrix&#45;based class that allows for the easy creation and management of transformation matrices...">
<polygon fill="white" stroke="black" points="1061,-125.5 1061,-144.5 1167,-144.5 1167,-125.5 1061,-125.5"/>
<text text-anchor="middle" x="1114" y="-132.5" font-family="Helvetica,sans-Serif" font-size="10.00">mc::TransformMatrix</text>
</a>
</g>
</g>
<!-- Node5&#45;&gt;Node4 -->
<g id="edge4" class="edge"><title>Node5&#45;&gt;Node4</title>
<path fill="none" stroke="#9a32cd" stroke-dasharray="5,2" d="M1165.35,-122.981C1190.91,-116.527 1222.32,-108.048 1250,-99 1267.68,-93.2218 1287.26,-85.5471 1301.91,-79.5444"/>
<polygon fill="#9a32cd" stroke="#9a32cd" points="1164.36,-119.621 1155.51,-125.441 1166.06,-126.413 1164.36,-119.621"/>
<text text-anchor="middle" x="1217.5" y="-121" font-family="Helvetica,sans-Serif" font-size="10.00"> transformation</text>
</g>
<!-- Node5&#45;&gt;Node16 -->
<g id="edge27" class="edge"><title>Node5&#45;&gt;Node16</title>
<path fill="none" stroke="#9a32cd" stroke-dasharray="5,2" d="M1177.18,-140.343C1212.19,-143.351 1254.85,-147.016 1285.24,-149.627"/>
<polygon fill="#9a32cd" stroke="#9a32cd" points="1177.32,-136.842 1167.06,-139.473 1176.72,-143.816 1177.32,-136.842"/>
<text text-anchor="middle" x="1217.5" y="-150" font-family="Helvetica,sans-Serif" font-size="10.00"> transformation</text>
</g>
<!-- Node6 -->
<g id="node6" class="node"><title>Node6</title>
<g id="a_node6"><a xlink:href="../../d4/d31/a00069.html" target="_top" xlink:title="mc::Vector\&lt; float, 3 \&gt;">
<polygon fill="white" stroke="black" points="831,-125.5 831,-144.5 943,-144.5 943,-125.5 831,-125.5"/>
<text text-anchor="middle" x="887" y="-132.5" font-family="Helvetica,sans-Serif" font-size="10.00">mc::Vector&lt; float, 3 &gt;</text>
</a>
</g>
</g>
<!-- Node6&#45;&gt;Node5 -->
<g id="edge5" class="edge"><title>Node6&#45;&gt;Node5</title>
<path fill="none" stroke="#9a32cd" stroke-dasharray="5,2" d="M953.404,-135C987.584,-135 1028.84,-135 1060.85,-135"/>
<polygon fill="#9a32cd" stroke="#9a32cd" points="953.041,-131.5 943.041,-135 953.041,-138.5 953.041,-131.5"/>
<text text-anchor="middle" x="1002" y="-160" font-family="Helvetica,sans-Serif" font-size="10.00"> rotation</text>
<text text-anchor="middle" x="1002" y="-149" font-family="Helvetica,sans-Serif" font-size="10.00">scaler</text>
<text text-anchor="middle" x="1002" y="-138" font-family="Helvetica,sans-Serif" font-size="10.00">translation</text>
</g>
<!-- Node7 -->
<g id="node7" class="node"><title>Node7</title>
<g id="a_node7"><a xlink:href="../../d1/d09/a00077.html" target="_top" xlink:title="mc::VectorBase\&lt; Vector\l\&lt; float, N \&gt;, float, N \&gt;">
<polygon fill="white" stroke="black" points="619,-69 619,-99 744,-99 744,-69 619,-69"/>
<text text-anchor="start" x="627" y="-87" font-family="Helvetica,sans-Serif" font-size="10.00">mc::VectorBase&lt; Vector</text>
<text text-anchor="middle" x="681.5" y="-76" font-family="Helvetica,sans-Serif" font-size="10.00">&lt; float, N &gt;, float, N &gt;</text>
</a>
</g>
</g>
<!-- Node7&#45;&gt;Node6 -->
<g id="edge6" class="edge"><title>Node7&#45;&gt;Node6</title>
<path fill="none" stroke="midnightblue" d="M754.063,-94.0676C773.362,-97.4716 794.121,-101.768 813,-107 830.659,-111.894 849.994,-119.413 864.327,-125.427"/>
<polygon fill="midnightblue" stroke="midnightblue" points="754.568,-90.6033 744.121,-92.3686 753.389,-97.5032 754.568,-90.6033"/>
</g>
<!-- Node13 -->
<g id="node13" class="node"><title>Node13</title>
<g id="a_node13"><a xlink:href="../../d4/d31/a00069.html" target="_top" xlink:title="mc::Vector\&lt; float, 4 \&gt;">
<polygon fill="white" stroke="black" points="831,-78.5 831,-97.5 943,-97.5 943,-78.5 831,-78.5"/>
<text text-anchor="middle" x="887" y="-85.5" font-family="Helvetica,sans-Serif" font-size="10.00">mc::Vector&lt; float, 4 &gt;</text>
</a>
</g>
</g>
<!-- Node7&#45;&gt;Node13 -->
<g id="edge15" class="edge"><title>Node7&#45;&gt;Node13</title>
<path fill="none" stroke="midnightblue" d="M754.371,-81.4472C773.435,-81.167 794.001,-81.2205 813,-82 818.718,-82.2346 824.681,-82.5721 830.626,-82.9691"/>
<polygon fill="midnightblue" stroke="midnightblue" points="754.191,-77.9498 744.255,-81.6284 754.316,-84.9487 754.191,-77.9498"/>
</g>
<!-- Node8 -->
<g id="node8" class="node"><title>Node8</title>
<g id="a_node8"><a xlink:href="../../d1/d09/a00077.html" target="_top" xlink:title="1&#45;dimensional vector class that supports mathmatical operations. ">
<polygon fill="white" stroke="black" points="108,-76 108,-106 229,-106 229,-76 108,-76"/>
<text text-anchor="start" x="116" y="-94" font-family="Helvetica,sans-Serif" font-size="10.00">mc::VectorBase&lt; Child,</text>
<text text-anchor="middle" x="168.5" y="-83" font-family="Helvetica,sans-Serif" font-size="10.00"> T, N &gt;</text>
</a>
</g>
</g>
<!-- Node8&#45;&gt;Node7 -->
<g id="edge7" class="edge"><title>Node8&#45;&gt;Node7</title>
<path fill="none" stroke="orange" stroke-dasharray="5,2" d="M239.156,-90.0458C339.514,-88.671 523.203,-86.1547 618.879,-84.8441"/>
<polygon fill="orange" stroke="orange" points="239.069,-86.5466 229.118,-90.1833 239.165,-93.5459 239.069,-86.5466"/>
<text text-anchor="start" x="397" y="-103" font-family="Helvetica,sans-Serif" font-size="10.00"> &lt; Vector&lt; float, N</text>
<text text-anchor="middle" x="437.5" y="-92" font-family="Helvetica,sans-Serif" font-size="10.00"> &gt;, float, N &gt;</text>
</g>
<!-- Node11 -->
<g id="node11" class="node"><title>Node11</title>
<g id="a_node11"><a xlink:href="../../d1/d09/a00077.html" target="_top" xlink:title="mc::VectorBase\&lt; Vector\l\&lt; T, N \&gt;, T, N \&gt;">
<polygon fill="white" stroke="black" points="375,-127 375,-157 500,-157 500,-127 375,-127"/>
<text text-anchor="start" x="383" y="-145" font-family="Helvetica,sans-Serif" font-size="10.00">mc::VectorBase&lt; Vector</text>
<text text-anchor="middle" x="437.5" y="-134" font-family="Helvetica,sans-Serif" font-size="10.00">&lt; T, N &gt;, T, N &gt;</text>
</a>
</g>
</g>
<!-- Node8&#45;&gt;Node11 -->
<g id="edge12" class="edge"><title>Node8&#45;&gt;Node11</title>
<path fill="none" stroke="orange" stroke-dasharray="5,2" d="M239.28,-98.5182C274.76,-102.979 318.424,-109.451 357,-118 368.12,-120.464 379.947,-123.693 390.987,-126.98"/>
<polygon fill="orange" stroke="orange" points="239.378,-95.0038 229.025,-97.2558 238.522,-101.951 239.378,-95.0038"/>
<text text-anchor="middle" x="302" y="-121" font-family="Helvetica,sans-Serif" font-size="10.00"> &lt; Vector&lt; T, N &gt;, T, N &gt;</text>
</g>
<!-- Node9 -->
<g id="node9" class="node"><title>Node9</title>
<polygon fill="white" stroke="#bfbfbf" points="0,-113.5 0,-132.5 29,-132.5 29,-113.5 0,-113.5"/>
<text text-anchor="middle" x="14.5" y="-120.5" font-family="Helvetica,sans-Serif" font-size="10.00">T</text>
</g>
<!-- Node9&#45;&gt;Node8 -->
<g id="edge8" class="edge"><title>Node9&#45;&gt;Node8</title>
<path fill="none" stroke="#9a32cd" stroke-dasharray="5,2" d="M39.0732,-118.037C57.4406,-114.17 83.7763,-108.626 107.824,-103.563"/>
<polygon fill="#9a32cd" stroke="#9a32cd" points="38.3215,-114.619 29.2571,-120.104 39.7636,-121.469 38.3215,-114.619"/>
<text text-anchor="middle" x="68.5" y="-120" font-family="Helvetica,sans-Serif" font-size="10.00"> content</text>
</g>
<!-- Node9&#45;&gt;Node11 -->
<g id="edge11" class="edge"><title>Node9&#45;&gt;Node11</title>
<path fill="none" stroke="#9a32cd" stroke-dasharray="5,2" d="M39.112,-127.906C41.7641,-128.336 44.4341,-128.715 47,-129 162.324,-141.83 297.938,-143.304 374.899,-142.879"/>
<polygon fill="#9a32cd" stroke="#9a32cd" points="39.6973,-124.455 29.2299,-126.094 38.4343,-131.341 39.6973,-124.455"/>
<text text-anchor="middle" x="168.5" y="-144" font-family="Helvetica,sans-Serif" font-size="10.00"> content</text>
</g>
<!-- Node14 -->
<g id="node14" class="node"><title>Node14</title>
<g id="a_node14"><a xlink:title="STL class. ">
<polygon fill="white" stroke="#bfbfbf" points="518,-0.5 518,-19.5 601,-19.5 601,-0.5 518,-0.5"/>
<text text-anchor="middle" x="559.5" y="-7.5" font-family="Helvetica,sans-Serif" font-size="10.00">std::stack&lt; T &gt;</text>
</a>
</g>
</g>
<!-- Node9&#45;&gt;Node14 -->
<g id="edge18" class="edge"><title>Node9&#45;&gt;Node14</title>
<path fill="none" stroke="#9a32cd" stroke-dasharray="5,2" d="M32.8225,-105.737C50.2125,-89.5849 78.5792,-66.301 108,-55 250.713,-0.181668 436.617,-2.68553 517.702,-7.05227"/>
<polygon fill="#9a32cd" stroke="#9a32cd" points="30.0232,-103.571 25.2108,-113.01 34.859,-108.632 30.0232,-103.571"/>
<text text-anchor="middle" x="168.5" y="-58" font-family="Helvetica,sans-Serif" font-size="10.00"> elements</text>
</g>
<!-- Node18 -->
<g id="node18" class="node"><title>Node18</title>
<g id="a_node18"><a xlink:title="STL class. ">
<polygon fill="white" stroke="#bfbfbf" points="259.5,-179.5 259.5,-198.5 344.5,-198.5 344.5,-179.5 259.5,-179.5"/>
<text text-anchor="middle" x="302" y="-186.5" font-family="Helvetica,sans-Serif" font-size="10.00">std::vector&lt; T &gt;</text>
</a>
</g>
</g>
<!-- Node9&#45;&gt;Node18 -->
<g id="edge26" class="edge"><title>Node9&#45;&gt;Node18</title>
<path fill="none" stroke="#9a32cd" stroke-dasharray="5,2" d="M27.6796,-140.593C32.8978,-146.788 39.5199,-153.159 47,-157 115.201,-192.025 206.818,-194.378 259.328,-192.186"/>
<polygon fill="#9a32cd" stroke="#9a32cd" points="30.3455,-138.318 21.4853,-132.508 24.7889,-142.575 30.3455,-138.318"/>
<text text-anchor="middle" x="68.5" y="-177" font-family="Helvetica,sans-Serif" font-size="10.00"> elements</text>
</g>
<!-- Node10 -->
<g id="node10" class="node"><title>Node10</title>
<g id="a_node10"><a xlink:href="../../d4/d31/a00069.html" target="_top" xlink:title="mc::Vector\&lt; T, N \&gt;">
<polygon fill="white" stroke="black" points="631,-132.5 631,-151.5 732,-151.5 732,-132.5 631,-132.5"/>
<text text-anchor="middle" x="681.5" y="-139.5" font-family="Helvetica,sans-Serif" font-size="10.00">mc::Vector&lt; T, N &gt;</text>
</a>
</g>
</g>
<!-- Node10&#45;&gt;Node6 -->
<g id="edge9" class="edge"><title>Node10&#45;&gt;Node6</title>
<path fill="none" stroke="orange" stroke-dasharray="5,2" d="M742.36,-140.296C764.55,-139.63 789.925,-138.828 813,-138 818.831,-137.791 824.924,-137.56 830.995,-137.322"/>
<polygon fill="orange" stroke="orange" points="741.97,-136.806 732.079,-140.602 742.179,-143.803 741.97,-136.806"/>
<text text-anchor="middle" x="787.5" y="-143" font-family="Helvetica,sans-Serif" font-size="10.00"> &lt; float, 3 &gt;</text>
</g>
<!-- Node10&#45;&gt;Node13 -->
<g id="edge16" class="edge"><title>Node10&#45;&gt;Node13</title>
<path fill="none" stroke="orange" stroke-dasharray="5,2" d="M728.401,-129.82C765.234,-120.046 816.213,-106.518 850.104,-97.5252"/>
<polygon fill="orange" stroke="orange" points="727.181,-126.522 718.413,-132.47 728.976,-133.288 727.181,-126.522"/>
<text text-anchor="middle" x="787.5" y="-123" font-family="Helvetica,sans-Serif" font-size="10.00"> &lt; float, 4 &gt;</text>
</g>
<!-- Node11&#45;&gt;Node10 -->
<g id="edge10" class="edge"><title>Node11&#45;&gt;Node10</title>
<path fill="none" stroke="midnightblue" d="M510.375,-142C549.136,-142 595.996,-142 630.714,-142"/>
<polygon fill="midnightblue" stroke="midnightblue" points="510.193,-138.5 500.193,-142 510.193,-145.5 510.193,-138.5"/>
</g>
<!-- Node12 -->
<g id="node12" class="node"><title>Node12</title>
<g id="a_node12"><a xlink:href="../../d2/de7/a00014.html" target="_top" xlink:title="Represents a color in the RGBA space. ">
<polygon fill="white" stroke="black" points="1084.5,-32.5 1084.5,-51.5 1143.5,-51.5 1143.5,-32.5 1084.5,-32.5"/>
<text text-anchor="middle" x="1114" y="-39.5" font-family="Helvetica,sans-Serif" font-size="10.00">mc::Color</text>
</a>
</g>
</g>
<!-- Node12&#45;&gt;Node4 -->
<g id="edge13" class="edge"><title>Node12&#45;&gt;Node4</title>
<path fill="none" stroke="#9a32cd" stroke-dasharray="5,2" d="M1153.98,-47.2101C1185.99,-51.4874 1231.74,-57.6029 1267.8,-62.4222"/>
<polygon fill="#9a32cd" stroke="#9a32cd" points="1154.07,-43.6902 1143.69,-45.8346 1153.14,-50.6285 1154.07,-43.6902"/>
<text text-anchor="middle" x="1217.5" y="-63" font-family="Helvetica,sans-Serif" font-size="10.00"> color</text>
</g>
<!-- Node13&#45;&gt;Node4 -->
<g id="edge14" class="edge"><title>Node13&#45;&gt;Node4</title>
<path fill="none" stroke="#9a32cd" stroke-dasharray="5,2" d="M953.553,-85.7603C1026.08,-83.2134 1146.4,-78.7841 1250,-74 1255.82,-73.7311 1261.9,-73.4332 1267.96,-73.1247"/>
<polygon fill="#9a32cd" stroke="#9a32cd" points="953.079,-82.2746 943.207,-86.1222 953.323,-89.2704 953.079,-82.2746"/>
<text text-anchor="middle" x="1114" y="-85" font-family="Helvetica,sans-Serif" font-size="10.00"> data</text>
</g>
<!-- Node14&#45;&gt;Node3 -->
<g id="edge17" class="edge"><title>Node14&#45;&gt;Node3</title>
<path fill="none" stroke="orange" stroke-dasharray="5,2" d="M611.583,-7.87031C657.382,-6.14529 726.418,-4 786.5,-4 786.5,-4 786.5,-4 1326.5,-4 1375.63,-4 1431.58,-8.52245 1470.73,-12.4266"/>
<polygon fill="orange" stroke="orange" points="611.177,-4.38323 601.319,-8.26455 611.446,-11.3781 611.177,-4.38323"/>
<text text-anchor="start" x="961" y="-18" font-family="Helvetica,sans-Serif" font-size="10.00"> &lt; mc::gfx::Painter</text>
<text text-anchor="middle" x="1002" y="-7" font-family="Helvetica,sans-Serif" font-size="10.00">::State &gt;</text>
</g>
<!-- Node15 -->
<g id="node15" class="node"><title>Node15</title>
<g id="a_node15"><a xlink:href="../../d5/d16/a00029.html" target="_top" xlink:title="mc::gfx::GraphicsEntity">
<polygon fill="white" stroke="black" points="1462,-99.5 1462,-118.5 1581,-118.5 1581,-99.5 1462,-99.5"/>
<text text-anchor="middle" x="1521.5" y="-106.5" font-family="Helvetica,sans-Serif" font-size="10.00">mc::gfx::GraphicsEntity</text>
</a>
</g>
</g>
<!-- Node15&#45;&gt;Node1 -->
<g id="edge20" class="edge"><title>Node15&#45;&gt;Node1</title>
<path fill="none" stroke="#9a32cd" stroke-dasharray="5,2" d="M1591.41,-101.635C1616.59,-98.9447 1644.59,-95.952 1667.93,-93.4573"/>
<polygon fill="#9a32cd" stroke="#9a32cd" points="1590.76,-98.1848 1581.19,-102.728 1591.51,-105.145 1590.76,-98.1848"/>
<text text-anchor="middle" x="1624.5" y="-104" font-family="Helvetica,sans-Serif" font-size="10.00"> entity</text>
</g>
<!-- Node16&#45;&gt;Node15 -->
<g id="edge21" class="edge"><title>Node16&#45;&gt;Node15</title>
<path fill="none" stroke="midnightblue" d="M1358.4,-139.798C1371.42,-134.843 1386.75,-129.556 1401,-126 1420.62,-121.105 1442.43,-117.485 1461.99,-114.874"/>
<polygon fill="midnightblue" stroke="midnightblue" points="1356.99,-136.592 1348.95,-143.489 1359.53,-143.113 1356.99,-136.592"/>
</g>
<!-- Node17 -->
<g id="node17" class="node"><title>Node17</title>
<polygon fill="white" stroke="#bfbfbf" points="1470,-150 1470,-180 1573,-180 1573,-150 1470,-150"/>
<text text-anchor="start" x="1478" y="-168" font-family="Helvetica,sans-Serif" font-size="10.00">std::vector&lt; mc::gfx</text>
<text text-anchor="middle" x="1521.5" y="-157" font-family="Helvetica,sans-Serif" font-size="10.00">::Entity * &gt;</text>
</g>
<!-- Node16&#45;&gt;Node17 -->
<g id="edge24" class="edge"><title>Node16&#45;&gt;Node17</title>
<path fill="none" stroke="#9a32cd" stroke-dasharray="5,2" d="M1375.99,-156.061C1404.75,-157.84 1440.91,-160.077 1469.87,-161.868"/>
<polygon fill="#9a32cd" stroke="#9a32cd" points="1375.96,-152.553 1365.76,-155.428 1375.52,-159.539 1375.96,-152.553"/>
<text text-anchor="middle" x="1422.5" y="-164" font-family="Helvetica,sans-Serif" font-size="10.00"> elements</text>
</g>
<!-- Node17&#45;&gt;Node16 -->
<g id="edge23" class="edge"><title>Node17&#45;&gt;Node16</title>
<path fill="none" stroke="#9a32cd" stroke-dasharray="5,2" d="M1484,-145.667C1471.65,-140.109 1457.55,-134.797 1444,-132 1411.73,-125.337 1374.22,-135.052 1350.43,-143.37"/>
<polygon fill="#9a32cd" stroke="#9a32cd" points="1482.52,-148.841 1493.06,-149.927 1485.5,-142.506 1482.52,-148.841"/>
<text text-anchor="middle" x="1422.5" y="-135" font-family="Helvetica,sans-Serif" font-size="10.00"> children</text>
</g>
<!-- Node18&#45;&gt;Node17 -->
<g id="edge25" class="edge"><title>Node18&#45;&gt;Node17</title>
<path fill="none" stroke="orange" stroke-dasharray="5,2" d="M354.828,-189.643C406.446,-190.228 487.95,-191 558.5,-191 558.5,-191 558.5,-191 1326.5,-191 1375.43,-191 1430.7,-182.773 1469.69,-175.575"/>
<polygon fill="orange" stroke="orange" points="354.638,-186.141 344.599,-189.525 354.558,-193.141 354.638,-186.141"/>
<text text-anchor="middle" x="887" y="-194" font-family="Helvetica,sans-Serif" font-size="10.00"> &lt; mc::gfx::Entity * &gt;</text>
</g>
</g>
</svg>
