<?xml version="1.0" encoding="UTF-8" standalone="no"?>
<!DOCTYPE svg PUBLIC "-//W3C//DTD SVG 1.1//EN"
 "http://www.w3.org/Graphics/SVG/1.1/DTD/svg11.dtd">
<!-- Generated by graphviz version 2.38.0 (20140413.2041)
 -->
<!-- Title: mc::gfx::ogl::Texture2D Pages: 1 -->
<svg width="234pt" height="140pt"
 viewBox="0.00 0.00 233.50 140.00" xmlns="http://www.w3.org/2000/svg" xmlns:xlink="http://www.w3.org/1999/xlink">
<g id="graph0" class="graph" transform="scale(1 1) rotate(0) translate(4 136)">
<title>mc::gfx::ogl::Texture2D</title>
<polygon fill="white" stroke="none" points="-4,4 -4,-136 229.5,-136 229.5,4 -4,4"/>
<!-- Node1 -->
<g id="node1" class="node"><title>Node1</title>
<polygon fill="#bfbfbf" stroke="black" points="53,-0.5 53,-19.5 171,-19.5 171,-0.5 53,-0.5"/>
<text text-anchor="middle" x="112" y="-7.5" font-family="Helvetica,sans-Serif" font-size="10.00">mc::gfx::ogl::Texture2D</text>
</g>
<!-- Node2 -->
<g id="node2" class="node"><title>Node2</title>
<g id="a_node2"><a xlink:href="../../d6/d42/a00043.html" target="_top" xlink:title="Represents a OpenGL object in memory. ">
<polygon fill="white" stroke="black" points="0,-56.5 0,-75.5 102,-75.5 102,-56.5 0,-56.5"/>
<text text-anchor="middle" x="51" y="-63.5" font-family="Helvetica,sans-Serif" font-size="10.00">mc::gfx::ogl::Object</text>
</a>
</g>
</g>
<!-- Node2&#45;&gt;Node1 -->
<g id="edge1" class="edge"><title>Node2&#45;&gt;Node1</title>
<path fill="none" stroke="midnightblue" d="M68.4672,-49.5372C79.3438,-39.9087 92.9439,-27.8694 102.021,-19.8339"/>
<polygon fill="midnightblue" stroke="midnightblue" points="65.9684,-47.0749 60.8007,-56.324 70.6083,-52.3162 65.9684,-47.0749"/>
</g>
<!-- Node3 -->
<g id="node3" class="node"><title>Node3</title>
<g id="a_node3"><a xlink:href="../../d4/d8c/a00035.html" target="_top" xlink:title="mc::Initializable">
<polygon fill="white" stroke="black" points="70,-112.5 70,-131.5 154,-131.5 154,-112.5 70,-112.5"/>
<text text-anchor="middle" x="112" y="-119.5" font-family="Helvetica,sans-Serif" font-size="10.00">mc::Initializable</text>
</a>
</g>
</g>
<!-- Node3&#45;&gt;Node2 -->
<g id="edge2" class="edge"><title>Node3&#45;&gt;Node2</title>
<path fill="none" stroke="midnightblue" d="M94.5328,-105.537C83.6562,-95.9087 70.0561,-83.8694 60.979,-75.8339"/>
<polygon fill="midnightblue" stroke="midnightblue" points="92.3917,-108.316 102.199,-112.324 97.0316,-103.075 92.3917,-108.316"/>
</g>
<!-- Node4 -->
<g id="node4" class="node"><title>Node4</title>
<g id="a_node4"><a xlink:href="../../d9/db3/a00066.html" target="_top" xlink:title="mc::gfx::TextureImpl">
<polygon fill="white" stroke="black" points="120.5,-56.5 120.5,-75.5 225.5,-75.5 225.5,-56.5 120.5,-56.5"/>
<text text-anchor="middle" x="173" y="-63.5" font-family="Helvetica,sans-Serif" font-size="10.00">mc::gfx::TextureImpl</text>
</a>
</g>
</g>
<!-- Node3&#45;&gt;Node4 -->
<g id="edge4" class="edge"><title>Node3&#45;&gt;Node4</title>
<path fill="none" stroke="midnightblue" d="M129.467,-105.537C140.344,-95.9087 153.944,-83.8694 163.021,-75.8339"/>
<polygon fill="midnightblue" stroke="midnightblue" points="126.968,-103.075 121.801,-112.324 131.608,-108.316 126.968,-103.075"/>
</g>
<!-- Node4&#45;&gt;Node1 -->
<g id="edge3" class="edge"><title>Node4&#45;&gt;Node1</title>
<path fill="none" stroke="midnightblue" d="M155.533,-49.5372C144.656,-39.9087 131.056,-27.8694 121.979,-19.8339"/>
<polygon fill="midnightblue" stroke="midnightblue" points="153.392,-52.3162 163.199,-56.324 158.032,-47.0749 153.392,-52.3162"/>
</g>
</g>
</svg>
