<?xml version="1.0" encoding="UTF-8" standalone="no"?>
<!DOCTYPE svg PUBLIC "-//W3C//DTD SVG 1.1//EN"
 "http://www.w3.org/Graphics/SVG/1.1/DTD/svg11.dtd">
<!-- Generated by graphviz version 2.38.0 (20140413.2041)
 -->
<!-- Title: mc::gfx::ogl::Buffer Pages: 1 -->
<svg width="110pt" height="140pt"
 viewBox="0.00 0.00 110.00 140.00" xmlns="http://www.w3.org/2000/svg" xmlns:xlink="http://www.w3.org/1999/xlink">
<g id="graph0" class="graph" transform="scale(1 1) rotate(0) translate(4 136)">
<title>mc::gfx::ogl::Buffer</title>
<polygon fill="white" stroke="none" points="-4,4 -4,-136 106,-136 106,4 -4,4"/>
<!-- Node1 -->
<g id="node1" class="node"><title>Node1</title>
<polygon fill="#bfbfbf" stroke="black" points="2,-0.5 2,-19.5 100,-19.5 100,-0.5 2,-0.5"/>
<text text-anchor="middle" x="51" y="-7.5" font-family="Helvetica,sans-Serif" font-size="10.00">mc::gfx::ogl::Buffer</text>
</g>
<!-- Node2 -->
<g id="node2" class="node"><title>Node2</title>
<g id="a_node2"><a xlink:href="../../d6/d42/a00043.html" target="_top" xlink:title="Represents a OpenGL object in memory. ">
<polygon fill="white" stroke="black" points="0,-56.5 0,-75.5 102,-75.5 102,-56.5 0,-56.5"/>
<text text-anchor="middle" x="51" y="-63.5" font-family="Helvetica,sans-Serif" font-size="10.00">mc::gfx::ogl::Object</text>
</a>
</g>
</g>
<!-- Node2&#45;&gt;Node1 -->
<g id="edge1" class="edge"><title>Node2&#45;&gt;Node1</title>
<path fill="none" stroke="midnightblue" d="M51,-45.8045C51,-36.9102 51,-26.7798 51,-19.7511"/>
<polygon fill="midnightblue" stroke="midnightblue" points="47.5001,-46.083 51,-56.083 54.5001,-46.083 47.5001,-46.083"/>
</g>
<!-- Node3 -->
<g id="node3" class="node"><title>Node3</title>
<g id="a_node3"><a xlink:href="../../d4/d8c/a00035.html" target="_top" xlink:title="mc::Initializable">
<polygon fill="white" stroke="black" points="9,-112.5 9,-131.5 93,-131.5 93,-112.5 9,-112.5"/>
<text text-anchor="middle" x="51" y="-119.5" font-family="Helvetica,sans-Serif" font-size="10.00">mc::Initializable</text>
</a>
</g>
</g>
<!-- Node3&#45;&gt;Node2 -->
<g id="edge2" class="edge"><title>Node3&#45;&gt;Node2</title>
<path fill="none" stroke="midnightblue" d="M51,-101.805C51,-92.9102 51,-82.7798 51,-75.7511"/>
<polygon fill="midnightblue" stroke="midnightblue" points="47.5001,-102.083 51,-112.083 54.5001,-102.083 47.5001,-102.083"/>
</g>
</g>
</svg>
