<?xml version="1.0" encoding="UTF-8" standalone="no"?>
<!DOCTYPE svg PUBLIC "-//W3C//DTD SVG 1.1//EN"
 "http://www.w3.org/Graphics/SVG/1.1/DTD/svg11.dtd">
<!-- Generated by graphviz version 2.38.0 (20140413.2041)
 -->
<!-- Title: mc::gfx::Button Pages: 1 -->
<svg width="400pt" height="707pt"
 viewBox="0.00 0.00 399.50 707.00" xmlns="http://www.w3.org/2000/svg" xmlns:xlink="http://www.w3.org/1999/xlink">
<g id="graph0" class="graph" transform="scale(1 1) rotate(0) translate(4 703)">
<title>mc::gfx::Button</title>
<polygon fill="white" stroke="none" points="-4,4 -4,-703 395.5,-703 395.5,4 -4,4"/>
<!-- Node1 -->
<g id="node1" class="node"><title>Node1</title>
<polygon fill="#bfbfbf" stroke="black" points="99,-0.5 99,-19.5 182,-19.5 182,-0.5 99,-0.5"/>
<text text-anchor="middle" x="140.5" y="-7.5" font-family="Helvetica,sans-Serif" font-size="10.00">mc::gfx::Button</text>
</g>
<!-- Node2 -->
<g id="node2" class="node"><title>Node2</title>
<g id="a_node2"><a xlink:href="../../d4/de8/a00061.html" target="_top" xlink:title="mc::gfx::Selectable">
<polygon fill="white" stroke="black" points="13,-57.5 13,-76.5 114,-76.5 114,-57.5 13,-57.5"/>
<text text-anchor="middle" x="63.5" y="-64.5" font-family="Helvetica,sans-Serif" font-size="10.00">mc::gfx::Selectable</text>
</a>
</g>
</g>
<!-- Node2&#45;&gt;Node1 -->
<g id="edge1" class="edge"><title>Node2&#45;&gt;Node1</title>
<path fill="none" stroke="midnightblue" d="M83.7481,-51.537C98.0045,-41.3539 116.605,-28.0678 128.553,-19.5334"/>
<polygon fill="midnightblue" stroke="midnightblue" points="81.6343,-48.7458 75.5313,-57.4063 85.703,-54.4419 81.6343,-48.7458"/>
</g>
<!-- Node3 -->
<g id="node3" class="node"><title>Node3</title>
<g id="a_node3"><a xlink:href="../../da/d45/a00011.html" target="_top" xlink:title="Wrapper class for a primitive type that allows for easy bit manipulation. ">
<polygon fill="white" stroke="black" points="0,-130 0,-149 69,-149 69,-130 0,-130"/>
<text text-anchor="middle" x="34.5" y="-137" font-family="Helvetica,sans-Serif" font-size="10.00">mc::BitField</text>
</a>
</g>
</g>
<!-- Node3&#45;&gt;Node2 -->
<g id="edge2" class="edge"><title>Node3&#45;&gt;Node2</title>
<path fill="none" stroke="#9a32cd" stroke-dasharray="5,2" d="M41.9983,-120.271C47.761,-106.262 55.4654,-87.5324 59.9149,-76.7154"/>
<polygon fill="#9a32cd" stroke="#9a32cd" points="38.6234,-119.276 38.056,-129.855 45.0971,-121.939 38.6234,-119.276"/>
<text text-anchor="middle" x="98.5" y="-98" font-family="Helvetica,sans-Serif" font-size="10.00"> selectableProperties</text>
</g>
<!-- Node4 -->
<g id="node4" class="node"><title>Node4</title>
<g id="a_node4"><a xlink:href="../../d3/d52/a00023.html" target="_top" xlink:title="mc::gfx::Entity2D">
<polygon fill="white" stroke="black" points="147.5,-57.5 147.5,-76.5 239.5,-76.5 239.5,-57.5 147.5,-57.5"/>
<text text-anchor="middle" x="193.5" y="-64.5" font-family="Helvetica,sans-Serif" font-size="10.00">mc::gfx::Entity2D</text>
</a>
</g>
</g>
<!-- Node4&#45;&gt;Node1 -->
<g id="edge3" class="edge"><title>Node4&#45;&gt;Node1</title>
<path fill="none" stroke="midnightblue" d="M178.2,-50.1229C168.661,-40.2238 156.749,-27.8624 148.898,-19.7149"/>
<polygon fill="midnightblue" stroke="midnightblue" points="175.76,-52.6341 185.219,-57.4063 180.8,-47.7768 175.76,-52.6341"/>
</g>
<!-- Node5 -->
<g id="node5" class="node"><title>Node5</title>
<g id="a_node5"><a xlink:href="../../d5/d16/a00029.html" target="_top" xlink:title="mc::gfx::GraphicsEntity">
<polygon fill="white" stroke="black" points="208,-130 208,-149 327,-149 327,-130 208,-130"/>
<text text-anchor="middle" x="267.5" y="-137" font-family="Helvetica,sans-Serif" font-size="10.00">mc::gfx::GraphicsEntity</text>
</a>
</g>
</g>
<!-- Node5&#45;&gt;Node4 -->
<g id="edge4" class="edge"><title>Node5&#45;&gt;Node4</title>
<path fill="none" stroke="midnightblue" d="M250.907,-122.692C236.003,-108.493 214.67,-88.1687 202.648,-76.7154"/>
<polygon fill="midnightblue" stroke="midnightblue" points="248.772,-125.492 258.426,-129.855 253.6,-120.423 248.772,-125.492"/>
</g>
<!-- Node6 -->
<g id="node6" class="node"><title>Node6</title>
<g id="a_node6"><a xlink:href="../../d7/de0/a00022.html" target="_top" xlink:title="Abstract superclass for all graphical objects. ">
<polygon fill="white" stroke="black" points="196.5,-202.5 196.5,-221.5 276.5,-221.5 276.5,-202.5 196.5,-202.5"/>
<text text-anchor="middle" x="236.5" y="-209.5" font-family="Helvetica,sans-Serif" font-size="10.00">mc::gfx::Entity</text>
</a>
</g>
</g>
<!-- Node6&#45;&gt;Node5 -->
<g id="edge5" class="edge"><title>Node6&#45;&gt;Node5</title>
<path fill="none" stroke="midnightblue" d="M246.9,-193.191C248.521,-190.164 250.115,-187.022 251.5,-184 256.865,-172.296 261.773,-158.23 264.701,-149.326"/>
<polygon fill="midnightblue" stroke="midnightblue" points="243.697,-191.746 241.855,-202.18 249.802,-195.172 243.697,-191.746"/>
</g>
<!-- Node8 -->
<g id="node8" class="node"><title>Node8</title>
<polygon fill="white" stroke="#bfbfbf" points="87,-124.5 87,-154.5 190,-154.5 190,-124.5 87,-124.5"/>
<text text-anchor="start" x="95" y="-142.5" font-family="Helvetica,sans-Serif" font-size="10.00">std::vector&lt; mc::gfx</text>
<text text-anchor="middle" x="138.5" y="-131.5" font-family="Helvetica,sans-Serif" font-size="10.00">::Entity * &gt;</text>
</g>
<!-- Node6&#45;&gt;Node8 -->
<g id="edge8" class="edge"><title>Node6&#45;&gt;Node8</title>
<path fill="none" stroke="#9a32cd" stroke-dasharray="5,2" d="M186.151,-208.889C168.645,-205.448 150.626,-198.302 139.5,-184 133.192,-175.891 133.304,-164.121 134.795,-154.868"/>
<polygon fill="#9a32cd" stroke="#9a32cd" points="185.917,-212.396 196.343,-210.513 187.018,-205.483 185.917,-212.396"/>
<text text-anchor="middle" x="161" y="-176" font-family="Helvetica,sans-Serif" font-size="10.00"> elements</text>
</g>
<!-- Node7 -->
<g id="node7" class="node"><title>Node7</title>
<g id="a_node7"><a xlink:href="../../d4/d8c/a00035.html" target="_top" xlink:title="mc::Initializable">
<polygon fill="white" stroke="black" points="307.5,-269.5 307.5,-288.5 391.5,-288.5 391.5,-269.5 307.5,-269.5"/>
<text text-anchor="middle" x="349.5" y="-276.5" font-family="Helvetica,sans-Serif" font-size="10.00">mc::Initializable</text>
</a>
</g>
</g>
<!-- Node7&#45;&gt;Node6 -->
<g id="edge6" class="edge"><title>Node7&#45;&gt;Node6</title>
<path fill="none" stroke="midnightblue" d="M334.222,-262.517C326.188,-254.996 315.872,-246.255 305.5,-240 292.832,-232.36 277.622,-226.136 264.709,-221.597"/>
<polygon fill="midnightblue" stroke="midnightblue" points="331.798,-265.042 341.412,-269.495 336.673,-260.019 331.798,-265.042"/>
</g>
<!-- Node8&#45;&gt;Node6 -->
<g id="edge7" class="edge"><title>Node8&#45;&gt;Node6</title>
<path fill="none" stroke="#9a32cd" stroke-dasharray="5,2" d="M168.664,-160.556C174.617,-164.616 180.787,-168.9 186.5,-173 200.141,-182.79 215.464,-194.553 225.509,-202.372"/>
<polygon fill="#9a32cd" stroke="#9a32cd" points="170.421,-157.518 160.178,-154.812 166.498,-163.316 170.421,-157.518"/>
<text text-anchor="middle" x="219" y="-176" font-family="Helvetica,sans-Serif" font-size="10.00"> children</text>
</g>
<!-- Node9 -->
<g id="node9" class="node"><title>Node9</title>
<g id="a_node9"><a xlink:title="STL class. ">
<polygon fill="white" stroke="#bfbfbf" points="44,-562.5 44,-581.5 129,-581.5 129,-562.5 44,-562.5"/>
<text text-anchor="middle" x="86.5" y="-569.5" font-family="Helvetica,sans-Serif" font-size="10.00">std::vector&lt; T &gt;</text>
</a>
</g>
</g>
<!-- Node9&#45;&gt;Node8 -->
<g id="edge9" class="edge"><title>Node9&#45;&gt;Node8</title>
<path fill="none" stroke="orange" stroke-dasharray="5,2" d="M86.5,-552.162C86.5,-533.662 86.5,-504.639 86.5,-479.5 86.5,-479.5 86.5,-479.5 86.5,-211 86.5,-187.883 104.832,-167.363 119.727,-154.506"/>
<polygon fill="orange" stroke="orange" points="83.0001,-552.422 86.5,-562.422 90.0001,-552.422 83.0001,-552.422"/>
<text text-anchor="middle" x="132.5" y="-365.5" font-family="Helvetica,sans-Serif" font-size="10.00"> &lt; mc::gfx::Entity * &gt;</text>
</g>
<!-- Node10 -->
<g id="node10" class="node"><title>Node10</title>
<polygon fill="white" stroke="#bfbfbf" points="202,-679.5 202,-698.5 231,-698.5 231,-679.5 202,-679.5"/>
<text text-anchor="middle" x="216.5" y="-686.5" font-family="Helvetica,sans-Serif" font-size="10.00">T</text>
</g>
<!-- Node10&#45;&gt;Node9 -->
<g id="edge10" class="edge"><title>Node10&#45;&gt;Node9</title>
<path fill="none" stroke="#9a32cd" stroke-dasharray="5,2" d="M192.848,-676.193C185.094,-671.866 176.643,-666.636 169.5,-661 137.516,-635.762 106.342,-598.239 93.1188,-581.544"/>
<polygon fill="#9a32cd" stroke="#9a32cd" points="191.354,-679.363 201.823,-680.99 194.653,-673.19 191.354,-679.363"/>
<text text-anchor="middle" x="191" y="-653" font-family="Helvetica,sans-Serif" font-size="10.00"> elements</text>
</g>
<!-- Node14 -->
<g id="node14" class="node"><title>Node14</title>
<g id="a_node14"><a xlink:href="../../df/d5d/a00084.html" target="_top" xlink:title="1&#45;dimensional vector class that supports mathmatical operations. ">
<polygon fill="white" stroke="black" points="156,-601.5 156,-631.5 277,-631.5 277,-601.5 156,-601.5"/>
<text text-anchor="start" x="164" y="-619.5" font-family="Helvetica,sans-Serif" font-size="10.00">mc::VectorBase&lt; Child,</text>
<text text-anchor="middle" x="216.5" y="-608.5" font-family="Helvetica,sans-Serif" font-size="10.00"> T, N &gt;</text>
</a>
</g>
</g>
<!-- Node10&#45;&gt;Node14 -->
<g id="edge15" class="edge"><title>Node10&#45;&gt;Node14</title>
<path fill="none" stroke="#9a32cd" stroke-dasharray="5,2" d="M216.5,-669.236C216.5,-657.408 216.5,-642.383 216.5,-631.576"/>
<polygon fill="#9a32cd" stroke="#9a32cd" points="213,-669.355 216.5,-679.355 220,-669.355 213,-669.355"/>
<text text-anchor="middle" x="234.5" y="-653" font-family="Helvetica,sans-Serif" font-size="10.00"> content</text>
</g>
<!-- Node16 -->
<g id="node16" class="node"><title>Node16</title>
<g id="a_node16"><a xlink:href="../../df/d5d/a00084.html" target="_top" xlink:title="mc::VectorBase\&lt; Vector\l\&lt; T, N \&gt;, T, N \&gt;">
<polygon fill="white" stroke="black" points="194,-512.5 194,-542.5 319,-542.5 319,-512.5 194,-512.5"/>
<text text-anchor="start" x="202" y="-530.5" font-family="Helvetica,sans-Serif" font-size="10.00">mc::VectorBase&lt; Vector</text>
<text text-anchor="middle" x="256.5" y="-519.5" font-family="Helvetica,sans-Serif" font-size="10.00">&lt; T, N &gt;, T, N &gt;</text>
</a>
</g>
</g>
<!-- Node10&#45;&gt;Node16 -->
<g id="edge18" class="edge"><title>Node10&#45;&gt;Node16</title>
<path fill="none" stroke="#9a32cd" stroke-dasharray="5,2" d="M240.978,-678.455C274.761,-663.767 334.249,-632.073 358.5,-583 362.832,-574.234 364.27,-568.894 358.5,-561 349.068,-548.096 334.462,-540.194 319.223,-535.39"/>
<polygon fill="#9a32cd" stroke="#9a32cd" points="239.261,-675.38 231.387,-682.468 241.963,-681.837 239.261,-675.38"/>
<text text-anchor="middle" x="363.5" y="-614" font-family="Helvetica,sans-Serif" font-size="10.00"> content</text>
</g>
<!-- Node11 -->
<g id="node11" class="node"><title>Node11</title>
<g id="a_node11"><a xlink:href="../../db/db6/a00074.html" target="_top" xlink:title="Matrix&#45;based class that allows for the easy creation and management of transformation matrices...">
<polygon fill="white" stroke="black" points="183.5,-269.5 183.5,-288.5 289.5,-288.5 289.5,-269.5 183.5,-269.5"/>
<text text-anchor="middle" x="236.5" y="-276.5" font-family="Helvetica,sans-Serif" font-size="10.00">mc::TransformMatrix</text>
</a>
</g>
</g>
<!-- Node11&#45;&gt;Node6 -->
<g id="edge11" class="edge"><title>Node11&#45;&gt;Node6</title>
<path fill="none" stroke="#9a32cd" stroke-dasharray="5,2" d="M236.5,-259.037C236.5,-246.67 236.5,-231.12 236.5,-221.627"/>
<polygon fill="#9a32cd" stroke="#9a32cd" points="233,-259.234 236.5,-269.234 240,-259.234 233,-259.234"/>
<text text-anchor="middle" x="269" y="-243" font-family="Helvetica,sans-Serif" font-size="10.00"> transformation</text>
</g>
<!-- Node12 -->
<g id="node12" class="node"><title>Node12</title>
<g id="a_node12"><a xlink:href="../../db/df8/a00076.html" target="_top" xlink:title="mc::Vector\&lt; float, 3 \&gt;">
<polygon fill="white" stroke="black" points="196.5,-358.5 196.5,-377.5 308.5,-377.5 308.5,-358.5 196.5,-358.5"/>
<text text-anchor="middle" x="252.5" y="-365.5" font-family="Helvetica,sans-Serif" font-size="10.00">mc::Vector&lt; float, 3 &gt;</text>
</a>
</g>
</g>
<!-- Node12&#45;&gt;Node11 -->
<g id="edge12" class="edge"><title>Node12&#45;&gt;Node11</title>
<path fill="none" stroke="#9a32cd" stroke-dasharray="5,2" d="M249.089,-348.455C245.695,-329.996 240.634,-302.477 238.086,-288.625"/>
<polygon fill="#9a32cd" stroke="#9a32cd" points="245.656,-349.138 250.907,-358.34 252.541,-347.872 245.656,-349.138"/>
<text text-anchor="middle" x="270.5" y="-332" font-family="Helvetica,sans-Serif" font-size="10.00"> rotation</text>
<text text-anchor="middle" x="270.5" y="-321" font-family="Helvetica,sans-Serif" font-size="10.00">scaler</text>
<text text-anchor="middle" x="270.5" y="-310" font-family="Helvetica,sans-Serif" font-size="10.00">translation</text>
</g>
<!-- Node13 -->
<g id="node13" class="node"><title>Node13</title>
<g id="a_node13"><a xlink:href="../../df/d5d/a00084.html" target="_top" xlink:title="mc::VectorBase\&lt; Vector\l\&lt; float, N \&gt;, float, N \&gt;">
<polygon fill="white" stroke="black" points="105,-463.5 105,-493.5 230,-493.5 230,-463.5 105,-463.5"/>
<text text-anchor="start" x="113" y="-481.5" font-family="Helvetica,sans-Serif" font-size="10.00">mc::VectorBase&lt; Vector</text>
<text text-anchor="middle" x="167.5" y="-470.5" font-family="Helvetica,sans-Serif" font-size="10.00">&lt; float, N &gt;, float, N &gt;</text>
</a>
</g>
</g>
<!-- Node13&#45;&gt;Node12 -->
<g id="edge13" class="edge"><title>Node13&#45;&gt;Node12</title>
<path fill="none" stroke="midnightblue" d="M178.008,-454.2C182.751,-444.746 188.797,-433.964 195.5,-425 209.457,-406.336 229.644,-388.051 241.872,-377.686"/>
<polygon fill="midnightblue" stroke="midnightblue" points="174.744,-452.912 173.564,-463.44 181.052,-455.946 174.744,-452.912"/>
</g>
<!-- Node14&#45;&gt;Node13 -->
<g id="edge14" class="edge"><title>Node14&#45;&gt;Node13</title>
<path fill="none" stroke="orange" stroke-dasharray="5,2" d="M161.624,-595.975C156.865,-592.341 152.665,-588.054 149.5,-583 131.976,-555.023 148.23,-514.869 159.258,-493.742"/>
<polygon fill="orange" stroke="orange" points="159.789,-598.957 170.076,-601.492 163.615,-593.095 159.789,-598.957"/>
<text text-anchor="start" x="149.5" y="-575" font-family="Helvetica,sans-Serif" font-size="10.00"> &lt; Vector&lt; float, N</text>
<text text-anchor="middle" x="190" y="-564" font-family="Helvetica,sans-Serif" font-size="10.00"> &gt;, float, N &gt;</text>
</g>
<!-- Node14&#45;&gt;Node16 -->
<g id="edge19" class="edge"><title>Node14&#45;&gt;Node16</title>
<path fill="none" stroke="orange" stroke-dasharray="5,2" d="M229.731,-592.424C231.396,-589.287 233.029,-586.086 234.5,-583 240.909,-569.552 247.163,-553.716 251.355,-542.591"/>
<polygon fill="orange" stroke="orange" points="226.515,-591.009 224.768,-601.459 232.65,-594.379 226.515,-591.009"/>
<text text-anchor="middle" x="299.5" y="-569.5" font-family="Helvetica,sans-Serif" font-size="10.00"> &lt; Vector&lt; T, N &gt;, T, N &gt;</text>
</g>
<!-- Node15 -->
<g id="node15" class="node"><title>Node15</title>
<g id="a_node15"><a xlink:href="../../db/df8/a00076.html" target="_top" xlink:title="mc::Vector\&lt; T, N \&gt;">
<polygon fill="white" stroke="black" points="205,-425.5 205,-444.5 306,-444.5 306,-425.5 205,-425.5"/>
<text text-anchor="middle" x="255.5" y="-432.5" font-family="Helvetica,sans-Serif" font-size="10.00">mc::Vector&lt; T, N &gt;</text>
</a>
</g>
</g>
<!-- Node15&#45;&gt;Node12 -->
<g id="edge16" class="edge"><title>Node15&#45;&gt;Node12</title>
<path fill="none" stroke="orange" stroke-dasharray="5,2" d="M254.625,-415.037C254.054,-402.67 253.336,-387.12 252.898,-377.627"/>
<polygon fill="orange" stroke="orange" points="251.138,-415.406 255.095,-425.234 258.131,-415.083 251.138,-415.406"/>
<text text-anchor="middle" x="280" y="-399" font-family="Helvetica,sans-Serif" font-size="10.00"> &lt; float, 3 &gt;</text>
</g>
<!-- Node16&#45;&gt;Node15 -->
<g id="edge17" class="edge"><title>Node16&#45;&gt;Node15</title>
<path fill="none" stroke="midnightblue" d="M256.232,-502.275C256.022,-483.198 255.74,-457.709 255.595,-444.596"/>
<polygon fill="midnightblue" stroke="midnightblue" points="252.733,-502.399 256.344,-512.359 259.733,-502.321 252.733,-502.399"/>
</g>
</g>
</svg>
