<?xml version="1.0" encoding="UTF-8" standalone="no"?>
<!DOCTYPE svg PUBLIC "-//W3C//DTD SVG 1.1//EN"
 "http://www.w3.org/Graphics/SVG/1.1/DTD/svg11.dtd">
<!-- Generated by graphviz version 2.38.0 (20140413.2041)
 -->
<!-- Title: mc::VectorBase&lt; Child, T, N &gt; Pages: 1 -->
<svg width="764pt" height="459pt"
 viewBox="0.00 0.00 764.00 458.50" xmlns="http://www.w3.org/2000/svg" xmlns:xlink="http://www.w3.org/1999/xlink">
<g id="graph0" class="graph" transform="scale(1 1) rotate(0) translate(4 454.5)">
<title>mc::VectorBase&lt; Child, T, N &gt;</title>
<polygon fill="white" stroke="none" points="-4,4 -4,-454.5 760,-454.5 760,4 -4,4"/>
<!-- Node1 -->
<g id="node1" class="node"><title>Node1</title>
<polygon fill="#bfbfbf" stroke="black" points="0,-159.5 0,-189.5 121,-189.5 121,-159.5 0,-159.5"/>
<text text-anchor="start" x="8" y="-177.5" font-family="Helvetica,sans-Serif" font-size="10.00">mc::VectorBase&lt; Child,</text>
<text text-anchor="middle" x="60.5" y="-166.5" font-family="Helvetica,sans-Serif" font-size="10.00"> T, N &gt;</text>
</g>
<!-- Node2 -->
<g id="node2" class="node"><title>Node2</title>
<g id="a_node2"><a xlink:href="../../d1/d09/a00077.html" target="_top" xlink:title="mc::VectorBase\&lt; Vector\l\&lt; float, N \&gt;, float, N \&gt;">
<polygon fill="white" stroke="black" points="432,-396.5 432,-426.5 557,-426.5 557,-396.5 432,-396.5"/>
<text text-anchor="start" x="440" y="-414.5" font-family="Helvetica,sans-Serif" font-size="10.00">mc::VectorBase&lt; Vector</text>
<text text-anchor="middle" x="494.5" y="-403.5" font-family="Helvetica,sans-Serif" font-size="10.00">&lt; float, N &gt;, float, N &gt;</text>
</a>
</g>
</g>
<!-- Node1&#45;&gt;Node2 -->
<g id="edge1" class="edge"><title>Node1&#45;&gt;Node2</title>
<path fill="none" stroke="orange" stroke-dasharray="5,2" d="M74.9953,-198.718C88.5695,-221.115 111.409,-253.952 139,-274.5 229.357,-341.794 356.889,-380.267 431.807,-398.428"/>
<polygon fill="orange" stroke="orange" points="77.8485,-196.666 69.7582,-189.825 71.8167,-200.218 77.8485,-196.666"/>
<text text-anchor="start" x="292" y="-402.5" font-family="Helvetica,sans-Serif" font-size="10.00"> &lt; Vector&lt; float, N</text>
<text text-anchor="middle" x="332.5" y="-391.5" font-family="Helvetica,sans-Serif" font-size="10.00"> &gt;, float, N &gt;</text>
</g>
<!-- Node6 -->
<g id="node6" class="node"><title>Node6</title>
<g id="a_node6"><a xlink:href="../../d1/d09/a00077.html" target="_top" xlink:title="mc::VectorBase\&lt; Vector\l\&lt; T, 2 \&gt;, T, 2 \&gt;">
<polygon fill="white" stroke="black" points="270,-208.5 270,-238.5 395,-238.5 395,-208.5 270,-208.5"/>
<text text-anchor="start" x="278" y="-226.5" font-family="Helvetica,sans-Serif" font-size="10.00">mc::VectorBase&lt; Vector</text>
<text text-anchor="middle" x="332.5" y="-215.5" font-family="Helvetica,sans-Serif" font-size="10.00">&lt; T, 2 &gt;, T, 2 &gt;</text>
</a>
</g>
</g>
<!-- Node1&#45;&gt;Node6 -->
<g id="edge5" class="edge"><title>Node1&#45;&gt;Node6</title>
<path fill="none" stroke="orange" stroke-dasharray="5,2" d="M130.998,-188.008C133.699,-188.515 136.374,-189.014 139,-189.5 182.716,-197.591 232.098,-206.304 269.901,-212.884"/>
<polygon fill="orange" stroke="orange" points="131.617,-184.563 121.141,-186.145 130.317,-191.441 131.617,-184.563"/>
<text text-anchor="middle" x="195.5" y="-212.5" font-family="Helvetica,sans-Serif" font-size="10.00"> &lt; Vector&lt; T, 2 &gt;, T, 2 &gt;</text>
</g>
<!-- Node8 -->
<g id="node8" class="node"><title>Node8</title>
<g id="a_node8"><a xlink:href="../../d1/d09/a00077.html" target="_top" xlink:title="mc::VectorBase\&lt; Vector\l\&lt; T, 3 \&gt;, T, 3 \&gt;">
<polygon fill="white" stroke="black" points="270,-159.5 270,-189.5 395,-189.5 395,-159.5 270,-159.5"/>
<text text-anchor="start" x="278" y="-177.5" font-family="Helvetica,sans-Serif" font-size="10.00">mc::VectorBase&lt; Vector</text>
<text text-anchor="middle" x="332.5" y="-166.5" font-family="Helvetica,sans-Serif" font-size="10.00">&lt; T, 3 &gt;, T, 3 &gt;</text>
</a>
</g>
</g>
<!-- Node1&#45;&gt;Node8 -->
<g id="edge7" class="edge"><title>Node1&#45;&gt;Node8</title>
<path fill="none" stroke="orange" stroke-dasharray="5,2" d="M131.156,-174.5C174.001,-174.5 228.418,-174.5 269.723,-174.5"/>
<polygon fill="orange" stroke="orange" points="131.087,-171 121.087,-174.5 131.087,-178 131.087,-171"/>
<text text-anchor="middle" x="195.5" y="-177.5" font-family="Helvetica,sans-Serif" font-size="10.00"> &lt; Vector&lt; T, 3 &gt;, T, 3 &gt;</text>
</g>
<!-- Node10 -->
<g id="node10" class="node"><title>Node10</title>
<g id="a_node10"><a xlink:href="../../d1/d09/a00077.html" target="_top" xlink:title="mc::VectorBase\&lt; Vector\l\&lt; T, N \&gt;, T, N \&gt;">
<polygon fill="white" stroke="black" points="270,-257.5 270,-287.5 395,-287.5 395,-257.5 270,-257.5"/>
<text text-anchor="start" x="278" y="-275.5" font-family="Helvetica,sans-Serif" font-size="10.00">mc::VectorBase&lt; Vector</text>
<text text-anchor="middle" x="332.5" y="-264.5" font-family="Helvetica,sans-Serif" font-size="10.00">&lt; T, N &gt;, T, N &gt;</text>
</a>
</g>
</g>
<!-- Node1&#45;&gt;Node10 -->
<g id="edge9" class="edge"><title>Node1&#45;&gt;Node10</title>
<path fill="none" stroke="orange" stroke-dasharray="5,2" d="M89.2176,-195.564C103.464,-205.544 121.478,-216.912 139,-224.5 181.037,-242.704 231.354,-254.949 270,-262.513"/>
<polygon fill="orange" stroke="orange" points="91.0377,-192.562 80.8726,-189.576 86.9566,-198.249 91.0377,-192.562"/>
<text text-anchor="middle" x="195.5" y="-262.5" font-family="Helvetica,sans-Serif" font-size="10.00"> &lt; Vector&lt; T, N &gt;, T, N &gt;</text>
</g>
<!-- Node13 -->
<g id="node13" class="node"><title>Node13</title>
<g id="a_node13"><a xlink:href="../../d1/d09/a00077.html" target="_top" xlink:title="mc::VectorBase\&lt; Vector\l\&lt; T, 1 \&gt;, T, 1 \&gt;">
<polygon fill="white" stroke="black" points="270,-110.5 270,-140.5 395,-140.5 395,-110.5 270,-110.5"/>
<text text-anchor="start" x="278" y="-128.5" font-family="Helvetica,sans-Serif" font-size="10.00">mc::VectorBase&lt; Vector</text>
<text text-anchor="middle" x="332.5" y="-117.5" font-family="Helvetica,sans-Serif" font-size="10.00">&lt; T, 1 &gt;, T, 1 &gt;</text>
</a>
</g>
</g>
<!-- Node1&#45;&gt;Node13 -->
<g id="edge16" class="edge"><title>Node1&#45;&gt;Node13</title>
<path fill="none" stroke="orange" stroke-dasharray="5,2" d="M130.998,-160.992C133.699,-160.485 136.374,-159.986 139,-159.5 182.716,-151.409 232.098,-142.696 269.901,-136.116"/>
<polygon fill="orange" stroke="orange" points="130.317,-157.559 121.141,-162.855 131.617,-164.437 130.317,-157.559"/>
<text text-anchor="middle" x="195.5" y="-162.5" font-family="Helvetica,sans-Serif" font-size="10.00"> &lt; Vector&lt; T, 1 &gt;, T, 1 &gt;</text>
</g>
<!-- Node15 -->
<g id="node15" class="node"><title>Node15</title>
<g id="a_node15"><a xlink:href="../../d1/d09/a00077.html" target="_top" xlink:title="mc::VectorBase\&lt; Matrix\l\&lt; T, W, H \&gt;, MatrixRow\l\&lt; T, H \&gt;, W \&gt;">
<polygon fill="white" stroke="black" points="271,-50 271,-91 394,-91 394,-50 271,-50"/>
<text text-anchor="start" x="279" y="-79" font-family="Helvetica,sans-Serif" font-size="10.00">mc::VectorBase&lt; Matrix</text>
<text text-anchor="start" x="279" y="-68" font-family="Helvetica,sans-Serif" font-size="10.00">&lt; T, W, H &gt;, MatrixRow</text>
<text text-anchor="middle" x="332.5" y="-57" font-family="Helvetica,sans-Serif" font-size="10.00">&lt; T, H &gt;, W &gt;</text>
</a>
</g>
</g>
<!-- Node1&#45;&gt;Node15 -->
<g id="edge18" class="edge"><title>Node1&#45;&gt;Node15</title>
<path fill="none" stroke="orange" stroke-dasharray="5,2" d="M84.267,-152.555C98.8384,-139.666 118.753,-124.075 139,-114.5 180.683,-94.7869 231.703,-83.6424 270.743,-77.5043"/>
<polygon fill="orange" stroke="orange" points="81.8007,-150.067 76.7532,-159.382 86.5081,-155.247 81.8007,-150.067"/>
<text text-anchor="start" x="139" y="-128.5" font-family="Helvetica,sans-Serif" font-size="10.00"> &lt; Matrix&lt; T, W, H &gt;</text>
<text text-anchor="middle" x="195.5" y="-117.5" font-family="Helvetica,sans-Serif" font-size="10.00">, MatrixRow&lt; T, H &gt;, W &gt;</text>
</g>
<!-- Node17 -->
<g id="node17" class="node"><title>Node17</title>
<g id="a_node17"><a xlink:href="../../d1/d09/a00077.html" target="_top" xlink:title="mc::VectorBase\&lt; Vector\l\&lt; T, 4 \&gt;, T, 4 \&gt;">
<polygon fill="white" stroke="black" points="270,-0.5 270,-30.5 395,-30.5 395,-0.5 270,-0.5"/>
<text text-anchor="start" x="278" y="-18.5" font-family="Helvetica,sans-Serif" font-size="10.00">mc::VectorBase&lt; Vector</text>
<text text-anchor="middle" x="332.5" y="-7.5" font-family="Helvetica,sans-Serif" font-size="10.00">&lt; T, 4 &gt;, T, 4 &gt;</text>
</a>
</g>
</g>
<!-- Node1&#45;&gt;Node17 -->
<g id="edge20" class="edge"><title>Node1&#45;&gt;Node17</title>
<path fill="none" stroke="orange" stroke-dasharray="5,2" d="M72.6222,-150.294C85.2385,-125.538 108.138,-87.7805 139,-66.5 177.709,-39.8085 229.618,-27.0831 269.778,-21.018"/>
<polygon fill="orange" stroke="orange" points="69.4181,-148.879 68.147,-159.397 75.7,-151.967 69.4181,-148.879"/>
<text text-anchor="middle" x="195.5" y="-69.5" font-family="Helvetica,sans-Serif" font-size="10.00"> &lt; Vector&lt; T, 4 &gt;, T, 4 &gt;</text>
</g>
<!-- Node3 -->
<g id="node3" class="node"><title>Node3</title>
<g id="a_node3"><a xlink:href="../../d4/d31/a00069.html" target="_top" xlink:title="mc::Vector\&lt; float, 2 \&gt;">
<polygon fill="white" stroke="black" points="644,-431 644,-450 756,-450 756,-431 644,-431"/>
<text text-anchor="middle" x="700" y="-438" font-family="Helvetica,sans-Serif" font-size="10.00">mc::Vector&lt; float, 2 &gt;</text>
</a>
</g>
</g>
<!-- Node2&#45;&gt;Node3 -->
<g id="edge2" class="edge"><title>Node2&#45;&gt;Node3</title>
<path fill="none" stroke="midnightblue" d="M535.922,-430.599C548.195,-435.477 561.904,-440.037 575,-442.5 597.323,-446.698 622.307,-447.097 643.967,-446.114"/>
<polygon fill="midnightblue" stroke="midnightblue" points="537.003,-427.258 526.426,-426.652 534.316,-433.722 537.003,-427.258"/>
</g>
<!-- Node4 -->
<g id="node4" class="node"><title>Node4</title>
<g id="a_node4"><a xlink:href="../../d4/d31/a00069.html" target="_top" xlink:title="mc::Vector\&lt; float, 3 \&gt;">
<polygon fill="white" stroke="black" points="644,-385 644,-404 756,-404 756,-385 644,-385"/>
<text text-anchor="middle" x="700" y="-392" font-family="Helvetica,sans-Serif" font-size="10.00">mc::Vector&lt; float, 3 &gt;</text>
</a>
</g>
</g>
<!-- Node2&#45;&gt;Node4 -->
<g id="edge3" class="edge"><title>Node2&#45;&gt;Node4</title>
<path fill="none" stroke="midnightblue" d="M561.445,-428.116C582.232,-431.079 605.194,-431.984 626,-427.5 636.809,-425.17 662.351,-413.005 680.156,-404.12"/>
<polygon fill="midnightblue" stroke="midnightblue" points="561.862,-424.638 551.434,-426.511 560.753,-431.55 561.862,-424.638"/>
</g>
<!-- Node5 -->
<g id="node5" class="node"><title>Node5</title>
<g id="a_node5"><a xlink:href="../../d4/d31/a00069.html" target="_top" xlink:title="mc::Vector\&lt; float, 4 \&gt;">
<polygon fill="white" stroke="black" points="644,-322 644,-341 756,-341 756,-322 644,-322"/>
<text text-anchor="middle" x="700" y="-329" font-family="Helvetica,sans-Serif" font-size="10.00">mc::Vector&lt; float, 4 &gt;</text>
</a>
</g>
</g>
<!-- Node2&#45;&gt;Node5 -->
<g id="edge4" class="edge"><title>Node2&#45;&gt;Node5</title>
<path fill="none" stroke="midnightblue" d="M556.875,-393.381C578.936,-386.319 603.836,-377.707 626,-368.5 645.682,-360.324 667.362,-349.026 681.941,-341.072"/>
<polygon fill="midnightblue" stroke="midnightblue" points="555.766,-390.061 547.286,-396.411 557.875,-396.735 555.766,-390.061"/>
</g>
<!-- Node7 -->
<g id="node7" class="node"><title>Node7</title>
<g id="a_node7"><a xlink:href="../../d6/d2c/a00072.html" target="_top" xlink:title="mc::Vector\&lt; T, 2 \&gt;">
<polygon fill="white" stroke="black" points="445,-208 445,-227 544,-227 544,-208 445,-208"/>
<text text-anchor="middle" x="494.5" y="-215" font-family="Helvetica,sans-Serif" font-size="10.00">mc::Vector&lt; T, 2 &gt;</text>
</a>
</g>
</g>
<!-- Node6&#45;&gt;Node7 -->
<g id="edge6" class="edge"><title>Node6&#45;&gt;Node7</title>
<path fill="none" stroke="midnightblue" d="M405.49,-220.8C418.845,-220.3 432.501,-219.787 444.949,-219.321"/>
<polygon fill="midnightblue" stroke="midnightblue" points="405.222,-217.308 395.36,-221.18 405.484,-224.303 405.222,-217.308"/>
</g>
<!-- Node9 -->
<g id="node9" class="node"><title>Node9</title>
<g id="a_node9"><a xlink:href="../../d1/d6e/a00073.html" target="_top" xlink:title="mc::Vector\&lt; T, 3 \&gt;">
<polygon fill="white" stroke="black" points="445,-165 445,-184 544,-184 544,-165 445,-165"/>
<text text-anchor="middle" x="494.5" y="-172" font-family="Helvetica,sans-Serif" font-size="10.00">mc::Vector&lt; T, 3 &gt;</text>
</a>
</g>
</g>
<!-- Node8&#45;&gt;Node9 -->
<g id="edge8" class="edge"><title>Node8&#45;&gt;Node9</title>
<path fill="none" stroke="midnightblue" d="M405.49,-174.5C418.845,-174.5 432.501,-174.5 444.949,-174.5"/>
<polygon fill="midnightblue" stroke="midnightblue" points="405.36,-171 395.36,-174.5 405.36,-178 405.36,-171"/>
</g>
<!-- Node11 -->
<g id="node11" class="node"><title>Node11</title>
<g id="a_node11"><a xlink:href="../../d4/d31/a00069.html" target="_top" xlink:title="mc::Vector\&lt; T, N \&gt;">
<polygon fill="white" stroke="black" points="444,-313 444,-332 545,-332 545,-313 444,-313"/>
<text text-anchor="middle" x="494.5" y="-320" font-family="Helvetica,sans-Serif" font-size="10.00">mc::Vector&lt; T, N &gt;</text>
</a>
</g>
</g>
<!-- Node10&#45;&gt;Node11 -->
<g id="edge10" class="edge"><title>Node10&#45;&gt;Node11</title>
<path fill="none" stroke="midnightblue" d="M391.287,-290.558C415.417,-298.099 442.476,-306.555 462.689,-312.872"/>
<polygon fill="midnightblue" stroke="midnightblue" points="392.094,-287.144 381.505,-287.502 390.006,-293.825 392.094,-287.144"/>
</g>
<!-- Node12 -->
<g id="node12" class="node"><title>Node12</title>
<g id="a_node12"><a xlink:href="../../d4/d31/a00069.html" target="_top" xlink:title="mc::Vector\&lt; T, H \&gt;">
<polygon fill="white" stroke="black" points="649.5,-270 649.5,-289 750.5,-289 750.5,-270 649.5,-270"/>
<text text-anchor="middle" x="700" y="-277" font-family="Helvetica,sans-Serif" font-size="10.00">mc::Vector&lt; T, H &gt;</text>
</a>
</g>
</g>
<!-- Node10&#45;&gt;Node12 -->
<g id="edge15" class="edge"><title>Node10&#45;&gt;Node12</title>
<path fill="none" stroke="midnightblue" d="M405.447,-273.878C477.54,-275.259 586.586,-277.347 649.493,-278.552"/>
<polygon fill="midnightblue" stroke="midnightblue" points="405.154,-270.372 395.089,-273.68 405.02,-277.37 405.154,-270.372"/>
</g>
<!-- Node11&#45;&gt;Node3 -->
<g id="edge14" class="edge"><title>Node11&#45;&gt;Node3</title>
<path fill="none" stroke="orange" stroke-dasharray="5,2" d="M514.747,-338.448C530.405,-351.005 553.373,-368.499 575,-381.5 608.509,-401.645 649.974,-420.193 675.45,-430.922"/>
<polygon fill="orange" stroke="orange" points="516.825,-335.626 506.855,-332.039 512.412,-341.06 516.825,-335.626"/>
<text text-anchor="middle" x="600.5" y="-410.5" font-family="Helvetica,sans-Serif" font-size="10.00"> &lt; float, 2 &gt;</text>
</g>
<!-- Node11&#45;&gt;Node4 -->
<g id="edge13" class="edge"><title>Node11&#45;&gt;Node4</title>
<path fill="none" stroke="orange" stroke-dasharray="5,2" d="M531.955,-335.398C572.14,-349.616 635.85,-372.157 671.865,-384.899"/>
<polygon fill="orange" stroke="orange" points="533.118,-332.097 522.523,-332.061 530.783,-338.696 533.118,-332.097"/>
<text text-anchor="middle" x="600.5" y="-369.5" font-family="Helvetica,sans-Serif" font-size="10.00"> &lt; float, 3 &gt;</text>
</g>
<!-- Node11&#45;&gt;Node5 -->
<g id="edge12" class="edge"><title>Node11&#45;&gt;Node5</title>
<path fill="none" stroke="orange" stroke-dasharray="5,2" d="M555.398,-321.686C577.592,-321.719 602.959,-322.153 626,-323.5 631.727,-323.835 637.697,-324.299 643.647,-324.837"/>
<polygon fill="orange" stroke="orange" points="555.11,-318.186 545.114,-321.698 555.118,-325.186 555.11,-318.186"/>
<text text-anchor="middle" x="600.5" y="-326.5" font-family="Helvetica,sans-Serif" font-size="10.00"> &lt; float, 4 &gt;</text>
</g>
<!-- Node11&#45;&gt;Node12 -->
<g id="edge11" class="edge"><title>Node11&#45;&gt;Node12</title>
<path fill="none" stroke="orange" stroke-dasharray="5,2" d="M550.449,-310.889C582.883,-304.036 623.429,-295.468 653.963,-289.016"/>
<polygon fill="orange" stroke="orange" points="549.724,-307.465 540.663,-312.957 551.171,-314.314 549.724,-307.465"/>
<text text-anchor="middle" x="600.5" y="-308.5" font-family="Helvetica,sans-Serif" font-size="10.00"> &lt; T, H &gt;</text>
</g>
<!-- Node14 -->
<g id="node14" class="node"><title>Node14</title>
<g id="a_node14"><a xlink:href="../../d0/d89/a00071.html" target="_top" xlink:title="mc::Vector\&lt; T, 1 \&gt;">
<polygon fill="white" stroke="black" points="445,-116 445,-135 544,-135 544,-116 445,-116"/>
<text text-anchor="middle" x="494.5" y="-123" font-family="Helvetica,sans-Serif" font-size="10.00">mc::Vector&lt; T, 1 &gt;</text>
</a>
</g>
</g>
<!-- Node13&#45;&gt;Node14 -->
<g id="edge17" class="edge"><title>Node13&#45;&gt;Node14</title>
<path fill="none" stroke="midnightblue" d="M405.49,-125.5C418.845,-125.5 432.501,-125.5 444.949,-125.5"/>
<polygon fill="midnightblue" stroke="midnightblue" points="405.36,-122 395.36,-125.5 405.36,-129 405.36,-122"/>
</g>
<!-- Node16 -->
<g id="node16" class="node"><title>Node16</title>
<g id="a_node16"><a xlink:href="../../db/d3a/a00040.html" target="_top" xlink:title="A class representing a 2&#45;dimensional matrix, and allows for math involving matrices. ">
<polygon fill="white" stroke="black" points="437,-61 437,-80 552,-80 552,-61 437,-61"/>
<text text-anchor="middle" x="494.5" y="-68" font-family="Helvetica,sans-Serif" font-size="10.00">mc::Matrix&lt; T, W, H &gt;</text>
</a>
</g>
</g>
<!-- Node15&#45;&gt;Node16 -->
<g id="edge19" class="edge"><title>Node15&#45;&gt;Node16</title>
<path fill="none" stroke="midnightblue" d="M404.702,-70.5C415.496,-70.5 426.506,-70.5 436.933,-70.5"/>
<polygon fill="midnightblue" stroke="midnightblue" points="404.446,-67.0001 394.446,-70.5 404.446,-74.0001 404.446,-67.0001"/>
</g>
<!-- Node18 -->
<g id="node18" class="node"><title>Node18</title>
<g id="a_node18"><a xlink:href="../../db/db6/a00074.html" target="_top" xlink:title="mc::Vector\&lt; T, 4 \&gt;">
<polygon fill="white" stroke="black" points="445,-6 445,-25 544,-25 544,-6 445,-6"/>
<text text-anchor="middle" x="494.5" y="-13" font-family="Helvetica,sans-Serif" font-size="10.00">mc::Vector&lt; T, 4 &gt;</text>
</a>
</g>
</g>
<!-- Node17&#45;&gt;Node18 -->
<g id="edge21" class="edge"><title>Node17&#45;&gt;Node18</title>
<path fill="none" stroke="midnightblue" d="M405.49,-15.5C418.845,-15.5 432.501,-15.5 444.949,-15.5"/>
<polygon fill="midnightblue" stroke="midnightblue" points="405.36,-12.0001 395.36,-15.5 405.36,-19.0001 405.36,-12.0001"/>
</g>
</g>
</svg>
