<?xml version="1.0" encoding="UTF-8" standalone="no"?>
<!DOCTYPE svg PUBLIC "-//W3C//DTD SVG 1.1//EN"
 "http://www.w3.org/Graphics/SVG/1.1/DTD/svg11.dtd">
<!-- Generated by graphviz version 2.38.0 (20140413.2041)
 -->
<!-- Title: mc::gfx::ogl::Object Pages: 1 -->
<svg width="587pt" height="408pt"
 viewBox="0.00 0.00 587.00 408.00" xmlns="http://www.w3.org/2000/svg" xmlns:xlink="http://www.w3.org/1999/xlink">
<g id="graph0" class="graph" transform="scale(1 1) rotate(0) translate(4 404)">
<title>mc::gfx::ogl::Object</title>
<polygon fill="white" stroke="none" points="-4,4 -4,-404 583,-404 583,4 -4,4"/>
<!-- Node1 -->
<g id="node1" class="node"><title>Node1</title>
<polygon fill="#bfbfbf" stroke="black" points="120,-133.5 120,-152.5 222,-152.5 222,-133.5 120,-133.5"/>
<text text-anchor="middle" x="171" y="-140.5" font-family="Helvetica,sans-Serif" font-size="10.00">mc::gfx::ogl::Object</text>
</g>
<!-- Node3 -->
<g id="node3" class="node"><title>Node3</title>
<g id="a_node3"><a xlink:href="../../da/d45/a00011.html" target="_top" xlink:title="Represents a sslBuffer of memory in the GPU. ">
<polygon fill="white" stroke="black" points="279.5,-266.5 279.5,-285.5 377.5,-285.5 377.5,-266.5 279.5,-266.5"/>
<text text-anchor="middle" x="328.5" y="-273.5" font-family="Helvetica,sans-Serif" font-size="10.00">mc::gfx::ogl::Buffer</text>
</a>
</g>
</g>
<!-- Node1&#45;&gt;Node3 -->
<g id="edge2" class="edge"><title>Node1&#45;&gt;Node3</title>
<path fill="none" stroke="midnightblue" d="M181.037,-161.643C194.333,-187.081 221.585,-232.318 258,-257 264.42,-261.351 271.806,-264.709 279.315,-267.3"/>
<polygon fill="midnightblue" stroke="midnightblue" points="184.127,-159.998 176.491,-152.653 177.881,-163.157 184.127,-159.998"/>
</g>
<!-- Node11 -->
<g id="node11" class="node"><title>Node11</title>
<g id="a_node11"><a xlink:href="../../d6/d5b/a00026.html" target="_top" xlink:title="Represents an OpenGL Framebuffer Object which allows rendering to a non&#45;screen location. ">
<polygon fill="white" stroke="black" points="265.5,-228.5 265.5,-247.5 391.5,-247.5 391.5,-228.5 265.5,-228.5"/>
<text text-anchor="middle" x="328.5" y="-235.5" font-family="Helvetica,sans-Serif" font-size="10.00">mc::gfx::ogl::FrameBuffer</text>
</a>
</g>
</g>
<!-- Node1&#45;&gt;Node11 -->
<g id="edge10" class="edge"><title>Node1&#45;&gt;Node11</title>
<path fill="none" stroke="midnightblue" d="M187.168,-160.427C203.136,-177.72 229.828,-203.781 258,-219 265.044,-222.805 272.909,-225.895 280.745,-228.39"/>
<polygon fill="midnightblue" stroke="midnightblue" points="189.524,-157.814 180.23,-152.728 184.324,-162.5 189.524,-157.814"/>
</g>
<!-- Node12 -->
<g id="node12" class="node"><title>Node12</title>
<g id="a_node12"><a xlink:href="../../d2/d79/a00051.html" target="_top" xlink:title="Special object that is used for asynchronous queries of information from the GPU. ...">
<polygon fill="white" stroke="black" points="264.5,-190.5 264.5,-209.5 392.5,-209.5 392.5,-190.5 264.5,-190.5"/>
<text text-anchor="middle" x="328.5" y="-197.5" font-family="Helvetica,sans-Serif" font-size="10.00">mc::gfx::ogl::QueryObject</text>
</a>
</g>
</g>
<!-- Node1&#45;&gt;Node12 -->
<g id="edge11" class="edge"><title>Node1&#45;&gt;Node12</title>
<path fill="none" stroke="midnightblue" d="M200.6,-156.923C217.128,-164.642 238.457,-174.055 258,-181 267.783,-184.477 278.528,-187.696 288.583,-190.46"/>
<polygon fill="midnightblue" stroke="midnightblue" points="202.009,-153.718 191.473,-152.605 199.015,-160.046 202.009,-153.718"/>
</g>
<!-- Node13 -->
<g id="node13" class="node"><title>Node13</title>
<g id="a_node13"><a xlink:href="../../d1/d84/a00052.html" target="_top" xlink:title="Represents a render buffer for use with a `FrameBuffer. ">
<polygon fill="white" stroke="black" points="264,-152.5 264,-171.5 393,-171.5 393,-152.5 264,-152.5"/>
<text text-anchor="middle" x="328.5" y="-159.5" font-family="Helvetica,sans-Serif" font-size="10.00">mc::gfx::ogl::RenderBuffer</text>
</a>
</g>
</g>
<!-- Node1&#45;&gt;Node13 -->
<g id="edge12" class="edge"><title>Node1&#45;&gt;Node13</title>
<path fill="none" stroke="midnightblue" d="M232.25,-150.362C242.618,-151.629 253.424,-152.949 263.877,-154.226"/>
<polygon fill="midnightblue" stroke="midnightblue" points="232.408,-146.855 222.057,-149.116 231.559,-153.803 232.408,-146.855"/>
</g>
<!-- Node14 -->
<g id="node14" class="node"><title>Node14</title>
<g id="a_node14"><a xlink:href="../../d9/d2e/a00056.html" target="_top" xlink:title="Represents a shader object in OpenGL. ">
<polygon fill="white" stroke="black" points="276.5,-114.5 276.5,-133.5 380.5,-133.5 380.5,-114.5 276.5,-114.5"/>
<text text-anchor="middle" x="328.5" y="-121.5" font-family="Helvetica,sans-Serif" font-size="10.00">mc::gfx::ogl::Shader</text>
</a>
</g>
</g>
<!-- Node1&#45;&gt;Node14 -->
<g id="edge13" class="edge"><title>Node1&#45;&gt;Node14</title>
<path fill="none" stroke="midnightblue" d="M232.043,-135.664C246.711,-133.871 262.267,-131.971 276.469,-130.235"/>
<polygon fill="midnightblue" stroke="midnightblue" points="231.559,-132.197 222.057,-136.884 232.408,-139.145 231.559,-132.197"/>
</g>
<!-- Node15 -->
<g id="node15" class="node"><title>Node15</title>
<g id="a_node15"><a xlink:href="../../d1/d22/a00057.html" target="_top" xlink:title="mc::gfx::ogl::ShaderProgram">
<polygon fill="white" stroke="black" points="258,-76.5 258,-95.5 399,-95.5 399,-76.5 258,-76.5"/>
<text text-anchor="middle" x="328.5" y="-83.5" font-family="Helvetica,sans-Serif" font-size="10.00">mc::gfx::ogl::ShaderProgram</text>
</a>
</g>
</g>
<!-- Node1&#45;&gt;Node15 -->
<g id="edge14" class="edge"><title>Node1&#45;&gt;Node15</title>
<path fill="none" stroke="midnightblue" d="M200.6,-129.077C217.128,-121.358 238.457,-111.945 258,-105 267.783,-101.523 278.528,-98.3038 288.583,-95.5402"/>
<polygon fill="midnightblue" stroke="midnightblue" points="199.015,-125.954 191.473,-133.395 202.009,-132.282 199.015,-125.954"/>
</g>
<!-- Node16 -->
<g id="node16" class="node"><title>Node16</title>
<g id="a_node16"><a xlink:href="../../de/de1/a00065.html" target="_top" xlink:title="mc::gfx::ogl::Texture2D">
<polygon fill="white" stroke="black" points="269.5,-38.5 269.5,-57.5 387.5,-57.5 387.5,-38.5 269.5,-38.5"/>
<text text-anchor="middle" x="328.5" y="-45.5" font-family="Helvetica,sans-Serif" font-size="10.00">mc::gfx::ogl::Texture2D</text>
</a>
</g>
</g>
<!-- Node1&#45;&gt;Node16 -->
<g id="edge15" class="edge"><title>Node1&#45;&gt;Node16</title>
<path fill="none" stroke="midnightblue" d="M187.168,-125.573C203.136,-108.28 229.828,-82.2193 258,-67 265.044,-63.1949 272.909,-60.1049 280.745,-57.6102"/>
<polygon fill="midnightblue" stroke="midnightblue" points="184.324,-123.5 180.23,-133.272 189.524,-128.186 184.324,-123.5"/>
</g>
<!-- Node17 -->
<g id="node17" class="node"><title>Node17</title>
<g id="a_node17"><a xlink:href="../../d9/da4/a00078.html" target="_top" xlink:title="mc::gfx::ogl::VertexArray">
<polygon fill="white" stroke="black" points="266,-0.5 266,-19.5 391,-19.5 391,-0.5 266,-0.5"/>
<text text-anchor="middle" x="328.5" y="-7.5" font-family="Helvetica,sans-Serif" font-size="10.00">mc::gfx::ogl::VertexArray</text>
</a>
</g>
</g>
<!-- Node1&#45;&gt;Node17 -->
<g id="edge16" class="edge"><title>Node1&#45;&gt;Node17</title>
<path fill="none" stroke="midnightblue" d="M181.037,-124.357C194.333,-98.9193 221.585,-53.6825 258,-29 263.695,-25.14 270.151,-22.0615 276.778,-19.607"/>
<polygon fill="midnightblue" stroke="midnightblue" points="177.881,-122.843 176.491,-133.347 184.127,-126.002 177.881,-122.843"/>
</g>
<!-- Node2 -->
<g id="node2" class="node"><title>Node2</title>
<g id="a_node2"><a xlink:href="../../d4/d8c/a00035.html" target="_top" xlink:title="mc::Initializable">
<polygon fill="white" stroke="black" points="0,-133.5 0,-152.5 84,-152.5 84,-133.5 0,-133.5"/>
<text text-anchor="middle" x="42" y="-140.5" font-family="Helvetica,sans-Serif" font-size="10.00">mc::Initializable</text>
</a>
</g>
</g>
<!-- Node2&#45;&gt;Node1 -->
<g id="edge1" class="edge"><title>Node2&#45;&gt;Node1</title>
<path fill="none" stroke="midnightblue" d="M94.2602,-143C102.634,-143 111.303,-143 119.655,-143"/>
<polygon fill="midnightblue" stroke="midnightblue" points="94.2333,-139.5 84.2333,-143 94.2332,-146.5 94.2333,-139.5"/>
</g>
<!-- Node4 -->
<g id="node4" class="node"><title>Node4</title>
<g id="a_node4"><a xlink:href="../../d7/d7a/a00016.html" target="_top" xlink:title="Special sslBuffer with no extra semantics to be used as a proxy in copying. ">
<polygon fill="white" stroke="black" points="435.5,-380.5 435.5,-399.5 578.5,-399.5 578.5,-380.5 435.5,-380.5"/>
<text text-anchor="middle" x="507" y="-387.5" font-family="Helvetica,sans-Serif" font-size="10.00">mc::gfx::ogl::CopyReadBuffer</text>
</a>
</g>
</g>
<!-- Node3&#45;&gt;Node4 -->
<g id="edge3" class="edge"><title>Node3&#45;&gt;Node4</title>
<path fill="none" stroke="midnightblue" d="M344.039,-293.385C362.864,-314.782 397.709,-350.759 435,-371 442.065,-374.835 449.953,-377.933 457.83,-380.425"/>
<polygon fill="midnightblue" stroke="midnightblue" points="346.6,-290.996 337.42,-285.706 341.298,-295.566 346.6,-290.996"/>
</g>
<!-- Node5 -->
<g id="node5" class="node"><title>Node5</title>
<g id="a_node5"><a xlink:href="../../d4/d51/a00017.html" target="_top" xlink:title="Special sslBuffer with no extra semantics to be used as a proxy in copying. ">
<polygon fill="white" stroke="black" points="435,-342.5 435,-361.5 579,-361.5 579,-342.5 435,-342.5"/>
<text text-anchor="middle" x="507" y="-349.5" font-family="Helvetica,sans-Serif" font-size="10.00">mc::gfx::ogl::CopyWriteBuffer</text>
</a>
</g>
</g>
<!-- Node3&#45;&gt;Node5 -->
<g id="edge4" class="edge"><title>Node3&#45;&gt;Node5</title>
<path fill="none" stroke="midnightblue" d="M353.488,-291.067C374.378,-303.668 405.81,-321.395 435,-333 444.13,-336.63 454.191,-339.795 463.797,-342.447"/>
<polygon fill="midnightblue" stroke="midnightblue" points="355.035,-287.91 344.678,-285.679 351.383,-293.882 355.035,-287.91"/>
</g>
<!-- Node6 -->
<g id="node6" class="node"><title>Node6</title>
<g id="a_node6"><a xlink:href="../../db/db2/a00020.html" target="_top" xlink:title="Stores element indices to save vertex data. ">
<polygon fill="white" stroke="black" points="440,-304.5 440,-323.5 574,-323.5 574,-304.5 440,-304.5"/>
<text text-anchor="middle" x="507" y="-311.5" font-family="Helvetica,sans-Serif" font-size="10.00">mc::gfx::ogl::ElementBuffer</text>
</a>
</g>
</g>
<!-- Node3&#45;&gt;Node6 -->
<g id="edge5" class="edge"><title>Node3&#45;&gt;Node6</title>
<path fill="none" stroke="midnightblue" d="M384.088,-287.753C409.045,-293.126 438.227,-299.409 461.782,-304.48"/>
<polygon fill="midnightblue" stroke="midnightblue" points="384.551,-284.272 374.038,-285.589 383.078,-291.115 384.551,-284.272"/>
</g>
<!-- Node7 -->
<g id="node7" class="node"><title>Node7</title>
<g id="a_node7"><a xlink:href="../../d3/dea/a00046.html" target="_top" xlink:title="Special buffer that excels at asynchronous pixel transfer operations. ">
<polygon fill="white" stroke="black" points="435.5,-266.5 435.5,-285.5 578.5,-285.5 578.5,-266.5 435.5,-266.5"/>
<text text-anchor="middle" x="507" y="-273.5" font-family="Helvetica,sans-Serif" font-size="10.00">mc::gfx::ogl::PixelPackBuffer</text>
</a>
</g>
</g>
<!-- Node3&#45;&gt;Node7 -->
<g id="edge6" class="edge"><title>Node3&#45;&gt;Node7</title>
<path fill="none" stroke="midnightblue" d="M387.983,-276C403.137,-276 419.617,-276 435.323,-276"/>
<polygon fill="midnightblue" stroke="midnightblue" points="387.729,-272.5 377.729,-276 387.729,-279.5 387.729,-272.5"/>
</g>
<!-- Node8 -->
<g id="node8" class="node"><title>Node8</title>
<g id="a_node8"><a xlink:href="../../d6/d2d/a00047.html" target="_top" xlink:title="Special buffer that excels at asynchronous pixel transfer operations. ">
<polygon fill="white" stroke="black" points="443,-217 443,-247 571,-247 571,-217 443,-217"/>
<text text-anchor="start" x="451" y="-235" font-family="Helvetica,sans-Serif" font-size="10.00">mc::gfx::ogl::PixelUnpack</text>
<text text-anchor="middle" x="507" y="-224" font-family="Helvetica,sans-Serif" font-size="10.00">Buffer</text>
</a>
</g>
</g>
<!-- Node3&#45;&gt;Node8 -->
<g id="edge7" class="edge"><title>Node3&#45;&gt;Node8</title>
<path fill="none" stroke="midnightblue" d="M377.741,-263.974C398.677,-258.755 423.424,-252.586 445.567,-247.065"/>
<polygon fill="midnightblue" stroke="midnightblue" points="376.654,-260.638 367.798,-266.453 378.348,-267.43 376.654,-260.638"/>
</g>
<!-- Node9 -->
<g id="node9" class="node"><title>Node9</title>
<g id="a_node9"><a xlink:href="../../da/d24/a00068.html" target="_top" xlink:title="Stores uniform data for a shader in the form of a sslBuffer. ">
<polygon fill="white" stroke="black" points="441.5,-178.5 441.5,-197.5 572.5,-197.5 572.5,-178.5 441.5,-178.5"/>
<text text-anchor="middle" x="507" y="-185.5" font-family="Helvetica,sans-Serif" font-size="10.00">mc::gfx::ogl::UniformBuffer</text>
</a>
</g>
</g>
<!-- Node3&#45;&gt;Node9 -->
<g id="edge8" class="edge"><title>Node3&#45;&gt;Node9</title>
<path fill="none" stroke="midnightblue" d="M387.122,-263.686C391.303,-261.77 395.317,-259.557 399,-257 421.494,-241.385 412.464,-222.555 435,-207 440.671,-203.086 447.108,-199.978 453.737,-197.51"/>
<polygon fill="midnightblue" stroke="midnightblue" points="385.757,-260.462 377.769,-267.423 388.354,-266.963 385.757,-260.462"/>
</g>
<!-- Node10 -->
<g id="node10" class="node"><title>Node10</title>
<g id="a_node10"><a xlink:href="../../d1/d51/a00079.html" target="_top" xlink:title="Stores vertex data for a `VertexArray. ">
<polygon fill="white" stroke="black" points="443.5,-140.5 443.5,-159.5 570.5,-159.5 570.5,-140.5 443.5,-140.5"/>
<text text-anchor="middle" x="507" y="-147.5" font-family="Helvetica,sans-Serif" font-size="10.00">mc::gfx::ogl::VertexBuffer</text>
</a>
</g>
</g>
<!-- Node3&#45;&gt;Node10 -->
<g id="edge9" class="edge"><title>Node3&#45;&gt;Node10</title>
<path fill="none" stroke="midnightblue" d="M386.917,-265.089C391.281,-262.867 395.385,-260.2 399,-257 430.639,-228.988 403.286,-196.927 435,-169 439.405,-165.121 444.52,-162.022 449.946,-159.549"/>
<polygon fill="midnightblue" stroke="midnightblue" points="385.48,-261.897 377.668,-269.053 388.238,-268.331 385.48,-261.897"/>
</g>
</g>
</svg>
