<?xml version="1.0" encoding="UTF-8" standalone="no"?>
<!DOCTYPE svg PUBLIC "-//W3C//DTD SVG 1.1//EN"
 "http://www.w3.org/Graphics/SVG/1.1/DTD/svg11.dtd">
<!-- Generated by graphviz version 2.38.0 (20140413.2041)
 -->
<!-- Title: mc::gfx::Entity Pages: 1 -->
<svg width="500pt" height="196pt"
 viewBox="0.00 0.00 499.50 196.00" xmlns="http://www.w3.org/2000/svg" xmlns:xlink="http://www.w3.org/1999/xlink">
<g id="graph0" class="graph" transform="scale(1 1) rotate(0) translate(4 192)">
<title>mc::gfx::Entity</title>
<polygon fill="white" stroke="none" points="-4,4 -4,-192 495.5,-192 495.5,4 -4,4"/>
<!-- Node1 -->
<g id="node1" class="node"><title>Node1</title>
<polygon fill="#bfbfbf" stroke="black" points="215,-168.5 215,-187.5 295,-187.5 295,-168.5 215,-168.5"/>
<text text-anchor="middle" x="255" y="-175.5" font-family="Helvetica,sans-Serif" font-size="10.00">mc::gfx::Entity</text>
</g>
<!-- Node2 -->
<g id="node2" class="node"><title>Node2</title>
<g id="a_node2"><a xlink:href="$d4/dee/a00008.html" xlink:title="mc::gfx::CallbackEntity">
<polygon fill="white" stroke="black" points="0,-112.5 0,-131.5 118,-131.5 118,-112.5 0,-112.5"/>
<text text-anchor="middle" x="59" y="-119.5" font-family="Helvetica,sans-Serif" font-size="10.00">mc::gfx::CallbackEntity</text>
</a>
</g>
</g>
<!-- Node1&#45;&gt;Node2 -->
<g id="edge1" class="edge"><title>Node1&#45;&gt;Node2</title>
<path fill="none" stroke="midnightblue" d="M213.98,-165.699C176.989,-155.507 123.4,-140.743 89.9115,-131.516"/>
<polygon fill="midnightblue" stroke="midnightblue" points="213.373,-169.162 223.943,-168.444 215.232,-162.413 213.373,-169.162"/>
</g>
<!-- Node3 -->
<g id="node3" class="node"><title>Node3</title>
<g id="a_node3"><a xlink:href="$dd/d1b/a00015.html" xlink:title="mc::gfx::GraphicsEntity">
<polygon fill="white" stroke="black" points="136.5,-112.5 136.5,-131.5 255.5,-131.5 255.5,-112.5 136.5,-112.5"/>
<text text-anchor="middle" x="196" y="-119.5" font-family="Helvetica,sans-Serif" font-size="10.00">mc::gfx::GraphicsEntity</text>
</a>
</g>
</g>
<!-- Node1&#45;&gt;Node3 -->
<g id="edge2" class="edge"><title>Node1&#45;&gt;Node3</title>
<path fill="none" stroke="midnightblue" d="M238.105,-161.537C227.585,-151.909 214.431,-139.869 205.652,-131.834"/>
<polygon fill="midnightblue" stroke="midnightblue" points="235.781,-164.154 245.521,-168.324 240.507,-158.99 235.781,-164.154"/>
</g>
<!-- Node6 -->
<g id="node6" class="node"><title>Node6</title>
<g id="a_node6"><a xlink:href="$d7/d7a/a00016.html" xlink:title="mc::gfx::Group">
<polygon fill="white" stroke="black" points="273.5,-112.5 273.5,-131.5 354.5,-131.5 354.5,-112.5 273.5,-112.5"/>
<text text-anchor="middle" x="314" y="-119.5" font-family="Helvetica,sans-Serif" font-size="10.00">mc::gfx::Group</text>
</a>
</g>
</g>
<!-- Node1&#45;&gt;Node6 -->
<g id="edge5" class="edge"><title>Node1&#45;&gt;Node6</title>
<path fill="none" stroke="midnightblue" d="M271.895,-161.537C282.415,-151.909 295.569,-139.869 304.348,-131.834"/>
<polygon fill="midnightblue" stroke="midnightblue" points="269.493,-158.99 264.479,-168.324 274.219,-164.154 269.493,-158.99"/>
</g>
<!-- Node7 -->
<g id="node7" class="node"><title>Node7</title>
<g id="a_node7"><a xlink:href="$d1/dc6/a00037.html" xlink:title="mc::os::WindowModule">
<polygon fill="white" stroke="black" points="372.5,-112.5 372.5,-131.5 491.5,-131.5 491.5,-112.5 372.5,-112.5"/>
<text text-anchor="middle" x="432" y="-119.5" font-family="Helvetica,sans-Serif" font-size="10.00">mc::os::WindowModule</text>
</a>
</g>
</g>
<!-- Node1&#45;&gt;Node7 -->
<g id="edge6" class="edge"><title>Node1&#45;&gt;Node7</title>
<path fill="none" stroke="midnightblue" d="M292.903,-165.436C326.275,-155.255 374.101,-140.664 404.085,-131.516"/>
<polygon fill="midnightblue" stroke="midnightblue" points="291.59,-162.178 283.046,-168.444 293.632,-168.873 291.59,-162.178"/>
</g>
<!-- Node4 -->
<g id="node4" class="node"><title>Node4</title>
<g id="a_node4"><a xlink:href="$df/d86/a00012.html" xlink:title="mc::gfx::Entity2D">
<polygon fill="white" stroke="black" points="150,-56.5 150,-75.5 242,-75.5 242,-56.5 150,-56.5"/>
<text text-anchor="middle" x="196" y="-63.5" font-family="Helvetica,sans-Serif" font-size="10.00">mc::gfx::Entity2D</text>
</a>
</g>
</g>
<!-- Node3&#45;&gt;Node4 -->
<g id="edge3" class="edge"><title>Node3&#45;&gt;Node4</title>
<path fill="none" stroke="midnightblue" d="M196,-101.805C196,-92.9102 196,-82.7798 196,-75.7511"/>
<polygon fill="midnightblue" stroke="midnightblue" points="192.5,-102.083 196,-112.083 199.5,-102.083 192.5,-102.083"/>
</g>
<!-- Node5 -->
<g id="node5" class="node"><title>Node5</title>
<g id="a_node5"><a xlink:href="$d4/d51/a00017.html" xlink:title="mc::gfx::Image">
<polygon fill="white" stroke="black" points="155.5,-0.5 155.5,-19.5 236.5,-19.5 236.5,-0.5 155.5,-0.5"/>
<text text-anchor="middle" x="196" y="-7.5" font-family="Helvetica,sans-Serif" font-size="10.00">mc::gfx::Image</text>
</a>
</g>
</g>
<!-- Node4&#45;&gt;Node5 -->
<g id="edge4" class="edge"><title>Node4&#45;&gt;Node5</title>
<path fill="none" stroke="midnightblue" d="M196,-45.8045C196,-36.9102 196,-26.7798 196,-19.7511"/>
<polygon fill="midnightblue" stroke="midnightblue" points="192.5,-46.083 196,-56.083 199.5,-46.083 192.5,-46.083"/>
</g>
</g>
</svg>
