<?xml version="1.0" encoding="UTF-8" standalone="no"?>
<!DOCTYPE svg PUBLIC "-//W3C//DTD SVG 1.1//EN"
 "http://www.w3.org/Graphics/SVG/1.1/DTD/svg11.dtd">
<!-- Generated by graphviz version 2.38.0 (20140413.2041)
 -->
<!-- Title: mc::gfx::CallbackEntity Pages: 1 -->
<svg width="228pt" height="518pt"
 viewBox="0.00 0.00 227.50 518.00" xmlns="http://www.w3.org/2000/svg" xmlns:xlink="http://www.w3.org/1999/xlink">
<g id="graph0" class="graph" transform="scale(1 1) rotate(0) translate(4 514)">
<title>mc::gfx::CallbackEntity</title>
<polygon fill="white" stroke="none" points="-4,4 -4,-514 223.5,-514 223.5,4 -4,4"/>
<!-- Node1 -->
<g id="node1" class="node"><title>Node1</title>
<polygon fill="#bfbfbf" stroke="black" points="28.5,-0.5 28.5,-19.5 146.5,-19.5 146.5,-0.5 28.5,-0.5"/>
<text text-anchor="middle" x="87.5" y="-7.5" font-family="Helvetica,sans-Serif" font-size="10.00">mc::gfx::CallbackEntity</text>
</g>
<!-- Node2 -->
<g id="node2" class="node"><title>Node2</title>
<g id="a_node2"><a xlink:href="$da/d45/a00011.html" xlink:title="Abstract superclass for all graphical objects. ">
<polygon fill="white" stroke="black" points="47.5,-57.5 47.5,-76.5 127.5,-76.5 127.5,-57.5 47.5,-57.5"/>
<text text-anchor="middle" x="87.5" y="-64.5" font-family="Helvetica,sans-Serif" font-size="10.00">mc::gfx::Entity</text>
</a>
</g>
</g>
<!-- Node2&#45;&gt;Node1 -->
<g id="edge1" class="edge"><title>Node2&#45;&gt;Node1</title>
<path fill="none" stroke="midnightblue" d="M87.5,-47.1166C87.5,-37.8173 87.5,-27.0557 87.5,-19.7149"/>
<polygon fill="midnightblue" stroke="midnightblue" points="84.0001,-47.4062 87.5,-57.4063 91.0001,-47.4063 84.0001,-47.4062"/>
</g>
<!-- Node3 -->
<g id="node3" class="node"><title>Node3</title>
<g id="a_node3"><a xlink:href="$d4/d8c/a00035.html" xlink:title="Matrix&#45;based class that allows for the easy creation and management of transformation matrices...">
<polygon fill="white" stroke="black" points="34.5,-124.5 34.5,-143.5 140.5,-143.5 140.5,-124.5 34.5,-124.5"/>
<text text-anchor="middle" x="87.5" y="-131.5" font-family="Helvetica,sans-Serif" font-size="10.00">mc::TransformMatrix</text>
</a>
</g>
</g>
<!-- Node3&#45;&gt;Node2 -->
<g id="edge2" class="edge"><title>Node3&#45;&gt;Node2</title>
<path fill="none" stroke="#9a32cd" stroke-dasharray="5,2" d="M87.5,-114.037C87.5,-101.67 87.5,-86.1198 87.5,-76.6273"/>
<polygon fill="#9a32cd" stroke="#9a32cd" points="84.0001,-114.234 87.5,-124.234 91.0001,-114.234 84.0001,-114.234"/>
<text text-anchor="middle" x="120" y="-98" font-family="Helvetica,sans-Serif" font-size="10.00"> transformation</text>
</g>
<!-- Node4 -->
<g id="node4" class="node"><title>Node4</title>
<g id="a_node4"><a xlink:href="$d1/dc6/a00037.html" xlink:title="mc::Vector\&lt; float, 3 \&gt;">
<polygon fill="white" stroke="black" points="31.5,-213.5 31.5,-232.5 143.5,-232.5 143.5,-213.5 31.5,-213.5"/>
<text text-anchor="middle" x="87.5" y="-220.5" font-family="Helvetica,sans-Serif" font-size="10.00">mc::Vector&lt; float, 3 &gt;</text>
</a>
</g>
</g>
<!-- Node4&#45;&gt;Node3 -->
<g id="edge3" class="edge"><title>Node4&#45;&gt;Node3</title>
<path fill="none" stroke="#9a32cd" stroke-dasharray="5,2" d="M87.5,-203.195C87.5,-184.738 87.5,-157.412 87.5,-143.625"/>
<polygon fill="#9a32cd" stroke="#9a32cd" points="84.0001,-203.34 87.5,-213.34 91.0001,-203.34 84.0001,-203.34"/>
<text text-anchor="middle" x="110.5" y="-187" font-family="Helvetica,sans-Serif" font-size="10.00"> rotation</text>
<text text-anchor="middle" x="110.5" y="-176" font-family="Helvetica,sans-Serif" font-size="10.00">scaler</text>
<text text-anchor="middle" x="110.5" y="-165" font-family="Helvetica,sans-Serif" font-size="10.00">translation</text>
</g>
<!-- Node5 -->
<g id="node5" class="node"><title>Node5</title>
<polygon fill="white" stroke="#bfbfbf" points="0,-318.5 0,-337.5 107,-337.5 107,-318.5 0,-318.5"/>
<text text-anchor="middle" x="53.5" y="-325.5" font-family="Helvetica,sans-Serif" font-size="10.00">std::array&lt; float, N &gt;</text>
</g>
<!-- Node5&#45;&gt;Node4 -->
<g id="edge4" class="edge"><title>Node5&#45;&gt;Node4</title>
<path fill="none" stroke="#9a32cd" stroke-dasharray="5,2" d="M56.0641,-308.298C57.5166,-299.581 59.6274,-289.139 62.5,-280 67.9273,-262.733 77.171,-243.704 82.769,-232.867"/>
<polygon fill="#9a32cd" stroke="#9a32cd" points="52.6031,-307.778 54.5687,-318.189 59.5244,-308.824 52.6031,-307.778"/>
<text text-anchor="middle" x="80.5" y="-287.5" font-family="Helvetica,sans-Serif" font-size="10.00"> content</text>
</g>
<!-- Node6 -->
<g id="node6" class="node"><title>Node6</title>
<g id="a_node6"><a xlink:title="STL class. ">
<polygon fill="white" stroke="#bfbfbf" points="66,-423.5 66,-442.5 147,-442.5 147,-423.5 66,-423.5"/>
<text text-anchor="middle" x="106.5" y="-430.5" font-family="Helvetica,sans-Serif" font-size="10.00">std::array&lt; T &gt;</text>
</a>
</g>
</g>
<!-- Node6&#45;&gt;Node5 -->
<g id="edge5" class="edge"><title>Node6&#45;&gt;Node5</title>
<path fill="none" stroke="orange" stroke-dasharray="5,2" d="M78.874,-417.756C74.1128,-414.179 69.6808,-409.927 66.5,-405 52.8514,-383.857 52.2382,-352.78 52.8754,-337.763"/>
<polygon fill="orange" stroke="orange" points="77.3161,-420.919 87.6004,-423.465 81.1488,-415.061 77.3161,-420.919"/>
<text text-anchor="middle" x="92.5" y="-397" font-family="Helvetica,sans-Serif" font-size="10.00"> &lt; float, N &gt;</text>
</g>
<!-- Node9 -->
<g id="node9" class="node"><title>Node9</title>
<polygon fill="white" stroke="#bfbfbf" points="111.5,-356.5 111.5,-375.5 205.5,-375.5 205.5,-356.5 111.5,-356.5"/>
<text text-anchor="middle" x="158.5" y="-363.5" font-family="Helvetica,sans-Serif" font-size="10.00">std::array&lt; T, N &gt;</text>
</g>
<!-- Node6&#45;&gt;Node9 -->
<g id="edge10" class="edge"><title>Node6&#45;&gt;Node9</title>
<path fill="none" stroke="orange" stroke-dasharray="5,2" d="M115.755,-414.455C119.622,-407.777 124.401,-400.271 129.5,-394 134.968,-387.275 142.079,-380.629 147.891,-375.614"/>
<polygon fill="orange" stroke="orange" points="112.582,-412.962 110.813,-423.408 118.71,-416.345 112.582,-412.962"/>
<text text-anchor="middle" x="149.5" y="-397" font-family="Helvetica,sans-Serif" font-size="10.00"> &lt; T, N &gt;</text>
</g>
<!-- Node7 -->
<g id="node7" class="node"><title>Node7</title>
<polygon fill="white" stroke="#bfbfbf" points="135,-490.5 135,-509.5 164,-509.5 164,-490.5 135,-490.5"/>
<text text-anchor="middle" x="149.5" y="-497.5" font-family="Helvetica,sans-Serif" font-size="10.00">T</text>
</g>
<!-- Node7&#45;&gt;Node6 -->
<g id="edge6" class="edge"><title>Node7&#45;&gt;Node6</title>
<path fill="none" stroke="#9a32cd" stroke-dasharray="5,2" d="M134.545,-482.605C131.731,-479.206 128.916,-475.57 126.5,-472 120.065,-462.492 114.134,-450.672 110.43,-442.762"/>
<polygon fill="#9a32cd" stroke="#9a32cd" points="132.113,-485.142 141.313,-490.395 137.397,-480.551 132.113,-485.142"/>
<text text-anchor="middle" x="148" y="-464" font-family="Helvetica,sans-Serif" font-size="10.00"> elements</text>
</g>
<!-- Node7&#45;&gt;Node9 -->
<g id="edge9" class="edge"><title>Node7&#45;&gt;Node9</title>
<path fill="none" stroke="#9a32cd" stroke-dasharray="5,2" d="M164.407,-482.192C166.498,-478.999 168.331,-475.542 169.5,-472 180.365,-439.08 176.164,-428.02 169.5,-394 168.255,-387.642 165.505,-380.892 163.066,-375.732"/>
<polygon fill="#9a32cd" stroke="#9a32cd" points="161.463,-480.279 158.16,-490.346 167.02,-484.536 161.463,-480.279"/>
<text text-anchor="middle" x="198" y="-430.5" font-family="Helvetica,sans-Serif" font-size="10.00"> elements</text>
</g>
<!-- Node8 -->
<g id="node8" class="node"><title>Node8</title>
<g id="a_node8"><a xlink:href="$d1/dc6/a00037.html" xlink:title="1&#45;dimensional vector class that supports mathmatical operations. ">
<polygon fill="white" stroke="black" points="108,-280.5 108,-299.5 209,-299.5 209,-280.5 108,-280.5"/>
<text text-anchor="middle" x="158.5" y="-287.5" font-family="Helvetica,sans-Serif" font-size="10.00">mc::Vector&lt; T, N &gt;</text>
</a>
</g>
</g>
<!-- Node8&#45;&gt;Node4 -->
<g id="edge7" class="edge"><title>Node8&#45;&gt;Node4</title>
<path fill="none" stroke="orange" stroke-dasharray="5,2" d="M141.412,-273.356C127.454,-260.578 108.245,-242.992 96.9237,-232.627"/>
<polygon fill="orange" stroke="orange" points="139.185,-276.063 148.925,-280.234 143.912,-270.9 139.185,-276.063"/>
<text text-anchor="middle" x="153" y="-254" font-family="Helvetica,sans-Serif" font-size="10.00"> &lt; float, 3 &gt;</text>
</g>
<!-- Node9&#45;&gt;Node8 -->
<g id="edge8" class="edge"><title>Node9&#45;&gt;Node8</title>
<path fill="none" stroke="#9a32cd" stroke-dasharray="5,2" d="M158.5,-346.072C158.5,-331.18 158.5,-311.111 158.5,-299.768"/>
<polygon fill="#9a32cd" stroke="#9a32cd" points="155,-346.221 158.5,-356.221 162,-346.221 155,-346.221"/>
<text text-anchor="middle" x="176.5" y="-325.5" font-family="Helvetica,sans-Serif" font-size="10.00"> content</text>
</g>
</g>
</svg>
