<?xml version="1.0" encoding="UTF-8" standalone="no"?>
<!DOCTYPE svg PUBLIC "-//W3C//DTD SVG 1.1//EN"
 "http://www.w3.org/Graphics/SVG/1.1/DTD/svg11.dtd">
<!-- Generated by graphviz version 2.38.0 (20140413.2041)
 -->
<!-- Title: mc::gfx::Buffer Pages: 1 -->
<svg width="377pt" height="256pt"
 viewBox="0.00 0.00 377.00 256.00" xmlns="http://www.w3.org/2000/svg" xmlns:xlink="http://www.w3.org/1999/xlink">
<g id="graph0" class="graph" transform="scale(1 1) rotate(0) translate(4 252)">
<title>mc::gfx::Buffer</title>
<polygon fill="white" stroke="none" points="-4,4 -4,-252 373,-252 373,4 -4,4"/>
<!-- Node1 -->
<g id="node1" class="node"><title>Node1</title>
<polygon fill="#bfbfbf" stroke="black" points="119,-114.5 119,-133.5 199,-133.5 199,-114.5 119,-114.5"/>
<text text-anchor="middle" x="159" y="-121.5" font-family="Helvetica,sans-Serif" font-size="10.00">mc::gfx::Buffer</text>
</g>
<!-- Node3 -->
<g id="node3" class="node"><title>Node3</title>
<g id="a_node3"><a xlink:href="$da/d45/a00011.html" xlink:title="Special buffer with no extra semantics to be used as a proxy in copying. ">
<polygon fill="white" stroke="black" points="239.5,-228.5 239.5,-247.5 364.5,-247.5 364.5,-228.5 239.5,-228.5"/>
<text text-anchor="middle" x="302" y="-235.5" font-family="Helvetica,sans-Serif" font-size="10.00">mc::gfx::CopyReadBuffer</text>
</a>
</g>
</g>
<!-- Node1&#45;&gt;Node3 -->
<g id="edge2" class="edge"><title>Node1&#45;&gt;Node3</title>
<path fill="none" stroke="midnightblue" d="M169.862,-142.559C182.249,-164.099 205.501,-199.189 235,-219 240.741,-222.856 247.269,-225.94 253.932,-228.403"/>
<polygon fill="midnightblue" stroke="midnightblue" points="172.867,-140.762 164.951,-133.72 166.748,-144.161 172.867,-140.762"/>
</g>
<!-- Node4 -->
<g id="node4" class="node"><title>Node4</title>
<g id="a_node4"><a xlink:href="$df/d86/a00012.html" xlink:title="Special buffer with no extra semantics to be used as a proxy in copying. ">
<polygon fill="white" stroke="black" points="239.5,-190.5 239.5,-209.5 364.5,-209.5 364.5,-190.5 239.5,-190.5"/>
<text text-anchor="middle" x="302" y="-197.5" font-family="Helvetica,sans-Serif" font-size="10.00">mc::gfx::CopyWriteBuffer</text>
</a>
</g>
</g>
<!-- Node1&#45;&gt;Node4 -->
<g id="edge3" class="edge"><title>Node1&#45;&gt;Node4</title>
<path fill="none" stroke="midnightblue" d="M177.984,-140.739C192.426,-153.385 213.739,-170.331 235,-181 242.46,-184.743 250.775,-187.86 258.92,-190.413"/>
<polygon fill="midnightblue" stroke="midnightblue" points="180.108,-137.942 170.327,-133.87 175.433,-143.153 180.108,-137.942"/>
</g>
<!-- Node5 -->
<g id="node5" class="node"><title>Node5</title>
<g id="a_node5"><a xlink:href="$d7/dd4/a00013.html" xlink:title="Stores element indices to save vertex data. ">
<polygon fill="white" stroke="black" points="244,-152.5 244,-171.5 360,-171.5 360,-152.5 244,-152.5"/>
<text text-anchor="middle" x="302" y="-159.5" font-family="Helvetica,sans-Serif" font-size="10.00">mc::gfx::ElementBuffer</text>
</a>
</g>
</g>
<!-- Node1&#45;&gt;Node5 -->
<g id="edge4" class="edge"><title>Node1&#45;&gt;Node5</title>
<path fill="none" stroke="midnightblue" d="M205.44,-136.246C224.875,-141.484 247.231,-147.509 265.431,-152.414"/>
<polygon fill="midnightblue" stroke="midnightblue" points="206.147,-132.812 195.58,-133.589 204.325,-139.571 206.147,-132.812"/>
</g>
<!-- Node6 -->
<g id="node6" class="node"><title>Node6</title>
<g id="a_node6"><a xlink:href="$dc/d3c/a00028.html" xlink:title="Special buffer that excels at asynchronous pixel transfer operations. ">
<polygon fill="white" stroke="black" points="240,-114.5 240,-133.5 364,-133.5 364,-114.5 240,-114.5"/>
<text text-anchor="middle" x="302" y="-121.5" font-family="Helvetica,sans-Serif" font-size="10.00">mc::gfx::PixelPackBuffer</text>
</a>
</g>
</g>
<!-- Node1&#45;&gt;Node6 -->
<g id="edge5" class="edge"><title>Node1&#45;&gt;Node6</title>
<path fill="none" stroke="midnightblue" d="M209.586,-124C219.337,-124 229.674,-124 239.754,-124"/>
<polygon fill="midnightblue" stroke="midnightblue" points="209.276,-120.5 199.276,-124 209.276,-127.5 209.276,-120.5"/>
</g>
<!-- Node7 -->
<g id="node7" class="node"><title>Node7</title>
<g id="a_node7"><a xlink:href="$d5/d16/a00029.html" xlink:title="Special buffer that excels at asynchronous pixel transfer operations. ">
<polygon fill="white" stroke="black" points="235,-76.5 235,-95.5 369,-95.5 369,-76.5 235,-76.5"/>
<text text-anchor="middle" x="302" y="-83.5" font-family="Helvetica,sans-Serif" font-size="10.00">mc::gfx::PixelUnpackBuffer</text>
</a>
</g>
</g>
<!-- Node1&#45;&gt;Node7 -->
<g id="edge6" class="edge"><title>Node1&#45;&gt;Node7</title>
<path fill="none" stroke="midnightblue" d="M205.44,-111.754C224.875,-106.516 247.231,-100.491 265.431,-95.5859"/>
<polygon fill="midnightblue" stroke="midnightblue" points="204.325,-108.429 195.58,-114.411 206.147,-115.188 204.325,-108.429"/>
</g>
<!-- Node8 -->
<g id="node8" class="node"><title>Node8</title>
<g id="a_node8"><a xlink:href="$db/d3a/a00040.html" xlink:title="Stores uniform data for a shader in the form of a buffer. ">
<polygon fill="white" stroke="black" points="245.5,-38.5 245.5,-57.5 358.5,-57.5 358.5,-38.5 245.5,-38.5"/>
<text text-anchor="middle" x="302" y="-45.5" font-family="Helvetica,sans-Serif" font-size="10.00">mc::gfx::UniformBuffer</text>
</a>
</g>
</g>
<!-- Node1&#45;&gt;Node8 -->
<g id="edge7" class="edge"><title>Node1&#45;&gt;Node8</title>
<path fill="none" stroke="midnightblue" d="M177.984,-107.261C192.426,-94.6152 213.739,-77.6689 235,-67 242.46,-63.2566 250.775,-60.1397 258.92,-57.5867"/>
<polygon fill="midnightblue" stroke="midnightblue" points="175.433,-104.847 170.327,-114.13 180.108,-110.058 175.433,-104.847"/>
</g>
<!-- Node9 -->
<g id="node9" class="node"><title>Node9</title>
<g id="a_node9"><a xlink:href="$d6/d42/a00043.html" xlink:title="Stores vertex data for a `VertexArray. ">
<polygon fill="white" stroke="black" points="248,-0.5 248,-19.5 356,-19.5 356,-0.5 248,-0.5"/>
<text text-anchor="middle" x="302" y="-7.5" font-family="Helvetica,sans-Serif" font-size="10.00">mc::gfx::VertexBuffer</text>
</a>
</g>
</g>
<!-- Node1&#45;&gt;Node9 -->
<g id="edge8" class="edge"><title>Node1&#45;&gt;Node9</title>
<path fill="none" stroke="midnightblue" d="M169.862,-105.441C182.249,-83.901 205.501,-48.8111 235,-29 240.741,-25.1443 247.269,-22.0604 253.932,-19.5966"/>
<polygon fill="midnightblue" stroke="midnightblue" points="166.748,-103.839 164.951,-114.28 172.867,-107.238 166.748,-103.839"/>
</g>
<!-- Node2 -->
<g id="node2" class="node"><title>Node2</title>
<g id="a_node2"><a xlink:href="$d0/d33/a00027.html" xlink:title="Represents a OpenGL object in memory. ">
<polygon fill="white" stroke="black" points="0,-114.5 0,-133.5 83,-133.5 83,-114.5 0,-114.5"/>
<text text-anchor="middle" x="41.5" y="-121.5" font-family="Helvetica,sans-Serif" font-size="10.00">mc::gfx::Object</text>
</a>
</g>
</g>
<!-- Node2&#45;&gt;Node1 -->
<g id="edge1" class="edge"><title>Node2&#45;&gt;Node1</title>
<path fill="none" stroke="midnightblue" d="M93.4463,-124C101.952,-124 110.657,-124 118.81,-124"/>
<polygon fill="midnightblue" stroke="midnightblue" points="93.221,-120.5 83.221,-124 93.2209,-127.5 93.221,-120.5"/>
</g>
</g>
</svg>
