<?xml version="1.0" encoding="UTF-8" standalone="no"?>
<!DOCTYPE svg PUBLIC "-//W3C//DTD SVG 1.1//EN"
 "http://www.w3.org/Graphics/SVG/1.1/DTD/svg11.dtd">
<!-- Generated by graphviz version 2.38.0 (20140413.2041)
 -->
<!-- Title: mc::os::SignalTerminalOutputError Pages: 1 -->
<svg width="154pt" height="263pt"
 viewBox="0.00 0.00 154.00 263.00" xmlns="http://www.w3.org/2000/svg" xmlns:xlink="http://www.w3.org/1999/xlink">
<g id="graph0" class="graph" transform="scale(1 1) rotate(0) translate(4 259)">
<title>mc::os::SignalTerminalOutputError</title>
<polygon fill="white" stroke="none" points="-4,4 -4,-259 150,-259 150,4 -4,4"/>
<!-- Node1 -->
<g id="node1" class="node"><title>Node1</title>
<polygon fill="#bfbfbf" stroke="black" points="0,-0.5 0,-30.5 146,-30.5 146,-0.5 0,-0.5"/>
<text text-anchor="start" x="8" y="-18.5" font-family="Helvetica,sans-Serif" font-size="10.00">mc::os::SignalTerminalOutput</text>
<text text-anchor="middle" x="73" y="-7.5" font-family="Helvetica,sans-Serif" font-size="10.00">Error</text>
</g>
<!-- Node2 -->
<g id="node2" class="node"><title>Node2</title>
<g id="a_node2"><a xlink:href="../../d9/d73/a00060.html" target="_top" xlink:title="mc::os::SignalError">
<polygon fill="white" stroke="black" points="22.5,-67.5 22.5,-86.5 123.5,-86.5 123.5,-67.5 22.5,-67.5"/>
<text text-anchor="middle" x="73" y="-74.5" font-family="Helvetica,sans-Serif" font-size="10.00">mc::os::SignalError</text>
</a>
</g>
</g>
<!-- Node2&#45;&gt;Node1 -->
<g id="edge1" class="edge"><title>Node2&#45;&gt;Node1</title>
<path fill="none" stroke="midnightblue" d="M73,-57.2349C73,-48.5864 73,-38.4969 73,-30.523"/>
<polygon fill="midnightblue" stroke="midnightblue" points="69.5001,-57.4751 73,-67.4751 76.5001,-57.4751 69.5001,-57.4751"/>
</g>
<!-- Node3 -->
<g id="node3" class="node"><title>Node3</title>
<g id="a_node3"><a xlink:href="../../de/d11/a00021.html" target="_top" xlink:title="Superclass that all exceptions in MACE extend. ">
<polygon fill="white" stroke="black" points="44.5,-123.5 44.5,-142.5 101.5,-142.5 101.5,-123.5 44.5,-123.5"/>
<text text-anchor="middle" x="73" y="-130.5" font-family="Helvetica,sans-Serif" font-size="10.00">mc::Error</text>
</a>
</g>
</g>
<!-- Node3&#45;&gt;Node2 -->
<g id="edge2" class="edge"><title>Node3&#45;&gt;Node2</title>
<path fill="none" stroke="midnightblue" d="M73,-112.805C73,-103.91 73,-93.7798 73,-86.7511"/>
<polygon fill="midnightblue" stroke="midnightblue" points="69.5001,-113.083 73,-123.083 76.5001,-113.083 69.5001,-113.083"/>
</g>
<!-- Node4 -->
<g id="node4" class="node"><title>Node4</title>
<g id="a_node4"><a xlink:title="STL class. ">
<polygon fill="white" stroke="#bfbfbf" points="26.5,-179.5 26.5,-198.5 119.5,-198.5 119.5,-179.5 26.5,-179.5"/>
<text text-anchor="middle" x="73" y="-186.5" font-family="Helvetica,sans-Serif" font-size="10.00">std::runtime_error</text>
</a>
</g>
</g>
<!-- Node4&#45;&gt;Node3 -->
<g id="edge3" class="edge"><title>Node4&#45;&gt;Node3</title>
<path fill="none" stroke="midnightblue" d="M73,-168.805C73,-159.91 73,-149.78 73,-142.751"/>
<polygon fill="midnightblue" stroke="midnightblue" points="69.5001,-169.083 73,-179.083 76.5001,-169.083 69.5001,-169.083"/>
</g>
<!-- Node5 -->
<g id="node5" class="node"><title>Node5</title>
<g id="a_node5"><a xlink:title="STL class. ">
<polygon fill="white" stroke="#bfbfbf" points="34,-235.5 34,-254.5 112,-254.5 112,-235.5 34,-235.5"/>
<text text-anchor="middle" x="73" y="-242.5" font-family="Helvetica,sans-Serif" font-size="10.00">std::exception</text>
</a>
</g>
</g>
<!-- Node5&#45;&gt;Node4 -->
<g id="edge4" class="edge"><title>Node5&#45;&gt;Node4</title>
<path fill="none" stroke="midnightblue" d="M73,-224.805C73,-215.91 73,-205.78 73,-198.751"/>
<polygon fill="midnightblue" stroke="midnightblue" points="69.5001,-225.083 73,-235.083 76.5001,-225.083 69.5001,-225.083"/>
</g>
</g>
</svg>
