<?xml version="1.0" encoding="UTF-8" standalone="no"?>
<!DOCTYPE svg PUBLIC "-//W3C//DTD SVG 1.1//EN"
 "http://www.w3.org/Graphics/SVG/1.1/DTD/svg11.dtd">
<!-- Generated by graphviz version 2.38.0 (20140413.2041)
 -->
<!-- Title: mc::Macro Pages: 1 -->
<svg width="266pt" height="253pt"
 viewBox="0.00 0.00 265.50 253.00" xmlns="http://www.w3.org/2000/svg" xmlns:xlink="http://www.w3.org/1999/xlink">
<g id="graph0" class="graph" transform="scale(1 1) rotate(0) translate(4 249)">
<title>mc::Macro</title>
<polygon fill="white" stroke="none" points="-4,4 -4,-249 261.5,-249 261.5,4 -4,4"/>
<!-- Node1 -->
<g id="node1" class="node"><title>Node1</title>
<polygon fill="#bfbfbf" stroke="black" points="116,-0.5 116,-19.5 179,-19.5 179,-0.5 116,-0.5"/>
<text text-anchor="middle" x="147.5" y="-7.5" font-family="Helvetica,sans-Serif" font-size="10.00">mc::Macro</text>
</g>
<!-- Node2 -->
<g id="node2" class="node"><title>Node2</title>
<g id="a_node2"><a xlink:title="STL class. ">
<polygon fill="white" stroke="#bfbfbf" points="130.5,-147.5 130.5,-166.5 190.5,-166.5 190.5,-147.5 130.5,-147.5"/>
<text text-anchor="middle" x="160.5" y="-154.5" font-family="Helvetica,sans-Serif" font-size="10.00">std::string</text>
</a>
</g>
</g>
<!-- Node2&#45;&gt;Node1 -->
<g id="edge1" class="edge"><title>Node2&#45;&gt;Node1</title>
<path fill="none" stroke="#9a32cd" stroke-dasharray="5,2" d="M171.098,-138.463C172.503,-135.404 173.724,-132.181 174.5,-129 184.081,-89.7069 189.977,-75.3658 174.5,-38 171.456,-30.6506 165.333,-24.2586 159.686,-19.5414"/>
<polygon fill="#9a32cd" stroke="#9a32cd" points="167.935,-136.957 166.299,-147.425 174.106,-140.262 167.935,-136.957"/>
<text text-anchor="middle" x="221" y="-92" font-family="Helvetica,sans-Serif" font-size="10.00"> parameterString</text>
<text text-anchor="middle" x="221" y="-81" font-family="Helvetica,sans-Serif" font-size="10.00">definition</text>
<text text-anchor="middle" x="221" y="-70" font-family="Helvetica,sans-Serif" font-size="10.00">name</text>
</g>
<!-- Node4 -->
<g id="node4" class="node"><title>Node4</title>
<polygon fill="white" stroke="#bfbfbf" points="29,-74 29,-93 152,-93 152,-74 29,-74"/>
<text text-anchor="middle" x="90.5" y="-81" font-family="Helvetica,sans-Serif" font-size="10.00">std::vector&lt; std::string &gt;</text>
</g>
<!-- Node2&#45;&gt;Node4 -->
<g id="edge4" class="edge"><title>Node2&#45;&gt;Node4</title>
<path fill="none" stroke="#9a32cd" stroke-dasharray="5,2" d="M143.3,-140.393C139.368,-136.713 135.245,-132.764 131.5,-129 119.498,-116.935 106.267,-102.32 98.1695,-93.2133"/>
<polygon fill="#9a32cd" stroke="#9a32cd" points="141.2,-143.217 150.923,-147.424 145.945,-138.071 141.2,-143.217"/>
<text text-anchor="middle" x="153" y="-121" font-family="Helvetica,sans-Serif" font-size="10.00"> elements</text>
</g>
<!-- Node3 -->
<g id="node3" class="node"><title>Node3</title>
<g id="a_node3"><a xlink:title="STL class. ">
<polygon fill="white" stroke="#bfbfbf" points="113,-214.5 113,-244.5 208,-244.5 208,-214.5 113,-214.5"/>
<text text-anchor="start" x="121" y="-232.5" font-family="Helvetica,sans-Serif" font-size="10.00">std::basic_string&lt;</text>
<text text-anchor="middle" x="160.5" y="-221.5" font-family="Helvetica,sans-Serif" font-size="10.00"> char &gt;</text>
</a>
</g>
</g>
<!-- Node3&#45;&gt;Node2 -->
<g id="edge2" class="edge"><title>Node3&#45;&gt;Node2</title>
<path fill="none" stroke="midnightblue" d="M160.5,-204.091C160.5,-191.214 160.5,-176.197 160.5,-166.893"/>
<polygon fill="midnightblue" stroke="midnightblue" points="157,-204.233 160.5,-214.233 164,-204.233 157,-204.233"/>
</g>
<!-- Node4&#45;&gt;Node1 -->
<g id="edge3" class="edge"><title>Node4&#45;&gt;Node1</title>
<path fill="none" stroke="#9a32cd" stroke-dasharray="5,2" d="M102.033,-65.4338C107.92,-56.9947 115.336,-46.7657 122.5,-38 127.675,-31.6685 133.925,-24.9185 138.881,-19.7514"/>
<polygon fill="#9a32cd" stroke="#9a32cd" points="99.1074,-63.5106 96.3291,-73.7347 104.877,-67.4747 99.1074,-63.5106"/>
<text text-anchor="middle" x="148.5" y="-41" font-family="Helvetica,sans-Serif" font-size="10.00"> parameters</text>
</g>
<!-- Node5 -->
<g id="node5" class="node"><title>Node5</title>
<g id="a_node5"><a xlink:title="STL class. ">
<polygon fill="white" stroke="#bfbfbf" points="0,-147.5 0,-166.5 85,-166.5 85,-147.5 0,-147.5"/>
<text text-anchor="middle" x="42.5" y="-154.5" font-family="Helvetica,sans-Serif" font-size="10.00">std::vector&lt; T &gt;</text>
</a>
</g>
</g>
<!-- Node5&#45;&gt;Node4 -->
<g id="edge5" class="edge"><title>Node5&#45;&gt;Node4</title>
<path fill="none" stroke="orange" stroke-dasharray="5,2" d="M39.6998,-136.87C39.6126,-130.546 40.4778,-123.681 43.5,-118 49.43,-106.854 60.9084,-98.5642 71.0369,-93.0195"/>
<polygon fill="orange" stroke="orange" points="36.2546,-137.644 40.625,-147.296 43.2272,-137.025 36.2546,-137.644"/>
<text text-anchor="middle" x="76" y="-121" font-family="Helvetica,sans-Serif" font-size="10.00"> &lt; std::string &gt;</text>
</g>
<!-- Node6 -->
<g id="node6" class="node"><title>Node6</title>
<polygon fill="white" stroke="#bfbfbf" points="28,-220 28,-239 57,-239 57,-220 28,-220"/>
<text text-anchor="middle" x="42.5" y="-227" font-family="Helvetica,sans-Serif" font-size="10.00">T</text>
</g>
<!-- Node6&#45;&gt;Node5 -->
<g id="edge6" class="edge"><title>Node6&#45;&gt;Node5</title>
<path fill="none" stroke="#9a32cd" stroke-dasharray="5,2" d="M42.5,-209.442C42.5,-195.53 42.5,-177.32 42.5,-166.715"/>
<polygon fill="#9a32cd" stroke="#9a32cd" points="39.0001,-209.855 42.5,-219.855 46.0001,-209.855 39.0001,-209.855"/>
<text text-anchor="middle" x="64" y="-188" font-family="Helvetica,sans-Serif" font-size="10.00"> elements</text>
</g>
</g>
</svg>
