<?xml version="1.0" encoding="UTF-8" standalone="no"?>
<!DOCTYPE svg PUBLIC "-//W3C//DTD SVG 1.1//EN"
 "http://www.w3.org/Graphics/SVG/1.1/DTD/svg11.dtd">
<!-- Generated by graphviz version 2.38.0 (20140413.2041)
 -->
<!-- Title: mc::Vector&lt; T, N &gt; Pages: 1 -->
<svg width="737pt" height="142pt"
 viewBox="0.00 0.00 737.00 142.00" xmlns="http://www.w3.org/2000/svg" xmlns:xlink="http://www.w3.org/1999/xlink">
<g id="graph0" class="graph" transform="scale(1 1) rotate(0) translate(4 138)">
<title>mc::Vector&lt; T, N &gt;</title>
<polygon fill="white" stroke="none" points="-4,4 -4,-138 733,-138 733,4 -4,4"/>
<!-- Node1 -->
<g id="node1" class="node"><title>Node1</title>
<polygon fill="#bfbfbf" stroke="black" points="429,-57.5 429,-76.5 530,-76.5 530,-57.5 429,-57.5"/>
<text text-anchor="middle" x="479.5" y="-64.5" font-family="Helvetica,sans-Serif" font-size="10.00">mc::Vector&lt; T, N &gt;</text>
</g>
<!-- Node4 -->
<g id="node4" class="node"><title>Node4</title>
<g id="a_node4"><a xlink:href="../../db/df8/a00076.html" target="_top" xlink:title="mc::Vector\&lt; T, H \&gt;">
<polygon fill="white" stroke="black" points="622.5,-114.5 622.5,-133.5 723.5,-133.5 723.5,-114.5 622.5,-114.5"/>
<text text-anchor="middle" x="673" y="-121.5" font-family="Helvetica,sans-Serif" font-size="10.00">mc::Vector&lt; T, H &gt;</text>
</a>
</g>
</g>
<!-- Node1&#45;&gt;Node4 -->
<g id="edge3" class="edge"><title>Node1&#45;&gt;Node4</title>
<path fill="none" stroke="orange" stroke-dasharray="5,2" d="M512.675,-80.3187C523.765,-84.661 536.332,-89.3095 548,-93 574.341,-101.331 604.389,-108.891 628.308,-114.459"/>
<polygon fill="orange" stroke="orange" points="513.955,-77.061 503.37,-76.6133 511.365,-83.5644 513.955,-77.061"/>
<text text-anchor="middle" x="573.5" y="-110" font-family="Helvetica,sans-Serif" font-size="10.00"> &lt; T, H &gt;</text>
</g>
<!-- Node5 -->
<g id="node5" class="node"><title>Node5</title>
<g id="a_node5"><a xlink:href="../../db/df8/a00076.html" target="_top" xlink:title="mc::Vector\&lt; float, 4 \&gt;">
<polygon fill="white" stroke="black" points="617,-76.5 617,-95.5 729,-95.5 729,-76.5 617,-76.5"/>
<text text-anchor="middle" x="673" y="-83.5" font-family="Helvetica,sans-Serif" font-size="10.00">mc::Vector&lt; float, 4 &gt;</text>
</a>
</g>
</g>
<!-- Node1&#45;&gt;Node5 -->
<g id="edge4" class="edge"><title>Node1&#45;&gt;Node5</title>
<path fill="none" stroke="orange" stroke-dasharray="5,2" d="M540.512,-72.9542C564.875,-75.3714 592.841,-78.1461 616.702,-80.5135"/>
<polygon fill="orange" stroke="orange" points="540.611,-69.4469 530.314,-71.9424 539.92,-76.4127 540.611,-69.4469"/>
<text text-anchor="middle" x="573.5" y="-81" font-family="Helvetica,sans-Serif" font-size="10.00"> &lt; float, 4 &gt;</text>
</g>
<!-- Node6 -->
<g id="node6" class="node"><title>Node6</title>
<g id="a_node6"><a xlink:href="../../db/df8/a00076.html" target="_top" xlink:title="mc::Vector\&lt; float, 3 \&gt;">
<polygon fill="white" stroke="black" points="617,-38.5 617,-57.5 729,-57.5 729,-38.5 617,-38.5"/>
<text text-anchor="middle" x="673" y="-45.5" font-family="Helvetica,sans-Serif" font-size="10.00">mc::Vector&lt; float, 3 &gt;</text>
</a>
</g>
</g>
<!-- Node1&#45;&gt;Node6 -->
<g id="edge5" class="edge"><title>Node1&#45;&gt;Node6</title>
<path fill="none" stroke="orange" stroke-dasharray="5,2" d="M540.322,-59.8154C542.915,-59.5338 545.484,-59.2607 548,-59 570.465,-56.6729 595.251,-54.4127 616.721,-52.5526"/>
<polygon fill="orange" stroke="orange" points="539.798,-56.352 530.246,-60.9357 540.572,-63.3091 539.798,-56.352"/>
<text text-anchor="middle" x="573.5" y="-62" font-family="Helvetica,sans-Serif" font-size="10.00"> &lt; float, 3 &gt;</text>
</g>
<!-- Node7 -->
<g id="node7" class="node"><title>Node7</title>
<g id="a_node7"><a xlink:href="../../db/df8/a00076.html" target="_top" xlink:title="mc::Vector\&lt; float, 2 \&gt;">
<polygon fill="white" stroke="black" points="617,-0.5 617,-19.5 729,-19.5 729,-0.5 617,-0.5"/>
<text text-anchor="middle" x="673" y="-7.5" font-family="Helvetica,sans-Serif" font-size="10.00">mc::Vector&lt; float, 2 &gt;</text>
</a>
</g>
</g>
<!-- Node1&#45;&gt;Node7 -->
<g id="edge6" class="edge"><title>Node1&#45;&gt;Node7</title>
<path fill="none" stroke="orange" stroke-dasharray="5,2" d="M511.568,-53.4918C522.905,-48.8512 535.91,-43.8585 548,-40 573.32,-31.9188 602.149,-24.8219 625.633,-19.5622"/>
<polygon fill="orange" stroke="orange" points="509.981,-50.3614 502.099,-57.442 512.676,-56.8218 509.981,-50.3614"/>
<text text-anchor="middle" x="573.5" y="-43" font-family="Helvetica,sans-Serif" font-size="10.00"> &lt; float, 2 &gt;</text>
</g>
<!-- Node2 -->
<g id="node2" class="node"><title>Node2</title>
<g id="a_node2"><a xlink:href="../../df/d5d/a00084.html" target="_top" xlink:title="mc::VectorBase\&lt; Vector\l\&lt; T, N \&gt;, T, N \&gt;">
<polygon fill="white" stroke="black" points="267,-52 267,-82 392,-82 392,-52 267,-52"/>
<text text-anchor="start" x="275" y="-70" font-family="Helvetica,sans-Serif" font-size="10.00">mc::VectorBase&lt; Vector</text>
<text text-anchor="middle" x="329.5" y="-59" font-family="Helvetica,sans-Serif" font-size="10.00">&lt; T, N &gt;, T, N &gt;</text>
</a>
</g>
</g>
<!-- Node2&#45;&gt;Node1 -->
<g id="edge1" class="edge"><title>Node2&#45;&gt;Node1</title>
<path fill="none" stroke="midnightblue" d="M402.487,-67C411.455,-67 420.461,-67 428.98,-67"/>
<polygon fill="midnightblue" stroke="midnightblue" points="402.408,-63.5001 392.408,-67 402.408,-70.5001 402.408,-63.5001"/>
</g>
<!-- Node3 -->
<g id="node3" class="node"><title>Node3</title>
<g id="a_node3"><a xlink:href="../../df/d5d/a00084.html" target="_top" xlink:title="1&#45;dimensional vector class that supports mathmatical operations. ">
<polygon fill="white" stroke="black" points="0,-52 0,-82 121,-82 121,-52 0,-52"/>
<text text-anchor="start" x="8" y="-70" font-family="Helvetica,sans-Serif" font-size="10.00">mc::VectorBase&lt; Child,</text>
<text text-anchor="middle" x="60.5" y="-59" font-family="Helvetica,sans-Serif" font-size="10.00"> T, N &gt;</text>
</a>
</g>
</g>
<!-- Node3&#45;&gt;Node2 -->
<g id="edge2" class="edge"><title>Node3&#45;&gt;Node2</title>
<path fill="none" stroke="orange" stroke-dasharray="5,2" d="M131.243,-67C173.259,-67 226.286,-67 266.777,-67"/>
<polygon fill="orange" stroke="orange" points="131.088,-63.5001 121.088,-67 131.088,-70.5001 131.088,-63.5001"/>
<text text-anchor="middle" x="194" y="-70" font-family="Helvetica,sans-Serif" font-size="10.00"> &lt; Vector&lt; T, N &gt;, T, N &gt;</text>
</g>
</g>
</svg>
