<?xml version="1.0" encoding="UTF-8" standalone="no"?>
<!DOCTYPE svg PUBLIC "-//W3C//DTD SVG 1.1//EN"
 "http://www.w3.org/Graphics/SVG/1.1/DTD/svg11.dtd">
<!-- Generated by graphviz version 2.38.0 (20140413.2041)
 -->
<!-- Title: mc::gfx::Component Pages: 1 -->
<svg width="416pt" height="142pt"
 viewBox="0.00 0.00 416.00 142.00" xmlns="http://www.w3.org/2000/svg" xmlns:xlink="http://www.w3.org/1999/xlink">
<g id="graph0" class="graph" transform="scale(1 1) rotate(0) translate(4 138)">
<title>mc::gfx::Component</title>
<polygon fill="white" stroke="none" points="-4,4 -4,-138 412,-138 412,4 -4,4"/>
<!-- Node1 -->
<g id="node1" class="node"><title>Node1</title>
<polygon fill="#bfbfbf" stroke="black" points="120,-57.5 120,-76.5 224,-76.5 224,-57.5 120,-57.5"/>
<text text-anchor="middle" x="172" y="-64.5" font-family="Helvetica,sans-Serif" font-size="10.00">mc::gfx::Component</text>
</g>
<!-- Node3 -->
<g id="node3" class="node"><title>Node3</title>
<g id="a_node3"><a xlink:href="../../de/d5e/a00007.html" target="_top" xlink:title="mc::gfx::AlignmentComponent">
<polygon fill="white" stroke="black" points="260,-114.5 260,-133.5 408,-133.5 408,-114.5 260,-114.5"/>
<text text-anchor="middle" x="334" y="-121.5" font-family="Helvetica,sans-Serif" font-size="10.00">mc::gfx::AlignmentComponent</text>
</a>
</g>
</g>
<!-- Node1&#45;&gt;Node3 -->
<g id="edge2" class="edge"><title>Node1&#45;&gt;Node3</title>
<path fill="none" stroke="midnightblue" d="M201.917,-80.9957C218.632,-88.7385 240.209,-98.15 260,-105 270.148,-108.512 281.285,-111.724 291.736,-114.467"/>
<polygon fill="midnightblue" stroke="midnightblue" points="203.227,-77.7442 192.687,-76.6617 200.251,-84.0804 203.227,-77.7442"/>
</g>
<!-- Node4 -->
<g id="node4" class="node"><title>Node4</title>
<g id="a_node4"><a xlink:href="../../d7/dd4/a00013.html" target="_top" xlink:title="mc::gfx::CallbackComponent">
<polygon fill="white" stroke="black" points="263,-76.5 263,-95.5 405,-95.5 405,-76.5 263,-76.5"/>
<text text-anchor="middle" x="334" y="-83.5" font-family="Helvetica,sans-Serif" font-size="10.00">mc::gfx::CallbackComponent</text>
</a>
</g>
</g>
<!-- Node1&#45;&gt;Node4 -->
<g id="edge3" class="edge"><title>Node1&#45;&gt;Node4</title>
<path fill="none" stroke="midnightblue" d="M234.102,-74.2558C243.51,-75.373 253.288,-76.5342 262.874,-77.6725"/>
<polygon fill="midnightblue" stroke="midnightblue" points="234.408,-70.7677 224.065,-73.064 233.582,-77.7188 234.408,-70.7677"/>
</g>
<!-- Node5 -->
<g id="node5" class="node"><title>Node5</title>
<g id="a_node5"><a xlink:href="../../dd/da2/a00019.html" target="_top" xlink:title="mc::gfx::EaseComponent">
<polygon fill="white" stroke="black" points="270.5,-38.5 270.5,-57.5 397.5,-57.5 397.5,-38.5 270.5,-38.5"/>
<text text-anchor="middle" x="334" y="-45.5" font-family="Helvetica,sans-Serif" font-size="10.00">mc::gfx::EaseComponent</text>
</a>
</g>
</g>
<!-- Node1&#45;&gt;Node5 -->
<g id="edge4" class="edge"><title>Node1&#45;&gt;Node5</title>
<path fill="none" stroke="midnightblue" d="M234.278,-59.7233C246.1,-58.3194 258.5,-56.8468 270.365,-55.4378"/>
<polygon fill="midnightblue" stroke="midnightblue" points="233.582,-56.2812 224.065,-60.936 234.408,-63.2323 233.582,-56.2812"/>
</g>
<!-- Node6 -->
<g id="node6" class="node"><title>Node6</title>
<g id="a_node6"><a xlink:href="../../d3/dfe/a00025.html" target="_top" xlink:title="mc::gfx::FPSComponent">
<polygon fill="white" stroke="black" points="272,-0.5 272,-19.5 396,-19.5 396,-0.5 272,-0.5"/>
<text text-anchor="middle" x="334" y="-7.5" font-family="Helvetica,sans-Serif" font-size="10.00">mc::gfx::FPSComponent</text>
</a>
</g>
</g>
<!-- Node1&#45;&gt;Node6 -->
<g id="edge5" class="edge"><title>Node1&#45;&gt;Node6</title>
<path fill="none" stroke="midnightblue" d="M201.917,-53.0043C218.632,-45.2615 240.209,-35.85 260,-29 270.148,-25.4876 281.285,-22.2759 291.736,-19.5327"/>
<polygon fill="midnightblue" stroke="midnightblue" points="200.251,-49.9196 192.687,-57.3383 203.227,-56.2558 200.251,-49.9196"/>
</g>
<!-- Node2 -->
<g id="node2" class="node"><title>Node2</title>
<g id="a_node2"><a xlink:href="../../d4/d8c/a00035.html" target="_top" xlink:title="mc::Initializable">
<polygon fill="white" stroke="black" points="0,-57.5 0,-76.5 84,-76.5 84,-57.5 0,-57.5"/>
<text text-anchor="middle" x="42" y="-64.5" font-family="Helvetica,sans-Serif" font-size="10.00">mc::Initializable</text>
</a>
</g>
</g>
<!-- Node2&#45;&gt;Node1 -->
<g id="edge1" class="edge"><title>Node2&#45;&gt;Node1</title>
<path fill="none" stroke="midnightblue" d="M94.4707,-67C102.732,-67 111.284,-67 119.545,-67"/>
<polygon fill="midnightblue" stroke="midnightblue" points="94.2046,-63.5001 84.2046,-67 94.2045,-70.5001 94.2046,-63.5001"/>
</g>
</g>
</svg>
