<?xml version="1.0" encoding="UTF-8" standalone="no"?>
<!DOCTYPE svg PUBLIC "-//W3C//DTD SVG 1.1//EN"
 "http://www.w3.org/Graphics/SVG/1.1/DTD/svg11.dtd">
<!-- Generated by graphviz version 2.38.0 (20140413.2041)
 -->
<!-- Title: Graphical Class Hierarchy Pages: 1 -->
<svg width="488pt" height="142pt"
 viewBox="0.00 0.00 488.00 142.00" xmlns="http://www.w3.org/2000/svg" xmlns:xlink="http://www.w3.org/1999/xlink">
<g id="graph0" class="graph" transform="scale(1 1) rotate(0) translate(4 138)">
<title>Graphical Class Hierarchy</title>
<polygon fill="white" stroke="none" points="-4,4 -4,-138 484,-138 484,4 -4,4"/>
<!-- Node1 -->
<g id="node1" class="node"><title>Node1</title>
<g id="a_node1"><a xlink:href="d2/de7/a00014.html" target="_top" xlink:title="Abstract superclass for all graphical objects. ">
<polygon fill="white" stroke="black" points="0,-57.5 0,-76.5 80,-76.5 80,-57.5 0,-57.5"/>
<text text-anchor="middle" x="40" y="-64.5" font-family="Helvetica,sans-Serif" font-size="10.00">mc::gfx::Entity</text>
</a>
</g>
</g>
<!-- Node2 -->
<g id="node2" class="node"><title>Node2</title>
<g id="a_node2"><a xlink:href="d4/dee/a00008.html" target="_top" xlink:title="mc::gfx::CallbackEntity">
<polygon fill="white" stroke="black" points="116.5,-114.5 116.5,-133.5 234.5,-133.5 234.5,-114.5 116.5,-114.5"/>
<text text-anchor="middle" x="175.5" y="-121.5" font-family="Helvetica,sans-Serif" font-size="10.00">mc::gfx::CallbackEntity</text>
</a>
</g>
</g>
<!-- Node1&#45;&gt;Node2 -->
<g id="edge1" class="edge"><title>Node1&#45;&gt;Node2</title>
<path fill="none" stroke="midnightblue" d="M67.0853,-81.4734C81.2964,-89.0357 99.337,-98.1213 116,-105 124.291,-108.423 133.44,-111.645 141.99,-114.43"/>
<polygon fill="midnightblue" stroke="midnightblue" points="68.385,-78.1976 57.9227,-76.5272 65.0598,-84.3574 68.385,-78.1976"/>
</g>
<!-- Node3 -->
<g id="node3" class="node"><title>Node3</title>
<g id="a_node3"><a xlink:href="d1/d2b/a00018.html" target="_top" xlink:title="mc::gfx::GraphicsEntity">
<polygon fill="white" stroke="black" points="116,-76.5 116,-95.5 235,-95.5 235,-76.5 116,-76.5"/>
<text text-anchor="middle" x="175.5" y="-83.5" font-family="Helvetica,sans-Serif" font-size="10.00">mc::gfx::GraphicsEntity</text>
</a>
</g>
</g>
<!-- Node1&#45;&gt;Node3 -->
<g id="edge2" class="edge"><title>Node1&#45;&gt;Node3</title>
<path fill="none" stroke="midnightblue" d="M90.4778,-74.0418C98.6773,-75.2088 107.25,-76.4289 115.654,-77.6248"/>
<polygon fill="midnightblue" stroke="midnightblue" points="90.7258,-70.5419 80.3323,-72.5979 89.7394,-77.4721 90.7258,-70.5419"/>
</g>
<!-- Node6 -->
<g id="node6" class="node"><title>Node6</title>
<g id="a_node6"><a xlink:href="dd/da2/a00019.html" target="_top" xlink:title="mc::gfx::Group">
<polygon fill="white" stroke="black" points="135,-38.5 135,-57.5 216,-57.5 216,-38.5 135,-38.5"/>
<text text-anchor="middle" x="175.5" y="-45.5" font-family="Helvetica,sans-Serif" font-size="10.00">mc::gfx::Group</text>
</a>
</g>
</g>
<!-- Node1&#45;&gt;Node6 -->
<g id="edge5" class="edge"><title>Node1&#45;&gt;Node6</title>
<path fill="none" stroke="midnightblue" d="M90.2956,-59.9841C105.024,-57.8879 120.973,-55.6181 134.987,-53.6235"/>
<polygon fill="midnightblue" stroke="midnightblue" points="89.7394,-56.5279 80.3323,-61.4021 90.7258,-63.4581 89.7394,-56.5279"/>
</g>
<!-- Node7 -->
<g id="node7" class="node"><title>Node7</title>
<g id="a_node7"><a xlink:href="d6/d97/a00045.html" target="_top" xlink:title="mc::os::WindowModule">
<polygon fill="white" stroke="black" points="116,-0.5 116,-19.5 235,-19.5 235,-0.5 116,-0.5"/>
<text text-anchor="middle" x="175.5" y="-7.5" font-family="Helvetica,sans-Serif" font-size="10.00">mc::os::WindowModule</text>
</a>
</g>
</g>
<!-- Node1&#45;&gt;Node7 -->
<g id="edge6" class="edge"><title>Node1&#45;&gt;Node7</title>
<path fill="none" stroke="midnightblue" d="M67.0853,-52.5266C81.2964,-44.9643 99.337,-35.8787 116,-29 124.291,-25.5773 133.44,-22.3551 141.99,-19.5703"/>
<polygon fill="midnightblue" stroke="midnightblue" points="65.0598,-49.6426 57.9227,-57.4728 68.385,-55.8024 65.0598,-49.6426"/>
</g>
<!-- Node4 -->
<g id="node4" class="node"><title>Node4</title>
<g id="a_node4"><a xlink:href="dd/d1b/a00015.html" target="_top" xlink:title="mc::gfx::Entity2D">
<polygon fill="white" stroke="black" points="271,-76.5 271,-95.5 363,-95.5 363,-76.5 271,-76.5"/>
<text text-anchor="middle" x="317" y="-83.5" font-family="Helvetica,sans-Serif" font-size="10.00">mc::gfx::Entity2D</text>
</a>
</g>
</g>
<!-- Node3&#45;&gt;Node4 -->
<g id="edge3" class="edge"><title>Node3&#45;&gt;Node4</title>
<path fill="none" stroke="midnightblue" d="M245.381,-86C254.04,-86 262.716,-86 270.877,-86"/>
<polygon fill="midnightblue" stroke="midnightblue" points="245.256,-82.5001 235.256,-86 245.256,-89.5001 245.256,-82.5001"/>
</g>
<!-- Node5 -->
<g id="node5" class="node"><title>Node5</title>
<g id="a_node5"><a xlink:href="db/db2/a00020.html" target="_top" xlink:title="mc::gfx::Image">
<polygon fill="white" stroke="black" points="399,-76.5 399,-95.5 480,-95.5 480,-76.5 399,-76.5"/>
<text text-anchor="middle" x="439.5" y="-83.5" font-family="Helvetica,sans-Serif" font-size="10.00">mc::gfx::Image</text>
</a>
</g>
</g>
<!-- Node4&#45;&gt;Node5 -->
<g id="edge4" class="edge"><title>Node4&#45;&gt;Node5</title>
<path fill="none" stroke="midnightblue" d="M373.28,-86C381.947,-86 390.752,-86 398.971,-86"/>
<polygon fill="midnightblue" stroke="midnightblue" points="373.213,-82.5001 363.213,-86 373.213,-89.5001 373.213,-82.5001"/>
</g>
<!-- Node8 -->
<g id="node8" class="node"><title>Node8</title>
<g id="a_node8"><a xlink:href="d6/d5b/a00026.html" target="_top" xlink:title="Abstract class used for doing a task in MACE. ">
<polygon fill="white" stroke="black" points="6,-0.5 6,-19.5 74,-19.5 74,-0.5 6,-0.5"/>
<text text-anchor="middle" x="40" y="-7.5" font-family="Helvetica,sans-Serif" font-size="10.00">mc::Module</text>
</a>
</g>
</g>
<!-- Node8&#45;&gt;Node7 -->
<g id="edge7" class="edge"><title>Node8&#45;&gt;Node7</title>
<path fill="none" stroke="midnightblue" d="M84.1861,-10C94.2924,-10 105.225,-10 115.878,-10"/>
<polygon fill="midnightblue" stroke="midnightblue" points="84,-6.5001 74,-10 84,-13.5001 84,-6.5001"/>
</g>
</g>
</svg>
