<?xml version="1.0" encoding="UTF-8" standalone="no"?>
<!DOCTYPE svg PUBLIC "-//W3C//DTD SVG 1.1//EN"
 "http://www.w3.org/Graphics/SVG/1.1/DTD/svg11.dtd">
<!-- Generated by graphviz version 2.38.0 (20140413.2041)
 -->
<!-- Title: Graphical Class Hierarchy Pages: 1 -->
<svg width="293pt" height="225pt"
 viewBox="0.00 0.00 293.00 224.50" xmlns="http://www.w3.org/2000/svg" xmlns:xlink="http://www.w3.org/1999/xlink">
<g id="graph0" class="graph" transform="scale(1 1) rotate(0) translate(4 220.5)">
<title>Graphical Class Hierarchy</title>
<polygon fill="white" stroke="none" points="-4,4 -4,-220.5 289,-220.5 289,4 -4,4"/>
<!-- Node1 -->
<g id="node1" class="node"><title>Node1</title>
<g id="a_node1"><a xlink:href="d4/dca/a00048.html" target="_top" xlink:title="mc::gfx::RenderImpl">
<polygon fill="white" stroke="black" points="0,-104 0,-123 104,-123 104,-104 0,-104"/>
<text text-anchor="middle" x="52" y="-111" font-family="Helvetica,sans-Serif" font-size="10.00">mc::gfx::RenderImpl</text>
</a>
</g>
</g>
<!-- Node2 -->
<g id="node2" class="node"><title>Node2</title>
<g id="a_node2"><a xlink:href="d2/dee/a00049.html" target="_top" xlink:title="mc::gfx::RenderProtocol\&lt; T \&gt;">
<polygon fill="white" stroke="black" points="140,-197 140,-216 285,-216 285,-197 140,-197"/>
<text text-anchor="middle" x="212.5" y="-204" font-family="Helvetica,sans-Serif" font-size="10.00">mc::gfx::RenderProtocol&lt; T &gt;</text>
</a>
</g>
</g>
<!-- Node1&#45;&gt;Node2 -->
<g id="edge1" class="edge"><title>Node1&#45;&gt;Node2</title>
<path fill="none" stroke="midnightblue" d="M68.7171,-130.756C84.9876,-147.607 111.92,-172.8 140,-187.5 147.283,-191.313 155.393,-194.406 163.461,-196.902"/>
<polygon fill="midnightblue" stroke="midnightblue" points="71.0344,-128.111 61.628,-123.236 65.9409,-132.913 71.0344,-128.111"/>
</g>
<!-- Node3 -->
<g id="node3" class="node"><title>Node3</title>
<g id="a_node3"><a xlink:href="d5/de0/a00050.html" target="_top" xlink:title="mc::gfx::RenderProtocol\l\&lt; Button \&gt;">
<polygon fill="white" stroke="black" points="151.5,-147.5 151.5,-177.5 273.5,-177.5 273.5,-147.5 151.5,-147.5"/>
<text text-anchor="start" x="159.5" y="-165.5" font-family="Helvetica,sans-Serif" font-size="10.00">mc::gfx::RenderProtocol</text>
<text text-anchor="middle" x="212.5" y="-154.5" font-family="Helvetica,sans-Serif" font-size="10.00">&lt; Button &gt;</text>
</a>
</g>
</g>
<!-- Node1&#45;&gt;Node3 -->
<g id="edge2" class="edge"><title>Node1&#45;&gt;Node3</title>
<path fill="none" stroke="midnightblue" d="M93.5715,-126.043C114.692,-132.572 140.668,-140.602 162.86,-147.463"/>
<polygon fill="midnightblue" stroke="midnightblue" points="94.5243,-122.674 83.9367,-123.064 92.4568,-129.362 94.5243,-122.674"/>
</g>
<!-- Node4 -->
<g id="node4" class="node"><title>Node4</title>
<g id="a_node4"><a xlink:href="d2/d79/a00051.html" target="_top" xlink:title="mc::gfx::RenderProtocol\l\&lt; Image \&gt;">
<polygon fill="white" stroke="black" points="151.5,-98.5 151.5,-128.5 273.5,-128.5 273.5,-98.5 151.5,-98.5"/>
<text text-anchor="start" x="159.5" y="-116.5" font-family="Helvetica,sans-Serif" font-size="10.00">mc::gfx::RenderProtocol</text>
<text text-anchor="middle" x="212.5" y="-105.5" font-family="Helvetica,sans-Serif" font-size="10.00">&lt; Image &gt;</text>
</a>
</g>
</g>
<!-- Node1&#45;&gt;Node4 -->
<g id="edge3" class="edge"><title>Node1&#45;&gt;Node4</title>
<path fill="none" stroke="midnightblue" d="M114.139,-113.5C126.386,-113.5 139.243,-113.5 151.453,-113.5"/>
<polygon fill="midnightblue" stroke="midnightblue" points="114.023,-110 104.023,-113.5 114.023,-117 114.023,-110"/>
</g>
<!-- Node5 -->
<g id="node5" class="node"><title>Node5</title>
<g id="a_node5"><a xlink:href="d1/d84/a00052.html" target="_top" xlink:title="mc::gfx::RenderProtocol\l\&lt; Letter \&gt;">
<polygon fill="white" stroke="black" points="151.5,-49.5 151.5,-79.5 273.5,-79.5 273.5,-49.5 151.5,-49.5"/>
<text text-anchor="start" x="159.5" y="-67.5" font-family="Helvetica,sans-Serif" font-size="10.00">mc::gfx::RenderProtocol</text>
<text text-anchor="middle" x="212.5" y="-56.5" font-family="Helvetica,sans-Serif" font-size="10.00">&lt; Letter &gt;</text>
</a>
</g>
</g>
<!-- Node1&#45;&gt;Node5 -->
<g id="edge4" class="edge"><title>Node1&#45;&gt;Node5</title>
<path fill="none" stroke="midnightblue" d="M93.5715,-100.957C114.692,-94.4281 140.668,-86.3976 162.86,-79.537"/>
<polygon fill="midnightblue" stroke="midnightblue" points="92.4568,-97.6385 83.9367,-103.936 94.5243,-104.326 92.4568,-97.6385"/>
</g>
<!-- Node6 -->
<g id="node6" class="node"><title>Node6</title>
<g id="a_node6"><a xlink:href="dc/dee/a00053.html" target="_top" xlink:title="mc::gfx::RenderProtocol\l\&lt; ProgressBar \&gt;">
<polygon fill="white" stroke="black" points="151.5,-0.5 151.5,-30.5 273.5,-30.5 273.5,-0.5 151.5,-0.5"/>
<text text-anchor="start" x="159.5" y="-18.5" font-family="Helvetica,sans-Serif" font-size="10.00">mc::gfx::RenderProtocol</text>
<text text-anchor="middle" x="212.5" y="-7.5" font-family="Helvetica,sans-Serif" font-size="10.00">&lt; ProgressBar &gt;</text>
</a>
</g>
</g>
<!-- Node1&#45;&gt;Node6 -->
<g id="edge5" class="edge"><title>Node1&#45;&gt;Node6</title>
<path fill="none" stroke="midnightblue" d="M69.5435,-96.4081C86.0863,-80.1396 112.901,-55.9167 140,-40.5 146.515,-36.7936 153.674,-33.4982 160.866,-30.6147"/>
<polygon fill="midnightblue" stroke="midnightblue" points="66.8733,-94.1291 62.2915,-103.682 71.8305,-99.0714 66.8733,-94.1291"/>
</g>
</g>
</svg>
