<?xml version="1.0" encoding="UTF-8" standalone="no"?>
<!DOCTYPE svg PUBLIC "-//W3C//DTD SVG 1.1//EN"
 "http://www.w3.org/Graphics/SVG/1.1/DTD/svg11.dtd">
<!-- Generated by graphviz version 2.38.0 (20140413.2041)
 -->
<!-- Title: Graphical Class Hierarchy Pages: 1 -->
<svg width="516pt" height="199pt"
 viewBox="0.00 0.00 516.00 199.00" xmlns="http://www.w3.org/2000/svg" xmlns:xlink="http://www.w3.org/1999/xlink">
<g id="graph0" class="graph" transform="scale(1 1) rotate(0) translate(4 195)">
<title>Graphical Class Hierarchy</title>
<polygon fill="white" stroke="none" points="-4,4 -4,-195 512,-195 512,4 -4,4"/>
<!-- Node1 -->
<g id="node1" class="node"><title>Node1</title>
<g id="a_node1"><a xlink:href="d7/d7a/a00016.html" target="_top" xlink:title="Abstract superclass for all graphical objects. ">
<polygon fill="white" stroke="black" points="0,-76.5 0,-95.5 80,-95.5 80,-76.5 0,-76.5"/>
<text text-anchor="middle" x="40" y="-83.5" font-family="Helvetica,sans-Serif" font-size="10.00">mc::gfx::Entity</text>
</a>
</g>
</g>
<!-- Node2 -->
<g id="node2" class="node"><title>Node2</title>
<g id="a_node2"><a xlink:href="d7/de0/a00022.html" target="_top" xlink:title="mc::gfx::GraphicsEntity">
<polygon fill="white" stroke="black" points="116,-114.5 116,-133.5 235,-133.5 235,-114.5 116,-114.5"/>
<text text-anchor="middle" x="175.5" y="-121.5" font-family="Helvetica,sans-Serif" font-size="10.00">mc::gfx::GraphicsEntity</text>
</a>
</g>
</g>
<!-- Node1&#45;&gt;Node2 -->
<g id="edge1" class="edge"><title>Node1&#45;&gt;Node2</title>
<path fill="none" stroke="midnightblue" d="M84.53,-98.3906C102.812,-103.594 123.749,-109.554 140.823,-114.414"/>
<polygon fill="midnightblue" stroke="midnightblue" points="85.2639,-94.9605 74.6877,-95.589 83.3474,-101.693 85.2639,-94.9605"/>
</g>
<!-- Node8 -->
<g id="node8" class="node"><title>Node8</title>
<g id="a_node8"><a xlink:href="d3/d52/a00023.html" target="_top" xlink:title="mc::gfx::Group">
<polygon fill="white" stroke="black" points="135,-76.5 135,-95.5 216,-95.5 216,-76.5 135,-76.5"/>
<text text-anchor="middle" x="175.5" y="-83.5" font-family="Helvetica,sans-Serif" font-size="10.00">mc::gfx::Group</text>
</a>
</g>
</g>
<!-- Node1&#45;&gt;Node8 -->
<g id="edge7" class="edge"><title>Node1&#45;&gt;Node8</title>
<path fill="none" stroke="midnightblue" d="M90.7209,-86C105.331,-86 121.107,-86 134.987,-86"/>
<polygon fill="midnightblue" stroke="midnightblue" points="90.3324,-82.5001 80.3323,-86 90.3323,-89.5001 90.3324,-82.5001"/>
</g>
<!-- Node9 -->
<g id="node9" class="node"><title>Node9</title>
<g id="a_node9"><a xlink:href="d9/d2e/a00056.html" target="_top" xlink:title="mc::os::WindowModule">
<polygon fill="white" stroke="black" points="116,-38.5 116,-57.5 235,-57.5 235,-38.5 116,-38.5"/>
<text text-anchor="middle" x="175.5" y="-45.5" font-family="Helvetica,sans-Serif" font-size="10.00">mc::os::WindowModule</text>
</a>
</g>
</g>
<!-- Node1&#45;&gt;Node9 -->
<g id="edge8" class="edge"><title>Node1&#45;&gt;Node9</title>
<path fill="none" stroke="midnightblue" d="M84.53,-73.6094C102.812,-68.4055 123.749,-62.4459 140.823,-57.5859"/>
<polygon fill="midnightblue" stroke="midnightblue" points="83.3474,-70.3069 74.6877,-76.411 85.2639,-77.0395 83.3474,-70.3069"/>
</g>
<!-- Node3 -->
<g id="node3" class="node"><title>Node3</title>
<g id="a_node3"><a xlink:href="d4/d51/a00017.html" target="_top" xlink:title="mc::gfx::Entity2D">
<polygon fill="white" stroke="black" points="271,-114.5 271,-133.5 363,-133.5 363,-114.5 271,-114.5"/>
<text text-anchor="middle" x="317" y="-121.5" font-family="Helvetica,sans-Serif" font-size="10.00">mc::gfx::Entity2D</text>
</a>
</g>
</g>
<!-- Node2&#45;&gt;Node3 -->
<g id="edge2" class="edge"><title>Node2&#45;&gt;Node3</title>
<path fill="none" stroke="midnightblue" d="M245.381,-124C254.04,-124 262.716,-124 270.877,-124"/>
<polygon fill="midnightblue" stroke="midnightblue" points="245.256,-120.5 235.256,-124 245.256,-127.5 245.256,-120.5"/>
</g>
<!-- Node4 -->
<g id="node4" class="node"><title>Node4</title>
<g id="a_node4"><a xlink:href="dc/de2/a00024.html" target="_top" xlink:title="mc::gfx::Image">
<polygon fill="white" stroke="black" points="413,-171.5 413,-190.5 494,-190.5 494,-171.5 413,-171.5"/>
<text text-anchor="middle" x="453.5" y="-178.5" font-family="Helvetica,sans-Serif" font-size="10.00">mc::gfx::Image</text>
</a>
</g>
</g>
<!-- Node3&#45;&gt;Node4 -->
<g id="edge3" class="edge"><title>Node3&#45;&gt;Node4</title>
<path fill="none" stroke="midnightblue" d="M346.107,-138.011C361.555,-145.501 381.153,-154.665 399,-162 407.023,-165.297 415.851,-168.573 423.984,-171.452"/>
<polygon fill="midnightblue" stroke="midnightblue" points="347.598,-134.844 337.077,-133.594 344.522,-141.132 347.598,-134.844"/>
</g>
<!-- Node5 -->
<g id="node5" class="node"><title>Node5</title>
<g id="a_node5"><a xlink:href="dc/d3c/a00028.html" target="_top" xlink:title="mc::gfx::Letter">
<polygon fill="white" stroke="black" points="413.5,-133.5 413.5,-152.5 493.5,-152.5 493.5,-133.5 413.5,-133.5"/>
<text text-anchor="middle" x="453.5" y="-140.5" font-family="Helvetica,sans-Serif" font-size="10.00">mc::gfx::Letter</text>
</a>
</g>
</g>
<!-- Node3&#45;&gt;Node5 -->
<g id="edge4" class="edge"><title>Node3&#45;&gt;Node5</title>
<path fill="none" stroke="midnightblue" d="M373.221,-131.801C386.591,-133.689 400.617,-135.671 413.091,-137.433"/>
<polygon fill="midnightblue" stroke="midnightblue" points="373.552,-128.313 363.161,-130.38 372.573,-135.244 373.552,-128.313"/>
</g>
<!-- Node6 -->
<g id="node6" class="node"><title>Node6</title>
<g id="a_node6"><a xlink:href="de/d8c/a00036.html" target="_top" xlink:title="mc::gfx::ProgressBar">
<polygon fill="white" stroke="black" points="399,-95.5 399,-114.5 508,-114.5 508,-95.5 399,-95.5"/>
<text text-anchor="middle" x="453.5" y="-102.5" font-family="Helvetica,sans-Serif" font-size="10.00">mc::gfx::ProgressBar</text>
</a>
</g>
</g>
<!-- Node3&#45;&gt;Node6 -->
<g id="edge5" class="edge"><title>Node3&#45;&gt;Node6</title>
<path fill="none" stroke="midnightblue" d="M373.291,-116.189C381.733,-114.997 390.434,-113.768 398.839,-112.58"/>
<polygon fill="midnightblue" stroke="midnightblue" points="372.573,-112.756 363.161,-117.62 373.552,-119.687 372.573,-112.756"/>
</g>
<!-- Node7 -->
<g id="node7" class="node"><title>Node7</title>
<g id="a_node7"><a xlink:href="d2/dee/a00049.html" target="_top" xlink:title="mc::gfx::Text">
<polygon fill="white" stroke="black" points="416.5,-57.5 416.5,-76.5 490.5,-76.5 490.5,-57.5 416.5,-57.5"/>
<text text-anchor="middle" x="453.5" y="-64.5" font-family="Helvetica,sans-Serif" font-size="10.00">mc::gfx::Text</text>
</a>
</g>
</g>
<!-- Node3&#45;&gt;Node7 -->
<g id="edge6" class="edge"><title>Node3&#45;&gt;Node7</title>
<path fill="none" stroke="midnightblue" d="M346.107,-109.989C361.555,-102.499 381.153,-93.3348 399,-86 407.023,-82.7027 415.851,-79.4272 423.984,-76.5481"/>
<polygon fill="midnightblue" stroke="midnightblue" points="344.522,-106.868 337.077,-114.406 347.598,-113.156 344.522,-106.868"/>
</g>
<!-- Node10 -->
<g id="node10" class="node"><title>Node10</title>
<g id="a_node10"><a xlink:href="df/d61/a00031.html" target="_top" xlink:title="Abstract class used for doing a task in MACE. ">
<polygon fill="white" stroke="black" points="6,-19.5 6,-38.5 74,-38.5 74,-19.5 6,-19.5"/>
<text text-anchor="middle" x="40" y="-26.5" font-family="Helvetica,sans-Serif" font-size="10.00">mc::Module</text>
</a>
</g>
</g>
<!-- Node10&#45;&gt;Node9 -->
<g id="edge10" class="edge"><title>Node10&#45;&gt;Node9</title>
<path fill="none" stroke="midnightblue" d="M84.1861,-35.1463C94.2924,-36.5847 105.225,-38.1407 115.878,-39.6568"/>
<polygon fill="midnightblue" stroke="midnightblue" points="84.3934,-31.6407 74,-33.6966 83.4071,-38.5708 84.3934,-31.6407"/>
</g>
<!-- Node11 -->
<g id="node11" class="node"><title>Node11</title>
<g id="a_node11"><a xlink:href="de/d21/a00006.html" target="_top" xlink:title="mc::AudioModule">
<polygon fill="white" stroke="black" points="129.5,-0.5 129.5,-19.5 221.5,-19.5 221.5,-0.5 129.5,-0.5"/>
<text text-anchor="middle" x="175.5" y="-7.5" font-family="Helvetica,sans-Serif" font-size="10.00">mc::AudioModule</text>
</a>
</g>
</g>
<!-- Node10&#45;&gt;Node11 -->
<g id="edge9" class="edge"><title>Node10&#45;&gt;Node11</title>
<path fill="none" stroke="midnightblue" d="M84.1628,-22.857C98.5926,-20.8033 114.71,-18.5094 129.291,-16.4342"/>
<polygon fill="midnightblue" stroke="midnightblue" points="83.4071,-19.4292 74,-24.3034 84.3934,-26.3593 83.4071,-19.4292"/>
</g>
</g>
</svg>
