<?xml version="1.0" encoding="UTF-8" standalone="no"?>
<!DOCTYPE svg PUBLIC "-//W3C//DTD SVG 1.1//EN"
 "http://www.w3.org/Graphics/SVG/1.1/DTD/svg11.dtd">
<!-- Generated by graphviz version 2.38.0 (20140413.2041)
 -->
<!-- Title: Graphical Class Hierarchy Pages: 1 -->
<svg width="445pt" height="28pt"
 viewBox="0.00 0.00 445.00 28.00" xmlns="http://www.w3.org/2000/svg" xmlns:xlink="http://www.w3.org/1999/xlink">
<g id="graph0" class="graph" transform="scale(1 1) rotate(0) translate(4 24)">
<title>Graphical Class Hierarchy</title>
<polygon fill="white" stroke="none" points="-4,4 -4,-24 441,-24 441,4 -4,4"/>
<!-- Node1 -->
<g id="node1" class="node"><title>Node1</title>
<g id="a_node1"><a xlink:title="STL class. ">
<polygon fill="white" stroke="#bfbfbf" points="0,-0.5 0,-19.5 78,-19.5 78,-0.5 0,-0.5"/>
<text text-anchor="middle" x="39" y="-7.5" font-family="Helvetica,sans-Serif" font-size="10.00">std::exception</text>
</a>
</g>
</g>
<!-- Node2 -->
<g id="node2" class="node"><title>Node2</title>
<g id="a_node2"><a xlink:title="STL class. ">
<polygon fill="white" stroke="#bfbfbf" points="114,-0.5 114,-19.5 207,-19.5 207,-0.5 114,-0.5"/>
<text text-anchor="middle" x="160.5" y="-7.5" font-family="Helvetica,sans-Serif" font-size="10.00">std::runtime_error</text>
</a>
</g>
</g>
<!-- Node1&#45;&gt;Node2 -->
<g id="edge1" class="edge"><title>Node1&#45;&gt;Node2</title>
<path fill="none" stroke="midnightblue" d="M88.2251,-10C96.6625,-10 105.418,-10 113.785,-10"/>
<polygon fill="midnightblue" stroke="midnightblue" points="88.1391,-6.5001 78.1391,-10 88.1391,-13.5001 88.1391,-6.5001"/>
</g>
<!-- Node3 -->
<g id="node3" class="node"><title>Node3</title>
<g id="a_node3"><a xlink:href="dc/de2/a00024.html" target="_top" xlink:title="Superclass that all exceptions in MACE extend. ">
<polygon fill="white" stroke="black" points="243,-0.5 243,-19.5 300,-19.5 300,-0.5 243,-0.5"/>
<text text-anchor="middle" x="271.5" y="-7.5" font-family="Helvetica,sans-Serif" font-size="10.00">mc::Error</text>
</a>
</g>
</g>
<!-- Node2&#45;&gt;Node3 -->
<g id="edge2" class="edge"><title>Node2&#45;&gt;Node3</title>
<path fill="none" stroke="midnightblue" d="M217.133,-10C226.054,-10 234.935,-10 242.819,-10"/>
<polygon fill="midnightblue" stroke="midnightblue" points="217.094,-6.5001 207.094,-10 217.094,-13.5001 217.094,-6.5001"/>
</g>
<!-- Node4 -->
<g id="node4" class="node"><title>Node4</title>
<g id="a_node4"><a xlink:href="de/de1/a00065.html" target="_top" xlink:title="mc::os::SignalError">
<polygon fill="white" stroke="black" points="336,-0.5 336,-19.5 437,-19.5 437,-0.5 336,-0.5"/>
<text text-anchor="middle" x="386.5" y="-7.5" font-family="Helvetica,sans-Serif" font-size="10.00">mc::os::SignalError</text>
</a>
</g>
</g>
<!-- Node3&#45;&gt;Node4 -->
<g id="edge3" class="edge"><title>Node3&#45;&gt;Node4</title>
<path fill="none" stroke="midnightblue" d="M310.399,-10C318.503,-10 327.181,-10 335.656,-10"/>
<polygon fill="midnightblue" stroke="midnightblue" points="310.143,-6.5001 300.143,-10 310.143,-13.5001 310.143,-6.5001"/>
</g>
</g>
</svg>
