<?xml version="1.0" encoding="UTF-8" standalone="no"?>
<!DOCTYPE svg PUBLIC "-//W3C//DTD SVG 1.1//EN"
 "http://www.w3.org/Graphics/SVG/1.1/DTD/svg11.dtd">
<!-- Generated by graphviz version 2.38.0 (20140413.2041)
 -->
<!-- Title: Graphical Class Hierarchy Pages: 1 -->
<svg width="290pt" height="66pt"
 viewBox="0.00 0.00 290.00 66.00" xmlns="http://www.w3.org/2000/svg" xmlns:xlink="http://www.w3.org/1999/xlink">
<g id="graph0" class="graph" transform="scale(1 1) rotate(0) translate(4 62)">
<title>Graphical Class Hierarchy</title>
<polygon fill="white" stroke="none" points="-4,4 -4,-62 286,-62 286,4 -4,4"/>
<!-- Node1 -->
<g id="node1" class="node"><title>Node1</title>
<g id="a_node1"><a xlink:href="da/d45/a00011.html" target="_top" xlink:title="Can be plugged into an Entity to allow for additional functionality by listening to events...">
<polygon fill="white" stroke="black" points="0,-19.5 0,-38.5 104,-38.5 104,-19.5 0,-19.5"/>
<text text-anchor="middle" x="52" y="-26.5" font-family="Helvetica,sans-Serif" font-size="10.00">mc::gfx::Component</text>
</a>
</g>
</g>
<!-- Node2 -->
<g id="node2" class="node"><title>Node2</title>
<g id="a_node2"><a xlink:href="da/da0/a00009.html" target="_top" xlink:title="mc::gfx::CallbackComponent">
<polygon fill="white" stroke="black" points="140,-38.5 140,-57.5 282,-57.5 282,-38.5 140,-38.5"/>
<text text-anchor="middle" x="211" y="-45.5" font-family="Helvetica,sans-Serif" font-size="10.00">mc::gfx::CallbackComponent</text>
</a>
</g>
</g>
<!-- Node1&#45;&gt;Node2 -->
<g id="edge1" class="edge"><title>Node1&#45;&gt;Node2</title>
<path fill="none" stroke="midnightblue" d="M114.446,-36.4361C122.808,-37.4481 131.441,-38.4929 139.941,-39.5215"/>
<polygon fill="midnightblue" stroke="midnightblue" points="114.756,-32.9482 104.408,-35.2213 113.915,-39.8975 114.756,-32.9482"/>
</g>
<!-- Node3 -->
<g id="node3" class="node"><title>Node3</title>
<g id="a_node3"><a xlink:href="dd/da2/a00019.html" target="_top" xlink:title="mc::gfx::FPSComponent">
<polygon fill="white" stroke="black" points="149,-0.5 149,-19.5 273,-19.5 273,-0.5 149,-0.5"/>
<text text-anchor="middle" x="211" y="-7.5" font-family="Helvetica,sans-Serif" font-size="10.00">mc::gfx::FPSComponent</text>
</a>
</g>
</g>
<!-- Node1&#45;&gt;Node3 -->
<g id="edge2" class="edge"><title>Node1&#45;&gt;Node3</title>
<path fill="none" stroke="midnightblue" d="M114.6,-21.5452C125.879,-20.1803 137.646,-18.7562 148.91,-17.3931"/>
<polygon fill="midnightblue" stroke="midnightblue" points="113.915,-18.1025 104.408,-22.7787 114.756,-25.0518 113.915,-18.1025"/>
</g>
</g>
</svg>
