<?xml version="1.0" encoding="UTF-8" standalone="no"?>
<!DOCTYPE svg PUBLIC "-//W3C//DTD SVG 1.1//EN"
 "http://www.w3.org/Graphics/SVG/1.1/DTD/svg11.dtd">
<!-- Generated by graphviz version 2.38.0 (20140413.2041)
 -->
<!-- Title: Graphical Class Hierarchy Pages: 1 -->
<svg width="407pt" height="332pt"
 viewBox="0.00 0.00 407.00 332.00" xmlns="http://www.w3.org/2000/svg" xmlns:xlink="http://www.w3.org/1999/xlink">
<g id="graph0" class="graph" transform="scale(1 1) rotate(0) translate(4 328)">
<title>Graphical Class Hierarchy</title>
<polygon fill="white" stroke="none" points="-4,4 -4,-328 403,-328 403,4 -4,4"/>
<!-- Node1 -->
<g id="node1" class="node"><title>Node1</title>
<g id="a_node1"><a xlink:href="d0/d33/a00027.html" target="_top" xlink:title="Represents a OpenGL object in memory. ">
<polygon fill="white" stroke="black" points="0,-95.5 0,-114.5 83,-114.5 83,-95.5 0,-95.5"/>
<text text-anchor="middle" x="41.5" y="-102.5" font-family="Helvetica,sans-Serif" font-size="10.00">mc::gfx::Object</text>
</a>
</g>
</g>
<!-- Node2 -->
<g id="node2" class="node"><title>Node2</title>
<g id="a_node2"><a xlink:href="de/d5e/a00007.html" target="_top" xlink:title="Represents a buffer of memory in the GPU. ">
<polygon fill="white" stroke="black" points="134,-190.5 134,-209.5 214,-209.5 214,-190.5 134,-190.5"/>
<text text-anchor="middle" x="174" y="-197.5" font-family="Helvetica,sans-Serif" font-size="10.00">mc::gfx::Buffer</text>
</a>
</g>
</g>
<!-- Node1&#45;&gt;Node2 -->
<g id="edge1" class="edge"><title>Node1&#45;&gt;Node2</title>
<path fill="none" stroke="midnightblue" d="M56.2007,-122.575C70.3088,-139.618 93.745,-165.159 119,-181 124.978,-184.75 131.793,-187.881 138.522,-190.448"/>
<polygon fill="midnightblue" stroke="midnightblue" points="58.7161,-120.118 49.7131,-114.533 53.268,-124.514 58.7161,-120.118"/>
</g>
<!-- Node10 -->
<g id="node10" class="node"><title>Node10</title>
<g id="a_node10"><a xlink:href="d4/d51/a00017.html" target="_top" xlink:title="Represents an OpenGL Framebuffer Object which allows rendering to a non&#45;screen location. ">
<polygon fill="white" stroke="black" points="120.5,-152.5 120.5,-171.5 227.5,-171.5 227.5,-152.5 120.5,-152.5"/>
<text text-anchor="middle" x="174" y="-159.5" font-family="Helvetica,sans-Serif" font-size="10.00">mc::gfx::FrameBuffer</text>
</a>
</g>
</g>
<!-- Node1&#45;&gt;Node10 -->
<g id="edge9" class="edge"><title>Node1&#45;&gt;Node10</title>
<path fill="none" stroke="midnightblue" d="M69.0782,-119.207C83.6225,-126.725 102.079,-135.852 119,-143 126.965,-146.364 135.753,-149.637 143.885,-152.49"/>
<polygon fill="midnightblue" stroke="midnightblue" points="70.6247,-116.066 60.1409,-114.536 67.3824,-122.27 70.6247,-116.066"/>
</g>
<!-- Node11 -->
<g id="node11" class="node"><title>Node11</title>
<g id="a_node11"><a xlink:href="df/d61/a00031.html" target="_top" xlink:title="Special object that is used for asynchronous queries of information from the GPU. ...">
<polygon fill="white" stroke="black" points="119,-114.5 119,-133.5 229,-133.5 229,-114.5 119,-114.5"/>
<text text-anchor="middle" x="174" y="-121.5" font-family="Helvetica,sans-Serif" font-size="10.00">mc::gfx::QueryObject</text>
</a>
</g>
</g>
<!-- Node1&#45;&gt;Node11 -->
<g id="edge10" class="edge"><title>Node1&#45;&gt;Node11</title>
<path fill="none" stroke="midnightblue" d="M93.0552,-112.361C101.407,-113.576 110.097,-114.842 118.539,-116.071"/>
<polygon fill="midnightblue" stroke="midnightblue" points="93.4756,-108.885 83.0757,-110.908 92.467,-115.812 93.4756,-108.885"/>
</g>
<!-- Node12 -->
<g id="node12" class="node"><title>Node12</title>
<g id="a_node12"><a xlink:href="dc/d87/a00032.html" target="_top" xlink:title="Represents a render buffer for use with a `FrameBuffer. ">
<polygon fill="white" stroke="black" points="119,-76.5 119,-95.5 229,-95.5 229,-76.5 119,-76.5"/>
<text text-anchor="middle" x="174" y="-83.5" font-family="Helvetica,sans-Serif" font-size="10.00">mc::gfx::RenderBuffer</text>
</a>
</g>
</g>
<!-- Node1&#45;&gt;Node12 -->
<g id="edge11" class="edge"><title>Node1&#45;&gt;Node12</title>
<path fill="none" stroke="midnightblue" d="M93.0552,-97.6395C101.407,-96.4236 110.097,-95.1583 118.539,-93.9291"/>
<polygon fill="midnightblue" stroke="midnightblue" points="92.467,-94.1881 83.0757,-99.0924 93.4756,-101.115 92.467,-94.1881"/>
</g>
<!-- Node13 -->
<g id="node13" class="node"><title>Node13</title>
<g id="a_node13"><a xlink:href="d8/d41/a00038.html" target="_top" xlink:title="mc::gfx::Texture">
<polygon fill="white" stroke="black" points="130.5,-38.5 130.5,-57.5 217.5,-57.5 217.5,-38.5 130.5,-38.5"/>
<text text-anchor="middle" x="174" y="-45.5" font-family="Helvetica,sans-Serif" font-size="10.00">mc::gfx::Texture</text>
</a>
</g>
</g>
<!-- Node1&#45;&gt;Node13 -->
<g id="edge12" class="edge"><title>Node1&#45;&gt;Node13</title>
<path fill="none" stroke="midnightblue" d="M69.0782,-90.7927C83.6225,-83.2749 102.079,-74.1477 119,-67 126.965,-63.6355 135.753,-60.3634 143.885,-57.5096"/>
<polygon fill="midnightblue" stroke="midnightblue" points="67.3824,-87.7297 60.1409,-95.4635 70.6247,-93.9336 67.3824,-87.7297"/>
</g>
<!-- Node14 -->
<g id="node14" class="node"><title>Node14</title>
<g id="a_node14"><a xlink:href="d5/db6/a00042.html" target="_top" xlink:title="mc::gfx::VertexArray">
<polygon fill="white" stroke="black" points="120.5,-0.5 120.5,-19.5 227.5,-19.5 227.5,-0.5 120.5,-0.5"/>
<text text-anchor="middle" x="174" y="-7.5" font-family="Helvetica,sans-Serif" font-size="10.00">mc::gfx::VertexArray</text>
</a>
</g>
</g>
<!-- Node1&#45;&gt;Node14 -->
<g id="edge13" class="edge"><title>Node1&#45;&gt;Node14</title>
<path fill="none" stroke="midnightblue" d="M56.2007,-87.4253C70.3088,-70.3818 93.745,-44.8414 119,-29 124.978,-25.2505 131.793,-22.1193 138.522,-19.5519"/>
<polygon fill="midnightblue" stroke="midnightblue" points="53.268,-85.4863 49.7131,-95.467 58.7161,-89.8816 53.268,-85.4863"/>
</g>
<!-- Node3 -->
<g id="node3" class="node"><title>Node3</title>
<g id="a_node3"><a xlink:href="da/d45/a00011.html" target="_top" xlink:title="Special buffer with no extra semantics to be used as a proxy in copying. ">
<polygon fill="white" stroke="black" points="269.5,-304.5 269.5,-323.5 394.5,-323.5 394.5,-304.5 269.5,-304.5"/>
<text text-anchor="middle" x="332" y="-311.5" font-family="Helvetica,sans-Serif" font-size="10.00">mc::gfx::CopyReadBuffer</text>
</a>
</g>
</g>
<!-- Node2&#45;&gt;Node3 -->
<g id="edge2" class="edge"><title>Node2&#45;&gt;Node3</title>
<path fill="none" stroke="midnightblue" d="M187.302,-217.93C202.928,-239.364 231.879,-274.859 265,-295 271.316,-298.841 278.445,-301.936 285.621,-304.421"/>
<polygon fill="midnightblue" stroke="midnightblue" points="190.092,-215.815 181.447,-209.69 184.386,-219.869 190.092,-215.815"/>
</g>
<!-- Node4 -->
<g id="node4" class="node"><title>Node4</title>
<g id="a_node4"><a xlink:href="df/d86/a00012.html" target="_top" xlink:title="Special buffer with no extra semantics to be used as a proxy in copying. ">
<polygon fill="white" stroke="black" points="269.5,-266.5 269.5,-285.5 394.5,-285.5 394.5,-266.5 269.5,-266.5"/>
<text text-anchor="middle" x="332" y="-273.5" font-family="Helvetica,sans-Serif" font-size="10.00">mc::gfx::CopyWriteBuffer</text>
</a>
</g>
</g>
<!-- Node2&#45;&gt;Node4 -->
<g id="edge3" class="edge"><title>Node2&#45;&gt;Node4</title>
<path fill="none" stroke="midnightblue" d="M195.844,-215.622C213.492,-228.241 239.861,-245.7 265,-257 273.157,-260.666 282.199,-263.815 290.908,-266.435"/>
<polygon fill="midnightblue" stroke="midnightblue" points="197.607,-212.577 187.462,-209.523 193.489,-218.237 197.607,-212.577"/>
</g>
<!-- Node5 -->
<g id="node5" class="node"><title>Node5</title>
<g id="a_node5"><a xlink:href="d7/dd4/a00013.html" target="_top" xlink:title="Stores element indices to save vertex data. ">
<polygon fill="white" stroke="black" points="274,-228.5 274,-247.5 390,-247.5 390,-228.5 274,-228.5"/>
<text text-anchor="middle" x="332" y="-235.5" font-family="Helvetica,sans-Serif" font-size="10.00">mc::gfx::ElementBuffer</text>
</a>
</g>
</g>
<!-- Node2&#45;&gt;Node5 -->
<g id="edge4" class="edge"><title>Node2&#45;&gt;Node5</title>
<path fill="none" stroke="midnightblue" d="M224.132,-211.968C245.993,-217.293 271.376,-223.476 291.918,-228.48"/>
<polygon fill="midnightblue" stroke="midnightblue" points="224.91,-208.555 214.365,-209.589 223.253,-215.356 224.91,-208.555"/>
</g>
<!-- Node6 -->
<g id="node6" class="node"><title>Node6</title>
<g id="a_node6"><a xlink:href="dc/d3c/a00028.html" target="_top" xlink:title="Special buffer that excels at asynchronous pixel transfer operations. ">
<polygon fill="white" stroke="black" points="270,-190.5 270,-209.5 394,-209.5 394,-190.5 270,-190.5"/>
<text text-anchor="middle" x="332" y="-197.5" font-family="Helvetica,sans-Serif" font-size="10.00">mc::gfx::PixelPackBuffer</text>
</a>
</g>
</g>
<!-- Node2&#45;&gt;Node6 -->
<g id="edge5" class="edge"><title>Node2&#45;&gt;Node6</title>
<path fill="none" stroke="midnightblue" d="M224.534,-200C238.909,-200 254.778,-200 269.778,-200"/>
<polygon fill="midnightblue" stroke="midnightblue" points="224.365,-196.5 214.365,-200 224.365,-203.5 224.365,-196.5"/>
</g>
<!-- Node7 -->
<g id="node7" class="node"><title>Node7</title>
<g id="a_node7"><a xlink:href="d5/d16/a00029.html" target="_top" xlink:title="Special buffer that excels at asynchronous pixel transfer operations. ">
<polygon fill="white" stroke="black" points="265,-152.5 265,-171.5 399,-171.5 399,-152.5 265,-152.5"/>
<text text-anchor="middle" x="332" y="-159.5" font-family="Helvetica,sans-Serif" font-size="10.00">mc::gfx::PixelUnpackBuffer</text>
</a>
</g>
</g>
<!-- Node2&#45;&gt;Node7 -->
<g id="edge6" class="edge"><title>Node2&#45;&gt;Node7</title>
<path fill="none" stroke="midnightblue" d="M224.132,-188.032C245.993,-182.707 271.376,-176.524 291.918,-171.52"/>
<polygon fill="midnightblue" stroke="midnightblue" points="223.253,-184.644 214.365,-190.411 224.91,-191.445 223.253,-184.644"/>
</g>
<!-- Node8 -->
<g id="node8" class="node"><title>Node8</title>
<g id="a_node8"><a xlink:href="db/d3a/a00040.html" target="_top" xlink:title="Stores uniform data for a shader in the form of a buffer. ">
<polygon fill="white" stroke="black" points="275.5,-114.5 275.5,-133.5 388.5,-133.5 388.5,-114.5 275.5,-114.5"/>
<text text-anchor="middle" x="332" y="-121.5" font-family="Helvetica,sans-Serif" font-size="10.00">mc::gfx::UniformBuffer</text>
</a>
</g>
</g>
<!-- Node2&#45;&gt;Node8 -->
<g id="edge7" class="edge"><title>Node2&#45;&gt;Node8</title>
<path fill="none" stroke="midnightblue" d="M219.117,-186.494C222.56,-184.839 225.899,-183.011 229,-181 248.519,-168.341 245.122,-155.088 265,-143 271.316,-139.159 278.445,-136.064 285.621,-133.579"/>
<polygon fill="midnightblue" stroke="midnightblue" points="217.655,-183.313 209.852,-190.48 220.421,-189.743 217.655,-183.313"/>
</g>
<!-- Node9 -->
<g id="node9" class="node"><title>Node9</title>
<g id="a_node9"><a xlink:href="d6/d42/a00043.html" target="_top" xlink:title="Stores vertex data for a `VertexArray. ">
<polygon fill="white" stroke="black" points="278,-76.5 278,-95.5 386,-95.5 386,-76.5 278,-76.5"/>
<text text-anchor="middle" x="332" y="-83.5" font-family="Helvetica,sans-Serif" font-size="10.00">mc::gfx::VertexBuffer</text>
</a>
</g>
</g>
<!-- Node2&#45;&gt;Node9 -->
<g id="edge8" class="edge"><title>Node2&#45;&gt;Node9</title>
<path fill="none" stroke="midnightblue" d="M223.409,-185.33C225.383,-184.007 227.26,-182.568 229,-181 256.767,-155.982 236.519,-129.202 265,-105 269.543,-101.139 274.829,-98.0621 280.395,-95.6093"/>
<polygon fill="midnightblue" stroke="midnightblue" points="221.302,-182.497 214.255,-190.408 224.698,-188.618 221.302,-182.497"/>
</g>
</g>
</svg>
