<?xml version="1.0" encoding="UTF-8" standalone="no"?>
<!DOCTYPE svg PUBLIC "-//W3C//DTD SVG 1.1//EN"
 "http://www.w3.org/Graphics/SVG/1.1/DTD/svg11.dtd">
<!-- Generated by graphviz version 2.38.0 (20140413.2041)
 -->
<!-- Title: Graphical Class Hierarchy Pages: 1 -->
<svg width="386pt" height="180pt"
 viewBox="0.00 0.00 386.00 180.00" xmlns="http://www.w3.org/2000/svg" xmlns:xlink="http://www.w3.org/1999/xlink">
<g id="graph0" class="graph" transform="scale(1 1) rotate(0) translate(4 176)">
<title>Graphical Class Hierarchy</title>
<polygon fill="white" stroke="none" points="-4,4 -4,-176 382,-176 382,4 -4,4"/>
<!-- Node1 -->
<g id="node1" class="node"><title>Node1</title>
<g id="a_node1"><a xlink:href="dc/de2/a00024.html" target="_top" xlink:title="Represents a OpenGL object in memory. ">
<polygon fill="white" stroke="black" points="0,-76.5 0,-95.5 83,-95.5 83,-76.5 0,-76.5"/>
<text text-anchor="middle" x="41.5" y="-83.5" font-family="Helvetica,sans-Serif" font-size="10.00">mc::gfx::Object</text>
</a>
</g>
</g>
<!-- Node2 -->
<g id="node2" class="node"><title>Node2</title>
<g id="a_node2"><a xlink:href="de/d5e/a00007.html" target="_top" xlink:title="mc::gfx::Buffer">
<polygon fill="white" stroke="black" points="134,-152.5 134,-171.5 214,-171.5 214,-152.5 134,-152.5"/>
<text text-anchor="middle" x="174" y="-159.5" font-family="Helvetica,sans-Serif" font-size="10.00">mc::gfx::Buffer</text>
</a>
</g>
</g>
<!-- Node1&#45;&gt;Node2 -->
<g id="edge1" class="edge"><title>Node1&#45;&gt;Node2</title>
<path fill="none" stroke="midnightblue" d="M61.0801,-102.372C75.9397,-114.819 97.7364,-131.676 119,-143 125.754,-146.597 133.331,-149.749 140.624,-152.399"/>
<polygon fill="midnightblue" stroke="midnightblue" points="63.065,-99.4647 53.1891,-95.6286 58.5172,-104.786 63.065,-99.4647"/>
</g>
<!-- Node4 -->
<g id="node4" class="node"><title>Node4</title>
<g id="a_node4"><a xlink:href="d2/de7/a00014.html" target="_top" xlink:title="Represents an OpenGL Framebuffer Object which allows rendering to a non&#45;screen location. ">
<polygon fill="white" stroke="black" points="120.5,-114.5 120.5,-133.5 227.5,-133.5 227.5,-114.5 120.5,-114.5"/>
<text text-anchor="middle" x="174" y="-121.5" font-family="Helvetica,sans-Serif" font-size="10.00">mc::gfx::FrameBuffer</text>
</a>
</g>
</g>
<!-- Node1&#45;&gt;Node4 -->
<g id="edge3" class="edge"><title>Node1&#45;&gt;Node4</title>
<path fill="none" stroke="midnightblue" d="M85.0518,-98.3906C102.923,-103.594 123.39,-109.554 140.08,-114.414"/>
<polygon fill="midnightblue" stroke="midnightblue" points="86.0104,-95.0244 75.4307,-95.589 84.0534,-101.745 86.0104,-95.0244"/>
</g>
<!-- Node5 -->
<g id="node5" class="node"><title>Node5</title>
<g id="a_node5"><a xlink:href="d6/d5b/a00026.html" target="_top" xlink:title="Represents a render buffer for use with a `FrameBuffer. ">
<polygon fill="white" stroke="black" points="119,-76.5 119,-95.5 229,-95.5 229,-76.5 119,-76.5"/>
<text text-anchor="middle" x="174" y="-83.5" font-family="Helvetica,sans-Serif" font-size="10.00">mc::gfx::RenderBuffer</text>
</a>
</g>
</g>
<!-- Node1&#45;&gt;Node5 -->
<g id="edge4" class="edge"><title>Node1&#45;&gt;Node5</title>
<path fill="none" stroke="midnightblue" d="M93.3306,-86C101.598,-86 110.19,-86 118.539,-86"/>
<polygon fill="midnightblue" stroke="midnightblue" points="93.0757,-82.5001 83.0757,-86 93.0756,-89.5001 93.0757,-82.5001"/>
</g>
<!-- Node6 -->
<g id="node6" class="node"><title>Node6</title>
<g id="a_node6"><a xlink:href="dc/d87/a00032.html" target="_top" xlink:title="mc::gfx::Texture">
<polygon fill="white" stroke="black" points="130.5,-38.5 130.5,-57.5 217.5,-57.5 217.5,-38.5 130.5,-38.5"/>
<text text-anchor="middle" x="174" y="-45.5" font-family="Helvetica,sans-Serif" font-size="10.00">mc::gfx::Texture</text>
</a>
</g>
</g>
<!-- Node1&#45;&gt;Node6 -->
<g id="edge5" class="edge"><title>Node1&#45;&gt;Node6</title>
<path fill="none" stroke="midnightblue" d="M85.0518,-73.6094C102.923,-68.4055 123.39,-62.4459 140.08,-57.5859"/>
<polygon fill="midnightblue" stroke="midnightblue" points="84.0534,-70.2547 75.4307,-76.411 86.0104,-76.9756 84.0534,-70.2547"/>
</g>
<!-- Node7 -->
<g id="node7" class="node"><title>Node7</title>
<g id="a_node7"><a xlink:href="de/d8c/a00036.html" target="_top" xlink:title="mc::gfx::VertexArray">
<polygon fill="white" stroke="black" points="120.5,-0.5 120.5,-19.5 227.5,-19.5 227.5,-0.5 120.5,-0.5"/>
<text text-anchor="middle" x="174" y="-7.5" font-family="Helvetica,sans-Serif" font-size="10.00">mc::gfx::VertexArray</text>
</a>
</g>
</g>
<!-- Node1&#45;&gt;Node7 -->
<g id="edge6" class="edge"><title>Node1&#45;&gt;Node7</title>
<path fill="none" stroke="midnightblue" d="M61.0801,-69.6276C75.9397,-57.1807 97.7364,-40.3237 119,-29 125.754,-25.403 133.331,-22.2509 140.624,-19.6014"/>
<polygon fill="midnightblue" stroke="midnightblue" points="58.5172,-67.2138 53.1891,-76.3714 63.065,-72.5353 58.5172,-67.2138"/>
</g>
<!-- Node3 -->
<g id="node3" class="node"><title>Node3</title>
<g id="a_node3"><a xlink:href="db/df3/a00034.html" target="_top" xlink:title="mc::gfx::UniformBuffer">
<polygon fill="white" stroke="black" points="265,-152.5 265,-171.5 378,-171.5 378,-152.5 265,-152.5"/>
<text text-anchor="middle" x="321.5" y="-159.5" font-family="Helvetica,sans-Serif" font-size="10.00">mc::gfx::UniformBuffer</text>
</a>
</g>
</g>
<!-- Node2&#45;&gt;Node3 -->
<g id="edge2" class="edge"><title>Node2&#45;&gt;Node3</title>
<path fill="none" stroke="midnightblue" d="M224.538,-162C237.553,-162 251.675,-162 264.981,-162"/>
<polygon fill="midnightblue" stroke="midnightblue" points="224.374,-158.5 214.374,-162 224.374,-165.5 224.374,-158.5"/>
</g>
</g>
</svg>
