<?xml version="1.0" encoding="UTF-8" standalone="no"?>
<!DOCTYPE svg PUBLIC "-//W3C//DTD SVG 1.1//EN"
 "http://www.w3.org/Graphics/SVG/1.1/DTD/svg11.dtd">
<!-- Generated by graphviz version 2.38.0 (20140413.2041)
 -->
<!-- Title: Graphical Class Hierarchy Pages: 1 -->
<svg width="296pt" height="104pt"
 viewBox="0.00 0.00 296.00 104.00" xmlns="http://www.w3.org/2000/svg" xmlns:xlink="http://www.w3.org/1999/xlink">
<g id="graph0" class="graph" transform="scale(1 1) rotate(0) translate(4 100)">
<title>Graphical Class Hierarchy</title>
<polygon fill="white" stroke="none" points="-4,4 -4,-100 292,-100 292,4 -4,4"/>
<!-- Node1 -->
<g id="node1" class="node"><title>Node1</title>
<g id="a_node1"><a xlink:href="d2/de7/a00014.html" target="_top" xlink:title="Can be plugged into an Entity to allow for additional functionality by listening to events...">
<polygon fill="white" stroke="black" points="0,-38.5 0,-57.5 104,-57.5 104,-38.5 0,-38.5"/>
<text text-anchor="middle" x="52" y="-45.5" font-family="Helvetica,sans-Serif" font-size="10.00">mc::gfx::Component</text>
</a>
</g>
</g>
<!-- Node2 -->
<g id="node2" class="node"><title>Node2</title>
<g id="a_node2"><a xlink:href="de/d21/a00006.html" target="_top" xlink:title="mc::gfx::AlignmentComponent">
<polygon fill="white" stroke="black" points="140,-76.5 140,-95.5 288,-95.5 288,-76.5 140,-76.5"/>
<text text-anchor="middle" x="214" y="-83.5" font-family="Helvetica,sans-Serif" font-size="10.00">mc::gfx::AlignmentComponent</text>
</a>
</g>
</g>
<!-- Node1&#45;&gt;Node2 -->
<g id="edge1" class="edge"><title>Node1&#45;&gt;Node2</title>
<path fill="none" stroke="midnightblue" d="M103.392,-59.968C125.813,-65.2931 151.847,-71.4762 172.916,-76.4799"/>
<polygon fill="midnightblue" stroke="midnightblue" points="103.913,-56.4945 93.3748,-57.589 102.295,-63.3051 103.913,-56.4945"/>
</g>
<!-- Node3 -->
<g id="node3" class="node"><title>Node3</title>
<g id="a_node3"><a xlink:href="da/d45/a00011.html" target="_top" xlink:title="mc::gfx::CallbackComponent">
<polygon fill="white" stroke="black" points="143,-38.5 143,-57.5 285,-57.5 285,-38.5 143,-38.5"/>
<text text-anchor="middle" x="214" y="-45.5" font-family="Helvetica,sans-Serif" font-size="10.00">mc::gfx::CallbackComponent</text>
</a>
</g>
</g>
<!-- Node1&#45;&gt;Node3 -->
<g id="edge2" class="edge"><title>Node1&#45;&gt;Node3</title>
<path fill="none" stroke="midnightblue" d="M114.102,-48C123.51,-48 133.288,-48 142.874,-48"/>
<polygon fill="midnightblue" stroke="midnightblue" points="114.065,-44.5001 104.065,-48 114.065,-51.5001 114.065,-44.5001"/>
</g>
<!-- Node4 -->
<g id="node4" class="node"><title>Node4</title>
<g id="a_node4"><a xlink:href="d3/d52/a00023.html" target="_top" xlink:title="mc::gfx::FPSComponent">
<polygon fill="white" stroke="black" points="152,-0.5 152,-19.5 276,-19.5 276,-0.5 152,-0.5"/>
<text text-anchor="middle" x="214" y="-7.5" font-family="Helvetica,sans-Serif" font-size="10.00">mc::gfx::FPSComponent</text>
</a>
</g>
</g>
<!-- Node1&#45;&gt;Node4 -->
<g id="edge3" class="edge"><title>Node1&#45;&gt;Node4</title>
<path fill="none" stroke="midnightblue" d="M103.392,-36.032C125.813,-30.7069 151.847,-24.5238 172.916,-19.5201"/>
<polygon fill="midnightblue" stroke="midnightblue" points="102.295,-32.6949 93.3748,-38.411 103.913,-39.5055 102.295,-32.6949"/>
</g>
</g>
</svg>
