<?xml version="1.0" encoding="UTF-8" standalone="no"?>
<!DOCTYPE svg PUBLIC "-//W3C//DTD SVG 1.1//EN"
 "http://www.w3.org/Graphics/SVG/1.1/DTD/svg11.dtd">
<!-- Generated by graphviz version 2.38.0 (20140413.2041)
 -->
<!-- Title: Graphical Class Hierarchy Pages: 1 -->
<svg width="293pt" height="78pt"
 viewBox="0.00 0.00 293.00 77.50" xmlns="http://www.w3.org/2000/svg" xmlns:xlink="http://www.w3.org/1999/xlink">
<g id="graph0" class="graph" transform="scale(1 1) rotate(0) translate(4 73.5)">
<title>Graphical Class Hierarchy</title>
<polygon fill="white" stroke="none" points="-4,4 -4,-73.5 289,-73.5 289,4 -4,4"/>
<!-- Node1 -->
<g id="node1" class="node"><title>Node1</title>
<g id="a_node1"><a xlink:href="d5/d79/a00030.html" target="_top" xlink:title="mc::gfx::RenderImpl">
<polygon fill="white" stroke="black" points="0,-28 0,-47 104,-47 104,-28 0,-28"/>
<text text-anchor="middle" x="52" y="-35" font-family="Helvetica,sans-Serif" font-size="10.00">mc::gfx::RenderImpl</text>
</a>
</g>
</g>
<!-- Node2 -->
<g id="node2" class="node"><title>Node2</title>
<g id="a_node2"><a xlink:href="df/d61/a00031.html" target="_top" xlink:title="mc::gfx::RenderProtocol\&lt; T \&gt;">
<polygon fill="white" stroke="black" points="140,-50 140,-69 285,-69 285,-50 140,-50"/>
<text text-anchor="middle" x="212.5" y="-57" font-family="Helvetica,sans-Serif" font-size="10.00">mc::gfx::RenderProtocol&lt; T &gt;</text>
</a>
</g>
</g>
<!-- Node1&#45;&gt;Node2 -->
<g id="edge1" class="edge"><title>Node1&#45;&gt;Node2</title>
<path fill="none" stroke="midnightblue" d="M114.1,-45.9807C123.543,-47.2914 133.349,-48.6526 142.943,-49.9842"/>
<polygon fill="midnightblue" stroke="midnightblue" points="114.409,-42.4902 104.023,-44.582 113.447,-49.4237 114.409,-42.4902"/>
</g>
<!-- Node3 -->
<g id="node3" class="node"><title>Node3</title>
<g id="a_node3"><a xlink:href="dc/d87/a00032.html" target="_top" xlink:title="mc::gfx::RenderProtocol\l\&lt; Entity2D \&gt;">
<polygon fill="white" stroke="black" points="151.5,-0.5 151.5,-30.5 273.5,-30.5 273.5,-0.5 151.5,-0.5"/>
<text text-anchor="start" x="159.5" y="-18.5" font-family="Helvetica,sans-Serif" font-size="10.00">mc::gfx::RenderProtocol</text>
<text text-anchor="middle" x="212.5" y="-7.5" font-family="Helvetica,sans-Serif" font-size="10.00">&lt; Entity2D &gt;</text>
</a>
</g>
</g>
<!-- Node1&#45;&gt;Node3 -->
<g id="edge2" class="edge"><title>Node1&#45;&gt;Node3</title>
<path fill="none" stroke="midnightblue" d="M114.139,-29.0138C126.386,-27.3139 139.243,-25.5294 151.453,-23.8347"/>
<polygon fill="midnightblue" stroke="midnightblue" points="113.447,-25.5763 104.023,-30.418 114.409,-32.5098 113.447,-25.5763"/>
</g>
</g>
</svg>
