<?xml version="1.0" encoding="UTF-8" standalone="no"?>
<!DOCTYPE svg PUBLIC "-//W3C//DTD SVG 1.1//EN"
 "http://www.w3.org/Graphics/SVG/1.1/DTD/svg11.dtd">
<!-- Generated by graphviz version 2.38.0 (20140413.2041)
 -->
<!-- Title: Graphical Class Hierarchy Pages: 1 -->
<svg width="449pt" height="50pt"
 viewBox="0.00 0.00 449.00 50.00" xmlns="http://www.w3.org/2000/svg" xmlns:xlink="http://www.w3.org/1999/xlink">
<g id="graph0" class="graph" transform="scale(1 1) rotate(0) translate(4 46)">
<title>Graphical Class Hierarchy</title>
<polygon fill="white" stroke="none" points="-4,4 -4,-46 445,-46 445,4 -4,4"/>
<!-- Node1 -->
<g id="node1" class="node"><title>Node1</title>
<g id="a_node1"><a xlink:href="d1/d1e/a00087.html" target="_top" xlink:title="mc::VectorBase\&lt; Vector\l\&lt; MatrixRow\&lt; T, H \&gt;, N\l \&gt;, MatrixRow\&lt; T, H \&gt;, N \&gt;">
<polygon fill="white" stroke="black" points="0,-0.5 0,-41.5 135,-41.5 135,-0.5 0,-0.5"/>
<text text-anchor="start" x="8" y="-29.5" font-family="Helvetica,sans-Serif" font-size="10.00">mc::VectorBase&lt; Vector</text>
<text text-anchor="start" x="8" y="-18.5" font-family="Helvetica,sans-Serif" font-size="10.00">&lt; MatrixRow&lt; T, H &gt;, N</text>
<text text-anchor="middle" x="67.5" y="-7.5" font-family="Helvetica,sans-Serif" font-size="10.00"> &gt;, MatrixRow&lt; T, H &gt;, N &gt;</text>
</a>
</g>
</g>
<!-- Node2 -->
<g id="node2" class="node"><title>Node2</title>
<g id="a_node2"><a xlink:href="d1/d51/a00079.html" target="_top" xlink:title="mc::Vector\&lt; MatrixRow\l\&lt; T, H \&gt;, W \&gt;">
<polygon fill="white" stroke="black" points="171,-6 171,-36 290,-36 290,-6 171,-6"/>
<text text-anchor="start" x="179" y="-24" font-family="Helvetica,sans-Serif" font-size="10.00">mc::Vector&lt; MatrixRow</text>
<text text-anchor="middle" x="230.5" y="-13" font-family="Helvetica,sans-Serif" font-size="10.00">&lt; T, H &gt;, W &gt;</text>
</a>
</g>
</g>
<!-- Node1&#45;&gt;Node2 -->
<g id="edge1" class="edge"><title>Node1&#45;&gt;Node2</title>
<path fill="none" stroke="midnightblue" d="M145.644,-21C154.099,-21 162.604,-21 170.785,-21"/>
<polygon fill="midnightblue" stroke="midnightblue" points="145.38,-17.5001 135.38,-21 145.38,-24.5001 145.38,-17.5001"/>
</g>
<!-- Node3 -->
<g id="node3" class="node"><title>Node3</title>
<g id="a_node3"><a xlink:href="de/d8c/a00036.html" target="_top" xlink:title="A class representing a 2&#45;dimensional matrix, and allows for math involving matrices. ">
<polygon fill="white" stroke="black" points="326,-11.5 326,-30.5 441,-30.5 441,-11.5 326,-11.5"/>
<text text-anchor="middle" x="383.5" y="-18.5" font-family="Helvetica,sans-Serif" font-size="10.00">mc::Matrix&lt; T, W, H &gt;</text>
</a>
</g>
</g>
<!-- Node2&#45;&gt;Node3 -->
<g id="edge2" class="edge"><title>Node2&#45;&gt;Node3</title>
<path fill="none" stroke="midnightblue" d="M300.477,-21C308.877,-21 317.385,-21 325.581,-21"/>
<polygon fill="midnightblue" stroke="midnightblue" points="300.313,-17.5001 290.313,-21 300.313,-24.5001 300.313,-17.5001"/>
</g>
</g>
</svg>
