<?xml version="1.0" encoding="UTF-8" standalone="no"?>
<!DOCTYPE svg PUBLIC "-//W3C//DTD SVG 1.1//EN"
 "http://www.w3.org/Graphics/SVG/1.1/DTD/svg11.dtd">
<!-- Generated by graphviz version 2.38.0 (20140413.2041)
 -->
<!-- Title: Graphical Class Hierarchy Pages: 1 -->
<svg width="765pt" height="816pt"
 viewBox="0.00 0.00 765.00 816.00" xmlns="http://www.w3.org/2000/svg" xmlns:xlink="http://www.w3.org/1999/xlink">
<g id="graph0" class="graph" transform="scale(1 1) rotate(0) translate(4 812)">
<title>Graphical Class Hierarchy</title>
<polygon fill="white" stroke="none" points="-4,4 -4,-812 761,-812 761,4 -4,4"/>
<!-- Node1 -->
<g id="node1" class="node"><title>Node1</title>
<g id="a_node1"><a xlink:href="da/da0/a00009.html" target="_top" xlink:title="mc::Bindable">
<polygon fill="white" stroke="black" points="5,-608.5 5,-627.5 79,-627.5 79,-608.5 5,-608.5"/>
<text text-anchor="middle" x="42" y="-615.5" font-family="Helvetica,sans-Serif" font-size="10.00">mc::Bindable</text>
</a>
</g>
</g>
<!-- Node2 -->
<g id="node2" class="node"><title>Node2</title>
<g id="a_node2"><a xlink:href="d6/d97/a00045.html" target="_top" xlink:title="Represents a OpenGL object in memory. ">
<polygon fill="white" stroke="black" points="133,-570.5 133,-589.5 235,-589.5 235,-570.5 133,-570.5"/>
<text text-anchor="middle" x="184" y="-577.5" font-family="Helvetica,sans-Serif" font-size="10.00">mc::gfx::ogl::Object</text>
</a>
</g>
</g>
<!-- Node1&#45;&gt;Node2 -->
<g id="edge1" class="edge"><title>Node1&#45;&gt;Node2</title>
<path fill="none" stroke="midnightblue" d="M88.1176,-605.754C107.415,-600.516 129.612,-594.491 147.683,-589.586"/>
<polygon fill="midnightblue" stroke="midnightblue" points="87.0619,-602.414 78.3279,-608.411 88.8956,-609.169 87.0619,-602.414"/>
</g>
<!-- Node20 -->
<g id="node20" class="node"><title>Node20</title>
<g id="a_node20"><a xlink:href="d0/d89/a00071.html" target="_top" xlink:title="mc::gfx::Texture">
<polygon fill="white" stroke="black" points="140.5,-608.5 140.5,-627.5 227.5,-627.5 227.5,-608.5 140.5,-608.5"/>
<text text-anchor="middle" x="184" y="-615.5" font-family="Helvetica,sans-Serif" font-size="10.00">mc::gfx::Texture</text>
</a>
</g>
</g>
<!-- Node1&#45;&gt;Node20 -->
<g id="edge19" class="edge"><title>Node1&#45;&gt;Node20</title>
<path fill="none" stroke="midnightblue" d="M89.5114,-618C105.92,-618 124.276,-618 140.349,-618"/>
<polygon fill="midnightblue" stroke="midnightblue" points="89.0535,-614.5 79.0535,-618 89.0534,-621.5 89.0535,-614.5"/>
</g>
<!-- Node21 -->
<g id="node21" class="node"><title>Node21</title>
<g id="a_node21"><a xlink:href="d1/d6e/a00073.html" target="_top" xlink:title="mc::gfx::TextureImpl">
<polygon fill="white" stroke="black" points="131.5,-646.5 131.5,-665.5 236.5,-665.5 236.5,-646.5 131.5,-646.5"/>
<text text-anchor="middle" x="184" y="-653.5" font-family="Helvetica,sans-Serif" font-size="10.00">mc::gfx::TextureImpl</text>
</a>
</g>
</g>
<!-- Node1&#45;&gt;Node21 -->
<g id="edge20" class="edge"><title>Node1&#45;&gt;Node21</title>
<path fill="none" stroke="midnightblue" d="M88.1176,-630.246C107.415,-635.484 129.612,-641.509 147.683,-646.414"/>
<polygon fill="midnightblue" stroke="midnightblue" points="88.8956,-626.831 78.3279,-627.589 87.0619,-633.586 88.8956,-626.831"/>
</g>
<!-- Node3 -->
<g id="node3" class="node"><title>Node3</title>
<g id="a_node3"><a xlink:href="df/d86/a00012.html" target="_top" xlink:title="Represents a sslBuffer of memory in the GPU. ">
<polygon fill="white" stroke="black" points="309,-589.5 309,-608.5 407,-608.5 407,-589.5 309,-589.5"/>
<text text-anchor="middle" x="358" y="-596.5" font-family="Helvetica,sans-Serif" font-size="10.00">mc::gfx::ogl::Buffer</text>
</a>
</g>
</g>
<!-- Node2&#45;&gt;Node3 -->
<g id="edge2" class="edge"><title>Node2&#45;&gt;Node3</title>
<path fill="none" stroke="midnightblue" d="M245.227,-586.653C266.041,-588.952 289.075,-591.497 308.797,-593.675"/>
<polygon fill="midnightblue" stroke="midnightblue" points="245.536,-583.166 235.212,-585.547 244.767,-590.124 245.536,-583.166"/>
</g>
<!-- Node11 -->
<g id="node11" class="node"><title>Node11</title>
<g id="a_node11"><a xlink:href="d0/d33/a00027.html" target="_top" xlink:title="Represents an OpenGL Framebuffer Object which allows rendering to a non&#45;screen location. ">
<polygon fill="white" stroke="black" points="295,-551.5 295,-570.5 421,-570.5 421,-551.5 295,-551.5"/>
<text text-anchor="middle" x="358" y="-558.5" font-family="Helvetica,sans-Serif" font-size="10.00">mc::gfx::ogl::FrameBuffer</text>
</a>
</g>
</g>
<!-- Node2&#45;&gt;Node11 -->
<g id="edge10" class="edge"><title>Node2&#45;&gt;Node11</title>
<path fill="none" stroke="midnightblue" d="M245.499,-573.317C261.476,-571.552 278.744,-569.645 294.809,-567.87"/>
<polygon fill="midnightblue" stroke="midnightblue" points="244.767,-569.876 235.212,-574.453 245.536,-576.834 244.767,-569.876"/>
</g>
<!-- Node12 -->
<g id="node12" class="node"><title>Node12</title>
<g id="a_node12"><a xlink:href="d7/df7/a00058.html" target="_top" xlink:title="Special object that is used for asynchronous queries of information from the GPU. ...">
<polygon fill="white" stroke="black" points="294,-513.5 294,-532.5 422,-532.5 422,-513.5 294,-513.5"/>
<text text-anchor="middle" x="358" y="-520.5" font-family="Helvetica,sans-Serif" font-size="10.00">mc::gfx::ogl::QueryObject</text>
</a>
</g>
</g>
<!-- Node2&#45;&gt;Node12 -->
<g id="edge11" class="edge"><title>Node2&#45;&gt;Node12</title>
<path fill="none" stroke="midnightblue" d="M217.409,-566.507C236.586,-558.788 261.46,-549.234 284,-542 294.599,-538.598 306.207,-535.361 316.987,-532.554"/>
<polygon fill="midnightblue" stroke="midnightblue" points="215.89,-563.346 207.943,-570.353 218.525,-569.831 215.89,-563.346"/>
</g>
<!-- Node13 -->
<g id="node13" class="node"><title>Node13</title>
<g id="a_node13"><a xlink:href="d3/d8b/a00059.html" target="_top" xlink:title="Represents a render buffer for use with a `FrameBuffer. ">
<polygon fill="white" stroke="black" points="293.5,-741.5 293.5,-760.5 422.5,-760.5 422.5,-741.5 293.5,-741.5"/>
<text text-anchor="middle" x="358" y="-748.5" font-family="Helvetica,sans-Serif" font-size="10.00">mc::gfx::ogl::RenderBuffer</text>
</a>
</g>
</g>
<!-- Node2&#45;&gt;Node13 -->
<g id="edge12" class="edge"><title>Node2&#45;&gt;Node13</title>
<path fill="none" stroke="midnightblue" d="M243.495,-594.986C245.088,-596.221 246.597,-597.556 248,-599 290.679,-642.916 240.488,-688.909 284,-732 287.908,-735.87 292.499,-738.982 297.443,-741.48"/>
<polygon fill="midnightblue" stroke="midnightblue" points="245.258,-591.961 234.927,-589.615 241.54,-597.892 245.258,-591.961"/>
</g>
<!-- Node14 -->
<g id="node14" class="node"><title>Node14</title>
<g id="a_node14"><a xlink:href="d1/d6f/a00063.html" target="_top" xlink:title="Represents a shader object in OpenGL. ">
<polygon fill="white" stroke="black" points="306,-703.5 306,-722.5 410,-722.5 410,-703.5 306,-703.5"/>
<text text-anchor="middle" x="358" y="-710.5" font-family="Helvetica,sans-Serif" font-size="10.00">mc::gfx::ogl::Shader</text>
</a>
</g>
</g>
<!-- Node2&#45;&gt;Node14 -->
<g id="edge13" class="edge"><title>Node2&#45;&gt;Node14</title>
<path fill="none" stroke="midnightblue" d="M242.559,-594.635C244.479,-595.966 246.303,-597.417 248,-599 281.015,-629.802 250.402,-663.836 284,-694 290.237,-699.599 297.917,-703.586 305.931,-706.417"/>
<polygon fill="midnightblue" stroke="midnightblue" points="244.037,-591.449 233.616,-589.539 240.572,-597.531 244.037,-591.449"/>
</g>
<!-- Node15 -->
<g id="node15" class="node"><title>Node15</title>
<g id="a_node15"><a xlink:href="df/d5f/a00064.html" target="_top" xlink:title="mc::gfx::ogl::ShaderProgram">
<polygon fill="white" stroke="black" points="287.5,-665.5 287.5,-684.5 428.5,-684.5 428.5,-665.5 287.5,-665.5"/>
<text text-anchor="middle" x="358" y="-672.5" font-family="Helvetica,sans-Serif" font-size="10.00">mc::gfx::ogl::ShaderProgram</text>
</a>
</g>
</g>
<!-- Node2&#45;&gt;Node15 -->
<g id="edge14" class="edge"><title>Node2&#45;&gt;Node15</title>
<path fill="none" stroke="midnightblue" d="M240.113,-593.907C242.882,-595.433 245.533,-597.124 248,-599 271.849,-617.138 259.808,-638.322 284,-656 289.287,-659.863 295.293,-662.942 301.536,-665.396"/>
<polygon fill="midnightblue" stroke="midnightblue" points="241.488,-590.686 230.951,-589.579 238.498,-597.015 241.488,-590.686"/>
</g>
<!-- Node16 -->
<g id="node16" class="node"><title>Node16</title>
<g id="a_node16"><a xlink:href="d6/d2c/a00072.html" target="_top" xlink:title="mc::gfx::ogl::Texture2D">
<polygon fill="white" stroke="black" points="299,-627.5 299,-646.5 417,-646.5 417,-627.5 299,-627.5"/>
<text text-anchor="middle" x="358" y="-634.5" font-family="Helvetica,sans-Serif" font-size="10.00">mc::gfx::ogl::Texture2D</text>
</a>
</g>
</g>
<!-- Node2&#45;&gt;Node16 -->
<g id="edge15" class="edge"><title>Node2&#45;&gt;Node16</title>
<path fill="none" stroke="midnightblue" d="M230.825,-592.684C236.666,-594.632 242.515,-596.75 248,-599 264.738,-605.866 267.133,-611.456 284,-618 293.401,-621.648 303.751,-624.82 313.628,-627.473"/>
<polygon fill="midnightblue" stroke="midnightblue" points="231.659,-589.276 221.068,-589.574 229.533,-595.946 231.659,-589.276"/>
</g>
<!-- Node18 -->
<g id="node18" class="node"><title>Node18</title>
<g id="a_node18"><a xlink:href="df/d13/a00085.html" target="_top" xlink:title="mc::gfx::ogl::VertexArray">
<polygon fill="white" stroke="black" points="295.5,-475.5 295.5,-494.5 420.5,-494.5 420.5,-475.5 295.5,-475.5"/>
<text text-anchor="middle" x="358" y="-482.5" font-family="Helvetica,sans-Serif" font-size="10.00">mc::gfx::ogl::VertexArray</text>
</a>
</g>
</g>
<!-- Node2&#45;&gt;Node18 -->
<g id="edge17" class="edge"><title>Node2&#45;&gt;Node18</title>
<path fill="none" stroke="midnightblue" d="M202.177,-563.305C220.851,-546.046 252.29,-519.501 284,-504 291.765,-500.204 300.379,-497.103 308.887,-494.59"/>
<polygon fill="midnightblue" stroke="midnightblue" points="199.642,-560.885 194.766,-570.291 204.443,-565.979 199.642,-560.885"/>
</g>
<!-- Node4 -->
<g id="node4" class="node"><title>Node4</title>
<g id="a_node4"><a xlink:href="d4/d51/a00017.html" target="_top" xlink:title="Special sslBuffer with no extra semantics to be used as a proxy in copying. ">
<polygon fill="white" stroke="black" points="468.5,-586.5 468.5,-605.5 611.5,-605.5 611.5,-586.5 468.5,-586.5"/>
<text text-anchor="middle" x="540" y="-593.5" font-family="Helvetica,sans-Serif" font-size="10.00">mc::gfx::ogl::CopyReadBuffer</text>
</a>
</g>
</g>
<!-- Node3&#45;&gt;Node4 -->
<g id="edge3" class="edge"><title>Node3&#45;&gt;Node4</title>
<path fill="none" stroke="midnightblue" d="M417.616,-598.023C433.789,-597.754 451.507,-597.458 468.287,-597.179"/>
<polygon fill="midnightblue" stroke="midnightblue" points="417.177,-594.53 407.237,-598.196 417.294,-601.529 417.177,-594.53"/>
</g>
<!-- Node5 -->
<g id="node5" class="node"><title>Node5</title>
<g id="a_node5"><a xlink:href="d1/d2b/a00018.html" target="_top" xlink:title="Special sslBuffer with no extra semantics to be used as a proxy in copying. ">
<polygon fill="white" stroke="black" points="468,-548.5 468,-567.5 612,-567.5 612,-548.5 468,-548.5"/>
<text text-anchor="middle" x="540" y="-555.5" font-family="Helvetica,sans-Serif" font-size="10.00">mc::gfx::ogl::CopyWriteBuffer</text>
</a>
</g>
</g>
<!-- Node3&#45;&gt;Node5 -->
<g id="edge4" class="edge"><title>Node3&#45;&gt;Node5</title>
<path fill="none" stroke="midnightblue" d="M410.571,-587.253C438.021,-581.001 471.344,-573.411 497.167,-567.529"/>
<polygon fill="midnightblue" stroke="midnightblue" points="409.721,-583.857 400.748,-589.491 411.276,-590.682 409.721,-583.857"/>
</g>
<!-- Node6 -->
<g id="node6" class="node"><title>Node6</title>
<g id="a_node6"><a xlink:href="de/d11/a00021.html" target="_top" xlink:title="Stores element indices to save vertex data. ">
<polygon fill="white" stroke="black" points="473,-510.5 473,-529.5 607,-529.5 607,-510.5 473,-510.5"/>
<text text-anchor="middle" x="540" y="-517.5" font-family="Helvetica,sans-Serif" font-size="10.00">mc::gfx::ogl::ElementBuffer</text>
</a>
</g>
</g>
<!-- Node3&#45;&gt;Node6 -->
<g id="edge5" class="edge"><title>Node3&#45;&gt;Node6</title>
<path fill="none" stroke="midnightblue" d="M416.746,-587.491C422.085,-585.395 427.262,-582.921 432,-580 452.643,-567.275 447.401,-551.796 468,-539 474.287,-535.095 481.369,-531.984 488.564,-529.508"/>
<polygon fill="midnightblue" stroke="midnightblue" points="415.317,-584.282 407.02,-590.87 417.614,-590.895 415.317,-584.282"/>
</g>
<!-- Node7 -->
<g id="node7" class="node"><title>Node7</title>
<g id="a_node7"><a xlink:href="dc/dee/a00053.html" target="_top" xlink:title="Special buffer that excels at asynchronous pixel transfer operations. ">
<polygon fill="white" stroke="black" points="468.5,-750.5 468.5,-769.5 611.5,-769.5 611.5,-750.5 468.5,-750.5"/>
<text text-anchor="middle" x="540" y="-757.5" font-family="Helvetica,sans-Serif" font-size="10.00">mc::gfx::ogl::PixelPackBuffer</text>
</a>
</g>
</g>
<!-- Node3&#45;&gt;Node7 -->
<g id="edge6" class="edge"><title>Node3&#45;&gt;Node7</title>
<path fill="none" stroke="midnightblue" d="M416.773,-607.782C422.379,-610.394 427.605,-613.735 432,-618 472.879,-657.666 427.258,-701.194 468,-741 471.925,-744.834 476.534,-747.917 481.487,-750.392"/>
<polygon fill="midnightblue" stroke="midnightblue" points="417.649,-604.369 407.06,-604.04 415.133,-610.901 417.649,-604.369"/>
</g>
<!-- Node8 -->
<g id="node8" class="node"><title>Node8</title>
<g id="a_node8"><a xlink:href="d1/dea/a00054.html" target="_top" xlink:title="Special buffer that excels at asynchronous pixel transfer operations. ">
<polygon fill="white" stroke="black" points="476,-701 476,-731 604,-731 604,-701 476,-701"/>
<text text-anchor="start" x="484" y="-719" font-family="Helvetica,sans-Serif" font-size="10.00">mc::gfx::ogl::PixelUnpack</text>
<text text-anchor="middle" x="540" y="-708" font-family="Helvetica,sans-Serif" font-size="10.00">Buffer</text>
</a>
</g>
</g>
<!-- Node3&#45;&gt;Node8 -->
<g id="edge7" class="edge"><title>Node3&#45;&gt;Node8</title>
<path fill="none" stroke="midnightblue" d="M416.772,-608.885C422.249,-611.298 427.447,-614.291 432,-618 460.046,-640.849 440.937,-666.995 468,-691 472.399,-694.902 477.446,-698.205 482.776,-700.999"/>
<polygon fill="midnightblue" stroke="midnightblue" points="417.947,-605.587 407.355,-605.345 415.485,-612.14 417.947,-605.587"/>
</g>
<!-- Node9 -->
<g id="node9" class="node"><title>Node9</title>
<g id="a_node9"><a xlink:href="d9/da5/a00075.html" target="_top" xlink:title="Stores uniform data for a shader in the form of a sslBuffer. ">
<polygon fill="white" stroke="black" points="474.5,-662.5 474.5,-681.5 605.5,-681.5 605.5,-662.5 474.5,-662.5"/>
<text text-anchor="middle" x="540" y="-669.5" font-family="Helvetica,sans-Serif" font-size="10.00">mc::gfx::ogl::UniformBuffer</text>
</a>
</g>
</g>
<!-- Node3&#45;&gt;Node9 -->
<g id="edge8" class="edge"><title>Node3&#45;&gt;Node9</title>
<path fill="none" stroke="midnightblue" d="M416.751,-610.993C422.054,-612.989 427.222,-615.309 432,-618 451.443,-628.952 448.594,-641.982 468,-653 474.769,-656.843 482.343,-659.934 489.955,-662.412"/>
<polygon fill="midnightblue" stroke="midnightblue" points="417.71,-607.622 407.116,-607.736 415.468,-614.254 417.71,-607.622"/>
</g>
<!-- Node10 -->
<g id="node10" class="node"><title>Node10</title>
<g id="a_node10"><a xlink:href="da/d2a/a00086.html" target="_top" xlink:title="Stores vertex data for a `VertexArray. ">
<polygon fill="white" stroke="black" points="476.5,-624.5 476.5,-643.5 603.5,-643.5 603.5,-624.5 476.5,-624.5"/>
<text text-anchor="middle" x="540" y="-631.5" font-family="Helvetica,sans-Serif" font-size="10.00">mc::gfx::ogl::VertexBuffer</text>
</a>
</g>
</g>
<!-- Node3&#45;&gt;Node10 -->
<g id="edge9" class="edge"><title>Node3&#45;&gt;Node10</title>
<path fill="none" stroke="midnightblue" d="M417.093,-610.296C440.62,-614.871 467.489,-620.095 490.004,-624.473"/>
<polygon fill="midnightblue" stroke="midnightblue" points="417.721,-606.852 407.237,-608.379 416.385,-613.724 417.721,-606.852"/>
</g>
<!-- Node17 -->
<g id="node17" class="node"><title>Node17</title>
<g id="a_node17"><a xlink:href="d5/de0/a00050.html" target="_top" xlink:title="mc::gfx::ogl::OGL33Texture">
<polygon fill="white" stroke="black" points="471.5,-788.5 471.5,-807.5 608.5,-807.5 608.5,-788.5 471.5,-788.5"/>
<text text-anchor="middle" x="540" y="-795.5" font-family="Helvetica,sans-Serif" font-size="10.00">mc::gfx::ogl::OGL33Texture</text>
</a>
</g>
</g>
<!-- Node16&#45;&gt;Node17 -->
<g id="edge16" class="edge"><title>Node16&#45;&gt;Node17</title>
<path fill="none" stroke="#8b1a1a" d="M425.9,-650.992C428.063,-652.5 430.109,-654.165 432,-656 472.879,-695.666 427.258,-739.194 468,-779 471.925,-782.834 476.534,-785.917 481.487,-788.392"/>
<polygon fill="#8b1a1a" stroke="#8b1a1a" points="427.464,-647.854 417.048,-645.911 423.979,-653.925 427.464,-647.854"/>
</g>
<!-- Node19 -->
<g id="node19" class="node"><title>Node19</title>
<g id="a_node19"><a xlink:href="d6/d2d/a00047.html" target="_top" xlink:title="mc::gfx::ogl::OGL33Model">
<polygon fill="white" stroke="black" points="474.5,-434.5 474.5,-453.5 605.5,-453.5 605.5,-434.5 474.5,-434.5"/>
<text text-anchor="middle" x="540" y="-441.5" font-family="Helvetica,sans-Serif" font-size="10.00">mc::gfx::ogl::OGL33Model</text>
</a>
</g>
</g>
<!-- Node18&#45;&gt;Node19 -->
<g id="edge18" class="edge"><title>Node18&#45;&gt;Node19</title>
<path fill="none" stroke="#8b1a1a" d="M410.571,-473.253C438.021,-467.001 471.344,-459.411 497.167,-453.529"/>
<polygon fill="#8b1a1a" stroke="#8b1a1a" points="409.721,-469.857 400.748,-475.491 411.276,-476.682 409.721,-469.857"/>
</g>
<!-- Node21&#45;&gt;Node17 -->
<g id="edge21" class="edge"><title>Node21&#45;&gt;Node17</title>
<path fill="none" stroke="midnightblue" d="M195.171,-674.775C210.553,-701.105 242.409,-748.213 284,-770 342.093,-800.431 417.723,-805.118 471.495,-803.609"/>
<polygon fill="midnightblue" stroke="midnightblue" points="198.064,-672.781 190.096,-665.798 191.97,-676.225 198.064,-672.781"/>
</g>
<!-- Node22 -->
<g id="node22" class="node"><title>Node22</title>
<g id="a_node22"><a xlink:href="d4/d8c/a00035.html" target="_top" xlink:title="mc::Initializable">
<polygon fill="white" stroke="black" points="0,-285.5 0,-304.5 84,-304.5 84,-285.5 0,-285.5"/>
<text text-anchor="middle" x="42" y="-292.5" font-family="Helvetica,sans-Serif" font-size="10.00">mc::Initializable</text>
</a>
</g>
</g>
<!-- Node22&#45;&gt;Node2 -->
<g id="edge42" class="edge"><title>Node22&#45;&gt;Node2</title>
<path fill="none" stroke="midnightblue" d="M52.2568,-313.844C79.3689,-369.037 157.962,-529.029 178.201,-570.231"/>
<polygon fill="midnightblue" stroke="midnightblue" points="55.3697,-312.243 47.8191,-304.81 49.0868,-315.329 55.3697,-312.243"/>
</g>
<!-- Node22&#45;&gt;Node20 -->
<g id="edge46" class="edge"><title>Node22&#45;&gt;Node20</title>
<path fill="none" stroke="midnightblue" d="M45.4719,-314.885C53.4049,-375.64 80.0576,-557.225 120,-599 125.526,-604.78 132.741,-608.82 140.307,-611.639"/>
<polygon fill="midnightblue" stroke="midnightblue" points="48.9116,-314.19 44.1728,-304.714 41.968,-315.077 48.9116,-314.19"/>
</g>
<!-- Node22&#45;&gt;Node21 -->
<g id="edge47" class="edge"><title>Node22&#45;&gt;Node21</title>
<path fill="none" stroke="midnightblue" d="M44.8542,-314.744C51.39,-380.269 75.4012,-589.095 120,-637 123.581,-640.846 127.909,-643.924 132.6,-646.385"/>
<polygon fill="midnightblue" stroke="midnightblue" points="48.3152,-314.171 43.8652,-304.556 41.3479,-314.848 48.3152,-314.171"/>
</g>
<!-- Node23 -->
<g id="node23" class="node"><title>Node23</title>
<g id="a_node23"><a xlink:href="d7/d7a/a00016.html" target="_top" xlink:title="Can be plugged into an Entity to allow for additional functionality by listening to events...">
<polygon fill="white" stroke="black" points="132,-57.5 132,-76.5 236,-76.5 236,-57.5 132,-57.5"/>
<text text-anchor="middle" x="184" y="-64.5" font-family="Helvetica,sans-Serif" font-size="10.00">mc::gfx::Component</text>
</a>
</g>
</g>
<!-- Node22&#45;&gt;Node23 -->
<g id="edge22" class="edge"><title>Node22&#45;&gt;Node23</title>
<path fill="none" stroke="midnightblue" d="M44.5188,-275.409C48.7694,-234.262 64.4175,-138.34 120,-86 124.159,-82.0841 129.096,-78.9731 134.349,-76.5019"/>
<polygon fill="midnightblue" stroke="midnightblue" points="41.0231,-275.204 43.5985,-285.481 47.9941,-275.841 41.0231,-275.204"/>
</g>
<!-- Node28 -->
<g id="node28" class="node"><title>Node28</title>
<g id="a_node28"><a xlink:href="d7/de0/a00022.html" target="_top" xlink:title="Abstract superclass for all graphical objects. ">
<polygon fill="white" stroke="black" points="144,-361.5 144,-380.5 224,-380.5 224,-361.5 144,-361.5"/>
<text text-anchor="middle" x="184" y="-368.5" font-family="Helvetica,sans-Serif" font-size="10.00">mc::gfx::Entity</text>
</a>
</g>
</g>
<!-- Node22&#45;&gt;Node28 -->
<g id="edge27" class="edge"><title>Node22&#45;&gt;Node28</title>
<path fill="none" stroke="midnightblue" d="M61.5784,-311.637C76.4682,-324.228 98.3773,-341.15 120,-352 127.454,-355.74 135.779,-358.892 143.874,-361.488"/>
<polygon fill="midnightblue" stroke="midnightblue" points="63.5307,-308.698 53.6779,-304.803 58.951,-313.992 63.5307,-308.698"/>
</g>
<!-- Node38 -->
<g id="node38" class="node"><title>Node38</title>
<g id="a_node38"><a xlink:href="dc/d3c/a00028.html" target="_top" xlink:title="mc::gfx::GraphicsContext">
<polygon fill="white" stroke="black" points="120,-247.5 120,-266.5 248,-266.5 248,-247.5 120,-247.5"/>
<text text-anchor="middle" x="184" y="-254.5" font-family="Helvetica,sans-Serif" font-size="10.00">mc::gfx::GraphicsContext</text>
</a>
</g>
</g>
<!-- Node22&#45;&gt;Node38 -->
<g id="edge37" class="edge"><title>Node22&#45;&gt;Node38</title>
<path fill="none" stroke="midnightblue" d="M88.1176,-282.754C107.415,-277.516 129.612,-271.491 147.683,-266.586"/>
<polygon fill="midnightblue" stroke="midnightblue" points="87.0619,-279.414 78.3279,-285.411 88.8956,-286.169 87.0619,-279.414"/>
</g>
<!-- Node40 -->
<g id="node40" class="node"><title>Node40</title>
<g id="a_node40"><a xlink:href="d5/db6/a00042.html" target="_top" xlink:title="mc::gfx::Model">
<polygon fill="white" stroke="black" points="143.5,-285.5 143.5,-304.5 224.5,-304.5 224.5,-285.5 143.5,-285.5"/>
<text text-anchor="middle" x="184" y="-292.5" font-family="Helvetica,sans-Serif" font-size="10.00">mc::gfx::Model</text>
</a>
</g>
</g>
<!-- Node22&#45;&gt;Node40 -->
<g id="edge39" class="edge"><title>Node22&#45;&gt;Node40</title>
<path fill="none" stroke="midnightblue" d="M94.6163,-295C110.763,-295 128.314,-295 143.49,-295"/>
<polygon fill="midnightblue" stroke="midnightblue" points="94.2474,-291.5 84.2474,-295 94.2474,-298.5 94.2474,-291.5"/>
</g>
<!-- Node41 -->
<g id="node41" class="node"><title>Node41</title>
<g id="a_node41"><a xlink:href="d6/d42/a00043.html" target="_top" xlink:title="mc::gfx::ModelImpl">
<polygon fill="white" stroke="black" points="134.5,-418.5 134.5,-437.5 233.5,-437.5 233.5,-418.5 134.5,-418.5"/>
<text text-anchor="middle" x="184" y="-425.5" font-family="Helvetica,sans-Serif" font-size="10.00">mc::gfx::ModelImpl</text>
</a>
</g>
</g>
<!-- Node22&#45;&gt;Node41 -->
<g id="edge40" class="edge"><title>Node22&#45;&gt;Node41</title>
<path fill="none" stroke="midnightblue" d="M54.6603,-312.889C68.5292,-333.241 93.1978,-366.672 120,-390 133.2,-401.489 150.314,-411.564 163.373,-418.448"/>
<polygon fill="midnightblue" stroke="midnightblue" points="57.5469,-310.909 49.0793,-304.541 51.7277,-314.799 57.5469,-310.909"/>
</g>
<!-- Node42 -->
<g id="node42" class="node"><title>Node42</title>
<g id="a_node42"><a xlink:href="d2/d79/a00051.html" target="_top" xlink:title="mc::gfx::Painter">
<polygon fill="white" stroke="black" points="141,-209.5 141,-228.5 227,-228.5 227,-209.5 141,-209.5"/>
<text text-anchor="middle" x="184" y="-216.5" font-family="Helvetica,sans-Serif" font-size="10.00">mc::gfx::Painter</text>
</a>
</g>
</g>
<!-- Node22&#45;&gt;Node42 -->
<g id="edge43" class="edge"><title>Node22&#45;&gt;Node42</title>
<path fill="none" stroke="midnightblue" d="M61.5784,-278.363C76.4682,-265.772 98.3773,-248.85 120,-238 127.454,-234.26 135.779,-231.108 143.874,-228.512"/>
<polygon fill="midnightblue" stroke="midnightblue" points="58.951,-276.008 53.6779,-285.197 63.5307,-281.302 58.951,-276.008"/>
</g>
<!-- Node43 -->
<g id="node43" class="node"><title>Node43</title>
<g id="a_node43"><a xlink:href="d1/d84/a00052.html" target="_top" xlink:title="mc::gfx::PainterImpl">
<polygon fill="white" stroke="black" points="132,-171.5 132,-190.5 236,-190.5 236,-171.5 132,-171.5"/>
<text text-anchor="middle" x="184" y="-178.5" font-family="Helvetica,sans-Serif" font-size="10.00">mc::gfx::PainterImpl</text>
</a>
</g>
</g>
<!-- Node22&#45;&gt;Node43 -->
<g id="edge44" class="edge"><title>Node22&#45;&gt;Node43</title>
<path fill="none" stroke="midnightblue" d="M53.2905,-276.51C66.1677,-255.038 90.1944,-220.012 120,-200 125.786,-196.115 132.391,-193.003 139.097,-190.516"/>
<polygon fill="midnightblue" stroke="midnightblue" points="50.1702,-274.914 48.1778,-285.32 56.2245,-278.428 50.1702,-274.914"/>
</g>
<!-- Node45 -->
<g id="node45" class="node"><title>Node45</title>
<g id="a_node45"><a xlink:href="d5/df9/a00044.html" target="_top" xlink:title="Abstract class used for doing a task in MACE. ">
<polygon fill="white" stroke="black" points="150,-323.5 150,-342.5 218,-342.5 218,-323.5 150,-323.5"/>
<text text-anchor="middle" x="184" y="-330.5" font-family="Helvetica,sans-Serif" font-size="10.00">mc::Module</text>
</a>
</g>
</g>
<!-- Node22&#45;&gt;Node45 -->
<g id="edge48" class="edge"><title>Node22&#45;&gt;Node45</title>
<path fill="none" stroke="midnightblue" d="M88.152,-307.256C108.133,-312.679 131.219,-318.945 149.611,-323.937"/>
<polygon fill="midnightblue" stroke="midnightblue" points="88.8956,-303.831 78.3279,-304.589 87.0619,-310.586 88.8956,-303.831"/>
</g>
<!-- Node48 -->
<g id="node48" class="node"><title>Node48</title>
<g id="a_node48"><a xlink:href="d9/d2e/a00056.html" target="_top" xlink:title="mc::Process">
<polygon fill="white" stroke="black" points="148,-133.5 148,-152.5 220,-152.5 220,-133.5 148,-133.5"/>
<text text-anchor="middle" x="184" y="-140.5" font-family="Helvetica,sans-Serif" font-size="10.00">mc::Process</text>
</a>
</g>
</g>
<!-- Node22&#45;&gt;Node48 -->
<g id="edge52" class="edge"><title>Node22&#45;&gt;Node48</title>
<path fill="none" stroke="midnightblue" d="M49.0739,-275.533C59.1238,-246.51 81.9685,-192.097 120,-162 127.973,-155.69 138.017,-151.472 147.728,-148.652"/>
<polygon fill="midnightblue" stroke="midnightblue" points="45.6578,-274.716 45.8437,-285.309 52.3044,-276.912 45.6578,-274.716"/>
</g>
<!-- Node49 -->
<g id="node49" class="node"><title>Node49</title>
<g id="a_node49"><a xlink:href="da/d24/a00068.html" target="_top" xlink:title="mc::Sound">
<polygon fill="white" stroke="black" points="152,-95.5 152,-114.5 216,-114.5 216,-95.5 152,-95.5"/>
<text text-anchor="middle" x="184" y="-102.5" font-family="Helvetica,sans-Serif" font-size="10.00">mc::Sound</text>
</a>
</g>
</g>
<!-- Node22&#45;&gt;Node49 -->
<g id="edge53" class="edge"><title>Node22&#45;&gt;Node49</title>
<path fill="none" stroke="midnightblue" d="M46.3993,-275.121C53.5286,-239.543 73.4084,-164.889 120,-124 128.844,-116.238 140.77,-111.647 151.866,-108.931"/>
<polygon fill="midnightblue" stroke="midnightblue" points="42.9111,-274.734 44.5149,-285.207 49.792,-276.02 42.9111,-274.734"/>
</g>
<!-- Node24 -->
<g id="node24" class="node"><title>Node24</title>
<g id="a_node24"><a xlink:href="de/d5e/a00007.html" target="_top" xlink:title="mc::gfx::AlignmentComponent">
<polygon fill="white" stroke="black" points="284,-38.5 284,-57.5 432,-57.5 432,-38.5 284,-38.5"/>
<text text-anchor="middle" x="358" y="-45.5" font-family="Helvetica,sans-Serif" font-size="10.00">mc::gfx::AlignmentComponent</text>
</a>
</g>
</g>
<!-- Node23&#45;&gt;Node24 -->
<g id="edge23" class="edge"><title>Node23&#45;&gt;Node24</title>
<path fill="none" stroke="midnightblue" d="M246.172,-60.2427C258.346,-58.8978 271.247,-57.4728 283.777,-56.0886"/>
<polygon fill="midnightblue" stroke="midnightblue" points="245.695,-56.7739 236.14,-61.3508 246.464,-63.7316 245.695,-56.7739"/>
</g>
<!-- Node25 -->
<g id="node25" class="node"><title>Node25</title>
<g id="a_node25"><a xlink:href="d2/de7/a00014.html" target="_top" xlink:title="mc::gfx::CallbackComponent">
<polygon fill="white" stroke="black" points="287,-0.5 287,-19.5 429,-19.5 429,-0.5 287,-0.5"/>
<text text-anchor="middle" x="358" y="-7.5" font-family="Helvetica,sans-Serif" font-size="10.00">mc::gfx::CallbackComponent</text>
</a>
</g>
</g>
<!-- Node23&#45;&gt;Node25 -->
<g id="edge24" class="edge"><title>Node23&#45;&gt;Node25</title>
<path fill="none" stroke="midnightblue" d="M217.409,-53.5066C236.586,-45.7883 261.46,-36.2343 284,-29 294.599,-25.5983 306.207,-22.3609 316.987,-19.5537"/>
<polygon fill="midnightblue" stroke="midnightblue" points="215.89,-50.3461 207.943,-57.3534 218.525,-56.8311 215.89,-50.3461"/>
</g>
<!-- Node26 -->
<g id="node26" class="node"><title>Node26</title>
<g id="a_node26"><a xlink:href="db/db2/a00020.html" target="_top" xlink:title="mc::gfx::EaseComponent">
<polygon fill="white" stroke="black" points="294.5,-114.5 294.5,-133.5 421.5,-133.5 421.5,-114.5 294.5,-114.5"/>
<text text-anchor="middle" x="358" y="-121.5" font-family="Helvetica,sans-Serif" font-size="10.00">mc::gfx::EaseComponent</text>
</a>
</g>
</g>
<!-- Node23&#45;&gt;Node26 -->
<g id="edge25" class="edge"><title>Node23&#45;&gt;Node26</title>
<path fill="none" stroke="midnightblue" d="M230.825,-79.6841C236.666,-81.6319 242.515,-83.7503 248,-86 264.738,-92.866 267.133,-98.4557 284,-105 293.401,-108.648 303.751,-111.82 313.628,-114.473"/>
<polygon fill="midnightblue" stroke="midnightblue" points="231.659,-76.2765 221.068,-76.5741 229.533,-82.9458 231.659,-76.2765"/>
</g>
<!-- Node27 -->
<g id="node27" class="node"><title>Node27</title>
<g id="a_node27"><a xlink:href="d6/d5b/a00026.html" target="_top" xlink:title="mc::gfx::FPSComponent">
<polygon fill="white" stroke="black" points="296,-76.5 296,-95.5 420,-95.5 420,-76.5 296,-76.5"/>
<text text-anchor="middle" x="358" y="-83.5" font-family="Helvetica,sans-Serif" font-size="10.00">mc::gfx::FPSComponent</text>
</a>
</g>
</g>
<!-- Node23&#45;&gt;Node27 -->
<g id="edge26" class="edge"><title>Node23&#45;&gt;Node27</title>
<path fill="none" stroke="midnightblue" d="M246.46,-73.7891C262.475,-75.5582 279.729,-77.4642 295.734,-79.2322"/>
<polygon fill="midnightblue" stroke="midnightblue" points="246.464,-70.2684 236.14,-72.6492 245.695,-77.2261 246.464,-70.2684"/>
</g>
<!-- Node29 -->
<g id="node29" class="node"><title>Node29</title>
<g id="a_node29"><a xlink:href="d5/d16/a00029.html" target="_top" xlink:title="mc::gfx::GraphicsEntity">
<polygon fill="white" stroke="black" points="298.5,-399.5 298.5,-418.5 417.5,-418.5 417.5,-399.5 298.5,-399.5"/>
<text text-anchor="middle" x="358" y="-406.5" font-family="Helvetica,sans-Serif" font-size="10.00">mc::gfx::GraphicsEntity</text>
</a>
</g>
</g>
<!-- Node28&#45;&gt;Node29 -->
<g id="edge28" class="edge"><title>Node28&#45;&gt;Node29</title>
<path fill="none" stroke="midnightblue" d="M234.107,-381.849C259.276,-387.41 289.647,-394.12 313.899,-399.478"/>
<polygon fill="midnightblue" stroke="midnightblue" points="234.549,-378.363 224.029,-379.623 233.039,-385.198 234.549,-378.363"/>
</g>
<!-- Node36 -->
<g id="node36" class="node"><title>Node36</title>
<g id="a_node36"><a xlink:href="d5/d79/a00030.html" target="_top" xlink:title="mc::gfx::Group">
<polygon fill="white" stroke="black" points="317.5,-361.5 317.5,-380.5 398.5,-380.5 398.5,-361.5 317.5,-361.5"/>
<text text-anchor="middle" x="358" y="-368.5" font-family="Helvetica,sans-Serif" font-size="10.00">mc::gfx::Group</text>
</a>
</g>
</g>
<!-- Node28&#45;&gt;Node36 -->
<g id="edge35" class="edge"><title>Node28&#45;&gt;Node36</title>
<path fill="none" stroke="midnightblue" d="M234.181,-371C260.503,-371 292.497,-371 317.231,-371"/>
<polygon fill="midnightblue" stroke="midnightblue" points="234.029,-367.5 224.029,-371 234.029,-374.5 234.029,-367.5"/>
</g>
<!-- Node37 -->
<g id="node37" class="node"><title>Node37</title>
<g id="a_node37"><a xlink:href="d1/d1e/a00087.html" target="_top" xlink:title="mc::os::WindowModule">
<polygon fill="white" stroke="black" points="298.5,-323.5 298.5,-342.5 417.5,-342.5 417.5,-323.5 298.5,-323.5"/>
<text text-anchor="middle" x="358" y="-330.5" font-family="Helvetica,sans-Serif" font-size="10.00">mc::os::WindowModule</text>
</a>
</g>
</g>
<!-- Node28&#45;&gt;Node37 -->
<g id="edge36" class="edge"><title>Node28&#45;&gt;Node37</title>
<path fill="none" stroke="midnightblue" d="M234.107,-360.151C259.276,-354.59 289.647,-347.88 313.899,-342.522"/>
<polygon fill="midnightblue" stroke="midnightblue" points="233.039,-356.802 224.029,-362.377 234.549,-363.637 233.039,-356.802"/>
</g>
<!-- Node30 -->
<g id="node30" class="node"><title>Node30</title>
<g id="a_node30"><a xlink:href="d3/d52/a00023.html" target="_top" xlink:title="mc::gfx::Entity2D">
<polygon fill="white" stroke="black" points="494,-396.5 494,-415.5 586,-415.5 586,-396.5 494,-396.5"/>
<text text-anchor="middle" x="540" y="-403.5" font-family="Helvetica,sans-Serif" font-size="10.00">mc::gfx::Entity2D</text>
</a>
</g>
</g>
<!-- Node29&#45;&gt;Node30 -->
<g id="edge29" class="edge"><title>Node29&#45;&gt;Node30</title>
<path fill="none" stroke="midnightblue" d="M427.952,-407.851C450.065,-407.482 473.974,-407.084 493.923,-406.751"/>
<polygon fill="midnightblue" stroke="midnightblue" points="427.879,-404.351 417.939,-408.018 427.996,-411.35 427.879,-404.351"/>
</g>
<!-- Node31 -->
<g id="node31" class="node"><title>Node31</title>
<g id="a_node31"><a xlink:href="d7/dd4/a00013.html" target="_top" xlink:title="mc::gfx::Button">
<polygon fill="white" stroke="black" points="661,-472.5 661,-491.5 744,-491.5 744,-472.5 661,-472.5"/>
<text text-anchor="middle" x="702.5" y="-479.5" font-family="Helvetica,sans-Serif" font-size="10.00">mc::gfx::Button</text>
</a>
</g>
</g>
<!-- Node30&#45;&gt;Node31 -->
<g id="edge30" class="edge"><title>Node30&#45;&gt;Node31</title>
<path fill="none" stroke="midnightblue" d="M595.719,-417.302C601.403,-419.447 606.943,-421.989 612,-425 631.991,-436.9 628.5,-450.312 648,-463 653.783,-466.763 660.404,-469.888 666.971,-472.444"/>
<polygon fill="midnightblue" stroke="midnightblue" points="596.67,-413.929 586.076,-414.053 594.435,-420.563 596.67,-413.929"/>
</g>
<!-- Node32 -->
<g id="node32" class="node"><title>Node32</title>
<g id="a_node32"><a xlink:href="df/d61/a00031.html" target="_top" xlink:title="mc::gfx::Image">
<polygon fill="white" stroke="black" points="662,-320.5 662,-339.5 743,-339.5 743,-320.5 662,-320.5"/>
<text text-anchor="middle" x="702.5" y="-327.5" font-family="Helvetica,sans-Serif" font-size="10.00">mc::gfx::Image</text>
</a>
</g>
</g>
<!-- Node30&#45;&gt;Node32 -->
<g id="edge31" class="edge"><title>Node30&#45;&gt;Node32</title>
<path fill="none" stroke="midnightblue" d="M566.058,-391.286C587.415,-379.08 619.146,-361.725 648,-349 655.666,-345.619 664.139,-342.389 672.038,-339.582"/>
<polygon fill="midnightblue" stroke="midnightblue" points="564.216,-388.308 557.302,-396.335 567.713,-394.372 564.216,-388.308"/>
</g>
<!-- Node33 -->
<g id="node33" class="node"><title>Node33</title>
<g id="a_node33"><a xlink:href="d8/d41/a00038.html" target="_top" xlink:title="mc::gfx::Letter">
<polygon fill="white" stroke="black" points="662.5,-434.5 662.5,-453.5 742.5,-453.5 742.5,-434.5 662.5,-434.5"/>
<text text-anchor="middle" x="702.5" y="-441.5" font-family="Helvetica,sans-Serif" font-size="10.00">mc::gfx::Letter</text>
</a>
</g>
</g>
<!-- Node30&#45;&gt;Node33 -->
<g id="edge32" class="edge"><title>Node30&#45;&gt;Node33</title>
<path fill="none" stroke="midnightblue" d="M591.398,-417.932C614.318,-423.359 641.026,-429.682 662.398,-434.742"/>
<polygon fill="midnightblue" stroke="midnightblue" points="592.038,-414.487 581.501,-415.589 590.426,-421.299 592.038,-414.487"/>
</g>
<!-- Node34 -->
<g id="node34" class="node"><title>Node34</title>
<g id="a_node34"><a xlink:href="d1/d22/a00057.html" target="_top" xlink:title="mc::gfx::ProgressBar">
<polygon fill="white" stroke="black" points="648,-396.5 648,-415.5 757,-415.5 757,-396.5 648,-396.5"/>
<text text-anchor="middle" x="702.5" y="-403.5" font-family="Helvetica,sans-Serif" font-size="10.00">mc::gfx::ProgressBar</text>
</a>
</g>
</g>
<!-- Node30&#45;&gt;Node34 -->
<g id="edge33" class="edge"><title>Node30&#45;&gt;Node34</title>
<path fill="none" stroke="midnightblue" d="M596.298,-406C612.999,-406 631.302,-406 647.891,-406"/>
<polygon fill="midnightblue" stroke="midnightblue" points="596.135,-402.5 586.135,-406 596.135,-409.5 596.135,-402.5"/>
</g>
<!-- Node35 -->
<g id="node35" class="node"><title>Node35</title>
<g id="a_node35"><a xlink:href="d2/db1/a00070.html" target="_top" xlink:title="mc::gfx::Text">
<polygon fill="white" stroke="black" points="665.5,-358.5 665.5,-377.5 739.5,-377.5 739.5,-358.5 665.5,-358.5"/>
<text text-anchor="middle" x="702.5" y="-365.5" font-family="Helvetica,sans-Serif" font-size="10.00">mc::gfx::Text</text>
</a>
</g>
</g>
<!-- Node30&#45;&gt;Node35 -->
<g id="edge34" class="edge"><title>Node30&#45;&gt;Node35</title>
<path fill="none" stroke="midnightblue" d="M591.496,-394.045C615.478,-388.367 643.591,-381.711 665.393,-376.549"/>
<polygon fill="midnightblue" stroke="midnightblue" points="590.426,-390.701 581.501,-396.411 592.038,-397.513 590.426,-390.701"/>
</g>
<!-- Node39 -->
<g id="node39" class="node"><title>Node39</title>
<g id="a_node39"><a xlink:href="d3/dea/a00046.html" target="_top" xlink:title="mc::gfx::ogl::OGL33Context">
<polygon fill="white" stroke="black" points="289,-209.5 289,-228.5 427,-228.5 427,-209.5 289,-209.5"/>
<text text-anchor="middle" x="358" y="-216.5" font-family="Helvetica,sans-Serif" font-size="10.00">mc::gfx::ogl::OGL33Context</text>
</a>
</g>
</g>
<!-- Node38&#45;&gt;Node39 -->
<g id="edge38" class="edge"><title>Node38&#45;&gt;Node39</title>
<path fill="none" stroke="midnightblue" d="M238.196,-245.247C262.517,-239.874 290.955,-233.591 313.909,-228.52"/>
<polygon fill="midnightblue" stroke="midnightblue" points="237.412,-241.836 228.403,-247.411 238.922,-248.671 237.412,-241.836"/>
</g>
<!-- Node41&#45;&gt;Node19 -->
<g id="edge41" class="edge"><title>Node41&#45;&gt;Node19</title>
<path fill="none" stroke="midnightblue" d="M244.125,-430.672C307.794,-433.55 408.772,-438.114 474.465,-441.083"/>
<polygon fill="midnightblue" stroke="midnightblue" points="243.998,-427.163 233.851,-430.208 243.682,-434.156 243.998,-427.163"/>
</g>
<!-- Node44 -->
<g id="node44" class="node"><title>Node44</title>
<g id="a_node44"><a xlink:href="d4/dca/a00048.html" target="_top" xlink:title="mc::gfx::ogl::OGL33Painter">
<polygon fill="white" stroke="black" points="290.5,-171.5 290.5,-190.5 425.5,-190.5 425.5,-171.5 290.5,-171.5"/>
<text text-anchor="middle" x="358" y="-178.5" font-family="Helvetica,sans-Serif" font-size="10.00">mc::gfx::ogl::OGL33Painter</text>
</a>
</g>
</g>
<!-- Node43&#45;&gt;Node44 -->
<g id="edge45" class="edge"><title>Node43&#45;&gt;Node44</title>
<path fill="none" stroke="midnightblue" d="M246.346,-181C260.638,-181 275.921,-181 290.427,-181"/>
<polygon fill="midnightblue" stroke="midnightblue" points="246.14,-177.5 236.14,-181 246.14,-184.5 246.14,-177.5"/>
</g>
<!-- Node45&#45;&gt;Node37 -->
<g id="edge51" class="edge"><title>Node45&#45;&gt;Node37</title>
<path fill="none" stroke="midnightblue" d="M228.448,-333C249.583,-333 275.304,-333 298.168,-333"/>
<polygon fill="midnightblue" stroke="midnightblue" points="228.163,-329.5 218.163,-333 228.163,-336.5 228.163,-329.5"/>
</g>
<!-- Node46 -->
<g id="node46" class="node"><title>Node46</title>
<g id="a_node46"><a xlink:href="d4/dee/a00008.html" target="_top" xlink:title="mc::AudioModule">
<polygon fill="white" stroke="black" points="312,-247.5 312,-266.5 404,-266.5 404,-247.5 312,-247.5"/>
<text text-anchor="middle" x="358" y="-254.5" font-family="Helvetica,sans-Serif" font-size="10.00">mc::AudioModule</text>
</a>
</g>
</g>
<!-- Node45&#45;&gt;Node46 -->
<g id="edge49" class="edge"><title>Node45&#45;&gt;Node46</title>
<path fill="none" stroke="midnightblue" d="M227.676,-323.438C234.742,-320.939 241.783,-317.834 248,-314 267.801,-301.787 263.969,-287.832 284,-276 292.457,-271.005 302.224,-267.306 311.808,-264.572"/>
<polygon fill="midnightblue" stroke="midnightblue" points="226.569,-320.118 218.1,-326.484 228.69,-326.788 226.569,-320.118"/>
</g>
<!-- Node47 -->
<g id="node47" class="node"><title>Node47</title>
<g id="a_node47"><a xlink:href="d9/db3/a00066.html" target="_top" xlink:title="mc::os::SignalModule">
<polygon fill="white" stroke="black" points="302.5,-285.5 302.5,-304.5 413.5,-304.5 413.5,-285.5 302.5,-285.5"/>
<text text-anchor="middle" x="358" y="-292.5" font-family="Helvetica,sans-Serif" font-size="10.00">mc::os::SignalModule</text>
</a>
</g>
</g>
<!-- Node45&#45;&gt;Node47 -->
<g id="edge50" class="edge"><title>Node45&#45;&gt;Node47</title>
<path fill="none" stroke="midnightblue" d="M228.181,-323.46C254.363,-317.676 287.654,-310.321 313.833,-304.537"/>
<polygon fill="midnightblue" stroke="midnightblue" points="227.173,-320.098 218.163,-325.673 228.683,-326.933 227.173,-320.098"/>
</g>
<!-- Node50 -->
<g id="node50" class="node"><title>Node50</title>
<g id="a_node50"><a xlink:href="d4/de8/a00061.html" target="_top" xlink:title="mc::gfx::Selectable">
<polygon fill="white" stroke="black" points="489.5,-472.5 489.5,-491.5 590.5,-491.5 590.5,-472.5 489.5,-472.5"/>
<text text-anchor="middle" x="540" y="-479.5" font-family="Helvetica,sans-Serif" font-size="10.00">mc::gfx::Selectable</text>
</a>
</g>
</g>
<!-- Node50&#45;&gt;Node31 -->
<g id="edge54" class="edge"><title>Node50&#45;&gt;Node31</title>
<path fill="none" stroke="midnightblue" d="M601.12,-482C621.018,-482 642.681,-482 660.772,-482"/>
<polygon fill="midnightblue" stroke="midnightblue" points="600.903,-478.5 590.903,-482 600.903,-485.5 600.903,-478.5"/>
</g>
</g>
</svg>
