<?xml version="1.0" encoding="UTF-8" standalone="no"?>
<!DOCTYPE svg PUBLIC "-//W3C//DTD SVG 1.1//EN"
 "http://www.w3.org/Graphics/SVG/1.1/DTD/svg11.dtd">
<!-- Generated by graphviz version 2.38.0 (20140413.2041)
 -->
<!-- Title: Graphical Class Hierarchy Pages: 1 -->
<svg width="525pt" height="256pt"
 viewBox="0.00 0.00 525.00 256.00" xmlns="http://www.w3.org/2000/svg" xmlns:xlink="http://www.w3.org/1999/xlink">
<g id="graph0" class="graph" transform="scale(1 1) rotate(0) translate(4 252)">
<title>Graphical Class Hierarchy</title>
<polygon fill="white" stroke="none" points="-4,4 -4,-252 521,-252 521,4 -4,4"/>
<!-- Node1 -->
<g id="node1" class="node"><title>Node1</title>
<g id="a_node1"><a xlink:href="dd/da2/a00019.html" target="_top" xlink:title="Abstract superclass for all graphical objects. ">
<polygon fill="white" stroke="black" points="0,-114.5 0,-133.5 80,-133.5 80,-114.5 0,-114.5"/>
<text text-anchor="middle" x="40" y="-121.5" font-family="Helvetica,sans-Serif" font-size="10.00">mc::gfx::Entity</text>
</a>
</g>
</g>
<!-- Node2 -->
<g id="node2" class="node"><title>Node2</title>
<g id="a_node2"><a xlink:href="d3/dfe/a00025.html" target="_top" xlink:title="mc::gfx::GraphicsEntity">
<polygon fill="white" stroke="black" points="116,-152.5 116,-171.5 235,-171.5 235,-152.5 116,-152.5"/>
<text text-anchor="middle" x="175.5" y="-159.5" font-family="Helvetica,sans-Serif" font-size="10.00">mc::gfx::GraphicsEntity</text>
</a>
</g>
</g>
<!-- Node1&#45;&gt;Node2 -->
<g id="edge1" class="edge"><title>Node1&#45;&gt;Node2</title>
<path fill="none" stroke="midnightblue" d="M84.53,-136.391C102.812,-141.594 123.749,-147.554 140.823,-152.414"/>
<polygon fill="midnightblue" stroke="midnightblue" points="85.2639,-132.96 74.6877,-133.589 83.3474,-139.693 85.2639,-132.96"/>
</g>
<!-- Node9 -->
<g id="node9" class="node"><title>Node9</title>
<g id="a_node9"><a xlink:href="d6/d5b/a00026.html" target="_top" xlink:title="mc::gfx::Group">
<polygon fill="white" stroke="black" points="135,-114.5 135,-133.5 216,-133.5 216,-114.5 135,-114.5"/>
<text text-anchor="middle" x="175.5" y="-121.5" font-family="Helvetica,sans-Serif" font-size="10.00">mc::gfx::Group</text>
</a>
</g>
</g>
<!-- Node1&#45;&gt;Node9 -->
<g id="edge8" class="edge"><title>Node1&#45;&gt;Node9</title>
<path fill="none" stroke="midnightblue" d="M90.7209,-124C105.331,-124 121.107,-124 134.987,-124"/>
<polygon fill="midnightblue" stroke="midnightblue" points="90.3324,-120.5 80.3323,-124 90.3323,-127.5 90.3324,-120.5"/>
</g>
<!-- Node10 -->
<g id="node10" class="node"><title>Node10</title>
<g id="a_node10"><a xlink:href="d9/da4/a00078.html" target="_top" xlink:title="mc::os::WindowModule">
<polygon fill="white" stroke="black" points="116,-76.5 116,-95.5 235,-95.5 235,-76.5 116,-76.5"/>
<text text-anchor="middle" x="175.5" y="-83.5" font-family="Helvetica,sans-Serif" font-size="10.00">mc::os::WindowModule</text>
</a>
</g>
</g>
<!-- Node1&#45;&gt;Node10 -->
<g id="edge9" class="edge"><title>Node1&#45;&gt;Node10</title>
<path fill="none" stroke="midnightblue" d="M84.53,-111.609C102.812,-106.406 123.749,-100.446 140.823,-95.5859"/>
<polygon fill="midnightblue" stroke="midnightblue" points="83.3474,-108.307 74.6877,-114.411 85.2639,-115.04 83.3474,-108.307"/>
</g>
<!-- Node3 -->
<g id="node3" class="node"><title>Node3</title>
<g id="a_node3"><a xlink:href="db/db2/a00020.html" target="_top" xlink:title="mc::gfx::Entity2D">
<polygon fill="white" stroke="black" points="275.5,-152.5 275.5,-171.5 367.5,-171.5 367.5,-152.5 275.5,-152.5"/>
<text text-anchor="middle" x="321.5" y="-159.5" font-family="Helvetica,sans-Serif" font-size="10.00">mc::gfx::Entity2D</text>
</a>
</g>
</g>
<!-- Node2&#45;&gt;Node3 -->
<g id="edge2" class="edge"><title>Node2&#45;&gt;Node3</title>
<path fill="none" stroke="midnightblue" d="M245.205,-162C255.4,-162 265.683,-162 275.234,-162"/>
<polygon fill="midnightblue" stroke="midnightblue" points="245.07,-158.5 235.07,-162 245.07,-165.5 245.07,-158.5"/>
</g>
<!-- Node4 -->
<g id="node4" class="node"><title>Node4</title>
<g id="a_node4"><a xlink:href="d7/dec/a00010.html" target="_top" xlink:title="mc::gfx::Button">
<polygon fill="white" stroke="black" points="421,-228.5 421,-247.5 504,-247.5 504,-228.5 421,-228.5"/>
<text text-anchor="middle" x="462.5" y="-235.5" font-family="Helvetica,sans-Serif" font-size="10.00">mc::gfx::Button</text>
</a>
</g>
</g>
<!-- Node3&#45;&gt;Node4 -->
<g id="edge3" class="edge"><title>Node3&#45;&gt;Node4</title>
<path fill="none" stroke="#8b1a1a" d="M343.115,-177.857C359.907,-190.242 384.585,-207.264 408,-219 415.049,-222.533 422.917,-225.714 430.404,-228.417"/>
<polygon fill="#8b1a1a" stroke="#8b1a1a" points="344.756,-174.714 334.655,-171.517 340.558,-180.315 344.756,-174.714"/>
</g>
<!-- Node5 -->
<g id="node5" class="node"><title>Node5</title>
<g id="a_node5"><a xlink:href="d0/d33/a00027.html" target="_top" xlink:title="mc::gfx::Image">
<polygon fill="white" stroke="black" points="422,-190.5 422,-209.5 503,-209.5 503,-190.5 422,-190.5"/>
<text text-anchor="middle" x="462.5" y="-197.5" font-family="Helvetica,sans-Serif" font-size="10.00">mc::gfx::Image</text>
</a>
</g>
</g>
<!-- Node3&#45;&gt;Node5 -->
<g id="edge4" class="edge"><title>Node3&#45;&gt;Node5</title>
<path fill="none" stroke="midnightblue" d="M367.295,-174.246C386.455,-179.484 408.494,-185.509 426.436,-190.414"/>
<polygon fill="midnightblue" stroke="midnightblue" points="368.145,-170.85 357.576,-171.589 366.299,-177.602 368.145,-170.85"/>
</g>
<!-- Node6 -->
<g id="node6" class="node"><title>Node6</title>
<g id="a_node6"><a xlink:href="df/d61/a00031.html" target="_top" xlink:title="mc::gfx::Letter">
<polygon fill="white" stroke="black" points="422.5,-152.5 422.5,-171.5 502.5,-171.5 502.5,-152.5 422.5,-152.5"/>
<text text-anchor="middle" x="462.5" y="-159.5" font-family="Helvetica,sans-Serif" font-size="10.00">mc::gfx::Letter</text>
</a>
</g>
</g>
<!-- Node3&#45;&gt;Node6 -->
<g id="edge5" class="edge"><title>Node3&#45;&gt;Node6</title>
<path fill="none" stroke="midnightblue" d="M377.745,-162C392.617,-162 408.399,-162 422.207,-162"/>
<polygon fill="midnightblue" stroke="midnightblue" points="377.629,-158.5 367.629,-162 377.629,-165.5 377.629,-158.5"/>
</g>
<!-- Node7 -->
<g id="node7" class="node"><title>Node7</title>
<g id="a_node7"><a xlink:href="db/d3a/a00040.html" target="_top" xlink:title="mc::gfx::ProgressBar">
<polygon fill="white" stroke="black" points="408,-114.5 408,-133.5 517,-133.5 517,-114.5 408,-114.5"/>
<text text-anchor="middle" x="462.5" y="-121.5" font-family="Helvetica,sans-Serif" font-size="10.00">mc::gfx::ProgressBar</text>
</a>
</g>
</g>
<!-- Node3&#45;&gt;Node7 -->
<g id="edge6" class="edge"><title>Node3&#45;&gt;Node7</title>
<path fill="none" stroke="midnightblue" d="M367.295,-149.754C386.455,-144.516 408.494,-138.491 426.436,-133.586"/>
<polygon fill="midnightblue" stroke="midnightblue" points="366.299,-146.398 357.576,-152.411 368.145,-153.15 366.299,-146.398"/>
</g>
<!-- Node8 -->
<g id="node8" class="node"><title>Node8</title>
<g id="a_node8"><a xlink:href="d0/d89/a00071.html" target="_top" xlink:title="mc::gfx::Text">
<polygon fill="white" stroke="black" points="425.5,-76.5 425.5,-95.5 499.5,-95.5 499.5,-76.5 425.5,-76.5"/>
<text text-anchor="middle" x="462.5" y="-83.5" font-family="Helvetica,sans-Serif" font-size="10.00">mc::gfx::Text</text>
</a>
</g>
</g>
<!-- Node3&#45;&gt;Node8 -->
<g id="edge7" class="edge"><title>Node3&#45;&gt;Node8</title>
<path fill="none" stroke="midnightblue" d="M343.115,-146.143C359.907,-133.758 384.585,-116.736 408,-105 415.049,-101.467 422.917,-98.2863 430.404,-95.5832"/>
<polygon fill="midnightblue" stroke="midnightblue" points="340.558,-143.685 334.655,-152.483 344.756,-149.286 340.558,-143.685"/>
</g>
<!-- Node11 -->
<g id="node11" class="node"><title>Node11</title>
<g id="a_node11"><a xlink:href="db/df3/a00034.html" target="_top" xlink:title="Abstract class used for doing a task in MACE. ">
<polygon fill="white" stroke="black" points="6,-38.5 6,-57.5 74,-57.5 74,-38.5 6,-38.5"/>
<text text-anchor="middle" x="40" y="-45.5" font-family="Helvetica,sans-Serif" font-size="10.00">mc::Module</text>
</a>
</g>
</g>
<!-- Node11&#45;&gt;Node10 -->
<g id="edge12" class="edge"><title>Node11&#45;&gt;Node10</title>
<path fill="none" stroke="midnightblue" d="M83.6731,-60.1466C102.202,-65.4207 123.588,-71.5082 140.952,-76.4509"/>
<polygon fill="midnightblue" stroke="midnightblue" points="84.5762,-56.7647 74,-57.3933 82.6597,-63.4973 84.5762,-56.7647"/>
</g>
<!-- Node12 -->
<g id="node12" class="node"><title>Node12</title>
<g id="a_node12"><a xlink:href="de/d5e/a00007.html" target="_top" xlink:title="mc::AudioModule">
<polygon fill="white" stroke="black" points="129.5,-38.5 129.5,-57.5 221.5,-57.5 221.5,-38.5 129.5,-38.5"/>
<text text-anchor="middle" x="175.5" y="-45.5" font-family="Helvetica,sans-Serif" font-size="10.00">mc::AudioModule</text>
</a>
</g>
</g>
<!-- Node11&#45;&gt;Node12 -->
<g id="edge10" class="edge"><title>Node11&#45;&gt;Node12</title>
<path fill="none" stroke="midnightblue" d="M84.1628,-48C98.5926,-48 114.71,-48 129.291,-48"/>
<polygon fill="midnightblue" stroke="midnightblue" points="84,-44.5001 74,-48 84,-51.5001 84,-44.5001"/>
</g>
<!-- Node13 -->
<g id="node13" class="node"><title>Node13</title>
<g id="a_node13"><a xlink:href="df/d03/a00062.html" target="_top" xlink:title="mc::os::SignalModule">
<polygon fill="white" stroke="black" points="120,-0.5 120,-19.5 231,-19.5 231,-0.5 120,-0.5"/>
<text text-anchor="middle" x="175.5" y="-7.5" font-family="Helvetica,sans-Serif" font-size="10.00">mc::os::SignalModule</text>
</a>
</g>
</g>
<!-- Node11&#45;&gt;Node13 -->
<g id="edge11" class="edge"><title>Node11&#45;&gt;Node13</title>
<path fill="none" stroke="midnightblue" d="M83.6731,-35.8534C102.202,-30.5793 123.588,-24.4918 140.952,-19.5491"/>
<polygon fill="midnightblue" stroke="midnightblue" points="82.6597,-32.5027 74,-38.6067 84.5762,-39.2353 82.6597,-32.5027"/>
</g>
<!-- Node14 -->
<g id="node14" class="node"><title>Node14</title>
<g id="a_node14"><a xlink:href="d5/de0/a00050.html" target="_top" xlink:title="mc::gfx::Selectable">
<polygon fill="white" stroke="black" points="271,-228.5 271,-247.5 372,-247.5 372,-228.5 271,-228.5"/>
<text text-anchor="middle" x="321.5" y="-235.5" font-family="Helvetica,sans-Serif" font-size="10.00">mc::gfx::Selectable</text>
</a>
</g>
</g>
<!-- Node14&#45;&gt;Node4 -->
<g id="edge13" class="edge"><title>Node14&#45;&gt;Node4</title>
<path fill="none" stroke="midnightblue" d="M382.511,-238C395.419,-238 408.772,-238 420.743,-238"/>
<polygon fill="midnightblue" stroke="midnightblue" points="382.29,-234.5 372.29,-238 382.29,-241.5 382.29,-234.5"/>
</g>
</g>
</svg>
