<?xml version="1.0" encoding="UTF-8" standalone="no"?>
<!DOCTYPE svg PUBLIC "-//W3C//DTD SVG 1.1//EN"
 "http://www.w3.org/Graphics/SVG/1.1/DTD/svg11.dtd">
<!-- Generated by graphviz version 2.38.0 (20140413.2041)
 -->
<!-- Title: mc::gfx::ogl::VertexArray Pages: 1 -->
<svg width="184pt" height="196pt"
 viewBox="0.00 0.00 184.00 196.00" xmlns="http://www.w3.org/2000/svg" xmlns:xlink="http://www.w3.org/1999/xlink">
<g id="graph0" class="graph" transform="scale(1 1) rotate(0) translate(4 192)">
<title>mc::gfx::ogl::VertexArray</title>
<polygon fill="white" stroke="none" points="-4,4 -4,-192 180,-192 180,4 -4,4"/>
<!-- Node1 -->
<g id="node1" class="node"><title>Node1</title>
<polygon fill="#bfbfbf" stroke="black" points="27.5,-56.5 27.5,-75.5 152.5,-75.5 152.5,-56.5 27.5,-56.5"/>
<text text-anchor="middle" x="90" y="-63.5" font-family="Helvetica,sans-Serif" font-size="10.00">mc::gfx::ogl::VertexArray</text>
</g>
<!-- Node5 -->
<g id="node5" class="node"><title>Node5</title>
<g id="a_node5"><a xlink:href="../../d6/d2d/a00047.html" target="_top" xlink:title="mc::gfx::ogl::OGL33Model">
<polygon fill="white" stroke="black" points="24.5,-0.5 24.5,-19.5 155.5,-19.5 155.5,-0.5 24.5,-0.5"/>
<text text-anchor="middle" x="90" y="-7.5" font-family="Helvetica,sans-Serif" font-size="10.00">mc::gfx::ogl::OGL33Model</text>
</a>
</g>
</g>
<!-- Node1&#45;&gt;Node5 -->
<g id="edge4" class="edge"><title>Node1&#45;&gt;Node5</title>
<path fill="none" stroke="#8b1a1a" d="M90,-45.8045C90,-36.9102 90,-26.7798 90,-19.7511"/>
<polygon fill="#8b1a1a" stroke="#8b1a1a" points="86.5001,-46.083 90,-56.083 93.5001,-46.083 86.5001,-46.083"/>
</g>
<!-- Node2 -->
<g id="node2" class="node"><title>Node2</title>
<g id="a_node2"><a xlink:href="../../d6/d97/a00045.html" target="_top" xlink:title="Represents a OpenGL object in memory. ">
<polygon fill="white" stroke="black" points="39,-112.5 39,-131.5 141,-131.5 141,-112.5 39,-112.5"/>
<text text-anchor="middle" x="90" y="-119.5" font-family="Helvetica,sans-Serif" font-size="10.00">mc::gfx::ogl::Object</text>
</a>
</g>
</g>
<!-- Node2&#45;&gt;Node1 -->
<g id="edge1" class="edge"><title>Node2&#45;&gt;Node1</title>
<path fill="none" stroke="midnightblue" d="M90,-101.805C90,-92.9102 90,-82.7798 90,-75.7511"/>
<polygon fill="midnightblue" stroke="midnightblue" points="86.5001,-102.083 90,-112.083 93.5001,-102.083 86.5001,-102.083"/>
</g>
<!-- Node3 -->
<g id="node3" class="node"><title>Node3</title>
<g id="a_node3"><a xlink:href="../../d4/d8c/a00035.html" target="_top" xlink:title="mc::Initializable">
<polygon fill="white" stroke="black" points="0,-168.5 0,-187.5 84,-187.5 84,-168.5 0,-168.5"/>
<text text-anchor="middle" x="42" y="-175.5" font-family="Helvetica,sans-Serif" font-size="10.00">mc::Initializable</text>
</a>
</g>
</g>
<!-- Node3&#45;&gt;Node2 -->
<g id="edge2" class="edge"><title>Node3&#45;&gt;Node2</title>
<path fill="none" stroke="midnightblue" d="M56.7277,-160.431C65.1401,-150.967 75.3487,-139.483 82.2213,-131.751"/>
<polygon fill="midnightblue" stroke="midnightblue" points="53.954,-158.284 49.9262,-168.083 59.1858,-162.934 53.954,-158.284"/>
</g>
<!-- Node4 -->
<g id="node4" class="node"><title>Node4</title>
<g id="a_node4"><a xlink:href="../../da/da0/a00009.html" target="_top" xlink:title="mc::Bindable">
<polygon fill="white" stroke="black" points="102,-168.5 102,-187.5 176,-187.5 176,-168.5 102,-168.5"/>
<text text-anchor="middle" x="139" y="-175.5" font-family="Helvetica,sans-Serif" font-size="10.00">mc::Bindable</text>
</a>
</g>
</g>
<!-- Node4&#45;&gt;Node2 -->
<g id="edge3" class="edge"><title>Node4&#45;&gt;Node2</title>
<path fill="none" stroke="midnightblue" d="M123.966,-160.431C115.378,-150.967 104.957,-139.483 97.9408,-131.751"/>
<polygon fill="midnightblue" stroke="midnightblue" points="121.597,-163.029 130.909,-168.083 126.781,-158.325 121.597,-163.029"/>
</g>
</g>
</svg>
