<?xml version="1.0" encoding="UTF-8" standalone="no"?>
<!DOCTYPE svg PUBLIC "-//W3C//DTD SVG 1.1//EN"
 "http://www.w3.org/Graphics/SVG/1.1/DTD/svg11.dtd">
<!-- Generated by graphviz version 2.38.0 (20140413.2041)
 -->
<!-- Title: mc::os::WindowModule Pages: 1 -->
<svg width="355pt" height="548pt"
 viewBox="0.00 0.00 354.50 548.00" xmlns="http://www.w3.org/2000/svg" xmlns:xlink="http://www.w3.org/1999/xlink">
<g id="graph0" class="graph" transform="scale(1 1) rotate(0) translate(4 544)">
<title>mc::os::WindowModule</title>
<polygon fill="white" stroke="none" points="-4,4 -4,-544 350.5,-544 350.5,4 -4,4"/>
<!-- Node1 -->
<g id="node1" class="node"><title>Node1</title>
<polygon fill="#bfbfbf" stroke="black" points="3,-6 3,-25 122,-25 122,-6 3,-6"/>
<text text-anchor="middle" x="62.5" y="-13" font-family="Helvetica,sans-Serif" font-size="10.00">mc::os::WindowModule</text>
</g>
<!-- Node2 -->
<g id="node2" class="node"><title>Node2</title>
<g id="a_node2"><a xlink:href="../../d5/d79/a00030.html" target="_top" xlink:title="Abstract class used for doing a task in MACE. ">
<polygon fill="white" stroke="black" points="16.5,-78.5 16.5,-97.5 84.5,-97.5 84.5,-78.5 16.5,-78.5"/>
<text text-anchor="middle" x="50.5" y="-85.5" font-family="Helvetica,sans-Serif" font-size="10.00">mc::Module</text>
</a>
</g>
</g>
<!-- Node2&#45;&gt;Node1 -->
<g id="edge1" class="edge"><title>Node2&#45;&gt;Node1</title>
<path fill="none" stroke="midnightblue" d="M53.6731,-68.3581C56.0497,-54.3955 59.1934,-35.9263 61.0165,-25.2154"/>
<polygon fill="midnightblue" stroke="midnightblue" points="50.1991,-67.9098 51.9714,-78.3553 57.0999,-69.0844 50.1991,-67.9098"/>
</g>
<!-- Node3 -->
<g id="node3" class="node"><title>Node3</title>
<g id="a_node3"><a xlink:href="../../dd/d1b/a00015.html" target="_top" xlink:title="Abstract superclass for all graphical objects. ">
<polygon fill="white" stroke="black" points="102.5,-78.5 102.5,-97.5 182.5,-97.5 182.5,-78.5 102.5,-78.5"/>
<text text-anchor="middle" x="142.5" y="-85.5" font-family="Helvetica,sans-Serif" font-size="10.00">mc::gfx::Entity</text>
</a>
</g>
</g>
<!-- Node3&#45;&gt;Node1 -->
<g id="edge2" class="edge"><title>Node3&#45;&gt;Node1</title>
<path fill="none" stroke="midnightblue" d="M125.008,-71.585C108.877,-57.3699 85.5068,-36.7747 72.3898,-25.2154"/>
<polygon fill="midnightblue" stroke="midnightblue" points="122.874,-74.3696 132.69,-78.3553 127.502,-69.1178 122.874,-74.3696"/>
</g>
<!-- Node4 -->
<g id="node4" class="node"><title>Node4</title>
<polygon fill="white" stroke="#bfbfbf" points="151,-0.5 151,-30.5 254,-30.5 254,-0.5 151,-0.5"/>
<text text-anchor="start" x="159" y="-18.5" font-family="Helvetica,sans-Serif" font-size="10.00">std::vector&lt; mc::gfx</text>
<text text-anchor="middle" x="202.5" y="-7.5" font-family="Helvetica,sans-Serif" font-size="10.00">::Entity * &gt;</text>
</g>
<!-- Node3&#45;&gt;Node4 -->
<g id="edge4" class="edge"><title>Node3&#45;&gt;Node4</title>
<path fill="none" stroke="#9a32cd" stroke-dasharray="5,2" d="M132.65,-68.7025C130.477,-62.1113 129.782,-54.861 133.5,-49 138.465,-41.173 145.874,-35.1964 154.019,-30.6435"/>
<polygon fill="#9a32cd" stroke="#9a32cd" points="129.615,-70.4927 136.86,-78.2232 136.017,-67.6619 129.615,-70.4927"/>
<text text-anchor="middle" x="155" y="-52" font-family="Helvetica,sans-Serif" font-size="10.00"> elements</text>
</g>
<!-- Node4&#45;&gt;Node3 -->
<g id="edge3" class="edge"><title>Node4&#45;&gt;Node3</title>
<path fill="none" stroke="#9a32cd" stroke-dasharray="5,2" d="M193.016,-40.3618C189.666,-47.1317 185.47,-54.225 180.5,-60 174.165,-67.3608 165.419,-73.7535 157.915,-78.4683"/>
<polygon fill="#9a32cd" stroke="#9a32cd" points="196.379,-41.4191 197.313,-30.8655 190.002,-38.5334 196.379,-41.4191"/>
<text text-anchor="middle" x="206" y="-52" font-family="Helvetica,sans-Serif" font-size="10.00"> children</text>
</g>
<!-- Node5 -->
<g id="node5" class="node"><title>Node5</title>
<g id="a_node5"><a xlink:title="STL class. ">
<polygon fill="white" stroke="#bfbfbf" points="212,-415.5 212,-434.5 297,-434.5 297,-415.5 212,-415.5"/>
<text text-anchor="middle" x="254.5" y="-422.5" font-family="Helvetica,sans-Serif" font-size="10.00">std::vector&lt; T &gt;</text>
</a>
</g>
</g>
<!-- Node5&#45;&gt;Node4 -->
<g id="edge5" class="edge"><title>Node5&#45;&gt;Node4</title>
<path fill="none" stroke="orange" stroke-dasharray="5,2" d="M254.5,-405.334C254.5,-390.372 254.5,-368.837 254.5,-350 254.5,-350 254.5,-350 254.5,-87 254.5,-63.8826 236.168,-43.3631 221.273,-30.5063"/>
<polygon fill="orange" stroke="orange" points="251,-405.342 254.5,-415.342 258,-405.342 251,-405.342"/>
<text text-anchor="middle" x="300.5" y="-241.5" font-family="Helvetica,sans-Serif" font-size="10.00"> &lt; mc::gfx::Entity * &gt;</text>
</g>
<!-- Node6 -->
<g id="node6" class="node"><title>Node6</title>
<polygon fill="white" stroke="#bfbfbf" points="169,-520.5 169,-539.5 198,-539.5 198,-520.5 169,-520.5"/>
<text text-anchor="middle" x="183.5" y="-527.5" font-family="Helvetica,sans-Serif" font-size="10.00">T</text>
</g>
<!-- Node6&#45;&gt;Node5 -->
<g id="edge6" class="edge"><title>Node6&#45;&gt;Node5</title>
<path fill="none" stroke="#9a32cd" stroke-dasharray="5,2" d="M198.629,-512.98C208.396,-502.179 221.003,-487.334 230.5,-473 238.901,-460.322 246.498,-444.323 250.802,-434.642"/>
<polygon fill="#9a32cd" stroke="#9a32cd" points="196.016,-510.651 191.814,-520.376 201.164,-515.395 196.016,-510.651"/>
<text text-anchor="middle" x="238" y="-494" font-family="Helvetica,sans-Serif" font-size="10.00"> elements</text>
</g>
<!-- Node10 -->
<g id="node10" class="node"><title>Node10</title>
<g id="a_node10"><a xlink:title="STL class. ">
<polygon fill="white" stroke="#bfbfbf" points="66,-453.5 66,-472.5 147,-472.5 147,-453.5 66,-453.5"/>
<text text-anchor="middle" x="106.5" y="-460.5" font-family="Helvetica,sans-Serif" font-size="10.00">std::array&lt; T &gt;</text>
</a>
</g>
</g>
<!-- Node6&#45;&gt;Node10 -->
<g id="edge11" class="edge"><title>Node6&#45;&gt;Node10</title>
<path fill="none" stroke="#9a32cd" stroke-dasharray="5,2" d="M159.337,-521.536C148.313,-517.199 135.698,-510.819 126.5,-502 117.89,-493.745 112.23,-480.965 109.196,-472.541"/>
<polygon fill="#9a32cd" stroke="#9a32cd" points="158.276,-524.874 168.87,-524.955 160.639,-518.285 158.276,-524.874"/>
<text text-anchor="middle" x="148" y="-494" font-family="Helvetica,sans-Serif" font-size="10.00"> elements</text>
</g>
<!-- Node12 -->
<g id="node12" class="node"><title>Node12</title>
<polygon fill="white" stroke="#bfbfbf" points="111.5,-377.5 111.5,-396.5 205.5,-396.5 205.5,-377.5 111.5,-377.5"/>
<text text-anchor="middle" x="158.5" y="-384.5" font-family="Helvetica,sans-Serif" font-size="10.00">std::array&lt; T, N &gt;</text>
</g>
<!-- Node6&#45;&gt;Node12 -->
<g id="edge14" class="edge"><title>Node6&#45;&gt;Node12</title>
<path fill="none" stroke="#9a32cd" stroke-dasharray="5,2" d="M182.717,-510.251C181.418,-487.424 178.047,-447.852 169.5,-415 167.869,-408.73 165.119,-401.98 162.776,-396.797"/>
<polygon fill="#9a32cd" stroke="#9a32cd" points="179.223,-510.459 183.213,-520.273 186.214,-510.113 179.223,-510.459"/>
<text text-anchor="middle" x="200" y="-460.5" font-family="Helvetica,sans-Serif" font-size="10.00"> elements</text>
</g>
<!-- Node7 -->
<g id="node7" class="node"><title>Node7</title>
<g id="a_node7"><a xlink:href="../../d5/de0/a00050.html" target="_top" xlink:title="Matrix&#45;based class that allows for the easy creation and management of transformation matrices...">
<polygon fill="white" stroke="black" points="89.5,-145.5 89.5,-164.5 195.5,-164.5 195.5,-145.5 89.5,-145.5"/>
<text text-anchor="middle" x="142.5" y="-152.5" font-family="Helvetica,sans-Serif" font-size="10.00">mc::TransformMatrix</text>
</a>
</g>
</g>
<!-- Node7&#45;&gt;Node3 -->
<g id="edge7" class="edge"><title>Node7&#45;&gt;Node3</title>
<path fill="none" stroke="#9a32cd" stroke-dasharray="5,2" d="M142.5,-135.037C142.5,-122.67 142.5,-107.12 142.5,-97.6273"/>
<polygon fill="#9a32cd" stroke="#9a32cd" points="139,-135.234 142.5,-145.234 146,-135.234 139,-135.234"/>
<text text-anchor="middle" x="175" y="-119" font-family="Helvetica,sans-Serif" font-size="10.00"> transformation</text>
</g>
<!-- Node8 -->
<g id="node8" class="node"><title>Node8</title>
<g id="a_node8"><a xlink:href="../../d1/d84/a00052.html" target="_top" xlink:title="mc::Vector\&lt; float, 3 \&gt;">
<polygon fill="white" stroke="black" points="86.5,-234.5 86.5,-253.5 198.5,-253.5 198.5,-234.5 86.5,-234.5"/>
<text text-anchor="middle" x="142.5" y="-241.5" font-family="Helvetica,sans-Serif" font-size="10.00">mc::Vector&lt; float, 3 &gt;</text>
</a>
</g>
</g>
<!-- Node8&#45;&gt;Node7 -->
<g id="edge8" class="edge"><title>Node8&#45;&gt;Node7</title>
<path fill="none" stroke="#9a32cd" stroke-dasharray="5,2" d="M142.5,-224.195C142.5,-205.738 142.5,-178.412 142.5,-164.625"/>
<polygon fill="#9a32cd" stroke="#9a32cd" points="139,-224.34 142.5,-234.34 146,-224.34 139,-224.34"/>
<text text-anchor="middle" x="165.5" y="-208" font-family="Helvetica,sans-Serif" font-size="10.00"> rotation</text>
<text text-anchor="middle" x="165.5" y="-197" font-family="Helvetica,sans-Serif" font-size="10.00">scaler</text>
<text text-anchor="middle" x="165.5" y="-186" font-family="Helvetica,sans-Serif" font-size="10.00">translation</text>
</g>
<!-- Node9 -->
<g id="node9" class="node"><title>Node9</title>
<polygon fill="white" stroke="#bfbfbf" points="0,-339.5 0,-358.5 107,-358.5 107,-339.5 0,-339.5"/>
<text text-anchor="middle" x="53.5" y="-346.5" font-family="Helvetica,sans-Serif" font-size="10.00">std::array&lt; float, N &gt;</text>
</g>
<!-- Node9&#45;&gt;Node8 -->
<g id="edge9" class="edge"><title>Node9&#45;&gt;Node8</title>
<path fill="none" stroke="#9a32cd" stroke-dasharray="5,2" d="M53.8466,-329.256C54.7868,-320.117 57.1067,-309.329 62.5,-301 76.9671,-278.658 103.779,-262.657 122.352,-253.623"/>
<polygon fill="#9a32cd" stroke="#9a32cd" points="50.3484,-329.126 53.27,-339.31 57.3369,-329.527 50.3484,-329.126"/>
<text text-anchor="middle" x="80.5" y="-308.5" font-family="Helvetica,sans-Serif" font-size="10.00"> content</text>
</g>
<!-- Node10&#45;&gt;Node9 -->
<g id="edge10" class="edge"><title>Node10&#45;&gt;Node9</title>
<path fill="none" stroke="orange" stroke-dasharray="5,2" d="M75.4057,-448.027C70.3689,-444.463 65.748,-440.147 62.5,-435 47.2945,-410.905 49.8347,-375.14 52.0552,-358.763"/>
<polygon fill="orange" stroke="orange" points="73.7453,-451.114 84.106,-453.329 77.3878,-445.136 73.7453,-451.114"/>
<text text-anchor="middle" x="88.5" y="-422.5" font-family="Helvetica,sans-Serif" font-size="10.00"> &lt; float, N &gt;</text>
</g>
<!-- Node10&#45;&gt;Node12 -->
<g id="edge15" class="edge"><title>Node10&#45;&gt;Node12</title>
<path fill="none" stroke="orange" stroke-dasharray="5,2" d="M113.518,-443.852C117.491,-434.741 122.973,-423.801 129.5,-415 134.581,-408.148 141.544,-401.6 147.373,-396.668"/>
<polygon fill="orange" stroke="orange" points="110.262,-442.569 109.699,-453.149 116.736,-445.229 110.262,-442.569"/>
<text text-anchor="middle" x="149.5" y="-422.5" font-family="Helvetica,sans-Serif" font-size="10.00"> &lt; T, N &gt;</text>
</g>
<!-- Node11 -->
<g id="node11" class="node"><title>Node11</title>
<g id="a_node11"><a xlink:href="../../d1/d84/a00052.html" target="_top" xlink:title="1&#45;dimensional vector class that supports mathmatical operations. ">
<polygon fill="white" stroke="black" points="108,-301.5 108,-320.5 209,-320.5 209,-301.5 108,-301.5"/>
<text text-anchor="middle" x="158.5" y="-308.5" font-family="Helvetica,sans-Serif" font-size="10.00">mc::Vector&lt; T, N &gt;</text>
</a>
</g>
</g>
<!-- Node11&#45;&gt;Node8 -->
<g id="edge12" class="edge"><title>Node11&#45;&gt;Node8</title>
<path fill="none" stroke="orange" stroke-dasharray="5,2" d="M153.925,-291.415C150.866,-278.988 146.984,-263.217 144.624,-253.627"/>
<polygon fill="orange" stroke="orange" points="150.553,-292.36 156.342,-301.234 157.35,-290.687 150.553,-292.36"/>
<text text-anchor="middle" x="176" y="-275" font-family="Helvetica,sans-Serif" font-size="10.00"> &lt; float, 3 &gt;</text>
</g>
<!-- Node12&#45;&gt;Node11 -->
<g id="edge13" class="edge"><title>Node12&#45;&gt;Node11</title>
<path fill="none" stroke="#9a32cd" stroke-dasharray="5,2" d="M158.5,-367.072C158.5,-352.18 158.5,-332.111 158.5,-320.768"/>
<polygon fill="#9a32cd" stroke="#9a32cd" points="155,-367.221 158.5,-377.221 162,-367.221 155,-367.221"/>
<text text-anchor="middle" x="176.5" y="-346.5" font-family="Helvetica,sans-Serif" font-size="10.00"> content</text>
</g>
</g>
</svg>
