<?xml version="1.0" encoding="UTF-8" standalone="no"?>
<!DOCTYPE svg PUBLIC "-//W3C//DTD SVG 1.1//EN"
 "http://www.w3.org/Graphics/SVG/1.1/DTD/svg11.dtd">
<!-- Generated by graphviz version 2.38.0 (20140413.2041)
 -->
<!-- Title: mc::gfx::Group Pages: 1 -->
<svg width="351pt" height="583pt"
 viewBox="0.00 0.00 350.50 583.00" xmlns="http://www.w3.org/2000/svg" xmlns:xlink="http://www.w3.org/1999/xlink">
<g id="graph0" class="graph" transform="scale(1 1) rotate(0) translate(4 579)">
<title>mc::gfx::Group</title>
<polygon fill="white" stroke="none" points="-4,4 -4,-579 346.5,-579 346.5,4 -4,4"/>
<!-- Node1 -->
<g id="node1" class="node"><title>Node1</title>
<polygon fill="#bfbfbf" stroke="black" points="173,-6 173,-25 254,-25 254,-6 173,-6"/>
<text text-anchor="middle" x="213.5" y="-13" font-family="Helvetica,sans-Serif" font-size="10.00">mc::gfx::Group</text>
</g>
<!-- Node2 -->
<g id="node2" class="node"><title>Node2</title>
<g id="a_node2"><a xlink:href="../../db/db2/a00020.html" target="_top" xlink:title="Abstract superclass for all graphical objects. ">
<polygon fill="white" stroke="black" points="147.5,-78.5 147.5,-97.5 227.5,-97.5 227.5,-78.5 147.5,-78.5"/>
<text text-anchor="middle" x="187.5" y="-85.5" font-family="Helvetica,sans-Serif" font-size="10.00">mc::gfx::Entity</text>
</a>
</g>
</g>
<!-- Node2&#45;&gt;Node1 -->
<g id="edge1" class="edge"><title>Node2&#45;&gt;Node1</title>
<path fill="none" stroke="midnightblue" d="M195.901,-68.8105C197.159,-65.8859 198.402,-62.8752 199.5,-60 204.029,-48.1416 208.365,-34.114 210.981,-25.2609"/>
<polygon fill="midnightblue" stroke="midnightblue" points="192.633,-67.543 191.743,-78.1004 199.023,-70.4024 192.633,-67.543"/>
</g>
<!-- Node4 -->
<g id="node4" class="node"><title>Node4</title>
<polygon fill="white" stroke="#bfbfbf" points="44,-0.5 44,-30.5 147,-30.5 147,-0.5 44,-0.5"/>
<text text-anchor="start" x="52" y="-18.5" font-family="Helvetica,sans-Serif" font-size="10.00">std::vector&lt; mc::gfx</text>
<text text-anchor="middle" x="95.5" y="-7.5" font-family="Helvetica,sans-Serif" font-size="10.00">::Entity * &gt;</text>
</g>
<!-- Node2&#45;&gt;Node4 -->
<g id="edge4" class="edge"><title>Node2&#45;&gt;Node4</title>
<path fill="none" stroke="#9a32cd" stroke-dasharray="5,2" d="M137.163,-84.5918C120.259,-81.0739 103.04,-73.953 92.5,-60 86.2945,-51.7851 87.5291,-40.0217 90.0499,-30.7985"/>
<polygon fill="#9a32cd" stroke="#9a32cd" points="136.581,-88.043 147.026,-86.2712 137.756,-81.1423 136.581,-88.043"/>
<text text-anchor="middle" x="114" y="-52" font-family="Helvetica,sans-Serif" font-size="10.00"> elements</text>
</g>
<!-- Node3 -->
<g id="node3" class="node"><title>Node3</title>
<g id="a_node3"><a xlink:href="../../dc/d87/a00032.html" target="_top" xlink:title="mc::Initializable">
<polygon fill="white" stroke="black" points="258.5,-145.5 258.5,-164.5 342.5,-164.5 342.5,-145.5 258.5,-145.5"/>
<text text-anchor="middle" x="300.5" y="-152.5" font-family="Helvetica,sans-Serif" font-size="10.00">mc::Initializable</text>
</a>
</g>
</g>
<!-- Node3&#45;&gt;Node2 -->
<g id="edge2" class="edge"><title>Node3&#45;&gt;Node2</title>
<path fill="none" stroke="midnightblue" d="M285.222,-138.517C277.188,-130.996 266.872,-122.255 256.5,-116 243.832,-108.36 228.622,-102.136 215.709,-97.5969"/>
<polygon fill="midnightblue" stroke="midnightblue" points="282.798,-141.042 292.412,-145.495 287.673,-136.019 282.798,-141.042"/>
</g>
<!-- Node4&#45;&gt;Node2 -->
<g id="edge3" class="edge"><title>Node4&#45;&gt;Node2</title>
<path fill="none" stroke="#9a32cd" stroke-dasharray="5,2" d="M123.17,-36.7194C128.608,-40.7548 134.253,-44.9867 139.5,-49 152.501,-58.9437 167.231,-70.6752 176.904,-78.4452"/>
<polygon fill="#9a32cd" stroke="#9a32cd" points="125.004,-33.7232 114.88,-30.5994 120.847,-39.3547 125.004,-33.7232"/>
<text text-anchor="middle" x="172" y="-52" font-family="Helvetica,sans-Serif" font-size="10.00"> children</text>
</g>
<!-- Node5 -->
<g id="node5" class="node"><title>Node5</title>
<g id="a_node5"><a xlink:title="STL class. ">
<polygon fill="white" stroke="#bfbfbf" points="0,-438.5 0,-457.5 85,-457.5 85,-438.5 0,-438.5"/>
<text text-anchor="middle" x="42.5" y="-445.5" font-family="Helvetica,sans-Serif" font-size="10.00">std::vector&lt; T &gt;</text>
</a>
</g>
</g>
<!-- Node5&#45;&gt;Node4 -->
<g id="edge5" class="edge"><title>Node5&#45;&gt;Node4</title>
<path fill="none" stroke="orange" stroke-dasharray="5,2" d="M42.5,-428.162C42.5,-409.662 42.5,-380.639 42.5,-355.5 42.5,-355.5 42.5,-355.5 42.5,-87 42.5,-63.8781 60.9395,-43.5048 76.0657,-30.682"/>
<polygon fill="orange" stroke="orange" points="39.0001,-428.422 42.5,-438.422 46.0001,-428.422 39.0001,-428.422"/>
<text text-anchor="middle" x="88.5" y="-241.5" font-family="Helvetica,sans-Serif" font-size="10.00"> &lt; mc::gfx::Entity * &gt;</text>
</g>
<!-- Node6 -->
<g id="node6" class="node"><title>Node6</title>
<polygon fill="white" stroke="#bfbfbf" points="158,-555.5 158,-574.5 187,-574.5 187,-555.5 158,-555.5"/>
<text text-anchor="middle" x="172.5" y="-562.5" font-family="Helvetica,sans-Serif" font-size="10.00">T</text>
</g>
<!-- Node6&#45;&gt;Node5 -->
<g id="edge6" class="edge"><title>Node6&#45;&gt;Node5</title>
<path fill="none" stroke="#9a32cd" stroke-dasharray="5,2" d="M148.848,-552.193C141.094,-547.866 132.643,-542.636 125.5,-537 93.5155,-511.762 62.3423,-474.239 49.1188,-457.544"/>
<polygon fill="#9a32cd" stroke="#9a32cd" points="147.354,-555.363 157.823,-556.99 150.653,-549.19 147.354,-555.363"/>
<text text-anchor="middle" x="147" y="-529" font-family="Helvetica,sans-Serif" font-size="10.00"> elements</text>
</g>
<!-- Node10 -->
<g id="node10" class="node"><title>Node10</title>
<g id="a_node10"><a xlink:href="../../d1/d1e/a00087.html" target="_top" xlink:title="1&#45;dimensional vector class that supports mathmatical operations. ">
<polygon fill="white" stroke="black" points="112,-477.5 112,-507.5 233,-507.5 233,-477.5 112,-477.5"/>
<text text-anchor="start" x="120" y="-495.5" font-family="Helvetica,sans-Serif" font-size="10.00">mc::VectorBase&lt; Child,</text>
<text text-anchor="middle" x="172.5" y="-484.5" font-family="Helvetica,sans-Serif" font-size="10.00"> T, N &gt;</text>
</a>
</g>
</g>
<!-- Node6&#45;&gt;Node10 -->
<g id="edge11" class="edge"><title>Node6&#45;&gt;Node10</title>
<path fill="none" stroke="#9a32cd" stroke-dasharray="5,2" d="M172.5,-545.236C172.5,-533.408 172.5,-518.383 172.5,-507.576"/>
<polygon fill="#9a32cd" stroke="#9a32cd" points="169,-545.355 172.5,-555.355 176,-545.355 169,-545.355"/>
<text text-anchor="middle" x="190.5" y="-529" font-family="Helvetica,sans-Serif" font-size="10.00"> content</text>
</g>
<!-- Node12 -->
<g id="node12" class="node"><title>Node12</title>
<g id="a_node12"><a xlink:href="../../d1/d1e/a00087.html" target="_top" xlink:title="mc::VectorBase\&lt; Vector\l\&lt; T, N \&gt;, T, N \&gt;">
<polygon fill="white" stroke="black" points="150,-388.5 150,-418.5 275,-418.5 275,-388.5 150,-388.5"/>
<text text-anchor="start" x="158" y="-406.5" font-family="Helvetica,sans-Serif" font-size="10.00">mc::VectorBase&lt; Vector</text>
<text text-anchor="middle" x="212.5" y="-395.5" font-family="Helvetica,sans-Serif" font-size="10.00">&lt; T, N &gt;, T, N &gt;</text>
</a>
</g>
</g>
<!-- Node6&#45;&gt;Node12 -->
<g id="edge14" class="edge"><title>Node6&#45;&gt;Node12</title>
<path fill="none" stroke="#9a32cd" stroke-dasharray="5,2" d="M196.978,-554.455C230.761,-539.767 290.249,-508.073 314.5,-459 318.832,-450.234 320.27,-444.894 314.5,-437 305.068,-424.096 290.462,-416.194 275.223,-411.39"/>
<polygon fill="#9a32cd" stroke="#9a32cd" points="195.261,-551.38 187.387,-558.468 197.963,-557.837 195.261,-551.38"/>
<text text-anchor="middle" x="320.5" y="-490" font-family="Helvetica,sans-Serif" font-size="10.00"> content</text>
</g>
<!-- Node7 -->
<g id="node7" class="node"><title>Node7</title>
<g id="a_node7"><a xlink:href="../../d1/d09/a00077.html" target="_top" xlink:title="Matrix&#45;based class that allows for the easy creation and management of transformation matrices...">
<polygon fill="white" stroke="black" points="134.5,-145.5 134.5,-164.5 240.5,-164.5 240.5,-145.5 134.5,-145.5"/>
<text text-anchor="middle" x="187.5" y="-152.5" font-family="Helvetica,sans-Serif" font-size="10.00">mc::TransformMatrix</text>
</a>
</g>
</g>
<!-- Node7&#45;&gt;Node2 -->
<g id="edge7" class="edge"><title>Node7&#45;&gt;Node2</title>
<path fill="none" stroke="#9a32cd" stroke-dasharray="5,2" d="M187.5,-135.037C187.5,-122.67 187.5,-107.12 187.5,-97.6273"/>
<polygon fill="#9a32cd" stroke="#9a32cd" points="184,-135.234 187.5,-145.234 191,-135.234 184,-135.234"/>
<text text-anchor="middle" x="220" y="-119" font-family="Helvetica,sans-Serif" font-size="10.00"> transformation</text>
</g>
<!-- Node8 -->
<g id="node8" class="node"><title>Node8</title>
<g id="a_node8"><a xlink:href="../../d1/d51/a00079.html" target="_top" xlink:title="mc::Vector\&lt; float, 3 \&gt;">
<polygon fill="white" stroke="black" points="152.5,-234.5 152.5,-253.5 264.5,-253.5 264.5,-234.5 152.5,-234.5"/>
<text text-anchor="middle" x="208.5" y="-241.5" font-family="Helvetica,sans-Serif" font-size="10.00">mc::Vector&lt; float, 3 &gt;</text>
</a>
</g>
</g>
<!-- Node8&#45;&gt;Node7 -->
<g id="edge8" class="edge"><title>Node8&#45;&gt;Node7</title>
<path fill="none" stroke="#9a32cd" stroke-dasharray="5,2" d="M204.024,-224.455C199.568,-205.996 192.925,-178.477 189.582,-164.625"/>
<polygon fill="#9a32cd" stroke="#9a32cd" points="200.661,-225.44 206.41,-234.34 207.465,-223.798 200.661,-225.44"/>
<text text-anchor="middle" x="225.5" y="-208" font-family="Helvetica,sans-Serif" font-size="10.00"> rotation</text>
<text text-anchor="middle" x="225.5" y="-197" font-family="Helvetica,sans-Serif" font-size="10.00">scaler</text>
<text text-anchor="middle" x="225.5" y="-186" font-family="Helvetica,sans-Serif" font-size="10.00">translation</text>
</g>
<!-- Node9 -->
<g id="node9" class="node"><title>Node9</title>
<g id="a_node9"><a xlink:href="../../d1/d1e/a00087.html" target="_top" xlink:title="mc::VectorBase\&lt; Vector\l\&lt; float, N \&gt;, float, N \&gt;">
<polygon fill="white" stroke="black" points="61,-339.5 61,-369.5 186,-369.5 186,-339.5 61,-339.5"/>
<text text-anchor="start" x="69" y="-357.5" font-family="Helvetica,sans-Serif" font-size="10.00">mc::VectorBase&lt; Vector</text>
<text text-anchor="middle" x="123.5" y="-346.5" font-family="Helvetica,sans-Serif" font-size="10.00">&lt; float, N &gt;, float, N &gt;</text>
</a>
</g>
</g>
<!-- Node9&#45;&gt;Node8 -->
<g id="edge9" class="edge"><title>Node9&#45;&gt;Node8</title>
<path fill="none" stroke="midnightblue" d="M134.008,-330.2C138.751,-320.746 144.797,-309.964 151.5,-301 165.457,-282.336 185.644,-264.051 197.872,-253.686"/>
<polygon fill="midnightblue" stroke="midnightblue" points="130.744,-328.912 129.564,-339.44 137.052,-331.946 130.744,-328.912"/>
</g>
<!-- Node10&#45;&gt;Node9 -->
<g id="edge10" class="edge"><title>Node10&#45;&gt;Node9</title>
<path fill="none" stroke="orange" stroke-dasharray="5,2" d="M117.624,-471.975C112.865,-468.341 108.665,-464.054 105.5,-459 87.9764,-431.023 104.23,-390.869 115.258,-369.742"/>
<polygon fill="orange" stroke="orange" points="115.789,-474.957 126.076,-477.492 119.615,-469.095 115.789,-474.957"/>
<text text-anchor="start" x="105.5" y="-451" font-family="Helvetica,sans-Serif" font-size="10.00"> &lt; Vector&lt; float, N</text>
<text text-anchor="middle" x="146" y="-440" font-family="Helvetica,sans-Serif" font-size="10.00"> &gt;, float, N &gt;</text>
</g>
<!-- Node10&#45;&gt;Node12 -->
<g id="edge15" class="edge"><title>Node10&#45;&gt;Node12</title>
<path fill="none" stroke="orange" stroke-dasharray="5,2" d="M185.731,-468.424C187.396,-465.287 189.029,-462.086 190.5,-459 196.909,-445.552 203.163,-429.716 207.355,-418.591"/>
<polygon fill="orange" stroke="orange" points="182.515,-467.009 180.768,-477.459 188.65,-470.379 182.515,-467.009"/>
<text text-anchor="middle" x="255.5" y="-445.5" font-family="Helvetica,sans-Serif" font-size="10.00"> &lt; Vector&lt; T, N &gt;, T, N &gt;</text>
</g>
<!-- Node11 -->
<g id="node11" class="node"><title>Node11</title>
<g id="a_node11"><a xlink:href="../../d1/d51/a00079.html" target="_top" xlink:title="mc::Vector\&lt; T, N \&gt;">
<polygon fill="white" stroke="black" points="161,-301.5 161,-320.5 262,-320.5 262,-301.5 161,-301.5"/>
<text text-anchor="middle" x="211.5" y="-308.5" font-family="Helvetica,sans-Serif" font-size="10.00">mc::Vector&lt; T, N &gt;</text>
</a>
</g>
</g>
<!-- Node11&#45;&gt;Node8 -->
<g id="edge12" class="edge"><title>Node11&#45;&gt;Node8</title>
<path fill="none" stroke="orange" stroke-dasharray="5,2" d="M210.625,-291.037C210.054,-278.67 209.336,-263.12 208.898,-253.627"/>
<polygon fill="orange" stroke="orange" points="207.138,-291.406 211.095,-301.234 214.131,-291.083 207.138,-291.406"/>
<text text-anchor="middle" x="236" y="-275" font-family="Helvetica,sans-Serif" font-size="10.00"> &lt; float, 3 &gt;</text>
</g>
<!-- Node12&#45;&gt;Node11 -->
<g id="edge13" class="edge"><title>Node12&#45;&gt;Node11</title>
<path fill="none" stroke="midnightblue" d="M212.232,-378.275C212.022,-359.198 211.74,-333.709 211.595,-320.596"/>
<polygon fill="midnightblue" stroke="midnightblue" points="208.733,-378.399 212.344,-388.359 215.733,-378.321 208.733,-378.399"/>
</g>
</g>
</svg>
