<?xml version="1.0" encoding="UTF-8" standalone="no"?>
<!DOCTYPE svg PUBLIC "-//W3C//DTD SVG 1.1//EN"
 "http://www.w3.org/Graphics/SVG/1.1/DTD/svg11.dtd">
<!-- Generated by graphviz version 2.38.0 (20140413.2041)
 -->
<!-- Title: mc::gfx::ogl::OGL33Model Pages: 1 -->
<svg width="250pt" height="196pt"
 viewBox="0.00 0.00 250.00 196.00" xmlns="http://www.w3.org/2000/svg" xmlns:xlink="http://www.w3.org/1999/xlink">
<g id="graph0" class="graph" transform="scale(1 1) rotate(0) translate(4 192)">
<title>mc::gfx::ogl::OGL33Model</title>
<polygon fill="white" stroke="none" points="-4,4 -4,-192 246,-192 246,4 -4,4"/>
<!-- Node1 -->
<g id="node1" class="node"><title>Node1</title>
<polygon fill="#bfbfbf" stroke="black" points="49,-0.5 49,-19.5 180,-19.5 180,-0.5 49,-0.5"/>
<text text-anchor="middle" x="114.5" y="-7.5" font-family="Helvetica,sans-Serif" font-size="10.00">mc::gfx::ogl::OGL33Model</text>
</g>
<!-- Node2 -->
<g id="node2" class="node"><title>Node2</title>
<g id="a_node2"><a xlink:href="../../d6/d42/a00043.html" target="_top" xlink:title="mc::gfx::ModelImpl">
<polygon fill="white" stroke="black" points="0,-56.5 0,-75.5 99,-75.5 99,-56.5 0,-56.5"/>
<text text-anchor="middle" x="49.5" y="-63.5" font-family="Helvetica,sans-Serif" font-size="10.00">mc::gfx::ModelImpl</text>
</a>
</g>
</g>
<!-- Node2&#45;&gt;Node1 -->
<g id="edge1" class="edge"><title>Node2&#45;&gt;Node1</title>
<path fill="none" stroke="midnightblue" d="M67.7726,-49.8197C79.4178,-40.1452 94.0995,-27.9481 103.867,-19.8339"/>
<polygon fill="midnightblue" stroke="midnightblue" points="65.3987,-47.2416 59.9434,-56.324 69.8719,-52.6259 65.3987,-47.2416"/>
</g>
<!-- Node3 -->
<g id="node3" class="node"><title>Node3</title>
<g id="a_node3"><a xlink:href="../../d4/d8c/a00035.html" target="_top" xlink:title="mc::Initializable">
<polygon fill="white" stroke="black" points="31.5,-168.5 31.5,-187.5 115.5,-187.5 115.5,-168.5 31.5,-168.5"/>
<text text-anchor="middle" x="73.5" y="-175.5" font-family="Helvetica,sans-Serif" font-size="10.00">mc::Initializable</text>
</a>
</g>
</g>
<!-- Node3&#45;&gt;Node2 -->
<g id="edge2" class="edge"><title>Node3&#45;&gt;Node2</title>
<path fill="none" stroke="midnightblue" d="M69.4305,-158.348C64.1735,-134.254 55.2399,-93.3079 51.3745,-75.5914"/>
<polygon fill="midnightblue" stroke="midnightblue" points="66.0655,-159.344 71.6168,-168.368 72.9046,-157.852 66.0655,-159.344"/>
</g>
<!-- Node5 -->
<g id="node5" class="node"><title>Node5</title>
<g id="a_node5"><a xlink:href="../../d6/d97/a00045.html" target="_top" xlink:title="Represents a OpenGL object in memory. ">
<polygon fill="white" stroke="black" points="123.5,-112.5 123.5,-131.5 225.5,-131.5 225.5,-112.5 123.5,-112.5"/>
<text text-anchor="middle" x="174.5" y="-119.5" font-family="Helvetica,sans-Serif" font-size="10.00">mc::gfx::ogl::Object</text>
</a>
</g>
</g>
<!-- Node3&#45;&gt;Node5 -->
<g id="edge5" class="edge"><title>Node3&#45;&gt;Node5</title>
<path fill="none" stroke="midnightblue" d="M98.5825,-163.59C117.257,-153.605 142.204,-140.267 158.313,-131.655"/>
<polygon fill="midnightblue" stroke="midnightblue" points="96.8959,-160.522 89.7274,-168.324 100.196,-166.696 96.8959,-160.522"/>
</g>
<!-- Node4 -->
<g id="node4" class="node"><title>Node4</title>
<g id="a_node4"><a xlink:href="../../df/d13/a00085.html" target="_top" xlink:title="mc::gfx::ogl::VertexArray">
<polygon fill="white" stroke="black" points="117,-56.5 117,-75.5 242,-75.5 242,-56.5 117,-56.5"/>
<text text-anchor="middle" x="179.5" y="-63.5" font-family="Helvetica,sans-Serif" font-size="10.00">mc::gfx::ogl::VertexArray</text>
</a>
</g>
</g>
<!-- Node4&#45;&gt;Node1 -->
<g id="edge3" class="edge"><title>Node4&#45;&gt;Node1</title>
<path fill="none" stroke="#8b1a1a" d="M161.227,-49.8197C149.582,-40.1452 134.901,-27.9481 125.133,-19.8339"/>
<polygon fill="#8b1a1a" stroke="#8b1a1a" points="159.128,-52.6259 169.057,-56.324 163.601,-47.2416 159.128,-52.6259"/>
</g>
<!-- Node5&#45;&gt;Node4 -->
<g id="edge4" class="edge"><title>Node5&#45;&gt;Node4</title>
<path fill="none" stroke="midnightblue" d="M176.25,-102.101C177.08,-93.1357 178.032,-82.8579 178.69,-75.7511"/>
<polygon fill="midnightblue" stroke="midnightblue" points="172.763,-101.803 175.326,-112.083 179.733,-102.448 172.763,-101.803"/>
</g>
<!-- Node6 -->
<g id="node6" class="node"><title>Node6</title>
<g id="a_node6"><a xlink:href="../../da/da0/a00009.html" target="_top" xlink:title="mc::Bindable">
<polygon fill="white" stroke="black" points="137.5,-168.5 137.5,-187.5 211.5,-187.5 211.5,-168.5 137.5,-168.5"/>
<text text-anchor="middle" x="174.5" y="-175.5" font-family="Helvetica,sans-Serif" font-size="10.00">mc::Bindable</text>
</a>
</g>
</g>
<!-- Node6&#45;&gt;Node5 -->
<g id="edge6" class="edge"><title>Node6&#45;&gt;Node5</title>
<path fill="none" stroke="midnightblue" d="M174.5,-157.805C174.5,-148.91 174.5,-138.78 174.5,-131.751"/>
<polygon fill="midnightblue" stroke="midnightblue" points="171,-158.083 174.5,-168.083 178,-158.083 171,-158.083"/>
</g>
</g>
</svg>
