<?xml version="1.0" encoding="UTF-8" standalone="no"?>
<!DOCTYPE svg PUBLIC "-//W3C//DTD SVG 1.1//EN"
 "http://www.w3.org/Graphics/SVG/1.1/DTD/svg11.dtd">
<!-- Generated by graphviz version 2.38.0 (20140413.2041)
 -->
<!-- Title: mc::Module Pages: 1 -->
<svg width="367pt" height="84pt"
 viewBox="0.00 0.00 366.50 84.00" xmlns="http://www.w3.org/2000/svg" xmlns:xlink="http://www.w3.org/1999/xlink">
<g id="graph0" class="graph" transform="scale(1 1) rotate(0) translate(4 80)">
<title>mc::Module</title>
<polygon fill="white" stroke="none" points="-4,4 -4,-80 362.5,-80 362.5,4 -4,4"/>
<!-- Node1 -->
<g id="node1" class="node"><title>Node1</title>
<polygon fill="#bfbfbf" stroke="black" points="132,-56.5 132,-75.5 200,-75.5 200,-56.5 132,-56.5"/>
<text text-anchor="middle" x="166" y="-63.5" font-family="Helvetica,sans-Serif" font-size="10.00">mc::Module</text>
</g>
<!-- Node2 -->
<g id="node2" class="node"><title>Node2</title>
<g id="a_node2"><a xlink:href="../../de/d5e/a00007.html" target="_top" xlink:title="mc::AudioModule">
<polygon fill="white" stroke="black" points="0,-0.5 0,-19.5 92,-19.5 92,-0.5 0,-0.5"/>
<text text-anchor="middle" x="46" y="-7.5" font-family="Helvetica,sans-Serif" font-size="10.00">mc::AudioModule</text>
</a>
</g>
</g>
<!-- Node1&#45;&gt;Node2 -->
<g id="edge1" class="edge"><title>Node1&#45;&gt;Node2</title>
<path fill="none" stroke="midnightblue" d="M137.627,-52.2321C115.18,-42.1312 84.4648,-28.3091 64.9254,-19.5164"/>
<polygon fill="midnightblue" stroke="midnightblue" points="136.43,-55.5316 146.986,-56.4435 139.303,-49.1481 136.43,-55.5316"/>
</g>
<!-- Node3 -->
<g id="node3" class="node"><title>Node3</title>
<g id="a_node3"><a xlink:href="../../df/d03/a00062.html" target="_top" xlink:title="mc::os::SignalModule">
<polygon fill="white" stroke="black" points="110.5,-0.5 110.5,-19.5 221.5,-19.5 221.5,-0.5 110.5,-0.5"/>
<text text-anchor="middle" x="166" y="-7.5" font-family="Helvetica,sans-Serif" font-size="10.00">mc::os::SignalModule</text>
</a>
</g>
</g>
<!-- Node1&#45;&gt;Node3 -->
<g id="edge2" class="edge"><title>Node1&#45;&gt;Node3</title>
<path fill="none" stroke="midnightblue" d="M166,-45.8045C166,-36.9102 166,-26.7798 166,-19.7511"/>
<polygon fill="midnightblue" stroke="midnightblue" points="162.5,-46.083 166,-56.083 169.5,-46.083 162.5,-46.083"/>
</g>
<!-- Node4 -->
<g id="node4" class="node"><title>Node4</title>
<g id="a_node4"><a xlink:href="../../d9/da4/a00078.html" target="_top" xlink:title="mc::os::WindowModule">
<polygon fill="white" stroke="black" points="239.5,-0.5 239.5,-19.5 358.5,-19.5 358.5,-0.5 239.5,-0.5"/>
<text text-anchor="middle" x="299" y="-7.5" font-family="Helvetica,sans-Serif" font-size="10.00">mc::os::WindowModule</text>
</a>
</g>
</g>
<!-- Node1&#45;&gt;Node4 -->
<g id="edge3" class="edge"><title>Node1&#45;&gt;Node4</title>
<path fill="none" stroke="midnightblue" d="M196.448,-52.6377C221.407,-42.504 256.077,-28.4274 278.024,-19.5164"/>
<polygon fill="midnightblue" stroke="midnightblue" points="195.023,-49.4387 187.074,-56.4435 197.656,-55.9245 195.023,-49.4387"/>
</g>
</g>
</svg>
