<?xml version="1.0" encoding="UTF-8" standalone="no"?>
<!DOCTYPE svg PUBLIC "-//W3C//DTD SVG 1.1//EN"
 "http://www.w3.org/Graphics/SVG/1.1/DTD/svg11.dtd">
<!-- Generated by graphviz version 2.38.0 (20140413.2041)
 -->
<!-- Title: mc::gfx::Entity Pages: 1 -->
<svg width="274pt" height="548pt"
 viewBox="0.00 0.00 274.00 548.00" xmlns="http://www.w3.org/2000/svg" xmlns:xlink="http://www.w3.org/1999/xlink">
<g id="graph0" class="graph" transform="scale(1 1) rotate(0) translate(4 544)">
<title>mc::gfx::Entity</title>
<polygon fill="white" stroke="none" points="-4,4 -4,-544 270,-544 270,4 -4,4"/>
<!-- Node1 -->
<g id="node1" class="node"><title>Node1</title>
<polygon fill="#bfbfbf" stroke="black" points="104.5,-78.5 104.5,-97.5 184.5,-97.5 184.5,-78.5 104.5,-78.5"/>
<text text-anchor="middle" x="144.5" y="-85.5" font-family="Helvetica,sans-Serif" font-size="10.00">mc::gfx::Entity</text>
</g>
<!-- Node2 -->
<g id="node2" class="node"><title>Node2</title>
<polygon fill="white" stroke="#bfbfbf" points="27,-0.5 27,-30.5 130,-30.5 130,-0.5 27,-0.5"/>
<text text-anchor="start" x="35" y="-18.5" font-family="Helvetica,sans-Serif" font-size="10.00">std::vector&lt; mc::gfx</text>
<text text-anchor="middle" x="78.5" y="-7.5" font-family="Helvetica,sans-Serif" font-size="10.00">::Entity * &gt;</text>
</g>
<!-- Node1&#45;&gt;Node2 -->
<g id="edge2" class="edge"><title>Node1&#45;&gt;Node2</title>
<path fill="none" stroke="#9a32cd" stroke-dasharray="5,2" d="M95.0955,-76.1933C87.3675,-72.336 80.3473,-67.102 75.5,-60 69.6962,-51.4966 70.9056,-39.7512 73.3147,-30.6083"/>
<polygon fill="#9a32cd" stroke="#9a32cd" points="93.8304,-79.4583 104.405,-80.1185 96.5501,-73.0082 93.8304,-79.4583"/>
<text text-anchor="middle" x="97" y="-52" font-family="Helvetica,sans-Serif" font-size="10.00"> elements</text>
</g>
<!-- Node2&#45;&gt;Node1 -->
<g id="edge1" class="edge"><title>Node2&#45;&gt;Node1</title>
<path fill="none" stroke="#9a32cd" stroke-dasharray="5,2" d="M109.702,-37.0121C114.266,-40.7112 118.701,-44.7528 122.5,-49 130.428,-57.864 136.863,-70.0358 140.681,-78.1925"/>
<polygon fill="#9a32cd" stroke="#9a32cd" points="111.537,-34.0112 101.456,-30.7533 107.305,-39.587 111.537,-34.0112"/>
<text text-anchor="middle" x="149" y="-52" font-family="Helvetica,sans-Serif" font-size="10.00"> children</text>
</g>
<!-- Node3 -->
<g id="node3" class="node"><title>Node3</title>
<g id="a_node3"><a xlink:title="STL class. ">
<polygon fill="white" stroke="#bfbfbf" points="0,-415.5 0,-434.5 85,-434.5 85,-415.5 0,-415.5"/>
<text text-anchor="middle" x="42.5" y="-422.5" font-family="Helvetica,sans-Serif" font-size="10.00">std::vector&lt; T &gt;</text>
</a>
</g>
</g>
<!-- Node3&#45;&gt;Node2 -->
<g id="edge3" class="edge"><title>Node3&#45;&gt;Node2</title>
<path fill="none" stroke="orange" stroke-dasharray="5,2" d="M42.1084,-405.335C41.828,-390.373 41.5,-368.839 41.5,-350 41.5,-350 41.5,-350 41.5,-87 41.5,-65.5746 55.0639,-44.2493 65.7667,-30.7572"/>
<polygon fill="orange" stroke="orange" points="38.6091,-405.414 42.3072,-415.342 45.6077,-405.275 38.6091,-405.414"/>
<text text-anchor="middle" x="87.5" y="-241.5" font-family="Helvetica,sans-Serif" font-size="10.00"> &lt; mc::gfx::Entity * &gt;</text>
</g>
<!-- Node4 -->
<g id="node4" class="node"><title>Node4</title>
<polygon fill="white" stroke="#bfbfbf" points="135,-520.5 135,-539.5 164,-539.5 164,-520.5 135,-520.5"/>
<text text-anchor="middle" x="149.5" y="-527.5" font-family="Helvetica,sans-Serif" font-size="10.00">T</text>
</g>
<!-- Node4&#45;&gt;Node3 -->
<g id="edge4" class="edge"><title>Node4&#45;&gt;Node3</title>
<path fill="none" stroke="#9a32cd" stroke-dasharray="5,2" d="M125.552,-517.551C117.778,-513.25 109.388,-507.944 102.5,-502 78.5733,-481.352 57.4305,-450.044 47.8866,-434.868"/>
<polygon fill="#9a32cd" stroke="#9a32cd" points="124.104,-520.744 134.587,-522.276 127.347,-514.54 124.104,-520.744"/>
<text text-anchor="middle" x="124" y="-494" font-family="Helvetica,sans-Serif" font-size="10.00"> elements</text>
</g>
<!-- Node8 -->
<g id="node8" class="node"><title>Node8</title>
<g id="a_node8"><a xlink:title="STL class. ">
<polygon fill="white" stroke="#bfbfbf" points="109,-453.5 109,-472.5 190,-472.5 190,-453.5 109,-453.5"/>
<text text-anchor="middle" x="149.5" y="-460.5" font-family="Helvetica,sans-Serif" font-size="10.00">std::array&lt; T &gt;</text>
</a>
</g>
</g>
<!-- Node4&#45;&gt;Node8 -->
<g id="edge9" class="edge"><title>Node4&#45;&gt;Node8</title>
<path fill="none" stroke="#9a32cd" stroke-dasharray="5,2" d="M149.5,-510.037C149.5,-497.67 149.5,-482.12 149.5,-472.627"/>
<polygon fill="#9a32cd" stroke="#9a32cd" points="146,-510.234 149.5,-520.234 153,-510.234 146,-510.234"/>
<text text-anchor="middle" x="171" y="-494" font-family="Helvetica,sans-Serif" font-size="10.00"> elements</text>
</g>
<!-- Node10 -->
<g id="node10" class="node"><title>Node10</title>
<polygon fill="white" stroke="#bfbfbf" points="168.5,-377.5 168.5,-396.5 262.5,-396.5 262.5,-377.5 168.5,-377.5"/>
<text text-anchor="middle" x="215.5" y="-384.5" font-family="Helvetica,sans-Serif" font-size="10.00">std::array&lt; T, N &gt;</text>
</g>
<!-- Node4&#45;&gt;Node10 -->
<g id="edge12" class="edge"><title>Node4&#45;&gt;Node10</title>
<path fill="none" stroke="#9a32cd" stroke-dasharray="5,2" d="M173.454,-519.04C181.582,-514.745 190.193,-509.063 196.5,-502 218.112,-477.798 218.919,-466.773 225.5,-435 227.303,-426.296 227.068,-423.749 225.5,-415 224.371,-408.702 221.871,-401.952 219.653,-396.777"/>
<polygon fill="#9a32cd" stroke="#9a32cd" points="171.793,-515.956 164.3,-523.446 174.828,-522.263 171.793,-515.956"/>
<text text-anchor="middle" x="243" y="-460.5" font-family="Helvetica,sans-Serif" font-size="10.00"> elements</text>
</g>
<!-- Node5 -->
<g id="node5" class="node"><title>Node5</title>
<g id="a_node5"><a xlink:href="$d3/de7/a00039.html" xlink:title="Matrix&#45;based class that allows for the easy creation and management of transformation matrices...">
<polygon fill="white" stroke="black" points="116.5,-145.5 116.5,-164.5 222.5,-164.5 222.5,-145.5 116.5,-145.5"/>
<text text-anchor="middle" x="169.5" y="-152.5" font-family="Helvetica,sans-Serif" font-size="10.00">mc::TransformMatrix</text>
</a>
</g>
</g>
<!-- Node5&#45;&gt;Node1 -->
<g id="edge5" class="edge"><title>Node5&#45;&gt;Node1</title>
<path fill="none" stroke="#9a32cd" stroke-dasharray="5,2" d="M162.496,-135.79C157.695,-123.308 151.544,-107.314 147.818,-97.6273"/>
<polygon fill="#9a32cd" stroke="#9a32cd" points="159.272,-137.157 166.128,-145.234 165.805,-134.644 159.272,-137.157"/>
<text text-anchor="middle" x="191" y="-119" font-family="Helvetica,sans-Serif" font-size="10.00"> transformation</text>
</g>
<!-- Node6 -->
<g id="node6" class="node"><title>Node6</title>
<g id="a_node6"><a xlink:href="$dd/d32/a00041.html" xlink:title="mc::Vector\&lt; float, 3 \&gt;">
<polygon fill="white" stroke="black" points="151.5,-234.5 151.5,-253.5 263.5,-253.5 263.5,-234.5 151.5,-234.5"/>
<text text-anchor="middle" x="207.5" y="-241.5" font-family="Helvetica,sans-Serif" font-size="10.00">mc::Vector&lt; float, 3 &gt;</text>
</a>
</g>
</g>
<!-- Node6&#45;&gt;Node5 -->
<g id="edge6" class="edge"><title>Node6&#45;&gt;Node5</title>
<path fill="none" stroke="#9a32cd" stroke-dasharray="5,2" d="M199.626,-224.973C191.564,-206.514 179.374,-178.607 173.267,-164.625"/>
<polygon fill="#9a32cd" stroke="#9a32cd" points="196.507,-226.577 203.717,-234.34 202.922,-223.775 196.507,-226.577"/>
<text text-anchor="middle" x="218.5" y="-208" font-family="Helvetica,sans-Serif" font-size="10.00"> rotation</text>
<text text-anchor="middle" x="218.5" y="-197" font-family="Helvetica,sans-Serif" font-size="10.00">scaler</text>
<text text-anchor="middle" x="218.5" y="-186" font-family="Helvetica,sans-Serif" font-size="10.00">translation</text>
</g>
<!-- Node7 -->
<g id="node7" class="node"><title>Node7</title>
<polygon fill="white" stroke="#bfbfbf" points="57,-339.5 57,-358.5 164,-358.5 164,-339.5 57,-339.5"/>
<text text-anchor="middle" x="110.5" y="-346.5" font-family="Helvetica,sans-Serif" font-size="10.00">std::array&lt; float, N &gt;</text>
</g>
<!-- Node7&#45;&gt;Node6 -->
<g id="edge7" class="edge"><title>Node7&#45;&gt;Node6</title>
<path fill="none" stroke="#9a32cd" stroke-dasharray="5,2" d="M110.691,-329.153C111.593,-319.988 113.925,-309.208 119.5,-301 135.169,-277.93 163.831,-262.351 184.184,-253.599"/>
<polygon fill="#9a32cd" stroke="#9a32cd" points="107.19,-329.086 110.179,-339.25 114.181,-329.44 107.19,-329.086"/>
<text text-anchor="middle" x="137.5" y="-308.5" font-family="Helvetica,sans-Serif" font-size="10.00"> content</text>
</g>
<!-- Node8&#45;&gt;Node7 -->
<g id="edge8" class="edge"><title>Node8&#45;&gt;Node7</title>
<path fill="none" stroke="orange" stroke-dasharray="5,2" d="M123.795,-447.36C119.679,-443.852 115.968,-439.726 113.5,-435 100.376,-409.87 105.25,-374.622 108.508,-358.569"/>
<polygon fill="orange" stroke="orange" points="121.848,-450.272 131.987,-453.344 125.976,-444.62 121.848,-450.272"/>
<text text-anchor="middle" x="139.5" y="-422.5" font-family="Helvetica,sans-Serif" font-size="10.00"> &lt; float, N &gt;</text>
</g>
<!-- Node8&#45;&gt;Node10 -->
<g id="edge13" class="edge"><title>Node8&#45;&gt;Node10</title>
<path fill="none" stroke="orange" stroke-dasharray="5,2" d="M161.365,-444.977C168.065,-435.773 176.817,-424.4 185.5,-415 191.586,-408.412 199.086,-401.662 205.065,-396.559"/>
<polygon fill="orange" stroke="orange" points="158.383,-443.13 155.427,-453.304 164.082,-447.194 158.383,-443.13"/>
<text text-anchor="middle" x="205.5" y="-422.5" font-family="Helvetica,sans-Serif" font-size="10.00"> &lt; T, N &gt;</text>
</g>
<!-- Node9 -->
<g id="node9" class="node"><title>Node9</title>
<g id="a_node9"><a xlink:href="$dd/d32/a00041.html" xlink:title="1&#45;dimensional vector class that supports mathmatical operations. ">
<polygon fill="white" stroke="black" points="165,-301.5 165,-320.5 266,-320.5 266,-301.5 165,-301.5"/>
<text text-anchor="middle" x="215.5" y="-308.5" font-family="Helvetica,sans-Serif" font-size="10.00">mc::Vector&lt; T, N &gt;</text>
</a>
</g>
</g>
<!-- Node9&#45;&gt;Node6 -->
<g id="edge10" class="edge"><title>Node9&#45;&gt;Node6</title>
<path fill="none" stroke="orange" stroke-dasharray="5,2" d="M213.166,-291.037C211.644,-278.67 209.73,-263.12 208.562,-253.627"/>
<polygon fill="orange" stroke="orange" points="209.726,-291.736 214.421,-301.234 216.673,-290.881 209.726,-291.736"/>
<text text-anchor="middle" x="238" y="-275" font-family="Helvetica,sans-Serif" font-size="10.00"> &lt; float, 3 &gt;</text>
</g>
<!-- Node10&#45;&gt;Node9 -->
<g id="edge11" class="edge"><title>Node10&#45;&gt;Node9</title>
<path fill="none" stroke="#9a32cd" stroke-dasharray="5,2" d="M215.5,-367.072C215.5,-352.18 215.5,-332.111 215.5,-320.768"/>
<polygon fill="#9a32cd" stroke="#9a32cd" points="212,-367.221 215.5,-377.221 219,-367.221 212,-367.221"/>
<text text-anchor="middle" x="233.5" y="-346.5" font-family="Helvetica,sans-Serif" font-size="10.00"> content</text>
</g>
</g>
</svg>
