<?xml version="1.0" encoding="UTF-8" standalone="no"?>
<!DOCTYPE svg PUBLIC "-//W3C//DTD SVG 1.1//EN"
 "http://www.w3.org/Graphics/SVG/1.1/DTD/svg11.dtd">
<!-- Generated by graphviz version 2.38.0 (20140413.2041)
 -->
<!-- Title: mc::gfx::Entity::Metrics Pages: 1 -->
<svg width="153pt" height="284pt"
 viewBox="0.00 0.00 152.50 284.00" xmlns="http://www.w3.org/2000/svg" xmlns:xlink="http://www.w3.org/1999/xlink">
<g id="graph0" class="graph" transform="scale(1 1) rotate(0) translate(4 280)">
<title>mc::gfx::Entity::Metrics</title>
<polygon fill="white" stroke="none" points="-4,4 -4,-280 148.5,-280 148.5,4 -4,4"/>
<!-- Node1 -->
<g id="node1" class="node"><title>Node1</title>
<polygon fill="#bfbfbf" stroke="black" points="0,-0.5 0,-19.5 119,-19.5 119,-0.5 0,-0.5"/>
<text text-anchor="middle" x="59.5" y="-7.5" font-family="Helvetica,sans-Serif" font-size="10.00">mc::gfx::Entity::Metrics</text>
</g>
<!-- Node2 -->
<g id="node2" class="node"><title>Node2</title>
<g id="a_node2"><a xlink:href="../../db/df8/a00076.html" target="_top" xlink:title="mc::Vector\&lt; float, 3 \&gt;">
<polygon fill="white" stroke="black" points="3.5,-122.5 3.5,-141.5 115.5,-141.5 115.5,-122.5 3.5,-122.5"/>
<text text-anchor="middle" x="59.5" y="-129.5" font-family="Helvetica,sans-Serif" font-size="10.00">mc::Vector&lt; float, 3 &gt;</text>
</a>
</g>
</g>
<!-- Node2&#45;&gt;Node1 -->
<g id="edge1" class="edge"><title>Node2&#45;&gt;Node1</title>
<path fill="none" stroke="#9a32cd" stroke-dasharray="5,2" d="M59.5,-112.145C59.5,-85.7231 59.5,-38.7637 59.5,-19.5519"/>
<polygon fill="#9a32cd" stroke="#9a32cd" points="56.0001,-112.37 59.5,-122.37 63.0001,-112.37 56.0001,-112.37"/>
<text text-anchor="middle" x="102" y="-96" font-family="Helvetica,sans-Serif" font-size="10.00"> scale</text>
<text text-anchor="middle" x="102" y="-85" font-family="Helvetica,sans-Serif" font-size="10.00">inheritedRotation</text>
<text text-anchor="middle" x="102" y="-74" font-family="Helvetica,sans-Serif" font-size="10.00">rotation</text>
<text text-anchor="middle" x="102" y="-63" font-family="Helvetica,sans-Serif" font-size="10.00">inheritedTranslation</text>
<text text-anchor="middle" x="102" y="-52" font-family="Helvetica,sans-Serif" font-size="10.00">inheritedScale</text>
<text text-anchor="middle" x="102" y="-41" font-family="Helvetica,sans-Serif" font-size="10.00">translation</text>
</g>
<!-- Node3 -->
<g id="node3" class="node"><title>Node3</title>
<g id="a_node3"><a xlink:href="../../db/df8/a00076.html" target="_top" xlink:title="1&#45;dimensional vector class that supports mathmatical operations. ">
<polygon fill="white" stroke="black" points="9,-189.5 9,-208.5 110,-208.5 110,-189.5 9,-189.5"/>
<text text-anchor="middle" x="59.5" y="-196.5" font-family="Helvetica,sans-Serif" font-size="10.00">mc::Vector&lt; T, N &gt;</text>
</a>
</g>
</g>
<!-- Node3&#45;&gt;Node2 -->
<g id="edge2" class="edge"><title>Node3&#45;&gt;Node2</title>
<path fill="none" stroke="orange" stroke-dasharray="5,2" d="M59.5,-179.037C59.5,-166.67 59.5,-151.12 59.5,-141.627"/>
<polygon fill="orange" stroke="orange" points="56.0001,-179.234 59.5,-189.234 63.0001,-179.234 56.0001,-179.234"/>
<text text-anchor="middle" x="85" y="-163" font-family="Helvetica,sans-Serif" font-size="10.00"> &lt; float, 3 &gt;</text>
</g>
<!-- Node4 -->
<g id="node4" class="node"><title>Node4</title>
<polygon fill="white" stroke="#bfbfbf" points="45,-256.5 45,-275.5 74,-275.5 74,-256.5 45,-256.5"/>
<text text-anchor="middle" x="59.5" y="-263.5" font-family="Helvetica,sans-Serif" font-size="10.00">T</text>
</g>
<!-- Node4&#45;&gt;Node3 -->
<g id="edge3" class="edge"><title>Node4&#45;&gt;Node3</title>
<path fill="none" stroke="#9a32cd" stroke-dasharray="5,2" d="M59.5,-246.037C59.5,-233.67 59.5,-218.12 59.5,-208.627"/>
<polygon fill="#9a32cd" stroke="#9a32cd" points="56.0001,-246.234 59.5,-256.234 63.0001,-246.234 56.0001,-246.234"/>
<text text-anchor="middle" x="77.5" y="-230" font-family="Helvetica,sans-Serif" font-size="10.00"> content</text>
</g>
</g>
</svg>
