<?xml version="1.0" encoding="UTF-8" standalone="no"?>
<!DOCTYPE svg PUBLIC "-//W3C//DTD SVG 1.1//EN"
 "http://www.w3.org/Graphics/SVG/1.1/DTD/svg11.dtd">
<!-- Generated by graphviz version 2.38.0 (20140413.2041)
 -->
<!-- Title: mc::Vector&lt; T, N &gt; Pages: 1 -->
<svg width="939pt" height="154pt"
 viewBox="0.00 0.00 939.00 154.00" xmlns="http://www.w3.org/2000/svg" xmlns:xlink="http://www.w3.org/1999/xlink">
<g id="graph0" class="graph" transform="scale(1 1) rotate(0) translate(4 150)">
<title>mc::Vector&lt; T, N &gt;</title>
<polygon fill="white" stroke="none" points="-4,4 -4,-150 935,-150 935,4 -4,4"/>
<!-- Node1 -->
<g id="node1" class="node"><title>Node1</title>
<polygon fill="#bfbfbf" stroke="black" points="429,-59.5 429,-78.5 530,-78.5 530,-59.5 429,-59.5"/>
<text text-anchor="middle" x="479.5" y="-66.5" font-family="Helvetica,sans-Serif" font-size="10.00">mc::Vector&lt; T, N &gt;</text>
</g>
<!-- Node4 -->
<g id="node4" class="node"><title>Node4</title>
<g id="a_node4"><a xlink:href="../../d1/d51/a00079.html" target="_top" xlink:title="mc::Vector\&lt; T, H \&gt;">
<polygon fill="white" stroke="black" points="669,-126.5 669,-145.5 770,-145.5 770,-126.5 669,-126.5"/>
<text text-anchor="middle" x="719.5" y="-133.5" font-family="Helvetica,sans-Serif" font-size="10.00">mc::Vector&lt; T, H &gt;</text>
</a>
</g>
</g>
<!-- Node1&#45;&gt;Node4 -->
<g id="edge3" class="edge"><title>Node1&#45;&gt;Node4</title>
<path fill="none" stroke="orange" stroke-dasharray="5,2" d="M500.737,-84.6837C513.58,-93.8257 530.941,-104.752 548,-111 587.048,-125.302 633.958,-131.443 668.681,-134.07"/>
<polygon fill="orange" stroke="orange" points="502.756,-81.8243 492.627,-78.7192 498.609,-87.4635 502.756,-81.8243"/>
<text text-anchor="middle" x="595" y="-135" font-family="Helvetica,sans-Serif" font-size="10.00"> &lt; T, H &gt;</text>
</g>
<!-- Node5 -->
<g id="node5" class="node"><title>Node5</title>
<g id="a_node5"><a xlink:href="../../d1/d51/a00079.html" target="_top" xlink:title="mc::Vector\&lt; MatrixRow\l\&lt; T, H \&gt;, W \&gt;">
<polygon fill="white" stroke="black" points="660,-77 660,-107 779,-107 779,-77 660,-77"/>
<text text-anchor="start" x="668" y="-95" font-family="Helvetica,sans-Serif" font-size="10.00">mc::Vector&lt; MatrixRow</text>
<text text-anchor="middle" x="719.5" y="-84" font-family="Helvetica,sans-Serif" font-size="10.00">&lt; T, H &gt;, W &gt;</text>
</a>
</g>
</g>
<!-- Node1&#45;&gt;Node5 -->
<g id="edge4" class="edge"><title>Node1&#45;&gt;Node5</title>
<path fill="none" stroke="orange" stroke-dasharray="5,2" d="M540.132,-74.7628C576.695,-78.2961 623.31,-82.801 659.716,-86.3192"/>
<polygon fill="orange" stroke="orange" points="540.393,-71.2718 530.103,-73.7936 539.72,-78.2393 540.393,-71.2718"/>
<text text-anchor="start" x="548" y="-99" font-family="Helvetica,sans-Serif" font-size="10.00"> &lt; MatrixRow&lt; T, H &gt;</text>
<text text-anchor="middle" x="595" y="-88" font-family="Helvetica,sans-Serif" font-size="10.00">, W &gt;</text>
</g>
<!-- Node7 -->
<g id="node7" class="node"><title>Node7</title>
<g id="a_node7"><a xlink:href="../../d1/d51/a00079.html" target="_top" xlink:title="mc::Vector\&lt; float, 3 \&gt;">
<polygon fill="white" stroke="black" points="663.5,-38.5 663.5,-57.5 775.5,-57.5 775.5,-38.5 663.5,-38.5"/>
<text text-anchor="middle" x="719.5" y="-45.5" font-family="Helvetica,sans-Serif" font-size="10.00">mc::Vector&lt; float, 3 &gt;</text>
</a>
</g>
</g>
<!-- Node1&#45;&gt;Node7 -->
<g id="edge6" class="edge"><title>Node1&#45;&gt;Node7</title>
<path fill="none" stroke="orange" stroke-dasharray="5,2" d="M527.599,-57.3805C534.409,-56.0374 541.359,-54.8474 548,-54 586.342,-49.1072 629.899,-47.6436 663.391,-47.3845"/>
<polygon fill="orange" stroke="orange" points="526.845,-53.9623 517.774,-59.4358 528.278,-60.814 526.845,-53.9623"/>
<text text-anchor="middle" x="595" y="-57" font-family="Helvetica,sans-Serif" font-size="10.00"> &lt; float, 3 &gt;</text>
</g>
<!-- Node8 -->
<g id="node8" class="node"><title>Node8</title>
<g id="a_node8"><a xlink:href="../../d1/d51/a00079.html" target="_top" xlink:title="mc::Vector\&lt; float, 2 \&gt;">
<polygon fill="white" stroke="black" points="663.5,-0.5 663.5,-19.5 775.5,-19.5 775.5,-0.5 663.5,-0.5"/>
<text text-anchor="middle" x="719.5" y="-7.5" font-family="Helvetica,sans-Serif" font-size="10.00">mc::Vector&lt; float, 2 &gt;</text>
</a>
</g>
</g>
<!-- Node1&#45;&gt;Node8 -->
<g id="edge7" class="edge"><title>Node1&#45;&gt;Node8</title>
<path fill="none" stroke="orange" stroke-dasharray="5,2" d="M503.724,-53.9552C516.337,-46.4825 532.488,-38.0034 548,-33 585.381,-20.9424 629.347,-15.2034 663.269,-12.473"/>
<polygon fill="orange" stroke="orange" points="501.536,-51.1909 494.838,-59.3993 505.193,-57.1598 501.536,-51.1909"/>
<text text-anchor="middle" x="595" y="-36" font-family="Helvetica,sans-Serif" font-size="10.00"> &lt; float, 2 &gt;</text>
</g>
<!-- Node2 -->
<g id="node2" class="node"><title>Node2</title>
<g id="a_node2"><a xlink:href="../../d1/d1e/a00087.html" target="_top" xlink:title="mc::VectorBase\&lt; Vector\l\&lt; T, N \&gt;, T, N \&gt;">
<polygon fill="white" stroke="black" points="267,-54 267,-84 392,-84 392,-54 267,-54"/>
<text text-anchor="start" x="275" y="-72" font-family="Helvetica,sans-Serif" font-size="10.00">mc::VectorBase&lt; Vector</text>
<text text-anchor="middle" x="329.5" y="-61" font-family="Helvetica,sans-Serif" font-size="10.00">&lt; T, N &gt;, T, N &gt;</text>
</a>
</g>
</g>
<!-- Node2&#45;&gt;Node1 -->
<g id="edge1" class="edge"><title>Node2&#45;&gt;Node1</title>
<path fill="none" stroke="midnightblue" d="M402.487,-69C411.455,-69 420.461,-69 428.98,-69"/>
<polygon fill="midnightblue" stroke="midnightblue" points="402.408,-65.5001 392.408,-69 402.408,-72.5001 402.408,-65.5001"/>
</g>
<!-- Node3 -->
<g id="node3" class="node"><title>Node3</title>
<g id="a_node3"><a xlink:href="../../d1/d1e/a00087.html" target="_top" xlink:title="1&#45;dimensional vector class that supports mathmatical operations. ">
<polygon fill="white" stroke="black" points="0,-54 0,-84 121,-84 121,-54 0,-54"/>
<text text-anchor="start" x="8" y="-72" font-family="Helvetica,sans-Serif" font-size="10.00">mc::VectorBase&lt; Child,</text>
<text text-anchor="middle" x="60.5" y="-61" font-family="Helvetica,sans-Serif" font-size="10.00"> T, N &gt;</text>
</a>
</g>
</g>
<!-- Node3&#45;&gt;Node2 -->
<g id="edge2" class="edge"><title>Node3&#45;&gt;Node2</title>
<path fill="none" stroke="orange" stroke-dasharray="5,2" d="M131.243,-69C173.259,-69 226.286,-69 266.777,-69"/>
<polygon fill="orange" stroke="orange" points="131.088,-65.5001 121.088,-69 131.088,-72.5001 131.088,-65.5001"/>
<text text-anchor="middle" x="194" y="-72" font-family="Helvetica,sans-Serif" font-size="10.00"> &lt; Vector&lt; T, N &gt;, T, N &gt;</text>
</g>
<!-- Node6 -->
<g id="node6" class="node"><title>Node6</title>
<g id="a_node6"><a xlink:href="../../de/d8c/a00036.html" target="_top" xlink:title="A class representing a 2&#45;dimensional matrix, and allows for math involving matrices. ">
<polygon fill="white" stroke="black" points="816,-82.5 816,-101.5 931,-101.5 931,-82.5 816,-82.5"/>
<text text-anchor="middle" x="873.5" y="-89.5" font-family="Helvetica,sans-Serif" font-size="10.00">mc::Matrix&lt; T, W, H &gt;</text>
</a>
</g>
</g>
<!-- Node5&#45;&gt;Node6 -->
<g id="edge5" class="edge"><title>Node5&#45;&gt;Node6</title>
<path fill="none" stroke="midnightblue" d="M789.533,-92C798.352,-92 807.297,-92 815.887,-92"/>
<polygon fill="midnightblue" stroke="midnightblue" points="789.267,-88.5001 779.267,-92 789.267,-95.5001 789.267,-88.5001"/>
</g>
</g>
</svg>
