<?xml version="1.0" encoding="UTF-8" standalone="no"?>
<!DOCTYPE svg PUBLIC "-//W3C//DTD SVG 1.1//EN"
 "http://www.w3.org/Graphics/SVG/1.1/DTD/svg11.dtd">
<!-- Generated by graphviz version 2.38.0 (20140413.2041)
 -->
<!-- Title: mc::gfx::ogl::Object Pages: 1 -->
<svg width="467pt" height="408pt"
 viewBox="0.00 0.00 467.00 408.00" xmlns="http://www.w3.org/2000/svg" xmlns:xlink="http://www.w3.org/1999/xlink">
<g id="graph0" class="graph" transform="scale(1 1) rotate(0) translate(4 404)">
<title>mc::gfx::ogl::Object</title>
<polygon fill="white" stroke="none" points="-4,4 -4,-404 463,-404 463,4 -4,4"/>
<!-- Node1 -->
<g id="node1" class="node"><title>Node1</title>
<polygon fill="#bfbfbf" stroke="black" points="0,-133.5 0,-152.5 102,-152.5 102,-133.5 0,-133.5"/>
<text text-anchor="middle" x="51" y="-140.5" font-family="Helvetica,sans-Serif" font-size="10.00">mc::gfx::ogl::Object</text>
</g>
<!-- Node2 -->
<g id="node2" class="node"><title>Node2</title>
<g id="a_node2"><a xlink:href="../../da/da0/a00009.html" target="_top" xlink:title="Represents a sslBuffer of memory in the GPU. ">
<polygon fill="white" stroke="black" points="159.5,-266.5 159.5,-285.5 257.5,-285.5 257.5,-266.5 159.5,-266.5"/>
<text text-anchor="middle" x="208.5" y="-273.5" font-family="Helvetica,sans-Serif" font-size="10.00">mc::gfx::ogl::Buffer</text>
</a>
</g>
</g>
<!-- Node1&#45;&gt;Node2 -->
<g id="edge1" class="edge"><title>Node1&#45;&gt;Node2</title>
<path fill="none" stroke="midnightblue" d="M61.037,-161.643C74.333,-187.081 101.585,-232.318 138,-257 144.42,-261.351 151.806,-264.709 159.315,-267.3"/>
<polygon fill="midnightblue" stroke="midnightblue" points="64.1274,-159.998 56.4912,-152.653 57.8807,-163.157 64.1274,-159.998"/>
</g>
<!-- Node10 -->
<g id="node10" class="node"><title>Node10</title>
<g id="a_node10"><a xlink:href="../../dc/de2/a00024.html" target="_top" xlink:title="Represents an OpenGL Framebuffer Object which allows rendering to a non&#45;screen location. ">
<polygon fill="white" stroke="black" points="145.5,-228.5 145.5,-247.5 271.5,-247.5 271.5,-228.5 145.5,-228.5"/>
<text text-anchor="middle" x="208.5" y="-235.5" font-family="Helvetica,sans-Serif" font-size="10.00">mc::gfx::ogl::FrameBuffer</text>
</a>
</g>
</g>
<!-- Node1&#45;&gt;Node10 -->
<g id="edge9" class="edge"><title>Node1&#45;&gt;Node10</title>
<path fill="none" stroke="midnightblue" d="M67.1675,-160.427C83.1358,-177.72 109.828,-203.781 138,-219 145.044,-222.805 152.909,-225.895 160.745,-228.39"/>
<polygon fill="midnightblue" stroke="midnightblue" points="69.5245,-157.814 60.2304,-152.728 64.324,-162.5 69.5245,-157.814"/>
</g>
<!-- Node11 -->
<g id="node11" class="node"><title>Node11</title>
<g id="a_node11"><a xlink:href="../../dd/d32/a00041.html" target="_top" xlink:title="Special object that is used for asynchronous queries of information from the GPU. ...">
<polygon fill="white" stroke="black" points="144.5,-190.5 144.5,-209.5 272.5,-209.5 272.5,-190.5 144.5,-190.5"/>
<text text-anchor="middle" x="208.5" y="-197.5" font-family="Helvetica,sans-Serif" font-size="10.00">mc::gfx::ogl::QueryObject</text>
</a>
</g>
</g>
<!-- Node1&#45;&gt;Node11 -->
<g id="edge10" class="edge"><title>Node1&#45;&gt;Node11</title>
<path fill="none" stroke="midnightblue" d="M80.5995,-156.923C97.1275,-164.642 118.457,-174.055 138,-181 147.783,-184.477 158.528,-187.696 168.583,-190.46"/>
<polygon fill="midnightblue" stroke="midnightblue" points="82.009,-153.718 71.4728,-152.605 79.0153,-160.046 82.009,-153.718"/>
</g>
<!-- Node12 -->
<g id="node12" class="node"><title>Node12</title>
<g id="a_node12"><a xlink:href="../../d5/db6/a00042.html" target="_top" xlink:title="Represents a render buffer for use with a `FrameBuffer. ">
<polygon fill="white" stroke="black" points="144,-152.5 144,-171.5 273,-171.5 273,-152.5 144,-152.5"/>
<text text-anchor="middle" x="208.5" y="-159.5" font-family="Helvetica,sans-Serif" font-size="10.00">mc::gfx::ogl::RenderBuffer</text>
</a>
</g>
</g>
<!-- Node1&#45;&gt;Node12 -->
<g id="edge11" class="edge"><title>Node1&#45;&gt;Node12</title>
<path fill="none" stroke="midnightblue" d="M112.25,-150.362C122.618,-151.629 133.424,-152.949 143.877,-154.226"/>
<polygon fill="midnightblue" stroke="midnightblue" points="112.408,-146.855 102.057,-149.116 111.559,-153.803 112.408,-146.855"/>
</g>
<!-- Node13 -->
<g id="node13" class="node"><title>Node13</title>
<g id="a_node13"><a xlink:href="../../d1/d84/a00052.html" target="_top" xlink:title="Represents a shader object in OpenGL. ">
<polygon fill="white" stroke="black" points="156.5,-114.5 156.5,-133.5 260.5,-133.5 260.5,-114.5 156.5,-114.5"/>
<text text-anchor="middle" x="208.5" y="-121.5" font-family="Helvetica,sans-Serif" font-size="10.00">mc::gfx::ogl::Shader</text>
</a>
</g>
</g>
<!-- Node1&#45;&gt;Node13 -->
<g id="edge12" class="edge"><title>Node1&#45;&gt;Node13</title>
<path fill="none" stroke="midnightblue" d="M112.043,-135.664C126.711,-133.871 142.267,-131.971 156.469,-130.235"/>
<polygon fill="midnightblue" stroke="midnightblue" points="111.559,-132.197 102.057,-136.884 112.408,-139.145 111.559,-132.197"/>
</g>
<!-- Node14 -->
<g id="node14" class="node"><title>Node14</title>
<g id="a_node14"><a xlink:href="../../dc/dee/a00053.html" target="_top" xlink:title="mc::gfx::ogl::ShaderProgram">
<polygon fill="white" stroke="black" points="138,-76.5 138,-95.5 279,-95.5 279,-76.5 138,-76.5"/>
<text text-anchor="middle" x="208.5" y="-83.5" font-family="Helvetica,sans-Serif" font-size="10.00">mc::gfx::ogl::ShaderProgram</text>
</a>
</g>
</g>
<!-- Node1&#45;&gt;Node14 -->
<g id="edge13" class="edge"><title>Node1&#45;&gt;Node14</title>
<path fill="none" stroke="midnightblue" d="M80.5995,-129.077C97.1275,-121.358 118.457,-111.945 138,-105 147.783,-101.523 158.528,-98.3038 168.583,-95.5402"/>
<polygon fill="midnightblue" stroke="midnightblue" points="79.0153,-125.954 71.4728,-133.395 82.009,-132.282 79.0153,-125.954"/>
</g>
<!-- Node15 -->
<g id="node15" class="node"><title>Node15</title>
<g id="a_node15"><a xlink:href="../../d6/d2c/a00072.html" target="_top" xlink:title="mc::gfx::ogl::Texture2D">
<polygon fill="white" stroke="black" points="149.5,-38.5 149.5,-57.5 267.5,-57.5 267.5,-38.5 149.5,-38.5"/>
<text text-anchor="middle" x="208.5" y="-45.5" font-family="Helvetica,sans-Serif" font-size="10.00">mc::gfx::ogl::Texture2D</text>
</a>
</g>
</g>
<!-- Node1&#45;&gt;Node15 -->
<g id="edge14" class="edge"><title>Node1&#45;&gt;Node15</title>
<path fill="none" stroke="midnightblue" d="M67.1675,-125.573C83.1358,-108.28 109.828,-82.2193 138,-67 145.044,-63.1949 152.909,-60.1049 160.745,-57.6102"/>
<polygon fill="midnightblue" stroke="midnightblue" points="64.324,-123.5 60.2304,-133.272 69.5245,-128.186 64.324,-123.5"/>
</g>
<!-- Node17 -->
<g id="node17" class="node"><title>Node17</title>
<g id="a_node17"><a xlink:href="../../db/df8/a00076.html" target="_top" xlink:title="mc::gfx::ogl::VertexArray">
<polygon fill="white" stroke="black" points="146,-0.5 146,-19.5 271,-19.5 271,-0.5 146,-0.5"/>
<text text-anchor="middle" x="208.5" y="-7.5" font-family="Helvetica,sans-Serif" font-size="10.00">mc::gfx::ogl::VertexArray</text>
</a>
</g>
</g>
<!-- Node1&#45;&gt;Node17 -->
<g id="edge16" class="edge"><title>Node1&#45;&gt;Node17</title>
<path fill="none" stroke="midnightblue" d="M61.037,-124.357C74.333,-98.9193 101.585,-53.6825 138,-29 143.695,-25.14 150.151,-22.0615 156.778,-19.607"/>
<polygon fill="midnightblue" stroke="midnightblue" points="57.8807,-122.843 56.4912,-133.347 64.1274,-126.002 57.8807,-122.843"/>
</g>
<!-- Node3 -->
<g id="node3" class="node"><title>Node3</title>
<g id="a_node3"><a xlink:href="../../dd/d1b/a00015.html" target="_top" xlink:title="Special sslBuffer with no extra semantics to be used as a proxy in copying. ">
<polygon fill="white" stroke="black" points="315.5,-380.5 315.5,-399.5 458.5,-399.5 458.5,-380.5 315.5,-380.5"/>
<text text-anchor="middle" x="387" y="-387.5" font-family="Helvetica,sans-Serif" font-size="10.00">mc::gfx::ogl::CopyReadBuffer</text>
</a>
</g>
</g>
<!-- Node2&#45;&gt;Node3 -->
<g id="edge2" class="edge"><title>Node2&#45;&gt;Node3</title>
<path fill="none" stroke="midnightblue" d="M224.039,-293.385C242.864,-314.782 277.709,-350.759 315,-371 322.065,-374.835 329.953,-377.933 337.83,-380.425"/>
<polygon fill="midnightblue" stroke="midnightblue" points="226.6,-290.996 217.42,-285.706 221.298,-295.566 226.6,-290.996"/>
</g>
<!-- Node4 -->
<g id="node4" class="node"><title>Node4</title>
<g id="a_node4"><a xlink:href="../../d7/d7a/a00016.html" target="_top" xlink:title="Special sslBuffer with no extra semantics to be used as a proxy in copying. ">
<polygon fill="white" stroke="black" points="315,-342.5 315,-361.5 459,-361.5 459,-342.5 315,-342.5"/>
<text text-anchor="middle" x="387" y="-349.5" font-family="Helvetica,sans-Serif" font-size="10.00">mc::gfx::ogl::CopyWriteBuffer</text>
</a>
</g>
</g>
<!-- Node2&#45;&gt;Node4 -->
<g id="edge3" class="edge"><title>Node2&#45;&gt;Node4</title>
<path fill="none" stroke="midnightblue" d="M233.488,-291.067C254.378,-303.668 285.81,-321.395 315,-333 324.13,-336.63 334.191,-339.795 343.797,-342.447"/>
<polygon fill="midnightblue" stroke="midnightblue" points="235.035,-287.91 224.678,-285.679 231.383,-293.882 235.035,-287.91"/>
</g>
<!-- Node5 -->
<g id="node5" class="node"><title>Node5</title>
<g id="a_node5"><a xlink:href="../../d1/d2b/a00018.html" target="_top" xlink:title="Stores element indices to save vertex data. ">
<polygon fill="white" stroke="black" points="320,-304.5 320,-323.5 454,-323.5 454,-304.5 320,-304.5"/>
<text text-anchor="middle" x="387" y="-311.5" font-family="Helvetica,sans-Serif" font-size="10.00">mc::gfx::ogl::ElementBuffer</text>
</a>
</g>
</g>
<!-- Node2&#45;&gt;Node5 -->
<g id="edge4" class="edge"><title>Node2&#45;&gt;Node5</title>
<path fill="none" stroke="midnightblue" d="M264.088,-287.753C289.045,-293.126 318.227,-299.409 341.782,-304.48"/>
<polygon fill="midnightblue" stroke="midnightblue" points="264.551,-284.272 254.038,-285.589 263.078,-291.115 264.551,-284.272"/>
</g>
<!-- Node6 -->
<g id="node6" class="node"><title>Node6</title>
<g id="a_node6"><a xlink:href="../../de/d8c/a00036.html" target="_top" xlink:title="Special sslBuffer that excels at asynchronous pixel transfer operations. ">
<polygon fill="white" stroke="black" points="315.5,-266.5 315.5,-285.5 458.5,-285.5 458.5,-266.5 315.5,-266.5"/>
<text text-anchor="middle" x="387" y="-273.5" font-family="Helvetica,sans-Serif" font-size="10.00">mc::gfx::ogl::PixelPackBuffer</text>
</a>
</g>
</g>
<!-- Node2&#45;&gt;Node6 -->
<g id="edge5" class="edge"><title>Node2&#45;&gt;Node6</title>
<path fill="none" stroke="midnightblue" d="M267.983,-276C283.137,-276 299.617,-276 315.323,-276"/>
<polygon fill="midnightblue" stroke="midnightblue" points="267.729,-272.5 257.729,-276 267.729,-279.5 267.729,-272.5"/>
</g>
<!-- Node7 -->
<g id="node7" class="node"><title>Node7</title>
<g id="a_node7"><a xlink:href="../../d1/dc6/a00037.html" target="_top" xlink:title="Special sslBuffer that excels at asynchronous pixel transfer operations. ">
<polygon fill="white" stroke="black" points="323,-217 323,-247 451,-247 451,-217 323,-217"/>
<text text-anchor="start" x="331" y="-235" font-family="Helvetica,sans-Serif" font-size="10.00">mc::gfx::ogl::PixelUnpack</text>
<text text-anchor="middle" x="387" y="-224" font-family="Helvetica,sans-Serif" font-size="10.00">Buffer</text>
</a>
</g>
</g>
<!-- Node2&#45;&gt;Node7 -->
<g id="edge6" class="edge"><title>Node2&#45;&gt;Node7</title>
<path fill="none" stroke="midnightblue" d="M257.741,-263.974C278.677,-258.755 303.424,-252.586 325.567,-247.065"/>
<polygon fill="midnightblue" stroke="midnightblue" points="256.654,-260.638 247.798,-266.453 258.348,-267.43 256.654,-260.638"/>
</g>
<!-- Node8 -->
<g id="node8" class="node"><title>Node8</title>
<g id="a_node8"><a xlink:href="../../db/db6/a00074.html" target="_top" xlink:title="Stores uniform data for a shader in the form of a sslBuffer. ">
<polygon fill="white" stroke="black" points="321.5,-178.5 321.5,-197.5 452.5,-197.5 452.5,-178.5 321.5,-178.5"/>
<text text-anchor="middle" x="387" y="-185.5" font-family="Helvetica,sans-Serif" font-size="10.00">mc::gfx::ogl::UniformBuffer</text>
</a>
</g>
</g>
<!-- Node2&#45;&gt;Node8 -->
<g id="edge7" class="edge"><title>Node2&#45;&gt;Node8</title>
<path fill="none" stroke="midnightblue" d="M267.122,-263.686C271.303,-261.77 275.317,-259.557 279,-257 301.494,-241.385 292.464,-222.555 315,-207 320.671,-203.086 327.108,-199.978 333.737,-197.51"/>
<polygon fill="midnightblue" stroke="midnightblue" points="265.757,-260.462 257.769,-267.423 268.354,-266.963 265.757,-260.462"/>
</g>
<!-- Node9 -->
<g id="node9" class="node"><title>Node9</title>
<g id="a_node9"><a xlink:href="../../d1/d09/a00077.html" target="_top" xlink:title="Stores vertex data for a `VertexArray. ">
<polygon fill="white" stroke="black" points="323.5,-140.5 323.5,-159.5 450.5,-159.5 450.5,-140.5 323.5,-140.5"/>
<text text-anchor="middle" x="387" y="-147.5" font-family="Helvetica,sans-Serif" font-size="10.00">mc::gfx::ogl::VertexBuffer</text>
</a>
</g>
</g>
<!-- Node2&#45;&gt;Node9 -->
<g id="edge8" class="edge"><title>Node2&#45;&gt;Node9</title>
<path fill="none" stroke="midnightblue" d="M266.917,-265.089C271.281,-262.867 275.385,-260.2 279,-257 310.639,-228.988 283.286,-196.927 315,-169 319.405,-165.121 324.52,-162.022 329.946,-159.549"/>
<polygon fill="midnightblue" stroke="midnightblue" points="265.48,-261.897 257.668,-269.053 268.238,-268.331 265.48,-261.897"/>
</g>
<!-- Node16 -->
<g id="node16" class="node"><title>Node16</title>
<g id="a_node16"><a xlink:href="../../d7/dd4/a00013.html" target="_top" xlink:title="mc::gfx::ColorAttachment">
<polygon fill="white" stroke="black" points="323,-38.5 323,-57.5 451,-57.5 451,-38.5 323,-38.5"/>
<text text-anchor="middle" x="387" y="-45.5" font-family="Helvetica,sans-Serif" font-size="10.00">mc::gfx::ColorAttachment</text>
</a>
</g>
</g>
<!-- Node15&#45;&gt;Node16 -->
<g id="edge15" class="edge"><title>Node15&#45;&gt;Node16</title>
<path fill="none" stroke="midnightblue" d="M277.892,-48C292.71,-48 308.316,-48 322.918,-48"/>
<polygon fill="midnightblue" stroke="midnightblue" points="277.782,-44.5001 267.782,-48 277.782,-51.5001 277.782,-44.5001"/>
</g>
</g>
</svg>
