<?xml version="1.0" encoding="UTF-8" standalone="no"?>
<!DOCTYPE svg PUBLIC "-//W3C//DTD SVG 1.1//EN"
 "http://www.w3.org/Graphics/SVG/1.1/DTD/svg11.dtd">
<!-- Generated by graphviz version 2.38.0 (20140413.2041)
 -->
<!-- Title: mc::gfx::Group Pages: 1 -->
<svg width="274pt" height="548pt"
 viewBox="0.00 0.00 274.00 548.00" xmlns="http://www.w3.org/2000/svg" xmlns:xlink="http://www.w3.org/1999/xlink">
<g id="graph0" class="graph" transform="scale(1 1) rotate(0) translate(4 544)">
<title>mc::gfx::Group</title>
<polygon fill="white" stroke="none" points="-4,4 -4,-544 270,-544 270,4 -4,4"/>
<!-- Node1 -->
<g id="node1" class="node"><title>Node1</title>
<polygon fill="#bfbfbf" stroke="black" points="154,-6 154,-25 235,-25 235,-6 154,-6"/>
<text text-anchor="middle" x="194.5" y="-13" font-family="Helvetica,sans-Serif" font-size="10.00">mc::gfx::Group</text>
</g>
<!-- Node2 -->
<g id="node2" class="node"><title>Node2</title>
<g id="a_node2"><a xlink:href="$d2/de7/a00014.html" xlink:title="Abstract superclass for all graphical objects. ">
<polygon fill="white" stroke="black" points="106.5,-78.5 106.5,-97.5 186.5,-97.5 186.5,-78.5 106.5,-78.5"/>
<text text-anchor="middle" x="146.5" y="-85.5" font-family="Helvetica,sans-Serif" font-size="10.00">mc::gfx::Entity</text>
</a>
</g>
</g>
<!-- Node2&#45;&gt;Node1 -->
<g id="edge1" class="edge"><title>Node2&#45;&gt;Node1</title>
<path fill="none" stroke="midnightblue" d="M169.174,-72.1075C173.381,-68.5395 177.415,-64.4564 180.5,-60 187.906,-49.3022 191.568,-34.4585 193.245,-25.1713"/>
<polygon fill="midnightblue" stroke="midnightblue" points="166.895,-69.4435 161.075,-78.2964 171.146,-75.0055 166.895,-69.4435"/>
</g>
<!-- Node3 -->
<g id="node3" class="node"><title>Node3</title>
<polygon fill="white" stroke="#bfbfbf" points="25,-0.5 25,-30.5 128,-30.5 128,-0.5 25,-0.5"/>
<text text-anchor="start" x="33" y="-18.5" font-family="Helvetica,sans-Serif" font-size="10.00">std::vector&lt; mc::gfx</text>
<text text-anchor="middle" x="76.5" y="-7.5" font-family="Helvetica,sans-Serif" font-size="10.00">::Entity * &gt;</text>
</g>
<!-- Node2&#45;&gt;Node3 -->
<g id="edge3" class="edge"><title>Node2&#45;&gt;Node3</title>
<path fill="none" stroke="#9a32cd" stroke-dasharray="5,2" d="M97.0303,-77.9467C87.782,-73.9624 79.2334,-68.2336 73.5,-60 67.6168,-51.5513 68.8312,-39.8025 71.2624,-30.6444"/>
<polygon fill="#9a32cd" stroke="#9a32cd" points="95.8397,-81.2379 106.434,-81.3777 98.2391,-74.662 95.8397,-81.2379"/>
<text text-anchor="middle" x="95" y="-52" font-family="Helvetica,sans-Serif" font-size="10.00"> elements</text>
</g>
<!-- Node3&#45;&gt;Node2 -->
<g id="edge2" class="edge"><title>Node3&#45;&gt;Node2</title>
<path fill="none" stroke="#9a32cd" stroke-dasharray="5,2" d="M106.786,-36.7609C111.606,-40.5674 116.361,-44.7086 120.5,-49 129.157,-57.9756 136.918,-70.123 141.66,-78.2436"/>
<polygon fill="#9a32cd" stroke="#9a32cd" points="108.809,-33.9037 98.7094,-30.7032 104.609,-39.5035 108.809,-33.9037"/>
<text text-anchor="middle" x="148" y="-52" font-family="Helvetica,sans-Serif" font-size="10.00"> children</text>
</g>
<!-- Node4 -->
<g id="node4" class="node"><title>Node4</title>
<g id="a_node4"><a xlink:title="STL class. ">
<polygon fill="white" stroke="#bfbfbf" points="0,-415.5 0,-434.5 85,-434.5 85,-415.5 0,-415.5"/>
<text text-anchor="middle" x="42.5" y="-422.5" font-family="Helvetica,sans-Serif" font-size="10.00">std::vector&lt; T &gt;</text>
</a>
</g>
</g>
<!-- Node4&#45;&gt;Node3 -->
<g id="edge4" class="edge"><title>Node4&#45;&gt;Node3</title>
<path fill="none" stroke="orange" stroke-dasharray="5,2" d="M42.1084,-405.335C41.828,-390.373 41.5,-368.839 41.5,-350 41.5,-350 41.5,-350 41.5,-87 41.5,-65.6827 54.4968,-44.1666 64.6506,-30.6098"/>
<polygon fill="orange" stroke="orange" points="38.6091,-405.414 42.3072,-415.342 45.6077,-405.275 38.6091,-405.414"/>
<text text-anchor="middle" x="87.5" y="-241.5" font-family="Helvetica,sans-Serif" font-size="10.00"> &lt; mc::gfx::Entity * &gt;</text>
</g>
<!-- Node5 -->
<g id="node5" class="node"><title>Node5</title>
<polygon fill="white" stroke="#bfbfbf" points="135,-520.5 135,-539.5 164,-539.5 164,-520.5 135,-520.5"/>
<text text-anchor="middle" x="149.5" y="-527.5" font-family="Helvetica,sans-Serif" font-size="10.00">T</text>
</g>
<!-- Node5&#45;&gt;Node4 -->
<g id="edge5" class="edge"><title>Node5&#45;&gt;Node4</title>
<path fill="none" stroke="#9a32cd" stroke-dasharray="5,2" d="M125.552,-517.551C117.778,-513.25 109.388,-507.944 102.5,-502 78.5733,-481.352 57.4305,-450.044 47.8866,-434.868"/>
<polygon fill="#9a32cd" stroke="#9a32cd" points="124.104,-520.744 134.587,-522.276 127.347,-514.54 124.104,-520.744"/>
<text text-anchor="middle" x="124" y="-494" font-family="Helvetica,sans-Serif" font-size="10.00"> elements</text>
</g>
<!-- Node9 -->
<g id="node9" class="node"><title>Node9</title>
<g id="a_node9"><a xlink:title="STL class. ">
<polygon fill="white" stroke="#bfbfbf" points="109,-453.5 109,-472.5 190,-472.5 190,-453.5 109,-453.5"/>
<text text-anchor="middle" x="149.5" y="-460.5" font-family="Helvetica,sans-Serif" font-size="10.00">std::array&lt; T &gt;</text>
</a>
</g>
</g>
<!-- Node5&#45;&gt;Node9 -->
<g id="edge10" class="edge"><title>Node5&#45;&gt;Node9</title>
<path fill="none" stroke="#9a32cd" stroke-dasharray="5,2" d="M149.5,-510.037C149.5,-497.67 149.5,-482.12 149.5,-472.627"/>
<polygon fill="#9a32cd" stroke="#9a32cd" points="146,-510.234 149.5,-520.234 153,-510.234 146,-510.234"/>
<text text-anchor="middle" x="171" y="-494" font-family="Helvetica,sans-Serif" font-size="10.00"> elements</text>
</g>
<!-- Node11 -->
<g id="node11" class="node"><title>Node11</title>
<polygon fill="white" stroke="#bfbfbf" points="168.5,-377.5 168.5,-396.5 262.5,-396.5 262.5,-377.5 168.5,-377.5"/>
<text text-anchor="middle" x="215.5" y="-384.5" font-family="Helvetica,sans-Serif" font-size="10.00">std::array&lt; T, N &gt;</text>
</g>
<!-- Node5&#45;&gt;Node11 -->
<g id="edge13" class="edge"><title>Node5&#45;&gt;Node11</title>
<path fill="none" stroke="#9a32cd" stroke-dasharray="5,2" d="M173.454,-519.04C181.582,-514.745 190.193,-509.063 196.5,-502 218.112,-477.798 218.919,-466.773 225.5,-435 227.303,-426.296 227.068,-423.749 225.5,-415 224.371,-408.702 221.871,-401.952 219.653,-396.777"/>
<polygon fill="#9a32cd" stroke="#9a32cd" points="171.793,-515.956 164.3,-523.446 174.828,-522.263 171.793,-515.956"/>
<text text-anchor="middle" x="243" y="-460.5" font-family="Helvetica,sans-Serif" font-size="10.00"> elements</text>
</g>
<!-- Node6 -->
<g id="node6" class="node"><title>Node6</title>
<g id="a_node6"><a xlink:href="$d3/de7/a00039.html" xlink:title="Matrix&#45;based class that allows for the easy creation and management of transformation matrices...">
<polygon fill="white" stroke="black" points="118.5,-145.5 118.5,-164.5 224.5,-164.5 224.5,-145.5 118.5,-145.5"/>
<text text-anchor="middle" x="171.5" y="-152.5" font-family="Helvetica,sans-Serif" font-size="10.00">mc::TransformMatrix</text>
</a>
</g>
</g>
<!-- Node6&#45;&gt;Node2 -->
<g id="edge6" class="edge"><title>Node6&#45;&gt;Node2</title>
<path fill="none" stroke="#9a32cd" stroke-dasharray="5,2" d="M164.496,-135.79C159.695,-123.308 153.544,-107.314 149.818,-97.6273"/>
<polygon fill="#9a32cd" stroke="#9a32cd" points="161.272,-137.157 168.128,-145.234 167.805,-134.644 161.272,-137.157"/>
<text text-anchor="middle" x="193" y="-119" font-family="Helvetica,sans-Serif" font-size="10.00"> transformation</text>
</g>
<!-- Node7 -->
<g id="node7" class="node"><title>Node7</title>
<g id="a_node7"><a xlink:href="$dd/d32/a00041.html" xlink:title="mc::Vector\&lt; float, 3 \&gt;">
<polygon fill="white" stroke="black" points="151.5,-234.5 151.5,-253.5 263.5,-253.5 263.5,-234.5 151.5,-234.5"/>
<text text-anchor="middle" x="207.5" y="-241.5" font-family="Helvetica,sans-Serif" font-size="10.00">mc::Vector&lt; float, 3 &gt;</text>
</a>
</g>
</g>
<!-- Node7&#45;&gt;Node6 -->
<g id="edge7" class="edge"><title>Node7&#45;&gt;Node6</title>
<path fill="none" stroke="#9a32cd" stroke-dasharray="5,2" d="M200.04,-224.973C192.402,-206.514 180.855,-178.607 175.069,-164.625"/>
<polygon fill="#9a32cd" stroke="#9a32cd" points="196.859,-226.438 203.917,-234.34 203.327,-223.762 196.859,-226.438"/>
<text text-anchor="middle" x="219.5" y="-208" font-family="Helvetica,sans-Serif" font-size="10.00"> rotation</text>
<text text-anchor="middle" x="219.5" y="-197" font-family="Helvetica,sans-Serif" font-size="10.00">scaler</text>
<text text-anchor="middle" x="219.5" y="-186" font-family="Helvetica,sans-Serif" font-size="10.00">translation</text>
</g>
<!-- Node8 -->
<g id="node8" class="node"><title>Node8</title>
<polygon fill="white" stroke="#bfbfbf" points="57,-339.5 57,-358.5 164,-358.5 164,-339.5 57,-339.5"/>
<text text-anchor="middle" x="110.5" y="-346.5" font-family="Helvetica,sans-Serif" font-size="10.00">std::array&lt; float, N &gt;</text>
</g>
<!-- Node8&#45;&gt;Node7 -->
<g id="edge8" class="edge"><title>Node8&#45;&gt;Node7</title>
<path fill="none" stroke="#9a32cd" stroke-dasharray="5,2" d="M110.691,-329.153C111.593,-319.988 113.925,-309.208 119.5,-301 135.169,-277.93 163.831,-262.351 184.184,-253.599"/>
<polygon fill="#9a32cd" stroke="#9a32cd" points="107.19,-329.086 110.179,-339.25 114.181,-329.44 107.19,-329.086"/>
<text text-anchor="middle" x="137.5" y="-308.5" font-family="Helvetica,sans-Serif" font-size="10.00"> content</text>
</g>
<!-- Node9&#45;&gt;Node8 -->
<g id="edge9" class="edge"><title>Node9&#45;&gt;Node8</title>
<path fill="none" stroke="orange" stroke-dasharray="5,2" d="M123.795,-447.36C119.679,-443.852 115.968,-439.726 113.5,-435 100.376,-409.87 105.25,-374.622 108.508,-358.569"/>
<polygon fill="orange" stroke="orange" points="121.848,-450.272 131.987,-453.344 125.976,-444.62 121.848,-450.272"/>
<text text-anchor="middle" x="139.5" y="-422.5" font-family="Helvetica,sans-Serif" font-size="10.00"> &lt; float, N &gt;</text>
</g>
<!-- Node9&#45;&gt;Node11 -->
<g id="edge14" class="edge"><title>Node9&#45;&gt;Node11</title>
<path fill="none" stroke="orange" stroke-dasharray="5,2" d="M161.365,-444.977C168.065,-435.773 176.817,-424.4 185.5,-415 191.586,-408.412 199.086,-401.662 205.065,-396.559"/>
<polygon fill="orange" stroke="orange" points="158.383,-443.13 155.427,-453.304 164.082,-447.194 158.383,-443.13"/>
<text text-anchor="middle" x="205.5" y="-422.5" font-family="Helvetica,sans-Serif" font-size="10.00"> &lt; T, N &gt;</text>
</g>
<!-- Node10 -->
<g id="node10" class="node"><title>Node10</title>
<g id="a_node10"><a xlink:href="$dd/d32/a00041.html" xlink:title="1&#45;dimensional vector class that supports mathmatical operations. ">
<polygon fill="white" stroke="black" points="165,-301.5 165,-320.5 266,-320.5 266,-301.5 165,-301.5"/>
<text text-anchor="middle" x="215.5" y="-308.5" font-family="Helvetica,sans-Serif" font-size="10.00">mc::Vector&lt; T, N &gt;</text>
</a>
</g>
</g>
<!-- Node10&#45;&gt;Node7 -->
<g id="edge11" class="edge"><title>Node10&#45;&gt;Node7</title>
<path fill="none" stroke="orange" stroke-dasharray="5,2" d="M213.166,-291.037C211.644,-278.67 209.73,-263.12 208.562,-253.627"/>
<polygon fill="orange" stroke="orange" points="209.726,-291.736 214.421,-301.234 216.673,-290.881 209.726,-291.736"/>
<text text-anchor="middle" x="238" y="-275" font-family="Helvetica,sans-Serif" font-size="10.00"> &lt; float, 3 &gt;</text>
</g>
<!-- Node11&#45;&gt;Node10 -->
<g id="edge12" class="edge"><title>Node11&#45;&gt;Node10</title>
<path fill="none" stroke="#9a32cd" stroke-dasharray="5,2" d="M215.5,-367.072C215.5,-352.18 215.5,-332.111 215.5,-320.768"/>
<polygon fill="#9a32cd" stroke="#9a32cd" points="212,-367.221 215.5,-377.221 219,-367.221 212,-367.221"/>
<text text-anchor="middle" x="233.5" y="-346.5" font-family="Helvetica,sans-Serif" font-size="10.00"> content</text>
</g>
</g>
</svg>
