<?xml version="1.0" encoding="UTF-8" standalone="no"?>
<!DOCTYPE svg PUBLIC "-//W3C//DTD SVG 1.1//EN"
 "http://www.w3.org/Graphics/SVG/1.1/DTD/svg11.dtd">
<!-- Generated by graphviz version 2.38.0 (20140413.2041)
 -->
<!-- Title: mc::gfx::Image Pages: 1 -->
<svg width="228pt" height="632pt"
 viewBox="0.00 0.00 227.50 632.00" xmlns="http://www.w3.org/2000/svg" xmlns:xlink="http://www.w3.org/1999/xlink">
<g id="graph0" class="graph" transform="scale(1 1) rotate(0) translate(4 628)">
<title>mc::gfx::Image</title>
<polygon fill="white" stroke="none" points="-4,4 -4,-628 223.5,-628 223.5,4 -4,4"/>
<!-- Node1 -->
<g id="node1" class="node"><title>Node1</title>
<polygon fill="#bfbfbf" stroke="black" points="47,-0.5 47,-19.5 128,-19.5 128,-0.5 47,-0.5"/>
<text text-anchor="middle" x="87.5" y="-7.5" font-family="Helvetica,sans-Serif" font-size="10.00">mc::gfx::Image</text>
</g>
<!-- Node2 -->
<g id="node2" class="node"><title>Node2</title>
<g id="a_node2"><a xlink:href="$df/d86/a00012.html" xlink:title="mc::gfx::Entity2D">
<polygon fill="white" stroke="black" points="41.5,-57.5 41.5,-76.5 133.5,-76.5 133.5,-57.5 41.5,-57.5"/>
<text text-anchor="middle" x="87.5" y="-64.5" font-family="Helvetica,sans-Serif" font-size="10.00">mc::gfx::Entity2D</text>
</a>
</g>
</g>
<!-- Node2&#45;&gt;Node1 -->
<g id="edge1" class="edge"><title>Node2&#45;&gt;Node1</title>
<path fill="none" stroke="midnightblue" d="M87.5,-47.1166C87.5,-37.8173 87.5,-27.0557 87.5,-19.7149"/>
<polygon fill="midnightblue" stroke="midnightblue" points="84.0001,-47.4062 87.5,-57.4063 91.0001,-47.4063 84.0001,-47.4062"/>
</g>
<!-- Node3 -->
<g id="node3" class="node"><title>Node3</title>
<g id="a_node3"><a xlink:href="$d7/d7a/a00016.html" xlink:title="mc::gfx::GraphicsEntity">
<polygon fill="white" stroke="black" points="28,-114.5 28,-133.5 147,-133.5 147,-114.5 28,-114.5"/>
<text text-anchor="middle" x="87.5" y="-121.5" font-family="Helvetica,sans-Serif" font-size="10.00">mc::gfx::GraphicsEntity</text>
</a>
</g>
</g>
<!-- Node3&#45;&gt;Node2 -->
<g id="edge2" class="edge"><title>Node3&#45;&gt;Node2</title>
<path fill="none" stroke="midnightblue" d="M87.5,-104.117C87.5,-94.8173 87.5,-84.0557 87.5,-76.7149"/>
<polygon fill="midnightblue" stroke="midnightblue" points="84.0001,-104.406 87.5,-114.406 91.0001,-104.406 84.0001,-104.406"/>
</g>
<!-- Node4 -->
<g id="node4" class="node"><title>Node4</title>
<g id="a_node4"><a xlink:href="$da/d45/a00011.html" xlink:title="Abstract superclass for all graphical objects. ">
<polygon fill="white" stroke="black" points="47.5,-171.5 47.5,-190.5 127.5,-190.5 127.5,-171.5 47.5,-171.5"/>
<text text-anchor="middle" x="87.5" y="-178.5" font-family="Helvetica,sans-Serif" font-size="10.00">mc::gfx::Entity</text>
</a>
</g>
</g>
<!-- Node4&#45;&gt;Node3 -->
<g id="edge3" class="edge"><title>Node4&#45;&gt;Node3</title>
<path fill="none" stroke="midnightblue" d="M87.5,-161.117C87.5,-151.817 87.5,-141.056 87.5,-133.715"/>
<polygon fill="midnightblue" stroke="midnightblue" points="84.0001,-161.406 87.5,-171.406 91.0001,-161.406 84.0001,-161.406"/>
</g>
<!-- Node5 -->
<g id="node5" class="node"><title>Node5</title>
<g id="a_node5"><a xlink:href="$d4/d8c/a00035.html" xlink:title="Matrix&#45;based class that allows for the easy creation and management of transformation matrices...">
<polygon fill="white" stroke="black" points="34.5,-238.5 34.5,-257.5 140.5,-257.5 140.5,-238.5 34.5,-238.5"/>
<text text-anchor="middle" x="87.5" y="-245.5" font-family="Helvetica,sans-Serif" font-size="10.00">mc::TransformMatrix</text>
</a>
</g>
</g>
<!-- Node5&#45;&gt;Node4 -->
<g id="edge4" class="edge"><title>Node5&#45;&gt;Node4</title>
<path fill="none" stroke="#9a32cd" stroke-dasharray="5,2" d="M87.5,-228.037C87.5,-215.67 87.5,-200.12 87.5,-190.627"/>
<polygon fill="#9a32cd" stroke="#9a32cd" points="84.0001,-228.234 87.5,-238.234 91.0001,-228.234 84.0001,-228.234"/>
<text text-anchor="middle" x="120" y="-212" font-family="Helvetica,sans-Serif" font-size="10.00"> transformation</text>
</g>
<!-- Node6 -->
<g id="node6" class="node"><title>Node6</title>
<g id="a_node6"><a xlink:href="$d1/dc6/a00037.html" xlink:title="mc::Vector\&lt; float, 3 \&gt;">
<polygon fill="white" stroke="black" points="31.5,-327.5 31.5,-346.5 143.5,-346.5 143.5,-327.5 31.5,-327.5"/>
<text text-anchor="middle" x="87.5" y="-334.5" font-family="Helvetica,sans-Serif" font-size="10.00">mc::Vector&lt; float, 3 &gt;</text>
</a>
</g>
</g>
<!-- Node6&#45;&gt;Node5 -->
<g id="edge5" class="edge"><title>Node6&#45;&gt;Node5</title>
<path fill="none" stroke="#9a32cd" stroke-dasharray="5,2" d="M87.5,-317.195C87.5,-298.738 87.5,-271.412 87.5,-257.625"/>
<polygon fill="#9a32cd" stroke="#9a32cd" points="84.0001,-317.34 87.5,-327.34 91.0001,-317.34 84.0001,-317.34"/>
<text text-anchor="middle" x="110.5" y="-301" font-family="Helvetica,sans-Serif" font-size="10.00"> rotation</text>
<text text-anchor="middle" x="110.5" y="-290" font-family="Helvetica,sans-Serif" font-size="10.00">scaler</text>
<text text-anchor="middle" x="110.5" y="-279" font-family="Helvetica,sans-Serif" font-size="10.00">translation</text>
</g>
<!-- Node7 -->
<g id="node7" class="node"><title>Node7</title>
<polygon fill="white" stroke="#bfbfbf" points="0,-432.5 0,-451.5 107,-451.5 107,-432.5 0,-432.5"/>
<text text-anchor="middle" x="53.5" y="-439.5" font-family="Helvetica,sans-Serif" font-size="10.00">std::array&lt; float, N &gt;</text>
</g>
<!-- Node7&#45;&gt;Node6 -->
<g id="edge6" class="edge"><title>Node7&#45;&gt;Node6</title>
<path fill="none" stroke="#9a32cd" stroke-dasharray="5,2" d="M56.0641,-422.298C57.5166,-413.581 59.6274,-403.139 62.5,-394 67.9273,-376.733 77.171,-357.704 82.769,-346.867"/>
<polygon fill="#9a32cd" stroke="#9a32cd" points="52.6031,-421.778 54.5687,-432.189 59.5244,-422.824 52.6031,-421.778"/>
<text text-anchor="middle" x="80.5" y="-401.5" font-family="Helvetica,sans-Serif" font-size="10.00"> content</text>
</g>
<!-- Node8 -->
<g id="node8" class="node"><title>Node8</title>
<g id="a_node8"><a xlink:title="STL class. ">
<polygon fill="white" stroke="#bfbfbf" points="66,-537.5 66,-556.5 147,-556.5 147,-537.5 66,-537.5"/>
<text text-anchor="middle" x="106.5" y="-544.5" font-family="Helvetica,sans-Serif" font-size="10.00">std::array&lt; T &gt;</text>
</a>
</g>
</g>
<!-- Node8&#45;&gt;Node7 -->
<g id="edge7" class="edge"><title>Node8&#45;&gt;Node7</title>
<path fill="none" stroke="orange" stroke-dasharray="5,2" d="M78.874,-531.756C74.1128,-528.179 69.6808,-523.927 66.5,-519 52.8514,-497.857 52.2382,-466.78 52.8754,-451.763"/>
<polygon fill="orange" stroke="orange" points="77.3161,-534.919 87.6004,-537.465 81.1488,-529.061 77.3161,-534.919"/>
<text text-anchor="middle" x="92.5" y="-511" font-family="Helvetica,sans-Serif" font-size="10.00"> &lt; float, N &gt;</text>
</g>
<!-- Node11 -->
<g id="node11" class="node"><title>Node11</title>
<polygon fill="white" stroke="#bfbfbf" points="111.5,-470.5 111.5,-489.5 205.5,-489.5 205.5,-470.5 111.5,-470.5"/>
<text text-anchor="middle" x="158.5" y="-477.5" font-family="Helvetica,sans-Serif" font-size="10.00">std::array&lt; T, N &gt;</text>
</g>
<!-- Node8&#45;&gt;Node11 -->
<g id="edge12" class="edge"><title>Node8&#45;&gt;Node11</title>
<path fill="none" stroke="orange" stroke-dasharray="5,2" d="M115.755,-528.455C119.622,-521.777 124.401,-514.271 129.5,-508 134.968,-501.275 142.079,-494.629 147.891,-489.614"/>
<polygon fill="orange" stroke="orange" points="112.582,-526.962 110.813,-537.408 118.71,-530.345 112.582,-526.962"/>
<text text-anchor="middle" x="149.5" y="-511" font-family="Helvetica,sans-Serif" font-size="10.00"> &lt; T, N &gt;</text>
</g>
<!-- Node9 -->
<g id="node9" class="node"><title>Node9</title>
<polygon fill="white" stroke="#bfbfbf" points="135,-604.5 135,-623.5 164,-623.5 164,-604.5 135,-604.5"/>
<text text-anchor="middle" x="149.5" y="-611.5" font-family="Helvetica,sans-Serif" font-size="10.00">T</text>
</g>
<!-- Node9&#45;&gt;Node8 -->
<g id="edge8" class="edge"><title>Node9&#45;&gt;Node8</title>
<path fill="none" stroke="#9a32cd" stroke-dasharray="5,2" d="M134.545,-596.605C131.731,-593.206 128.916,-589.57 126.5,-586 120.065,-576.492 114.134,-564.672 110.43,-556.762"/>
<polygon fill="#9a32cd" stroke="#9a32cd" points="132.113,-599.142 141.313,-604.395 137.397,-594.551 132.113,-599.142"/>
<text text-anchor="middle" x="148" y="-578" font-family="Helvetica,sans-Serif" font-size="10.00"> elements</text>
</g>
<!-- Node9&#45;&gt;Node11 -->
<g id="edge11" class="edge"><title>Node9&#45;&gt;Node11</title>
<path fill="none" stroke="#9a32cd" stroke-dasharray="5,2" d="M164.407,-596.192C166.498,-592.999 168.331,-589.542 169.5,-586 180.365,-553.08 176.164,-542.02 169.5,-508 168.255,-501.642 165.505,-494.892 163.066,-489.732"/>
<polygon fill="#9a32cd" stroke="#9a32cd" points="161.463,-594.279 158.16,-604.346 167.02,-598.536 161.463,-594.279"/>
<text text-anchor="middle" x="198" y="-544.5" font-family="Helvetica,sans-Serif" font-size="10.00"> elements</text>
</g>
<!-- Node10 -->
<g id="node10" class="node"><title>Node10</title>
<g id="a_node10"><a xlink:href="$d1/dc6/a00037.html" xlink:title="1&#45;dimensional vector class that supports mathmatical operations. ">
<polygon fill="white" stroke="black" points="108,-394.5 108,-413.5 209,-413.5 209,-394.5 108,-394.5"/>
<text text-anchor="middle" x="158.5" y="-401.5" font-family="Helvetica,sans-Serif" font-size="10.00">mc::Vector&lt; T, N &gt;</text>
</a>
</g>
</g>
<!-- Node10&#45;&gt;Node6 -->
<g id="edge9" class="edge"><title>Node10&#45;&gt;Node6</title>
<path fill="none" stroke="orange" stroke-dasharray="5,2" d="M141.412,-387.356C127.454,-374.578 108.245,-356.992 96.9237,-346.627"/>
<polygon fill="orange" stroke="orange" points="139.185,-390.063 148.925,-394.234 143.912,-384.9 139.185,-390.063"/>
<text text-anchor="middle" x="153" y="-368" font-family="Helvetica,sans-Serif" font-size="10.00"> &lt; float, 3 &gt;</text>
</g>
<!-- Node11&#45;&gt;Node10 -->
<g id="edge10" class="edge"><title>Node11&#45;&gt;Node10</title>
<path fill="none" stroke="#9a32cd" stroke-dasharray="5,2" d="M158.5,-460.072C158.5,-445.18 158.5,-425.111 158.5,-413.768"/>
<polygon fill="#9a32cd" stroke="#9a32cd" points="155,-460.221 158.5,-470.221 162,-460.221 155,-460.221"/>
<text text-anchor="middle" x="176.5" y="-439.5" font-family="Helvetica,sans-Serif" font-size="10.00"> content</text>
</g>
</g>
</svg>
