<?xml version="1.0" encoding="UTF-8" standalone="no"?>
<!DOCTYPE svg PUBLIC "-//W3C//DTD SVG 1.1//EN"
 "http://www.w3.org/Graphics/SVG/1.1/DTD/svg11.dtd">
<!-- Generated by graphviz version 2.38.0 (20140413.2041)
 -->
<!-- Title: mc::gfx::OpenGLContext Pages: 1 -->
<!--zoomable 575 -->
<svg id="main" version="1.1" xmlns="http://www.w3.org/2000/svg" xmlns:xlink="http://www.w3.org/1999/xlink" xml:space="preserve" onload="init(evt)">
<style type="text/css"><![CDATA[
.edge:hover path { stroke: red; }
.edge:hover polygon { stroke: red; fill: red; }
]]></style>
<script type="text/javascript"><![CDATA[
var edges = document.getElementsByTagName('g');
if (edges && edges.length) {
  for (var i=0;i<edges.length;i++) {
    if (edges[i].id.substr(0,4)=='edge') {
      edges[i].setAttribute('class','edge');
    }
  }
}
]]></script>
        <defs>
                <circle id="rim" cx="0" cy="0" r="7"/>
                <circle id="rim2" cx="0" cy="0" r="3.5"/>
                <g id="zoomPlus">
                        <use xlink:href="#rim" fill="#404040">
                                <set attributeName="fill" to="#808080" begin="zoomplus.mouseover" end="zoomplus.mouseout"/>
                        </use>
                        <path d="M-4,0h8M0,-4v8" fill="none" stroke="white" stroke-width="1.5" pointer-events="none"/>
                </g>
                <g id="zoomMin">
                        <use xlink:href="#rim" fill="#404040">
                                <set attributeName="fill" to="#808080" begin="zoomminus.mouseover" end="zoomminus.mouseout"/>
                        </use>
                        <path d="M-4,0h8" fill="none" stroke="white" stroke-width="1.5" pointer-events="none"/>
                </g>
                <g id="dirArrow">
                        <path fill="none" stroke="white" stroke-width="1.5" d="M0,-3.0v7 M-2.5,-0.5L0,-3.0L2.5,-0.5"/>
                </g>
               <g id="resetDef">
                       <use xlink:href="#rim2" fill="#404040">
                               <set attributeName="fill" to="#808080" begin="reset.mouseover" end="reset.mouseout"/>
                       </use>
               </g>
        </defs>

<script type="text/javascript">
var viewWidth = 228;
var viewHeight = 575;
var sectionId = 'dynsection-1';
</script>
<script xlink:href="../../svgpan.js"/>
<svg id="graph" class="graph">
<g id="viewport">
<title>mc::gfx::OpenGLContext</title>
<polygon fill="white" stroke="none" points="-4,4 -4,-571 223.5,-571 223.5,4 -4,4"/>
<!-- Node1 -->
<g id="node1" class="node"><title>Node1</title>
<polygon fill="#bfbfbf" stroke="black" points="25,-0.5 25,-19.5 150,-19.5 150,-0.5 25,-0.5"/>
<text text-anchor="middle" x="87.5" y="-7.5" font-family="Helvetica,sans-Serif" font-size="10.00">mc::gfx::OpenGLContext</text>
</g>
<!-- Node2 -->
<g id="node2" class="node"><title>Node2</title>
<g id="a_node2"><a xlink:href="../../dd/d1b/a00015.html" target="_top" xlink:title="mc::os::GraphicsContext">
<polygon fill="white" stroke="black" points="25,-57.5 25,-76.5 150,-76.5 150,-57.5 25,-57.5"/>
<text text-anchor="middle" x="87.5" y="-64.5" font-family="Helvetica,sans-Serif" font-size="10.00">mc::os::GraphicsContext</text>
</a>
</g>
</g>
<!-- Node2&#45;&gt;Node1 -->
<g id="edge1" class="edge"><title>Node2&#45;&gt;Node1</title>
<path fill="none" stroke="midnightblue" d="M87.5,-47.1166C87.5,-37.8173 87.5,-27.0557 87.5,-19.7149"/>
<polygon fill="midnightblue" stroke="midnightblue" points="84.0001,-47.4062 87.5,-57.4063 91.0001,-47.4063 84.0001,-47.4062"/>
</g>
<!-- Node3 -->
<g id="node3" class="node"><title>Node3</title>
<g id="a_node3"><a xlink:href="../../da/d45/a00011.html" target="_top" xlink:title="Abstract superclass for all graphical objects. ">
<polygon fill="white" stroke="black" points="47.5,-114.5 47.5,-133.5 127.5,-133.5 127.5,-114.5 47.5,-114.5"/>
<text text-anchor="middle" x="87.5" y="-121.5" font-family="Helvetica,sans-Serif" font-size="10.00">mc::gfx::Entity</text>
</a>
</g>
</g>
<!-- Node3&#45;&gt;Node2 -->
<g id="edge2" class="edge"><title>Node3&#45;&gt;Node2</title>
<path fill="none" stroke="midnightblue" d="M87.5,-104.117C87.5,-94.8173 87.5,-84.0557 87.5,-76.7149"/>
<polygon fill="midnightblue" stroke="midnightblue" points="84.0001,-104.406 87.5,-114.406 91.0001,-104.406 84.0001,-104.406"/>
</g>
<!-- Node4 -->
<g id="node4" class="node"><title>Node4</title>
<g id="a_node4"><a xlink:href="../../d4/d8c/a00035.html" target="_top" xlink:title="Matrix&#45;based class that allows for the easy creation and management of transformation matrices...">
<polygon fill="white" stroke="black" points="34.5,-181.5 34.5,-200.5 140.5,-200.5 140.5,-181.5 34.5,-181.5"/>
<text text-anchor="middle" x="87.5" y="-188.5" font-family="Helvetica,sans-Serif" font-size="10.00">mc::TransformMatrix</text>
</a>
</g>
</g>
<!-- Node4&#45;&gt;Node3 -->
<g id="edge3" class="edge"><title>Node4&#45;&gt;Node3</title>
<path fill="none" stroke="#9a32cd" stroke-dasharray="5,2" d="M87.5,-171.037C87.5,-158.67 87.5,-143.12 87.5,-133.627"/>
<polygon fill="#9a32cd" stroke="#9a32cd" points="84.0001,-171.234 87.5,-181.234 91.0001,-171.234 84.0001,-171.234"/>
<text text-anchor="middle" x="120" y="-155" font-family="Helvetica,sans-Serif" font-size="10.00"> transformation</text>
</g>
<!-- Node5 -->
<g id="node5" class="node"><title>Node5</title>
<g id="a_node5"><a xlink:href="../../d1/dc6/a00037.html" target="_top" xlink:title="mc::Vector\&lt; float, 3 \&gt;">
<polygon fill="white" stroke="black" points="31.5,-270.5 31.5,-289.5 143.5,-289.5 143.5,-270.5 31.5,-270.5"/>
<text text-anchor="middle" x="87.5" y="-277.5" font-family="Helvetica,sans-Serif" font-size="10.00">mc::Vector&lt; float, 3 &gt;</text>
</a>
</g>
</g>
<!-- Node5&#45;&gt;Node4 -->
<g id="edge4" class="edge"><title>Node5&#45;&gt;Node4</title>
<path fill="none" stroke="#9a32cd" stroke-dasharray="5,2" d="M87.5,-260.195C87.5,-241.738 87.5,-214.412 87.5,-200.625"/>
<polygon fill="#9a32cd" stroke="#9a32cd" points="84.0001,-260.34 87.5,-270.34 91.0001,-260.34 84.0001,-260.34"/>
<text text-anchor="middle" x="110.5" y="-244" font-family="Helvetica,sans-Serif" font-size="10.00"> rotation</text>
<text text-anchor="middle" x="110.5" y="-233" font-family="Helvetica,sans-Serif" font-size="10.00">scaler</text>
<text text-anchor="middle" x="110.5" y="-222" font-family="Helvetica,sans-Serif" font-size="10.00">translation</text>
</g>
<!-- Node6 -->
<g id="node6" class="node"><title>Node6</title>
<polygon fill="white" stroke="#bfbfbf" points="0,-375.5 0,-394.5 107,-394.5 107,-375.5 0,-375.5"/>
<text text-anchor="middle" x="53.5" y="-382.5" font-family="Helvetica,sans-Serif" font-size="10.00">std::array&lt; float, N &gt;</text>
</g>
<!-- Node6&#45;&gt;Node5 -->
<g id="edge5" class="edge"><title>Node6&#45;&gt;Node5</title>
<path fill="none" stroke="#9a32cd" stroke-dasharray="5,2" d="M56.0641,-365.298C57.5166,-356.581 59.6274,-346.139 62.5,-337 67.9273,-319.733 77.171,-300.704 82.769,-289.867"/>
<polygon fill="#9a32cd" stroke="#9a32cd" points="52.6031,-364.778 54.5687,-375.189 59.5244,-365.824 52.6031,-364.778"/>
<text text-anchor="middle" x="80.5" y="-344.5" font-family="Helvetica,sans-Serif" font-size="10.00"> content</text>
</g>
<!-- Node7 -->
<g id="node7" class="node"><title>Node7</title>
<g id="a_node7"><a xlink:title="STL class. ">
<polygon fill="white" stroke="#bfbfbf" points="66,-480.5 66,-499.5 147,-499.5 147,-480.5 66,-480.5"/>
<text text-anchor="middle" x="106.5" y="-487.5" font-family="Helvetica,sans-Serif" font-size="10.00">std::array&lt; T &gt;</text>
</a>
</g>
</g>
<!-- Node7&#45;&gt;Node6 -->
<g id="edge6" class="edge"><title>Node7&#45;&gt;Node6</title>
<path fill="none" stroke="orange" stroke-dasharray="5,2" d="M78.874,-474.756C74.1128,-471.179 69.6808,-466.927 66.5,-462 52.8514,-440.857 52.2382,-409.78 52.8754,-394.763"/>
<polygon fill="orange" stroke="orange" points="77.3161,-477.919 87.6004,-480.465 81.1488,-472.061 77.3161,-477.919"/>
<text text-anchor="middle" x="92.5" y="-454" font-family="Helvetica,sans-Serif" font-size="10.00"> &lt; float, N &gt;</text>
</g>
<!-- Node10 -->
<g id="node10" class="node"><title>Node10</title>
<polygon fill="white" stroke="#bfbfbf" points="111.5,-413.5 111.5,-432.5 205.5,-432.5 205.5,-413.5 111.5,-413.5"/>
<text text-anchor="middle" x="158.5" y="-420.5" font-family="Helvetica,sans-Serif" font-size="10.00">std::array&lt; T, N &gt;</text>
</g>
<!-- Node7&#45;&gt;Node10 -->
<g id="edge11" class="edge"><title>Node7&#45;&gt;Node10</title>
<path fill="none" stroke="orange" stroke-dasharray="5,2" d="M115.755,-471.455C119.622,-464.777 124.401,-457.271 129.5,-451 134.968,-444.275 142.079,-437.629 147.891,-432.614"/>
<polygon fill="orange" stroke="orange" points="112.582,-469.962 110.813,-480.408 118.71,-473.345 112.582,-469.962"/>
<text text-anchor="middle" x="149.5" y="-454" font-family="Helvetica,sans-Serif" font-size="10.00"> &lt; T, N &gt;</text>
</g>
<!-- Node8 -->
<g id="node8" class="node"><title>Node8</title>
<polygon fill="white" stroke="#bfbfbf" points="135,-547.5 135,-566.5 164,-566.5 164,-547.5 135,-547.5"/>
<text text-anchor="middle" x="149.5" y="-554.5" font-family="Helvetica,sans-Serif" font-size="10.00">T</text>
</g>
<!-- Node8&#45;&gt;Node7 -->
<g id="edge7" class="edge"><title>Node8&#45;&gt;Node7</title>
<path fill="none" stroke="#9a32cd" stroke-dasharray="5,2" d="M134.545,-539.605C131.731,-536.206 128.916,-532.57 126.5,-529 120.065,-519.492 114.134,-507.672 110.43,-499.762"/>
<polygon fill="#9a32cd" stroke="#9a32cd" points="132.113,-542.142 141.313,-547.395 137.397,-537.551 132.113,-542.142"/>
<text text-anchor="middle" x="148" y="-521" font-family="Helvetica,sans-Serif" font-size="10.00"> elements</text>
</g>
<!-- Node8&#45;&gt;Node10 -->
<g id="edge10" class="edge"><title>Node8&#45;&gt;Node10</title>
<path fill="none" stroke="#9a32cd" stroke-dasharray="5,2" d="M164.407,-539.192C166.498,-535.999 168.331,-532.542 169.5,-529 180.365,-496.08 176.164,-485.02 169.5,-451 168.255,-444.642 165.505,-437.892 163.066,-432.732"/>
<polygon fill="#9a32cd" stroke="#9a32cd" points="161.463,-537.279 158.16,-547.346 167.02,-541.536 161.463,-537.279"/>
<text text-anchor="middle" x="198" y="-487.5" font-family="Helvetica,sans-Serif" font-size="10.00"> elements</text>
</g>
<!-- Node9 -->
<g id="node9" class="node"><title>Node9</title>
<g id="a_node9"><a xlink:href="../../d1/dc6/a00037.html" target="_top" xlink:title="1&#45;dimensional vector class that supports mathmatical operations. ">
<polygon fill="white" stroke="black" points="108,-337.5 108,-356.5 209,-356.5 209,-337.5 108,-337.5"/>
<text text-anchor="middle" x="158.5" y="-344.5" font-family="Helvetica,sans-Serif" font-size="10.00">mc::Vector&lt; T, N &gt;</text>
</a>
</g>
</g>
<!-- Node9&#45;&gt;Node5 -->
<g id="edge8" class="edge"><title>Node9&#45;&gt;Node5</title>
<path fill="none" stroke="orange" stroke-dasharray="5,2" d="M141.412,-330.356C127.454,-317.578 108.245,-299.992 96.9237,-289.627"/>
<polygon fill="orange" stroke="orange" points="139.185,-333.063 148.925,-337.234 143.912,-327.9 139.185,-333.063"/>
<text text-anchor="middle" x="153" y="-311" font-family="Helvetica,sans-Serif" font-size="10.00"> &lt; float, 3 &gt;</text>
</g>
<!-- Node10&#45;&gt;Node9 -->
<g id="edge9" class="edge"><title>Node10&#45;&gt;Node9</title>
<path fill="none" stroke="#9a32cd" stroke-dasharray="5,2" d="M158.5,-403.072C158.5,-388.18 158.5,-368.111 158.5,-356.768"/>
<polygon fill="#9a32cd" stroke="#9a32cd" points="155,-403.221 158.5,-413.221 162,-403.221 155,-403.221"/>
<text text-anchor="middle" x="176.5" y="-382.5" font-family="Helvetica,sans-Serif" font-size="10.00"> content</text>
</g>
</g>
</svg>
        <g id="navigator" transform="translate(0 0)" fill="#404254">
                <rect fill="#f2f5e9" fill-opacity="0.5" stroke="#606060" stroke-width=".5" x="0" y="0" width="60" height="60"/>
                <use id="zoomplus" xlink:href="#zoomPlus" x="17" y="9" onmousedown="handleZoom(evt,'in')"/>
                <use id="zoomminus" xlink:href="#zoomMin" x="42" y="9" onmousedown="handleZoom(evt,'out')"/>
                <use id="reset" xlink:href="#resetDef" x="30" y="36" onmousedown="handleReset()"/>
                <g id="arrowUp" xlink:href="#dirArrow" transform="translate(30 24)" onmousedown="handlePan(0,-1)">
                  <use xlink:href="#rim" fill="#404040">
                        <set attributeName="fill" to="#808080" begin="arrowUp.mouseover" end="arrowUp.mouseout"/>
                  </use>
                  <path fill="none" stroke="white" stroke-width="1.5" d="M0,-3.0v7 M-2.5,-0.5L0,-3.0L2.5,-0.5"/>
                </g>
                <g id="arrowRight" xlink:href="#dirArrow" transform="rotate(90) translate(36 -43)" onmousedown="handlePan(1,0)">
                  <use xlink:href="#rim" fill="#404040">
                        <set attributeName="fill" to="#808080" begin="arrowRight.mouseover" end="arrowRight.mouseout"/>
                  </use>
                  <path fill="none" stroke="white" stroke-width="1.5" d="M0,-3.0v7 M-2.5,-0.5L0,-3.0L2.5,-0.5"/>
                </g>
                <g id="arrowDown" xlink:href="#dirArrow" transform="rotate(180) translate(-30 -48)" onmousedown="handlePan(0,1)">
                  <use xlink:href="#rim" fill="#404040">
                        <set attributeName="fill" to="#808080" begin="arrowDown.mouseover" end="arrowDown.mouseout"/>
                  </use>
                  <path fill="none" stroke="white" stroke-width="1.5" d="M0,-3.0v7 M-2.5,-0.5L0,-3.0L2.5,-0.5"/>
                </g>
                <g id="arrowLeft" xlink:href="#dirArrow" transform="rotate(270) translate(-36 17)" onmousedown="handlePan(-1,0)">
                  <use xlink:href="#rim" fill="#404040">
                        <set attributeName="fill" to="#808080" begin="arrowLeft.mouseover" end="arrowLeft.mouseout"/>
                  </use>
                  <path fill="none" stroke="white" stroke-width="1.5" d="M0,-3.0v7 M-2.5,-0.5L0,-3.0L2.5,-0.5"/>
                </g>
        </g>
        <svg viewBox="0 0 15 15" width="100%" height="30px" preserveAspectRatio="xMaxYMin meet">
         <g id="arrow_out" transform="scale(0.3 0.3)">
          <a xlink:href="a00143_org.svg" target="_base">
           <rect id="button" ry="5" rx="5" y="6" x="6" height="38" width="38"
                fill="#f2f5e9" fill-opacity="0.5" stroke="#606060" stroke-width="1.0"/>
           <path id="arrow"
             d="M 11.500037,31.436501 C 11.940474,20.09759 22.043105,11.32322 32.158766,21.979434 L 37.068811,17.246167 C 37.068811,17.246167 37.088388,32 37.088388,32 L 22.160133,31.978069 C 22.160133,31.978069 26.997745,27.140456 26.997745,27.140456 C 18.528582,18.264221 13.291696,25.230495 11.500037,31.436501 z"
             style="fill:#404040;"/>
          </a>
         </g>
        </svg>
</svg>
