<?xml version="1.0" encoding="UTF-8" standalone="no"?>
<!DOCTYPE svg PUBLIC "-//W3C//DTD SVG 1.1//EN"
 "http://www.w3.org/Graphics/SVG/1.1/DTD/svg11.dtd">
<!-- Generated by graphviz version 2.38.0 (20140413.2041)
 -->
<!-- Title: mc::gfx::Button Pages: 1 -->
<svg width="1915pt" height="165pt"
 viewBox="0.00 0.00 1915.00 165.00" xmlns="http://www.w3.org/2000/svg" xmlns:xlink="http://www.w3.org/1999/xlink">
<g id="graph0" class="graph" transform="scale(1 1) rotate(0) translate(4 161)">
<title>mc::gfx::Button</title>
<polygon fill="white" stroke="none" points="-4,4 -4,-161 1911,-161 1911,4 -4,4"/>
<!-- Node1 -->
<g id="node1" class="node"><title>Node1</title>
<polygon fill="#bfbfbf" stroke="black" points="1824,-77.5 1824,-96.5 1907,-96.5 1907,-77.5 1824,-77.5"/>
<text text-anchor="middle" x="1865.5" y="-84.5" font-family="Helvetica,sans-Serif" font-size="10.00">mc::gfx::Button</text>
</g>
<!-- Node2 -->
<g id="node2" class="node"><title>Node2</title>
<g id="a_node2"><a xlink:href="../../d1/dea/a00054.html" target="_top" xlink:title="mc::gfx::Selectable">
<polygon fill="white" stroke="black" points="1686,-106.5 1686,-125.5 1787,-125.5 1787,-106.5 1686,-106.5"/>
<text text-anchor="middle" x="1736.5" y="-113.5" font-family="Helvetica,sans-Serif" font-size="10.00">mc::gfx::Selectable</text>
</a>
</g>
</g>
<!-- Node2&#45;&gt;Node1 -->
<g id="edge1" class="edge"><title>Node2&#45;&gt;Node1</title>
<path fill="none" stroke="midnightblue" d="M1789.38,-104.154C1800.88,-101.526 1812.92,-98.7778 1823.9,-96.2702"/>
<polygon fill="midnightblue" stroke="midnightblue" points="1788.41,-100.786 1779.44,-106.424 1789.96,-107.61 1788.41,-100.786"/>
</g>
<!-- Node3 -->
<g id="node3" class="node"><title>Node3</title>
<g id="a_node3"><a xlink:href="../../de/d5e/a00007.html" target="_top" xlink:title="Wrapper class for a primitive type that allows for easy bit manipulation. ">
<polygon fill="white" stroke="black" points="1458,-137.5 1458,-156.5 1527,-156.5 1527,-137.5 1458,-137.5"/>
<text text-anchor="middle" x="1492.5" y="-144.5" font-family="Helvetica,sans-Serif" font-size="10.00">mc::BitField</text>
</a>
</g>
</g>
<!-- Node3&#45;&gt;Node2 -->
<g id="edge2" class="edge"><title>Node3&#45;&gt;Node2</title>
<path fill="none" stroke="#9a32cd" stroke-dasharray="5,2" d="M1537.3,-141.389C1579.13,-136.031 1642.08,-127.967 1685.77,-122.37"/>
<polygon fill="#9a32cd" stroke="#9a32cd" points="1536.62,-137.947 1527.15,-142.69 1537.51,-144.891 1536.62,-137.947"/>
<text text-anchor="middle" x="1622" y="-140" font-family="Helvetica,sans-Serif" font-size="10.00"> selectableProperties</text>
</g>
<!-- Node4 -->
<g id="node4" class="node"><title>Node4</title>
<g id="a_node4"><a xlink:href="../../db/db2/a00020.html" target="_top" xlink:title="mc::gfx::Entity2D">
<polygon fill="white" stroke="black" points="1690.5,-38.5 1690.5,-57.5 1782.5,-57.5 1782.5,-38.5 1690.5,-38.5"/>
<text text-anchor="middle" x="1736.5" y="-45.5" font-family="Helvetica,sans-Serif" font-size="10.00">mc::gfx::Entity2D</text>
</a>
</g>
</g>
<!-- Node4&#45;&gt;Node1 -->
<g id="edge3" class="edge"><title>Node4&#45;&gt;Node1</title>
<path fill="none" stroke="midnightblue" d="M1778.17,-60.4879C1796.04,-65.9754 1816.69,-72.3177 1833.31,-77.4229"/>
<polygon fill="midnightblue" stroke="midnightblue" points="1779.15,-57.1303 1768.57,-57.5405 1777.1,-63.8219 1779.15,-57.1303"/>
</g>
<!-- Node5 -->
<g id="node5" class="node"><title>Node5</title>
<g id="a_node5"><a xlink:href="../../d3/dfe/a00025.html" target="_top" xlink:title="mc::gfx::GraphicsEntity">
<polygon fill="white" stroke="black" points="1433,-38.5 1433,-57.5 1552,-57.5 1552,-38.5 1433,-38.5"/>
<text text-anchor="middle" x="1492.5" y="-45.5" font-family="Helvetica,sans-Serif" font-size="10.00">mc::gfx::GraphicsEntity</text>
</a>
</g>
</g>
<!-- Node5&#45;&gt;Node4 -->
<g id="edge4" class="edge"><title>Node5&#45;&gt;Node4</title>
<path fill="none" stroke="midnightblue" d="M1562.29,-48C1603.36,-48 1654.35,-48 1690.34,-48"/>
<polygon fill="midnightblue" stroke="midnightblue" points="1562.08,-44.5001 1552.08,-48 1562.08,-51.5001 1562.08,-44.5001"/>
</g>
<!-- Node6 -->
<g id="node6" class="node"><title>Node6</title>
<g id="a_node6"><a xlink:href="../../dd/da2/a00019.html" target="_top" xlink:title="Abstract superclass for all graphical objects. ">
<polygon fill="white" stroke="black" points="1259,-68.5 1259,-87.5 1339,-87.5 1339,-68.5 1259,-68.5"/>
<text text-anchor="middle" x="1299" y="-75.5" font-family="Helvetica,sans-Serif" font-size="10.00">mc::gfx::Entity</text>
</a>
</g>
</g>
<!-- Node6&#45;&gt;Node5 -->
<g id="edge5" class="edge"><title>Node6&#45;&gt;Node5</title>
<path fill="none" stroke="midnightblue" d="M1349.38,-70.2649C1374.82,-66.2794 1406.02,-61.3917 1432.7,-57.2122"/>
<polygon fill="midnightblue" stroke="midnightblue" points="1348.55,-66.851 1339.21,-71.8567 1349.64,-73.7667 1348.55,-66.851"/>
</g>
<!-- Node8 -->
<g id="node8" class="node"><title>Node8</title>
<polygon fill="white" stroke="#bfbfbf" points="1441,-88 1441,-118 1544,-118 1544,-88 1441,-88"/>
<text text-anchor="start" x="1449" y="-106" font-family="Helvetica,sans-Serif" font-size="10.00">std::vector&lt; mc::gfx</text>
<text text-anchor="middle" x="1492.5" y="-95" font-family="Helvetica,sans-Serif" font-size="10.00">::Entity * &gt;</text>
</g>
<!-- Node6&#45;&gt;Node8 -->
<g id="edge8" class="edge"><title>Node6&#45;&gt;Node8</title>
<path fill="none" stroke="#9a32cd" stroke-dasharray="5,2" d="M1349.13,-87.361C1354.81,-88.3157 1360.52,-89.2196 1366,-90 1390.5,-93.4917 1417.83,-96.4338 1440.71,-98.6311"/>
<polygon fill="#9a32cd" stroke="#9a32cd" points="1349.46,-83.866 1339.01,-85.6033 1348.26,-90.7628 1349.46,-83.866"/>
<text text-anchor="middle" x="1387.5" y="-99" font-family="Helvetica,sans-Serif" font-size="10.00"> elements</text>
</g>
<!-- Node7 -->
<g id="node7" class="node"><title>Node7</title>
<g id="a_node7"><a xlink:href="../../df/d61/a00031.html" target="_top" xlink:title="mc::Initializable">
<polygon fill="white" stroke="black" points="863,-23.5 863,-42.5 947,-42.5 947,-23.5 863,-23.5"/>
<text text-anchor="middle" x="905" y="-30.5" font-family="Helvetica,sans-Serif" font-size="10.00">mc::Initializable</text>
</a>
</g>
</g>
<!-- Node7&#45;&gt;Node6 -->
<g id="edge6" class="edge"><title>Node7&#45;&gt;Node6</title>
<path fill="none" stroke="midnightblue" d="M957.462,-38.9076C1036.87,-48.0239 1187.55,-65.3209 1258.8,-73.4997"/>
<polygon fill="midnightblue" stroke="midnightblue" points="957.544,-35.3941 947.21,-37.7307 956.746,-42.3485 957.544,-35.3941"/>
</g>
<!-- Node19 -->
<g id="node19" class="node"><title>Node19</title>
<g id="a_node19"><a xlink:href="../../d8/d41/a00038.html" target="_top" xlink:title="Represents a OpenGL object in memory. ">
<polygon fill="white" stroke="black" points="1045,-0.5 1045,-19.5 1147,-19.5 1147,-0.5 1045,-0.5"/>
<text text-anchor="middle" x="1096" y="-7.5" font-family="Helvetica,sans-Serif" font-size="10.00">mc::gfx::ogl::Object</text>
</a>
</g>
</g>
<!-- Node7&#45;&gt;Node19 -->
<g id="edge23" class="edge"><title>Node7&#45;&gt;Node19</title>
<path fill="none" stroke="midnightblue" d="M957.141,-26.7765C984.43,-23.4556 1017.88,-19.3853 1044.99,-16.0855"/>
<polygon fill="midnightblue" stroke="midnightblue" points="956.514,-23.3269 947.01,-28.0093 957.36,-30.2756 956.514,-23.3269"/>
</g>
<!-- Node8&#45;&gt;Node6 -->
<g id="edge7" class="edge"><title>Node8&#45;&gt;Node6</title>
<path fill="none" stroke="#9a32cd" stroke-dasharray="5,2" d="M1438.08,-85.1631C1428.5,-82.6244 1418.53,-80.4025 1409,-79 1385.97,-75.6105 1359.91,-75.2473 1339.04,-75.7847"/>
<polygon fill="#9a32cd" stroke="#9a32cd" points="1437.32,-88.5843 1447.89,-87.9022 1439.2,-81.8421 1437.32,-88.5843"/>
<text text-anchor="middle" x="1387.5" y="-82" font-family="Helvetica,sans-Serif" font-size="10.00"> children</text>
</g>
<!-- Node9 -->
<g id="node9" class="node"><title>Node9</title>
<g id="a_node9"><a xlink:title="STL class. ">
<polygon fill="white" stroke="#bfbfbf" points="259.5,-127.5 259.5,-146.5 344.5,-146.5 344.5,-127.5 259.5,-127.5"/>
<text text-anchor="middle" x="302" y="-134.5" font-family="Helvetica,sans-Serif" font-size="10.00">std::vector&lt; T &gt;</text>
</a>
</g>
</g>
<!-- Node9&#45;&gt;Node8 -->
<g id="edge9" class="edge"><title>Node9&#45;&gt;Node8</title>
<path fill="none" stroke="orange" stroke-dasharray="5,2" d="M354.985,-137.3C410.559,-137.595 501.256,-138 579.5,-138 579.5,-138 579.5,-138 1300,-138 1348.33,-138 1402.42,-127.079 1440.75,-117.438"/>
<polygon fill="orange" stroke="orange" points="354.709,-133.799 344.69,-137.245 354.671,-140.799 354.709,-133.799"/>
<text text-anchor="middle" x="905" y="-141" font-family="Helvetica,sans-Serif" font-size="10.00"> &lt; mc::gfx::Entity * &gt;</text>
</g>
<!-- Node10 -->
<g id="node10" class="node"><title>Node10</title>
<polygon fill="white" stroke="#bfbfbf" points="0,-75.5 0,-94.5 29,-94.5 29,-75.5 0,-75.5"/>
<text text-anchor="middle" x="14.5" y="-82.5" font-family="Helvetica,sans-Serif" font-size="10.00">T</text>
</g>
<!-- Node10&#45;&gt;Node9 -->
<g id="edge10" class="edge"><title>Node10&#45;&gt;Node9</title>
<path fill="none" stroke="#9a32cd" stroke-dasharray="5,2" d="M38.4538,-96.8848C41.2838,-98.0639 44.1751,-99.1402 47,-100 119.687,-122.123 208.221,-131.19 259.251,-134.778"/>
<polygon fill="#9a32cd" stroke="#9a32cd" points="39.8009,-93.6519 29.2541,-92.6448 36.8709,-100.009 39.8009,-93.6519"/>
<text text-anchor="middle" x="68.5" y="-114" font-family="Helvetica,sans-Serif" font-size="10.00"> elements</text>
</g>
<!-- Node14 -->
<g id="node14" class="node"><title>Node14</title>
<g id="a_node14"><a xlink:href="../../d1/d1e/a00087.html" target="_top" xlink:title="1&#45;dimensional vector class that supports mathmatical operations. ">
<polygon fill="white" stroke="black" points="108,-70 108,-100 229,-100 229,-70 108,-70"/>
<text text-anchor="start" x="116" y="-88" font-family="Helvetica,sans-Serif" font-size="10.00">mc::VectorBase&lt; Child,</text>
<text text-anchor="middle" x="168.5" y="-77" font-family="Helvetica,sans-Serif" font-size="10.00"> T, N &gt;</text>
</a>
</g>
</g>
<!-- Node10&#45;&gt;Node14 -->
<g id="edge15" class="edge"><title>Node10&#45;&gt;Node14</title>
<path fill="none" stroke="#9a32cd" stroke-dasharray="5,2" d="M39.3312,-85C57.6867,-85 83.8886,-85 107.824,-85"/>
<polygon fill="#9a32cd" stroke="#9a32cd" points="39.2571,-81.5001 29.2571,-85 39.257,-88.5001 39.2571,-81.5001"/>
<text text-anchor="middle" x="68.5" y="-88" font-family="Helvetica,sans-Serif" font-size="10.00"> content</text>
</g>
<!-- Node16 -->
<g id="node16" class="node"><title>Node16</title>
<g id="a_node16"><a xlink:href="../../d1/d1e/a00087.html" target="_top" xlink:title="mc::VectorBase\&lt; Vector\l\&lt; T, N \&gt;, T, N \&gt;">
<polygon fill="white" stroke="black" points="375,-41 375,-71 500,-71 500,-41 375,-41"/>
<text text-anchor="start" x="383" y="-59" font-family="Helvetica,sans-Serif" font-size="10.00">mc::VectorBase&lt; Vector</text>
<text text-anchor="middle" x="437.5" y="-48" font-family="Helvetica,sans-Serif" font-size="10.00">&lt; T, N &gt;, T, N &gt;</text>
</a>
</g>
</g>
<!-- Node10&#45;&gt;Node16 -->
<g id="edge18" class="edge"><title>Node10&#45;&gt;Node16</title>
<path fill="none" stroke="#9a32cd" stroke-dasharray="5,2" d="M38.1203,-73.4575C56.4288,-64.7964 83.1635,-53.6627 108,-49 199.666,-31.791 308.239,-39.4191 374.732,-47.1784"/>
<polygon fill="#9a32cd" stroke="#9a32cd" points="36.5849,-70.3122 29.1253,-77.8358 39.6485,-76.6062 36.5849,-70.3122"/>
<text text-anchor="middle" x="168.5" y="-52" font-family="Helvetica,sans-Serif" font-size="10.00"> content</text>
</g>
<!-- Node11 -->
<g id="node11" class="node"><title>Node11</title>
<g id="a_node11"><a xlink:href="../../d1/d09/a00077.html" target="_top" xlink:title="Matrix&#45;based class that allows for the easy creation and management of transformation matrices...">
<polygon fill="white" stroke="black" points="1043,-76.5 1043,-95.5 1149,-95.5 1149,-76.5 1043,-76.5"/>
<text text-anchor="middle" x="1096" y="-83.5" font-family="Helvetica,sans-Serif" font-size="10.00">mc::TransformMatrix</text>
</a>
</g>
</g>
<!-- Node11&#45;&gt;Node6 -->
<g id="edge11" class="edge"><title>Node11&#45;&gt;Node6</title>
<path fill="none" stroke="#9a32cd" stroke-dasharray="5,2" d="M1159.34,-83.5188C1191.85,-82.2247 1230.63,-80.6816 1258.89,-79.5565"/>
<polygon fill="#9a32cd" stroke="#9a32cd" points="1158.88,-80.0344 1149.02,-83.9294 1159.16,-87.0288 1158.88,-80.0344"/>
<text text-anchor="middle" x="1199.5" y="-87" font-family="Helvetica,sans-Serif" font-size="10.00"> transformation</text>
</g>
<!-- Node12 -->
<g id="node12" class="node"><title>Node12</title>
<g id="a_node12"><a xlink:href="../../d1/d51/a00079.html" target="_top" xlink:title="mc::Vector\&lt; float, 3 \&gt;">
<polygon fill="white" stroke="black" points="849,-76.5 849,-95.5 961,-95.5 961,-76.5 849,-76.5"/>
<text text-anchor="middle" x="905" y="-83.5" font-family="Helvetica,sans-Serif" font-size="10.00">mc::Vector&lt; float, 3 &gt;</text>
</a>
</g>
</g>
<!-- Node12&#45;&gt;Node11 -->
<g id="edge12" class="edge"><title>Node12&#45;&gt;Node11</title>
<path fill="none" stroke="#9a32cd" stroke-dasharray="5,2" d="M971.333,-86C994.652,-86 1020.6,-86 1042.68,-86"/>
<polygon fill="#9a32cd" stroke="#9a32cd" points="971.175,-82.5001 961.175,-86 971.175,-89.5001 971.175,-82.5001"/>
<text text-anchor="middle" x="1002" y="-111" font-family="Helvetica,sans-Serif" font-size="10.00"> rotation</text>
<text text-anchor="middle" x="1002" y="-100" font-family="Helvetica,sans-Serif" font-size="10.00">scaler</text>
<text text-anchor="middle" x="1002" y="-89" font-family="Helvetica,sans-Serif" font-size="10.00">translation</text>
</g>
<!-- Node13 -->
<g id="node13" class="node"><title>Node13</title>
<g id="a_node13"><a xlink:href="../../d1/d1e/a00087.html" target="_top" xlink:title="mc::VectorBase\&lt; Vector\l\&lt; float, N \&gt;, float, N \&gt;">
<polygon fill="white" stroke="black" points="518,-82 518,-112 643,-112 643,-82 518,-82"/>
<text text-anchor="start" x="526" y="-100" font-family="Helvetica,sans-Serif" font-size="10.00">mc::VectorBase&lt; Vector</text>
<text text-anchor="middle" x="580.5" y="-89" font-family="Helvetica,sans-Serif" font-size="10.00">&lt; float, N &gt;, float, N &gt;</text>
</a>
</g>
</g>
<!-- Node13&#45;&gt;Node12 -->
<g id="edge13" class="edge"><title>Node13&#45;&gt;Node12</title>
<path fill="none" stroke="midnightblue" d="M653.307,-94.5508C712.383,-92.5358 794.886,-89.7217 848.862,-87.8807"/>
<polygon fill="midnightblue" stroke="midnightblue" points="653.175,-91.0532 643.3,-94.8921 653.413,-98.0491 653.175,-91.0532"/>
</g>
<!-- Node14&#45;&gt;Node13 -->
<g id="edge14" class="edge"><title>Node14&#45;&gt;Node13</title>
<path fill="none" stroke="orange" stroke-dasharray="5,2" d="M239.356,-87.0446C317.558,-89.3334 443.083,-93.0073 517.798,-95.1941"/>
<polygon fill="orange" stroke="orange" points="239.216,-83.5391 229.118,-86.7449 239.011,-90.5361 239.216,-83.5391"/>
<text text-anchor="start" x="261.5" y="-105" font-family="Helvetica,sans-Serif" font-size="10.00"> &lt; Vector&lt; float, N</text>
<text text-anchor="middle" x="302" y="-94" font-family="Helvetica,sans-Serif" font-size="10.00"> &gt;, float, N &gt;</text>
</g>
<!-- Node14&#45;&gt;Node16 -->
<g id="edge19" class="edge"><title>Node14&#45;&gt;Node16</title>
<path fill="none" stroke="orange" stroke-dasharray="5,2" d="M239.366,-68.2005C241.937,-67.7647 244.488,-67.362 247,-67 289.403,-60.8905 337.608,-58.1493 374.787,-56.931"/>
<polygon fill="orange" stroke="orange" points="238.594,-64.7836 229.389,-70.0289 239.856,-71.6689 238.594,-64.7836"/>
<text text-anchor="middle" x="302" y="-70" font-family="Helvetica,sans-Serif" font-size="10.00"> &lt; Vector&lt; T, N &gt;, T, N &gt;</text>
</g>
<!-- Node15 -->
<g id="node15" class="node"><title>Node15</title>
<g id="a_node15"><a xlink:href="../../d1/d51/a00079.html" target="_top" xlink:title="mc::Vector\&lt; T, N \&gt;">
<polygon fill="white" stroke="black" points="661,-47.5 661,-66.5 762,-66.5 762,-47.5 661,-47.5"/>
<text text-anchor="middle" x="711.5" y="-54.5" font-family="Helvetica,sans-Serif" font-size="10.00">mc::Vector&lt; T, N &gt;</text>
</a>
</g>
</g>
<!-- Node15&#45;&gt;Node12 -->
<g id="edge16" class="edge"><title>Node15&#45;&gt;Node12</title>
<path fill="none" stroke="orange" stroke-dasharray="5,2" d="M772.167,-63.0465C791.033,-65.2266 811.931,-67.9202 831,-71 840.58,-72.5472 850.812,-74.4753 860.492,-76.4283"/>
<polygon fill="orange" stroke="orange" points="772.545,-59.5669 762.215,-61.9215 771.758,-66.5226 772.545,-59.5669"/>
<text text-anchor="middle" x="805.5" y="-74" font-family="Helvetica,sans-Serif" font-size="10.00"> &lt; float, 3 &gt;</text>
</g>
<!-- Node16&#45;&gt;Node15 -->
<g id="edge17" class="edge"><title>Node16&#45;&gt;Node15</title>
<path fill="none" stroke="midnightblue" d="M510.429,-56.2644C557.847,-56.4388 618.736,-56.6626 660.824,-56.8174"/>
<polygon fill="midnightblue" stroke="midnightblue" points="510.234,-52.7638 500.221,-56.2269 510.208,-59.7638 510.234,-52.7638"/>
</g>
<!-- Node17 -->
<g id="node17" class="node"><title>Node17</title>
<g id="a_node17"><a xlink:href="../../d9/da4/a00078.html" target="_top" xlink:title="Stores uniform data for a shader in the form of a sslBuffer. ">
<polygon fill="white" stroke="black" points="1427,-0.5 1427,-19.5 1558,-19.5 1558,-0.5 1427,-0.5"/>
<text text-anchor="middle" x="1492.5" y="-7.5" font-family="Helvetica,sans-Serif" font-size="10.00">mc::gfx::ogl::UniformBuffer</text>
</a>
</g>
</g>
<!-- Node17&#45;&gt;Node4 -->
<g id="edge20" class="edge"><title>Node17&#45;&gt;Node4</title>
<path fill="none" stroke="#9a32cd" stroke-dasharray="5,2" d="M1568.61,-18.4367C1599.49,-22.2854 1635.56,-27.2687 1668,-33 1676.87,-34.5663 1686.33,-36.5023 1695.28,-38.457"/>
<polygon fill="#9a32cd" stroke="#9a32cd" points="1568.7,-14.9215 1558.35,-17.1756 1567.84,-21.8693 1568.7,-14.9215"/>
<text text-anchor="middle" x="1622" y="-36" font-family="Helvetica,sans-Serif" font-size="10.00"> buffer</text>
</g>
<!-- Node18 -->
<g id="node18" class="node"><title>Node18</title>
<g id="a_node18"><a xlink:href="../../d4/dee/a00008.html" target="_top" xlink:title="Represents a sslBuffer of memory in the GPU. ">
<polygon fill="white" stroke="black" points="1250,-0.5 1250,-19.5 1348,-19.5 1348,-0.5 1250,-0.5"/>
<text text-anchor="middle" x="1299" y="-7.5" font-family="Helvetica,sans-Serif" font-size="10.00">mc::gfx::ogl::Buffer</text>
</a>
</g>
</g>
<!-- Node18&#45;&gt;Node17 -->
<g id="edge21" class="edge"><title>Node18&#45;&gt;Node17</title>
<path fill="none" stroke="midnightblue" d="M1358.37,-10C1380.03,-10 1404.72,-10 1426.91,-10"/>
<polygon fill="midnightblue" stroke="midnightblue" points="1358.32,-6.5001 1348.32,-10 1358.32,-13.5001 1358.32,-6.5001"/>
</g>
<!-- Node19&#45;&gt;Node18 -->
<g id="edge22" class="edge"><title>Node19&#45;&gt;Node18</title>
<path fill="none" stroke="midnightblue" d="M1157.41,-10C1186.98,-10 1222.09,-10 1249.82,-10"/>
<polygon fill="midnightblue" stroke="midnightblue" points="1157.2,-6.5001 1147.2,-10 1157.2,-13.5001 1157.2,-6.5001"/>
</g>
</g>
</svg>
