<?xml version="1.0" encoding="UTF-8" standalone="no"?>
<!DOCTYPE svg PUBLIC "-//W3C//DTD SVG 1.1//EN"
 "http://www.w3.org/Graphics/SVG/1.1/DTD/svg11.dtd">
<!-- Generated by graphviz version 2.38.0 (20140413.2041)
 -->
<!-- Title: mc::gfx::Renderer Pages: 1 -->
<svg width="335pt" height="240pt"
 viewBox="0.00 0.00 334.50 240.00" xmlns="http://www.w3.org/2000/svg" xmlns:xlink="http://www.w3.org/1999/xlink">
<g id="graph0" class="graph" transform="scale(1 1) rotate(0) translate(4 236)">
<title>mc::gfx::Renderer</title>
<polygon fill="white" stroke="none" points="-4,4 -4,-236 330.5,-236 330.5,4 -4,4"/>
<!-- Node1 -->
<g id="node1" class="node"><title>Node1</title>
<polygon fill="#bfbfbf" stroke="black" points="139,-0.5 139,-19.5 233,-19.5 233,-0.5 139,-0.5"/>
<text text-anchor="middle" x="186" y="-7.5" font-family="Helvetica,sans-Serif" font-size="10.00">mc::gfx::Renderer</text>
</g>
<!-- Node2 -->
<g id="node2" class="node"><title>Node2</title>
<polygon fill="white" stroke="#bfbfbf" points="86.5,-67.5 86.5,-97.5 189.5,-97.5 189.5,-67.5 86.5,-67.5"/>
<text text-anchor="start" x="94.5" y="-85.5" font-family="Helvetica,sans-Serif" font-size="10.00">std::vector&lt; mc::gfx</text>
<text text-anchor="middle" x="138" y="-74.5" font-family="Helvetica,sans-Serif" font-size="10.00">::RenderImpl * &gt;</text>
</g>
<!-- Node2&#45;&gt;Node1 -->
<g id="edge1" class="edge"><title>Node2&#45;&gt;Node1</title>
<path fill="none" stroke="#9a32cd" stroke-dasharray="5,2" d="M153.574,-58.6259C162.562,-45.4241 173.357,-29.5696 179.945,-19.8932"/>
<polygon fill="#9a32cd" stroke="#9a32cd" points="150.448,-56.9975 147.714,-67.2333 156.235,-60.937 150.448,-56.9975"/>
<text text-anchor="middle" x="188.5" y="-41" font-family="Helvetica,sans-Serif" font-size="10.00"> protocols</text>
</g>
<!-- Node3 -->
<g id="node3" class="node"><title>Node3</title>
<g id="a_node3"><a xlink:href="../../d6/d97/a00045.html" target="_top" xlink:title="mc::gfx::RenderImpl">
<polygon fill="white" stroke="black" points="0,-145.5 0,-164.5 104,-164.5 104,-145.5 0,-145.5"/>
<text text-anchor="middle" x="52" y="-152.5" font-family="Helvetica,sans-Serif" font-size="10.00">mc::gfx::RenderImpl</text>
</a>
</g>
</g>
<!-- Node3&#45;&gt;Node2 -->
<g id="edge2" class="edge"><title>Node3&#45;&gt;Node2</title>
<path fill="none" stroke="#9a32cd" stroke-dasharray="5,2" d="M70.5608,-138.784C85.4843,-126.551 106.287,-109.497 120.829,-97.5762"/>
<polygon fill="#9a32cd" stroke="#9a32cd" points="68.06,-136.309 62.5453,-145.355 72.4978,-141.722 68.06,-136.309"/>
<text text-anchor="middle" x="119.5" y="-119" font-family="Helvetica,sans-Serif" font-size="10.00"> elements</text>
</g>
<!-- Node4 -->
<g id="node4" class="node"><title>Node4</title>
<g id="a_node4"><a xlink:title="STL class. ">
<polygon fill="white" stroke="#bfbfbf" points="122.5,-145.5 122.5,-164.5 207.5,-164.5 207.5,-145.5 122.5,-145.5"/>
<text text-anchor="middle" x="165" y="-152.5" font-family="Helvetica,sans-Serif" font-size="10.00">std::vector&lt; T &gt;</text>
</a>
</g>
</g>
<!-- Node4&#45;&gt;Node2 -->
<g id="edge3" class="edge"><title>Node4&#45;&gt;Node2</title>
<path fill="none" stroke="orange" stroke-dasharray="5,2" d="M157.459,-135.734C156.284,-132.819 155.097,-129.832 154,-127 150.22,-117.246 146.154,-106.181 143.066,-97.6515"/>
<polygon fill="orange" stroke="orange" points="154.235,-137.096 161.256,-145.031 160.715,-134.45 154.235,-137.096"/>
<text text-anchor="middle" x="211.5" y="-119" font-family="Helvetica,sans-Serif" font-size="10.00"> &lt; mc::gfx::RenderImpl * &gt;</text>
</g>
<!-- Node5 -->
<g id="node5" class="node"><title>Node5</title>
<polygon fill="white" stroke="#bfbfbf" points="210.5,-212.5 210.5,-231.5 239.5,-231.5 239.5,-212.5 210.5,-212.5"/>
<text text-anchor="middle" x="225" y="-219.5" font-family="Helvetica,sans-Serif" font-size="10.00">T</text>
</g>
<!-- Node5&#45;&gt;Node4 -->
<g id="edge4" class="edge"><title>Node5&#45;&gt;Node4</title>
<path fill="none" stroke="#9a32cd" stroke-dasharray="5,2" d="M209.894,-204.635C198.159,-191.923 182.352,-174.798 172.964,-164.627"/>
<polygon fill="#9a32cd" stroke="#9a32cd" points="207.553,-207.26 216.908,-212.234 212.697,-202.512 207.553,-207.26"/>
<text text-anchor="middle" x="220.5" y="-186" font-family="Helvetica,sans-Serif" font-size="10.00"> elements</text>
</g>
<!-- Node7 -->
<g id="node7" class="node"><title>Node7</title>
<g id="a_node7"><a xlink:href="../../db/df8/a00076.html" target="_top" xlink:title="1&#45;dimensional vector class that supports mathmatical operations. ">
<polygon fill="white" stroke="black" points="225.5,-145.5 225.5,-164.5 326.5,-164.5 326.5,-145.5 225.5,-145.5"/>
<text text-anchor="middle" x="276" y="-152.5" font-family="Helvetica,sans-Serif" font-size="10.00">mc::Vector&lt; T, N &gt;</text>
</a>
</g>
</g>
<!-- Node5&#45;&gt;Node7 -->
<g id="edge7" class="edge"><title>Node5&#45;&gt;Node7</title>
<path fill="none" stroke="#9a32cd" stroke-dasharray="5,2" d="M238.126,-204.27C248.07,-191.597 261.327,-174.701 269.231,-164.627"/>
<polygon fill="#9a32cd" stroke="#9a32cd" points="235.297,-202.206 231.878,-212.234 240.805,-206.527 235.297,-202.206"/>
<text text-anchor="middle" x="272" y="-186" font-family="Helvetica,sans-Serif" font-size="10.00"> content</text>
</g>
<!-- Node6 -->
<g id="node6" class="node"><title>Node6</title>
<g id="a_node6"><a xlink:href="../../db/df8/a00076.html" target="_top" xlink:title="mc::Vector\&lt; float, 2 \&gt;">
<polygon fill="white" stroke="black" points="214,-73 214,-92 326,-92 326,-73 214,-73"/>
<text text-anchor="middle" x="270" y="-80" font-family="Helvetica,sans-Serif" font-size="10.00">mc::Vector&lt; float, 2 &gt;</text>
</a>
</g>
</g>
<!-- Node6&#45;&gt;Node1 -->
<g id="edge5" class="edge"><title>Node6&#45;&gt;Node1</title>
<path fill="none" stroke="#9a32cd" stroke-dasharray="5,2" d="M251.633,-66.085C234.696,-51.8699 210.157,-31.2747 196.384,-19.7154"/>
<polygon fill="#9a32cd" stroke="#9a32cd" points="249.79,-69.1075 259.7,-72.8553 254.29,-63.7457 249.79,-69.1075"/>
<text text-anchor="middle" x="262.5" y="-41" font-family="Helvetica,sans-Serif" font-size="10.00"> windowRatios</text>
</g>
<!-- Node7&#45;&gt;Node6 -->
<g id="edge6" class="edge"><title>Node7&#45;&gt;Node6</title>
<path fill="none" stroke="orange" stroke-dasharray="5,2" d="M274.413,-135.358C273.225,-121.395 271.653,-102.926 270.742,-92.2154"/>
<polygon fill="orange" stroke="orange" points="270.929,-135.688 275.264,-145.355 277.904,-135.095 270.929,-135.688"/>
<text text-anchor="middle" x="299.5" y="-119" font-family="Helvetica,sans-Serif" font-size="10.00"> &lt; float, 2 &gt;</text>
</g>
</g>
</svg>
