<?xml version="1.0" encoding="UTF-8" standalone="no"?>
<!DOCTYPE svg PUBLIC "-//W3C//DTD SVG 1.1//EN"
 "http://www.w3.org/Graphics/SVG/1.1/DTD/svg11.dtd">
<!-- Generated by graphviz version 2.38.0 (20140413.2041)
 -->
<!-- Title: mc::gfx::Painter::State Pages: 1 -->
<svg width="1266pt" height="128pt"
 viewBox="0.00 0.00 1266.00 128.00" xmlns="http://www.w3.org/2000/svg" xmlns:xlink="http://www.w3.org/1999/xlink">
<g id="graph0" class="graph" transform="scale(1 1) rotate(0) translate(4 124)">
<title>mc::gfx::Painter::State</title>
<polygon fill="white" stroke="none" points="-4,4 -4,-124 1262,-124 1262,4 -4,4"/>
<!-- Node1 -->
<g id="node1" class="node"><title>Node1</title>
<polygon fill="#bfbfbf" stroke="black" points="1143,-39.5 1143,-58.5 1258,-58.5 1258,-39.5 1143,-39.5"/>
<text text-anchor="middle" x="1200.5" y="-46.5" font-family="Helvetica,sans-Serif" font-size="10.00">mc::gfx::Painter::State</text>
</g>
<!-- Node2 -->
<g id="node2" class="node"><title>Node2</title>
<g id="a_node2"><a xlink:href="../../dc/ddf/a00067.html" target="_top" xlink:title="Matrix&#45;based class that allows for the easy creation and management of transformation matrices...">
<polygon fill="white" stroke="black" points="936,-77.5 936,-96.5 1042,-96.5 1042,-77.5 936,-77.5"/>
<text text-anchor="middle" x="989" y="-84.5" font-family="Helvetica,sans-Serif" font-size="10.00">mc::TransformMatrix</text>
</a>
</g>
</g>
<!-- Node2&#45;&gt;Node1 -->
<g id="edge1" class="edge"><title>Node2&#45;&gt;Node1</title>
<path fill="none" stroke="#9a32cd" stroke-dasharray="5,2" d="M1052.2,-76.0732C1075.1,-72.0167 1101.24,-67.3451 1125,-63 1132.77,-61.5798 1140.99,-60.0562 1149.02,-58.5558"/>
<polygon fill="#9a32cd" stroke="#9a32cd" points="1051.51,-72.6419 1042.27,-77.8306 1052.73,-79.5348 1051.51,-72.6419"/>
<text text-anchor="middle" x="1092.5" y="-78" font-family="Helvetica,sans-Serif" font-size="10.00"> transformation</text>
</g>
<!-- Node3 -->
<g id="node3" class="node"><title>Node3</title>
<g id="a_node3"><a xlink:href="../../d4/d31/a00069.html" target="_top" xlink:title="mc::Vector\&lt; float, 3 \&gt;">
<polygon fill="white" stroke="black" points="742,-77.5 742,-96.5 854,-96.5 854,-77.5 742,-77.5"/>
<text text-anchor="middle" x="798" y="-84.5" font-family="Helvetica,sans-Serif" font-size="10.00">mc::Vector&lt; float, 3 &gt;</text>
</a>
</g>
</g>
<!-- Node3&#45;&gt;Node2 -->
<g id="edge2" class="edge"><title>Node3&#45;&gt;Node2</title>
<path fill="none" stroke="#9a32cd" stroke-dasharray="5,2" d="M864.333,-87C887.652,-87 913.598,-87 935.678,-87"/>
<polygon fill="#9a32cd" stroke="#9a32cd" points="864.175,-83.5001 854.175,-87 864.175,-90.5001 864.175,-83.5001"/>
<text text-anchor="middle" x="895" y="-112" font-family="Helvetica,sans-Serif" font-size="10.00"> rotation</text>
<text text-anchor="middle" x="895" y="-101" font-family="Helvetica,sans-Serif" font-size="10.00">scaler</text>
<text text-anchor="middle" x="895" y="-90" font-family="Helvetica,sans-Serif" font-size="10.00">translation</text>
</g>
<!-- Node4 -->
<g id="node4" class="node"><title>Node4</title>
<g id="a_node4"><a xlink:href="../../d1/d09/a00077.html" target="_top" xlink:title="mc::VectorBase\&lt; Vector\l\&lt; float, N \&gt;, float, N \&gt;">
<polygon fill="white" stroke="black" points="530,-63 530,-93 655,-93 655,-63 530,-63"/>
<text text-anchor="start" x="538" y="-81" font-family="Helvetica,sans-Serif" font-size="10.00">mc::VectorBase&lt; Vector</text>
<text text-anchor="middle" x="592.5" y="-70" font-family="Helvetica,sans-Serif" font-size="10.00">&lt; float, N &gt;, float, N &gt;</text>
</a>
</g>
</g>
<!-- Node4&#45;&gt;Node3 -->
<g id="edge3" class="edge"><title>Node4&#45;&gt;Node3</title>
<path fill="none" stroke="midnightblue" d="M665.327,-81.1766C690.46,-82.2881 718.266,-83.5179 741.825,-84.5598"/>
<polygon fill="midnightblue" stroke="midnightblue" points="665.254,-77.6701 655.109,-80.7247 664.945,-84.6632 665.254,-77.6701"/>
</g>
<!-- Node10 -->
<g id="node10" class="node"><title>Node10</title>
<g id="a_node10"><a xlink:href="../../d4/d31/a00069.html" target="_top" xlink:title="mc::Vector\&lt; float, 4 \&gt;">
<polygon fill="white" stroke="black" points="742,-0.5 742,-19.5 854,-19.5 854,-0.5 742,-0.5"/>
<text text-anchor="middle" x="798" y="-7.5" font-family="Helvetica,sans-Serif" font-size="10.00">mc::Vector&lt; float, 4 &gt;</text>
</a>
</g>
</g>
<!-- Node4&#45;&gt;Node10 -->
<g id="edge12" class="edge"><title>Node4&#45;&gt;Node10</title>
<path fill="none" stroke="midnightblue" d="M665.103,-68.0758C684.568,-64.2149 705.4,-58.9878 724,-52 746.037,-43.721 769.229,-29.2435 783.407,-19.6385"/>
<polygon fill="midnightblue" stroke="midnightblue" points="664.244,-64.6761 655.068,-69.9723 665.544,-71.5543 664.244,-64.6761"/>
</g>
<!-- Node5 -->
<g id="node5" class="node"><title>Node5</title>
<g id="a_node5"><a xlink:href="../../d1/d09/a00077.html" target="_top" xlink:title="1&#45;dimensional vector class that supports mathmatical operations. ">
<polygon fill="white" stroke="black" points="101,-49 101,-79 222,-79 222,-49 101,-49"/>
<text text-anchor="start" x="109" y="-67" font-family="Helvetica,sans-Serif" font-size="10.00">mc::VectorBase&lt; Child,</text>
<text text-anchor="middle" x="161.5" y="-56" font-family="Helvetica,sans-Serif" font-size="10.00"> T, N &gt;</text>
</a>
</g>
</g>
<!-- Node5&#45;&gt;Node4 -->
<g id="edge4" class="edge"><title>Node5&#45;&gt;Node4</title>
<path fill="none" stroke="orange" stroke-dasharray="5,2" d="M232.195,-66.2744C314.776,-68.9694 451.075,-73.4174 529.928,-75.9907"/>
<polygon fill="orange" stroke="orange" points="232.259,-62.7748 222.151,-65.9466 232.031,-69.771 232.259,-62.7748"/>
<text text-anchor="start" x="390" y="-89" font-family="Helvetica,sans-Serif" font-size="10.00"> &lt; Vector&lt; float, N</text>
<text text-anchor="middle" x="430.5" y="-78" font-family="Helvetica,sans-Serif" font-size="10.00"> &gt;, float, N &gt;</text>
</g>
<!-- Node8 -->
<g id="node8" class="node"><title>Node8</title>
<g id="a_node8"><a xlink:href="../../d1/d09/a00077.html" target="_top" xlink:title="mc::VectorBase\&lt; Vector\l\&lt; T, N \&gt;, T, N \&gt;">
<polygon fill="white" stroke="black" points="368,-7 368,-37 493,-37 493,-7 368,-7"/>
<text text-anchor="start" x="376" y="-25" font-family="Helvetica,sans-Serif" font-size="10.00">mc::VectorBase&lt; Vector</text>
<text text-anchor="middle" x="430.5" y="-14" font-family="Helvetica,sans-Serif" font-size="10.00">&lt; T, N &gt;, T, N &gt;</text>
</a>
</g>
</g>
<!-- Node5&#45;&gt;Node8 -->
<g id="edge9" class="edge"><title>Node5&#45;&gt;Node8</title>
<path fill="none" stroke="orange" stroke-dasharray="5,2" d="M231.977,-53.0711C274.035,-46.4552 327.201,-38.092 367.777,-31.7092"/>
<polygon fill="orange" stroke="orange" points="231.422,-49.6152 222.088,-54.6267 232.51,-56.5301 231.422,-49.6152"/>
<text text-anchor="middle" x="295" y="-55" font-family="Helvetica,sans-Serif" font-size="10.00"> &lt; Vector&lt; T, N &gt;, T, N &gt;</text>
</g>
<!-- Node6 -->
<g id="node6" class="node"><title>Node6</title>
<polygon fill="white" stroke="#bfbfbf" points="0,-28.5 0,-47.5 29,-47.5 29,-28.5 0,-28.5"/>
<text text-anchor="middle" x="14.5" y="-35.5" font-family="Helvetica,sans-Serif" font-size="10.00">T</text>
</g>
<!-- Node6&#45;&gt;Node5 -->
<g id="edge5" class="edge"><title>Node6&#45;&gt;Node5</title>
<path fill="none" stroke="#9a32cd" stroke-dasharray="5,2" d="M39.1457,-42.2399C55.9311,-45.2497 79.2504,-49.4311 100.966,-53.3249"/>
<polygon fill="#9a32cd" stroke="#9a32cd" points="39.602,-38.766 29.1412,-40.446 38.3665,-45.6561 39.602,-38.766"/>
<text text-anchor="middle" x="65" y="-53" font-family="Helvetica,sans-Serif" font-size="10.00"> content</text>
</g>
<!-- Node6&#45;&gt;Node8 -->
<g id="edge8" class="edge"><title>Node6&#45;&gt;Node8</title>
<path fill="none" stroke="#9a32cd" stroke-dasharray="5,2" d="M39.2971,-34.5818C56.4187,-32.2779 80.0838,-29.4108 101,-28 193.908,-21.7335 301.908,-21.0193 367.971,-21.3244"/>
<polygon fill="#9a32cd" stroke="#9a32cd" points="38.5118,-31.157 29.0853,-35.9935 39.4705,-38.0911 38.5118,-31.157"/>
<text text-anchor="middle" x="161.5" y="-31" font-family="Helvetica,sans-Serif" font-size="10.00"> content</text>
</g>
<!-- Node7 -->
<g id="node7" class="node"><title>Node7</title>
<g id="a_node7"><a xlink:href="../../d4/d31/a00069.html" target="_top" xlink:title="mc::Vector\&lt; T, N \&gt;">
<polygon fill="white" stroke="black" points="542,-12.5 542,-31.5 643,-31.5 643,-12.5 542,-12.5"/>
<text text-anchor="middle" x="592.5" y="-19.5" font-family="Helvetica,sans-Serif" font-size="10.00">mc::Vector&lt; T, N &gt;</text>
</a>
</g>
</g>
<!-- Node7&#45;&gt;Node3 -->
<g id="edge6" class="edge"><title>Node7&#45;&gt;Node3</title>
<path fill="none" stroke="orange" stroke-dasharray="5,2" d="M633.057,-34.6348C672.345,-47.1839 731.703,-66.1436 767.181,-77.4756"/>
<polygon fill="orange" stroke="orange" points="634.118,-31.2996 623.527,-31.591 631.988,-37.9678 634.118,-31.2996"/>
<text text-anchor="middle" x="698.5" y="-66" font-family="Helvetica,sans-Serif" font-size="10.00"> &lt; float, 3 &gt;</text>
</g>
<!-- Node7&#45;&gt;Node10 -->
<g id="edge13" class="edge"><title>Node7&#45;&gt;Node10</title>
<path fill="none" stroke="orange" stroke-dasharray="5,2" d="M646.124,-10.6454C655.053,-9.12902 664.262,-7.81715 673,-7 695.568,-4.88954 701.338,-6.53454 724,-7 729.707,-7.11721 735.663,-7.28591 741.604,-7.48438"/>
<polygon fill="orange" stroke="orange" points="645.425,-7.21495 636.202,-12.429 646.663,-14.1045 645.425,-7.21495"/>
<text text-anchor="middle" x="698.5" y="-10" font-family="Helvetica,sans-Serif" font-size="10.00"> &lt; float, 4 &gt;</text>
</g>
<!-- Node8&#45;&gt;Node7 -->
<g id="edge7" class="edge"><title>Node8&#45;&gt;Node7</title>
<path fill="none" stroke="midnightblue" d="M503.656,-22C516.6,-22 529.82,-22 541.944,-22"/>
<polygon fill="midnightblue" stroke="midnightblue" points="503.36,-18.5001 493.36,-22 503.36,-25.5001 503.36,-18.5001"/>
</g>
<!-- Node9 -->
<g id="node9" class="node"><title>Node9</title>
<g id="a_node9"><a xlink:href="../../d2/de7/a00014.html" target="_top" xlink:title="Represents a color in the RGBA space. ">
<polygon fill="white" stroke="black" points="959.5,-39.5 959.5,-58.5 1018.5,-58.5 1018.5,-39.5 959.5,-39.5"/>
<text text-anchor="middle" x="989" y="-46.5" font-family="Helvetica,sans-Serif" font-size="10.00">mc::Color</text>
</a>
</g>
</g>
<!-- Node9&#45;&gt;Node1 -->
<g id="edge10" class="edge"><title>Node9&#45;&gt;Node1</title>
<path fill="none" stroke="#9a32cd" stroke-dasharray="5,2" d="M1028.98,-49C1060.99,-49 1106.74,-49 1142.8,-49"/>
<polygon fill="#9a32cd" stroke="#9a32cd" points="1028.69,-45.5001 1018.69,-49 1028.69,-52.5001 1028.69,-45.5001"/>
<text text-anchor="middle" x="1092.5" y="-52" font-family="Helvetica,sans-Serif" font-size="10.00"> color</text>
</g>
<!-- Node10&#45;&gt;Node1 -->
<g id="edge11" class="edge"><title>Node10&#45;&gt;Node1</title>
<path fill="none" stroke="#9a32cd" stroke-dasharray="5,2" d="M864.342,-9.74848C913.374,-10.2068 982.08,-12.2231 1042,-19 1081.97,-23.5203 1127,-32.4958 1158.64,-39.4568"/>
<polygon fill="#9a32cd" stroke="#9a32cd" points="864.213,-6.24753 854.188,-9.67316 864.161,-13.2473 864.213,-6.24753"/>
<text text-anchor="middle" x="989" y="-22" font-family="Helvetica,sans-Serif" font-size="10.00"> data</text>
</g>
</g>
</svg>
