<?xml version="1.0" encoding="UTF-8" standalone="no"?>
<!DOCTYPE svg PUBLIC "-//W3C//DTD SVG 1.1//EN"
 "http://www.w3.org/Graphics/SVG/1.1/DTD/svg11.dtd">
<!-- Generated by graphviz version 2.38.0 (20140413.2041)
 -->
<!-- Title: mc::Vector&lt; T, N &gt; Pages: 1 -->
<svg width="388pt" height="174pt"
 viewBox="0.00 0.00 387.50 174.00" xmlns="http://www.w3.org/2000/svg" xmlns:xlink="http://www.w3.org/1999/xlink">
<g id="graph0" class="graph" transform="scale(1 1) rotate(0) translate(4 170)">
<title>mc::Vector&lt; T, N &gt;</title>
<polygon fill="white" stroke="none" points="-4,4 -4,-170 383.5,-170 383.5,4 -4,4"/>
<!-- Node1 -->
<g id="node1" class="node"><title>Node1</title>
<polygon fill="#bfbfbf" stroke="black" points="143,-146.5 143,-165.5 244,-165.5 244,-146.5 143,-146.5"/>
<text text-anchor="middle" x="193.5" y="-153.5" font-family="Helvetica,sans-Serif" font-size="10.00">mc::Vector&lt; T, N &gt;</text>
</g>
<!-- Node2 -->
<g id="node2" class="node"><title>Node2</title>
<g id="a_node2"><a xlink:href="../../d9/da5/a00075.html" target="_top" xlink:title="mc::Vector\&lt; MatrixRow\l\&lt; T, H \&gt;, W \&gt;">
<polygon fill="white" stroke="black" points="0,-57.5 0,-87.5 119,-87.5 119,-57.5 0,-57.5"/>
<text text-anchor="start" x="8" y="-75.5" font-family="Helvetica,sans-Serif" font-size="10.00">mc::Vector&lt; MatrixRow</text>
<text text-anchor="middle" x="59.5" y="-64.5" font-family="Helvetica,sans-Serif" font-size="10.00">&lt; T, H &gt;, W &gt;</text>
</a>
</g>
</g>
<!-- Node1&#45;&gt;Node2 -->
<g id="edge1" class="edge"><title>Node1&#45;&gt;Node2</title>
<path fill="none" stroke="orange" stroke-dasharray="5,2" d="M132.841,-145.552C119.709,-141.592 106.482,-135.973 95.5,-128 81.3682,-117.741 71.2111,-100.102 65.3607,-87.6754"/>
<polygon fill="orange" stroke="orange" points="132.259,-149.021 142.827,-148.268 134.096,-142.266 132.259,-149.021"/>
<text text-anchor="start" x="95.5" y="-120" font-family="Helvetica,sans-Serif" font-size="10.00"> &lt; MatrixRow&lt; T, H &gt;</text>
<text text-anchor="middle" x="142.5" y="-109" font-family="Helvetica,sans-Serif" font-size="10.00">, W &gt;</text>
</g>
<!-- Node4 -->
<g id="node4" class="node"><title>Node4</title>
<g id="a_node4"><a xlink:href="../../d9/da5/a00075.html" target="_top" xlink:title="mc::Vector\&lt; float, 3 \&gt;">
<polygon fill="white" stroke="black" points="137.5,-63 137.5,-82 249.5,-82 249.5,-63 137.5,-63"/>
<text text-anchor="middle" x="193.5" y="-70" font-family="Helvetica,sans-Serif" font-size="10.00">mc::Vector&lt; float, 3 &gt;</text>
</a>
</g>
</g>
<!-- Node1&#45;&gt;Node4 -->
<g id="edge3" class="edge"><title>Node1&#45;&gt;Node4</title>
<path fill="none" stroke="orange" stroke-dasharray="5,2" d="M193.5,-135.876C193.5,-118.898 193.5,-94.8673 193.5,-82.1592"/>
<polygon fill="orange" stroke="orange" points="190,-136.278 193.5,-146.278 197,-136.278 190,-136.278"/>
<text text-anchor="middle" x="219" y="-114.5" font-family="Helvetica,sans-Serif" font-size="10.00"> &lt; float, 3 &gt;</text>
</g>
<!-- Node5 -->
<g id="node5" class="node"><title>Node5</title>
<g id="a_node5"><a xlink:href="../../d9/da5/a00075.html" target="_top" xlink:title="mc::Vector\&lt; float, 2 \&gt;">
<polygon fill="white" stroke="black" points="267.5,-63 267.5,-82 379.5,-82 379.5,-63 267.5,-63"/>
<text text-anchor="middle" x="323.5" y="-70" font-family="Helvetica,sans-Serif" font-size="10.00">mc::Vector&lt; float, 2 &gt;</text>
</a>
</g>
</g>
<!-- Node1&#45;&gt;Node5 -->
<g id="edge4" class="edge"><title>Node1&#45;&gt;Node5</title>
<path fill="none" stroke="orange" stroke-dasharray="5,2" d="M222.31,-142.012C230.9,-137.833 240.226,-132.987 248.5,-128 272.487,-113.544 298.515,-93.5615 312.728,-82.2434"/>
<polygon fill="orange" stroke="orange" points="220.556,-138.97 213.02,-146.417 223.556,-145.295 220.556,-138.97"/>
<text text-anchor="middle" x="306" y="-114.5" font-family="Helvetica,sans-Serif" font-size="10.00"> &lt; float, 2 &gt;</text>
</g>
<!-- Node3 -->
<g id="node3" class="node"><title>Node3</title>
<g id="a_node3"><a xlink:href="../../dc/d87/a00032.html" target="_top" xlink:title="A class representing a 2&#45;dimensional matrix, and allows for math involving matrices. ">
<polygon fill="white" stroke="black" points="2,-0.5 2,-19.5 117,-19.5 117,-0.5 2,-0.5"/>
<text text-anchor="middle" x="59.5" y="-7.5" font-family="Helvetica,sans-Serif" font-size="10.00">mc::Matrix&lt; T, W, H &gt;</text>
</a>
</g>
</g>
<!-- Node2&#45;&gt;Node3 -->
<g id="edge2" class="edge"><title>Node2&#45;&gt;Node3</title>
<path fill="none" stroke="midnightblue" d="M59.5,-47.3524C59.5,-37.5132 59.5,-26.7753 59.5,-19.5399"/>
<polygon fill="midnightblue" stroke="midnightblue" points="56.0001,-47.468 59.5,-57.468 63.0001,-47.4681 56.0001,-47.468"/>
</g>
</g>
</svg>
