<?xml version="1.0" encoding="UTF-8" standalone="no"?>
<!DOCTYPE svg PUBLIC "-//W3C//DTD SVG 1.1//EN"
 "http://www.w3.org/Graphics/SVG/1.1/DTD/svg11.dtd">
<!-- Generated by graphviz version 2.38.0 (20140413.2041)
 -->
<!-- Title: mc::gfx::ogl::RenderBuffer Pages: 1 -->
<svg width="184pt" height="140pt"
 viewBox="0.00 0.00 184.00 140.00" xmlns="http://www.w3.org/2000/svg" xmlns:xlink="http://www.w3.org/1999/xlink">
<g id="graph0" class="graph" transform="scale(1 1) rotate(0) translate(4 136)">
<title>mc::gfx::ogl::RenderBuffer</title>
<polygon fill="white" stroke="none" points="-4,4 -4,-136 180,-136 180,4 -4,4"/>
<!-- Node1 -->
<g id="node1" class="node"><title>Node1</title>
<polygon fill="#bfbfbf" stroke="black" points="25.5,-0.5 25.5,-19.5 154.5,-19.5 154.5,-0.5 25.5,-0.5"/>
<text text-anchor="middle" x="90" y="-7.5" font-family="Helvetica,sans-Serif" font-size="10.00">mc::gfx::ogl::RenderBuffer</text>
</g>
<!-- Node2 -->
<g id="node2" class="node"><title>Node2</title>
<g id="a_node2"><a xlink:href="../../d6/d97/a00045.html" target="_top" xlink:title="Represents a OpenGL object in memory. ">
<polygon fill="white" stroke="black" points="39,-56.5 39,-75.5 141,-75.5 141,-56.5 39,-56.5"/>
<text text-anchor="middle" x="90" y="-63.5" font-family="Helvetica,sans-Serif" font-size="10.00">mc::gfx::ogl::Object</text>
</a>
</g>
</g>
<!-- Node2&#45;&gt;Node1 -->
<g id="edge1" class="edge"><title>Node2&#45;&gt;Node1</title>
<path fill="none" stroke="midnightblue" d="M90,-45.8045C90,-36.9102 90,-26.7798 90,-19.7511"/>
<polygon fill="midnightblue" stroke="midnightblue" points="86.5001,-46.083 90,-56.083 93.5001,-46.083 86.5001,-46.083"/>
</g>
<!-- Node3 -->
<g id="node3" class="node"><title>Node3</title>
<g id="a_node3"><a xlink:href="../../d4/d8c/a00035.html" target="_top" xlink:title="mc::Initializable">
<polygon fill="white" stroke="black" points="0,-112.5 0,-131.5 84,-131.5 84,-112.5 0,-112.5"/>
<text text-anchor="middle" x="42" y="-119.5" font-family="Helvetica,sans-Serif" font-size="10.00">mc::Initializable</text>
</a>
</g>
</g>
<!-- Node3&#45;&gt;Node2 -->
<g id="edge2" class="edge"><title>Node3&#45;&gt;Node2</title>
<path fill="none" stroke="midnightblue" d="M56.7277,-104.431C65.1401,-94.9673 75.3487,-83.4827 82.2213,-75.7511"/>
<polygon fill="midnightblue" stroke="midnightblue" points="53.954,-102.284 49.9262,-112.083 59.1858,-106.934 53.954,-102.284"/>
</g>
<!-- Node4 -->
<g id="node4" class="node"><title>Node4</title>
<g id="a_node4"><a xlink:href="../../da/da0/a00009.html" target="_top" xlink:title="mc::Bindable">
<polygon fill="white" stroke="black" points="102,-112.5 102,-131.5 176,-131.5 176,-112.5 102,-112.5"/>
<text text-anchor="middle" x="139" y="-119.5" font-family="Helvetica,sans-Serif" font-size="10.00">mc::Bindable</text>
</a>
</g>
</g>
<!-- Node4&#45;&gt;Node2 -->
<g id="edge3" class="edge"><title>Node4&#45;&gt;Node2</title>
<path fill="none" stroke="midnightblue" d="M123.966,-104.431C115.378,-94.9673 104.957,-83.4827 97.9408,-75.7511"/>
<polygon fill="midnightblue" stroke="midnightblue" points="121.597,-107.029 130.909,-112.083 126.781,-102.325 121.597,-107.029"/>
</g>
</g>
</svg>
