<?xml version="1.0" encoding="UTF-8" standalone="no"?>
<!DOCTYPE svg PUBLIC "-//W3C//DTD SVG 1.1//EN"
 "http://www.w3.org/Graphics/SVG/1.1/DTD/svg11.dtd">
<!-- Generated by graphviz version 2.38.0 (20140413.2041)
 -->
<!-- Title: mc::os::SignalStopError Pages: 1 -->
<svg width="129pt" height="252pt"
 viewBox="0.00 0.00 129.00 252.00" xmlns="http://www.w3.org/2000/svg" xmlns:xlink="http://www.w3.org/1999/xlink">
<g id="graph0" class="graph" transform="scale(1 1) rotate(0) translate(4 248)">
<title>mc::os::SignalStopError</title>
<polygon fill="white" stroke="none" points="-4,4 -4,-248 125,-248 125,4 -4,4"/>
<!-- Node1 -->
<g id="node1" class="node"><title>Node1</title>
<polygon fill="#bfbfbf" stroke="black" points="0,-0.5 0,-19.5 121,-19.5 121,-0.5 0,-0.5"/>
<text text-anchor="middle" x="60.5" y="-7.5" font-family="Helvetica,sans-Serif" font-size="10.00">mc::os::SignalStopError</text>
</g>
<!-- Node2 -->
<g id="node2" class="node"><title>Node2</title>
<g id="a_node2"><a xlink:href="../../d9/d73/a00060.html" target="_top" xlink:title="mc::os::SignalError">
<polygon fill="white" stroke="black" points="10,-56.5 10,-75.5 111,-75.5 111,-56.5 10,-56.5"/>
<text text-anchor="middle" x="60.5" y="-63.5" font-family="Helvetica,sans-Serif" font-size="10.00">mc::os::SignalError</text>
</a>
</g>
</g>
<!-- Node2&#45;&gt;Node1 -->
<g id="edge1" class="edge"><title>Node2&#45;&gt;Node1</title>
<path fill="none" stroke="midnightblue" d="M60.5,-45.8045C60.5,-36.9102 60.5,-26.7798 60.5,-19.7511"/>
<polygon fill="midnightblue" stroke="midnightblue" points="57.0001,-46.083 60.5,-56.083 64.0001,-46.083 57.0001,-46.083"/>
</g>
<!-- Node3 -->
<g id="node3" class="node"><title>Node3</title>
<g id="a_node3"><a xlink:href="../../d7/de0/a00022.html" target="_top" xlink:title="Superclass that all exceptions in MACE extend. ">
<polygon fill="white" stroke="black" points="32,-112.5 32,-131.5 89,-131.5 89,-112.5 32,-112.5"/>
<text text-anchor="middle" x="60.5" y="-119.5" font-family="Helvetica,sans-Serif" font-size="10.00">mc::Error</text>
</a>
</g>
</g>
<!-- Node3&#45;&gt;Node2 -->
<g id="edge2" class="edge"><title>Node3&#45;&gt;Node2</title>
<path fill="none" stroke="midnightblue" d="M60.5,-101.805C60.5,-92.9102 60.5,-82.7798 60.5,-75.7511"/>
<polygon fill="midnightblue" stroke="midnightblue" points="57.0001,-102.083 60.5,-112.083 64.0001,-102.083 57.0001,-102.083"/>
</g>
<!-- Node4 -->
<g id="node4" class="node"><title>Node4</title>
<g id="a_node4"><a xlink:title="STL class. ">
<polygon fill="white" stroke="#bfbfbf" points="14,-168.5 14,-187.5 107,-187.5 107,-168.5 14,-168.5"/>
<text text-anchor="middle" x="60.5" y="-175.5" font-family="Helvetica,sans-Serif" font-size="10.00">std::runtime_error</text>
</a>
</g>
</g>
<!-- Node4&#45;&gt;Node3 -->
<g id="edge3" class="edge"><title>Node4&#45;&gt;Node3</title>
<path fill="none" stroke="midnightblue" d="M60.5,-157.805C60.5,-148.91 60.5,-138.78 60.5,-131.751"/>
<polygon fill="midnightblue" stroke="midnightblue" points="57.0001,-158.083 60.5,-168.083 64.0001,-158.083 57.0001,-158.083"/>
</g>
<!-- Node5 -->
<g id="node5" class="node"><title>Node5</title>
<g id="a_node5"><a xlink:title="STL class. ">
<polygon fill="white" stroke="#bfbfbf" points="21.5,-224.5 21.5,-243.5 99.5,-243.5 99.5,-224.5 21.5,-224.5"/>
<text text-anchor="middle" x="60.5" y="-231.5" font-family="Helvetica,sans-Serif" font-size="10.00">std::exception</text>
</a>
</g>
</g>
<!-- Node5&#45;&gt;Node4 -->
<g id="edge4" class="edge"><title>Node5&#45;&gt;Node4</title>
<path fill="none" stroke="midnightblue" d="M60.5,-213.805C60.5,-204.91 60.5,-194.78 60.5,-187.751"/>
<polygon fill="midnightblue" stroke="midnightblue" points="57.0001,-214.083 60.5,-224.083 64.0001,-214.083 57.0001,-214.083"/>
</g>
</g>
</svg>
