<?xml version="1.0" encoding="UTF-8" standalone="no"?>
<!DOCTYPE svg PUBLIC "-//W3C//DTD SVG 1.1//EN"
 "http://www.w3.org/Graphics/SVG/1.1/DTD/svg11.dtd">
<!-- Generated by graphviz version 2.38.0 (20140413.2041)
 -->
<!-- Title: mc::os::WindowModule::LaunchConfig Pages: 1 -->
<svg width="434pt" height="694pt"
 viewBox="0.00 0.00 433.50 694.00" xmlns="http://www.w3.org/2000/svg" xmlns:xlink="http://www.w3.org/1999/xlink">
<g id="graph0" class="graph" transform="scale(1 1) rotate(0) translate(4 690)">
<title>mc::os::WindowModule::LaunchConfig</title>
<polygon fill="white" stroke="none" points="-4,4 -4,-690 429.5,-690 429.5,4 -4,4"/>
<!-- Node1 -->
<g id="node1" class="node"><title>Node1</title>
<polygon fill="#bfbfbf" stroke="black" points="85,-0.5 85,-30.5 204,-30.5 204,-0.5 85,-0.5"/>
<text text-anchor="start" x="93" y="-18.5" font-family="Helvetica,sans-Serif" font-size="10.00">mc::os::WindowModule</text>
<text text-anchor="middle" x="144.5" y="-7.5" font-family="Helvetica,sans-Serif" font-size="10.00">::LaunchConfig</text>
</g>
<!-- Node2 -->
<g id="node2" class="node"><title>Node2</title>
<g id="a_node2"><a xlink:href="../../d9/dec/a00090.html" target="_top" xlink:title="mc::os::WindowModule">
<polygon fill="white" stroke="black" points="85,-117 85,-136 204,-136 204,-117 85,-117"/>
<text text-anchor="middle" x="144.5" y="-124" font-family="Helvetica,sans-Serif" font-size="10.00">mc::os::WindowModule</text>
</a>
</g>
</g>
<!-- Node2&#45;&gt;Node1 -->
<g id="edge1" class="edge"><title>Node2&#45;&gt;Node1</title>
<path fill="none" stroke="#9a32cd" stroke-dasharray="5,2" d="M144.5,-106.779C144.5,-85.1999 144.5,-50.2116 144.5,-30.7359"/>
<polygon fill="#9a32cd" stroke="#9a32cd" points="141,-106.947 144.5,-116.947 148,-106.947 141,-106.947"/>
<text text-anchor="middle" x="176" y="-85" font-family="Helvetica,sans-Serif" font-size="10.00"> onScroll</text>
<text text-anchor="middle" x="176" y="-74" font-family="Helvetica,sans-Serif" font-size="10.00">onClose</text>
<text text-anchor="middle" x="176" y="-63" font-family="Helvetica,sans-Serif" font-size="10.00">onMouseMove</text>
<text text-anchor="middle" x="176" y="-52" font-family="Helvetica,sans-Serif" font-size="10.00">onCreate</text>
</g>
<!-- Node3 -->
<g id="node3" class="node"><title>Node3</title>
<g id="a_node3"><a xlink:href="../../d8/d41/a00038.html" target="_top" xlink:title="Abstract class used for doing a task in MACE. ">
<polygon fill="white" stroke="black" points="87.5,-189.5 87.5,-208.5 155.5,-208.5 155.5,-189.5 87.5,-189.5"/>
<text text-anchor="middle" x="121.5" y="-196.5" font-family="Helvetica,sans-Serif" font-size="10.00">mc::Module</text>
</a>
</g>
</g>
<!-- Node3&#45;&gt;Node2 -->
<g id="edge2" class="edge"><title>Node3&#45;&gt;Node2</title>
<path fill="none" stroke="midnightblue" d="M127.447,-179.771C132.017,-165.762 138.128,-147.032 141.657,-136.215"/>
<polygon fill="midnightblue" stroke="midnightblue" points="124.094,-178.763 124.32,-189.355 130.749,-180.934 124.094,-178.763"/>
</g>
<!-- Node4 -->
<g id="node4" class="node"><title>Node4</title>
<g id="a_node4"><a xlink:href="../../dc/d87/a00032.html" target="_top" xlink:title="mc::Initializable">
<polygon fill="white" stroke="black" points="71.5,-256.5 71.5,-275.5 155.5,-275.5 155.5,-256.5 71.5,-256.5"/>
<text text-anchor="middle" x="113.5" y="-263.5" font-family="Helvetica,sans-Serif" font-size="10.00">mc::Initializable</text>
</a>
</g>
</g>
<!-- Node4&#45;&gt;Node3 -->
<g id="edge3" class="edge"><title>Node4&#45;&gt;Node3</title>
<path fill="none" stroke="midnightblue" d="M115.834,-246.037C117.356,-233.67 119.27,-218.12 120.438,-208.627"/>
<polygon fill="midnightblue" stroke="midnightblue" points="112.327,-245.881 114.579,-256.234 119.274,-246.736 112.327,-245.881"/>
</g>
<!-- Node5 -->
<g id="node5" class="node"><title>Node5</title>
<g id="a_node5"><a xlink:href="../../db/db2/a00020.html" target="_top" xlink:title="Abstract superclass for all graphical objects. ">
<polygon fill="white" stroke="black" points="174.5,-189.5 174.5,-208.5 254.5,-208.5 254.5,-189.5 174.5,-189.5"/>
<text text-anchor="middle" x="214.5" y="-196.5" font-family="Helvetica,sans-Serif" font-size="10.00">mc::gfx::Entity</text>
</a>
</g>
</g>
<!-- Node4&#45;&gt;Node5 -->
<g id="edge5" class="edge"><title>Node4&#45;&gt;Node5</title>
<path fill="none" stroke="midnightblue" d="M135.613,-250.769C155.605,-237.903 184.388,-219.379 201.094,-208.627"/>
<polygon fill="midnightblue" stroke="midnightblue" points="133.636,-247.879 127.121,-256.234 137.425,-253.765 133.636,-247.879"/>
</g>
<!-- Node5&#45;&gt;Node2 -->
<g id="edge4" class="edge"><title>Node5&#45;&gt;Node2</title>
<path fill="none" stroke="midnightblue" d="M198.804,-182.192C184.706,-167.993 164.526,-147.669 153.154,-136.215"/>
<polygon fill="midnightblue" stroke="midnightblue" points="196.387,-184.725 205.917,-189.355 201.354,-179.793 196.387,-184.725"/>
</g>
<!-- Node6 -->
<g id="node6" class="node"><title>Node6</title>
<polygon fill="white" stroke="#bfbfbf" points="229,-111.5 229,-141.5 332,-141.5 332,-111.5 229,-111.5"/>
<text text-anchor="start" x="237" y="-129.5" font-family="Helvetica,sans-Serif" font-size="10.00">std::vector&lt; mc::gfx</text>
<text text-anchor="middle" x="280.5" y="-118.5" font-family="Helvetica,sans-Serif" font-size="10.00">::Entity * &gt;</text>
</g>
<!-- Node5&#45;&gt;Node6 -->
<g id="edge7" class="edge"><title>Node5&#45;&gt;Node6</title>
<path fill="none" stroke="#9a32cd" stroke-dasharray="5,2" d="M208.601,-179.327C207.63,-172.78 207.912,-165.656 211.5,-160 216.465,-152.173 223.874,-146.196 232.019,-141.644"/>
<polygon fill="#9a32cd" stroke="#9a32cd" points="205.295,-180.547 211.055,-189.439 212.098,-178.896 205.295,-180.547"/>
<text text-anchor="middle" x="233" y="-163" font-family="Helvetica,sans-Serif" font-size="10.00"> elements</text>
</g>
<!-- Node6&#45;&gt;Node5 -->
<g id="edge6" class="edge"><title>Node6&#45;&gt;Node5</title>
<path fill="none" stroke="#9a32cd" stroke-dasharray="5,2" d="M271.64,-150.795C268.24,-157.808 263.861,-165.18 258.5,-171 251.457,-178.647 241.762,-184.908 233.265,-189.468"/>
<polygon fill="#9a32cd" stroke="#9a32cd" points="274.848,-152.196 275.67,-141.633 268.44,-149.378 274.848,-152.196"/>
<text text-anchor="middle" x="284" y="-163" font-family="Helvetica,sans-Serif" font-size="10.00"> children</text>
</g>
<!-- Node7 -->
<g id="node7" class="node"><title>Node7</title>
<g id="a_node7"><a xlink:title="STL class. ">
<polygon fill="white" stroke="#bfbfbf" points="292,-549.5 292,-568.5 377,-568.5 377,-549.5 292,-549.5"/>
<text text-anchor="middle" x="334.5" y="-556.5" font-family="Helvetica,sans-Serif" font-size="10.00">std::vector&lt; T &gt;</text>
</a>
</g>
</g>
<!-- Node7&#45;&gt;Node6 -->
<g id="edge8" class="edge"><title>Node7&#45;&gt;Node6</title>
<path fill="none" stroke="orange" stroke-dasharray="5,2" d="M334.174,-539.162C333.882,-520.663 333.5,-491.64 333.5,-466.5 333.5,-466.5 333.5,-466.5 333.5,-198 333.5,-174.878 315.06,-154.505 299.934,-141.682"/>
<polygon fill="orange" stroke="orange" points="330.679,-539.482 334.344,-549.422 337.678,-539.366 330.679,-539.482"/>
<text text-anchor="middle" x="379.5" y="-352.5" font-family="Helvetica,sans-Serif" font-size="10.00"> &lt; mc::gfx::Entity * &gt;</text>
</g>
<!-- Node8 -->
<g id="node8" class="node"><title>Node8</title>
<polygon fill="white" stroke="#bfbfbf" points="259,-666.5 259,-685.5 288,-685.5 288,-666.5 259,-666.5"/>
<text text-anchor="middle" x="273.5" y="-673.5" font-family="Helvetica,sans-Serif" font-size="10.00">T</text>
</g>
<!-- Node8&#45;&gt;Node7 -->
<g id="edge9" class="edge"><title>Node8&#45;&gt;Node7</title>
<path fill="none" stroke="#9a32cd" stroke-dasharray="5,2" d="M287.272,-658.35C295.667,-647.61 306.157,-633.067 313.5,-619 322.355,-602.036 328.96,-580.511 332.224,-568.714"/>
<polygon fill="#9a32cd" stroke="#9a32cd" points="284.355,-656.392 280.827,-666.383 289.815,-660.773 284.355,-656.392"/>
<text text-anchor="middle" x="323" y="-640" font-family="Helvetica,sans-Serif" font-size="10.00"> elements</text>
</g>
<!-- Node12 -->
<g id="node12" class="node"><title>Node12</title>
<g id="a_node12"><a xlink:href="../../d1/d1e/a00087.html" target="_top" xlink:title="1&#45;dimensional vector class that supports mathmatical operations. ">
<polygon fill="white" stroke="black" points="88,-588.5 88,-618.5 209,-618.5 209,-588.5 88,-588.5"/>
<text text-anchor="start" x="96" y="-606.5" font-family="Helvetica,sans-Serif" font-size="10.00">mc::VectorBase&lt; Child,</text>
<text text-anchor="middle" x="148.5" y="-595.5" font-family="Helvetica,sans-Serif" font-size="10.00"> T, N &gt;</text>
</a>
</g>
</g>
<!-- Node8&#45;&gt;Node12 -->
<g id="edge14" class="edge"><title>Node8&#45;&gt;Node12</title>
<path fill="none" stroke="#9a32cd" stroke-dasharray="5,2" d="M250.084,-662.546C241.671,-658.021 232.131,-652.832 223.5,-648 206.294,-638.368 187.058,-627.203 172.375,-618.596"/>
<polygon fill="#9a32cd" stroke="#9a32cd" points="248.528,-665.682 258.995,-667.318 251.832,-659.511 248.528,-665.682"/>
<text text-anchor="middle" x="241.5" y="-640" font-family="Helvetica,sans-Serif" font-size="10.00"> content</text>
</g>
<!-- Node14 -->
<g id="node14" class="node"><title>Node14</title>
<g id="a_node14"><a xlink:href="../../d1/d1e/a00087.html" target="_top" xlink:title="mc::VectorBase\&lt; Vector\l\&lt; T, N \&gt;, T, N \&gt;">
<polygon fill="white" stroke="black" points="132,-499.5 132,-529.5 257,-529.5 257,-499.5 132,-499.5"/>
<text text-anchor="start" x="140" y="-517.5" font-family="Helvetica,sans-Serif" font-size="10.00">mc::VectorBase&lt; Vector</text>
<text text-anchor="middle" x="194.5" y="-506.5" font-family="Helvetica,sans-Serif" font-size="10.00">&lt; T, N &gt;, T, N &gt;</text>
</a>
</g>
</g>
<!-- Node8&#45;&gt;Node14 -->
<g id="edge17" class="edge"><title>Node8&#45;&gt;Node14</title>
<path fill="none" stroke="#9a32cd" stroke-dasharray="5,2" d="M273.581,-656.052C273.363,-625.002 271.362,-565.027 259.5,-548 254.091,-540.236 246.272,-534.231 237.92,-529.622"/>
<polygon fill="#9a32cd" stroke="#9a32cd" points="270.082,-656.392 273.594,-666.387 277.082,-656.383 270.082,-656.392"/>
<text text-anchor="middle" x="289.5" y="-601" font-family="Helvetica,sans-Serif" font-size="10.00"> content</text>
</g>
<!-- Node9 -->
<g id="node9" class="node"><title>Node9</title>
<g id="a_node9"><a xlink:href="../../d1/d09/a00077.html" target="_top" xlink:title="Matrix&#45;based class that allows for the easy creation and management of transformation matrices...">
<polygon fill="white" stroke="black" points="173.5,-256.5 173.5,-275.5 279.5,-275.5 279.5,-256.5 173.5,-256.5"/>
<text text-anchor="middle" x="226.5" y="-263.5" font-family="Helvetica,sans-Serif" font-size="10.00">mc::TransformMatrix</text>
</a>
</g>
</g>
<!-- Node9&#45;&gt;Node5 -->
<g id="edge10" class="edge"><title>Node9&#45;&gt;Node5</title>
<path fill="none" stroke="#9a32cd" stroke-dasharray="5,2" d="M222.999,-246.037C220.716,-233.67 217.845,-218.12 216.093,-208.627"/>
<polygon fill="#9a32cd" stroke="#9a32cd" points="219.624,-247.035 224.882,-256.234 226.508,-245.765 219.624,-247.035"/>
<text text-anchor="middle" x="253" y="-230" font-family="Helvetica,sans-Serif" font-size="10.00"> transformation</text>
</g>
<!-- Node10 -->
<g id="node10" class="node"><title>Node10</title>
<g id="a_node10"><a xlink:href="../../d1/d51/a00079.html" target="_top" xlink:title="mc::Vector\&lt; float, 3 \&gt;">
<polygon fill="white" stroke="black" points="138.5,-345.5 138.5,-364.5 250.5,-364.5 250.5,-345.5 138.5,-345.5"/>
<text text-anchor="middle" x="194.5" y="-352.5" font-family="Helvetica,sans-Serif" font-size="10.00">mc::Vector&lt; float, 3 &gt;</text>
</a>
</g>
</g>
<!-- Node10&#45;&gt;Node9 -->
<g id="edge11" class="edge"><title>Node10&#45;&gt;Node9</title>
<path fill="none" stroke="#9a32cd" stroke-dasharray="5,2" d="M201.226,-335.715C208.016,-317.255 218.209,-289.542 223.328,-275.625"/>
<polygon fill="#9a32cd" stroke="#9a32cd" points="197.853,-334.747 197.685,-345.34 204.422,-337.163 197.853,-334.747"/>
<text text-anchor="middle" x="238.5" y="-319" font-family="Helvetica,sans-Serif" font-size="10.00"> rotation</text>
<text text-anchor="middle" x="238.5" y="-308" font-family="Helvetica,sans-Serif" font-size="10.00">scaler</text>
<text text-anchor="middle" x="238.5" y="-297" font-family="Helvetica,sans-Serif" font-size="10.00">translation</text>
</g>
<!-- Node11 -->
<g id="node11" class="node"><title>Node11</title>
<g id="a_node11"><a xlink:href="../../d1/d1e/a00087.html" target="_top" xlink:title="mc::VectorBase\&lt; Vector\l\&lt; float, N \&gt;, float, N \&gt;">
<polygon fill="white" stroke="black" points="0,-450.5 0,-480.5 125,-480.5 125,-450.5 0,-450.5"/>
<text text-anchor="start" x="8" y="-468.5" font-family="Helvetica,sans-Serif" font-size="10.00">mc::VectorBase&lt; Vector</text>
<text text-anchor="middle" x="62.5" y="-457.5" font-family="Helvetica,sans-Serif" font-size="10.00">&lt; float, N &gt;, float, N &gt;</text>
</a>
</g>
</g>
<!-- Node11&#45;&gt;Node10 -->
<g id="edge12" class="edge"><title>Node11&#45;&gt;Node10</title>
<path fill="none" stroke="midnightblue" d="M87.8436,-443.668C117.004,-419.699 163.51,-381.472 184.104,-364.545"/>
<polygon fill="midnightblue" stroke="midnightblue" points="85.2595,-441.262 79.7567,-450.316 89.7044,-446.669 85.2595,-441.262"/>
</g>
<!-- Node12&#45;&gt;Node11 -->
<g id="edge13" class="edge"><title>Node12&#45;&gt;Node11</title>
<path fill="none" stroke="orange" stroke-dasharray="5,2" d="M78.6663,-587.562C70.7668,-583.136 63.7017,-577.409 58.5,-570 39.6944,-543.215 49.6497,-502.203 56.9765,-480.731"/>
<polygon fill="orange" stroke="orange" points="77.3591,-590.818 87.8847,-592.026 80.4101,-584.518 77.3591,-590.818"/>
<text text-anchor="start" x="58.5" y="-562" font-family="Helvetica,sans-Serif" font-size="10.00"> &lt; Vector&lt; float, N</text>
<text text-anchor="middle" x="99" y="-551" font-family="Helvetica,sans-Serif" font-size="10.00"> &gt;, float, N &gt;</text>
</g>
<!-- Node12&#45;&gt;Node14 -->
<g id="edge18" class="edge"><title>Node12&#45;&gt;Node14</title>
<path fill="none" stroke="orange" stroke-dasharray="5,2" d="M144.377,-578.184C143.834,-568.313 144.734,-557.115 149.5,-548 153.341,-540.656 159.679,-534.578 166.404,-529.745"/>
<polygon fill="orange" stroke="orange" points="140.905,-578.626 145.418,-588.212 147.867,-577.904 140.905,-578.626"/>
<text text-anchor="middle" x="204.5" y="-556.5" font-family="Helvetica,sans-Serif" font-size="10.00"> &lt; Vector&lt; T, N &gt;, T, N &gt;</text>
</g>
<!-- Node13 -->
<g id="node13" class="node"><title>Node13</title>
<g id="a_node13"><a xlink:href="../../d1/d51/a00079.html" target="_top" xlink:title="mc::Vector\&lt; T, N \&gt;">
<polygon fill="white" stroke="black" points="144,-412.5 144,-431.5 245,-431.5 245,-412.5 144,-412.5"/>
<text text-anchor="middle" x="194.5" y="-419.5" font-family="Helvetica,sans-Serif" font-size="10.00">mc::Vector&lt; T, N &gt;</text>
</a>
</g>
</g>
<!-- Node13&#45;&gt;Node10 -->
<g id="edge15" class="edge"><title>Node13&#45;&gt;Node10</title>
<path fill="none" stroke="orange" stroke-dasharray="5,2" d="M194.5,-402.037C194.5,-389.67 194.5,-374.12 194.5,-364.627"/>
<polygon fill="orange" stroke="orange" points="191,-402.234 194.5,-412.234 198,-402.234 191,-402.234"/>
<text text-anchor="middle" x="220" y="-386" font-family="Helvetica,sans-Serif" font-size="10.00"> &lt; float, 3 &gt;</text>
</g>
<!-- Node14&#45;&gt;Node13 -->
<g id="edge16" class="edge"><title>Node14&#45;&gt;Node13</title>
<path fill="none" stroke="midnightblue" d="M194.5,-489.275C194.5,-470.198 194.5,-444.709 194.5,-431.596"/>
<polygon fill="midnightblue" stroke="midnightblue" points="191,-489.359 194.5,-499.359 198,-489.359 191,-489.359"/>
</g>
</g>
</svg>
