<?xml version="1.0" encoding="UTF-8" standalone="no"?>
<!DOCTYPE svg PUBLIC "-//W3C//DTD SVG 1.1//EN"
 "http://www.w3.org/Graphics/SVG/1.1/DTD/svg11.dtd">
<!-- Generated by graphviz version 2.38.0 (20140413.2041)
 -->
<!-- Title: mc::TransformMatrix Pages: 1 -->
<svg width="319pt" height="438pt"
 viewBox="0.00 0.00 318.50 438.00" xmlns="http://www.w3.org/2000/svg" xmlns:xlink="http://www.w3.org/1999/xlink">
<g id="graph0" class="graph" transform="scale(1 1) rotate(0) translate(4 434)">
<title>mc::TransformMatrix</title>
<polygon fill="white" stroke="none" points="-4,4 -4,-434 314.5,-434 314.5,4 -4,4"/>
<!-- Node1 -->
<g id="node1" class="node"><title>Node1</title>
<polygon fill="#bfbfbf" stroke="black" points="40.5,-0.5 40.5,-19.5 146.5,-19.5 146.5,-0.5 40.5,-0.5"/>
<text text-anchor="middle" x="93.5" y="-7.5" font-family="Helvetica,sans-Serif" font-size="10.00">mc::TransformMatrix</text>
</g>
<!-- Node2 -->
<g id="node2" class="node"><title>Node2</title>
<g id="a_node2"><a xlink:href="../../db/df8/a00076.html" target="_top" xlink:title="mc::Vector\&lt; float, 3 \&gt;">
<polygon fill="white" stroke="black" points="37.5,-89.5 37.5,-108.5 149.5,-108.5 149.5,-89.5 37.5,-89.5"/>
<text text-anchor="middle" x="93.5" y="-96.5" font-family="Helvetica,sans-Serif" font-size="10.00">mc::Vector&lt; float, 3 &gt;</text>
</a>
</g>
</g>
<!-- Node2&#45;&gt;Node1 -->
<g id="edge1" class="edge"><title>Node2&#45;&gt;Node1</title>
<path fill="none" stroke="#9a32cd" stroke-dasharray="5,2" d="M93.5,-79.1946C93.5,-60.7379 93.5,-33.412 93.5,-19.6249"/>
<polygon fill="#9a32cd" stroke="#9a32cd" points="90.0001,-79.34 93.5,-89.34 97.0001,-79.3401 90.0001,-79.34"/>
<text text-anchor="middle" x="116.5" y="-63" font-family="Helvetica,sans-Serif" font-size="10.00"> rotation</text>
<text text-anchor="middle" x="116.5" y="-52" font-family="Helvetica,sans-Serif" font-size="10.00">scaler</text>
<text text-anchor="middle" x="116.5" y="-41" font-family="Helvetica,sans-Serif" font-size="10.00">translation</text>
</g>
<!-- Node3 -->
<g id="node3" class="node"><title>Node3</title>
<g id="a_node3"><a xlink:href="../../df/d5d/a00084.html" target="_top" xlink:title="mc::VectorBase\&lt; Vector\l\&lt; float, N \&gt;, float, N \&gt;">
<polygon fill="white" stroke="black" points="0,-194.5 0,-224.5 125,-224.5 125,-194.5 0,-194.5"/>
<text text-anchor="start" x="8" y="-212.5" font-family="Helvetica,sans-Serif" font-size="10.00">mc::VectorBase&lt; Vector</text>
<text text-anchor="middle" x="62.5" y="-201.5" font-family="Helvetica,sans-Serif" font-size="10.00">&lt; float, N &gt;, float, N &gt;</text>
</a>
</g>
</g>
<!-- Node3&#45;&gt;Node2 -->
<g id="edge2" class="edge"><title>Node3&#45;&gt;Node2</title>
<path fill="none" stroke="midnightblue" d="M69.3554,-184.506C76.2265,-160.457 86.4297,-124.746 91.0586,-108.545"/>
<polygon fill="midnightblue" stroke="midnightblue" points="65.9347,-183.739 66.5527,-194.316 72.6653,-185.662 65.9347,-183.739"/>
</g>
<!-- Node4 -->
<g id="node4" class="node"><title>Node4</title>
<g id="a_node4"><a xlink:href="../../df/d5d/a00084.html" target="_top" xlink:title="1&#45;dimensional vector class that supports mathmatical operations. ">
<polygon fill="white" stroke="black" points="94,-332.5 94,-362.5 215,-362.5 215,-332.5 94,-332.5"/>
<text text-anchor="start" x="102" y="-350.5" font-family="Helvetica,sans-Serif" font-size="10.00">mc::VectorBase&lt; Child,</text>
<text text-anchor="middle" x="154.5" y="-339.5" font-family="Helvetica,sans-Serif" font-size="10.00"> T, N &gt;</text>
</a>
</g>
</g>
<!-- Node4&#45;&gt;Node3 -->
<g id="edge3" class="edge"><title>Node4&#45;&gt;Node3</title>
<path fill="none" stroke="orange" stroke-dasharray="5,2" d="M84.8077,-328.141C78.9366,-324.291 73.6645,-319.634 69.5,-314 50.0157,-287.642 54.6976,-246.45 59.0324,-224.838"/>
<polygon fill="orange" stroke="orange" points="83.3529,-331.339 93.7789,-333.223 86.8035,-325.249 83.3529,-331.339"/>
<text text-anchor="start" x="69.5" y="-306" font-family="Helvetica,sans-Serif" font-size="10.00"> &lt; Vector&lt; float, N</text>
<text text-anchor="middle" x="110" y="-295" font-family="Helvetica,sans-Serif" font-size="10.00"> &gt;, float, N &gt;</text>
</g>
<!-- Node7 -->
<g id="node7" class="node"><title>Node7</title>
<g id="a_node7"><a xlink:href="../../df/d5d/a00084.html" target="_top" xlink:title="mc::VectorBase\&lt; Vector\l\&lt; T, N \&gt;, T, N \&gt;">
<polygon fill="white" stroke="black" points="92,-243.5 92,-273.5 217,-273.5 217,-243.5 92,-243.5"/>
<text text-anchor="start" x="100" y="-261.5" font-family="Helvetica,sans-Serif" font-size="10.00">mc::VectorBase&lt; Vector</text>
<text text-anchor="middle" x="154.5" y="-250.5" font-family="Helvetica,sans-Serif" font-size="10.00">&lt; T, N &gt;, T, N &gt;</text>
</a>
</g>
</g>
<!-- Node4&#45;&gt;Node7 -->
<g id="edge8" class="edge"><title>Node4&#45;&gt;Node7</title>
<path fill="none" stroke="orange" stroke-dasharray="5,2" d="M154.5,-322.09C154.5,-306.443 154.5,-286.685 154.5,-273.599"/>
<polygon fill="orange" stroke="orange" points="151,-322.134 154.5,-332.134 158,-322.134 151,-322.134"/>
<text text-anchor="middle" x="209.5" y="-300.5" font-family="Helvetica,sans-Serif" font-size="10.00"> &lt; Vector&lt; T, N &gt;, T, N &gt;</text>
</g>
<!-- Node5 -->
<g id="node5" class="node"><title>Node5</title>
<polygon fill="white" stroke="#bfbfbf" points="221,-410.5 221,-429.5 250,-429.5 250,-410.5 221,-410.5"/>
<text text-anchor="middle" x="235.5" y="-417.5" font-family="Helvetica,sans-Serif" font-size="10.00">T</text>
</g>
<!-- Node5&#45;&gt;Node4 -->
<g id="edge4" class="edge"><title>Node5&#45;&gt;Node4</title>
<path fill="none" stroke="#9a32cd" stroke-dasharray="5,2" d="M218.018,-403.784C203.962,-391.551 184.369,-374.497 170.673,-362.576"/>
<polygon fill="#9a32cd" stroke="#9a32cd" points="215.727,-406.43 225.568,-410.355 220.323,-401.15 215.727,-406.43"/>
<text text-anchor="middle" x="220.5" y="-384" font-family="Helvetica,sans-Serif" font-size="10.00"> content</text>
</g>
<!-- Node5&#45;&gt;Node7 -->
<g id="edge7" class="edge"><title>Node5&#45;&gt;Node7</title>
<path fill="none" stroke="#9a32cd" stroke-dasharray="5,2" d="M247.608,-401.822C264.467,-375.587 290.301,-325.104 265.5,-292 254.002,-276.653 235.636,-268.233 217.125,-263.709"/>
<polygon fill="#9a32cd" stroke="#9a32cd" points="244.576,-400.058 241.913,-410.313 250.39,-403.957 244.576,-400.058"/>
<text text-anchor="middle" x="292.5" y="-345" font-family="Helvetica,sans-Serif" font-size="10.00"> content</text>
</g>
<!-- Node6 -->
<g id="node6" class="node"><title>Node6</title>
<g id="a_node6"><a xlink:href="../../db/df8/a00076.html" target="_top" xlink:title="mc::Vector\&lt; T, N \&gt;">
<polygon fill="white" stroke="black" points="96,-156.5 96,-175.5 197,-175.5 197,-156.5 96,-156.5"/>
<text text-anchor="middle" x="146.5" y="-163.5" font-family="Helvetica,sans-Serif" font-size="10.00">mc::Vector&lt; T, N &gt;</text>
</a>
</g>
</g>
<!-- Node6&#45;&gt;Node2 -->
<g id="edge5" class="edge"><title>Node6&#45;&gt;Node2</title>
<path fill="none" stroke="orange" stroke-dasharray="5,2" d="M132.859,-148.27C122.525,-135.597 108.748,-118.701 100.535,-108.627"/>
<polygon fill="orange" stroke="orange" points="130.32,-150.695 139.352,-156.234 135.745,-146.272 130.32,-150.695"/>
<text text-anchor="middle" x="149" y="-130" font-family="Helvetica,sans-Serif" font-size="10.00"> &lt; float, 3 &gt;</text>
</g>
<!-- Node7&#45;&gt;Node6 -->
<g id="edge6" class="edge"><title>Node7&#45;&gt;Node6</title>
<path fill="none" stroke="midnightblue" d="M152.359,-233.275C150.672,-214.198 148.419,-188.709 147.26,-175.596"/>
<polygon fill="midnightblue" stroke="midnightblue" points="148.883,-233.706 153.25,-243.359 155.856,-233.09 148.883,-233.706"/>
</g>
</g>
</svg>
