<?xml version="1.0" encoding="UTF-8" standalone="no"?>
<!DOCTYPE svg PUBLIC "-//W3C//DTD SVG 1.1//EN"
 "http://www.w3.org/Graphics/SVG/1.1/DTD/svg11.dtd">
<!-- Generated by graphviz version 2.38.0 (20140413.2041)
 -->
<!-- Title: mc::Initializable Pages: 1 -->
<!--zoomable 788 -->
<svg id="main" version="1.1" xmlns="http://www.w3.org/2000/svg" xmlns:xlink="http://www.w3.org/1999/xlink" xml:space="preserve" onload="init(evt)">
<style type="text/css"><![CDATA[
.edge:hover path { stroke: red; }
.edge:hover polygon { stroke: red; fill: red; }
]]></style>
<script type="text/javascript"><![CDATA[
var edges = document.getElementsByTagName('g');
if (edges && edges.length) {
  for (var i=0;i<edges.length;i++) {
    if (edges[i].id.substr(0,4)=='edge') {
      edges[i].setAttribute('class','edge');
    }
  }
}
]]></script>
        <defs>
                <circle id="rim" cx="0" cy="0" r="7"/>
                <circle id="rim2" cx="0" cy="0" r="3.5"/>
                <g id="zoomPlus">
                        <use xlink:href="#rim" fill="#404040">
                                <set attributeName="fill" to="#808080" begin="zoomplus.mouseover" end="zoomplus.mouseout"/>
                        </use>
                        <path d="M-4,0h8M0,-4v8" fill="none" stroke="white" stroke-width="1.5" pointer-events="none"/>
                </g>
                <g id="zoomMin">
                        <use xlink:href="#rim" fill="#404040">
                                <set attributeName="fill" to="#808080" begin="zoomminus.mouseover" end="zoomminus.mouseout"/>
                        </use>
                        <path d="M-4,0h8" fill="none" stroke="white" stroke-width="1.5" pointer-events="none"/>
                </g>
                <g id="dirArrow">
                        <path fill="none" stroke="white" stroke-width="1.5" d="M0,-3.0v7 M-2.5,-0.5L0,-3.0L2.5,-0.5"/>
                </g>
               <g id="resetDef">
                       <use xlink:href="#rim2" fill="#404040">
                               <set attributeName="fill" to="#808080" begin="reset.mouseover" end="reset.mouseout"/>
                       </use>
               </g>
        </defs>

<script type="text/javascript">
var viewWidth = 765;
var viewHeight = 788;
var sectionId = 'dynsection-0';
</script>
<script xlink:href="../../svgpan.js"/>
<svg id="graph" class="graph">
<g id="viewport">
<title>mc::Initializable</title>
<polygon fill="white" stroke="none" points="-4,4 -4,-784 761,-784 761,4 -4,4"/>
<!-- Node1 -->
<g id="node1" class="node"><title>Node1</title>
<polygon fill="#bfbfbf" stroke="black" points="0,-266.5 0,-285.5 84,-285.5 84,-266.5 0,-266.5"/>
<text text-anchor="middle" x="42" y="-273.5" font-family="Helvetica,sans-Serif" font-size="10.00">mc::Initializable</text>
</g>
<!-- Node2 -->
<g id="node2" class="node"><title>Node2</title>
<g id="a_node2"><a xlink:href="../../d7/d7a/a00016.html" target="_top" xlink:title="Can be plugged into an Entity to allow for additional functionality by listening to events...">
<polygon fill="white" stroke="black" points="132,-684.5 132,-703.5 236,-703.5 236,-684.5 132,-684.5"/>
<text text-anchor="middle" x="184" y="-691.5" font-family="Helvetica,sans-Serif" font-size="10.00">mc::gfx::Component</text>
</a>
</g>
</g>
<!-- Node1&#45;&gt;Node2 -->
<g id="edge1" class="edge"><title>Node1&#45;&gt;Node2</title>
<path fill="none" stroke="midnightblue" d="M46.1737,-295.675C54.4916,-344.865 79.1474,-476.66 120,-580 136.128,-620.797 163.992,-665.229 176.542,-684.358"/>
<polygon fill="midnightblue" stroke="midnightblue" points="49.6146,-295.03 44.5274,-285.736 42.7087,-296.174 49.6146,-295.03"/>
</g>
<!-- Node7 -->
<g id="node7" class="node"><title>Node7</title>
<g id="a_node7"><a xlink:href="../../d7/de0/a00022.html" target="_top" xlink:title="Abstract superclass for all graphical objects. ">
<polygon fill="white" stroke="black" points="144,-551.5 144,-570.5 224,-570.5 224,-551.5 144,-551.5"/>
<text text-anchor="middle" x="184" y="-558.5" font-family="Helvetica,sans-Serif" font-size="10.00">mc::gfx::Entity</text>
</a>
</g>
</g>
<!-- Node1&#45;&gt;Node7 -->
<g id="edge6" class="edge"><title>Node1&#45;&gt;Node7</title>
<path fill="none" stroke="midnightblue" d="M46.1977,-295.818C53.6069,-337.317 74.8712,-435.198 120,-504 133.024,-523.857 154.585,-541.282 168.793,-551.481"/>
<polygon fill="midnightblue" stroke="midnightblue" points="49.6359,-295.159 44.5015,-285.892 42.7359,-296.338 49.6359,-295.159"/>
</g>
<!-- Node17 -->
<g id="node17" class="node"><title>Node17</title>
<g id="a_node17"><a xlink:href="../../dc/d3c/a00028.html" target="_top" xlink:title="mc::gfx::GraphicsContext">
<polygon fill="white" stroke="black" points="120,-399.5 120,-418.5 248,-418.5 248,-399.5 120,-399.5"/>
<text text-anchor="middle" x="184" y="-406.5" font-family="Helvetica,sans-Serif" font-size="10.00">mc::gfx::GraphicsContext</text>
</a>
</g>
</g>
<!-- Node1&#45;&gt;Node17 -->
<g id="edge16" class="edge"><title>Node1&#45;&gt;Node17</title>
<path fill="none" stroke="midnightblue" d="M54.6603,-293.889C68.5292,-314.241 93.1978,-347.672 120,-371 133.2,-382.489 150.314,-392.564 163.373,-399.448"/>
<polygon fill="midnightblue" stroke="midnightblue" points="57.5469,-291.909 49.0793,-285.541 51.7277,-295.799 57.5469,-291.909"/>
</g>
<!-- Node19 -->
<g id="node19" class="node"><title>Node19</title>
<g id="a_node19"><a xlink:href="../../d5/db6/a00042.html" target="_top" xlink:title="mc::gfx::Model">
<polygon fill="white" stroke="black" points="143.5,-342.5 143.5,-361.5 224.5,-361.5 224.5,-342.5 143.5,-342.5"/>
<text text-anchor="middle" x="184" y="-349.5" font-family="Helvetica,sans-Serif" font-size="10.00">mc::gfx::Model</text>
</a>
</g>
</g>
<!-- Node1&#45;&gt;Node19 -->
<g id="edge18" class="edge"><title>Node1&#45;&gt;Node19</title>
<path fill="none" stroke="midnightblue" d="M61.5784,-292.637C76.4682,-305.228 98.3773,-322.15 120,-333 127.454,-336.74 135.779,-339.892 143.874,-342.488"/>
<polygon fill="midnightblue" stroke="midnightblue" points="63.5307,-289.698 53.6779,-285.803 58.951,-294.992 63.5307,-289.698"/>
</g>
<!-- Node20 -->
<g id="node20" class="node"><title>Node20</title>
<g id="a_node20"><a xlink:href="../../d6/d42/a00043.html" target="_top" xlink:title="mc::gfx::ModelImpl">
<polygon fill="white" stroke="black" points="134.5,-304.5 134.5,-323.5 233.5,-323.5 233.5,-304.5 134.5,-304.5"/>
<text text-anchor="middle" x="184" y="-311.5" font-family="Helvetica,sans-Serif" font-size="10.00">mc::gfx::ModelImpl</text>
</a>
</g>
</g>
<!-- Node1&#45;&gt;Node20 -->
<g id="edge19" class="edge"><title>Node1&#45;&gt;Node20</title>
<path fill="none" stroke="midnightblue" d="M88.1176,-288.246C107.415,-293.484 129.612,-299.509 147.683,-304.414"/>
<polygon fill="midnightblue" stroke="midnightblue" points="88.8956,-284.831 78.3279,-285.589 87.0619,-291.586 88.8956,-284.831"/>
</g>
<!-- Node22 -->
<g id="node22" class="node"><title>Node22</title>
<g id="a_node22"><a xlink:href="../../d6/d97/a00045.html" target="_top" xlink:title="Represents a OpenGL object in memory. ">
<polygon fill="white" stroke="black" points="133,-266.5 133,-285.5 235,-285.5 235,-266.5 133,-266.5"/>
<text text-anchor="middle" x="184" y="-273.5" font-family="Helvetica,sans-Serif" font-size="10.00">mc::gfx::ogl::Object</text>
</a>
</g>
</g>
<!-- Node1&#45;&gt;Node22 -->
<g id="edge21" class="edge"><title>Node1&#45;&gt;Node22</title>
<path fill="none" stroke="midnightblue" d="M94.5288,-276C107.053,-276 120.426,-276 132.883,-276"/>
<polygon fill="midnightblue" stroke="midnightblue" points="94.2474,-272.5 84.2474,-276 94.2474,-279.5 94.2474,-272.5"/>
</g>
<!-- Node39 -->
<g id="node39" class="node"><title>Node39</title>
<g id="a_node39"><a xlink:href="../../d2/d79/a00051.html" target="_top" xlink:title="mc::gfx::Painter">
<polygon fill="white" stroke="black" points="141,-190.5 141,-209.5 227,-209.5 227,-190.5 141,-190.5"/>
<text text-anchor="middle" x="184" y="-197.5" font-family="Helvetica,sans-Serif" font-size="10.00">mc::gfx::Painter</text>
</a>
</g>
</g>
<!-- Node1&#45;&gt;Node39 -->
<g id="edge39" class="edge"><title>Node1&#45;&gt;Node39</title>
<path fill="none" stroke="midnightblue" d="M61.5784,-259.363C76.4682,-246.772 98.3773,-229.85 120,-219 127.454,-215.26 135.779,-212.108 143.874,-209.512"/>
<polygon fill="midnightblue" stroke="midnightblue" points="58.951,-257.008 53.6779,-266.197 63.5307,-262.302 58.951,-257.008"/>
</g>
<!-- Node40 -->
<g id="node40" class="node"><title>Node40</title>
<g id="a_node40"><a xlink:href="../../d1/d84/a00052.html" target="_top" xlink:title="mc::gfx::PainterImpl">
<polygon fill="white" stroke="black" points="132,-152.5 132,-171.5 236,-171.5 236,-152.5 132,-152.5"/>
<text text-anchor="middle" x="184" y="-159.5" font-family="Helvetica,sans-Serif" font-size="10.00">mc::gfx::PainterImpl</text>
</a>
</g>
</g>
<!-- Node1&#45;&gt;Node40 -->
<g id="edge40" class="edge"><title>Node1&#45;&gt;Node40</title>
<path fill="none" stroke="midnightblue" d="M53.2905,-257.51C66.1677,-236.038 90.1944,-201.012 120,-181 125.786,-177.115 132.391,-174.003 139.097,-171.516"/>
<polygon fill="midnightblue" stroke="midnightblue" points="50.1702,-255.914 48.1778,-266.32 56.2245,-259.428 50.1702,-255.914"/>
</g>
<!-- Node42 -->
<g id="node42" class="node"><title>Node42</title>
<g id="a_node42"><a xlink:href="../../d0/d89/a00071.html" target="_top" xlink:title="mc::gfx::Texture">
<polygon fill="white" stroke="black" points="140.5,-114.5 140.5,-133.5 227.5,-133.5 227.5,-114.5 140.5,-114.5"/>
<text text-anchor="middle" x="184" y="-121.5" font-family="Helvetica,sans-Serif" font-size="10.00">mc::gfx::Texture</text>
</a>
</g>
</g>
<!-- Node1&#45;&gt;Node42 -->
<g id="edge42" class="edge"><title>Node1&#45;&gt;Node42</title>
<path fill="none" stroke="midnightblue" d="M49.0739,-256.533C59.1238,-227.51 81.9685,-173.097 120,-143 125.912,-138.321 132.964,-134.792 140.174,-132.13"/>
<polygon fill="midnightblue" stroke="midnightblue" points="45.6578,-255.716 45.8437,-266.309 52.3044,-257.912 45.6578,-255.716"/>
</g>
<!-- Node43 -->
<g id="node43" class="node"><title>Node43</title>
<g id="a_node43"><a xlink:href="../../d1/d6e/a00073.html" target="_top" xlink:title="mc::gfx::TextureImpl">
<polygon fill="white" stroke="black" points="131.5,-228.5 131.5,-247.5 236.5,-247.5 236.5,-228.5 131.5,-228.5"/>
<text text-anchor="middle" x="184" y="-235.5" font-family="Helvetica,sans-Serif" font-size="10.00">mc::gfx::TextureImpl</text>
</a>
</g>
</g>
<!-- Node1&#45;&gt;Node43 -->
<g id="edge43" class="edge"><title>Node1&#45;&gt;Node43</title>
<path fill="none" stroke="midnightblue" d="M88.1176,-263.754C107.415,-258.516 129.612,-252.491 147.683,-247.586"/>
<polygon fill="midnightblue" stroke="midnightblue" points="87.0619,-260.414 78.3279,-266.411 88.8956,-267.169 87.0619,-260.414"/>
</g>
<!-- Node44 -->
<g id="node44" class="node"><title>Node44</title>
<g id="a_node44"><a xlink:href="../../d5/df9/a00044.html" target="_top" xlink:title="Abstract class used for doing a task in MACE. ">
<polygon fill="white" stroke="black" points="150,-475.5 150,-494.5 218,-494.5 218,-475.5 150,-475.5"/>
<text text-anchor="middle" x="184" y="-482.5" font-family="Helvetica,sans-Serif" font-size="10.00">mc::Module</text>
</a>
</g>
</g>
<!-- Node1&#45;&gt;Node44 -->
<g id="edge45" class="edge"><title>Node1&#45;&gt;Node44</title>
<path fill="none" stroke="midnightblue" d="M50.1087,-295.303C61.7872,-325.486 87.0628,-384.864 120,-428 134.591,-447.109 156.142,-464.992 169.875,-475.464"/>
<polygon fill="midnightblue" stroke="midnightblue" points="53.245,-293.701 46.4323,-285.587 46.6981,-296.179 53.245,-293.701"/>
</g>
<!-- Node47 -->
<g id="node47" class="node"><title>Node47</title>
<g id="a_node47"><a xlink:href="../../d9/d2e/a00056.html" target="_top" xlink:title="mc::Process">
<polygon fill="white" stroke="black" points="148,-76.5 148,-95.5 220,-95.5 220,-76.5 148,-76.5"/>
<text text-anchor="middle" x="184" y="-83.5" font-family="Helvetica,sans-Serif" font-size="10.00">mc::Process</text>
</a>
</g>
</g>
<!-- Node1&#45;&gt;Node47 -->
<g id="edge49" class="edge"><title>Node1&#45;&gt;Node47</title>
<path fill="none" stroke="midnightblue" d="M46.3993,-256.121C53.5286,-220.543 73.4084,-145.889 120,-105 127.814,-98.1427 138.033,-93.7597 147.96,-90.9584"/>
<polygon fill="midnightblue" stroke="midnightblue" points="42.9111,-255.734 44.5149,-266.207 49.792,-257.02 42.9111,-255.734"/>
</g>
<!-- Node48 -->
<g id="node48" class="node"><title>Node48</title>
<g id="a_node48"><a xlink:href="../../da/d24/a00068.html" target="_top" xlink:title="mc::Sound">
<polygon fill="white" stroke="black" points="152,-38.5 152,-57.5 216,-57.5 216,-38.5 152,-38.5"/>
<text text-anchor="middle" x="184" y="-45.5" font-family="Helvetica,sans-Serif" font-size="10.00">mc::Sound</text>
</a>
</g>
</g>
<!-- Node1&#45;&gt;Node48 -->
<g id="edge50" class="edge"><title>Node1&#45;&gt;Node48</title>
<path fill="none" stroke="midnightblue" d="M44.5188,-256.409C48.7694,-215.262 64.4175,-119.34 120,-67 128.65,-58.8549 140.669,-54.192 151.893,-51.5262"/>
<polygon fill="midnightblue" stroke="midnightblue" points="41.0231,-256.204 43.5985,-266.481 47.9941,-256.841 41.0231,-256.204"/>
</g>
<!-- Node3 -->
<g id="node3" class="node"><title>Node3</title>
<g id="a_node3"><a xlink:href="../../de/d5e/a00007.html" target="_top" xlink:title="mc::gfx::AlignmentComponent">
<polygon fill="white" stroke="black" points="284,-760.5 284,-779.5 432,-779.5 432,-760.5 284,-760.5"/>
<text text-anchor="middle" x="358" y="-767.5" font-family="Helvetica,sans-Serif" font-size="10.00">mc::gfx::AlignmentComponent</text>
</a>
</g>
</g>
<!-- Node2&#45;&gt;Node3 -->
<g id="edge2" class="edge"><title>Node2&#45;&gt;Node3</title>
<path fill="none" stroke="midnightblue" d="M207.285,-709.157C226.792,-721.845 256.271,-739.65 284,-751 292.969,-754.671 302.852,-757.807 312.372,-760.411"/>
<polygon fill="midnightblue" stroke="midnightblue" points="209.087,-706.152 198.815,-703.559 205.228,-711.993 209.087,-706.152"/>
</g>
<!-- Node4 -->
<g id="node4" class="node"><title>Node4</title>
<g id="a_node4"><a xlink:href="../../d2/de7/a00014.html" target="_top" xlink:title="mc::gfx::CallbackComponent">
<polygon fill="white" stroke="black" points="287,-722.5 287,-741.5 429,-741.5 429,-722.5 287,-722.5"/>
<text text-anchor="middle" x="358" y="-729.5" font-family="Helvetica,sans-Serif" font-size="10.00">mc::gfx::CallbackComponent</text>
</a>
</g>
</g>
<!-- Node2&#45;&gt;Node4 -->
<g id="edge3" class="edge"><title>Node2&#45;&gt;Node4</title>
<path fill="none" stroke="midnightblue" d="M238.196,-705.753C262.517,-711.126 290.955,-717.409 313.909,-722.48"/>
<polygon fill="midnightblue" stroke="midnightblue" points="238.922,-702.329 228.403,-703.589 237.412,-709.164 238.922,-702.329"/>
</g>
<!-- Node5 -->
<g id="node5" class="node"><title>Node5</title>
<g id="a_node5"><a xlink:href="../../db/db2/a00020.html" target="_top" xlink:title="mc::gfx::EaseComponent">
<polygon fill="white" stroke="black" points="294.5,-684.5 294.5,-703.5 421.5,-703.5 421.5,-684.5 294.5,-684.5"/>
<text text-anchor="middle" x="358" y="-691.5" font-family="Helvetica,sans-Serif" font-size="10.00">mc::gfx::EaseComponent</text>
</a>
</g>
</g>
<!-- Node2&#45;&gt;Node5 -->
<g id="edge4" class="edge"><title>Node2&#45;&gt;Node5</title>
<path fill="none" stroke="midnightblue" d="M246.237,-694C261.902,-694 278.765,-694 294.493,-694"/>
<polygon fill="midnightblue" stroke="midnightblue" points="246.14,-690.5 236.14,-694 246.14,-697.5 246.14,-690.5"/>
</g>
<!-- Node6 -->
<g id="node6" class="node"><title>Node6</title>
<g id="a_node6"><a xlink:href="../../d6/d5b/a00026.html" target="_top" xlink:title="mc::gfx::FPSComponent">
<polygon fill="white" stroke="black" points="296,-646.5 296,-665.5 420,-665.5 420,-646.5 296,-646.5"/>
<text text-anchor="middle" x="358" y="-653.5" font-family="Helvetica,sans-Serif" font-size="10.00">mc::gfx::FPSComponent</text>
</a>
</g>
</g>
<!-- Node2&#45;&gt;Node6 -->
<g id="edge5" class="edge"><title>Node2&#45;&gt;Node6</title>
<path fill="none" stroke="midnightblue" d="M238.196,-682.247C262.517,-676.874 290.955,-670.591 313.909,-665.52"/>
<polygon fill="midnightblue" stroke="midnightblue" points="237.412,-678.836 228.403,-684.411 238.922,-685.671 237.412,-678.836"/>
</g>
<!-- Node8 -->
<g id="node8" class="node"><title>Node8</title>
<g id="a_node8"><a xlink:href="../../d5/d16/a00029.html" target="_top" xlink:title="mc::gfx::GraphicsEntity">
<polygon fill="white" stroke="black" points="298.5,-608.5 298.5,-627.5 417.5,-627.5 417.5,-608.5 298.5,-608.5"/>
<text text-anchor="middle" x="358" y="-615.5" font-family="Helvetica,sans-Serif" font-size="10.00">mc::gfx::GraphicsEntity</text>
</a>
</g>
</g>
<!-- Node7&#45;&gt;Node8 -->
<g id="edge7" class="edge"><title>Node7&#45;&gt;Node8</title>
<path fill="none" stroke="midnightblue" d="M217.409,-574.493C236.586,-582.212 261.46,-591.766 284,-599 294.599,-602.402 306.207,-605.639 316.987,-608.446"/>
<polygon fill="midnightblue" stroke="midnightblue" points="218.525,-571.169 207.943,-570.647 215.89,-577.654 218.525,-571.169"/>
</g>
<!-- Node15 -->
<g id="node15" class="node"><title>Node15</title>
<g id="a_node15"><a xlink:href="../../d5/d79/a00030.html" target="_top" xlink:title="mc::gfx::Group">
<polygon fill="white" stroke="black" points="317.5,-570.5 317.5,-589.5 398.5,-589.5 398.5,-570.5 317.5,-570.5"/>
<text text-anchor="middle" x="358" y="-577.5" font-family="Helvetica,sans-Serif" font-size="10.00">mc::gfx::Group</text>
</a>
</g>
</g>
<!-- Node7&#45;&gt;Node15 -->
<g id="edge14" class="edge"><title>Node7&#45;&gt;Node15</title>
<path fill="none" stroke="midnightblue" d="M234.181,-566.433C260.503,-569.34 292.497,-572.875 317.231,-575.607"/>
<polygon fill="midnightblue" stroke="midnightblue" points="234.353,-562.931 224.029,-565.311 233.585,-569.888 234.353,-562.931"/>
</g>
<!-- Node16 -->
<g id="node16" class="node"><title>Node16</title>
<g id="a_node16"><a xlink:href="../../d1/d1e/a00087.html" target="_top" xlink:title="mc::os::WindowModule">
<polygon fill="white" stroke="black" points="298.5,-532.5 298.5,-551.5 417.5,-551.5 417.5,-532.5 298.5,-532.5"/>
<text text-anchor="middle" x="358" y="-539.5" font-family="Helvetica,sans-Serif" font-size="10.00">mc::os::WindowModule</text>
</a>
</g>
</g>
<!-- Node7&#45;&gt;Node16 -->
<g id="edge15" class="edge"><title>Node7&#45;&gt;Node16</title>
<path fill="none" stroke="midnightblue" d="M234.142,-555.572C254.106,-553.366 277.338,-550.8 298.193,-548.496"/>
<polygon fill="midnightblue" stroke="midnightblue" points="233.585,-552.112 224.029,-556.689 234.353,-559.069 233.585,-552.112"/>
</g>
<!-- Node9 -->
<g id="node9" class="node"><title>Node9</title>
<g id="a_node9"><a xlink:href="../../d3/d52/a00023.html" target="_top" xlink:title="mc::gfx::Entity2D">
<polygon fill="white" stroke="black" points="494,-608.5 494,-627.5 586,-627.5 586,-608.5 494,-608.5"/>
<text text-anchor="middle" x="540" y="-615.5" font-family="Helvetica,sans-Serif" font-size="10.00">mc::gfx::Entity2D</text>
</a>
</g>
</g>
<!-- Node8&#45;&gt;Node9 -->
<g id="edge8" class="edge"><title>Node8&#45;&gt;Node9</title>
<path fill="none" stroke="midnightblue" d="M427.952,-618C450.065,-618 473.974,-618 493.923,-618"/>
<polygon fill="midnightblue" stroke="midnightblue" points="427.939,-614.5 417.939,-618 427.939,-621.5 427.939,-614.5"/>
</g>
<!-- Node10 -->
<g id="node10" class="node"><title>Node10</title>
<g id="a_node10"><a xlink:href="../../d7/dd4/a00013.html" target="_top" xlink:title="mc::gfx::Button">
<polygon fill="white" stroke="black" points="661,-684.5 661,-703.5 744,-703.5 744,-684.5 661,-684.5"/>
<text text-anchor="middle" x="702.5" y="-691.5" font-family="Helvetica,sans-Serif" font-size="10.00">mc::gfx::Button</text>
</a>
</g>
</g>
<!-- Node9&#45;&gt;Node10 -->
<g id="edge9" class="edge"><title>Node9&#45;&gt;Node10</title>
<path fill="none" stroke="midnightblue" d="M566.058,-632.714C587.415,-644.92 619.146,-662.275 648,-675 655.666,-678.381 664.139,-681.611 672.038,-684.418"/>
<polygon fill="midnightblue" stroke="midnightblue" points="567.713,-629.628 557.302,-627.665 564.216,-635.692 567.713,-629.628"/>
</g>
<!-- Node11 -->
<g id="node11" class="node"><title>Node11</title>
<g id="a_node11"><a xlink:href="../../df/d61/a00031.html" target="_top" xlink:title="mc::gfx::Image">
<polygon fill="white" stroke="black" points="662,-646.5 662,-665.5 743,-665.5 743,-646.5 662,-646.5"/>
<text text-anchor="middle" x="702.5" y="-653.5" font-family="Helvetica,sans-Serif" font-size="10.00">mc::gfx::Image</text>
</a>
</g>
</g>
<!-- Node9&#45;&gt;Node11 -->
<g id="edge10" class="edge"><title>Node9&#45;&gt;Node11</title>
<path fill="none" stroke="midnightblue" d="M591.321,-629.914C614.061,-635.298 640.543,-641.568 661.845,-646.611"/>
<polygon fill="midnightblue" stroke="midnightblue" points="592.038,-626.487 581.501,-627.589 590.426,-633.299 592.038,-626.487"/>
</g>
<!-- Node12 -->
<g id="node12" class="node"><title>Node12</title>
<g id="a_node12"><a xlink:href="../../d8/d41/a00038.html" target="_top" xlink:title="mc::gfx::Letter">
<polygon fill="white" stroke="black" points="662.5,-608.5 662.5,-627.5 742.5,-627.5 742.5,-608.5 662.5,-608.5"/>
<text text-anchor="middle" x="702.5" y="-615.5" font-family="Helvetica,sans-Serif" font-size="10.00">mc::gfx::Letter</text>
</a>
</g>
</g>
<!-- Node9&#45;&gt;Node12 -->
<g id="edge11" class="edge"><title>Node9&#45;&gt;Node12</title>
<path fill="none" stroke="midnightblue" d="M596.249,-618C618.029,-618 642.538,-618 662.422,-618"/>
<polygon fill="midnightblue" stroke="midnightblue" points="596.135,-614.5 586.135,-618 596.135,-621.5 596.135,-614.5"/>
</g>
<!-- Node13 -->
<g id="node13" class="node"><title>Node13</title>
<g id="a_node13"><a xlink:href="../../d1/d22/a00057.html" target="_top" xlink:title="mc::gfx::ProgressBar">
<polygon fill="white" stroke="black" points="648,-570.5 648,-589.5 757,-589.5 757,-570.5 648,-570.5"/>
<text text-anchor="middle" x="702.5" y="-577.5" font-family="Helvetica,sans-Serif" font-size="10.00">mc::gfx::ProgressBar</text>
</a>
</g>
</g>
<!-- Node9&#45;&gt;Node13 -->
<g id="edge12" class="edge"><title>Node9&#45;&gt;Node13</title>
<path fill="none" stroke="midnightblue" d="M591.245,-606.104C613.805,-600.763 640.061,-594.546 661.29,-589.52"/>
<polygon fill="midnightblue" stroke="midnightblue" points="590.426,-602.701 581.501,-608.411 592.038,-609.513 590.426,-602.701"/>
</g>
<!-- Node14 -->
<g id="node14" class="node"><title>Node14</title>
<g id="a_node14"><a xlink:href="../../d2/db1/a00070.html" target="_top" xlink:title="mc::gfx::Text">
<polygon fill="white" stroke="black" points="665.5,-532.5 665.5,-551.5 739.5,-551.5 739.5,-532.5 665.5,-532.5"/>
<text text-anchor="middle" x="702.5" y="-539.5" font-family="Helvetica,sans-Serif" font-size="10.00">mc::gfx::Text</text>
</a>
</g>
</g>
<!-- Node9&#45;&gt;Node14 -->
<g id="edge13" class="edge"><title>Node9&#45;&gt;Node14</title>
<path fill="none" stroke="midnightblue" d="M566.058,-603.286C587.415,-591.08 619.146,-573.725 648,-561 655.666,-557.619 664.139,-554.389 672.038,-551.582"/>
<polygon fill="midnightblue" stroke="midnightblue" points="564.216,-600.308 557.302,-608.335 567.713,-606.372 564.216,-600.308"/>
</g>
<!-- Node18 -->
<g id="node18" class="node"><title>Node18</title>
<g id="a_node18"><a xlink:href="../../d3/dea/a00046.html" target="_top" xlink:title="mc::gfx::ogl::OGL33Context">
<polygon fill="white" stroke="black" points="289,-418.5 289,-437.5 427,-437.5 427,-418.5 289,-418.5"/>
<text text-anchor="middle" x="358" y="-425.5" font-family="Helvetica,sans-Serif" font-size="10.00">mc::gfx::ogl::OGL33Context</text>
</a>
</g>
</g>
<!-- Node17&#45;&gt;Node18 -->
<g id="edge17" class="edge"><title>Node17&#45;&gt;Node18</title>
<path fill="none" stroke="midnightblue" d="M258.118,-417.077C268.269,-418.198 278.666,-419.347 288.724,-420.458"/>
<polygon fill="midnightblue" stroke="midnightblue" points="258.394,-413.586 248.07,-415.967 257.625,-420.544 258.394,-413.586"/>
</g>
<!-- Node21 -->
<g id="node21" class="node"><title>Node21</title>
<g id="a_node21"><a xlink:href="../../d6/d2d/a00047.html" target="_top" xlink:title="mc::gfx::ogl::OGL33Model">
<polygon fill="white" stroke="black" points="474.5,-418.5 474.5,-437.5 605.5,-437.5 605.5,-418.5 474.5,-418.5"/>
<text text-anchor="middle" x="540" y="-425.5" font-family="Helvetica,sans-Serif" font-size="10.00">mc::gfx::ogl::OGL33Model</text>
</a>
</g>
</g>
<!-- Node20&#45;&gt;Node21 -->
<g id="edge20" class="edge"><title>Node20&#45;&gt;Node21</title>
<path fill="none" stroke="midnightblue" d="M237.181,-327.339C240.947,-329.021 244.597,-330.901 248,-333 267.801,-345.213 263.766,-359.518 284,-371 301.705,-381.047 419.95,-405.028 489.039,-418.464"/>
<polygon fill="midnightblue" stroke="midnightblue" points="238.241,-323.994 227.655,-323.554 235.656,-330.499 238.241,-323.994"/>
</g>
<!-- Node23 -->
<g id="node23" class="node"><title>Node23</title>
<g id="a_node23"><a xlink:href="../../df/d86/a00012.html" target="_top" xlink:title="Represents a sslBuffer of memory in the GPU. ">
<polygon fill="white" stroke="black" points="309,-304.5 309,-323.5 407,-323.5 407,-304.5 309,-304.5"/>
<text text-anchor="middle" x="358" y="-311.5" font-family="Helvetica,sans-Serif" font-size="10.00">mc::gfx::ogl::Buffer</text>
</a>
</g>
</g>
<!-- Node22&#45;&gt;Node23 -->
<g id="edge22" class="edge"><title>Node22&#45;&gt;Node23</title>
<path fill="none" stroke="midnightblue" d="M238.196,-287.753C262.517,-293.126 290.955,-299.409 313.909,-304.48"/>
<polygon fill="midnightblue" stroke="midnightblue" points="238.922,-284.329 228.403,-285.589 237.412,-291.164 238.922,-284.329"/>
</g>
<!-- Node31 -->
<g id="node31" class="node"><title>Node31</title>
<g id="a_node31"><a xlink:href="../../d0/d33/a00027.html" target="_top" xlink:title="Represents an OpenGL Framebuffer Object which allows rendering to a non&#45;screen location. ">
<polygon fill="white" stroke="black" points="295,-266.5 295,-285.5 421,-285.5 421,-266.5 295,-266.5"/>
<text text-anchor="middle" x="358" y="-273.5" font-family="Helvetica,sans-Serif" font-size="10.00">mc::gfx::ogl::FrameBuffer</text>
</a>
</g>
</g>
<!-- Node22&#45;&gt;Node31 -->
<g id="edge30" class="edge"><title>Node22&#45;&gt;Node31</title>
<path fill="none" stroke="midnightblue" d="M245.499,-276C261.476,-276 278.744,-276 294.809,-276"/>
<polygon fill="midnightblue" stroke="midnightblue" points="245.212,-272.5 235.212,-276 245.212,-279.5 245.212,-272.5"/>
</g>
<!-- Node32 -->
<g id="node32" class="node"><title>Node32</title>
<g id="a_node32"><a xlink:href="../../d7/df7/a00058.html" target="_top" xlink:title="Special object that is used for asynchronous queries of information from the GPU. ...">
<polygon fill="white" stroke="black" points="294,-228.5 294,-247.5 422,-247.5 422,-228.5 294,-228.5"/>
<text text-anchor="middle" x="358" y="-235.5" font-family="Helvetica,sans-Serif" font-size="10.00">mc::gfx::ogl::QueryObject</text>
</a>
</g>
</g>
<!-- Node22&#45;&gt;Node32 -->
<g id="edge31" class="edge"><title>Node22&#45;&gt;Node32</title>
<path fill="none" stroke="midnightblue" d="M238.196,-264.247C262.517,-258.874 290.955,-252.591 313.909,-247.52"/>
<polygon fill="midnightblue" stroke="midnightblue" points="237.412,-260.836 228.403,-266.411 238.922,-267.671 237.412,-260.836"/>
</g>
<!-- Node33 -->
<g id="node33" class="node"><title>Node33</title>
<g id="a_node33"><a xlink:href="../../d3/d8b/a00059.html" target="_top" xlink:title="Represents a render buffer for use with a `FrameBuffer. ">
<polygon fill="white" stroke="black" points="293.5,-190.5 293.5,-209.5 422.5,-209.5 422.5,-190.5 293.5,-190.5"/>
<text text-anchor="middle" x="358" y="-197.5" font-family="Helvetica,sans-Serif" font-size="10.00">mc::gfx::ogl::RenderBuffer</text>
</a>
</g>
</g>
<!-- Node22&#45;&gt;Node33 -->
<g id="edge32" class="edge"><title>Node22&#45;&gt;Node33</title>
<path fill="none" stroke="midnightblue" d="M237.181,-262.661C240.947,-260.979 244.597,-259.099 248,-257 267.801,-244.787 263.969,-230.832 284,-219 290.54,-215.137 297.864,-212.049 305.28,-209.584"/>
<polygon fill="midnightblue" stroke="midnightblue" points="235.656,-259.501 227.655,-266.446 238.241,-266.006 235.656,-259.501"/>
</g>
<!-- Node34 -->
<g id="node34" class="node"><title>Node34</title>
<g id="a_node34"><a xlink:href="../../d1/d6f/a00063.html" target="_top" xlink:title="Represents a shader object in OpenGL. ">
<polygon fill="white" stroke="black" points="306,-152.5 306,-171.5 410,-171.5 410,-152.5 306,-152.5"/>
<text text-anchor="middle" x="358" y="-159.5" font-family="Helvetica,sans-Serif" font-size="10.00">mc::gfx::ogl::Shader</text>
</a>
</g>
</g>
<!-- Node22&#45;&gt;Node34 -->
<g id="edge33" class="edge"><title>Node22&#45;&gt;Node34</title>
<path fill="none" stroke="midnightblue" d="M241.69,-261.646C243.913,-260.24 246.03,-258.695 248,-257 276.328,-232.618 255.21,-204.835 284,-181 290.355,-175.739 298.003,-171.916 305.923,-169.143"/>
<polygon fill="midnightblue" stroke="midnightblue" points="239.881,-258.643 232.681,-266.416 243.156,-264.83 239.881,-258.643"/>
</g>
<!-- Node35 -->
<g id="node35" class="node"><title>Node35</title>
<g id="a_node35"><a xlink:href="../../df/d5f/a00064.html" target="_top" xlink:title="mc::gfx::ogl::ShaderProgram">
<polygon fill="white" stroke="black" points="287.5,-114.5 287.5,-133.5 428.5,-133.5 428.5,-114.5 287.5,-114.5"/>
<text text-anchor="middle" x="358" y="-121.5" font-family="Helvetica,sans-Serif" font-size="10.00">mc::gfx::ogl::ShaderProgram</text>
</a>
</g>
</g>
<!-- Node22&#45;&gt;Node35 -->
<g id="edge34" class="edge"><title>Node22&#45;&gt;Node35</title>
<path fill="none" stroke="midnightblue" d="M243.315,-261.014C244.967,-259.78 246.537,-258.445 248,-257 285.813,-219.674 245.479,-179.596 284,-143 288.083,-139.121 292.853,-136.01 297.966,-133.517"/>
<polygon fill="midnightblue" stroke="midnightblue" points="241.195,-258.206 234.457,-266.383 244.823,-264.193 241.195,-258.206"/>
</g>
<!-- Node36 -->
<g id="node36" class="node"><title>Node36</title>
<g id="a_node36"><a xlink:href="../../d6/d2c/a00072.html" target="_top" xlink:title="mc::gfx::ogl::Texture2D">
<polygon fill="white" stroke="black" points="299,-76.5 299,-95.5 417,-95.5 417,-76.5 299,-76.5"/>
<text text-anchor="middle" x="358" y="-83.5" font-family="Helvetica,sans-Serif" font-size="10.00">mc::gfx::ogl::Texture2D</text>
</a>
</g>
</g>
<!-- Node22&#45;&gt;Node36 -->
<g id="edge35" class="edge"><title>Node22&#45;&gt;Node36</title>
<path fill="none" stroke="midnightblue" d="M243.555,-261.071C245.131,-259.82 246.62,-258.466 248,-257 295.587,-206.451 235.454,-154.629 284,-105 288.212,-100.694 293.268,-97.3213 298.728,-94.6865"/>
<polygon fill="midnightblue" stroke="midnightblue" points="241.594,-258.171 235.05,-266.503 245.362,-264.07 241.594,-258.171"/>
</g>
<!-- Node38 -->
<g id="node38" class="node"><title>Node38</title>
<g id="a_node38"><a xlink:href="../../df/d13/a00085.html" target="_top" xlink:title="mc::gfx::ogl::VertexArray">
<polygon fill="white" stroke="black" points="295.5,-342.5 295.5,-361.5 420.5,-361.5 420.5,-342.5 295.5,-342.5"/>
<text text-anchor="middle" x="358" y="-349.5" font-family="Helvetica,sans-Serif" font-size="10.00">mc::gfx::ogl::VertexArray</text>
</a>
</g>
</g>
<!-- Node22&#45;&gt;Node38 -->
<g id="edge37" class="edge"><title>Node22&#45;&gt;Node38</title>
<path fill="none" stroke="midnightblue" d="M237.181,-289.339C240.947,-291.021 244.597,-292.901 248,-295 267.801,-307.213 263.969,-321.168 284,-333 290.54,-336.863 297.864,-339.951 305.28,-342.416"/>
<polygon fill="midnightblue" stroke="midnightblue" points="238.241,-285.994 227.655,-285.554 235.656,-292.499 238.241,-285.994"/>
</g>
<!-- Node24 -->
<g id="node24" class="node"><title>Node24</title>
<g id="a_node24"><a xlink:href="../../d4/d51/a00017.html" target="_top" xlink:title="Special sslBuffer with no extra semantics to be used as a proxy in copying. ">
<polygon fill="white" stroke="black" points="468.5,-380.5 468.5,-399.5 611.5,-399.5 611.5,-380.5 468.5,-380.5"/>
<text text-anchor="middle" x="540" y="-387.5" font-family="Helvetica,sans-Serif" font-size="10.00">mc::gfx::ogl::CopyReadBuffer</text>
</a>
</g>
</g>
<!-- Node23&#45;&gt;Node24 -->
<g id="edge23" class="edge"><title>Node23&#45;&gt;Node24</title>
<path fill="none" stroke="midnightblue" d="M416.869,-325.788C422.148,-327.826 427.278,-330.211 432,-333 452.031,-344.832 448.009,-359.1 468,-371 474.469,-374.851 481.727,-377.936 489.068,-380.404"/>
<polygon fill="midnightblue" stroke="midnightblue" points="417.858,-322.427 407.263,-322.48 415.579,-329.045 417.858,-322.427"/>
</g>
<!-- Node25 -->
<g id="node25" class="node"><title>Node25</title>
<g id="a_node25"><a xlink:href="../../d1/d2b/a00018.html" target="_top" xlink:title="Special sslBuffer with no extra semantics to be used as a proxy in copying. ">
<polygon fill="white" stroke="black" points="468,-342.5 468,-361.5 612,-361.5 612,-342.5 468,-342.5"/>
<text text-anchor="middle" x="540" y="-349.5" font-family="Helvetica,sans-Serif" font-size="10.00">mc::gfx::ogl::CopyWriteBuffer</text>
</a>
</g>
</g>
<!-- Node23&#45;&gt;Node25 -->
<g id="edge24" class="edge"><title>Node23&#45;&gt;Node25</title>
<path fill="none" stroke="midnightblue" d="M414.331,-325.681C439.857,-331.07 469.776,-337.386 493.905,-342.48"/>
<polygon fill="midnightblue" stroke="midnightblue" points="414.929,-322.23 404.422,-323.589 413.483,-329.079 414.929,-322.23"/>
</g>
<!-- Node26 -->
<g id="node26" class="node"><title>Node26</title>
<g id="a_node26"><a xlink:href="../../de/d11/a00021.html" target="_top" xlink:title="Stores element indices to save vertex data. ">
<polygon fill="white" stroke="black" points="473,-304.5 473,-323.5 607,-323.5 607,-304.5 473,-304.5"/>
<text text-anchor="middle" x="540" y="-311.5" font-family="Helvetica,sans-Serif" font-size="10.00">mc::gfx::ogl::ElementBuffer</text>
</a>
</g>
</g>
<!-- Node23&#45;&gt;Node26 -->
<g id="edge25" class="edge"><title>Node23&#45;&gt;Node26</title>
<path fill="none" stroke="midnightblue" d="M417.393,-314C435.048,-314 454.563,-314 472.696,-314"/>
<polygon fill="midnightblue" stroke="midnightblue" points="417.237,-310.5 407.237,-314 417.237,-317.5 417.237,-310.5"/>
</g>
<!-- Node27 -->
<g id="node27" class="node"><title>Node27</title>
<g id="a_node27"><a xlink:href="../../dc/dee/a00053.html" target="_top" xlink:title="Special buffer that excels at asynchronous pixel transfer operations. ">
<polygon fill="white" stroke="black" points="468.5,-266.5 468.5,-285.5 611.5,-285.5 611.5,-266.5 468.5,-266.5"/>
<text text-anchor="middle" x="540" y="-273.5" font-family="Helvetica,sans-Serif" font-size="10.00">mc::gfx::ogl::PixelPackBuffer</text>
</a>
</g>
</g>
<!-- Node23&#45;&gt;Node27 -->
<g id="edge26" class="edge"><title>Node23&#45;&gt;Node27</title>
<path fill="none" stroke="midnightblue" d="M414.331,-302.319C439.857,-296.93 469.776,-290.614 493.905,-285.52"/>
<polygon fill="midnightblue" stroke="midnightblue" points="413.483,-298.921 404.422,-304.411 414.929,-305.77 413.483,-298.921"/>
</g>
<!-- Node28 -->
<g id="node28" class="node"><title>Node28</title>
<g id="a_node28"><a xlink:href="../../d1/dea/a00054.html" target="_top" xlink:title="Special buffer that excels at asynchronous pixel transfer operations. ">
<polygon fill="white" stroke="black" points="476,-217 476,-247 604,-247 604,-217 476,-217"/>
<text text-anchor="start" x="484" y="-235" font-family="Helvetica,sans-Serif" font-size="10.00">mc::gfx::ogl::PixelUnpack</text>
<text text-anchor="middle" x="540" y="-224" font-family="Helvetica,sans-Serif" font-size="10.00">Buffer</text>
</a>
</g>
</g>
<!-- Node23&#45;&gt;Node28 -->
<g id="edge27" class="edge"><title>Node23&#45;&gt;Node28</title>
<path fill="none" stroke="midnightblue" d="M416.869,-302.212C422.148,-300.174 427.278,-297.789 432,-295 452.031,-283.168 448.483,-269.662 468,-257 473.811,-253.23 480.258,-249.95 486.83,-247.118"/>
<polygon fill="midnightblue" stroke="midnightblue" points="415.579,-298.955 407.263,-305.52 417.858,-305.573 415.579,-298.955"/>
</g>
<!-- Node29 -->
<g id="node29" class="node"><title>Node29</title>
<g id="a_node29"><a xlink:href="../../d9/da5/a00075.html" target="_top" xlink:title="Stores uniform data for a shader in the form of a sslBuffer. ">
<polygon fill="white" stroke="black" points="474.5,-178.5 474.5,-197.5 605.5,-197.5 605.5,-178.5 474.5,-178.5"/>
<text text-anchor="middle" x="540" y="-185.5" font-family="Helvetica,sans-Serif" font-size="10.00">mc::gfx::ogl::UniformBuffer</text>
</a>
</g>
</g>
<!-- Node23&#45;&gt;Node29 -->
<g id="edge28" class="edge"><title>Node23&#45;&gt;Node29</title>
<path fill="none" stroke="midnightblue" d="M416.809,-304.541C422.321,-302.049 427.516,-298.921 432,-295 463.81,-267.182 436.286,-234.927 468,-207 472.405,-203.121 477.52,-200.022 482.946,-197.549"/>
<polygon fill="midnightblue" stroke="midnightblue" points="415.402,-301.332 407.304,-308.163 417.894,-307.873 415.402,-301.332"/>
</g>
<!-- Node30 -->
<g id="node30" class="node"><title>Node30</title>
<g id="a_node30"><a xlink:href="../../da/d2a/a00086.html" target="_top" xlink:title="Stores vertex data for a `VertexArray. ">
<polygon fill="white" stroke="black" points="476.5,-140.5 476.5,-159.5 603.5,-159.5 603.5,-140.5 476.5,-140.5"/>
<text text-anchor="middle" x="540" y="-147.5" font-family="Helvetica,sans-Serif" font-size="10.00">mc::gfx::ogl::VertexBuffer</text>
</a>
</g>
</g>
<!-- Node23&#45;&gt;Node30 -->
<g id="edge29" class="edge"><title>Node23&#45;&gt;Node30</title>
<path fill="none" stroke="midnightblue" d="M416.801,-305.246C422.402,-302.629 427.618,-299.279 432,-295 473.667,-254.308 426.473,-209.835 468,-169 471.912,-165.153 476.513,-162.062 481.462,-159.582"/>
<polygon fill="midnightblue" stroke="midnightblue" points="415.161,-302.127 407.093,-308.993 417.682,-308.657 415.161,-302.127"/>
</g>
<!-- Node37 -->
<g id="node37" class="node"><title>Node37</title>
<g id="a_node37"><a xlink:href="../../d5/de0/a00050.html" target="_top" xlink:title="mc::gfx::ogl::OGL33Texture">
<polygon fill="white" stroke="black" points="471.5,-57.5 471.5,-76.5 608.5,-76.5 608.5,-57.5 471.5,-57.5"/>
<text text-anchor="middle" x="540" y="-64.5" font-family="Helvetica,sans-Serif" font-size="10.00">mc::gfx::ogl::OGL33Texture</text>
</a>
</g>
</g>
<!-- Node36&#45;&gt;Node37 -->
<g id="edge36" class="edge"><title>Node36&#45;&gt;Node37</title>
<path fill="none" stroke="#8b1a1a" d="M427.726,-78.7456C442.067,-77.2318 457.173,-75.6373 471.471,-74.1281"/>
<polygon fill="#8b1a1a" stroke="#8b1a1a" points="427.018,-75.3008 417.441,-79.8312 427.753,-82.2621 427.018,-75.3008"/>
</g>
<!-- Node38&#45;&gt;Node21 -->
<g id="edge38" class="edge"><title>Node38&#45;&gt;Node21</title>
<path fill="none" stroke="#8b1a1a" d="M407.896,-364.87C416.209,-367.949 424.553,-371.639 432,-376 450.73,-386.969 448.97,-398.561 468,-409 475.048,-412.866 482.927,-415.98 490.801,-418.478"/>
<polygon fill="#8b1a1a" stroke="#8b1a1a" points="408.802,-361.481 398.207,-361.533 406.522,-368.099 408.802,-361.481"/>
</g>
<!-- Node41 -->
<g id="node41" class="node"><title>Node41</title>
<g id="a_node41"><a xlink:href="../../d4/dca/a00048.html" target="_top" xlink:title="mc::gfx::ogl::OGL33Painter">
<polygon fill="white" stroke="black" points="290.5,-0.5 290.5,-19.5 425.5,-19.5 425.5,-0.5 290.5,-0.5"/>
<text text-anchor="middle" x="358" y="-7.5" font-family="Helvetica,sans-Serif" font-size="10.00">mc::gfx::ogl::OGL33Painter</text>
</a>
</g>
</g>
<!-- Node40&#45;&gt;Node41 -->
<g id="edge41" class="edge"><title>Node40&#45;&gt;Node41</title>
<path fill="none" stroke="midnightblue" d="M242.76,-147.376C244.615,-146.042 246.371,-144.587 248,-143 284.543,-107.398 247.9,-70.0508 284,-34 290.325,-27.6839 298.339,-23.0299 306.726,-19.6007"/>
<polygon fill="midnightblue" stroke="midnightblue" points="240.932,-144.391 234.095,-152.484 244.487,-150.421 240.932,-144.391"/>
</g>
<!-- Node43&#45;&gt;Node37 -->
<g id="edge44" class="edge"><title>Node43&#45;&gt;Node37</title>
<path fill="none" stroke="midnightblue" d="M244.039,-222.682C245.436,-221.541 246.762,-220.315 248,-219 295.587,-168.451 229.546,-110.064 284,-67 351.192,-13.8629 462.496,-41.0542 512.839,-57.4984"/>
<polygon fill="midnightblue" stroke="midnightblue" points="241.821,-219.95 235.357,-228.344 245.645,-225.813 241.821,-219.95"/>
</g>
<!-- Node44&#45;&gt;Node16 -->
<g id="edge48" class="edge"><title>Node44&#45;&gt;Node16</title>
<path fill="none" stroke="midnightblue" d="M217.409,-498.493C236.586,-506.212 261.46,-515.766 284,-523 294.599,-526.402 306.207,-529.639 316.987,-532.446"/>
<polygon fill="midnightblue" stroke="midnightblue" points="218.525,-495.169 207.943,-494.647 215.89,-501.654 218.525,-495.169"/>
</g>
<!-- Node45 -->
<g id="node45" class="node"><title>Node45</title>
<g id="a_node45"><a xlink:href="../../d4/dee/a00008.html" target="_top" xlink:title="mc::AudioModule">
<polygon fill="white" stroke="black" points="312,-494.5 312,-513.5 404,-513.5 404,-494.5 312,-494.5"/>
<text text-anchor="middle" x="358" y="-501.5" font-family="Helvetica,sans-Serif" font-size="10.00">mc::AudioModule</text>
</a>
</g>
</g>
<!-- Node44&#45;&gt;Node45 -->
<g id="edge46" class="edge"><title>Node44&#45;&gt;Node45</title>
<path fill="none" stroke="midnightblue" d="M228.297,-489.783C253.823,-492.602 286.075,-496.165 311.907,-499.019"/>
<polygon fill="midnightblue" stroke="midnightblue" points="228.487,-486.283 218.163,-488.663 227.719,-493.24 228.487,-486.283"/>
</g>
<!-- Node46 -->
<g id="node46" class="node"><title>Node46</title>
<g id="a_node46"><a xlink:href="../../d9/db3/a00066.html" target="_top" xlink:title="mc::os::SignalModule">
<polygon fill="white" stroke="black" points="302.5,-456.5 302.5,-475.5 413.5,-475.5 413.5,-456.5 302.5,-456.5"/>
<text text-anchor="middle" x="358" y="-463.5" font-family="Helvetica,sans-Serif" font-size="10.00">mc::os::SignalModule</text>
</a>
</g>
</g>
<!-- Node44&#45;&gt;Node46 -->
<g id="edge47" class="edge"><title>Node44&#45;&gt;Node46</title>
<path fill="none" stroke="midnightblue" d="M228.393,-480.207C250.816,-477.73 278.411,-474.681 302.283,-472.044"/>
<polygon fill="midnightblue" stroke="midnightblue" points="227.719,-476.76 218.163,-481.337 228.487,-483.717 227.719,-476.76"/>
</g>
</g>
</svg>
        <g id="navigator" transform="translate(0 0)" fill="#404254">
                <rect fill="#f2f5e9" fill-opacity="0.5" stroke="#606060" stroke-width=".5" x="0" y="0" width="60" height="60"/>
                <use id="zoomplus" xlink:href="#zoomPlus" x="17" y="9" onmousedown="handleZoom(evt,'in')"/>
                <use id="zoomminus" xlink:href="#zoomMin" x="42" y="9" onmousedown="handleZoom(evt,'out')"/>
                <use id="reset" xlink:href="#resetDef" x="30" y="36" onmousedown="handleReset()"/>
                <g id="arrowUp" xlink:href="#dirArrow" transform="translate(30 24)" onmousedown="handlePan(0,-1)">
                  <use xlink:href="#rim" fill="#404040">
                        <set attributeName="fill" to="#808080" begin="arrowUp.mouseover" end="arrowUp.mouseout"/>
                  </use>
                  <path fill="none" stroke="white" stroke-width="1.5" d="M0,-3.0v7 M-2.5,-0.5L0,-3.0L2.5,-0.5"/>
                </g>
                <g id="arrowRight" xlink:href="#dirArrow" transform="rotate(90) translate(36 -43)" onmousedown="handlePan(1,0)">
                  <use xlink:href="#rim" fill="#404040">
                        <set attributeName="fill" to="#808080" begin="arrowRight.mouseover" end="arrowRight.mouseout"/>
                  </use>
                  <path fill="none" stroke="white" stroke-width="1.5" d="M0,-3.0v7 M-2.5,-0.5L0,-3.0L2.5,-0.5"/>
                </g>
                <g id="arrowDown" xlink:href="#dirArrow" transform="rotate(180) translate(-30 -48)" onmousedown="handlePan(0,1)">
                  <use xlink:href="#rim" fill="#404040">
                        <set attributeName="fill" to="#808080" begin="arrowDown.mouseover" end="arrowDown.mouseout"/>
                  </use>
                  <path fill="none" stroke="white" stroke-width="1.5" d="M0,-3.0v7 M-2.5,-0.5L0,-3.0L2.5,-0.5"/>
                </g>
                <g id="arrowLeft" xlink:href="#dirArrow" transform="rotate(270) translate(-36 17)" onmousedown="handlePan(-1,0)">
                  <use xlink:href="#rim" fill="#404040">
                        <set attributeName="fill" to="#808080" begin="arrowLeft.mouseover" end="arrowLeft.mouseout"/>
                  </use>
                  <path fill="none" stroke="white" stroke-width="1.5" d="M0,-3.0v7 M-2.5,-0.5L0,-3.0L2.5,-0.5"/>
                </g>
        </g>
        <svg viewBox="0 0 15 15" width="100%" height="30px" preserveAspectRatio="xMaxYMin meet">
         <g id="arrow_out" transform="scale(0.3 0.3)">
          <a xlink:href="a00166_org.svg" target="_base">
           <rect id="button" ry="5" rx="5" y="6" x="6" height="38" width="38"
                fill="#f2f5e9" fill-opacity="0.5" stroke="#606060" stroke-width="1.0"/>
           <path id="arrow"
             d="M 11.500037,31.436501 C 11.940474,20.09759 22.043105,11.32322 32.158766,21.979434 L 37.068811,17.246167 C 37.068811,17.246167 37.088388,32 37.088388,32 L 22.160133,31.978069 C 22.160133,31.978069 26.997745,27.140456 26.997745,27.140456 C 18.528582,18.264221 13.291696,25.230495 11.500037,31.436501 z"
             style="fill:#404040;"/>
          </a>
         </g>
        </svg>
</svg>
