<?xml version="1.0" encoding="UTF-8" standalone="no"?>
<!DOCTYPE svg PUBLIC "-//W3C//DTD SVG 1.1//EN"
 "http://www.w3.org/Graphics/SVG/1.1/DTD/svg11.dtd">
<!-- Generated by graphviz version 2.38.0 (20140413.2041)
 -->
<!-- Title: mc::gfx::Letter Pages: 1 -->
<!--zoomable 697 -->
<svg id="main" version="1.1" xmlns="http://www.w3.org/2000/svg" xmlns:xlink="http://www.w3.org/1999/xlink" xml:space="preserve" onload="init(evt)">
<style type="text/css"><![CDATA[
.edge:hover path { stroke: red; }
.edge:hover polygon { stroke: red; fill: red; }
]]></style>
<script type="text/javascript"><![CDATA[
var edges = document.getElementsByTagName('g');
if (edges && edges.length) {
  for (var i=0;i<edges.length;i++) {
    if (edges[i].id.substr(0,4)=='edge') {
      edges[i].setAttribute('class','edge');
    }
  }
}
]]></script>
        <defs>
                <circle id="rim" cx="0" cy="0" r="7"/>
                <circle id="rim2" cx="0" cy="0" r="3.5"/>
                <g id="zoomPlus">
                        <use xlink:href="#rim" fill="#404040">
                                <set attributeName="fill" to="#808080" begin="zoomplus.mouseover" end="zoomplus.mouseout"/>
                        </use>
                        <path d="M-4,0h8M0,-4v8" fill="none" stroke="white" stroke-width="1.5" pointer-events="none"/>
                </g>
                <g id="zoomMin">
                        <use xlink:href="#rim" fill="#404040">
                                <set attributeName="fill" to="#808080" begin="zoomminus.mouseover" end="zoomminus.mouseout"/>
                        </use>
                        <path d="M-4,0h8" fill="none" stroke="white" stroke-width="1.5" pointer-events="none"/>
                </g>
                <g id="dirArrow">
                        <path fill="none" stroke="white" stroke-width="1.5" d="M0,-3.0v7 M-2.5,-0.5L0,-3.0L2.5,-0.5"/>
                </g>
               <g id="resetDef">
                       <use xlink:href="#rim2" fill="#404040">
                               <set attributeName="fill" to="#808080" begin="reset.mouseover" end="reset.mouseout"/>
                       </use>
               </g>
        </defs>

<script type="text/javascript">
var viewWidth = 356;
var viewHeight = 697;
var sectionId = 'dynsection-1';
</script>
<script xlink:href="../../svgpan.js"/>
<svg id="graph" class="graph">
<g id="viewport">
<title>mc::gfx::Letter</title>
<polygon fill="white" stroke="none" points="-4,4 -4,-693 351.5,-693 351.5,4 -4,4"/>
<!-- Node1 -->
<g id="node1" class="node"><title>Node1</title>
<polygon fill="#bfbfbf" stroke="black" points="182.5,-0.5 182.5,-19.5 262.5,-19.5 262.5,-0.5 182.5,-0.5"/>
<text text-anchor="middle" x="222.5" y="-7.5" font-family="Helvetica,sans-Serif" font-size="10.00">mc::gfx::Letter</text>
</g>
<!-- Node2 -->
<g id="node2" class="node"><title>Node2</title>
<g id="a_node2"><a xlink:href="../../d3/d52/a00023.html" target="_top" xlink:title="mc::gfx::Entity2D">
<polygon fill="white" stroke="black" points="176.5,-57.5 176.5,-76.5 268.5,-76.5 268.5,-57.5 176.5,-57.5"/>
<text text-anchor="middle" x="222.5" y="-64.5" font-family="Helvetica,sans-Serif" font-size="10.00">mc::gfx::Entity2D</text>
</a>
</g>
</g>
<!-- Node2&#45;&gt;Node1 -->
<g id="edge1" class="edge"><title>Node2&#45;&gt;Node1</title>
<path fill="none" stroke="midnightblue" d="M222.5,-47.1166C222.5,-37.8173 222.5,-27.0557 222.5,-19.7149"/>
<polygon fill="midnightblue" stroke="midnightblue" points="219,-47.4062 222.5,-57.4063 226,-47.4063 219,-47.4062"/>
</g>
<!-- Node3 -->
<g id="node3" class="node"><title>Node3</title>
<g id="a_node3"><a xlink:href="../../d5/d16/a00029.html" target="_top" xlink:title="mc::gfx::GraphicsEntity">
<polygon fill="white" stroke="black" points="163,-120 163,-139 282,-139 282,-120 163,-120"/>
<text text-anchor="middle" x="222.5" y="-127" font-family="Helvetica,sans-Serif" font-size="10.00">mc::gfx::GraphicsEntity</text>
</a>
</g>
</g>
<!-- Node3&#45;&gt;Node2 -->
<g id="edge2" class="edge"><title>Node3&#45;&gt;Node2</title>
<path fill="none" stroke="midnightblue" d="M222.5,-109.503C222.5,-98.5003 222.5,-85.182 222.5,-76.6521"/>
<polygon fill="midnightblue" stroke="midnightblue" points="219,-109.832 222.5,-119.832 226,-109.832 219,-109.832"/>
</g>
<!-- Node4 -->
<g id="node4" class="node"><title>Node4</title>
<g id="a_node4"><a xlink:href="../../d7/de0/a00022.html" target="_top" xlink:title="Abstract superclass for all graphical objects. ">
<polygon fill="white" stroke="black" points="152.5,-192.5 152.5,-211.5 232.5,-211.5 232.5,-192.5 152.5,-192.5"/>
<text text-anchor="middle" x="192.5" y="-199.5" font-family="Helvetica,sans-Serif" font-size="10.00">mc::gfx::Entity</text>
</a>
</g>
</g>
<!-- Node4&#45;&gt;Node3 -->
<g id="edge3" class="edge"><title>Node4&#45;&gt;Node3</title>
<path fill="none" stroke="midnightblue" d="M202.953,-183.215C204.567,-180.186 206.146,-177.036 207.5,-174 212.772,-162.181 217.378,-147.901 220.05,-139.007"/>
<polygon fill="midnightblue" stroke="midnightblue" points="199.751,-181.769 197.903,-192.201 205.853,-185.198 199.751,-181.769"/>
</g>
<!-- Node6 -->
<g id="node6" class="node"><title>Node6</title>
<polygon fill="white" stroke="#bfbfbf" points="42,-114.5 42,-144.5 145,-144.5 145,-114.5 42,-114.5"/>
<text text-anchor="start" x="50" y="-132.5" font-family="Helvetica,sans-Serif" font-size="10.00">std::vector&lt; mc::gfx</text>
<text text-anchor="middle" x="93.5" y="-121.5" font-family="Helvetica,sans-Serif" font-size="10.00">::Entity * &gt;</text>
</g>
<!-- Node4&#45;&gt;Node6 -->
<g id="edge6" class="edge"><title>Node4&#45;&gt;Node6</title>
<path fill="none" stroke="#9a32cd" stroke-dasharray="5,2" d="M142.325,-198.753C124.84,-195.295 106.789,-188.173 95.5,-174 88.9998,-165.84 88.9265,-153.836 90.2399,-144.505"/>
<polygon fill="#9a32cd" stroke="#9a32cd" points="142.07,-202.257 152.499,-200.39 143.182,-195.345 142.07,-202.257"/>
<text text-anchor="middle" x="117" y="-166" font-family="Helvetica,sans-Serif" font-size="10.00"> elements</text>
</g>
<!-- Node5 -->
<g id="node5" class="node"><title>Node5</title>
<g id="a_node5"><a xlink:href="../../d4/d8c/a00035.html" target="_top" xlink:title="mc::Initializable">
<polygon fill="white" stroke="black" points="263.5,-259.5 263.5,-278.5 347.5,-278.5 347.5,-259.5 263.5,-259.5"/>
<text text-anchor="middle" x="305.5" y="-266.5" font-family="Helvetica,sans-Serif" font-size="10.00">mc::Initializable</text>
</a>
</g>
</g>
<!-- Node5&#45;&gt;Node4 -->
<g id="edge4" class="edge"><title>Node5&#45;&gt;Node4</title>
<path fill="none" stroke="midnightblue" d="M290.222,-252.517C282.188,-244.996 271.872,-236.255 261.5,-230 248.832,-222.36 233.622,-216.136 220.709,-211.597"/>
<polygon fill="midnightblue" stroke="midnightblue" points="287.798,-255.042 297.412,-259.495 292.673,-250.019 287.798,-255.042"/>
</g>
<!-- Node6&#45;&gt;Node4 -->
<g id="edge5" class="edge"><title>Node6&#45;&gt;Node4</title>
<path fill="none" stroke="#9a32cd" stroke-dasharray="5,2" d="M124.32,-150.506C130.394,-154.571 136.685,-158.869 142.5,-163 156.187,-172.725 171.501,-184.501 181.531,-192.341"/>
<polygon fill="#9a32cd" stroke="#9a32cd" points="125.926,-147.371 115.657,-144.763 122.058,-153.206 125.926,-147.371"/>
<text text-anchor="middle" x="175" y="-166" font-family="Helvetica,sans-Serif" font-size="10.00"> children</text>
</g>
<!-- Node7 -->
<g id="node7" class="node"><title>Node7</title>
<g id="a_node7"><a xlink:title="STL class. ">
<polygon fill="white" stroke="#bfbfbf" points="0,-552.5 0,-571.5 85,-571.5 85,-552.5 0,-552.5"/>
<text text-anchor="middle" x="42.5" y="-559.5" font-family="Helvetica,sans-Serif" font-size="10.00">std::vector&lt; T &gt;</text>
</a>
</g>
</g>
<!-- Node7&#45;&gt;Node6 -->
<g id="edge7" class="edge"><title>Node7&#45;&gt;Node6</title>
<path fill="none" stroke="orange" stroke-dasharray="5,2" d="M42.5,-542.162C42.5,-523.662 42.5,-494.639 42.5,-469.5 42.5,-469.5 42.5,-469.5 42.5,-201 42.5,-178.038 60.4795,-157.49 75.0878,-144.583"/>
<polygon fill="orange" stroke="orange" points="39.0001,-542.422 42.5,-552.422 46.0001,-542.422 39.0001,-542.422"/>
<text text-anchor="middle" x="88.5" y="-355.5" font-family="Helvetica,sans-Serif" font-size="10.00"> &lt; mc::gfx::Entity * &gt;</text>
</g>
<!-- Node8 -->
<g id="node8" class="node"><title>Node8</title>
<polygon fill="white" stroke="#bfbfbf" points="158,-669.5 158,-688.5 187,-688.5 187,-669.5 158,-669.5"/>
<text text-anchor="middle" x="172.5" y="-676.5" font-family="Helvetica,sans-Serif" font-size="10.00">T</text>
</g>
<!-- Node8&#45;&gt;Node7 -->
<g id="edge8" class="edge"><title>Node8&#45;&gt;Node7</title>
<path fill="none" stroke="#9a32cd" stroke-dasharray="5,2" d="M148.848,-666.193C141.094,-661.866 132.643,-656.636 125.5,-651 93.5155,-625.762 62.3423,-588.239 49.1188,-571.544"/>
<polygon fill="#9a32cd" stroke="#9a32cd" points="147.354,-669.363 157.823,-670.99 150.653,-663.19 147.354,-669.363"/>
<text text-anchor="middle" x="147" y="-643" font-family="Helvetica,sans-Serif" font-size="10.00"> elements</text>
</g>
<!-- Node12 -->
<g id="node12" class="node"><title>Node12</title>
<g id="a_node12"><a xlink:href="../../df/d5d/a00084.html" target="_top" xlink:title="1&#45;dimensional vector class that supports mathmatical operations. ">
<polygon fill="white" stroke="black" points="112,-591.5 112,-621.5 233,-621.5 233,-591.5 112,-591.5"/>
<text text-anchor="start" x="120" y="-609.5" font-family="Helvetica,sans-Serif" font-size="10.00">mc::VectorBase&lt; Child,</text>
<text text-anchor="middle" x="172.5" y="-598.5" font-family="Helvetica,sans-Serif" font-size="10.00"> T, N &gt;</text>
</a>
</g>
</g>
<!-- Node8&#45;&gt;Node12 -->
<g id="edge13" class="edge"><title>Node8&#45;&gt;Node12</title>
<path fill="none" stroke="#9a32cd" stroke-dasharray="5,2" d="M172.5,-659.236C172.5,-647.408 172.5,-632.383 172.5,-621.576"/>
<polygon fill="#9a32cd" stroke="#9a32cd" points="169,-659.355 172.5,-669.355 176,-659.355 169,-659.355"/>
<text text-anchor="middle" x="190.5" y="-643" font-family="Helvetica,sans-Serif" font-size="10.00"> content</text>
</g>
<!-- Node14 -->
<g id="node14" class="node"><title>Node14</title>
<g id="a_node14"><a xlink:href="../../df/d5d/a00084.html" target="_top" xlink:title="mc::VectorBase\&lt; Vector\l\&lt; T, N \&gt;, T, N \&gt;">
<polygon fill="white" stroke="black" points="150,-502.5 150,-532.5 275,-532.5 275,-502.5 150,-502.5"/>
<text text-anchor="start" x="158" y="-520.5" font-family="Helvetica,sans-Serif" font-size="10.00">mc::VectorBase&lt; Vector</text>
<text text-anchor="middle" x="212.5" y="-509.5" font-family="Helvetica,sans-Serif" font-size="10.00">&lt; T, N &gt;, T, N &gt;</text>
</a>
</g>
</g>
<!-- Node8&#45;&gt;Node14 -->
<g id="edge16" class="edge"><title>Node8&#45;&gt;Node14</title>
<path fill="none" stroke="#9a32cd" stroke-dasharray="5,2" d="M196.978,-668.455C230.761,-653.767 290.249,-622.073 314.5,-573 318.832,-564.234 320.27,-558.894 314.5,-551 305.068,-538.096 290.462,-530.194 275.223,-525.39"/>
<polygon fill="#9a32cd" stroke="#9a32cd" points="195.261,-665.38 187.387,-672.468 197.963,-671.837 195.261,-665.38"/>
<text text-anchor="middle" x="320.5" y="-604" font-family="Helvetica,sans-Serif" font-size="10.00"> content</text>
</g>
<!-- Node9 -->
<g id="node9" class="node"><title>Node9</title>
<g id="a_node9"><a xlink:href="../../db/db6/a00074.html" target="_top" xlink:title="Matrix&#45;based class that allows for the easy creation and management of transformation matrices...">
<polygon fill="white" stroke="black" points="139.5,-259.5 139.5,-278.5 245.5,-278.5 245.5,-259.5 139.5,-259.5"/>
<text text-anchor="middle" x="192.5" y="-266.5" font-family="Helvetica,sans-Serif" font-size="10.00">mc::TransformMatrix</text>
</a>
</g>
</g>
<!-- Node9&#45;&gt;Node4 -->
<g id="edge9" class="edge"><title>Node9&#45;&gt;Node4</title>
<path fill="none" stroke="#9a32cd" stroke-dasharray="5,2" d="M192.5,-249.037C192.5,-236.67 192.5,-221.12 192.5,-211.627"/>
<polygon fill="#9a32cd" stroke="#9a32cd" points="189,-249.234 192.5,-259.234 196,-249.234 189,-249.234"/>
<text text-anchor="middle" x="225" y="-233" font-family="Helvetica,sans-Serif" font-size="10.00"> transformation</text>
</g>
<!-- Node10 -->
<g id="node10" class="node"><title>Node10</title>
<g id="a_node10"><a xlink:href="../../db/df8/a00076.html" target="_top" xlink:title="mc::Vector\&lt; float, 3 \&gt;">
<polygon fill="white" stroke="black" points="152.5,-348.5 152.5,-367.5 264.5,-367.5 264.5,-348.5 152.5,-348.5"/>
<text text-anchor="middle" x="208.5" y="-355.5" font-family="Helvetica,sans-Serif" font-size="10.00">mc::Vector&lt; float, 3 &gt;</text>
</a>
</g>
</g>
<!-- Node10&#45;&gt;Node9 -->
<g id="edge10" class="edge"><title>Node10&#45;&gt;Node9</title>
<path fill="none" stroke="#9a32cd" stroke-dasharray="5,2" d="M205.089,-338.455C201.695,-319.996 196.634,-292.477 194.086,-278.625"/>
<polygon fill="#9a32cd" stroke="#9a32cd" points="201.656,-339.138 206.907,-348.34 208.541,-337.872 201.656,-339.138"/>
<text text-anchor="middle" x="226.5" y="-322" font-family="Helvetica,sans-Serif" font-size="10.00"> rotation</text>
<text text-anchor="middle" x="226.5" y="-311" font-family="Helvetica,sans-Serif" font-size="10.00">scaler</text>
<text text-anchor="middle" x="226.5" y="-300" font-family="Helvetica,sans-Serif" font-size="10.00">translation</text>
</g>
<!-- Node11 -->
<g id="node11" class="node"><title>Node11</title>
<g id="a_node11"><a xlink:href="../../df/d5d/a00084.html" target="_top" xlink:title="mc::VectorBase\&lt; Vector\l\&lt; float, N \&gt;, float, N \&gt;">
<polygon fill="white" stroke="black" points="61,-453.5 61,-483.5 186,-483.5 186,-453.5 61,-453.5"/>
<text text-anchor="start" x="69" y="-471.5" font-family="Helvetica,sans-Serif" font-size="10.00">mc::VectorBase&lt; Vector</text>
<text text-anchor="middle" x="123.5" y="-460.5" font-family="Helvetica,sans-Serif" font-size="10.00">&lt; float, N &gt;, float, N &gt;</text>
</a>
</g>
</g>
<!-- Node11&#45;&gt;Node10 -->
<g id="edge11" class="edge"><title>Node11&#45;&gt;Node10</title>
<path fill="none" stroke="midnightblue" d="M134.008,-444.2C138.751,-434.746 144.797,-423.964 151.5,-415 165.457,-396.336 185.644,-378.051 197.872,-367.686"/>
<polygon fill="midnightblue" stroke="midnightblue" points="130.744,-442.912 129.564,-453.44 137.052,-445.946 130.744,-442.912"/>
</g>
<!-- Node12&#45;&gt;Node11 -->
<g id="edge12" class="edge"><title>Node12&#45;&gt;Node11</title>
<path fill="none" stroke="orange" stroke-dasharray="5,2" d="M117.624,-585.975C112.865,-582.341 108.665,-578.054 105.5,-573 87.9764,-545.023 104.23,-504.869 115.258,-483.742"/>
<polygon fill="orange" stroke="orange" points="115.789,-588.957 126.076,-591.492 119.615,-583.095 115.789,-588.957"/>
<text text-anchor="start" x="105.5" y="-565" font-family="Helvetica,sans-Serif" font-size="10.00"> &lt; Vector&lt; float, N</text>
<text text-anchor="middle" x="146" y="-554" font-family="Helvetica,sans-Serif" font-size="10.00"> &gt;, float, N &gt;</text>
</g>
<!-- Node12&#45;&gt;Node14 -->
<g id="edge17" class="edge"><title>Node12&#45;&gt;Node14</title>
<path fill="none" stroke="orange" stroke-dasharray="5,2" d="M185.731,-582.424C187.396,-579.287 189.029,-576.086 190.5,-573 196.909,-559.552 203.163,-543.716 207.355,-532.591"/>
<polygon fill="orange" stroke="orange" points="182.515,-581.009 180.768,-591.459 188.65,-584.379 182.515,-581.009"/>
<text text-anchor="middle" x="255.5" y="-559.5" font-family="Helvetica,sans-Serif" font-size="10.00"> &lt; Vector&lt; T, N &gt;, T, N &gt;</text>
</g>
<!-- Node13 -->
<g id="node13" class="node"><title>Node13</title>
<g id="a_node13"><a xlink:href="../../db/df8/a00076.html" target="_top" xlink:title="mc::Vector\&lt; T, N \&gt;">
<polygon fill="white" stroke="black" points="161,-415.5 161,-434.5 262,-434.5 262,-415.5 161,-415.5"/>
<text text-anchor="middle" x="211.5" y="-422.5" font-family="Helvetica,sans-Serif" font-size="10.00">mc::Vector&lt; T, N &gt;</text>
</a>
</g>
</g>
<!-- Node13&#45;&gt;Node10 -->
<g id="edge14" class="edge"><title>Node13&#45;&gt;Node10</title>
<path fill="none" stroke="orange" stroke-dasharray="5,2" d="M210.625,-405.037C210.054,-392.67 209.336,-377.12 208.898,-367.627"/>
<polygon fill="orange" stroke="orange" points="207.138,-405.406 211.095,-415.234 214.131,-405.083 207.138,-405.406"/>
<text text-anchor="middle" x="236" y="-389" font-family="Helvetica,sans-Serif" font-size="10.00"> &lt; float, 3 &gt;</text>
</g>
<!-- Node14&#45;&gt;Node13 -->
<g id="edge15" class="edge"><title>Node14&#45;&gt;Node13</title>
<path fill="none" stroke="midnightblue" d="M212.232,-492.275C212.022,-473.198 211.74,-447.709 211.595,-434.596"/>
<polygon fill="midnightblue" stroke="midnightblue" points="208.733,-492.399 212.344,-502.359 215.733,-492.321 208.733,-492.399"/>
</g>
</g>
</svg>
        <g id="navigator" transform="translate(0 0)" fill="#404254">
                <rect fill="#f2f5e9" fill-opacity="0.5" stroke="#606060" stroke-width=".5" x="0" y="0" width="60" height="60"/>
                <use id="zoomplus" xlink:href="#zoomPlus" x="17" y="9" onmousedown="handleZoom(evt,'in')"/>
                <use id="zoomminus" xlink:href="#zoomMin" x="42" y="9" onmousedown="handleZoom(evt,'out')"/>
                <use id="reset" xlink:href="#resetDef" x="30" y="36" onmousedown="handleReset()"/>
                <g id="arrowUp" xlink:href="#dirArrow" transform="translate(30 24)" onmousedown="handlePan(0,-1)">
                  <use xlink:href="#rim" fill="#404040">
                        <set attributeName="fill" to="#808080" begin="arrowUp.mouseover" end="arrowUp.mouseout"/>
                  </use>
                  <path fill="none" stroke="white" stroke-width="1.5" d="M0,-3.0v7 M-2.5,-0.5L0,-3.0L2.5,-0.5"/>
                </g>
                <g id="arrowRight" xlink:href="#dirArrow" transform="rotate(90) translate(36 -43)" onmousedown="handlePan(1,0)">
                  <use xlink:href="#rim" fill="#404040">
                        <set attributeName="fill" to="#808080" begin="arrowRight.mouseover" end="arrowRight.mouseout"/>
                  </use>
                  <path fill="none" stroke="white" stroke-width="1.5" d="M0,-3.0v7 M-2.5,-0.5L0,-3.0L2.5,-0.5"/>
                </g>
                <g id="arrowDown" xlink:href="#dirArrow" transform="rotate(180) translate(-30 -48)" onmousedown="handlePan(0,1)">
                  <use xlink:href="#rim" fill="#404040">
                        <set attributeName="fill" to="#808080" begin="arrowDown.mouseover" end="arrowDown.mouseout"/>
                  </use>
                  <path fill="none" stroke="white" stroke-width="1.5" d="M0,-3.0v7 M-2.5,-0.5L0,-3.0L2.5,-0.5"/>
                </g>
                <g id="arrowLeft" xlink:href="#dirArrow" transform="rotate(270) translate(-36 17)" onmousedown="handlePan(-1,0)">
                  <use xlink:href="#rim" fill="#404040">
                        <set attributeName="fill" to="#808080" begin="arrowLeft.mouseover" end="arrowLeft.mouseout"/>
                  </use>
                  <path fill="none" stroke="white" stroke-width="1.5" d="M0,-3.0v7 M-2.5,-0.5L0,-3.0L2.5,-0.5"/>
                </g>
        </g>
        <svg viewBox="0 0 15 15" width="100%" height="30px" preserveAspectRatio="xMaxYMin meet">
         <g id="arrow_out" transform="scale(0.3 0.3)">
          <a xlink:href="a00252_org.svg" target="_base">
           <rect id="button" ry="5" rx="5" y="6" x="6" height="38" width="38"
                fill="#f2f5e9" fill-opacity="0.5" stroke="#606060" stroke-width="1.0"/>
           <path id="arrow"
             d="M 11.500037,31.436501 C 11.940474,20.09759 22.043105,11.32322 32.158766,21.979434 L 37.068811,17.246167 C 37.068811,17.246167 37.088388,32 37.088388,32 L 22.160133,31.978069 C 22.160133,31.978069 26.997745,27.140456 26.997745,27.140456 C 18.528582,18.264221 13.291696,25.230495 11.500037,31.436501 z"
             style="fill:#404040;"/>
          </a>
         </g>
        </svg>
</svg>
