<?xml version="1.0" encoding="UTF-8" standalone="no"?>
<!DOCTYPE svg PUBLIC "-//W3C//DTD SVG 1.1//EN"
 "http://www.w3.org/Graphics/SVG/1.1/DTD/svg11.dtd">
<!-- Generated by graphviz version 2.38.0 (20140413.2041)
 -->
<!-- Title: mc::gfx::GraphicsEntity Pages: 1 -->
<svg width="264pt" height="405pt"
 viewBox="0.00 0.00 264.00 405.00" xmlns="http://www.w3.org/2000/svg" xmlns:xlink="http://www.w3.org/1999/xlink">
<g id="graph0" class="graph" transform="scale(1 1) rotate(0) translate(4 401)">
<title>mc::gfx::GraphicsEntity</title>
<polygon fill="white" stroke="none" points="-4,4 -4,-401 260,-401 260,4 -4,4"/>
<!-- Node1 -->
<g id="node1" class="node"><title>Node1</title>
<polygon fill="#bfbfbf" stroke="black" points="137,-6 137,-25 256,-25 256,-6 137,-6"/>
<text text-anchor="middle" x="196.5" y="-13" font-family="Helvetica,sans-Serif" font-size="10.00">mc::gfx::GraphicsEntity</text>
</g>
<!-- Node2 -->
<g id="node2" class="node"><title>Node2</title>
<g id="a_node2"><a xlink:href="../../db/db2/a00020.html" target="_top" xlink:title="Abstract superclass for all graphical objects. ">
<polygon fill="white" stroke="black" points="117.5,-78.5 117.5,-97.5 197.5,-97.5 197.5,-78.5 117.5,-78.5"/>
<text text-anchor="middle" x="157.5" y="-85.5" font-family="Helvetica,sans-Serif" font-size="10.00">mc::gfx::Entity</text>
</a>
</g>
</g>
<!-- Node2&#45;&gt;Node1 -->
<g id="edge1" class="edge"><title>Node2&#45;&gt;Node1</title>
<path fill="none" stroke="midnightblue" d="M174.372,-71.0287C177.371,-67.6012 180.251,-63.8464 182.5,-60 188.988,-48.9054 192.871,-34.4328 194.848,-25.3003"/>
<polygon fill="midnightblue" stroke="midnightblue" points="171.779,-68.6757 167.396,-78.3215 176.838,-73.5143 171.779,-68.6757"/>
</g>
<!-- Node3 -->
<g id="node3" class="node"><title>Node3</title>
<polygon fill="white" stroke="#bfbfbf" points="16,-0.5 16,-30.5 119,-30.5 119,-0.5 16,-0.5"/>
<text text-anchor="start" x="24" y="-18.5" font-family="Helvetica,sans-Serif" font-size="10.00">std::vector&lt; mc::gfx</text>
<text text-anchor="middle" x="67.5" y="-7.5" font-family="Helvetica,sans-Serif" font-size="10.00">::Entity * &gt;</text>
</g>
<!-- Node2&#45;&gt;Node3 -->
<g id="edge3" class="edge"><title>Node2&#45;&gt;Node3</title>
<path fill="none" stroke="#9a32cd" stroke-dasharray="5,2" d="M107.491,-81.61C93.8766,-77.6853 80.438,-71.0723 71.5,-60 64.9261,-51.8564 64.2774,-39.852 65.076,-30.5157"/>
<polygon fill="#9a32cd" stroke="#9a32cd" points="106.829,-85.0511 117.373,-84.018 108.486,-78.2501 106.829,-85.0511"/>
<text text-anchor="middle" x="93" y="-52" font-family="Helvetica,sans-Serif" font-size="10.00"> elements</text>
</g>
<!-- Node3&#45;&gt;Node2 -->
<g id="edge2" class="edge"><title>Node3&#45;&gt;Node2</title>
<path fill="none" stroke="#9a32cd" stroke-dasharray="5,2" d="M100.6,-36.1919C106.707,-40.2142 112.915,-44.5763 118.5,-49 130.06,-58.1566 142.014,-70.2644 149.588,-78.3265"/>
<polygon fill="#9a32cd" stroke="#9a32cd" points="102.118,-33.0087 91.8068,-30.5743 98.3494,-38.9076 102.118,-33.0087"/>
<text text-anchor="middle" x="150" y="-52" font-family="Helvetica,sans-Serif" font-size="10.00"> children</text>
</g>
<!-- Node4 -->
<g id="node4" class="node"><title>Node4</title>
<g id="a_node4"><a xlink:title="STL class. ">
<polygon fill="white" stroke="#bfbfbf" points="0,-272.5 0,-291.5 85,-291.5 85,-272.5 0,-272.5"/>
<text text-anchor="middle" x="42.5" y="-279.5" font-family="Helvetica,sans-Serif" font-size="10.00">std::vector&lt; T &gt;</text>
</a>
</g>
</g>
<!-- Node4&#45;&gt;Node3 -->
<g id="edge4" class="edge"><title>Node4&#45;&gt;Node3</title>
<path fill="none" stroke="orange" stroke-dasharray="5,2" d="M38.1083,-262.29C34.6819,-246.05 30.5,-221.854 30.5,-200.5 30.5,-200.5 30.5,-200.5 30.5,-87 30.5,-65.5746 44.0639,-44.2493 54.7667,-30.7572"/>
<polygon fill="orange" stroke="orange" points="34.7094,-263.13 40.299,-272.13 41.5421,-261.609 34.7094,-263.13"/>
<text text-anchor="middle" x="76.5" y="-152.5" font-family="Helvetica,sans-Serif" font-size="10.00"> &lt; mc::gfx::Entity * &gt;</text>
</g>
<!-- Node5 -->
<g id="node5" class="node"><title>Node5</title>
<polygon fill="white" stroke="#bfbfbf" points="67,-377.5 67,-396.5 96,-396.5 96,-377.5 67,-377.5"/>
<text text-anchor="middle" x="81.5" y="-384.5" font-family="Helvetica,sans-Serif" font-size="10.00">T</text>
</g>
<!-- Node5&#45;&gt;Node4 -->
<g id="edge5" class="edge"><title>Node5&#45;&gt;Node4</title>
<path fill="none" stroke="#9a32cd" stroke-dasharray="5,2" d="M62.5982,-370.296C59.4621,-366.875 56.5643,-363.054 54.5,-359 43.1043,-336.622 41.9744,-306.124 42.1781,-291.501"/>
<polygon fill="#9a32cd" stroke="#9a32cd" points="60.4329,-373.069 70.068,-377.475 65.2836,-368.022 60.4329,-373.069"/>
<text text-anchor="middle" x="76" y="-351" font-family="Helvetica,sans-Serif" font-size="10.00"> elements</text>
</g>
<!-- Node8 -->
<g id="node8" class="node"><title>Node8</title>
<g id="a_node8"><a xlink:href="../../db/df8/a00076.html" target="_top" xlink:title="1&#45;dimensional vector class that supports mathmatical operations. ">
<polygon fill="white" stroke="black" points="76,-310.5 76,-329.5 177,-329.5 177,-310.5 76,-310.5"/>
<text text-anchor="middle" x="126.5" y="-317.5" font-family="Helvetica,sans-Serif" font-size="10.00">mc::Vector&lt; T, N &gt;</text>
</a>
</g>
</g>
<!-- Node5&#45;&gt;Node8 -->
<g id="edge9" class="edge"><title>Node5&#45;&gt;Node8</title>
<path fill="none" stroke="#9a32cd" stroke-dasharray="5,2" d="M93.3359,-368.904C102.08,-356.273 113.62,-339.604 120.527,-329.627"/>
<polygon fill="#9a32cd" stroke="#9a32cd" points="90.3834,-367.02 87.5689,-377.234 96.1387,-371.004 90.3834,-367.02"/>
<text text-anchor="middle" x="125.5" y="-351" font-family="Helvetica,sans-Serif" font-size="10.00"> content</text>
</g>
<!-- Node6 -->
<g id="node6" class="node"><title>Node6</title>
<g id="a_node6"><a xlink:href="../../db/db6/a00074.html" target="_top" xlink:title="Matrix&#45;based class that allows for the easy creation and management of transformation matrices...">
<polygon fill="white" stroke="black" points="140.5,-145.5 140.5,-164.5 246.5,-164.5 246.5,-145.5 140.5,-145.5"/>
<text text-anchor="middle" x="193.5" y="-152.5" font-family="Helvetica,sans-Serif" font-size="10.00">mc::TransformMatrix</text>
</a>
</g>
</g>
<!-- Node6&#45;&gt;Node2 -->
<g id="edge6" class="edge"><title>Node6&#45;&gt;Node2</title>
<path fill="none" stroke="#9a32cd" stroke-dasharray="5,2" d="M183.621,-136.163C176.679,-123.628 167.697,-107.41 162.278,-97.6273"/>
<polygon fill="#9a32cd" stroke="#9a32cd" points="180.738,-138.182 188.645,-145.234 186.862,-134.79 180.738,-138.182"/>
<text text-anchor="middle" x="211" y="-119" font-family="Helvetica,sans-Serif" font-size="10.00"> transformation</text>
</g>
<!-- Node7 -->
<g id="node7" class="node"><title>Node7</title>
<g id="a_node7"><a xlink:href="../../db/df8/a00076.html" target="_top" xlink:title="mc::Vector\&lt; float, 3 \&gt;">
<polygon fill="white" stroke="black" points="78.5,-234.5 78.5,-253.5 190.5,-253.5 190.5,-234.5 78.5,-234.5"/>
<text text-anchor="middle" x="134.5" y="-241.5" font-family="Helvetica,sans-Serif" font-size="10.00">mc::Vector&lt; float, 3 &gt;</text>
</a>
</g>
</g>
<!-- Node7&#45;&gt;Node6 -->
<g id="edge7" class="edge"><title>Node7&#45;&gt;Node6</title>
<path fill="none" stroke="#9a32cd" stroke-dasharray="5,2" d="M146.033,-225.993C158.536,-207.557 177.992,-178.867 187.651,-164.625"/>
<polygon fill="#9a32cd" stroke="#9a32cd" points="143.089,-224.099 140.373,-234.34 148.882,-228.028 143.089,-224.099"/>
<text text-anchor="middle" x="197.5" y="-208" font-family="Helvetica,sans-Serif" font-size="10.00"> rotation</text>
<text text-anchor="middle" x="197.5" y="-197" font-family="Helvetica,sans-Serif" font-size="10.00">scaler</text>
<text text-anchor="middle" x="197.5" y="-186" font-family="Helvetica,sans-Serif" font-size="10.00">translation</text>
</g>
<!-- Node8&#45;&gt;Node7 -->
<g id="edge8" class="edge"><title>Node8&#45;&gt;Node7</title>
<path fill="none" stroke="orange" stroke-dasharray="5,2" d="M128.546,-300.072C130.156,-285.18 132.326,-265.111 133.552,-253.768"/>
<polygon fill="orange" stroke="orange" points="125.044,-299.902 127.449,-310.221 132.004,-300.655 125.044,-299.902"/>
<text text-anchor="middle" x="157" y="-279.5" font-family="Helvetica,sans-Serif" font-size="10.00"> &lt; float, 3 &gt;</text>
</g>
</g>
</svg>
