<?xml version="1.0" encoding="UTF-8" standalone="no"?>
<!DOCTYPE svg PUBLIC "-//W3C//DTD SVG 1.1//EN"
 "http://www.w3.org/Graphics/SVG/1.1/DTD/svg11.dtd">
<!-- Generated by graphviz version 2.38.0 (20140413.2041)
 -->
<!-- Title: mc::gfx::GLRenderer Pages: 1 -->
<!--zoomable 199 -->
<svg id="main" version="1.1" xmlns="http://www.w3.org/2000/svg" xmlns:xlink="http://www.w3.org/1999/xlink" xml:space="preserve" onload="init(evt)">
<style type="text/css"><![CDATA[
.edge:hover path { stroke: red; }
.edge:hover polygon { stroke: red; fill: red; }
]]></style>
<script type="text/javascript"><![CDATA[
var edges = document.getElementsByTagName('g');
if (edges && edges.length) {
  for (var i=0;i<edges.length;i++) {
    if (edges[i].id.substr(0,4)=='edge') {
      edges[i].setAttribute('class','edge');
    }
  }
}
]]></script>
        <defs>
                <circle id="rim" cx="0" cy="0" r="7"/>
                <circle id="rim2" cx="0" cy="0" r="3.5"/>
                <g id="zoomPlus">
                        <use xlink:href="#rim" fill="#404040">
                                <set attributeName="fill" to="#808080" begin="zoomplus.mouseover" end="zoomplus.mouseout"/>
                        </use>
                        <path d="M-4,0h8M0,-4v8" fill="none" stroke="white" stroke-width="1.5" pointer-events="none"/>
                </g>
                <g id="zoomMin">
                        <use xlink:href="#rim" fill="#404040">
                                <set attributeName="fill" to="#808080" begin="zoomminus.mouseover" end="zoomminus.mouseout"/>
                        </use>
                        <path d="M-4,0h8" fill="none" stroke="white" stroke-width="1.5" pointer-events="none"/>
                </g>
                <g id="dirArrow">
                        <path fill="none" stroke="white" stroke-width="1.5" d="M0,-3.0v7 M-2.5,-0.5L0,-3.0L2.5,-0.5"/>
                </g>
               <g id="resetDef">
                       <use xlink:href="#rim2" fill="#404040">
                               <set attributeName="fill" to="#808080" begin="reset.mouseover" end="reset.mouseout"/>
                       </use>
               </g>
        </defs>

<script type="text/javascript">
var viewWidth = 2105;
var viewHeight = 199;
var sectionId = 'dynsection-1';
</script>
<script xlink:href="../../svgpan.js"/>
<svg id="graph" class="graph">
<g id="viewport">
<title>mc::gfx::GLRenderer</title>
<polygon fill="white" stroke="none" points="-4,4 -4,-195 2101,-195 2101,4 -4,4"/>
<!-- Node1 -->
<g id="node1" class="node"><title>Node1</title>
<polygon fill="#bfbfbf" stroke="black" points="1990,-17.5 1990,-36.5 2097,-36.5 2097,-17.5 1990,-17.5"/>
<text text-anchor="middle" x="2043.5" y="-24.5" font-family="Helvetica,sans-Serif" font-size="10.00">mc::gfx::GLRenderer</text>
</g>
<!-- Node2 -->
<g id="node2" class="node"><title>Node2</title>
<g id="a_node2"><a xlink:href="../../dc/dee/a00053.html" target="_top" xlink:title="mc::gfx::Renderer">
<polygon fill="white" stroke="black" points="1859,-17.5 1859,-36.5 1953,-36.5 1953,-17.5 1859,-17.5"/>
<text text-anchor="middle" x="1906" y="-24.5" font-family="Helvetica,sans-Serif" font-size="10.00">mc::gfx::Renderer</text>
</a>
</g>
</g>
<!-- Node2&#45;&gt;Node1 -->
<g id="edge1" class="edge"><title>Node2&#45;&gt;Node1</title>
<path fill="none" stroke="midnightblue" d="M1963.41,-27C1972.19,-27 1981.24,-27 1989.93,-27"/>
<polygon fill="midnightblue" stroke="midnightblue" points="1963.25,-23.5001 1953.25,-27 1963.25,-30.5001 1963.25,-23.5001"/>
</g>
<!-- Node3 -->
<g id="node3" class="node"><title>Node3</title>
<polygon fill="white" stroke="#bfbfbf" points="1612,-38.5 1612,-57.5 1764,-57.5 1764,-38.5 1612,-38.5"/>
<text text-anchor="middle" x="1688" y="-45.5" font-family="Helvetica,sans-Serif" font-size="10.00">std::deque&lt; GraphicsEntity * &gt;</text>
</g>
<!-- Node3&#45;&gt;Node2 -->
<g id="edge2" class="edge"><title>Node3&#45;&gt;Node2</title>
<path fill="none" stroke="#9a32cd" stroke-dasharray="5,2" d="M1774.34,-39.7027C1803.21,-36.8966 1834.33,-33.8707 1858.96,-31.4763"/>
<polygon fill="#9a32cd" stroke="#9a32cd" points="1773.86,-36.2334 1764.24,-40.6847 1774.53,-43.2005 1773.86,-36.2334"/>
<text text-anchor="middle" x="1811.5" y="-42" font-family="Helvetica,sans-Serif" font-size="10.00"> renderQueue</text>
</g>
<!-- Node4 -->
<g id="node4" class="node"><title>Node4</title>
<g id="a_node4"><a xlink:href="../../d5/d16/a00029.html" target="_top" xlink:title="mc::gfx::GraphicsEntity">
<polygon fill="white" stroke="black" points="1414,-38.5 1414,-57.5 1533,-57.5 1533,-38.5 1414,-38.5"/>
<text text-anchor="middle" x="1473.5" y="-45.5" font-family="Helvetica,sans-Serif" font-size="10.00">mc::gfx::GraphicsEntity</text>
</a>
</g>
</g>
<!-- Node4&#45;&gt;Node3 -->
<g id="edge3" class="edge"><title>Node4&#45;&gt;Node3</title>
<path fill="none" stroke="#9a32cd" stroke-dasharray="5,2" d="M1543.32,-48C1565.2,-48 1589.51,-48 1611.81,-48"/>
<polygon fill="#9a32cd" stroke="#9a32cd" points="1543.13,-44.5001 1533.13,-48 1543.13,-51.5001 1543.13,-44.5001"/>
<text text-anchor="middle" x="1572.5" y="-51" font-family="Helvetica,sans-Serif" font-size="10.00"> elements</text>
</g>
<!-- Node5 -->
<g id="node5" class="node"><title>Node5</title>
<g id="a_node5"><a xlink:href="../../de/d11/a00021.html" target="_top" xlink:title="Abstract superclass for all graphical objects. ">
<polygon fill="white" stroke="black" points="1235,-64.5 1235,-83.5 1315,-83.5 1315,-64.5 1235,-64.5"/>
<text text-anchor="middle" x="1275" y="-71.5" font-family="Helvetica,sans-Serif" font-size="10.00">mc::gfx::Entity</text>
</a>
</g>
</g>
<!-- Node5&#45;&gt;Node4 -->
<g id="edge4" class="edge"><title>Node5&#45;&gt;Node4</title>
<path fill="none" stroke="midnightblue" d="M1309.42,-61.1826C1317.07,-58.723 1325.23,-56.4616 1333,-55 1359.21,-50.0686 1388.66,-48.0827 1413.71,-47.4215"/>
<polygon fill="midnightblue" stroke="midnightblue" points="1308.08,-57.9408 1299.75,-64.4796 1310.34,-64.5666 1308.08,-57.9408"/>
</g>
<!-- Node7 -->
<g id="node7" class="node"><title>Node7</title>
<polygon fill="white" stroke="#bfbfbf" points="1422,-93 1422,-123 1525,-123 1525,-93 1422,-93"/>
<text text-anchor="start" x="1430" y="-111" font-family="Helvetica,sans-Serif" font-size="10.00">std::vector&lt; mc::gfx</text>
<text text-anchor="middle" x="1473.5" y="-100" font-family="Helvetica,sans-Serif" font-size="10.00">::Entity * &gt;</text>
</g>
<!-- Node5&#45;&gt;Node7 -->
<g id="edge7" class="edge"><title>Node5&#45;&gt;Node7</title>
<path fill="none" stroke="#9a32cd" stroke-dasharray="5,2" d="M1325.01,-84.4848C1327.71,-85.0104 1330.39,-85.5191 1333,-86 1362.3,-91.3905 1395.21,-96.6199 1421.7,-100.627"/>
<polygon fill="#9a32cd" stroke="#9a32cd" points="1325.69,-81.0517 1315.2,-82.5265 1324.32,-87.9163 1325.69,-81.0517"/>
<text text-anchor="middle" x="1364.5" y="-100" font-family="Helvetica,sans-Serif" font-size="10.00"> elements</text>
</g>
<!-- Node6 -->
<g id="node6" class="node"><title>Node6</title>
<g id="a_node6"><a xlink:href="../../d4/d8c/a00035.html" target="_top" xlink:title="mc::Initializable">
<polygon fill="white" stroke="black" points="1039,-38.5 1039,-57.5 1123,-57.5 1123,-38.5 1039,-38.5"/>
<text text-anchor="middle" x="1081" y="-45.5" font-family="Helvetica,sans-Serif" font-size="10.00">mc::Initializable</text>
</a>
</g>
</g>
<!-- Node6&#45;&gt;Node5 -->
<g id="edge5" class="edge"><title>Node6&#45;&gt;Node5</title>
<path fill="none" stroke="midnightblue" d="M1133.22,-54.9362C1165.12,-59.2556 1205.51,-64.726 1234.85,-68.6979"/>
<polygon fill="midnightblue" stroke="midnightblue" points="1133.57,-51.4513 1123.19,-53.5777 1132.63,-58.388 1133.57,-51.4513"/>
</g>
<!-- Node7&#45;&gt;Node5 -->
<g id="edge6" class="edge"><title>Node7&#45;&gt;Node5</title>
<path fill="none" stroke="#9a32cd" stroke-dasharray="5,2" d="M1435.98,-88.7331C1423.63,-83.1796 1409.53,-77.8535 1396,-75 1369.4,-69.391 1338.73,-69.2407 1315.06,-70.4413"/>
<polygon fill="#9a32cd" stroke="#9a32cd" points="1434.51,-91.9079 1445.05,-92.9869 1437.48,-85.5707 1434.51,-91.9079"/>
<text text-anchor="middle" x="1364.5" y="-78" font-family="Helvetica,sans-Serif" font-size="10.00"> children</text>
</g>
<!-- Node8 -->
<g id="node8" class="node"><title>Node8</title>
<g id="a_node8"><a xlink:title="STL class. ">
<polygon fill="white" stroke="#bfbfbf" points="259.5,-124.5 259.5,-143.5 344.5,-143.5 344.5,-124.5 259.5,-124.5"/>
<text text-anchor="middle" x="302" y="-131.5" font-family="Helvetica,sans-Serif" font-size="10.00">std::vector&lt; T &gt;</text>
</a>
</g>
</g>
<!-- Node8&#45;&gt;Node7 -->
<g id="edge8" class="edge"><title>Node8&#45;&gt;Node7</title>
<path fill="none" stroke="orange" stroke-dasharray="5,2" d="M355.133,-134C407.055,-134 489.038,-134 560,-134 560,-134 560,-134 1276,-134 1325.9,-134 1382.31,-125.659 1421.85,-118.425"/>
<polygon fill="orange" stroke="orange" points="354.844,-130.5 344.844,-134 354.844,-137.5 354.844,-130.5"/>
<text text-anchor="middle" x="890" y="-137" font-family="Helvetica,sans-Serif" font-size="10.00"> &lt; mc::gfx::Entity * &gt;</text>
</g>
<!-- Node9 -->
<g id="node9" class="node"><title>Node9</title>
<polygon fill="white" stroke="#bfbfbf" points="0,-104.5 0,-123.5 29,-123.5 29,-104.5 0,-104.5"/>
<text text-anchor="middle" x="14.5" y="-111.5" font-family="Helvetica,sans-Serif" font-size="10.00">T</text>
</g>
<!-- Node9&#45;&gt;Node8 -->
<g id="edge9" class="edge"><title>Node9&#45;&gt;Node8</title>
<path fill="none" stroke="#9a32cd" stroke-dasharray="5,2" d="M39.4421,-115.677C88.0366,-119.081 198.76,-126.838 259.4,-131.086"/>
<polygon fill="#9a32cd" stroke="#9a32cd" points="39.4904,-112.172 29.2703,-114.965 39.0012,-119.155 39.4904,-112.172"/>
<text text-anchor="middle" x="68.5" y="-123" font-family="Helvetica,sans-Serif" font-size="10.00"> elements</text>
</g>
<!-- Node13 -->
<g id="node13" class="node"><title>Node13</title>
<g id="a_node13"><a xlink:href="../../d1/d09/a00077.html" target="_top" xlink:title="1&#45;dimensional vector class that supports mathmatical operations. ">
<polygon fill="white" stroke="black" points="108,-28 108,-58 229,-58 229,-28 108,-28"/>
<text text-anchor="start" x="116" y="-46" font-family="Helvetica,sans-Serif" font-size="10.00">mc::VectorBase&lt; Child,</text>
<text text-anchor="middle" x="168.5" y="-35" font-family="Helvetica,sans-Serif" font-size="10.00"> T, N &gt;</text>
</a>
</g>
</g>
<!-- Node9&#45;&gt;Node13 -->
<g id="edge14" class="edge"><title>Node9&#45;&gt;Node13</title>
<path fill="none" stroke="#9a32cd" stroke-dasharray="5,2" d="M24.7083,-95.3082C30.0372,-86.3552 37.5665,-76.2475 47,-70 64.8744,-58.1624 87.1713,-51.453 107.708,-47.6718"/>
<polygon fill="#9a32cd" stroke="#9a32cd" points="21.5037,-93.8751 19.8036,-104.333 27.6541,-97.2178 21.5037,-93.8751"/>
<text text-anchor="middle" x="68.5" y="-73" font-family="Helvetica,sans-Serif" font-size="10.00"> content</text>
</g>
<!-- Node15 -->
<g id="node15" class="node"><title>Node15</title>
<g id="a_node15"><a xlink:href="../../d1/d09/a00077.html" target="_top" xlink:title="mc::VectorBase\&lt; Vector\l\&lt; T, N \&gt;, T, N \&gt;">
<polygon fill="white" stroke="black" points="375,-75 375,-105 500,-105 500,-75 375,-75"/>
<text text-anchor="start" x="383" y="-93" font-family="Helvetica,sans-Serif" font-size="10.00">mc::VectorBase&lt; Vector</text>
<text text-anchor="middle" x="437.5" y="-82" font-family="Helvetica,sans-Serif" font-size="10.00">&lt; T, N &gt;, T, N &gt;</text>
</a>
</g>
</g>
<!-- Node9&#45;&gt;Node15 -->
<g id="edge17" class="edge"><title>Node9&#45;&gt;Node15</title>
<path fill="none" stroke="#9a32cd" stroke-dasharray="5,2" d="M39.2632,-111.697C57.9361,-109.948 84.6078,-107.581 108,-106 200.859,-99.7253 308.646,-94.9544 374.704,-92.3162"/>
<polygon fill="#9a32cd" stroke="#9a32cd" points="38.9027,-108.216 29.2784,-112.645 39.5645,-115.184 38.9027,-108.216"/>
<text text-anchor="middle" x="168.5" y="-109" font-family="Helvetica,sans-Serif" font-size="10.00"> content</text>
</g>
<!-- Node16 -->
<g id="node16" class="node"><title>Node16</title>
<g id="a_node16"><a xlink:title="STL class. ">
<polygon fill="white" stroke="#bfbfbf" points="518,-170.5 518,-189.5 604,-189.5 604,-170.5 518,-170.5"/>
<text text-anchor="middle" x="561" y="-177.5" font-family="Helvetica,sans-Serif" font-size="10.00">std::deque&lt; T &gt;</text>
</a>
</g>
</g>
<!-- Node9&#45;&gt;Node16 -->
<g id="edge20" class="edge"><title>Node9&#45;&gt;Node16</title>
<path fill="none" stroke="#9a32cd" stroke-dasharray="5,2" d="M35.4809,-129.418C39.1499,-131.625 43.0676,-133.614 47,-135 213.532,-193.699 428.442,-188.611 517.966,-183.22"/>
<polygon fill="#9a32cd" stroke="#9a32cd" points="37.2536,-126.392 27.0068,-123.698 33.3375,-132.194 37.2536,-126.392"/>
<text text-anchor="middle" x="168.5" y="-178" font-family="Helvetica,sans-Serif" font-size="10.00"> elements</text>
</g>
<!-- Node10 -->
<g id="node10" class="node"><title>Node10</title>
<g id="a_node10"><a xlink:href="../../dc/ddf/a00067.html" target="_top" xlink:title="Matrix&#45;based class that allows for the easy creation and management of transformation matrices...">
<polygon fill="white" stroke="black" points="1028,-76.5 1028,-95.5 1134,-95.5 1134,-76.5 1028,-76.5"/>
<text text-anchor="middle" x="1081" y="-83.5" font-family="Helvetica,sans-Serif" font-size="10.00">mc::TransformMatrix</text>
</a>
</g>
</g>
<!-- Node10&#45;&gt;Node5 -->
<g id="edge10" class="edge"><title>Node10&#45;&gt;Node5</title>
<path fill="none" stroke="#9a32cd" stroke-dasharray="5,2" d="M1144.51,-82.0932C1174.26,-80.2334 1208.93,-78.067 1234.9,-76.4438"/>
<polygon fill="#9a32cd" stroke="#9a32cd" points="1143.97,-78.6197 1134.21,-82.7368 1144.41,-85.6061 1143.97,-78.6197"/>
<text text-anchor="middle" x="1184.5" y="-85" font-family="Helvetica,sans-Serif" font-size="10.00"> transformation</text>
</g>
<!-- Node11 -->
<g id="node11" class="node"><title>Node11</title>
<g id="a_node11"><a xlink:href="../../d4/d31/a00069.html" target="_top" xlink:title="mc::Vector\&lt; float, 3 \&gt;">
<polygon fill="white" stroke="black" points="834,-76.5 834,-95.5 946,-95.5 946,-76.5 834,-76.5"/>
<text text-anchor="middle" x="890" y="-83.5" font-family="Helvetica,sans-Serif" font-size="10.00">mc::Vector&lt; float, 3 &gt;</text>
</a>
</g>
</g>
<!-- Node11&#45;&gt;Node10 -->
<g id="edge11" class="edge"><title>Node11&#45;&gt;Node10</title>
<path fill="none" stroke="#9a32cd" stroke-dasharray="5,2" d="M956.333,-86C979.652,-86 1005.6,-86 1027.68,-86"/>
<polygon fill="#9a32cd" stroke="#9a32cd" points="956.175,-82.5001 946.175,-86 956.175,-89.5001 956.175,-82.5001"/>
<text text-anchor="middle" x="987" y="-111" font-family="Helvetica,sans-Serif" font-size="10.00"> rotation</text>
<text text-anchor="middle" x="987" y="-100" font-family="Helvetica,sans-Serif" font-size="10.00">scaler</text>
<text text-anchor="middle" x="987" y="-89" font-family="Helvetica,sans-Serif" font-size="10.00">translation</text>
</g>
<!-- Node12 -->
<g id="node12" class="node"><title>Node12</title>
<g id="a_node12"><a xlink:href="../../d1/d09/a00077.html" target="_top" xlink:title="mc::VectorBase\&lt; Vector\l\&lt; float, N \&gt;, float, N \&gt;">
<polygon fill="white" stroke="black" points="622,-19 622,-49 747,-49 747,-19 622,-19"/>
<text text-anchor="start" x="630" y="-37" font-family="Helvetica,sans-Serif" font-size="10.00">mc::VectorBase&lt; Vector</text>
<text text-anchor="middle" x="684.5" y="-26" font-family="Helvetica,sans-Serif" font-size="10.00">&lt; float, N &gt;, float, N &gt;</text>
</a>
</g>
</g>
<!-- Node12&#45;&gt;Node11 -->
<g id="edge12" class="edge"><title>Node12&#45;&gt;Node11</title>
<path fill="none" stroke="midnightblue" d="M757.147,-37.6278C776.528,-39.8489 797.308,-43.3858 816,-49 837.229,-55.3759 859.692,-67.7207 874.003,-76.3922"/>
<polygon fill="midnightblue" stroke="midnightblue" points="757.467,-34.1423 747.157,-36.5823 756.739,-41.1043 757.467,-34.1423"/>
</g>
<!-- Node17 -->
<g id="node17" class="node"><title>Node17</title>
<g id="a_node17"><a xlink:href="../../d4/d31/a00069.html" target="_top" xlink:title="mc::Vector\&lt; float, 2 \&gt;">
<polygon fill="white" stroke="black" points="834,-0.5 834,-19.5 946,-19.5 946,-0.5 834,-0.5"/>
<text text-anchor="middle" x="890" y="-7.5" font-family="Helvetica,sans-Serif" font-size="10.00">mc::Vector&lt; float, 2 &gt;</text>
</a>
</g>
</g>
<!-- Node12&#45;&gt;Node17 -->
<g id="edge22" class="edge"><title>Node12&#45;&gt;Node17</title>
<path fill="none" stroke="midnightblue" d="M757.27,-24.9301C759.879,-24.6138 762.462,-24.3029 765,-24 787.48,-21.3172 812.269,-18.4919 833.737,-16.0874"/>
<polygon fill="midnightblue" stroke="midnightblue" points="756.622,-21.4831 747.121,-26.1706 757.471,-28.4314 756.622,-21.4831"/>
</g>
<!-- Node13&#45;&gt;Node12 -->
<g id="edge13" class="edge"><title>Node13&#45;&gt;Node12</title>
<path fill="none" stroke="orange" stroke-dasharray="5,2" d="M239.318,-41.7775C340.326,-40.0089 525.627,-36.7643 621.85,-35.0795"/>
<polygon fill="orange" stroke="orange" points="239.153,-38.2798 229.216,-41.9544 239.276,-45.2787 239.153,-38.2798"/>
<text text-anchor="start" x="397" y="-54" font-family="Helvetica,sans-Serif" font-size="10.00"> &lt; Vector&lt; float, N</text>
<text text-anchor="middle" x="437.5" y="-43" font-family="Helvetica,sans-Serif" font-size="10.00"> &gt;, float, N &gt;</text>
</g>
<!-- Node13&#45;&gt;Node15 -->
<g id="edge18" class="edge"><title>Node13&#45;&gt;Node15</title>
<path fill="none" stroke="orange" stroke-dasharray="5,2" d="M239.523,-51.3346C274.89,-55.9868 318.382,-62.3831 357,-70 364.4,-71.4596 372.144,-73.1721 379.772,-74.9702"/>
<polygon fill="orange" stroke="orange" points="239.667,-47.824 229.3,-50.0084 238.766,-54.7658 239.667,-47.824"/>
<text text-anchor="middle" x="302" y="-73" font-family="Helvetica,sans-Serif" font-size="10.00"> &lt; Vector&lt; T, N &gt;, T, N &gt;</text>
</g>
<!-- Node14 -->
<g id="node14" class="node"><title>Node14</title>
<g id="a_node14"><a xlink:href="../../d4/d31/a00069.html" target="_top" xlink:title="mc::Vector\&lt; T, N \&gt;">
<polygon fill="white" stroke="black" points="634,-80.5 634,-99.5 735,-99.5 735,-80.5 634,-80.5"/>
<text text-anchor="middle" x="684.5" y="-87.5" font-family="Helvetica,sans-Serif" font-size="10.00">mc::Vector&lt; T, N &gt;</text>
</a>
</g>
</g>
<!-- Node14&#45;&gt;Node11 -->
<g id="edge15" class="edge"><title>Node14&#45;&gt;Node11</title>
<path fill="none" stroke="orange" stroke-dasharray="5,2" d="M745.102,-88.8285C773.158,-88.277 806.406,-87.6235 833.872,-87.0836"/>
<polygon fill="orange" stroke="orange" points="744.951,-85.3307 735.021,-89.0266 745.088,-92.3293 744.951,-85.3307"/>
<text text-anchor="middle" x="790.5" y="-92" font-family="Helvetica,sans-Serif" font-size="10.00"> &lt; float, 3 &gt;</text>
</g>
<!-- Node14&#45;&gt;Node17 -->
<g id="edge23" class="edge"><title>Node14&#45;&gt;Node17</title>
<path fill="none" stroke="orange" stroke-dasharray="5,2" d="M719.362,-76.688C760.393,-60.558 828.509,-33.7802 864.683,-19.5596"/>
<polygon fill="orange" stroke="orange" points="718.073,-73.4341 710.047,-80.3501 720.634,-79.9488 718.073,-73.4341"/>
<text text-anchor="middle" x="790.5" y="-61" font-family="Helvetica,sans-Serif" font-size="10.00"> &lt; float, 2 &gt;</text>
</g>
<!-- Node15&#45;&gt;Node14 -->
<g id="edge16" class="edge"><title>Node15&#45;&gt;Node14</title>
<path fill="none" stroke="midnightblue" d="M510.177,-90C549.926,-90 598.354,-90 633.904,-90"/>
<polygon fill="midnightblue" stroke="midnightblue" points="510.008,-86.5001 500.008,-90 510.008,-93.5001 510.008,-86.5001"/>
</g>
<!-- Node16&#45;&gt;Node3 -->
<g id="edge19" class="edge"><title>Node16&#45;&gt;Node3</title>
<path fill="none" stroke="orange" stroke-dasharray="5,2" d="M614.405,-180C660.516,-180 729.464,-180 789.5,-180 789.5,-180 789.5,-180 1474.5,-180 1567.01,-180 1652.69,-88.6196 1678.86,-57.9215"/>
<polygon fill="orange" stroke="orange" points="614.349,-176.5 604.348,-180 614.348,-183.5 614.349,-176.5"/>
<text text-anchor="middle" x="1081" y="-183" font-family="Helvetica,sans-Serif" font-size="10.00"> &lt; GraphicsEntity * &gt;</text>
</g>
<!-- Node17&#45;&gt;Node2 -->
<g id="edge21" class="edge"><title>Node17&#45;&gt;Node2</title>
<path fill="none" stroke="#9a32cd" stroke-dasharray="5,2" d="M956.871,-10C993.189,-10 1039.09,-10 1080,-10 1080,-10 1080,-10 1689,-10 1747.68,-10 1815.05,-16.3127 1858.73,-21.2446"/>
<polygon fill="#9a32cd" stroke="#9a32cd" points="956.409,-6.5001 946.409,-10 956.409,-13.5001 956.409,-6.5001"/>
<text text-anchor="middle" x="1364.5" y="-13" font-family="Helvetica,sans-Serif" font-size="10.00"> windowRatios</text>
</g>
</g>
</svg>
        <g id="navigator" transform="translate(0 0)" fill="#404254">
                <rect fill="#f2f5e9" fill-opacity="0.5" stroke="#606060" stroke-width=".5" x="0" y="0" width="60" height="60"/>
                <use id="zoomplus" xlink:href="#zoomPlus" x="17" y="9" onmousedown="handleZoom(evt,'in')"/>
                <use id="zoomminus" xlink:href="#zoomMin" x="42" y="9" onmousedown="handleZoom(evt,'out')"/>
                <use id="reset" xlink:href="#resetDef" x="30" y="36" onmousedown="handleReset()"/>
                <g id="arrowUp" xlink:href="#dirArrow" transform="translate(30 24)" onmousedown="handlePan(0,-1)">
                  <use xlink:href="#rim" fill="#404040">
                        <set attributeName="fill" to="#808080" begin="arrowUp.mouseover" end="arrowUp.mouseout"/>
                  </use>
                  <path fill="none" stroke="white" stroke-width="1.5" d="M0,-3.0v7 M-2.5,-0.5L0,-3.0L2.5,-0.5"/>
                </g>
                <g id="arrowRight" xlink:href="#dirArrow" transform="rotate(90) translate(36 -43)" onmousedown="handlePan(1,0)">
                  <use xlink:href="#rim" fill="#404040">
                        <set attributeName="fill" to="#808080" begin="arrowRight.mouseover" end="arrowRight.mouseout"/>
                  </use>
                  <path fill="none" stroke="white" stroke-width="1.5" d="M0,-3.0v7 M-2.5,-0.5L0,-3.0L2.5,-0.5"/>
                </g>
                <g id="arrowDown" xlink:href="#dirArrow" transform="rotate(180) translate(-30 -48)" onmousedown="handlePan(0,1)">
                  <use xlink:href="#rim" fill="#404040">
                        <set attributeName="fill" to="#808080" begin="arrowDown.mouseover" end="arrowDown.mouseout"/>
                  </use>
                  <path fill="none" stroke="white" stroke-width="1.5" d="M0,-3.0v7 M-2.5,-0.5L0,-3.0L2.5,-0.5"/>
                </g>
                <g id="arrowLeft" xlink:href="#dirArrow" transform="rotate(270) translate(-36 17)" onmousedown="handlePan(-1,0)">
                  <use xlink:href="#rim" fill="#404040">
                        <set attributeName="fill" to="#808080" begin="arrowLeft.mouseover" end="arrowLeft.mouseout"/>
                  </use>
                  <path fill="none" stroke="white" stroke-width="1.5" d="M0,-3.0v7 M-2.5,-0.5L0,-3.0L2.5,-0.5"/>
                </g>
        </g>
        <svg viewBox="0 0 15 15" width="100%" height="30px" preserveAspectRatio="xMaxYMin meet">
         <g id="arrow_out" transform="scale(0.3 0.3)">
          <a xlink:href="a00231_org.svg" target="_base">
           <rect id="button" ry="5" rx="5" y="6" x="6" height="38" width="38"
                fill="#f2f5e9" fill-opacity="0.5" stroke="#606060" stroke-width="1.0"/>
           <path id="arrow"
             d="M 11.500037,31.436501 C 11.940474,20.09759 22.043105,11.32322 32.158766,21.979434 L 37.068811,17.246167 C 37.068811,17.246167 37.088388,32 37.088388,32 L 22.160133,31.978069 C 22.160133,31.978069 26.997745,27.140456 26.997745,27.140456 C 18.528582,18.264221 13.291696,25.230495 11.500037,31.436501 z"
             style="fill:#404040;"/>
          </a>
         </g>
        </svg>
</svg>
