<?xml version="1.0" encoding="UTF-8" standalone="no"?>
<!DOCTYPE svg PUBLIC "-//W3C//DTD SVG 1.1//EN"
 "http://www.w3.org/Graphics/SVG/1.1/DTD/svg11.dtd">
<!-- Generated by graphviz version 2.38.0 (20140413.2041)
 -->
<!-- Title: mc::os::WindowModule Pages: 1 -->
<svg width="346pt" height="405pt"
 viewBox="0.00 0.00 345.50 405.00" xmlns="http://www.w3.org/2000/svg" xmlns:xlink="http://www.w3.org/1999/xlink">
<g id="graph0" class="graph" transform="scale(1 1) rotate(0) translate(4 401)">
<title>mc::os::WindowModule</title>
<polygon fill="white" stroke="none" points="-4,4 -4,-401 341.5,-401 341.5,4 -4,4"/>
<!-- Node1 -->
<g id="node1" class="node"><title>Node1</title>
<polygon fill="#bfbfbf" stroke="black" points="0,-6 0,-25 119,-25 119,-6 0,-6"/>
<text text-anchor="middle" x="59.5" y="-13" font-family="Helvetica,sans-Serif" font-size="10.00">mc::os::WindowModule</text>
</g>
<!-- Node2 -->
<g id="node2" class="node"><title>Node2</title>
<g id="a_node2"><a xlink:href="../../df/d61/a00031.html" target="_top" xlink:title="Abstract class used for doing a task in MACE. ">
<polygon fill="white" stroke="black" points="20.5,-78.5 20.5,-97.5 88.5,-97.5 88.5,-78.5 20.5,-78.5"/>
<text text-anchor="middle" x="54.5" y="-85.5" font-family="Helvetica,sans-Serif" font-size="10.00">mc::Module</text>
</a>
</g>
</g>
<!-- Node2&#45;&gt;Node1 -->
<g id="edge1" class="edge"><title>Node2&#45;&gt;Node1</title>
<path fill="none" stroke="midnightblue" d="M55.8221,-68.3581C56.8124,-54.3955 58.1222,-35.9263 58.8819,-25.2154"/>
<polygon fill="midnightblue" stroke="midnightblue" points="52.3294,-68.1327 55.1131,-78.3553 59.3119,-68.628 52.3294,-68.1327"/>
</g>
<!-- Node3 -->
<g id="node3" class="node"><title>Node3</title>
<g id="a_node3"><a xlink:href="../../d7/d7a/a00016.html" target="_top" xlink:title="Abstract superclass for all graphical objects. ">
<polygon fill="white" stroke="black" points="106.5,-78.5 106.5,-97.5 186.5,-97.5 186.5,-78.5 106.5,-78.5"/>
<text text-anchor="middle" x="146.5" y="-85.5" font-family="Helvetica,sans-Serif" font-size="10.00">mc::gfx::Entity</text>
</a>
</g>
</g>
<!-- Node3&#45;&gt;Node1 -->
<g id="edge2" class="edge"><title>Node3&#45;&gt;Node1</title>
<path fill="none" stroke="midnightblue" d="M127.958,-71.9746C110.403,-57.7486 84.6507,-36.8808 70.2552,-25.2154"/>
<polygon fill="midnightblue" stroke="midnightblue" points="125.859,-74.7787 135.832,-78.3553 130.266,-69.3402 125.859,-74.7787"/>
</g>
<!-- Node4 -->
<g id="node4" class="node"><title>Node4</title>
<polygon fill="white" stroke="#bfbfbf" points="142,-0.5 142,-30.5 245,-30.5 245,-0.5 142,-0.5"/>
<text text-anchor="start" x="150" y="-18.5" font-family="Helvetica,sans-Serif" font-size="10.00">std::vector&lt; mc::gfx</text>
<text text-anchor="middle" x="193.5" y="-7.5" font-family="Helvetica,sans-Serif" font-size="10.00">::Entity * &gt;</text>
</g>
<!-- Node3&#45;&gt;Node4 -->
<g id="edge4" class="edge"><title>Node3&#45;&gt;Node4</title>
<path fill="none" stroke="#9a32cd" stroke-dasharray="5,2" d="M128.913,-71.0559C123.482,-64.1928 119.98,-56.1251 124.5,-49 129.465,-41.173 136.874,-35.1964 145.019,-30.6435"/>
<polygon fill="#9a32cd" stroke="#9a32cd" points="126.423,-73.518 135.811,-78.4307 131.536,-68.7364 126.423,-73.518"/>
<text text-anchor="middle" x="146" y="-52" font-family="Helvetica,sans-Serif" font-size="10.00"> elements</text>
</g>
<!-- Node4&#45;&gt;Node3 -->
<g id="edge3" class="edge"><title>Node4&#45;&gt;Node3</title>
<path fill="none" stroke="#9a32cd" stroke-dasharray="5,2" d="M183.083,-40.0584C179.741,-46.7243 175.785,-53.8377 171.5,-60 166.978,-66.5038 160.971,-73.0417 155.979,-78.0548"/>
<polygon fill="#9a32cd" stroke="#9a32cd" points="186.364,-41.3085 187.504,-30.7752 180.044,-38.2982 186.364,-41.3085"/>
<text text-anchor="middle" x="197" y="-52" font-family="Helvetica,sans-Serif" font-size="10.00"> children</text>
</g>
<!-- Node5 -->
<g id="node5" class="node"><title>Node5</title>
<g id="a_node5"><a xlink:title="STL class. ">
<polygon fill="white" stroke="#bfbfbf" points="203,-272.5 203,-291.5 288,-291.5 288,-272.5 203,-272.5"/>
<text text-anchor="middle" x="245.5" y="-279.5" font-family="Helvetica,sans-Serif" font-size="10.00">std::vector&lt; T &gt;</text>
</a>
</g>
</g>
<!-- Node5&#45;&gt;Node4 -->
<g id="edge5" class="edge"><title>Node5&#45;&gt;Node4</title>
<path fill="none" stroke="orange" stroke-dasharray="5,2" d="M245.5,-261.7C245.5,-245.393 245.5,-221.418 245.5,-200.5 245.5,-200.5 245.5,-200.5 245.5,-87 245.5,-63.8826 227.168,-43.3631 212.273,-30.5063"/>
<polygon fill="orange" stroke="orange" points="242,-262.066 245.5,-272.066 249,-262.066 242,-262.066"/>
<text text-anchor="middle" x="291.5" y="-152.5" font-family="Helvetica,sans-Serif" font-size="10.00"> &lt; mc::gfx::Entity * &gt;</text>
</g>
<!-- Node6 -->
<g id="node6" class="node"><title>Node6</title>
<polygon fill="white" stroke="#bfbfbf" points="190,-377.5 190,-396.5 219,-396.5 219,-377.5 190,-377.5"/>
<text text-anchor="middle" x="204.5" y="-384.5" font-family="Helvetica,sans-Serif" font-size="10.00">T</text>
</g>
<!-- Node6&#45;&gt;Node5 -->
<g id="edge6" class="edge"><title>Node6&#45;&gt;Node5</title>
<path fill="none" stroke="#9a32cd" stroke-dasharray="5,2" d="M214.187,-368.157C215.702,-365.134 217.196,-362.003 218.5,-359 228.878,-335.113 238.429,-305.817 242.876,-291.582"/>
<polygon fill="#9a32cd" stroke="#9a32cd" points="211.017,-366.666 209.48,-377.149 217.218,-369.912 211.017,-366.666"/>
<text text-anchor="middle" x="245" y="-351" font-family="Helvetica,sans-Serif" font-size="10.00"> elements</text>
</g>
<!-- Node9 -->
<g id="node9" class="node"><title>Node9</title>
<g id="a_node9"><a xlink:href="../../dc/dee/a00053.html" target="_top" xlink:title="1&#45;dimensional vector class that supports mathmatical operations. ">
<polygon fill="white" stroke="black" points="106,-310.5 106,-329.5 207,-329.5 207,-310.5 106,-310.5"/>
<text text-anchor="middle" x="156.5" y="-317.5" font-family="Helvetica,sans-Serif" font-size="10.00">mc::Vector&lt; T, N &gt;</text>
</a>
</g>
</g>
<!-- Node6&#45;&gt;Node9 -->
<g id="edge10" class="edge"><title>Node6&#45;&gt;Node9</title>
<path fill="none" stroke="#9a32cd" stroke-dasharray="5,2" d="M190.548,-369.321C187.827,-365.945 185.034,-362.39 182.5,-359 175.13,-349.14 167.218,-337.391 162.083,-329.595"/>
<polygon fill="#9a32cd" stroke="#9a32cd" points="187.925,-371.641 196.975,-377.149 193.335,-367.2 187.925,-371.641"/>
<text text-anchor="middle" x="200.5" y="-351" font-family="Helvetica,sans-Serif" font-size="10.00"> content</text>
</g>
<!-- Node7 -->
<g id="node7" class="node"><title>Node7</title>
<g id="a_node7"><a xlink:href="../../d2/d79/a00051.html" target="_top" xlink:title="Matrix&#45;based class that allows for the easy creation and management of transformation matrices...">
<polygon fill="white" stroke="black" points="93.5,-145.5 93.5,-164.5 199.5,-164.5 199.5,-145.5 93.5,-145.5"/>
<text text-anchor="middle" x="146.5" y="-152.5" font-family="Helvetica,sans-Serif" font-size="10.00">mc::TransformMatrix</text>
</a>
</g>
</g>
<!-- Node7&#45;&gt;Node3 -->
<g id="edge7" class="edge"><title>Node7&#45;&gt;Node3</title>
<path fill="none" stroke="#9a32cd" stroke-dasharray="5,2" d="M146.5,-135.037C146.5,-122.67 146.5,-107.12 146.5,-97.6273"/>
<polygon fill="#9a32cd" stroke="#9a32cd" points="143,-135.234 146.5,-145.234 150,-135.234 143,-135.234"/>
<text text-anchor="middle" x="179" y="-119" font-family="Helvetica,sans-Serif" font-size="10.00"> transformation</text>
</g>
<!-- Node8 -->
<g id="node8" class="node"><title>Node8</title>
<g id="a_node8"><a xlink:href="../../dc/dee/a00053.html" target="_top" xlink:title="mc::Vector\&lt; float, 3 \&gt;">
<polygon fill="white" stroke="black" points="90.5,-234.5 90.5,-253.5 202.5,-253.5 202.5,-234.5 90.5,-234.5"/>
<text text-anchor="middle" x="146.5" y="-241.5" font-family="Helvetica,sans-Serif" font-size="10.00">mc::Vector&lt; float, 3 &gt;</text>
</a>
</g>
</g>
<!-- Node8&#45;&gt;Node7 -->
<g id="edge8" class="edge"><title>Node8&#45;&gt;Node7</title>
<path fill="none" stroke="#9a32cd" stroke-dasharray="5,2" d="M146.5,-224.195C146.5,-205.738 146.5,-178.412 146.5,-164.625"/>
<polygon fill="#9a32cd" stroke="#9a32cd" points="143,-224.34 146.5,-234.34 150,-224.34 143,-224.34"/>
<text text-anchor="middle" x="169.5" y="-208" font-family="Helvetica,sans-Serif" font-size="10.00"> rotation</text>
<text text-anchor="middle" x="169.5" y="-197" font-family="Helvetica,sans-Serif" font-size="10.00">scaler</text>
<text text-anchor="middle" x="169.5" y="-186" font-family="Helvetica,sans-Serif" font-size="10.00">translation</text>
</g>
<!-- Node9&#45;&gt;Node8 -->
<g id="edge9" class="edge"><title>Node9&#45;&gt;Node8</title>
<path fill="none" stroke="orange" stroke-dasharray="5,2" d="M145.902,-301.463C144.497,-298.404 143.276,-295.181 142.5,-292 139.318,-278.952 141.855,-263.333 144.089,-253.792"/>
<polygon fill="orange" stroke="orange" points="142.894,-303.262 150.701,-310.425 149.065,-299.957 142.894,-303.262"/>
<text text-anchor="middle" x="168" y="-279.5" font-family="Helvetica,sans-Serif" font-size="10.00"> &lt; float, 3 &gt;</text>
</g>
</g>
</svg>
