<?xml version="1.0" encoding="UTF-8" standalone="no"?>
<!DOCTYPE svg PUBLIC "-//W3C//DTD SVG 1.1//EN"
 "http://www.w3.org/Graphics/SVG/1.1/DTD/svg11.dtd">
<!-- Generated by graphviz version 2.38.0 (20140413.2041)
 -->
<!-- Title: mc::gfx::RenderImpl Pages: 1 -->
<svg width="293pt" height="176pt"
 viewBox="0.00 0.00 293.00 175.50" xmlns="http://www.w3.org/2000/svg" xmlns:xlink="http://www.w3.org/1999/xlink">
<g id="graph0" class="graph" transform="scale(1 1) rotate(0) translate(4 171.5)">
<title>mc::gfx::RenderImpl</title>
<polygon fill="white" stroke="none" points="-4,4 -4,-171.5 289,-171.5 289,4 -4,4"/>
<!-- Node1 -->
<g id="node1" class="node"><title>Node1</title>
<polygon fill="#bfbfbf" stroke="black" points="0,-79 0,-98 104,-98 104,-79 0,-79"/>
<text text-anchor="middle" x="52" y="-86" font-family="Helvetica,sans-Serif" font-size="10.00">mc::gfx::RenderImpl</text>
</g>
<!-- Node2 -->
<g id="node2" class="node"><title>Node2</title>
<g id="a_node2"><a xlink:href="$db/d3a/a00040.html" xlink:title="mc::gfx::RenderProtocol\&lt; T \&gt;">
<polygon fill="white" stroke="black" points="140,-148 140,-167 285,-167 285,-148 140,-148"/>
<text text-anchor="middle" x="212.5" y="-155" font-family="Helvetica,sans-Serif" font-size="10.00">mc::gfx::RenderProtocol&lt; T &gt;</text>
</a>
</g>
</g>
<!-- Node1&#45;&gt;Node2 -->
<g id="edge1" class="edge"><title>Node1&#45;&gt;Node2</title>
<path fill="none" stroke="midnightblue" d="M75.5701,-103.674C92.6571,-114.606 117.031,-129.04 140,-138.5 148.907,-142.168 158.732,-145.318 168.173,-147.938"/>
<polygon fill="midnightblue" stroke="midnightblue" points="77.1716,-100.54 66.8821,-98.0145 73.3509,-106.405 77.1716,-100.54"/>
</g>
<!-- Node3 -->
<g id="node3" class="node"><title>Node3</title>
<g id="a_node3"><a xlink:href="$dd/d32/a00041.html" xlink:title="mc::gfx::RenderProtocol\l\&lt; Image \&gt;">
<polygon fill="white" stroke="black" points="151.5,-98.5 151.5,-128.5 273.5,-128.5 273.5,-98.5 151.5,-98.5"/>
<text text-anchor="start" x="159.5" y="-116.5" font-family="Helvetica,sans-Serif" font-size="10.00">mc::gfx::RenderProtocol</text>
<text text-anchor="middle" x="212.5" y="-105.5" font-family="Helvetica,sans-Serif" font-size="10.00">&lt; Image &gt;</text>
</a>
</g>
</g>
<!-- Node1&#45;&gt;Node3 -->
<g id="edge2" class="edge"><title>Node1&#45;&gt;Node3</title>
<path fill="none" stroke="midnightblue" d="M114.139,-98.1434C126.386,-100.075 139.243,-102.103 151.453,-104.029"/>
<polygon fill="midnightblue" stroke="midnightblue" points="114.446,-94.6486 104.023,-96.5478 113.355,-101.563 114.446,-94.6486"/>
</g>
<!-- Node4 -->
<g id="node4" class="node"><title>Node4</title>
<g id="a_node4"><a xlink:href="$d5/db6/a00042.html" xlink:title="mc::gfx::RenderProtocol\l\&lt; Letter \&gt;">
<polygon fill="white" stroke="black" points="151.5,-49.5 151.5,-79.5 273.5,-79.5 273.5,-49.5 151.5,-49.5"/>
<text text-anchor="start" x="159.5" y="-67.5" font-family="Helvetica,sans-Serif" font-size="10.00">mc::gfx::RenderProtocol</text>
<text text-anchor="middle" x="212.5" y="-56.5" font-family="Helvetica,sans-Serif" font-size="10.00">&lt; Letter &gt;</text>
</a>
</g>
</g>
<!-- Node1&#45;&gt;Node4 -->
<g id="edge3" class="edge"><title>Node1&#45;&gt;Node4</title>
<path fill="none" stroke="midnightblue" d="M114.139,-79.2423C126.386,-77.3879 139.243,-75.4411 151.453,-73.5924"/>
<polygon fill="midnightblue" stroke="midnightblue" points="113.386,-75.8164 104.023,-80.7741 114.434,-82.7375 113.386,-75.8164"/>
</g>
<!-- Node5 -->
<g id="node5" class="node"><title>Node5</title>
<g id="a_node5"><a xlink:href="$d6/d42/a00043.html" xlink:title="mc::gfx::RenderProtocol\l\&lt; ProgressBar \&gt;">
<polygon fill="white" stroke="black" points="151.5,-0.5 151.5,-30.5 273.5,-30.5 273.5,-0.5 151.5,-0.5"/>
<text text-anchor="start" x="159.5" y="-18.5" font-family="Helvetica,sans-Serif" font-size="10.00">mc::gfx::RenderProtocol</text>
<text text-anchor="middle" x="212.5" y="-7.5" font-family="Helvetica,sans-Serif" font-size="10.00">&lt; ProgressBar &gt;</text>
</a>
</g>
</g>
<!-- Node1&#45;&gt;Node5 -->
<g id="edge4" class="edge"><title>Node1&#45;&gt;Node5</title>
<path fill="none" stroke="midnightblue" d="M77.4201,-73.5798C94.5544,-63.4739 118.207,-50.2392 140,-40.5 147.924,-36.9589 156.514,-33.582 164.901,-30.52"/>
<polygon fill="midnightblue" stroke="midnightblue" points="75.4172,-70.6992 68.6248,-78.8303 79.0053,-76.7097 75.4172,-70.6992"/>
</g>
</g>
</svg>
