<?xml version="1.0" encoding="UTF-8" standalone="no"?>
<!DOCTYPE svg PUBLIC "-//W3C//DTD SVG 1.1//EN"
 "http://www.w3.org/Graphics/SVG/1.1/DTD/svg11.dtd">
<!-- Generated by graphviz version 2.38.0 (20140413.2041)
 -->
<!-- Title: mc::gfx::Entity Pages: 1 -->
<svg width="499pt" height="196pt"
 viewBox="0.00 0.00 499.00 196.00" xmlns="http://www.w3.org/2000/svg" xmlns:xlink="http://www.w3.org/1999/xlink">
<g id="graph0" class="graph" transform="scale(1 1) rotate(0) translate(4 192)">
<title>mc::gfx::Entity</title>
<polygon fill="white" stroke="none" points="-4,4 -4,-192 495,-192 495,4 -4,4"/>
<!-- Node1 -->
<g id="node1" class="node"><title>Node1</title>
<polygon fill="#bfbfbf" stroke="black" points="273.5,-168.5 273.5,-187.5 353.5,-187.5 353.5,-168.5 273.5,-168.5"/>
<text text-anchor="middle" x="313.5" y="-175.5" font-family="Helvetica,sans-Serif" font-size="10.00">mc::gfx::Entity</text>
</g>
<!-- Node2 -->
<g id="node2" class="node"><title>Node2</title>
<g id="a_node2"><a xlink:href="$de/d11/a00021.html" xlink:title="mc::gfx::GraphicsEntity">
<polygon fill="white" stroke="black" points="136,-112.5 136,-131.5 255,-131.5 255,-112.5 136,-112.5"/>
<text text-anchor="middle" x="195.5" y="-119.5" font-family="Helvetica,sans-Serif" font-size="10.00">mc::gfx::GraphicsEntity</text>
</a>
</g>
</g>
<!-- Node1&#45;&gt;Node2 -->
<g id="edge1" class="edge"><title>Node1&#45;&gt;Node2</title>
<path fill="none" stroke="midnightblue" d="M285.6,-164.232C263.527,-154.131 233.324,-140.309 214.11,-131.516"/>
<polygon fill="midnightblue" stroke="midnightblue" points="284.253,-167.465 294.803,-168.444 287.166,-161.1 284.253,-167.465"/>
</g>
<!-- Node8 -->
<g id="node8" class="node"><title>Node8</title>
<g id="a_node8"><a xlink:href="$d7/de0/a00022.html" xlink:title="mc::gfx::Group">
<polygon fill="white" stroke="black" points="273,-112.5 273,-131.5 354,-131.5 354,-112.5 273,-112.5"/>
<text text-anchor="middle" x="313.5" y="-119.5" font-family="Helvetica,sans-Serif" font-size="10.00">mc::gfx::Group</text>
</a>
</g>
</g>
<!-- Node1&#45;&gt;Node8 -->
<g id="edge7" class="edge"><title>Node1&#45;&gt;Node8</title>
<path fill="none" stroke="midnightblue" d="M313.5,-157.805C313.5,-148.91 313.5,-138.78 313.5,-131.751"/>
<polygon fill="midnightblue" stroke="midnightblue" points="310,-158.083 313.5,-168.083 317,-158.083 310,-158.083"/>
</g>
<!-- Node9 -->
<g id="node9" class="node"><title>Node9</title>
<g id="a_node9"><a xlink:href="$d4/d6d/a00055.html" xlink:title="mc::os::WindowModule">
<polygon fill="white" stroke="black" points="372,-112.5 372,-131.5 491,-131.5 491,-112.5 372,-112.5"/>
<text text-anchor="middle" x="431.5" y="-119.5" font-family="Helvetica,sans-Serif" font-size="10.00">mc::os::WindowModule</text>
</a>
</g>
</g>
<!-- Node1&#45;&gt;Node9 -->
<g id="edge8" class="edge"><title>Node1&#45;&gt;Node9</title>
<path fill="none" stroke="midnightblue" d="M341.4,-164.232C363.473,-154.131 393.676,-140.309 412.89,-131.516"/>
<polygon fill="midnightblue" stroke="midnightblue" points="339.834,-161.1 332.197,-168.444 342.747,-167.465 339.834,-161.1"/>
</g>
<!-- Node3 -->
<g id="node3" class="node"><title>Node3</title>
<g id="a_node3"><a xlink:href="$d7/d7a/a00016.html" xlink:title="mc::gfx::Entity2D">
<polygon fill="white" stroke="black" points="149.5,-56.5 149.5,-75.5 241.5,-75.5 241.5,-56.5 149.5,-56.5"/>
<text text-anchor="middle" x="195.5" y="-63.5" font-family="Helvetica,sans-Serif" font-size="10.00">mc::gfx::Entity2D</text>
</a>
</g>
</g>
<!-- Node2&#45;&gt;Node3 -->
<g id="edge2" class="edge"><title>Node2&#45;&gt;Node3</title>
<path fill="none" stroke="midnightblue" d="M195.5,-101.805C195.5,-92.9102 195.5,-82.7798 195.5,-75.7511"/>
<polygon fill="midnightblue" stroke="midnightblue" points="192,-102.083 195.5,-112.083 199,-102.083 192,-102.083"/>
</g>
<!-- Node4 -->
<g id="node4" class="node"><title>Node4</title>
<g id="a_node4"><a xlink:href="$d3/d52/a00023.html" xlink:title="mc::gfx::Image">
<polygon fill="white" stroke="black" points="0,-0.5 0,-19.5 81,-19.5 81,-0.5 0,-0.5"/>
<text text-anchor="middle" x="40.5" y="-7.5" font-family="Helvetica,sans-Serif" font-size="10.00">mc::gfx::Image</text>
</a>
</g>
</g>
<!-- Node3&#45;&gt;Node4 -->
<g id="edge3" class="edge"><title>Node3&#45;&gt;Node4</title>
<path fill="none" stroke="midnightblue" d="M161.168,-53.0392C132.003,-42.8786 90.8627,-28.5457 64.9453,-19.5164"/>
<polygon fill="midnightblue" stroke="midnightblue" points="160.345,-56.4587 170.94,-56.4435 162.648,-49.8484 160.345,-56.4587"/>
</g>
<!-- Node5 -->
<g id="node5" class="node"><title>Node5</title>
<g id="a_node5"><a xlink:href="$d0/d33/a00027.html" xlink:title="mc::gfx::Letter">
<polygon fill="white" stroke="black" points="99.5,-0.5 99.5,-19.5 179.5,-19.5 179.5,-0.5 99.5,-0.5"/>
<text text-anchor="middle" x="139.5" y="-7.5" font-family="Helvetica,sans-Serif" font-size="10.00">mc::gfx::Letter</text>
</a>
</g>
</g>
<!-- Node3&#45;&gt;Node5 -->
<g id="edge4" class="edge"><title>Node3&#45;&gt;Node5</title>
<path fill="none" stroke="midnightblue" d="M179.17,-49.2533C169.235,-39.6731 156.912,-27.7906 148.661,-19.8339"/>
<polygon fill="midnightblue" stroke="midnightblue" points="176.875,-51.902 186.503,-56.324 181.734,-46.8631 176.875,-51.902"/>
</g>
<!-- Node6 -->
<g id="node6" class="node"><title>Node6</title>
<g id="a_node6"><a xlink:href="$d4/d8c/a00035.html" xlink:title="mc::gfx::ProgressBar">
<polygon fill="white" stroke="black" points="198,-0.5 198,-19.5 307,-19.5 307,-0.5 198,-0.5"/>
<text text-anchor="middle" x="252.5" y="-7.5" font-family="Helvetica,sans-Serif" font-size="10.00">mc::gfx::ProgressBar</text>
</a>
</g>
</g>
<!-- Node3&#45;&gt;Node6 -->
<g id="edge5" class="edge"><title>Node3&#45;&gt;Node6</title>
<path fill="none" stroke="midnightblue" d="M212.121,-49.2533C222.234,-39.6731 234.777,-27.7906 243.175,-19.8339"/>
<polygon fill="midnightblue" stroke="midnightblue" points="209.51,-46.9056 204.658,-56.324 214.325,-51.9873 209.51,-46.9056"/>
</g>
<!-- Node7 -->
<g id="node7" class="node"><title>Node7</title>
<g id="a_node7"><a xlink:href="$d4/dca/a00048.html" xlink:title="mc::gfx::Text">
<polygon fill="white" stroke="black" points="325.5,-0.5 325.5,-19.5 399.5,-19.5 399.5,-0.5 325.5,-0.5"/>
<text text-anchor="middle" x="362.5" y="-7.5" font-family="Helvetica,sans-Serif" font-size="10.00">mc::gfx::Text</text>
</a>
</g>
</g>
<!-- Node3&#45;&gt;Node7 -->
<g id="edge6" class="edge"><title>Node3&#45;&gt;Node7</title>
<path fill="none" stroke="midnightblue" d="M231.67,-53.3044C263.137,-43.1294 307.994,-28.6246 336.162,-19.5164"/>
<polygon fill="midnightblue" stroke="midnightblue" points="230.4,-50.0366 221.962,-56.4435 232.553,-56.697 230.4,-50.0366"/>
</g>
</g>
</svg>
