<?xml version="1.0" encoding="UTF-8" standalone="no"?>
<!DOCTYPE svg PUBLIC "-//W3C//DTD SVG 1.1//EN"
 "http://www.w3.org/Graphics/SVG/1.1/DTD/svg11.dtd">
<!-- Generated by graphviz version 2.38.0 (20140413.2041)
 -->
<!-- Title: mc::gfx::GraphicsContext Pages: 1 -->
<!--zoomable 650 -->
<svg id="main" version="1.1" xmlns="http://www.w3.org/2000/svg" xmlns:xlink="http://www.w3.org/1999/xlink" xml:space="preserve" onload="init(evt)">
<style type="text/css"><![CDATA[
.edge:hover path { stroke: red; }
.edge:hover polygon { stroke: red; fill: red; }
]]></style>
<script type="text/javascript"><![CDATA[
var edges = document.getElementsByTagName('g');
if (edges && edges.length) {
  for (var i=0;i<edges.length;i++) {
    if (edges[i].id.substr(0,4)=='edge') {
      edges[i].setAttribute('class','edge');
    }
  }
}
]]></script>
        <defs>
                <circle id="rim" cx="0" cy="0" r="7"/>
                <circle id="rim2" cx="0" cy="0" r="3.5"/>
                <g id="zoomPlus">
                        <use xlink:href="#rim" fill="#404040">
                                <set attributeName="fill" to="#808080" begin="zoomplus.mouseover" end="zoomplus.mouseout"/>
                        </use>
                        <path d="M-4,0h8M0,-4v8" fill="none" stroke="white" stroke-width="1.5" pointer-events="none"/>
                </g>
                <g id="zoomMin">
                        <use xlink:href="#rim" fill="#404040">
                                <set attributeName="fill" to="#808080" begin="zoomminus.mouseover" end="zoomminus.mouseout"/>
                        </use>
                        <path d="M-4,0h8" fill="none" stroke="white" stroke-width="1.5" pointer-events="none"/>
                </g>
                <g id="dirArrow">
                        <path fill="none" stroke="white" stroke-width="1.5" d="M0,-3.0v7 M-2.5,-0.5L0,-3.0L2.5,-0.5"/>
                </g>
               <g id="resetDef">
                       <use xlink:href="#rim2" fill="#404040">
                               <set attributeName="fill" to="#808080" begin="reset.mouseover" end="reset.mouseout"/>
                       </use>
               </g>
        </defs>

<script type="text/javascript">
var viewWidth = 445;
var viewHeight = 650;
var sectionId = 'dynsection-1';
</script>
<script xlink:href="../../svgpan.js"/>
<svg id="graph" class="graph">
<g id="viewport">
<title>mc::gfx::GraphicsContext</title>
<polygon fill="white" stroke="none" points="-4,4 -4,-646 440.5,-646 440.5,4 -4,4"/>
<!-- Node1 -->
<g id="node1" class="node"><title>Node1</title>
<polygon fill="#bfbfbf" stroke="black" points="3.5,-0.5 3.5,-19.5 131.5,-19.5 131.5,-0.5 3.5,-0.5"/>
<text text-anchor="middle" x="67.5" y="-7.5" font-family="Helvetica,sans-Serif" font-size="10.00">mc::gfx::GraphicsContext</text>
</g>
<!-- Node2 -->
<g id="node2" class="node"><title>Node2</title>
<g id="a_node2"><a xlink:href="../../d4/d8c/a00035.html" target="_top" xlink:title="mc::Initializable">
<polygon fill="white" stroke="black" points="36.5,-212.5 36.5,-231.5 120.5,-231.5 120.5,-212.5 36.5,-212.5"/>
<text text-anchor="middle" x="78.5" y="-219.5" font-family="Helvetica,sans-Serif" font-size="10.00">mc::Initializable</text>
</a>
</g>
</g>
<!-- Node2&#45;&gt;Node1 -->
<g id="edge1" class="edge"><title>Node2&#45;&gt;Node1</title>
<path fill="none" stroke="midnightblue" d="M69.4605,-203.06C64.5592,-192.318 59.004,-178.222 56.5,-165 48.3954,-122.205 52.2826,-110.351 56.5,-67 58.1501,-50.0383 62.5485,-30.5896 65.2572,-19.6526"/>
<polygon fill="midnightblue" stroke="midnightblue" points="66.3598,-204.689 73.8384,-212.194 72.6722,-201.663 66.3598,-204.689"/>
</g>
<!-- Node4 -->
<g id="node4" class="node"><title>Node4</title>
<g id="a_node4"><a xlink:href="../../d5/df9/a00044.html" target="_top" xlink:title="Abstract class used for doing a task in MACE. ">
<polygon fill="white" stroke="black" points="65.5,-145.5 65.5,-164.5 133.5,-164.5 133.5,-145.5 65.5,-145.5"/>
<text text-anchor="middle" x="99.5" y="-152.5" font-family="Helvetica,sans-Serif" font-size="10.00">mc::Module</text>
</a>
</g>
</g>
<!-- Node2&#45;&gt;Node4 -->
<g id="edge4" class="edge"><title>Node2&#45;&gt;Node4</title>
<path fill="none" stroke="midnightblue" d="M84.5045,-202.415C88.5192,-189.988 93.6146,-174.217 96.7127,-164.627"/>
<polygon fill="midnightblue" stroke="midnightblue" points="81.076,-201.642 81.3322,-212.234 87.737,-203.794 81.076,-201.642"/>
</g>
<!-- Node5 -->
<g id="node5" class="node"><title>Node5</title>
<g id="a_node5"><a xlink:href="../../d7/de0/a00022.html" target="_top" xlink:title="Abstract superclass for all graphical objects. ">
<polygon fill="white" stroke="black" points="151.5,-145.5 151.5,-164.5 231.5,-164.5 231.5,-145.5 151.5,-145.5"/>
<text text-anchor="middle" x="191.5" y="-152.5" font-family="Helvetica,sans-Serif" font-size="10.00">mc::gfx::Entity</text>
</a>
</g>
</g>
<!-- Node2&#45;&gt;Node5 -->
<g id="edge6" class="edge"><title>Node2&#45;&gt;Node5</title>
<path fill="none" stroke="midnightblue" d="M102.638,-207.115C125.026,-194.237 157.642,-175.476 176.502,-164.627"/>
<polygon fill="midnightblue" stroke="midnightblue" points="100.663,-204.214 93.7397,-212.234 104.153,-210.281 100.663,-204.214"/>
</g>
<!-- Node3 -->
<g id="node3" class="node"><title>Node3</title>
<g id="a_node3"><a xlink:href="../../d1/d1e/a00087.html" target="_top" xlink:title="mc::os::WindowModule">
<polygon fill="white" stroke="black" points="66,-73 66,-92 185,-92 185,-73 66,-73"/>
<text text-anchor="middle" x="125.5" y="-80" font-family="Helvetica,sans-Serif" font-size="10.00">mc::os::WindowModule</text>
</a>
</g>
</g>
<!-- Node3&#45;&gt;Node1 -->
<g id="edge2" class="edge"><title>Node3&#45;&gt;Node1</title>
<path fill="none" stroke="#9a32cd" stroke-dasharray="5,2" d="M111.841,-64.8971C100.196,-50.7431 83.9182,-30.9566 74.6701,-19.7154"/>
<polygon fill="#9a32cd" stroke="#9a32cd" points="109.332,-67.3565 118.388,-72.8553 114.738,-62.9092 109.332,-67.3565"/>
<text text-anchor="middle" x="116" y="-41" font-family="Helvetica,sans-Serif" font-size="10.00"> window</text>
</g>
<!-- Node4&#45;&gt;Node3 -->
<g id="edge3" class="edge"><title>Node4&#45;&gt;Node3</title>
<path fill="none" stroke="midnightblue" d="M106.223,-135.771C111.389,-121.762 118.297,-103.032 122.286,-92.2154"/>
<polygon fill="midnightblue" stroke="midnightblue" points="102.865,-134.762 102.688,-145.355 109.432,-137.184 102.865,-134.762"/>
</g>
<!-- Node5&#45;&gt;Node3 -->
<g id="edge5" class="edge"><title>Node5&#45;&gt;Node3</title>
<path fill="none" stroke="midnightblue" d="M176.33,-137.796C163.057,-123.617 144.282,-103.563 133.659,-92.2154"/>
<polygon fill="midnightblue" stroke="midnightblue" points="174.018,-140.447 183.407,-145.355 179.128,-135.663 174.018,-140.447"/>
</g>
<!-- Node6 -->
<g id="node6" class="node"><title>Node6</title>
<polygon fill="white" stroke="#bfbfbf" points="206,-67.5 206,-97.5 309,-97.5 309,-67.5 206,-67.5"/>
<text text-anchor="start" x="214" y="-85.5" font-family="Helvetica,sans-Serif" font-size="10.00">std::vector&lt; mc::gfx</text>
<text text-anchor="middle" x="257.5" y="-74.5" font-family="Helvetica,sans-Serif" font-size="10.00">::Entity * &gt;</text>
</g>
<!-- Node5&#45;&gt;Node6 -->
<g id="edge8" class="edge"><title>Node5&#45;&gt;Node6</title>
<path fill="none" stroke="#9a32cd" stroke-dasharray="5,2" d="M185.601,-135.327C184.63,-128.78 184.912,-121.656 188.5,-116 193.465,-108.173 200.874,-102.196 209.019,-97.6435"/>
<polygon fill="#9a32cd" stroke="#9a32cd" points="182.295,-136.547 188.055,-145.439 189.098,-134.896 182.295,-136.547"/>
<text text-anchor="middle" x="210" y="-119" font-family="Helvetica,sans-Serif" font-size="10.00"> elements</text>
</g>
<!-- Node6&#45;&gt;Node5 -->
<g id="edge7" class="edge"><title>Node6&#45;&gt;Node5</title>
<path fill="none" stroke="#9a32cd" stroke-dasharray="5,2" d="M248.64,-106.795C245.24,-113.808 240.861,-121.18 235.5,-127 228.457,-134.647 218.762,-140.908 210.265,-145.468"/>
<polygon fill="#9a32cd" stroke="#9a32cd" points="251.848,-108.196 252.67,-97.633 245.44,-105.378 251.848,-108.196"/>
<text text-anchor="middle" x="262" y="-119" font-family="Helvetica,sans-Serif" font-size="10.00"> children</text>
</g>
<!-- Node7 -->
<g id="node7" class="node"><title>Node7</title>
<g id="a_node7"><a xlink:title="STL class. ">
<polygon fill="white" stroke="#bfbfbf" points="305,-505.5 305,-524.5 390,-524.5 390,-505.5 305,-505.5"/>
<text text-anchor="middle" x="347.5" y="-512.5" font-family="Helvetica,sans-Serif" font-size="10.00">std::vector&lt; T &gt;</text>
</a>
</g>
</g>
<!-- Node7&#45;&gt;Node6 -->
<g id="edge9" class="edge"><title>Node7&#45;&gt;Node6</title>
<path fill="none" stroke="orange" stroke-dasharray="5,2" d="M346.534,-495.43C345.657,-476.948 344.5,-447.771 344.5,-422.5 344.5,-422.5 344.5,-422.5 344.5,-154 344.5,-127.172 319.219,-108.781 295.913,-97.5275"/>
<polygon fill="orange" stroke="orange" points="343.039,-495.611 347.031,-505.425 350.03,-495.263 343.039,-495.611"/>
<text text-anchor="middle" x="390.5" y="-308.5" font-family="Helvetica,sans-Serif" font-size="10.00"> &lt; mc::gfx::Entity * &gt;</text>
</g>
<!-- Node8 -->
<g id="node8" class="node"><title>Node8</title>
<polygon fill="white" stroke="#bfbfbf" points="271,-622.5 271,-641.5 300,-641.5 300,-622.5 271,-622.5"/>
<text text-anchor="middle" x="285.5" y="-629.5" font-family="Helvetica,sans-Serif" font-size="10.00">T</text>
</g>
<!-- Node8&#45;&gt;Node7 -->
<g id="edge10" class="edge"><title>Node8&#45;&gt;Node7</title>
<path fill="none" stroke="#9a32cd" stroke-dasharray="5,2" d="M299.199,-614.312C307.566,-603.557 318.052,-589.011 325.5,-575 334.531,-558.011 341.543,-536.495 345.043,-524.707"/>
<polygon fill="#9a32cd" stroke="#9a32cd" points="296.28,-612.358 292.782,-622.359 301.753,-616.722 296.28,-612.358"/>
<text text-anchor="middle" x="335" y="-596" font-family="Helvetica,sans-Serif" font-size="10.00"> elements</text>
</g>
<!-- Node12 -->
<g id="node12" class="node"><title>Node12</title>
<g id="a_node12"><a xlink:href="../../df/d5d/a00084.html" target="_top" xlink:title="1&#45;dimensional vector class that supports mathmatical operations. ">
<polygon fill="white" stroke="black" points="100,-544.5 100,-574.5 221,-574.5 221,-544.5 100,-544.5"/>
<text text-anchor="start" x="108" y="-562.5" font-family="Helvetica,sans-Serif" font-size="10.00">mc::VectorBase&lt; Child,</text>
<text text-anchor="middle" x="160.5" y="-551.5" font-family="Helvetica,sans-Serif" font-size="10.00"> T, N &gt;</text>
</a>
</g>
</g>
<!-- Node8&#45;&gt;Node12 -->
<g id="edge15" class="edge"><title>Node8&#45;&gt;Node12</title>
<path fill="none" stroke="#9a32cd" stroke-dasharray="5,2" d="M262.084,-618.546C253.671,-614.021 244.131,-608.832 235.5,-604 218.294,-594.368 199.058,-583.203 184.375,-574.596"/>
<polygon fill="#9a32cd" stroke="#9a32cd" points="260.528,-621.682 270.995,-623.318 263.832,-615.511 260.528,-621.682"/>
<text text-anchor="middle" x="253.5" y="-596" font-family="Helvetica,sans-Serif" font-size="10.00"> content</text>
</g>
<!-- Node14 -->
<g id="node14" class="node"><title>Node14</title>
<g id="a_node14"><a xlink:href="../../df/d5d/a00084.html" target="_top" xlink:title="mc::VectorBase\&lt; Vector\l\&lt; T, N \&gt;, T, N \&gt;">
<polygon fill="white" stroke="black" points="102,-455.5 102,-485.5 227,-485.5 227,-455.5 102,-455.5"/>
<text text-anchor="start" x="110" y="-473.5" font-family="Helvetica,sans-Serif" font-size="10.00">mc::VectorBase&lt; Vector</text>
<text text-anchor="middle" x="164.5" y="-462.5" font-family="Helvetica,sans-Serif" font-size="10.00">&lt; T, N &gt;, T, N &gt;</text>
</a>
</g>
</g>
<!-- Node8&#45;&gt;Node14 -->
<g id="edge18" class="edge"><title>Node8&#45;&gt;Node14</title>
<path fill="none" stroke="#9a32cd" stroke-dasharray="5,2" d="M285.881,-612.235C286.125,-580.964 284.813,-520.037 271.5,-504 260.339,-490.556 243.801,-482.548 227.046,-477.815"/>
<polygon fill="#9a32cd" stroke="#9a32cd" points="282.381,-612.228 285.74,-622.276 289.38,-612.326 282.381,-612.228"/>
<text text-anchor="middle" x="303.5" y="-557" font-family="Helvetica,sans-Serif" font-size="10.00"> content</text>
</g>
<!-- Node9 -->
<g id="node9" class="node"><title>Node9</title>
<g id="a_node9"><a xlink:href="../../db/db6/a00074.html" target="_top" xlink:title="Matrix&#45;based class that allows for the easy creation and management of transformation matrices...">
<polygon fill="white" stroke="black" points="138.5,-212.5 138.5,-231.5 244.5,-231.5 244.5,-212.5 138.5,-212.5"/>
<text text-anchor="middle" x="191.5" y="-219.5" font-family="Helvetica,sans-Serif" font-size="10.00">mc::TransformMatrix</text>
</a>
</g>
</g>
<!-- Node9&#45;&gt;Node5 -->
<g id="edge11" class="edge"><title>Node9&#45;&gt;Node5</title>
<path fill="none" stroke="#9a32cd" stroke-dasharray="5,2" d="M191.5,-202.037C191.5,-189.67 191.5,-174.12 191.5,-164.627"/>
<polygon fill="#9a32cd" stroke="#9a32cd" points="188,-202.234 191.5,-212.234 195,-202.234 188,-202.234"/>
<text text-anchor="middle" x="224" y="-186" font-family="Helvetica,sans-Serif" font-size="10.00"> transformation</text>
</g>
<!-- Node10 -->
<g id="node10" class="node"><title>Node10</title>
<g id="a_node10"><a xlink:href="../../db/df8/a00076.html" target="_top" xlink:title="mc::Vector\&lt; float, 3 \&gt;">
<polygon fill="white" stroke="black" points="108.5,-301.5 108.5,-320.5 220.5,-320.5 220.5,-301.5 108.5,-301.5"/>
<text text-anchor="middle" x="164.5" y="-308.5" font-family="Helvetica,sans-Serif" font-size="10.00">mc::Vector&lt; float, 3 &gt;</text>
</a>
</g>
</g>
<!-- Node10&#45;&gt;Node9 -->
<g id="edge12" class="edge"><title>Node10&#45;&gt;Node9</title>
<path fill="none" stroke="#9a32cd" stroke-dasharray="5,2" d="M170.175,-291.715C175.904,-273.255 184.504,-245.542 188.823,-231.625"/>
<polygon fill="#9a32cd" stroke="#9a32cd" points="166.809,-290.752 167.188,-301.34 173.494,-292.827 166.809,-290.752"/>
<text text-anchor="middle" x="206.5" y="-275" font-family="Helvetica,sans-Serif" font-size="10.00"> rotation</text>
<text text-anchor="middle" x="206.5" y="-264" font-family="Helvetica,sans-Serif" font-size="10.00">scaler</text>
<text text-anchor="middle" x="206.5" y="-253" font-family="Helvetica,sans-Serif" font-size="10.00">translation</text>
</g>
<!-- Node11 -->
<g id="node11" class="node"><title>Node11</title>
<g id="a_node11"><a xlink:href="../../df/d5d/a00084.html" target="_top" xlink:title="mc::VectorBase\&lt; Vector\l\&lt; float, N \&gt;, float, N \&gt;">
<polygon fill="white" stroke="black" points="0,-406.5 0,-436.5 125,-436.5 125,-406.5 0,-406.5"/>
<text text-anchor="start" x="8" y="-424.5" font-family="Helvetica,sans-Serif" font-size="10.00">mc::VectorBase&lt; Vector</text>
<text text-anchor="middle" x="62.5" y="-413.5" font-family="Helvetica,sans-Serif" font-size="10.00">&lt; float, N &gt;, float, N &gt;</text>
</a>
</g>
</g>
<!-- Node11&#45;&gt;Node10 -->
<g id="edge13" class="edge"><title>Node11&#45;&gt;Node10</title>
<path fill="none" stroke="midnightblue" d="M79.3349,-398.004C86.7509,-388.486 95.7536,-377.44 104.5,-368 120.963,-350.232 142.02,-331.367 154.31,-320.698"/>
<polygon fill="midnightblue" stroke="midnightblue" points="76.3363,-396.162 73.0232,-406.226 81.8888,-400.425 76.3363,-396.162"/>
</g>
<!-- Node12&#45;&gt;Node11 -->
<g id="edge14" class="edge"><title>Node12&#45;&gt;Node11</title>
<path fill="none" stroke="orange" stroke-dasharray="5,2" d="M91.0695,-539.146C85.5625,-535.494 80.5682,-531.156 76.5,-526 55.9453,-499.951 57.6234,-458.255 60.2518,-436.594"/>
<polygon fill="orange" stroke="orange" points="89.6732,-542.38 100.086,-544.336 93.1654,-536.314 89.6732,-542.38"/>
<text text-anchor="start" x="76.5" y="-518" font-family="Helvetica,sans-Serif" font-size="10.00"> &lt; Vector&lt; float, N</text>
<text text-anchor="middle" x="117" y="-507" font-family="Helvetica,sans-Serif" font-size="10.00"> &gt;, float, N &gt;</text>
</g>
<!-- Node12&#45;&gt;Node14 -->
<g id="edge19" class="edge"><title>Node12&#45;&gt;Node14</title>
<path fill="none" stroke="orange" stroke-dasharray="5,2" d="M160.567,-533.933C160.693,-524.56 160.96,-513.78 161.5,-504 161.831,-498.003 162.403,-491.4 162.958,-485.721"/>
<polygon fill="orange" stroke="orange" points="157.065,-534.115 160.475,-544.146 164.065,-534.178 157.065,-534.115"/>
<text text-anchor="middle" x="216.5" y="-512.5" font-family="Helvetica,sans-Serif" font-size="10.00"> &lt; Vector&lt; T, N &gt;, T, N &gt;</text>
</g>
<!-- Node13 -->
<g id="node13" class="node"><title>Node13</title>
<g id="a_node13"><a xlink:href="../../db/df8/a00076.html" target="_top" xlink:title="mc::Vector\&lt; T, N \&gt;">
<polygon fill="white" stroke="black" points="114,-368.5 114,-387.5 215,-387.5 215,-368.5 114,-368.5"/>
<text text-anchor="middle" x="164.5" y="-375.5" font-family="Helvetica,sans-Serif" font-size="10.00">mc::Vector&lt; T, N &gt;</text>
</a>
</g>
</g>
<!-- Node13&#45;&gt;Node10 -->
<g id="edge16" class="edge"><title>Node13&#45;&gt;Node10</title>
<path fill="none" stroke="orange" stroke-dasharray="5,2" d="M164.5,-358.037C164.5,-345.67 164.5,-330.12 164.5,-320.627"/>
<polygon fill="orange" stroke="orange" points="161,-358.234 164.5,-368.234 168,-358.234 161,-358.234"/>
<text text-anchor="middle" x="190" y="-342" font-family="Helvetica,sans-Serif" font-size="10.00"> &lt; float, 3 &gt;</text>
</g>
<!-- Node14&#45;&gt;Node13 -->
<g id="edge17" class="edge"><title>Node14&#45;&gt;Node13</title>
<path fill="none" stroke="midnightblue" d="M164.5,-445.275C164.5,-426.198 164.5,-400.709 164.5,-387.596"/>
<polygon fill="midnightblue" stroke="midnightblue" points="161,-445.359 164.5,-455.359 168,-445.359 161,-445.359"/>
</g>
</g>
</svg>
        <g id="navigator" transform="translate(0 0)" fill="#404254">
                <rect fill="#f2f5e9" fill-opacity="0.5" stroke="#606060" stroke-width=".5" x="0" y="0" width="60" height="60"/>
                <use id="zoomplus" xlink:href="#zoomPlus" x="17" y="9" onmousedown="handleZoom(evt,'in')"/>
                <use id="zoomminus" xlink:href="#zoomMin" x="42" y="9" onmousedown="handleZoom(evt,'out')"/>
                <use id="reset" xlink:href="#resetDef" x="30" y="36" onmousedown="handleReset()"/>
                <g id="arrowUp" xlink:href="#dirArrow" transform="translate(30 24)" onmousedown="handlePan(0,-1)">
                  <use xlink:href="#rim" fill="#404040">
                        <set attributeName="fill" to="#808080" begin="arrowUp.mouseover" end="arrowUp.mouseout"/>
                  </use>
                  <path fill="none" stroke="white" stroke-width="1.5" d="M0,-3.0v7 M-2.5,-0.5L0,-3.0L2.5,-0.5"/>
                </g>
                <g id="arrowRight" xlink:href="#dirArrow" transform="rotate(90) translate(36 -43)" onmousedown="handlePan(1,0)">
                  <use xlink:href="#rim" fill="#404040">
                        <set attributeName="fill" to="#808080" begin="arrowRight.mouseover" end="arrowRight.mouseout"/>
                  </use>
                  <path fill="none" stroke="white" stroke-width="1.5" d="M0,-3.0v7 M-2.5,-0.5L0,-3.0L2.5,-0.5"/>
                </g>
                <g id="arrowDown" xlink:href="#dirArrow" transform="rotate(180) translate(-30 -48)" onmousedown="handlePan(0,1)">
                  <use xlink:href="#rim" fill="#404040">
                        <set attributeName="fill" to="#808080" begin="arrowDown.mouseover" end="arrowDown.mouseout"/>
                  </use>
                  <path fill="none" stroke="white" stroke-width="1.5" d="M0,-3.0v7 M-2.5,-0.5L0,-3.0L2.5,-0.5"/>
                </g>
                <g id="arrowLeft" xlink:href="#dirArrow" transform="rotate(270) translate(-36 17)" onmousedown="handlePan(-1,0)">
                  <use xlink:href="#rim" fill="#404040">
                        <set attributeName="fill" to="#808080" begin="arrowLeft.mouseover" end="arrowLeft.mouseout"/>
                  </use>
                  <path fill="none" stroke="white" stroke-width="1.5" d="M0,-3.0v7 M-2.5,-0.5L0,-3.0L2.5,-0.5"/>
                </g>
        </g>
        <svg viewBox="0 0 15 15" width="100%" height="30px" preserveAspectRatio="xMaxYMin meet">
         <g id="arrow_out" transform="scale(0.3 0.3)">
          <a xlink:href="a00240_org.svg" target="_base">
           <rect id="button" ry="5" rx="5" y="6" x="6" height="38" width="38"
                fill="#f2f5e9" fill-opacity="0.5" stroke="#606060" stroke-width="1.0"/>
           <path id="arrow"
             d="M 11.500037,31.436501 C 11.940474,20.09759 22.043105,11.32322 32.158766,21.979434 L 37.068811,17.246167 C 37.068811,17.246167 37.088388,32 37.088388,32 L 22.160133,31.978069 C 22.160133,31.978069 26.997745,27.140456 26.997745,27.140456 C 18.528582,18.264221 13.291696,25.230495 11.500037,31.436501 z"
             style="fill:#404040;"/>
          </a>
         </g>
        </svg>
</svg>
