<?xml version="1.0" encoding="UTF-8" standalone="no"?>
<!DOCTYPE svg PUBLIC "-//W3C//DTD SVG 1.1//EN"
 "http://www.w3.org/Graphics/SVG/1.1/DTD/svg11.dtd">
<!-- Generated by graphviz version 2.38.0 (20140413.2041)
 -->
<!-- Title: mc::Color Pages: 1 -->
<svg width="160pt" height="129pt"
 viewBox="0.00 0.00 160.00 129.00" xmlns="http://www.w3.org/2000/svg" xmlns:xlink="http://www.w3.org/1999/xlink">
<g id="graph0" class="graph" transform="scale(1 1) rotate(0) translate(4 125)">
<title>mc::Color</title>
<polygon fill="white" stroke="none" points="-4,4 -4,-125 156,-125 156,4 -4,4"/>
<!-- Node1 -->
<g id="node1" class="node"><title>Node1</title>
<polygon fill="#bfbfbf" stroke="black" points="0,-51 0,-70 59,-70 59,-51 0,-51"/>
<text text-anchor="middle" x="29.5" y="-58" font-family="Helvetica,sans-Serif" font-size="10.00">mc::Color</text>
</g>
<!-- Node1&#45;&gt;Node1 -->
<g id="edge1" class="edge"><title>Node1&#45;&gt;Node1</title>
<path fill="none" stroke="#9a32cd" stroke-dasharray="5,2" d="M69.5243,-63.6778C74.0602,-63.0827 77,-62.0234 77,-60.5 77,-58 69.0833,-56.75 59.1875,-56.75"/>
<polygon fill="#9a32cd" stroke="#9a32cd" points="68.9787,-60.2025 59.1875,-64.25 69.3657,-67.1918 68.9787,-60.2025"/>
<text text-anchor="middle" x="114.5" y="-113" font-family="Helvetica,sans-Serif" font-size="10.00"> LIGHT_BLUE</text>
<text text-anchor="middle" x="114.5" y="-102" font-family="Helvetica,sans-Serif" font-size="10.00">LIGHT_ORANGE</text>
<text text-anchor="middle" x="114.5" y="-91" font-family="Helvetica,sans-Serif" font-size="10.00">GRAY</text>
<text text-anchor="middle" x="114.5" y="-80" font-family="Helvetica,sans-Serif" font-size="10.00">DARK_RED</text>
<text text-anchor="middle" x="114.5" y="-69" font-family="Helvetica,sans-Serif" font-size="10.00">CYAN</text>
<text text-anchor="middle" x="114.5" y="-58" font-family="Helvetica,sans-Serif" font-size="10.00">LIGHT_GRAY</text>
<text text-anchor="middle" x="114.5" y="-47" font-family="Helvetica,sans-Serif" font-size="10.00">YELLOW</text>
<text text-anchor="middle" x="114.5" y="-36" font-family="Helvetica,sans-Serif" font-size="10.00">WHITE</text>
<text text-anchor="middle" x="114.5" y="-25" font-family="Helvetica,sans-Serif" font-size="10.00">MAGENTA</text>
<text text-anchor="middle" x="114.5" y="-14" font-family="Helvetica,sans-Serif" font-size="10.00">DARK_BLUE</text>
<text text-anchor="middle" x="114.5" y="-3" font-family="Helvetica,sans-Serif" font-size="10.00">...</text>
</g>
</g>
</svg>
